<svg width="24" height="24" viewBox="0 0 24 24" fill="none" xmlns="http://www.w3.org/2000/svg">
<path fill-rule="evenodd" clip-rule="evenodd" d="M7.83689 22.5349C7.1929 22.3377 6.90909 21.7011 6.90909 21.0436L6.90909 10.2958L5.87132 10.6327C5.44266 10.7718 5 10.4611 5 10.0211C5 9.80556 5.11062 9.60428 5.29478 9.48471L6.90909 8.43666L6.90909 3.77146C6.90909 2.83254 7.45382 1.9742 8.31618 1.5543L8.91708 1.26171C9.27053 1.0896 9.66028 1 10.0555 1L13.9445 1C14.3397 1 14.7295 1.0896 15.0829 1.2617L15.6838 1.5543C16.5462 1.9742 17.0909 2.83254 17.0909 3.77146V8.43666L18.7052 9.48471C18.8894 9.60428 19 9.80556 19 10.0211C19 10.4611 18.5573 10.7718 18.1287 10.6327L17.0909 10.2958L17.0909 21.0436C17.0909 21.7011 16.8071 22.3378 16.1631 22.535C14.1382 23.155 9.86172 23.155 7.83689 22.5349ZM15.6636 19.928C15.7555 20.4648 15.4687 20.9868 14.9193 21.0856C13.3601 21.3658 10.6398 21.3658 9.08068 21.0856C8.53123 20.9868 8.24449 20.4648 8.33635 19.928L8.6161 18.2935C8.72882 17.6348 9.35785 17.1846 10.0389 17.262C11.7041 17.4513 12.4459 17.4475 13.9566 17.2688C14.6395 17.188 15.2717 17.638 15.3848 18.2989L15.6636 19.928ZM15.4952 11.7066C15.3168 12.3144 14.6966 12.6909 14.0554 12.5918C12.4103 12.3376 11.676 12.3188 9.95316 12.5856C9.30815 12.6855 8.68167 12.3094 8.50224 11.6978L7.83563 9.42572C7.66738 8.85223 7.94034 8.23492 8.51972 8.04156C10.6549 7.32892 13.345 7.32891 15.4803 8.04154C16.0596 8.23491 16.3326 8.85222 16.1644 9.4257L15.4952 11.7066Z" fill="white"/>
</svg>