<svg width="24" height="24" viewBox="0 0 24 24" fill="none" xmlns="http://www.w3.org/2000/svg">
<path fill-rule="evenodd" clip-rule="evenodd" d="M6.93387 7.21343V8.21895H8.08493V7.21343H8.77968V6.22276H8.08493V3.02441H6.95031L3.99866 6.54185V7.21343H6.93387ZM6.93387 6.22276H5.52793L6.93387 4.49372V6.22276Z" fill="black"/>
<path d="M10.068 8.20667L8.9575 3.02441H10.1642L10.6751 5.63775C10.6874 5.69204 10.696 5.7414 10.701 5.78582C10.7059 5.82777 10.7121 5.88453 10.7195 5.95609C10.7269 5.89193 10.7343 5.83517 10.7417 5.78582C10.7491 5.734 10.759 5.68217 10.7713 5.63035L11.3858 3.02441H12.4148L13.0367 5.62665C13.049 5.67107 13.0589 5.72289 13.0663 5.78212C13.0737 5.84134 13.0811 5.90427 13.0885 5.9709C13.0984 5.9092 13.107 5.85245 13.1144 5.80062C13.1243 5.7488 13.1329 5.70438 13.1403 5.66737L13.6511 3.02441H14.8579L13.74 8.20667H12.6295L11.9262 5.38604C11.9188 5.35643 11.9126 5.32312 11.9077 5.2861C11.9028 5.24908 11.8966 5.19603 11.8892 5.12693C11.8818 5.20096 11.8744 5.25525 11.867 5.2898C11.862 5.32188 11.8571 5.3515 11.8522 5.37864L11.1785 8.20667H10.068Z" fill="black"/>
<path fill-rule="evenodd" clip-rule="evenodd" d="M15.6129 8.20667V3.02441H17.5821C18.0362 3.02441 18.4236 3.09721 18.7445 3.24281C19.0653 3.38841 19.3268 3.58583 19.5292 3.83507C19.7316 4.08184 19.8796 4.35946 19.9734 4.66793C20.0672 4.9764 20.114 5.29227 20.114 5.61554C20.114 5.9092 20.0684 6.2078 19.9771 6.51133C19.8883 6.81487 19.7439 7.09495 19.544 7.3516C19.3466 7.60825 19.0838 7.81554 18.7556 7.97347C18.4298 8.12894 18.0288 8.20667 17.5525 8.20667H15.6129ZM16.7826 7.08879H17.6636C17.8881 7.08879 18.0782 7.0456 18.2336 6.95923C18.3916 6.87039 18.5187 6.75317 18.6149 6.60758C18.7136 6.46198 18.7852 6.30281 18.8296 6.13007C18.8765 5.95733 18.8999 5.78582 18.8999 5.61554C18.8999 5.43787 18.8765 5.26142 18.8296 5.08621C18.7852 4.911 18.7161 4.75183 18.6223 4.6087C18.5285 4.46558 18.4088 4.35083 18.2632 4.26445C18.1176 4.17808 17.9449 4.1349 17.745 4.1349H16.7826V7.08879Z" fill="black"/>
<path d="M16.5 10C16.2238 10 16 10.2239 16 10.5V11.5C16 11.7761 16.2238 12 16.5 12H17V13H19V12H19.5C19.7761 12 20 11.7761 20 11.5V10.5C20 10.2239 19.7761 10 19.5 10H16.5Z" fill="black"/>
<path d="M4.49997 18C4.22383 18 3.99997 18.2239 3.99997 18.5V19.5C3.99997 19.7761 4.22383 20 4.49997 20H7.49997C7.77611 20 7.99997 19.7761 7.99997 19.5V18.5C7.99997 18.2239 7.77611 18 7.49997 18H6.99997V17H4.99997V18H4.49997Z" fill="black"/>
<path d="M16 18.5C16 18.2239 16.2238 18 16.5 18H17V17H19V18H19.5C19.7761 18 20 18.2239 20 18.5V19.5C20 19.7761 19.7761 20 19.5 20H16.5C16.2238 20 16 19.7761 16 19.5V18.5Z" fill="black"/>
<path d="M4.49997 10C4.22383 10 3.99997 10.2239 3.99997 10.5V11.5C3.99997 11.7761 4.22383 12 4.49997 12H4.99997V13H6.99997V12H7.49997C7.77611 12 7.99997 11.7761 7.99997 11.5V10.5C7.99997 10.2239 7.77611 10 7.49997 10H4.49997Z" fill="black"/>
<path d="M16 14H7.99997V16H16V14Z" fill="black"/>
<path d="M17 15C17 14.4477 17.4477 14 18 14C18.5523 14 19 14.4477 19 15C19 15.5523 18.5523 16 18 16C17.4477 16 17 15.5523 17 15Z" fill="black"/>
<path d="M4.99997 15C4.99997 14.4477 5.44768 14 5.99997 14C6.55225 14 6.99997 14.4477 6.99997 15C6.99997 15.5523 6.55225 16 5.99997 16C5.44768 16 4.99997 15.5523 4.99997 15Z" fill="black"/>
</svg>
