<svg width="24" height="24" viewBox="0 0 24 24" fill="none" xmlns="http://www.w3.org/2000/svg">
<path d="M3.65259 8.20667L5.71809 3.02441H6.83598L8.90888 8.20667H7.62812L7.24315 7.22204H5.31091L4.93335 8.20667H3.65259ZM5.70328 6.14117H6.84338L6.42139 5.10472C6.40659 5.07017 6.38931 5.03192 6.36957 4.98997C6.3523 4.94555 6.33502 4.90113 6.31775 4.85671C6.30048 4.80983 6.28567 4.76664 6.27333 4.72716C6.26099 4.76664 6.24618 4.80983 6.22891 4.85671C6.21164 4.90113 6.19313 4.94555 6.17339 4.98997C6.15611 5.03192 6.14007 5.07017 6.12527 5.10472L5.70328 6.14117Z" fill="black"/>
<path d="M10.068 8.20667L8.95752 3.02441H10.1642L10.6751 5.63775C10.6874 5.69204 10.696 5.7414 10.701 5.78582C10.7059 5.82777 10.7121 5.88453 10.7195 5.95609C10.7269 5.89193 10.7343 5.83517 10.7417 5.78582C10.7491 5.734 10.759 5.68217 10.7713 5.63035L11.3858 3.02441H12.4148L13.0367 5.62665C13.049 5.67107 13.0589 5.72289 13.0663 5.78212C13.0737 5.84134 13.0811 5.90427 13.0885 5.9709C13.0984 5.9092 13.107 5.85245 13.1144 5.80062C13.1243 5.7488 13.1329 5.70438 13.1403 5.66737L13.6512 3.02441H14.8579L13.74 8.20667H12.6295L11.9262 5.38604C11.9188 5.35643 11.9126 5.32312 11.9077 5.2861C11.9028 5.24908 11.8966 5.19603 11.8892 5.12693C11.8818 5.20096 11.8744 5.25525 11.867 5.2898C11.8621 5.32188 11.8571 5.3515 11.8522 5.37864L11.1785 8.20667H10.068Z" fill="black"/>
<path d="M15.6129 8.20667V3.02441H17.5822C18.0362 3.02441 18.4237 3.09721 18.7445 3.24281C19.0653 3.38841 19.3269 3.58583 19.5292 3.83507C19.7316 4.08184 19.8796 4.35946 19.9734 4.66793C20.0672 4.9764 20.1141 5.29227 20.1141 5.61554C20.1141 5.9092 20.0684 6.2078 19.9771 6.51133C19.8883 6.81487 19.7439 7.09495 19.544 7.3516C19.3466 7.60825 19.0838 7.81554 18.7556 7.97347C18.4298 8.12894 18.0288 8.20667 17.5525 8.20667H15.6129ZM16.7826 7.08879H17.6636C17.8882 7.08879 18.0782 7.0456 18.2336 6.95923C18.3916 6.87039 18.5187 6.75317 18.6149 6.60758C18.7136 6.46198 18.7852 6.30281 18.8296 6.13007C18.8765 5.95733 18.8999 5.78582 18.8999 5.61554C18.8999 5.43787 18.8765 5.26142 18.8296 5.08621C18.7852 4.911 18.7161 4.75183 18.6223 4.6087C18.5285 4.46558 18.4089 4.35083 18.2633 4.26445C18.1177 4.17808 17.9449 4.1349 17.745 4.1349H16.7826V7.08879Z" fill="black"/>
<path d="M3.99999 18.5C3.99999 18.2239 4.22384 18 4.49999 18H7.49999C7.77613 18 7.99999 18.2239 7.99999 18.5V19.5C7.99999 19.7761 7.77613 20 7.49999 20H4.49999C4.22384 20 3.99999 19.7761 3.99999 19.5V18.5Z" fill="black"/>
<path d="M16 18.5C16 18.2239 16.2238 18 16.5 18H19.5C19.7761 18 20 18.2239 20 18.5V19.5C20 19.7761 19.7761 20 19.5 20H16.5C16.2238 20 16 19.7761 16 19.5V18.5Z" fill="black"/>
<path d="M16 10.5C16 10.2239 16.2238 10 16.5 10H19.5C19.7761 10 20 10.2239 20 10.5V11.5C20 11.7761 19.7761 12 19.5 12H16.5C16.2238 12 16 11.7761 16 11.5V10.5Z" fill="black"/>
<path d="M7.99999 14H16V16H7.99999V14Z" fill="black"/>
<path d="M17 11H19V13H17V11Z" fill="black"/>
<path d="M17 15C17 14.4477 17.4477 14 18 14C18.5523 14 19 14.4477 19 15C19 15.5523 18.5523 16 18 16C17.4477 16 17 15.5523 17 15Z" fill="black"/>
<path d="M19 19V17H17V19H19Z" fill="black"/>
<path d="M4.99999 15C4.99999 14.4477 5.4477 14 5.99999 14C6.55227 14 6.99999 14.4477 6.99999 15C6.99999 15.5523 6.55227 16 5.99999 16C5.4477 16 4.99999 15.5523 4.99999 15Z" fill="black"/>
<path d="M4.99999 17H6.99999V19H4.99999V17Z" fill="black"/>
<path d="M4.49999 10C4.22384 10 3.99999 10.2239 3.99999 10.5V11.5C3.99999 11.7761 4.22384 12 4.49999 12H4.99999V13H6.99999V12H7.49999C7.77613 12 7.99999 11.7761 7.99999 11.5V10.5C7.99999 10.2239 7.77613 10 7.49999 10H4.49999ZM6.99999 12H4.99999V11H6.99999V12Z" fill="black"/>
<path d="M6.99999 11H4.99999V12H6.99999V11Z" fill="black"/>
</svg>
