<svg width="24" height="24" viewBox="0 0 24 24" fill="none" xmlns="http://www.w3.org/2000/svg">
<path fill-rule="evenodd" clip-rule="evenodd" d="M1 8.38919C1 7.06968 2.06967 6 3.38918 6H5.03429L7.21819 10.8473L2.38927 17.0571H5.5078L8.35556 13.395L9.97155 17.0494H12.8848L12.8661 17.0406L9.87849 11.2969L12.5 8H14L16.1316 6L19.874 6C20.4563 6 20.9467 6.09705 21.3454 6.29114C21.7493 6.48523 22.0746 6.74228 22.3211 7.06227C22.5677 7.37701 22.746 7.72586 22.8562 8.1088C22.9663 8.49174 23 8.91562 23 9.29856C23 9.81789 22.9056 10.3084 22.7167 10.77C22.5279 11.2316 22.2551 11.6382 21.8984 11.9896C21.5417 12.3411 21.1063 12.6191 20.5922 12.8237C20.0834 13.0231 19.5063 13.1227 18.8611 13.1227H16.3914L15.699 17.057H15.6969L15.3891 18.5H3.38918C2.06967 18.5 1 17.4303 1 16.1108V8.38919ZM19.2714 10.8408H16.8006L17.257 8.32285H19.7277C19.9848 8.32285 20.1841 8.37793 20.3258 8.48809C20.4674 8.593 20.5644 8.73726 20.6169 8.92086C20.6746 9.10447 20.7034 9.30905 20.7034 9.53462C20.7034 9.71297 20.6536 9.90444 20.5539 10.109C20.4595 10.3084 20.3074 10.4815 20.0976 10.6284C19.8877 10.77 19.6123 10.8408 19.2714 10.8408Z" fill="black"/>
<path d="M7.64446 6L8.83905 8.98648L10.9684 6H7.64446Z" fill="black"/>
</svg>
