<svg width="24" height="24" viewBox="0 0 24 24" fill="none" xmlns="http://www.w3.org/2000/svg">
<path d="M6.34676 6.93919C6.34676 6.93919 13.8771 6.83462 14.9769 6.83462C16.0766 6.83462 16.4412 7.49083 16.3279 8.01147C16.1894 8.64719 15.8471 8.97732 14.9769 9.20876C14.1066 9.4402 12.575 9.4402 12.575 9.4402L12.1259 11.6633C12.1259 11.6633 13.8875 11.6633 14.9769 12.2191C16.0662 12.7749 16.5875 13.8163 16.3279 14.8762C15.9914 16.2496 15.1416 17.0769 14 17.2211C12.8584 17.3654 9.48137 17.3205 9.48137 17.3205L9.72226 15.5538L10.025 13.3307L10.5549 9.4402H4.63401L4.08934 11.6633H7.55426L7.25454 13.3307H3.54467L3 15.5538H6.96405L6.26803 20H14.2253C16.8622 20 19.2272 18.409 19.8606 15.8237C20.3501 13.8258 19.5162 11.7665 17.8991 10.6857C18.4861 10.202 18.9671 9.35071 19.137 8.57076C19.6283 6.31466 18.3983 4 15.8394 4C13.2805 4 6.78334 4.16029 6.78334 4.16029L6.34676 6.93919Z" fill="black"/>
</svg>
