<svg width="16" height="16" viewBox="0 0 16 16" fill="none" xmlns="http://www.w3.org/2000/svg">
<path fill-rule="evenodd" clip-rule="evenodd" d="M12.1577 2H3C2.44772 2 2 2.44772 2 3V13C2 13.5523 2.44772 14 3 14H9.65767C10.1165 14 10.5165 13.6877 10.6278 13.2425L13.1278 3.24254C13.2856 2.61139 12.8082 2 12.1577 2ZM3 0C1.34315 0 0 1.34315 0 3V13C0 14.6569 1.34315 16 3 16H9.65767C11.0343 16 12.2342 15.0631 12.5681 13.7276L15.0681 3.72761C15.5415 1.83417 14.1094 0 12.1577 0H3Z" fill="white"/>
</svg>
