<svg width="16" height="16" viewBox="0 0 16 16" fill="none" xmlns="http://www.w3.org/2000/svg">
<path fill-rule="evenodd" clip-rule="evenodd" d="M12.0724 0.599111L12.6383 0.0378796C12.4823 0.0129787 12.3218 0 12.1577 0H3C1.34315 0 0 1.34315 0 3V13C0 14.6569 1.34315 16 3 16H9.65767C11.0343 16 12.2342 15.0631 12.5681 13.7276L15.0681 3.72761C15.2089 3.16453 15.1811 2.6067 15.0213 2.10079L13.3725 3.73592L12.0724 0.599111ZM11.2256 1.46385L12.5257 4.60066L9.15939 8.03807L12.0607 10.9393L9.93934 13.0607L7.05614 10.1775L2.66327 14.6368L1.36319 11.5L4.84643 7.96775L1.93934 5.06066L4.06066 2.93934L6.95054 5.82922L11.2256 1.46385Z" fill="white"/>
</svg>
