<svg width="16" height="16" viewBox="0 0 16 16" fill="none" xmlns="http://www.w3.org/2000/svg">
<path fill-rule="evenodd" clip-rule="evenodd" d="M14.3964 1.0029C14.1924 0.773897 13.837 0.850643 13.6911 1.12036L7.1381 13.229C7.0527 13.3868 6.8893 13.4867 6.70992 13.4909L4.72328 13.5368C4.53724 13.5411 4.3642 13.4417 4.27416 13.2789L1.10585 7.54854C0.977262 7.31597 1.05307 7.02345 1.27842 6.88261L2.96039 5.83138C3.2082 5.67649 3.53546 5.76624 3.6696 6.02586L5.18898 8.96656C5.37366 9.32402 5.88342 9.32804 6.07372 8.97354L10.4956 0.736492C10.6744 0.403395 10.4331 0 10.0551 0H3C1.34315 0 0 1.34315 0 3V13C0 14.6569 1.34315 16 3 16H9.65767C11.0343 16 12.2342 15.0631 12.5681 13.7276L15.0681 3.72761C15.3224 2.71059 15.0269 1.71067 14.3964 1.0029Z" fill="white"/>
</svg>
