<svg width="24" height="24" viewBox="0 0 24 24" fill="none" xmlns="http://www.w3.org/2000/svg">
<path d="M3.5625 5C3.25184 5 3 5.25184 3 5.5625L3 7.5C3 7.81066 3.25184 8.0625 3.5625 8.0625H5L5 9.5H7L7 8.0625H8.4375C8.74816 8.0625 9 7.81066 9 7.5L9 5.5625C9 5.25184 8.74816 5 8.4375 5L3.5625 5Z" fill="black"/>
<path d="M15.5 11H8.5V13H15.5V11Z" fill="black"/>
<path d="M4.875 12C4.875 11.3787 5.37868 10.875 6 10.875C6.62132 10.875 7.125 11.3787 7.125 12C7.125 12.6213 6.62132 13.125 6 13.125C5.37868 13.125 4.875 12.6213 4.875 12Z" fill="black"/>
<path d="M3.5625 19C3.25184 19 3 18.7482 3 18.4375L3 16.5C3 16.1893 3.25184 15.9375 3.5625 15.9375H5L5 14.5H7L7 15.9375H8.4375C8.74816 15.9375 9 16.1893 9 16.5L9 18.4375C9 18.7482 8.74816 19 8.4375 19H3.5625Z" fill="black"/>
<path d="M15.5625 5C15.2518 5 15 5.25184 15 5.5625V7.5C15 7.81066 15.2518 8.0625 15.5625 8.0625H17V9.5H19V8.0625H20.4375C20.7482 8.0625 21 7.81066 21 7.5V5.5625C21 5.25184 20.7482 5 20.4375 5L15.5625 5Z" fill="black"/>
<path d="M16.875 12C16.875 11.3787 17.3787 10.875 18 10.875C18.6213 10.875 19.125 11.3787 19.125 12C19.125 12.6213 18.6213 13.125 18 13.125C17.3787 13.125 16.875 12.6213 16.875 12Z" fill="black"/>
<path d="M15.5625 19C15.2518 19 15 18.7482 15 18.4375V16.5C15 16.1893 15.2518 15.9375 15.5625 15.9375H17V14.5H19V15.9375H20.4375C20.7482 15.9375 21 16.1893 21 16.5V18.4375C21 18.7482 20.7482 19 20.4375 19H15.5625Z" fill="black"/>
</svg>
