<svg width="24" height="24" viewBox="0 0 24 24" fill="none" xmlns="http://www.w3.org/2000/svg">
<path d="M8.73845 8.11533C9.00995 8.23381 9.31108 8.29305 9.64183 8.29305C9.99972 8.29305 10.3218 8.23134 10.6081 8.10793C10.8969 7.98205 11.1252 7.80186 11.2931 7.56738C11.4609 7.3329 11.5448 7.04905 11.5448 6.71583C11.5448 6.43939 11.493 6.20737 11.3893 6.01979C11.2881 5.8322 11.1512 5.67547 10.9784 5.54959C10.8081 5.42371 10.618 5.31757 10.4082 5.23118C10.1984 5.14479 9.98738 5.06581 9.77511 4.99423C9.5974 4.93252 9.43943 4.87452 9.30121 4.82022C9.16545 4.76592 9.05808 4.70544 8.9791 4.6388C8.90258 4.56969 8.86433 4.487 8.86433 4.39074C8.86433 4.24265 8.9211 4.13034 9.03464 4.05383C9.15064 3.97484 9.31478 3.93535 9.52705 3.93535C9.76647 3.93535 9.95282 3.98842 10.0861 4.09455C10.2219 4.20069 10.3255 4.33274 10.3971 4.49071L11.3449 4.176C11.2807 3.94152 11.1697 3.73049 11.0117 3.5429C10.8537 3.35531 10.6538 3.20722 10.4119 3.09861C10.17 2.98754 9.89359 2.93201 9.58259 2.93201C9.20495 2.93201 8.88284 2.99742 8.61627 3.12823C8.35216 3.25905 8.14977 3.4343 8.00908 3.65397C7.87086 3.87118 7.80174 4.1106 7.80174 4.37223C7.80174 4.63633 7.85111 4.85848 7.94984 5.03866C8.05104 5.21637 8.18432 5.36323 8.3497 5.47924C8.51507 5.59525 8.69649 5.69274 8.89395 5.77173C9.09141 5.84824 9.2864 5.91859 9.47892 5.98276C9.67391 6.04694 9.84669 6.11111 9.99725 6.17529C10.1478 6.23699 10.2663 6.30981 10.3527 6.39373C10.4391 6.47765 10.4823 6.58378 10.4823 6.71213C10.4823 6.89972 10.4082 7.04288 10.2601 7.14161C10.112 7.24034 9.91457 7.2897 9.66774 7.2897C9.42832 7.2897 9.21112 7.21319 9.01612 7.06016C8.82113 6.90466 8.66687 6.70596 8.55333 6.46407L7.59811 6.8232C7.69931 7.1268 7.84617 7.38843 8.0387 7.60811C8.23369 7.82778 8.46694 7.99686 8.73845 8.11533Z" fill="black"/>
<path fill-rule="evenodd" clip-rule="evenodd" d="M12.4717 3.02086V8.20419H13.5379V6.31968H14.7301C15.0485 6.31968 15.3212 6.27032 15.5483 6.17159C15.7754 6.07286 15.9593 5.94327 16.1 5.78284C16.2431 5.61993 16.348 5.44222 16.4147 5.24969C16.4813 5.0547 16.5146 4.86218 16.5146 4.67212C16.5146 4.39815 16.4579 4.13528 16.3443 3.88352C16.2308 3.63176 16.0432 3.42566 15.7816 3.26522C15.5199 3.10232 15.1695 3.02086 14.7301 3.02086H12.4717ZM14.7745 5.31634H13.5379V4.02421H14.7745C14.9374 4.02421 15.0658 4.05876 15.1596 4.12787C15.2534 4.19698 15.3188 4.28214 15.3558 4.38334C15.3953 4.48207 15.415 4.57833 15.415 4.67212C15.415 4.77332 15.3941 4.87452 15.3521 4.97572C15.3101 5.07445 15.2423 5.1559 15.1485 5.22007C15.0547 5.28425 14.93 5.31634 14.7745 5.31634Z" fill="black"/>
<path d="M16 10.5C16 10.2238 16.2239 9.99998 16.5 9.99998H19.5C19.7761 9.99998 20 10.2238 20 10.5V11.5C20 11.7761 19.7761 12 19.5 12H19V13H17V12H16.5C16.2239 12 16 11.7761 16 11.5V10.5Z" fill="black"/>
<path d="M4.5 18C4.22386 18 4 18.2238 4 18.5V19.5C4 19.7761 4.22386 20 4.5 20H7.5C7.77614 20 8 19.7761 8 19.5V18.5C8 18.2238 7.77614 18 7.5 18H7V17H5V18H4.5Z" fill="black"/>
<path d="M16 18.5C16 18.2238 16.2239 18 16.5 18H17V17H19V18H19.5C19.7761 18 20 18.2238 20 18.5V19.5C20 19.7761 19.7761 20 19.5 20H16.5C16.2239 20 16 19.7761 16 19.5V18.5Z" fill="black"/>
<path d="M4.5 9.99998C4.22386 9.99998 4 10.2238 4 10.5V11.5C4 11.7761 4.22386 12 4.5 12H5V13H7V12H7.5C7.77614 12 8 11.7761 8 11.5V10.5C8 10.2238 7.77614 9.99998 7.5 9.99998H4.5Z" fill="black"/>
<path d="M16 14H8V16H16V14Z" fill="black"/>
<path d="M17 15C17 14.4477 17.4477 14 18 14C18.5523 14 19 14.4477 19 15C19 15.5523 18.5523 16 18 16C17.4477 16 17 15.5523 17 15Z" fill="black"/>
<path d="M5 15C5 14.4477 5.44772 14 6 14C6.55228 14 7 14.4477 7 15C7 15.5523 6.55228 16 6 16C5.44772 16 5 15.5523 5 15Z" fill="black"/>
</svg>
