<svg width="98" height="211" viewBox="0 0 98 211" fill="none" xmlns="http://www.w3.org/2000/svg">
<path fill-rule="evenodd" clip-rule="evenodd" d="M5.2765 0.380676L32.1811 9.63534C40.2327 12.4049 46.8485 18.2692 50.5644 25.9302L65.5552 56.8371L68.6968 55.3214C71.3184 54.0566 74.4805 54.8521 76.1288 57.2511C84.7957 69.8656 89.4246 79.713 95.3777 95.2435C96.4494 98.0393 95.2684 101.195 92.6356 102.621L74.5652 112.409C73.6877 112.885 72.7054 113.133 71.7075 113.133H23.7134C22.1221 113.133 20.596 112.501 19.4707 111.376L17.9856 109.891C16.8603 108.766 16.2282 107.239 16.2283 105.648L16.2298 84.4011C16.2299 82.098 17.5483 79.9983 19.6226 78.9975L52.9459 62.9205L37.9679 32.0399C35.8777 27.7305 32.1563 24.4319 27.6273 22.874L0.722656 13.6194L5.2765 0.380676ZM91.3029 105.669C92.6345 104.971 94.2309 105.937 94.2309 107.44V185.635C94.2309 186.463 94.9024 187.135 95.7309 187.135C96.5593 187.135 97.2309 187.806 97.2309 188.635V197.635C97.2309 198.463 96.5593 199.135 95.7309 199.135C94.9024 199.135 94.2309 199.806 94.2309 200.635V208.293C94.2309 209.181 93.6473 209.977 92.7735 210.136C90.4317 210.561 88.0092 210.394 85.7309 209.635C82.8099 208.661 79.6519 208.661 76.7309 209.635L75.8633 209.924C74.5683 210.356 73.2309 209.392 73.2309 208.027V200.635C73.2309 199.806 72.5593 199.135 71.7309 199.135C70.9024 199.135 70.2309 198.463 70.2309 197.635V188.635C70.2309 187.806 70.9024 187.135 71.7309 187.135C72.5593 187.135 73.2309 186.463 73.2309 185.635V184.838C73.2309 183.7 72.2812 182.792 71.1435 182.83C62.698 183.114 55.5612 182.855 47.1099 182.162C40.1103 181.588 33.6597 178.197 29.035 172.911C24.6455 167.895 22.1898 161.467 22.1826 154.801C22.168 141.321 22.4239 131.358 23.58 116.972C23.6634 115.935 24.5305 115.135 25.5706 115.135H33.9785C35.1767 115.135 36.105 116.187 35.9674 117.377C34.0951 133.572 33.7338 142.163 34.0114 152.228C34.1162 156.028 35.7214 159.626 38.4097 162.314C40.8813 164.786 44.1277 166.362 47.6141 166.615C56.3713 167.248 63.2639 166.915 71.6699 165.141C72.5839 164.949 73.2309 164.136 73.2309 163.202V116.345C73.2309 115.601 73.6438 114.918 74.3029 114.573L91.3029 105.669Z" fill="black" fill-opacity="1"/>
</svg>
