<svg width="24" height="24" viewBox="0 0 24 24" fill="none" xmlns="http://www.w3.org/2000/svg">
<path fill-rule="evenodd" clip-rule="evenodd" d="M6 3.5C5.44772 3.5 5 3.94772 5 4.5V9C5 9.55228 5.44772 10 6 10H12C12.5523 10 13 9.55228 13 9V4.5C13 3.94772 12.5523 3.5 12 3.5H6ZM7 5C6.44772 5 6 5.44772 6 6V7C6 7.55228 6.44772 8 7 8H11C11.5523 8 12 7.55228 12 7V6C12 5.44772 11.5523 5 11 5H7Z" fill="black"/>
<path d="M5 11.5C5 11.2239 5.22386 11 5.5 11H12.5C12.7761 11 13 11.2239 13 11.5V12C14.5208 12 15.8141 13.1096 16.0454 14.6127L16.4612 17.3156C16.5749 18.0546 17.1702 18.6254 17.9133 18.708C18.8931 18.8168 19.75 18.0499 19.75 17.0641V10.3333L17 8.5L17.3286 6.85714L14.5 4.5L15 3.5L19.2957 5.9888C20.5004 6.64592 21.25 7.90861 21.25 9.2809V17.0641C21.25 18.9439 19.616 20.4064 17.7477 20.1988C16.3307 20.0414 15.1955 18.9529 14.9787 17.5437L14.5628 14.8408C14.4442 14.0694 13.7804 13.5 13 13.5V19H13.5C13.7761 19 14 19.2239 14 19.5V20.5C14 20.7761 13.7761 21 13.5 21H4.5C4.22386 21 4 20.7761 4 20.5V19.5C4 19.2239 4.22386 19 4.5 19H5V11.5Z" fill="black"/>
</svg>
