<svg width="24" height="24" viewBox="0 0 24 24" fill="none" xmlns="http://www.w3.org/2000/svg">
<path d="M5 3V8.18521H6.17037V6.06668H7.73334V4.95556H6.17037V4.11112H8.66668V3H5Z" fill="black"/>
<path d="M8.98526 3L10.0964 8.18521H11.2075L11.8816 5.35557C11.8865 5.3284 11.8914 5.29877 11.8964 5.26668C11.9038 5.23211 11.9112 5.17779 11.9186 5.10371C11.926 5.17285 11.9322 5.22593 11.9371 5.26297C11.9421 5.30001 11.9482 5.33334 11.9556 5.36297L12.6593 8.18521H13.7705L14.889 3H13.6816L13.1705 5.64445C13.1631 5.68149 13.1544 5.72594 13.1445 5.77779C13.1371 5.82964 13.1285 5.88643 13.1186 5.94816C13.1112 5.88149 13.1038 5.81853 13.0964 5.75927C13.089 5.70001 13.0791 5.64816 13.0668 5.60371L12.4445 3H11.4149L10.8001 5.60742C10.7877 5.65927 10.7779 5.71112 10.7705 5.76297C10.763 5.81236 10.7556 5.86915 10.7482 5.93334C10.7408 5.86174 10.7346 5.80495 10.7297 5.76297C10.7248 5.71853 10.7161 5.66915 10.7038 5.61483L10.1927 3H8.98526Z" fill="black"/>
<path fill-rule="evenodd" clip-rule="evenodd" d="M15.4963 8.18521V3H17.4667C17.921 3 18.3086 3.07284 18.6296 3.21852C18.9506 3.3642 19.2123 3.56173 19.4148 3.81111C19.6173 4.05803 19.7654 4.33581 19.8593 4.64445C19.9531 4.95309 20 5.26915 20 5.5926C20 5.88643 19.9543 6.1852 19.863 6.4889C19.7741 6.79261 19.6296 7.07286 19.4296 7.32965C19.2321 7.58644 18.9691 7.79385 18.6407 7.95187C18.3148 8.10743 17.9136 8.18521 17.437 8.18521H15.4963ZM16.6667 7.06668H17.5481C17.7728 7.06668 17.963 7.02347 18.1185 6.93705C18.2765 6.84816 18.4037 6.73088 18.5 6.5852C18.5988 6.43952 18.6704 6.28026 18.7148 6.10742C18.7617 5.93458 18.7852 5.76297 18.7852 5.5926C18.7852 5.41482 18.7617 5.23828 18.7148 5.06297C18.6704 4.88766 18.6012 4.7284 18.5074 4.58519C18.4136 4.44198 18.2938 4.32717 18.1481 4.24075C18.0025 4.15433 17.8296 4.11112 17.6296 4.11112H16.6667V7.06668Z" fill="black"/>
<path d="M4.5 18C4.22386 18 4 18.2239 4 18.5V19.5C4 19.7761 4.22386 20 4.5 20H7.5C7.77614 20 8 19.7761 8 19.5V18.5C8 18.2239 7.77614 18 7.5 18H4.5Z" fill="black"/>
<path d="M16 18.5C16 18.2239 16.2239 18 16.5 18H17V17H19V18H19.5C19.7761 18 20 18.2239 20 18.5V19.5C20 19.7761 19.7761 20 19.5 20H16.5C16.2239 20 16 19.7761 16 19.5V18.5Z" fill="black"/>
<path d="M16.5 10C16.2239 10 16 10.2239 16 10.5V11.5C16 11.7761 16.2239 12 16.5 12H17V13H19V12H19.5C19.7761 12 20 11.7761 20 11.5V10.5C20 10.2239 19.7761 10 19.5 10H16.5Z" fill="black"/>
<path d="M4 10.5C4 10.2239 4.22386 10 4.5 10H7.5C7.77614 10 8 10.2239 8 10.5V11.5C8 11.7761 7.77614 12 7.5 12H4.5C4.22386 12 4 11.7761 4 11.5V10.5Z" fill="black"/>
<path d="M17 15C17 14.4477 17.4477 14 18 14C18.5523 14 19 14.4477 19 15C19 15.5523 18.5523 16 18 16C17.4477 16 17 15.5523 17 15Z" fill="black"/>
</svg>
