<svg width="24" height="24" viewBox="0 0 24 24" fill="none" xmlns="http://www.w3.org/2000/svg">
<path d="M18.7956 10.5056C18.5044 10.5056 18.2392 10.4748 17.9999 10.4132C17.7635 10.3545 17.5531 10.2797 17.3686 10.1888C17.187 10.0949 17.0313 9.99813 16.9016 9.8984L17.6021 8.8072C17.703 8.87173 17.8154 8.93333 17.9394 8.992C18.0634 9.05067 18.196 9.09907 18.3372 9.1372C18.4814 9.17533 18.6342 9.1944 18.7956 9.1944C18.9916 9.1944 19.1632 9.16213 19.3102 9.0976C19.4601 9.03307 19.5754 8.93627 19.6561 8.8072C19.7398 8.6752 19.7816 8.51093 19.7816 8.3144C19.7816 8.17067 19.757 8.04307 19.708 7.9316C19.6619 7.8172 19.5898 7.72773 19.4918 7.6632C19.3967 7.59867 19.2742 7.5664 19.1243 7.5664C18.9167 7.5664 18.7466 7.60453 18.614 7.6808C18.4814 7.75707 18.3545 7.8656 18.2334 8.0064L17.0745 7.3728L17.1238 6.00006C16.532 6.00625 16.0541 6.49634 16.0541 7.1V15.9C16.0541 16.4206 16.4095 16.8568 16.887 16.9709C16.8608 16.8098 16.8477 16.642 16.8477 16.4676C16.8477 15.8193 16.9716 15.218 17.2196 14.6636C17.4704 14.1062 17.8682 13.6354 18.4131 13.2512C18.9608 12.864 19.6787 12.6014 20.5666 12.4636V13.7748C20.3014 13.8158 20.0304 13.8833 19.7536 13.9772C19.4797 14.071 19.2289 14.2016 19.0012 14.3688C18.7734 14.536 18.5976 14.7486 18.4736 15.0068C18.5774 14.9452 18.697 14.8953 18.8325 14.8572C18.968 14.8161 19.1194 14.7956 19.2866 14.7956C19.6815 14.7956 20.0333 14.8821 20.3417 15.0552C20.6531 15.2253 20.8981 15.4629 21.0769 15.768C21.2556 16.0701 21.345 16.4206 21.345 16.8196C21.345 16.8507 21.3444 16.8815 21.3432 16.912C21.7294 16.7442 22 16.3543 22 15.9V7.1C22 6.49249 21.516 6 20.9189 6H18.4357L18.4237 6.3608C18.5506 6.32853 18.6659 6.3036 18.7697 6.286C18.8763 6.26547 18.9916 6.2552 19.1156 6.2552C19.5596 6.2552 19.93 6.3476 20.227 6.5324C20.5268 6.71427 20.7516 6.96213 20.9016 7.276C21.0543 7.58987 21.1307 7.94187 21.1307 8.332C21.1307 8.78667 21.0284 9.1768 20.8237 9.5024C20.619 9.82507 20.3408 10.0729 19.9891 10.246C19.6374 10.4191 19.2396 10.5056 18.7956 10.5056Z" fill="black"/>
<path d="M19.9751 17C19.9889 16.9439 19.9958 16.8838 19.9958 16.8196C19.9958 16.6025 19.9136 16.4294 19.7493 16.3004C19.585 16.1713 19.3788 16.1068 19.1309 16.1068C18.9608 16.1068 18.8095 16.1376 18.6769 16.1992C18.5442 16.2608 18.439 16.3458 18.3612 16.4544C18.2862 16.56 18.2487 16.6817 18.2487 16.8196C18.2487 16.8838 18.2556 16.9439 18.2695 17H19.9751Z" fill="black"/>
<path fill-rule="evenodd" clip-rule="evenodd" d="M10.1081 6.00001C9.51104 6.00001 9.02703 6.4925 9.02703 7.10001V15.9C9.02703 16.5075 9.51104 17 10.1081 17H13.8919C14.489 17 14.973 16.5075 14.973 15.9V7.10001C14.973 6.4925 14.489 6.00001 13.8919 6.00001H10.1081ZM11.1162 14.2632C11.3555 14.3248 11.6207 14.3556 11.9119 14.3556C12.3559 14.3556 12.7537 14.2691 13.1054 14.096C13.4571 13.9229 13.7353 13.6751 13.94 13.3524C14.1447 13.0268 14.2471 12.6367 14.2471 12.182C14.2471 11.7919 14.1707 11.4399 14.0179 11.126C13.868 10.8121 13.6431 10.5643 13.3433 10.3824C13.0463 10.1976 12.6759 10.1052 12.2319 10.1052C12.108 10.1052 11.9926 10.1155 11.886 10.136C11.7822 10.1536 11.6669 10.1785 11.54 10.2108L11.566 9.42761H13.8665V8.09001H10.3033L10.1908 11.2228L11.3498 11.8564C11.4708 11.7156 11.5977 11.6071 11.7303 11.5308C11.8629 11.4545 12.033 11.4164 12.2406 11.4164C12.3905 11.4164 12.513 11.4487 12.6081 11.5132C12.7062 11.5777 12.7782 11.6672 12.8244 11.7816C12.8734 11.8931 12.8979 12.0207 12.8979 12.1644C12.8979 12.3609 12.8561 12.5252 12.7725 12.6572C12.6917 12.7863 12.5764 12.8831 12.4265 12.9476C12.2795 13.0121 12.108 13.0444 11.9119 13.0444C11.7505 13.0444 11.5977 13.0253 11.4535 12.9872C11.3123 12.9491 11.1797 12.9007 11.0557 12.842C10.9317 12.7833 10.8193 12.7217 10.7184 12.6572L10.0179 13.7484C10.1476 13.8481 10.3033 13.9449 10.4849 14.0388C10.6694 14.1297 10.8798 14.2045 11.1162 14.2632Z" fill="black"/>
<path fill-rule="evenodd" clip-rule="evenodd" d="M3.08108 6.00001C2.48402 6.00001 2 6.4925 2 7.10001V15.9C2 16.5075 2.48402 17 3.08108 17H6.86486C7.46193 17 7.94595 16.5075 7.94595 15.9V7.10001C7.94595 6.4925 7.46193 6.00001 6.86486 6.00001H3.08108ZM3.00831 12.9828C2.90741 13.3465 2.85696 13.7689 2.85696 14.25H7.0602V12.9212H4.44831C4.51462 12.7745 4.59822 12.6455 4.69912 12.534C4.80002 12.4196 4.93408 12.3037 5.10128 12.1864C5.27137 12.0661 5.49191 11.9239 5.76291 11.7596C6.00507 11.6129 6.21984 11.4575 6.40723 11.2932C6.59462 11.126 6.74164 10.9251 6.84831 10.6904C6.95498 10.4557 7.00831 10.1609 7.00831 9.80601C7.00831 9.47454 6.93047 9.17094 6.7748 8.89521C6.622 8.61947 6.39714 8.39947 6.1002 8.23521C5.80615 8.06801 5.44867 7.98441 5.02777 7.98441C4.59534 7.98441 4.18885 8.10321 3.80831 8.34081C3.42777 8.57841 3.14236 8.90841 2.95209 9.33081L4.16291 9.89401C4.26669 9.70334 4.39498 9.55667 4.54777 9.45401C4.70056 9.34841 4.87209 9.29561 5.06236 9.29561C5.24399 9.29561 5.38957 9.34401 5.49912 9.44081C5.61155 9.53467 5.66777 9.67401 5.66777 9.85881C5.66777 9.99374 5.63173 10.1125 5.55966 10.2152C5.48759 10.3179 5.3939 10.4103 5.27858 10.4924C5.16327 10.5716 5.04218 10.6479 4.91534 10.7212C4.6184 10.8884 4.34453 11.0776 4.09372 11.2888C3.84291 11.4971 3.62525 11.7405 3.44074 12.0192C3.25624 12.2949 3.11209 12.6161 3.00831 12.9828Z" fill="black"/>
</svg>
