<svg width="24" height="24" viewBox="0 0 24 24" fill="none" xmlns="http://www.w3.org/2000/svg">
<path d="M12.1423 17.0858L8.24695 10.6077L9.01802 9.97095L14.6426 15.021C15.6219 14.9045 16.6385 15.2728 17.3132 16.0898C18.3682 17.3674 18.1877 19.2583 16.9102 20.3133C15.6326 21.3683 13.7417 21.1878 12.6867 19.9103C12.012 19.0933 11.8426 18.0254 12.1423 17.0858Z" fill="black"/>
<path d="M5.84875 11.7635C4.67632 13.2865 4 15.0801 4 17C4 17.6849 4.08608 18.3538 4.25005 19H2.17642C2.06026 18.3481 2 17.6801 2 17C2 14.5824 2.76145 12.319 4.08785 10.38L5.84875 11.7635Z" fill="black"/>
<path d="M5.005 9.19296L6.85042 10.6429C7.64198 9.87482 8.57407 9.20286 9.61519 8.6522L8.3635 6.3697C7.08135 7.15354 5.94733 8.10722 5.005 9.19296Z" fill="black"/>
<path d="M9.67981 5.65045L10.9818 8.02467C12.6461 7.36858 14.5192 7 16.5 7C17.7435 7 18.9446 7.14527 20.0783 7.41575L21.1146 4.49518C19.8071 4.17266 18.4268 4 17 4C14.3417 4 11.845 4.59928 9.67981 5.65045Z" fill="black"/>
</svg>
