<svg width="24" height="24" viewBox="0 0 24 24" fill="none" xmlns="http://www.w3.org/2000/svg">
<path d="M12.0173 18.326L5.82544 13.9901L6.27118 13.095L13.4627 15.4233C14.3102 14.9188 15.3887 14.8421 16.3372 15.3144C17.8203 16.053 18.424 17.854 17.6854 19.3371C16.9469 20.8203 15.1459 21.4239 13.6627 20.6854C12.7142 20.2131 12.1254 19.3063 12.0173 18.326Z" fill="black"/>
<path d="M20.0783 7.41575L21.1146 4.49518C19.8071 4.17266 18.4268 4 17 4C12.0962 4 7.742 6.0394 5.005 9.19296L6.85042 10.6429C9.14307 8.41824 12.6145 7 16.5 7C17.7435 7 18.9446 7.14527 20.0783 7.41575Z" fill="black"/>
<path d="M5.84875 11.7635C5.21166 12.5911 4.72106 13.4986 4.40587 14.4628L2.39286 14.0314C2.74417 12.7279 3.32179 11.4998 4.08785 10.38L5.84875 11.7635Z" fill="black"/>
<path d="M2.09845 15.5024L4.07136 15.9252C4.02419 16.2783 4 16.6369 4 17C4 17.6849 4.08608 18.3538 4.25005 19H2.17642C2.06026 18.3481 2 17.6801 2 17C2 16.4935 2.03342 15.9938 2.09845 15.5024Z" fill="black"/>
</svg>
