<svg width="24" height="24" viewBox="0 0 24 24" fill="none" xmlns="http://www.w3.org/2000/svg">
<path d="M17.9967 18.1399C18.074 16.4849 16.795 15.0805 15.14 15.0032C14.0816 14.9538 13.1257 15.459 12.5538 16.2626L5.03422 17.0338L4.98755 18.0327L12.4025 19.5017C12.8969 20.355 13.8016 20.9472 14.86 20.9967C16.515 21.074 17.9194 19.795 17.9967 18.1399Z" fill="black"/>
<path d="M20.0783 7.41575L21.1146 4.49518C19.8071 4.17266 18.4268 4 17 4C9.89416 4 3.94235 8.28221 2.39286 14.0314L4.40587 14.4628C5.80961 10.1686 10.6923 7 16.5 7C17.7435 7 18.9446 7.14527 20.0783 7.41575Z" fill="black"/>
<path d="M4.07136 15.9252L2.09845 15.5024C2.03342 15.9938 2 16.4935 2 17C2 17.6801 2.06026 18.3481 2.17642 19H4.25005C4.08608 18.3538 4 17.6849 4 17C4 16.6369 4.02419 16.2783 4.07136 15.9252Z" fill="black"/>
</svg>
