<svg width="24" height="24" viewBox="0 0 24 24" fill="none" xmlns="http://www.w3.org/2000/svg">
<path d="M12.8818 15.875L12.3982 8.33143L13.3756 8.12012L16.0512 15.1898C16.9747 15.5362 17.7084 16.3304 17.9323 17.366C18.2824 18.9855 17.2534 20.5821 15.634 20.9322C14.0145 21.2823 12.4179 20.2533 12.0678 18.6339C11.8439 17.5982 12.184 16.5719 12.8818 15.875Z" fill="black"/>
<path d="M9.61519 8.6522C6.2318 10.4417 4 13.5123 4 17C4 17.6849 4.08608 18.3538 4.25005 19H2.17642C2.06026 18.3481 2 17.6801 2 17C2 12.607 4.51417 8.723 8.3635 6.3697L9.61519 8.6522Z" fill="black"/>
<path d="M10.9818 8.02467C12.0672 7.59677 13.2415 7.29117 14.4765 7.13035L14.368 4.19947C12.6928 4.45643 11.1136 4.95436 9.67981 5.65045L10.9818 8.02467Z" fill="black"/>
<path d="M15.863 4.03679L15.9731 7.00872C16.1478 7.00293 16.3235 7 16.5 7C17.7435 7 18.9446 7.14527 20.0783 7.41575L21.1146 4.49518C19.8071 4.17266 18.4268 4 17 4C16.6175 4 16.2383 4.01241 15.863 4.03679Z" fill="black"/>
</svg>
