<svg width="24" height="24" viewBox="0 0 24 24" fill="none" xmlns="http://www.w3.org/2000/svg">
<path d="M14.1524 15.1218L17.3266 8.26147L18.2865 8.54213L17.2647 16.0318C17.911 16.7769 18.1768 17.8249 17.8795 18.8419C17.4145 20.4321 15.7484 21.3443 14.1581 20.8793C12.5678 20.4143 11.6556 18.7482 12.1206 17.1579C12.418 16.141 13.2066 15.4013 14.1524 15.1218Z" fill="black"/>
<path fill-rule="evenodd" clip-rule="evenodd" d="M14.368 4.19947C7.33876 5.27772 2 10.5985 2 17C2 17.6801 2.06026 18.3481 2.17642 19H4.25005C4.08608 18.3538 4 17.6849 4 17C4 12.0283 8.5352 7.90399 14.4765 7.13035L14.368 4.19947ZM15.9731 7.00872C16.1478 7.00293 16.3235 7 16.5 7C17.7435 7 18.9446 7.14527 20.0783 7.41575L21.1146 4.49518C19.8071 4.17266 18.4268 4 17 4C16.6175 4 16.2383 4.01241 15.863 4.03679L15.9731 7.00872Z" fill="black"/>
</svg>
