<svg width="73" height="157" viewBox="0 0 73 157" fill="none" xmlns="http://www.w3.org/2000/svg">
<path fill-rule="evenodd" clip-rule="evenodd" d="M33.3822 0.405762L39.9007 13.0083C41.2776 12.5037 42.8369 12.8371 43.8884 13.8885C44.6 14.6002 45.5652 15 46.5717 15H47.2361C48.9715 15 50.608 15.836 51.6061 17.2557C61.1188 30.7863 65.9001 40.8208 72.1417 57.1059C73.2132 59.9019 72.0322 63.0576 69.3993 64.4836L51.3278 74.2717C50.4505 74.7469 49.4685 74.9958 48.4708 74.9958L9.48476 74.9992C7.89338 74.9993 6.36714 74.3672 5.24181 73.242L3.75691 71.7573C2.63157 70.632 1.99935 69.1058 1.99935 67.5144V39.451C1.99935 37.8816 2.62288 36.3765 3.73274 35.2668C4.55894 34.4408 5.12211 33.3886 5.35123 32.243L5.40786 31.9599C5.7334 30.3322 6.71567 28.9232 8.10468 28.0527L0.115723 12.5902L17.8842 3.40979L19.9277 7.36494L33.3822 0.405762ZM50.9455 77.5H47.9997L31.9441 77.946C30.8616 77.976 29.9997 78.8622 29.9997 79.9452L29.9992 141C29.9992 142.104 30.8946 143 31.9992 143H68.9987C70.1033 143 70.9987 142.104 70.9987 141V70.3216C70.9987 68.8144 69.3949 67.8488 68.0629 68.554L53.9992 75.9997L51.9748 77.2148C51.6639 77.4014 51.3081 77.5 50.9455 77.5ZM66.9992 145C68.1038 145 68.9992 145.895 68.9992 147V155C68.9992 156.104 68.1038 157 66.9992 157H43.9992C42.8946 157 41.9992 156.104 41.9992 155V147C41.9992 145.895 42.8946 145 43.9992 145H66.9992Z" fill="black" fill-opacity="1"/>
</svg>
