<svg width="24" height="24" viewBox="0 0 24 24" fill="none" xmlns="http://www.w3.org/2000/svg">
<path d="M3.39846 14.2624L9.52398 2.92256C9.77652 2.45506 10.4875 2.65207 10.4634 3.18287L10.1776 9.47733C10.1647 9.76208 10.392 10 10.6771 10H15.1307C15.5163 10 15.7568 10.4181 15.5629 10.7514L9.47422 21.2179C9.21058 21.6711 8.51593 21.4646 8.54268 20.941L8.81931 15.5255C8.83391 15.2397 8.60613 15 8.31996 15H3.83838C3.45975 15 3.2185 14.5955 3.39846 14.2624Z" fill="black"/>
<path d="M16 16.5304L18.5304 14L21.0607 16.5304L20 17.591L18.5304 16.1214L17.0607 17.591L16 16.5304Z" fill="black"/>
<path d="M16 12.5304L17.0607 13.591L18.5304 12.1214L20 13.591L21.0607 12.5304L18.5304 10L16 12.5304Z" fill="black"/>
<path d="M16 8.53038L18.5304 6.00002L21.0607 8.53038L20 9.59103L18.5304 8.12135L17.0607 9.59104L16 8.53038Z" fill="black"/>
</svg>
