<svg width="24" height="24" viewBox="0 0 24 24" fill="none" xmlns="http://www.w3.org/2000/svg">
<path fill-rule="evenodd" clip-rule="evenodd" d="M7 2.5C6.44772 2.5 6 2.94772 6 3.5V8C6 8.55228 6.44772 9 7 9H13C13.5523 9 14 8.55228 14 8V3.5C14 2.94772 13.5523 2.5 13 2.5H7ZM8 4C7.44772 4 7 4.44772 7 5V6C7 6.55228 7.44772 7 8 7H12C12.5523 7 13 6.55228 13 6V5C13 4.44772 12.5523 4 12 4H8Z" fill="black"/>
<path fill-rule="evenodd" clip-rule="evenodd" d="M6 10.5C6 10.2239 6.22386 10 6.5 10H13.5C13.7761 10 14 10.2239 14 10.5V19H14.5C14.7761 19 15 19.2239 15 19.5V20.5C15 20.7761 14.7761 21 14.5 21H5.5C5.22386 21 5 20.7761 5 20.5V19.5C5 19.2239 5.22386 19 5.5 19H6V10.5ZM10 18C11.1046 18 12 17.1046 12 16C12 14.8954 11.5 13.5 10 12C8.5 13.5 8 14.8954 8 16C8 17.1046 8.89543 18 10 18Z" fill="black"/>
<path d="M16 15.5304L18.5304 13L21.0607 15.5304L20 16.591L18.5304 15.1213L17.0607 16.591L16 15.5304Z" fill="black"/>
<path d="M16 11.5304L17.0607 12.591L18.5304 11.1213L20 12.591L21.0607 11.5304L18.5304 9.00001L16 11.5304Z" fill="black"/>
<path d="M16 7.53037L18.5304 5.00001L21.0607 7.53037L20 8.59102L18.5304 7.12134L17.0607 8.59103L16 7.53037Z" fill="black"/>
</svg>
