<svg width="24" height="24" viewBox="0 0 24 24" fill="none" xmlns="http://www.w3.org/2000/svg">
<path fill-rule="evenodd" clip-rule="evenodd" d="M4.46606 8.18226V3H7.03498C7.47671 3 7.82713 3.07773 8.08624 3.2332C8.34535 3.3862 8.53044 3.59102 8.64148 3.84767C8.755 4.10431 8.81176 4.3844 8.81176 4.68794C8.81176 4.87795 8.77598 5.07414 8.70441 5.27649C8.63285 5.47638 8.52797 5.66023 8.38977 5.82803C8.25405 5.99337 8.08871 6.11923 7.89376 6.2056L8.85618 8.18226H7.54581L6.6204 6.39068H5.63577V8.18226H4.46606ZM5.63577 5.2876H7.04979C7.18798 5.2876 7.29656 5.26045 7.37553 5.20616C7.45697 5.1494 7.51373 5.07537 7.54581 4.98407C7.58035 4.89276 7.59763 4.79405 7.59763 4.68794C7.59763 4.58923 7.58159 4.49545 7.54951 4.40661C7.51743 4.31777 7.46067 4.24498 7.37923 4.18822C7.30027 4.13146 7.19045 4.10308 7.04979 4.10308H5.63577V5.2876Z" fill="black"/>
<path d="M10.6764 8.18226L9.5659 3H10.7726L11.2835 5.61334C11.2958 5.66763 11.3044 5.71698 11.3094 5.7614C11.3143 5.80336 11.3205 5.86011 11.3279 5.93168C11.3353 5.86752 11.3427 5.81076 11.3501 5.7614C11.3575 5.70958 11.3674 5.65776 11.3797 5.60594L11.9942 3H13.0232L13.6451 5.60223C13.6574 5.64665 13.6673 5.69848 13.6747 5.7577C13.6821 5.81693 13.6895 5.87985 13.6969 5.94648C13.7068 5.88479 13.7154 5.82803 13.7228 5.77621C13.7327 5.72439 13.7413 5.67997 13.7487 5.64295L14.2595 3H15.4663L14.3484 8.18226H13.2379L12.5346 5.36163C12.5272 5.33202 12.521 5.2987 12.5161 5.26169C12.5112 5.22467 12.505 5.17161 12.4976 5.10252C12.4902 5.17655 12.4828 5.23084 12.4754 5.26539C12.4704 5.29747 12.4655 5.32708 12.4606 5.35423L11.7869 8.18226H10.6764Z" fill="black"/>
<path fill-rule="evenodd" clip-rule="evenodd" d="M16.2213 3V8.18226H18.1609C18.6372 8.18226 19.0382 8.10452 19.364 7.94906C19.6922 7.79112 19.955 7.58383 20.1524 7.32719C20.3523 7.07054 20.4967 6.79045 20.5855 6.48692C20.6768 6.18339 20.7225 5.88479 20.7225 5.59113C20.7225 5.26785 20.6756 4.95198 20.5818 4.64352C20.488 4.33505 20.34 4.05743 20.1376 3.81065C19.9352 3.56141 19.6737 3.36399 19.3529 3.21839C19.032 3.0728 18.6446 3 18.1905 3H16.2213ZM18.272 7.06437H17.391V4.11048H18.3534C18.5533 4.11048 18.726 4.15367 18.8716 4.24004C19.0172 4.32641 19.1369 4.44116 19.2307 4.58429C19.3245 4.72742 19.3936 4.88659 19.438 5.0618C19.4849 5.23701 19.5083 5.41345 19.5083 5.59113C19.5083 5.7614 19.4849 5.93291 19.438 6.10565C19.3936 6.2784 19.322 6.43756 19.2233 6.58316C19.1271 6.72876 19 6.84598 18.842 6.93481C18.6866 7.02119 18.4965 7.06437 18.272 7.06437Z" fill="black"/>
<path d="M4 18.4756C4 18.1994 4.22386 17.9756 4.5 17.9756H5V16.9756H7V17.9756H7.5C7.77614 17.9756 8 18.1994 8 18.4756V19.4756C8 19.7517 7.77614 19.9756 7.5 19.9756H4.5C4.22386 19.9756 4 19.7517 4 19.4756V18.4756Z" fill="black"/>
<path d="M16.5 17.9756C16.2239 17.9756 16 18.1994 16 18.4756V19.4756C16 19.7517 16.2239 19.9756 16.5 19.9756H19.5C19.7761 19.9756 20 19.7517 20 19.4756V18.4756C20 18.1994 19.7761 17.9756 19.5 17.9756H16.5Z" fill="black"/>
<path d="M16 10.4756C16 10.1994 16.2239 9.97559 16.5 9.97559H19.5C19.7761 9.97559 20 10.1994 20 10.4756V11.4756C20 11.7517 19.7761 11.9756 19.5 11.9756H16.5C16.2239 11.9756 16 11.7517 16 11.4756V10.4756Z" fill="black"/>
<path d="M4.5 9.97559C4.22386 9.97559 4 10.1994 4 10.4756V11.4756C4 11.7517 4.22386 11.9756 4.5 11.9756H5V12.9756H7V11.9756H7.5C7.77614 11.9756 8 11.7517 8 11.4756V10.4756C8 10.1994 7.77614 9.97559 7.5 9.97559H4.5Z" fill="black"/>
<path d="M8 13.9756H14V15.9756H8V13.9756Z" fill="black"/>
<path d="M6 13.9756C5.44772 13.9756 5 14.4233 5 14.9756C5 15.5279 5.44772 15.9756 6 15.9756C6.55228 15.9756 7 15.5279 7 14.9756C7 14.4233 6.55228 13.9756 6 13.9756Z" fill="black"/>
</svg>
