<svg width="24" height="24" viewBox="0 0 24 24" fill="none" xmlns="http://www.w3.org/2000/svg">
<path d="M5 3C3.89543 3 3 3.89543 3 5V7C3 8.10457 3.89543 9 5 9L5 16.2676C4.4022 16.6134 4 17.2597 4 18C4 19.1046 4.89543 20 6 20C7.10457 20 8 19.1046 8 18C8 17.2597 7.5978 16.6134 7 16.2676V13H11V16.2676C10.4022 16.6134 10 17.2597 10 18C10 19.1046 10.8954 20 12 20C13.1046 20 14 19.1046 14 18C14 17.2597 13.5978 16.6134 13 16.2676V13H19V7.73244C19.5978 7.38663 20 6.74028 20 6C20 4.89543 19.1046 4 18 4C16.8954 4 16 4.89543 16 6C16 6.74028 16.4022 7.38663 17 7.73244V11H13V7.73244C13.5978 7.38663 14 6.74028 14 6C14 4.89543 13.1046 4 12 4C10.8954 4 10 4.89543 10 6C10 6.74028 10.4022 7.38663 11 7.73244V11H7V9C8.10457 9 9 8.10457 9 7V5C9 3.89543 8.10457 3 7 3H5Z" fill="black"/>
<path d="M20 18C20 17.2597 19.5978 16.6134 19 16.2676V14.5H17V16.2676C16.4022 16.6134 16 17.2597 16 18C16 19.1046 16.8954 20 18 20C19.1046 20 20 19.1046 20 18Z" fill="black"/>
</svg>
