<svg width="24" height="24" viewBox="0 0 24 24" fill="none" xmlns="http://www.w3.org/2000/svg">
<path d="M11.5 17.5V14H12.5C12.9304 14 13.3117 14.1452 13.566 14.3711C13.7926 14.5725 14 14.907 14 15.5C14 16.8241 13.0268 17.5 12.5 17.5H11.5Z" fill="black"/>
<path fill-rule="evenodd" clip-rule="evenodd" d="M3.27423 7.33218C3.07989 5.0001 4.92025 3 7.26041 3H10V5H7.26041C6.09033 5 5.17015 6.00005 5.26732 7.16609L5.84373 14.083C5.88692 14.6013 6.32019 15 6.84028 15H7.40001L7.32986 14.2985C7.15325 12.5325 8.54011 11 10.315 11H14.685C16.4599 11 17.8468 12.5325 17.6702 14.2985L17.2702 18.2985C17.1168 19.8321 15.8263 21 14.285 21H10.715C9.17372 21 7.88322 19.8321 7.72986 18.2985L7.60001 17H6.84028C5.28001 17 3.98021 15.804 3.85064 14.2491L3.27423 7.33218ZM10 19H12.5C14 19 15.5 17.5 15.5 15.5C15.5 13.5 14 12.5 12.5 12.5H10V19Z" fill="black"/>
<path d="M13 3C12.4477 3 12 3.44771 12 4V9.49999H14V8.5H15C15.5523 8.5 16 8.05228 16 7.5C16 7.22386 15.7762 7 15.5 7H14V4.5H15C15.5523 4.5 16 4.05228 16 3.5C16 3.22386 15.7762 3 15.5 3H13Z" fill="black"/>
<path d="M18 3C17.4477 3 17 3.44772 17 4C17 4.55228 17.4477 5 18 5C18.5523 5 19 4.55228 19 4C19 3.44772 18.5523 3 18 3Z" fill="black"/>
<path d="M17 8C17 7.44772 17.4477 7 18 7C18.5523 7 19 7.44772 19 8C19 8.55228 18.5523 9 18 9C17.4477 9 17 8.55228 17 8Z" fill="black"/>
</svg>
