<svg width="24" height="24" viewBox="0 0 24 24" fill="none" xmlns="http://www.w3.org/2000/svg">
<path fill-rule="evenodd" clip-rule="evenodd" d="M14 7.23611C14.6138 6.68679 15 5.8885 15 5C15 3.34315 13.6569 2 12 2C10.3432 2 9.00003 3.34315 9.00003 5C9.00003 5.8885 9.38628 6.68679 10 7.23611V9H6.76383C6.31288 9 5.91772 9.30182 5.79906 9.73688L3.34452 18.7369C3.17103 19.373 3.64991 20 4.30928 20H19.6908C20.3502 20 20.8291 19.373 20.6556 18.7369L18.201 9.73688C18.0823 9.30182 17.6872 9 17.2362 9H14V7.23611ZM12 6.5C12.8285 6.5 13.5 5.82843 13.5 5C13.5 4.17157 12.8285 3.5 12 3.5C11.1716 3.5 10.5 4.17157 10.5 5C10.5 5.82843 11.1716 6.5 12 6.5Z" fill="black"/>
</svg>
