<svg xmlns="http://www.w3.org/2000/svg">

    <defs>
        <g id="svg-bng-logo-nodes">
            <circle cy="58.8" cx="64" r="14"/>
            <circle cy="36.6" cx="18.5" r="18"/>
            <circle cy="10.8" cx="56.9" r="9.6"/>
        </g>
        <g id="svg-bng-logo-beams">
            <path d="m44.4 12.4l-11.8 8c2.3 2 4.1 4.4 5.4 7.2l10.7 -7.2c-2.3 -2 -3.9 -4.8 -4.3 -8zm20.1 8.4c-2.1 1.6 -4.7 2.6 -7.6 2.6c-0.4 0 -0.8 0 -1.1 -0.1l2.4 19.5c1.8 -0.7 3.7 -1 5.7 -1c1.1 0 2.2 0.1 3.3 0.3l-2.7 -21.3zm-25.3 21.6c-0.8 3 -2.3 5.6 -4.2 7.9l12.1 5.9c0.4 -3.1 1.7 -5.9 3.6 -8.2l-11.5 -5.6z"/>
        </g>
        <g id="svg-bng-beamng">
            <path d="m419.3 7.2c-9.4 0 -16.7 2.6 -22 7.7c-5.3 5.2 -7.9 12.4 -7.9 21.6c0 9.5 2.3 16.7 6.8 21.8c4.6 5.1 11.1 7.6 19.8 7.6c3.4 0 6.7 -0.2 9.9 -0.7c3.2 -0.5 6.7 -1.3 10.4 -2.5v-29.6h-22.7v10.1h10.9v11.9c-2.6 0.5 -5.2 0.7 -7.7 0.7c-4.9 0 -8.6 -1.6 -11.1 -4.9c-2.6 -3.2 -3.8 -8 -3.8 -14.1c0 -6 1.5 -10.7 4.7 -14.2c3.1 -3.6 7.4 -5.3 12.6 -5.3c4.5 0 8.8 1 13 3.1l4 -9.7c-5.4 -2.3 -11.1 -3.5 -16.9 -3.5zm-312.1 0.8v57.1h21.4c6.4 0 11.5 -1.4 15.3 -4.3c3.7 -3 5.6 -7 5.6 -12.2c0 -3.7 -0.8 -6.6 -2.4 -8.8c-1.6 -2.3 -4.2 -3.8 -7.8 -4.6v-0.4c2.7 -0.4 4.8 -1.7 6.4 -3.9c1.6 -2.2 2.4 -5 2.4 -8.4c0 -5.1 -1.8 -8.7 -5.5 -11c-3.7 -2.3 -9.5 -3.5 -17.6 -3.5h-17.8zm221.4 0v57.1h10.8v-26.8c0 -2.3 -0.2 -6 -0.4 -10.4h3.4l21.5 37.2h15.4v-57.1h-10.9v27.1c0 2.1 0.1 5.7 0.3 10h-3.3l-21.5 -37.1h-15.3zm-209.3 9.9h6.4c3.4 0 5.9 0.5 7.6 1.5c1.6 0.9 2.4 2.5 2.4 4.7c0 2.3 -0.8 4 -2.2 5c-1.5 1 -3.9 1.6 -7.2 1.6h-7v-12.8zm102.7 2.7c-6.2 0 -11.7 1.3 -16.7 3.9l3.9 8.1c4.7 -2.1 8.8 -3.2 12.3 -3.2c4.5 0 6.8 2.2 6.8 6.6v1.9l-7.6 0.3c-6.5 0.2 -11.4 1.4 -14.7 3.6c-3.2 2.2 -4.8 5.7 -4.8 10.3c0 4.4 1.2 7.8 3.6 10.2c2.4 2.4 5.7 3.6 9.9 3.6c0.2 0 0.4 0 0.6 0v0l24.8 -0.8h0v-29.1c0 -5.2 -1.5 -9 -4.7 -11.6c-3.1 -2.5 -7.6 -3.8 -13.4 -3.8zm-45.6 0.1c-6.5 0 -11.6 2 -15.2 6c-3.7 4 -5.5 9.6 -5.5 16.9c0 7.1 2 12.6 6 16.5c3.9 3.9 9.4 5.8 16.4 5.8c3.4 0 6.3 -0.2 8.7 -0.7c2.4 -0.6 4.6 -1.3 6.7 -2.4v-9.2c-2.6 1.2 -5 2.1 -7.4 2.6c-2.3 0.6 -4.8 0.9 -7.4 0.9c-3.4 0 -6 -1 -7.9 -2.9c-1.9 -1.9 -2.9 -4.5 -3 -7.9h28.1v-5.8c0 -6.2 -1.7 -11.1 -5.1 -14.6c-3.5 -3.5 -8.3 -5.2 -14.4 -5.2zm98.4 0c-2.9 0 -5.4 0.5 -7.6 1.6c-2.3 1.2 -4 2.8 -5.1 4.8h-0.7l-1.6 -5.6h-9.1v43.6h11.9v-20.5c0 -5.1 0.7 -8.8 2.1 -11.1c1.4 -2.2 3.6 -3.3 6.6 -3.3c2.3 0 4 0.8 5 2.3c1.1 1.6 1.6 4 1.6 7.1v25.5h11.9v-21.9c0 -4.5 0.7 -7.8 2.2 -9.9c1.4 -2.1 3.6 -3.1 6.5 -3.1c2.3 0 3.9 0.8 5 2.3c1.1 1.6 1.6 4 1.6 7.1v25.5h11.9v-28.4c0 -5.6 -1.2 -9.7 -3.8 -12.2c-2.5 -2.6 -6.3 -3.8 -11.2 -3.8c-2.9 0 -5.4 0.5 -7.7 1.6c-2.3 1.1 -4 2.7 -5.2 4.8h-1c-2.4 -4.3 -6.8 -6.4 -13.3 -6.4zm-98.4 8.4c2.6 0 4.6 0.8 6.1 2.4c1.5 1.6 2.2 3.9 2.3 6.8h-16.7c0.2 -2.9 1 -5.2 2.4 -6.8c1.4 -1.6 3.4 -2.4 5.9 -2.4zm-57.1 11.2h7.5c6.8 0 10.2 2.3 10.2 7.1c0 2.6 -0.8 4.5 -2.4 5.8c-1.6 1.3 -4.1 1.9 -7.4 1.9h-7.9v-14.8zm109 4.6v3.6c0 2.6 -0.8 4.7 -2.5 6.3c-1.6 1.6 -3.9 2.4 -6.6 2.4c-3.9 0 -5.8 -1.7 -5.8 -5c0 -2.4 0.8 -4.1 2.5 -5.3c1.7 -1.1 4.3 -1.7 7.8 -1.8l4.6 -0.2z"/>
        </g>
        <g id="svg-bng-gmbh">
            <path d="m492.7 33.5h21.6l-6.2 29.2c-3.4 1.2 -6.6 2 -9.5 2.4c-2.9 0.4 -6 0.7 -9.3 0.7c-6.6 0 -11.7 -1.9 -15.3 -5.6c-3.6 -3.8 -5.4 -9.1 -5.4 -16.2c0 -6.8 1.4 -13 4.1 -18.6c2.7 -5.5 6.6 -9.8 11.5 -12.8c5 -3 10.7 -4.5 17.2 -4.5c5.6 0 10.8 1.3 15.7 3.8l-4.4 9.6c-1.9 -1 -3.8 -1.8 -5.7 -2.5c-1.9 -0.6 -3.9 -0.9 -6.2 -0.9c-3.9 0 -7.4 1.1 -10.5 3.2c-3.1 2.1 -5.5 5.1 -7.2 9.1c-1.7 3.9 -2.6 8.1 -2.6 12.6c0 4.4 0.9 7.6 2.8 9.7c1.9 2 4.7 3.1 8.5 3.1c1.9 0 4.1 -0.3 6.5 -0.9l2.5 -11.5h-10.2l2.1 -9.9zm57.7 -12.2c5.6 0 8.9 2.9 10 8.7h0.2c1.7 -2.8 3.8 -5 6.1 -6.5c2.4 -1.5 4.9 -2.3 7.6 -2.3c3.5 0 6.1 1.1 7.9 3.3c1.8 2.2 2.8 5.2 2.8 9.1c0 1.9 -0.3 4.2 -0.9 6.9l-5.1 24.4h-11.5l5.3 -25c0.4 -1.7 0.6 -3.3 0.6 -4.6c0 -3.1 -1.3 -4.7 -3.8 -4.7c-2.4 0 -4.5 1.4 -6.4 4.3c-1.9 2.9 -3.4 6.9 -4.5 12.2l-3.7 17.8h-11.5l5.3 -25c0.4 -1.7 0.6 -3.3 0.6 -4.6c0 -3.1 -1.3 -4.7 -3.8 -4.7c-2.4 0 -4.5 1.5 -6.4 4.4c-1.9 2.9 -3.4 7 -4.5 12.2l-3.8 17.7h-11.5l9.1 -42.9h8.8l-0.8 7.9h0.2c3.7 -5.8 8.3 -8.7 13.6 -8.7zm69.9 0c3.7 0 6.7 1.4 8.8 4.1c2.2 2.8 3.3 6.6 3.3 11.4c0 4.9 -0.9 9.6 -2.6 14.1c-1.7 4.5 -4.1 8.1 -7.2 10.8c-3 2.7 -6.4 4 -10.1 4c-5 0 -8.5 -2.1 -10.6 -6.2h-0.3l-2.2 5.5h-8.9l12.6 -59.6h11.5l-2.4 11c-1 4.7 -2.1 8.5 -3.2 11.5h0.3c2 -2.5 3.8 -4.2 5.4 -5.1c1.7 -0.9 3.5 -1.4 5.4 -1.4zm-4.6 9.4c-1.7 0 -3.4 0.8 -5 2.5c-1.6 1.7 -2.9 4 -3.9 6.9c-1 2.9 -1.5 6.1 -1.5 9.6c0 2 0.5 3.7 1.4 4.9c0.9 1.2 2.2 1.8 3.9 1.8c1.7 0 3.3 -0.9 4.9 -2.6c1.6 -1.8 2.8 -4.2 3.8 -7.2c1 -3.1 1.5 -6.1 1.5 -9.1c0 -4.5 -1.7 -6.7 -5 -6.7zm63.7 34.3h-11.7l5.1 -24.2h-18.1l-5.1 24.2h-11.7l11.8 -56h11.7l-4.6 22h18.1l4.6 -22h11.7l-11.8 56z"/>
        </g>
        <g id="svg-bng-drive">
            <path d="m597.3 3c-3.5 0 -6.4 0.7 -8.5 2.1c-2.2 1.3 -3.5 3.4 -3.9 6.1c-0.6 3.6 2.2 5.5 8.5 5.5c3.5 0 6.4 -0.7 8.5 -2.2c2.1 -1.4 3.4 -3.4 3.8 -6c0.3 -1.8 -0.3 -3.1 -1.8 -4.1c-1.5 -0.9 -3.7 -1.4 -6.6 -1.4zm-81.8 1.3l-4.9 11.8c-1 2.1 -1.8 4.9 -2.6 8.5l-0.3 1.4h-0.4c-1.6 -2.3 -3.2 -3.9 -4.7 -4.7c-1.6 -0.8 -3.6 -1.2 -6 -1.2c-4.4 0 -8.7 1.3 -12.7 3.8c-4.1 2.5 -7.7 6.2 -10.8 11c-3.1 4.8 -5 9.5 -5.7 14.1c-0.9 5.5 -0.2 9.7 2 12.6c2.2 2.9 5.9 4.3 11.1 4.3c2.7 0 5.2 -0.4 7.4 -1.2c2.2 -0.9 4.4 -2.3 6.6 -4.4h0.4l-1.2 4.8h15.1l25.9 -60.8h-19.2zm51 15.8c-4.1 0.1 -11.5 0.7 -14 0.8h-13.4l-18.7 44.2h19l8.3 -19.4c1.6 -3.8 3.6 -6.6 5.9 -8.4c2.3 -1.9 5.1 -2.8 8.5 -2.8c2.3 0 4.2 0.3 5.9 0.9l6.5 -15c-0.6 -0.1 -1.5 -0.2 -2.6 -0.2c-0.8 -0.1 -1.9 -0.1 -3.9 -0.1c-0.4 0 -0.9 -0.1 -1.5 0zm121.1 0c-6.2 0 -11.9 1.2 -17 3.4c-5.1 2.3 -9.4 5.6 -12.8 10.1c-3.5 4.4 -5.6 9.3 -6.5 14.8c-0.9 5.5 0.4 9.8 3.7 12.9c3.4 3.1 8.6 4.6 15.5 4.6c4.2 0 7.9 -0.3 11.1 -0.9c3.3 -0.6 6.9 -1.6 10.8 -3.1l1.7 -10.7c-3.4 1.3 -6.4 2.3 -9 3c-2.6 0.6 -5.1 0.9 -7.7 0.9c-5.4 0 -7.8 -2 -7.1 -5.8l0 -0.6h3c9.6 0 17.2 -1.4 22.8 -4.2c5.6 -2.8 8.8 -6.9 9.6 -12.1c0.6 -3.7 -0.7 -6.7 -3.9 -8.9c-3.3 -2.3 -8 -3.4 -14.2 -3.4zm-106.6 0.8l-18.7 44.2h19l18.8 -44.2h-19.1zm22.2 0l0.1 44.2h19l37 -44.2h-20.3c-9.1 12.3 -13.2 17.8 -14.8 19.9h-4.2l2.1 -19.9h-18.9zm80.7 9.4c1.4 0 2.4 0.3 3 0.9c0.6 0.6 0.8 1.3 0.6 2.1c-0.2 1.8 -1.5 3.2 -3.7 4.3c-2.2 1.1 -5 1.6 -8.6 1.6h-1.4c0.7 -2.3 2.1 -4.3 4.1 -6.1c2 -1.8 4 -2.8 6 -2.8zm-184.6 2c2.6 0 3.6 1.8 3 5.6c-0.4 2.4 -1.2 4.9 -2.5 7.5c-1.3 2.5 -2.8 4.6 -4.5 6.1c-1.8 1.5 -3.4 2.3 -5.1 2.3c-2.8 0 -3.9 -1.9 -3.3 -5.6c0.4 -2.5 1.3 -5.1 2.6 -7.6c1.3 -2.5 2.9 -4.5 4.7 -6c1.8 -1.6 3.4 -2.3 5.1 -2.3zm-46.8 18.9c-4.3 0 -7.8 3.5 -7.8 7.9c0 4.3 3.5 7.8 7.8 7.8c4.3 0 7.8 -3.5 7.8 -7.8c0 -4.4 -3.5 -7.9 -7.8 -7.9z"/>
        </g>
        <g id="svg-bng-tech">
            <path d="m635.8 4.5 -25.8 60.8h19l9.1 -21.6c1.2 -2.7 2.3 -4.9 3.5 -6.6 1.2 -1.7 2.4 -2.9 3.7 -3.7 1.2 -0.8 2.5 -1.2 3.7 -1.2 1 0 1.8 0.3 2.5 0.9 0.6 0.5 0.9 1.4 0.7 2.5 -0.1 0.9 -0.4 1.9 -0.8 3 -0.4 1 -0.7 1.9 -1 2.6l-10.2 24.1h19l10 -23.5c0.6 -1.4 1.1 -2.9 1.6 -4.4 0.5 -1.6 0.8 -3.1 1.1 -4.5 0.4 -2.3 0.2 -4.4 -0.5 -6.3 -0.7 -1.9 -2.1 -3.4 -4 -4.6 -1.9 -1.1 -4.6 -1.7 -8.1 -1.7 -3 0 -10.2 -0.1 -11.5 0.1 1.3 -2.7 1.6 -3.2 3 -6.1l4.1 -9.7zm-144.6 7.7 -8.2 9.4 -11.2 3.4 -3.2 7.4h7.6l-6.6 15.7c-0.5 1.1 -0.9 2.3 -1.4 3.7 -0.4 1.4 -0.8 2.6 -0.9 3.7 -0.6 3.8 0.2 6.5 2.4 8.2 2.3 1.6 5.8 2.5 10.6 2.5 3.6 0 6.8 -0.2 9.6 -0.7 2.8 -0.5 5.3 -1.1 7.5 -1.9l1.8 -11.4c-1.7 0.5 -3.3 1 -5 1.3 -1.6 0.3 -3.1 0.5 -4.3 0.5 -0.9 0 -1.6 -0.2 -2.2 -0.5 -0.5 -0.4 -0.7 -1 -0.5 -1.9 0.1 -0.4 0.2 -1 0.5 -1.8 0.3 -0.8 0.6 -1.5 0.9 -2.3l6.5 -15h14.2l4.9 -11.4h-14.1l3.8 -8.9zm56 8.1c-5.4 0 -10.2 0.8 -14.4 2.3 -4.2 1.6 -7.9 3.7 -11 6.4 -3 2.7 -5.5 5.7 -7.3 9.1 -1.8 3.4 -3 6.9 -3.6 10.5 -0.6 3.6 -0.2 6.7 1.1 9.4 1.3 2.6 3.5 4.6 6.5 6 3 1.4 6.9 2.1 11.6 2.1 4.8 0 8.9 -0.4 12.2 -1.1 3.3 -0.7 6.5 -1.7 9.7 -2.9l1.7 -10.7c-3.1 1.2 -5.9 2.1 -8.5 2.8 -2.6 0.7 -5.3 1 -8.2 1 -2.7 0 -4.6 -0.5 -5.8 -1.4 -1.2 -0.9 -1.6 -2.4 -1.3 -4.4 0 -0.1 0 -0.2 0 -0.3 0 -0.1 0 -0.2 0.1 -0.3h2.9c5.2 0 9.7 -0.4 13.6 -1.1 3.9 -0.8 7.2 -1.9 9.8 -3.3 2.7 -1.4 4.8 -3.1 6.3 -5.1 1.5 -2 2.4 -4.2 2.8 -6.7 0.6 -3.7 -0.7 -6.7 -3.9 -8.9 -3.2 -2.2 -7.9 -3.4 -14.1 -3.4zm54.1 0c-3.6 0 -7 0.5 -10.2 1.4 -3.2 0.9 -6.2 2.2 -8.9 3.9 -2.7 1.7 -5.1 3.7 -7.1 6 -2.1 2.3 -3.8 4.9 -5.1 7.7 -1.3 2.8 -2.2 5.7 -2.7 8.9 -0.7 4.3 -0.3 7.7 1.1 10.4 1.5 2.7 3.7 4.6 6.6 5.8 2.9 1.2 6.3 1.8 10.1 1.8 3.9 0 7.3 -0.3 10.3 -0.9 3 -0.6 5.9 -1.5 8.7 -2.6l1.9 -12c-2.7 1 -5.1 1.9 -7.5 2.5 -2.3 0.6 -4.6 0.9 -7 0.9 -1.3 0 -2.3 -0.2 -3.2 -0.6 -0.8 -0.4 -1.4 -1.2 -1.8 -2.1 -0.3 -1 -0.4 -2.4 -0.1 -4.1 0.2 -1.4 0.7 -3 1.4 -4.7 0.8 -1.7 1.7 -3.3 2.9 -4.9 1.2 -1.5 2.6 -2.8 4.2 -3.7 1.6 -1 3.4 -1.5 5.4 -1.5 1.8 0 3.6 0.2 5.5 0.7 1.9 0.5 3.6 1 5.2 1.6l7.8 -11.2c-2.6 -1 -5.4 -1.8 -8.2 -2.3 -2.8 -0.5 -5.9 -0.8 -9.3 -0.8zm-57.8 10.2c1.4 0 2.4 0.3 3 0.9 0.6 0.6 0.8 1.3 0.6 2.1 -0.1 0.9 -0.6 1.8 -1.5 2.7 -0.9 0.9 -2.2 1.7 -3.9 2.3 -1.8 0.6 -4.1 0.9 -6.9 0.9h-1.4c0.4 -1.4 1.2 -2.7 2.2 -4.1 1 -1.4 2.2 -2.5 3.6 -3.4 1.4 -0.9 2.8 -1.4 4.3 -1.4zm-91 20.7c-4.4 0 -8 3.6 -8 8 0 4.4 3.6 8 8 8 4.4 0 8 -3.6 8 -8 0 -4.4 -3.6 -8 -8 -8z"/>
        </g>
        <g id="svg-bng-research">
            <path d="M846.02 41.54 835.9 65.62h18.93l9.94-23.45a40.3 40.3 0 0 0 2.64-8.92c.62-3.93-.18-7-2.4-9.2-2.23-2.23-5.63-3.35-10.23-3.35-5.61 0-10.33 1.68-14.16 5.03h-.39a65.3 65.3 0 0 0 6.06-11.03L850.4 5h-18.93l-25.73 60.62h18.94l9.1-21.54c3.16-7.61 6.78-11.42 10.86-11.42a3.5 3.5 0 0 1 2.46.86c.63.54.85 1.37.67 2.5a22.3 22.3 0 0 1-1.75 5.52ZM515.08 21.01c-.68-.19-1.81-.29-3.38-.3-4.04-.12-7.67.06-12.18.28-3.6.18-7.75.38-13.1.49h-6.59l-18.7 44.14h18.93l8.26-19.4c1.65-3.77 3.6-6.56 5.88-8.38a13.23 13.23 0 0 1 8.52-2.76c2.25 0 4.2.28 5.88.85l6.48-14.92Z"/>
            <path fill-rule="evenodd" d="M511.33 61.8c3.37 3.07 8.5 4.6 15.42 4.6 4.14 0 7.84-.29 11.1-.86 3.25-.6 6.82-1.63 10.71-3.11l1.7-10.68a69.9 69.9 0 0 1-8.93 2.92c-2.57.6-5.15.9-7.73.9-5.34 0-7.71-1.92-7.1-5.77l.1-.62h2.88c9.66 0 17.25-1.39 22.78-4.17 5.56-2.8 8.76-6.82 9.59-12.04.59-3.71-.72-6.69-3.92-8.92-3.2-2.23-7.9-3.35-14.09-3.35-6.23 0-11.9 1.14-17.03 3.43a32.94 32.94 0 0 0-19.2 24.82c-.88 5.48.37 9.76 3.72 12.85Zm22.78-28.16c2.01-1.82 4.02-2.73 6-2.73 1.44 0 2.44.28 3 .86.56.57.78 1.27.64 2.1-.28 1.76-1.51 3.2-3.7 4.28-2.2 1.07-5.07 1.6-8.63 1.6H530a13.66 13.66 0 0 1 4.1-6.12Z" clip-rule="evenodd"/>
            <path d="M602 50.3c-.83 5.18-3.58 9.15-8.26 11.93-4.68 2.78-11 4.17-18.96 4.17-7.24 0-12.91-.82-17.02-2.46l1.92-12.11a37.3 37.3 0 0 0 7.94 2.73c2.5.52 5.06.77 7.7.77 2.22 0 3.92-.23 5.1-.7 1.19-.49 1.85-1.16 1.99-2.02a2.46 2.46 0 0 0-.9-2.34c-.75-.67-2.69-1.78-5.84-3.31-3.21-1.5-5.47-3.23-6.76-5.18-1.25-1.95-1.66-4.33-1.21-7.13.7-4.47 3.23-7.91 7.56-10.33 4.33-2.41 10.13-3.62 17.4-3.62 3.65 0 6.93.34 9.82 1.01 2.9.68 5.65 1.72 8.26 3.12l-7.48 9.82c-1.97-1.12-4.07-2-6.28-2.65a19.75 19.75 0 0 0-5.76-1.01c-2.48 0-3.86.88-4.14 2.64-.12.76.28 1.42 1.2 2a40.1 40.1 0 0 0 4.7 2.21c6.87 2.91 9.88 7.07 9.02 12.47Z"/>
            <path fill-rule="evenodd" d="M613.77 61.8c3.36 3.07 8.5 4.6 15.41 4.6 4.14 0 7.84-.29 11.1-.86A62.2 62.2 0 0 0 651 62.43l1.7-10.68a69.9 69.9 0 0 1-8.94 2.92c-2.57.6-5.14.9-7.72.9-5.35 0-7.72-1.92-7.1-5.77l.1-.62h2.88c9.65 0 17.24-1.39 22.77-4.17 5.57-2.8 8.76-6.82 9.6-12.04.59-3.71-.72-6.69-3.92-8.92-3.2-2.23-7.9-3.35-14.1-3.35-6.22 0-11.9 1.14-17.02 3.43a32.94 32.94 0 0 0-19.21 24.82c-.87 5.48.37 9.76 3.73 12.85Zm22.77-28.16c2.02-1.82 4.02-2.73 6.01-2.73 1.44 0 2.43.28 3 .86.56.57.77 1.27.64 2.1-.28 1.76-1.52 3.2-3.71 4.28-2.2 1.07-5.07 1.6-8.62 1.6h-1.42a13.66 13.66 0 0 1 4.1-6.12Zm69.86 31.98h-15.1l1.25-4.8h-.4a20.18 20.18 0 0 1-6.6 4.33 21.19 21.19 0 0 1-7.39 1.25c-5.15 0-8.84-1.44-11.05-4.33-2.22-2.9-2.89-7.07-2.03-12.5.74-4.65 2.68-9.39 5.83-14.22s6.73-8.48 10.74-10.95a23.98 23.98 0 0 1 12.68-3.7c2.73 0 5.07.5 7 1.48 1.93.96 3.54 2.55 4.82 4.75h.4l3.45-5.45h15.17L706.4 65.62Zm-18.55-11.34c1.63 0 3.3-.75 5-2.26a20.03 20.03 0 0 0 4.55-6.11 25.5 25.5 0 0 0 2.51-7.48c.27-1.7.16-3.04-.33-4.05-.49-1.04-1.42-1.56-2.79-1.56-2.48 0-4.99 1.65-7.53 4.94a23.9 23.9 0 0 0-4.73 10.95c-.59 3.72.52 5.57 3.32 5.57Z" clip-rule="evenodd"/>
            <path d="M771.36 21.01a16.4 16.4 0 0 0-3.86-.3c-4.01 0-7.36.63-10.04 1.9-2.68 1.25-5.3 3.32-7.89 6.23h-.4l2.06-7.36h-15.12l-18.7 44.14h18.93l8.27-19.4c1.64-3.77 3.6-6.56 5.88-8.38a13.23 13.23 0 0 1 8.5-2.76c2.26 0 4.22.28 5.89.85l6.48-14.92Zm10.4 45.39c-6.5 0-11.31-1.56-14.47-4.68-3.12-3.14-4.23-7.58-3.31-13.32a31.76 31.76 0 0 1 5.97-14.18 32.67 32.67 0 0 1 12.1-9.94 36.04 36.04 0 0 1 15.97-3.58c6.36 0 12.18 1.04 17.46 3.12L807.68 35c-4.08-1.56-7.63-2.34-10.63-2.34-2.02 0-4 .62-5.92 1.87a16.91 16.91 0 0 0-5.15 5.61 20.15 20.15 0 0 0-2.82 7.29c-.38 2.36-.16 4.1.64 5.22.8 1.09 2.26 1.63 4.38 1.63 2.35 0 4.67-.3 6.95-.9a61.7 61.7 0 0 0 7.43-2.45l-1.9 11.96a47.21 47.21 0 0 1-8.68 2.61c-2.97.6-6.37.9-10.22.9Zm-322.09-6.84a7.83 7.83 0 1 1-15.66 0 7.83 7.83 0 0 1 15.66 0Z"/>
        </g>
    </defs>

    <style type="text/css"><![CDATA[
        svg > svg:not(:target) {
            display: none;
        }
    ]]></style>

    <!-- icon -->
    <svg id="bng-logo" xmlns="http://www.w3.org/2000/svg" viewBox="0 0 79 74" preserveAspectRatio="xMinYMid meet">
        <use href="#svg-bng-logo-nodes" fill="#f60"/>
        <use href="#svg-bng-logo-beams" fill="black"/>
    </svg>
    <svg id="bng-logo-white" xmlns="http://www.w3.org/2000/svg" viewBox="0 0 79 74" preserveAspectRatio="xMinYMid meet">
        <use href="#svg-bng-logo-nodes" fill="#f60"/>
        <use href="#svg-bng-logo-beams" fill="white"/>
    </svg>

    <!-- icon + beamng -->
    <svg id="bng-beamng" xmlns="http://www.w3.org/2000/svg" viewBox="0 0 440 74" preserveAspectRatio="xMinYMid meet">
        <use href="#svg-bng-logo-nodes" fill="#f60"/>
        <use href="#svg-bng-logo-beams" fill="black"/>
        <use href="#svg-bng-beamng" fill="black"/>
    </svg>
    <svg id="bng-beamng-white" xmlns="http://www.w3.org/2000/svg" viewBox="0 0 440 74" preserveAspectRatio="xMinYMid meet">
        <use href="#svg-bng-logo-nodes" fill="#f60"/>
        <use href="#svg-bng-logo-beams" fill="white"/>
        <use href="#svg-bng-beamng" fill="white"/>
    </svg>

    <!-- icon + beamng + gmbh -->
    <svg id="bng-gmbh" xmlns="http://www.w3.org/2000/svg" viewBox="0 0 692 74" preserveAspectRatio="xMinYMid meet">
        <use href="#svg-bng-logo-nodes" fill="#f60"/>
        <use href="#svg-bng-logo-beams" fill="black"/>
        <use href="#svg-bng-beamng" fill="black"/>
        <use href="#svg-bng-gmbh" fill="#f60"/>
    </svg>
    <svg id="bng-gmbh-white" xmlns="http://www.w3.org/2000/svg" viewBox="0 0 692 74" preserveAspectRatio="xMinYMid meet">
        <use href="#svg-bng-logo-nodes" fill="#f60"/>
        <use href="#svg-bng-logo-beams" fill="white"/>
        <use href="#svg-bng-beamng" fill="white"/>
        <use href="#svg-bng-gmbh" fill="#f60"/>
    </svg>

    <!-- icon + beamng + drive -->
    <svg id="bng-drive" xmlns="http://www.w3.org/2000/svg" viewBox="0 0 706 74" preserveAspectRatio="xMinYMid meet">
        <use href="#svg-bng-logo-nodes" fill="#f60"/>
        <use href="#svg-bng-logo-beams" fill="black"/>
        <use href="#svg-bng-beamng" fill="black"/>
        <use href="#svg-bng-drive" fill="#f60"/>
    </svg>
    <svg id="bng-drive-white" xmlns="http://www.w3.org/2000/svg" viewBox="0 0 706 74" preserveAspectRatio="xMinYMid meet">
        <use href="#svg-bng-logo-nodes" fill="#f60"/>
        <use href="#svg-bng-logo-beams" fill="white"/>
        <use href="#svg-bng-beamng" fill="white"/>
        <use href="#svg-bng-drive" fill="#f60"/>
    </svg>

    <!-- icon + beamng + research -->
    <svg id="bng-research" xmlns="http://www.w3.org/2000/svg" viewBox="0 0 869 74" preserveAspectRatio="xMinYMid meet">
        <use href="#svg-bng-logo-nodes" fill="#f60"/>
        <use href="#svg-bng-logo-beams" fill="black"/>
        <use href="#svg-bng-beamng" fill="black"/>
        <use href="#svg-bng-research" fill="#f60"/>
    </svg>
    <svg id="bng-research-white" xmlns="http://www.w3.org/2000/svg" viewBox="0 0 869 74" preserveAspectRatio="xMinYMid meet">
        <use href="#svg-bng-logo-nodes" fill="#f60"/>
        <use href="#svg-bng-logo-beams" fill="white"/>
        <use href="#svg-bng-beamng" fill="white"/>
        <use href="#svg-bng-research" fill="#f60"/>
    </svg>

    <!-- icon + beamng + tech -->
    <svg id="bng-tech" xmlns="http://www.w3.org/2000/svg" viewBox="0 0 673 74" preserveAspectRatio="xMinYMid meet">
        <use href="#svg-bng-logo-nodes" fill="#f60"/>
        <use href="#svg-bng-logo-beams" fill="black"/>
        <use href="#svg-bng-beamng" fill="black"/>
        <use href="#svg-bng-tech" fill="#f60"/>
    </svg>
    <svg id="bng-tech-white" xmlns="http://www.w3.org/2000/svg" viewBox="0 0 673 74" preserveAspectRatio="xMinYMid meet">
        <use href="#svg-bng-logo-nodes" fill="#f60"/>
        <use href="#svg-bng-logo-beams" fill="white"/>
        <use href="#svg-bng-beamng" fill="white"/>
        <use href="#svg-bng-tech" fill="#f60"/>
    </svg>

</svg>