<?xml version="1.0" encoding="UTF-8" standalone="no"?>
<!-- Created with Inkscape (http://www.inkscape.org/) -->

<svg
   width="200mm"
   height="10mm"
   viewBox="0 0 200 10"
   version="1.1"
   id="svg1"
   xml:space="preserve"
   xmlns="http://www.w3.org/2000/svg"
   xmlns:svg="http://www.w3.org/2000/svg"><defs
     id="defs1" /><g
     id="layer1"><path
       d="m 0,0 v 3.389974 c 0,3.2642747 0.014024,3.3894572 0.37672119,3.3894572 0.27155067,0 0.37672119,-0.1251883 0.37672119,-0.449585 0,-0.6302813 0.55015832,-1.2228607 1.26348882,-1.3606405 0.505914,-0.097717 0.6980482,-0.023355 1.1771891,0.4557862 0.3148836,0.3148834 0.5725748,0.7486418 0.5725748,0.9637654 0,0.3669897 0.1041826,0.3906739 1.6944703,0.3906739 1.5531585,0 1.6949869,-0.030346 1.6949869,-0.3658692 0,-0.20138 0.2009625,-0.5997809 0.4464844,-0.8852173 0.8716185,-1.0133169 2.5667683,-0.4839259 2.5667683,0.8015015 0,0.4407558 0.03438,0.449585 1.680001,0.449585 h 1.680001 L 13.649296,6.2342448 C 14.01438,4.5720293 16.30303,4.5591402 16.6672,6.2171916 l 0.123506,0.5622396 h 1.680001 c 1.62985,0 1.680001,-0.012798 1.680001,-0.4351156 0,-0.5110957 0.629091,-1.2500138 1.090373,-1.2810588 1.052953,-0.070864 1.92288,0.5074873 1.92288,1.278475 0,0.4259833 0.0465,0.4376994 1.694987,0.4376994 1.528512,0 1.69447,-0.034117 1.69447,-0.350883 0,-0.1931875 0.176,-0.5745803 0.390674,-0.8474935 0.772648,-0.9822636 2.622579,-0.4690851 2.622579,0.7276042 0,0.4693588 0.0058,0.4707723 1.800407,0.4707723 0.990103,0 1.760173,-0.063917 1.711523,-0.142627 -0.19249,-0.3114543 0.432535,-1.3540007 0.879016,-1.4660604 1.009452,-0.2533564 1.520043,-0.037376 1.913062,0.8087362 l 0.37207,0.7999512 h 1.652612 c 1.573927,0 1.652613,-0.019373 1.652613,-0.4113444 0,-1.2000069 1.859437,-1.7578665 2.623095,-0.7870321 0.214674,0.2729132 0.390157,0.654306 0.390157,0.8474935 0,0.3167661 0.166475,0.350883 1.694987,0.350883 1.581918,0 1.694987,-0.025462 1.694987,-0.3849895 0,-0.2118641 0.207751,-0.5932566 0.461988,-0.8474935 0.999477,-0.9994763 2.784127,-0.2426502 2.573486,1.0914063 -0.01227,0.077684 0.782826,0.1410767 1.766817,0.1410767 0.98399,0 1.779087,-0.063393 1.766817,-0.1410767 -0.285782,-1.8099629 2.507303,-2.1257834 2.956926,-0.3343465 0.116451,0.463974 0.160121,0.4754232 1.793689,0.4754232 1.647225,0 1.674316,-0.00712 1.674316,-0.4568197 0,-0.582384 0.815631,-1.2376506 1.540475,-1.2376506 0.642611,0 1.472778,0.7379652 1.472778,1.3094808 0,0.3595264 0.11307,0.3849895 1.694987,0.3849895 1.581917,0 1.694987,-0.025462 1.694987,-0.3849895 0,-0.6008975 0.82939,-1.3094808 1.532723,-1.3094808 0.732245,0 1.48053,0.634977 1.48053,1.2567709 0,0.4259833 0.0465,0.4376994 1.694987,0.4376994 1.34043,0 1.69447,-0.055706 1.69447,-0.267684 0,-0.1474198 0.219674,-0.5288126 0.487825,-0.8474935 0.834076,-0.9912413 2.317927,-0.6260318 2.638082,0.6495728 0.113339,0.4515756 0.167035,0.4656047 1.791105,0.4656047 1.647228,0 1.674317,-0.00712 1.674317,-0.4568197 0,-0.582384 0.816149,-1.2376506 1.540991,-1.2376506 0.642611,0 1.472262,0.7379652 1.472262,1.3094808 0,0.3591794 0.113481,0.3849895 1.674833,0.3849895 1.624069,0 1.677766,-0.01403 1.791105,-0.4656047 0.166326,-0.6626976 0.846229,-1.2288656 1.474845,-1.2288656 0.632456,0 1.462443,0.7431088 1.462443,1.3094808 0,0.3594664 0.113067,0.3849895 1.69137,0.3849895 1.649853,0 1.69423,-0.011185 1.810225,-0.4733562 0.146369,-0.5831788 0.924052,-1.2211141 1.488798,-1.2211141 0.61406,0 1.412834,0.6995242 1.412834,1.2376506 0,0.4511802 0.02246,0.4568197 1.749764,0.4568197 h 1.750281 l 0.180351,-0.611849 c 0.207637,-0.7052972 1.00443,-1.1769963 1.695503,-1.0035563 0.56541,0.1419077 1.21543,0.8234736 1.21543,1.2743408 0,0.3038056 0.18339,0.3410645 1.67948,0.3410645 h 1.68 l 0.12506,-0.567924 c 0.13173,-0.5997853 0.87976,-1.1265463 1.59939,-1.1265463 0.50492,0 1.31878,0.8081384 1.31878,1.3094808 0,0.3592134 0.11304,0.3849895 1.67638,0.3849895 h 1.6769 l 0.19172,-0.5508708 c 0.52249,-1.4988001 2.47263,-1.414605 2.94246,0.127124 0.12116,0.397575 0.23171,0.4237468 1.788,0.4237468 h 1.65882 l 0.11317,-0.565857 c 0.16151,-0.8075449 1.1622,-1.2819131 1.9327,-0.9162231 0.29899,0.1419074 0.67042,0.5317103 0.82579,0.866097 l 0.28267,0.6082316 1.60972,0.00413 1.61024,0.00362 0.23409,-0.646989 c 0.47596,-1.3162432 2.52247,-1.2498741 2.79053,0.090434 l 0.1111,0.5565552 h 1.66812 c 1.626,0 1.67068,-0.011603 1.78697,-0.4749065 0.35226,-1.4035314 2.90111,-1.3167961 2.90111,0.098702 0,0.3502163 0.12551,0.3762045 1.78904,0.3762045 1.66353,0 1.78904,-0.025988 1.78904,-0.3762045 0,-1.0474743 1.7178,-1.5281517 2.5771,-0.7208862 0.23972,0.2252111 0.43615,0.5643416 0.43615,0.7534424 0,0.3074088 0.17956,0.3436483 1.69499,0.3436483 1.30662,0 1.69499,-0.05864 1.69499,-0.2568319 0,-0.1413986 0.17548,-0.4805292 0.39015,-0.7534424 0.73667,-0.9365206 2.6231,-0.4552779 2.6231,0.6692098 0,0.3041756 0.18428,0.3410645 1.70429,0.3410645 h 1.7048 l 0.19844,-0.5689576 c 0.23131,-0.6635579 0.65935,-0.9374104 1.46451,-0.9374104 0.66021,0 1.33067,0.5695324 1.33067,1.1301635 0,0.3502163 0.12551,0.3762045 1.78904,0.3762045 1.55225,0 1.78903,-0.04188 1.78903,-0.3172933 0,-0.1745858 0.18459,-0.5137164 0.4098,-0.7534424 0.74683,-0.7949685 2.23141,-0.4397632 2.49132,0.5958292 0.11644,0.4639255 0.15955,0.4749065 1.81074,0.4749065 1.39996,0 1.69137,-0.050031 1.69137,-0.2909384 0,-0.5191233 0.87803,-1.2154296 1.53272,-1.2154296 0.68589,0 1.48053,0.6239245 1.48053,1.1627197 0,0.3070608 0.17843,0.3436483 1.67174,0.3436483 h 1.67225 l 0.23719,-0.5720582 c 0.27519,-0.6643657 0.69592,-0.9343098 1.45573,-0.9343098 0.59165,0 1.26679,0.5200325 1.4583,1.1234456 0.11029,0.3474829 0.27736,0.3829224 1.80351,0.3829224 1.45207,0 1.68207,-0.043295 1.68207,-0.3172933 0,-0.5627394 0.76621,-1.1890747 1.45417,-1.1890747 0.68101,0 1.55908,0.6845761 1.55908,1.2154296 0,0.2406469 0.28549,0.290691 1.64796,0.287321 l 1.64797,-0.00413 0.28215,-0.6077149 c 0.54341,-1.1687683 2.09313,-1.1687683 2.63653,0 l 0.28267,0.6077149 1.62522,0.00413 c 1.61319,0.00405 1.62619,-3.012e-4 1.84847,-0.5369181 0.23478,-0.56681 0.87981,-0.9658325 1.56063,-0.9658325 0.50284,0 1.27434,0.7039508 1.27434,1.1627197 0,0.3087498 0.18298,0.3436483 1.78955,0.3436483 1.64107,0 1.78904,-0.029818 1.78904,-0.3627686 0,-0.4799169 0.86451,-1.1435994 1.48983,-1.1435994 0.65753,0 1.26356,0.4428394 1.41129,1.0314615 0.11088,0.4417915 0.19824,0.4749065 1.2454,0.4749065 h 1.12655 V 3.389974 0 H 100.0001 Z"
       style="fill:#ffffff"
       id="path3" /></g></svg>
