<svg width="40" height="50" viewBox="0 0 40 50" fill="none" xmlns="http://www.w3.org/2000/svg">
<path d="M4.77832 35.4132L0.968977 37.3179C-0.0137495 37.8092 -0.0137468 39.2116 0.96898 39.703L19.3208 48.8789C19.6961 49.0666 20.138 49.0666 20.5133 48.8789L38.8653 39.703C39.8481 39.2116 39.8481 37.8092 38.8653 37.3178L35.0558 35.4131L30.5837 37.6492L32.3062 38.5104L19.9171 44.7049L7.52808 38.5104L9.25043 37.6492L4.77832 35.4132Z" fill="white"/>
<path fill-rule="evenodd" clip-rule="evenodd" d="M19.9171 5.21857L7.52808 11.4131L19.9171 17.6076L32.3062 11.4131L19.9171 5.21857ZM20.5133 1.04457C20.138 0.856887 19.6961 0.856888 19.3208 1.04457L0.968977 10.2205C-0.0137495 10.7119 -0.0137468 12.1143 0.96898 12.6057L19.3208 21.7816C19.6961 21.9693 20.138 21.9693 20.5133 21.7816L38.8653 12.6056C39.8481 12.1143 39.8481 10.7119 38.8653 10.2205L20.5133 1.04457Z" fill="white"/>
<path d="M10.7079 21.9473C10.3325 21.7597 9.89066 21.7597 9.51529 21.9473L0.968977 26.2205C-0.0137496 26.7119 -0.0137467 28.1143 0.96898 28.6057L19.3208 37.7816C19.6961 37.9693 20.138 37.9693 20.5133 37.7816L38.8653 28.6056C39.8481 28.1143 39.8481 26.7119 38.8653 26.2205L30.3188 21.9473C29.9434 21.7596 29.5016 21.7596 29.1262 21.9473L20.5132 26.2538C20.1378 26.4415 19.696 26.4414 19.3206 26.2538L10.7079 21.9473Z" fill="white"/>
</svg>
