<svg width="52" height="38" viewBox="0 0 52 38" fill="none" xmlns="http://www.w3.org/2000/svg">
<path fill-rule="evenodd" clip-rule="evenodd" d="M21.3823 5.41341L16.6204 32.0801H40.4517L45.2136 5.41341H21.3823ZM19.1497 0.0800781C17.8577 0.0800781 16.7516 1.00616 16.5245 2.27797L10.8102 34.278C10.5184 35.9125 11.775 37.4134 13.4354 37.4134H42.6843C43.9763 37.4134 45.0824 36.4873 45.3095 35.2155L51.0238 3.21552C51.3156 1.58104 50.059 0.0800781 48.3986 0.0800781H19.1497Z" fill="white"/>
<path fill-rule="evenodd" clip-rule="evenodd" d="M6.90123 33.4134L6.18694 37.4134H3.58366C2.1109 37.4134 0.916992 36.2195 0.916992 34.7467V29.4134H4.91699V33.4134H6.90123ZM12.8536 0.0800781L12.1393 4.08008H10.2503V0.0800781H12.8536ZM0.916992 2.74674V8.08008H4.91699V4.08008H6.25033V0.0800781H3.58366C2.1109 0.0800781 0.916992 1.27399 0.916992 2.74674ZM4.91699 24.0801H0.916992V13.4134H4.91699V24.0801Z" fill="white"/>
</svg>
