<svg width="54" height="43" viewBox="0 0 54 43" fill="none" xmlns="http://www.w3.org/2000/svg">
<path fill-rule="evenodd" clip-rule="evenodd" d="M45.4478 5.24925L13.4478 42.5826L8.38614 38.244L11.3284 34.8114C5.84003 30.6359 2.30007 25.268 0.914492 22.927C0.480292 22.1934 0.480328 21.3018 0.914588 20.5683C3.34199 16.4678 12.3804 3.0802 26.9194 3.07995C30.5255 3.07989 33.7932 3.90344 36.7056 5.20462L40.3861 0.910645L45.4478 5.24925ZM33.0418 9.479L30.0614 12.9562C29.5718 12.781 29.0633 12.6456 28.5398 12.5539C28.0127 12.4615 27.4705 12.4133 26.917 12.4133C21.7623 12.4133 17.5837 16.592 17.5837 21.7466C17.5837 22.6161 17.7026 23.4578 17.925 24.2564C18.1149 24.9382 18.3802 25.5885 18.7114 26.1978L14.8059 30.7543C14.147 30.2641 13.5114 29.7457 12.8994 29.2065C9.97567 26.6303 7.80179 23.7553 6.47036 21.7478C7.80213 19.7402 9.9766 16.8648 12.9009 14.2882C16.6893 10.9503 21.38 8.41338 26.9195 8.41328C29.0919 8.41325 31.1338 8.80339 33.0418 9.479Z" fill="white"/>
<path d="M26.9165 35.0809C26.0142 35.0808 25.1346 35.0135 24.2776 34.8864L20.346 39.4733C22.3913 40.0692 24.5829 40.4141 26.9162 40.4142C41.4548 40.4149 50.4955 27.028 52.9238 22.9272C53.3583 22.1935 53.3584 21.3017 52.924 20.5679C51.7578 18.5979 49.0662 14.4851 44.9722 10.7427L41.4993 14.7945C44.1414 17.2349 46.1229 19.8702 47.368 21.7471C46.0358 23.7549 43.8608 26.6303 40.936 29.2067C37.1469 32.5445 32.4557 35.0812 26.9165 35.0809Z" fill="white"/>
</svg>
