<svg width="65" height="65" viewBox="0 0 65 65" fill="none" xmlns="http://www.w3.org/2000/svg">
<path fill-rule="evenodd" clip-rule="evenodd" d="M16.9168 26.0801H14.2502C12.7774 26.0801 11.5835 27.274 11.5835 28.7467V50.0801C11.5835 51.5528 12.7774 52.7467 14.2502 52.7467H51.5835C53.0563 52.7467 54.2502 51.5528 54.2502 50.0801V28.7467C54.2502 27.274 53.0563 26.0801 51.5835 26.0801H48.9168V22.0801C48.9168 13.2435 41.7534 6.08008 32.9168 6.08008C24.0803 6.08008 16.9168 13.2435 16.9168 22.0801V26.0801ZM22.2502 26.0801H43.5835V22.0801C43.5835 16.189 38.8079 11.4134 32.9168 11.4134C27.0258 11.4134 22.2502 16.189 22.2502 22.0801V26.0801Z" fill="white"/>
</svg>
