<svg width="24" height="24" viewBox="0 0 24 24" fill="none" xmlns="http://www.w3.org/2000/svg">
<path d="M12.9987 9.99922C12.9987 11.6561 11.6556 12.9992 9.99874 12.9992C9.32972 12.9992 8.71184 12.7802 8.21289 12.41C8.77087 10.3746 10.374 8.77131 12.4094 8.21313C12.7797 8.71213 12.9987 9.33009 12.9987 9.99922Z" fill="black"/>
<path fill-rule="evenodd" clip-rule="evenodd" d="M10 3C12.9751 3 15.5166 4.85596 16.5301 7.47323C17.435 7.82401 18.2594 8.36008 18.9492 9.04966C19.796 9.89629 20.4115 10.946 20.7368 12.0984C21.0621 13.2509 21.0863 14.4675 20.8071 15.6319C20.528 16.7964 19.9547 17.8698 19.1423 18.7494C18.3298 19.6291 17.3053 20.2856 16.1666 20.6563C15.028 21.0269 13.8133 21.0992 12.6387 20.8664C11.4641 20.6335 10.3689 20.1032 9.45776 19.3262C8.57425 18.5727 7.8925 17.6117 7.47323 16.5301C4.85597 15.5166 3 12.9751 3 10C3 6.13401 6.13401 3 10 3ZM10 15C12.7614 15 15 12.7614 15 10C15 7.23858 12.7614 5 10 5C7.23858 5 5 7.23858 5 10C5 12.7614 7.23858 15 10 15Z" fill="black"/>
</svg>
