<svg width="54" height="53" viewBox="0 0 54 53" fill="none" xmlns="http://www.w3.org/2000/svg">
<path d="M28.6721 0.665148C27.8088 0.377356 26.9172 1.01998 26.9172 1.93006V5.41349L32.2505 7.19127V46.3024L26.9172 48.0802V51.5636C26.9172 52.4737 27.8088 53.1163 28.6721 52.8285L34.9172 50.7468L41.1622 52.8285C42.0256 53.1163 42.9172 52.4737 42.9172 51.5636V48.0802L37.5838 46.3024V7.19127L42.9172 5.41349V1.93006C42.9172 1.01998 42.0256 0.377356 41.1622 0.665148L34.9172 2.74682L28.6721 0.665148Z" fill="white"/>
<path d="M8.25049 18.7468H26.9172V34.7468H8.25049V18.7468Z" fill="white"/>
<path d="M2.91716 10.7468H28.2505V14.7468H4.25049V38.7468H28.2505V42.7468H2.91716C1.4444 42.7468 0.250488 41.5529 0.250488 40.0802V13.4135C0.250488 11.9407 1.4444 10.7468 2.91716 10.7468Z" fill="white"/>
<path d="M49.5838 38.7468H41.5838V42.7468H50.9172C52.3899 42.7468 53.5838 41.5529 53.5838 40.0802V13.4135C53.5838 11.9407 52.3899 10.7468 50.9172 10.7468H41.5838V14.7468H49.5838V38.7468Z" fill="white"/>
</svg>
