<svg width="44" height="49" viewBox="0 0 44 49" fill="none" xmlns="http://www.w3.org/2000/svg">
<path d="M16.5836 0.0800781H27.2502V21.4134H30.8573C31.9448 21.4134 32.5749 22.6452 31.9385 23.527L22.998 35.9153C22.4658 36.6527 21.3678 36.6527 20.8357 35.9153L11.8952 23.527C11.2588 22.6452 11.8889 21.4134 12.9764 21.4134H16.5836V0.0800781Z" fill="white"/>
<path d="M0.583496 16.0801V42.7469C0.583496 45.6924 2.97131 48.0802 5.91683 48.0802H37.9168C40.8623 48.0802 43.2502 45.6924 43.2502 42.7469V16.0801C43.2502 13.1346 40.8623 10.7467 37.9168 10.7467H32.5835V14.7467H36.5835C38.0563 14.7467 39.2502 15.9407 39.2502 17.4134V41.4134C39.2502 42.8862 38.0563 44.0801 36.5835 44.0801H7.25016C5.7774 44.0801 4.5835 42.8862 4.5835 41.4134V17.4134C4.5835 15.9407 5.7774 14.7467 7.25016 14.7467H11.2502V10.7467H5.91683C2.97131 10.7467 0.583496 13.1346 0.583496 16.0801Z" fill="white"/>
</svg>
