<svg width="49" height="49" viewBox="0 0 49 49" fill="none" xmlns="http://www.w3.org/2000/svg">
<path d="M24.9171 0.746582L34.6733 10.5028C35.0093 10.8388 34.7713 11.4132 34.2962 11.4132H27.5837L27.5837 22.0799H38.2503V15.3675C38.2503 14.8923 38.8248 14.6544 39.1608 14.9904L48.917 24.7466L39.1608 34.5028C38.8248 34.8388 38.2503 34.6008 38.2503 34.1257V27.4132H27.5837L27.5837 38.0799H34.296C34.7711 38.0799 35.0091 38.6544 34.6731 38.9904L24.9169 48.7466L15.1607 38.9904C14.8247 38.6544 15.0627 38.0799 15.5378 38.0799H22.2503L22.2503 27.4132H11.5837V34.1257C11.5837 34.6008 11.0092 34.8388 10.6732 34.5028L0.916992 24.7466L10.6732 14.9904C11.0092 14.6544 11.5837 14.8923 11.5837 15.3675V22.0799H22.2503L22.2503 11.4132H15.538C15.0628 11.4132 14.8249 10.8388 15.1609 10.5028L24.9171 0.746582Z" fill="white"/>
</svg>
