<svg width="44" height="47" viewBox="0 0 44 47" fill="none" xmlns="http://www.w3.org/2000/svg">
<path d="M5.91683 20.0801H3.25016C1.7774 20.0801 0.583496 21.274 0.583496 22.7467V44.0801C0.583496 45.5528 1.7774 46.7467 3.25016 46.7467H40.5835C42.0563 46.7467 43.2502 45.5528 43.2502 44.0801V22.7467C43.2502 21.274 42.0563 20.0801 40.5835 20.0801H11.2502V16.0801C11.2502 10.189 16.0258 5.41341 21.9168 5.41341C25.7805 5.41341 29.1644 7.46765 31.0359 10.5435L35.5954 7.77522C32.7882 3.16143 27.7124 0.0800781 21.9168 0.0800781C13.0803 0.0800781 5.91683 7.24352 5.91683 16.0801V20.0801Z" fill="white"/>
</svg>
