<?xml version="1.0" encoding="UTF-8" standalone="no"?>
<!DOCTYPE svg PUBLIC "-//W3C//DTD SVG 1.1//EN" "http://www.w3.org/Graphics/SVG/1.1/DTD/svg11.dtd">
<svg width="100%" height="100%" viewBox="0 0 250 250" version="1.1" xmlns="http://www.w3.org/2000/svg" xmlns:xlink="http://www.w3.org/1999/xlink" xml:space="preserve" xmlns:serif="http://www.serif.com/" style="fill-rule:evenodd;clip-rule:evenodd;stroke-linejoin:round;stroke-miterlimit:2;">
    <g transform="matrix(10.4167,0,0,10.4167,-1177.08,-1177.08)">
        <g id="Monochrome-Variant" serif:id="Monochrome Variant">
            <g id="MMB--Button2-" serif:id="MMB (Button2)" transform="matrix(1.06322,0,0,1.06322,125,125)">
                <g id="Mouse--Pavel-" serif:id="Mouse (Pavel)">
                    <g id="MMB--Button2-1" serif:id="MMB (Button2)" transform="matrix(1,0,0,1,-12,-12)">
                        <path d="M11,8C11,7.448 11.448,7 12,7C12.552,7 13,7.448 13,8L13,11C13,11.552 12.552,12 12,12C11.448,12 11,11.552 11,11L11,8Z" style="fill:rgb(68,68,68);fill-rule:nonzero;"/>
                        <path d="M10,3C7.791,3 6,4.791 6,7L6,15C6,18.314 8.686,21 12,21C15.314,21 18,18.314 18,15L18,7C18,4.791 16.209,3 14,3L10,3ZM12,5C10.343,5 9,6.343 9,8L9,11C9,12.657 10.343,14 12,14C13.657,14 15,12.657 15,11L15,8C15,6.343 13.657,5 12,5Z" style="fill:rgb(68,68,68);"/>
                    </g>
                    <g id="MMB--Button2-2" serif:id="MMB (Button2)">
                    </g>
                </g>
            </g>
        </g>
    </g>
</svg>
