<?xml version="1.0" encoding="UTF-8" standalone="no"?>
<!DOCTYPE svg PUBLIC "-//W3C//DTD SVG 1.1//EN" "http://www.w3.org/Graphics/SVG/1.1/DTD/svg11.dtd">
<svg width="100%" height="100%" viewBox="0 0 250 250" version="1.1" xmlns="http://www.w3.org/2000/svg" xmlns:xlink="http://www.w3.org/1999/xlink" xml:space="preserve" xmlns:serif="http://www.serif.com/" style="fill-rule:evenodd;clip-rule:evenodd;stroke-linejoin:round;stroke-miterlimit:2;">
    <g transform="matrix(10.4167,0,0,10.4167,-1177.08,-1177.08)">
        <g id="Monochrome-Variant" serif:id="Monochrome Variant">
            <g id="lmb2.svg" transform="matrix(1.06322,0,0,1.06322,125,125)">
                <g id="Mouse--Pavel-" serif:id="Mouse (Pavel)">
                    <g id="lmb2.svg1" serif:id="lmb2.svg" transform="matrix(1,0,0,1,-12,-12)">
                        <path d="M9,3C6.791,3 5,4.791 5,7L5,11L11,11L11,3L9,3Z" style="fill:rgb(68,68,68);fill-rule:nonzero;"/>
                        <path d="M6,16L6,12L12,12L12,4L14,4C16.209,4 18,5.791 18,8L18,16C18,19.314 15.314,22 12,22C8.686,22 6,19.314 6,16Z" style="fill:rgb(68,68,68);fill-rule:nonzero;"/>
                    </g>
                    <g id="lmb2.svg2" serif:id="lmb2.svg">
                    </g>
                </g>
            </g>
        </g>
    </g>
</svg>
