<?xml version="1.0" encoding="UTF-8" standalone="no"?>
<!DOCTYPE svg PUBLIC "-//W3C//DTD SVG 1.1//EN" "http://www.w3.org/Graphics/SVG/1.1/DTD/svg11.dtd">
<svg width="100%" height="100%" viewBox="0 0 250 250" version="1.1" xmlns="http://www.w3.org/2000/svg" xmlns:xlink="http://www.w3.org/1999/xlink" xml:space="preserve" xmlns:serif="http://www.serif.com/" style="fill-rule:evenodd;clip-rule:evenodd;stroke-linejoin:round;stroke-miterlimit:2;">
    <g transform="matrix(10.4167,0,0,10.4167,-1177.08,-1177.08)">
        <g id="Monochrome-Variant" serif:id="Monochrome Variant">
            <g id="rmb2.svg" transform="matrix(1.06322,0,0,1.06322,125,125)">
                <g id="Mouse--Pavel-" serif:id="Mouse (Pavel)">
                    <g id="rmb2.svg1" serif:id="rmb2.svg" transform="matrix(1,0,0,1,-12,-12)">
                        <path d="M15,3C17.209,3 19,4.791 19,7L19,11L13,11L13,3L15,3Z" style="fill:rgb(68,68,68);fill-rule:nonzero;"/>
                        <path d="M18,16L18,12L12,12L12,4L10,4C7.791,4 6,5.791 6,8L6,16C6,19.314 8.686,22 12,22C15.314,22 18,19.314 18,16Z" style="fill:rgb(68,68,68);fill-rule:nonzero;"/>
                    </g>
                    <g id="rmb2.svg2" serif:id="rmb2.svg">
                    </g>
                </g>
            </g>
        </g>
    </g>
</svg>
