<?xml version="1.0" encoding="UTF-8" standalone="no"?>
<!DOCTYPE svg PUBLIC "-//W3C//DTD SVG 1.1//EN" "http://www.w3.org/Graphics/SVG/1.1/DTD/svg11.dtd">
<svg width="100%" height="100%" viewBox="0 0 250 250" version="1.1" xmlns="http://www.w3.org/2000/svg" xmlns:xlink="http://www.w3.org/1999/xlink" xml:space="preserve" xmlns:serif="http://www.serif.com/" style="fill-rule:evenodd;clip-rule:evenodd;stroke-linejoin:round;stroke-miterlimit:2;">
    <g transform="matrix(10.4167,0,0,10.4167,-1177.08,-1177.08)">
        <g id="Monochrome-Variant" serif:id="Monochrome Variant">
            <g id="m-yaxis.svg" transform="matrix(1.06322,0,0,1.06322,125,125)">
                <g id="Mouse--Pavel-" serif:id="Mouse (Pavel)">
                    <g id="m-yaxis.svg1" serif:id="m-yaxis.svg" transform="matrix(1,0,0,1,-12,-12)">
                        <path d="M12,1L9,4L15,4L12,1Z" style="fill:rgb(68,68,68);fill-rule:nonzero;"/>
                        <path d="M10,5C8.343,5 7,6.343 7,8L7,14C7,16.761 9.239,19 12,19C14.761,19 17,16.761 17,14L17,8C17,6.343 15.657,5 14,5L10,5ZM12,7C11.448,7 11,7.448 11,8L11,10C11,10.552 11.448,11 12,11C12.552,11 13,10.552 13,10L13,8C13,7.448 12.552,7 12,7Z" style="fill:rgb(68,68,68);"/>
                        <path d="M9,20L12,23L15,20L9,20Z" style="fill:rgb(68,68,68);fill-rule:nonzero;"/>
                    </g>
                    <g id="m-yaxis.svg2" serif:id="m-yaxis.svg">
                    </g>
                </g>
            </g>
        </g>
    </g>
</svg>
