<?xml version="1.0" encoding="UTF-8" standalone="no"?>
<!DOCTYPE svg PUBLIC "-//W3C//DTD SVG 1.1//EN" "http://www.w3.org/Graphics/SVG/1.1/DTD/svg11.dtd">
<svg width="100%" height="100%" viewBox="0 0 250 250" version="1.1" xmlns="http://www.w3.org/2000/svg" xmlns:xlink="http://www.w3.org/1999/xlink" xml:space="preserve" xmlns:serif="http://www.serif.com/" style="fill-rule:evenodd;clip-rule:evenodd;stroke-linejoin:round;stroke-miterlimit:2;">
    <g transform="matrix(10.4167,0,0,10.4167,-1177.08,-1177.08)">
        <g id="Monochrome-Variant" serif:id="Monochrome Variant">
            <g id="m-wheel.svg" transform="matrix(1.06322,0,0,1.06322,125,125)">
                <g id="Mouse--Pavel-" serif:id="Mouse (Pavel)">
                    <g id="m-wheel.svg1" serif:id="m-wheel.svg" transform="matrix(1,0,0,1,-12,-12)">
                        <path d="M10,3C7.791,3 6,4.791 6,7L6,15C6,18.314 8.686,21 12,21C15.314,21 18,18.314 18,15L18,7C18,4.791 16.209,3 14,3L10,3ZM12,9C11.448,9 11,9.448 11,10L11,13C11,13.552 11.448,14 12,14C12.552,14 13,13.552 13,13L13,10C13,9.448 12.552,9 12,9ZM10,7L14,7L12,5L10,7ZM10,16L12,18L14,16L10,16Z" style="fill:rgb(68,68,68);"/>
                    </g>
                    <g id="m-wheel.svg2" serif:id="m-wheel.svg">
                    </g>
                </g>
            </g>
        </g>
    </g>
</svg>
