<svg xmlns="http://www.w3.org/2000/svg" viewBox="0 0 24 24">
  <path id="4WD" d="M 15.61,8.21 l 0,-5.19 1.97,0 0.63,0.06 0.53,0.16 0.44,0.26 0.35,0.34 0.44,0.83 0.14,0.95 -0.13,0.89 -0.44,0.84 -0.34,0.35 -0.44,0.27 -0.55,0.18 -0.66,0.06 -1.94,0 Z M 10.07,8.21 l -1.11,-5.19 1.2,0 0.52,2.62 0.02,0.15 0.02,0.17 0.02,-0.17 0.03,-0.16 0.62,-2.61 1.02,0 0.63,2.61 0.03,0.15 0.02,0.19 0.02,-0.17 0.03,-0.13 0.51,-2.65 1.21,0 -1.12,5.19 -1.11,0 -0.7,-2.82 -0.02,-0.1 -0.02,-0.16 -0.02,0.16 -0.02,0.09 -0.67,2.83 -1.11,0 Z M 5,11 l 1,0 -1,4 1,4 -1,0 -3,-4 3,-4 Z M 6.93,7.21 l -2.93,0 0,-0.67 2.95,-3.52 1.13,0 0,3.2 0.7,0 0,0.99 -0.7,0 0,1.01 -1.15,0 0,-1.01 Z M 17,14 l 0,2 -6,0 0,-2 6,0 Z M 7.5,10 l 3,0 0.35,0.15 0.15,0.35 0,1 -0.15,0.35 -0.35,0.15 -0.5,0 0,1 -2,0 0,-1 -0.5,0 -0.35,-0.15 -0.15,-0.35 0,-1 0.15,-0.35 0.35,-0.15 Z M 7.5,18 l 0.5,0 0,-1 2,0 0,1 0.5,0 0.35,0.15 0.15,0.35 0,1 -0.15,0.35 -0.35,0.15 -3,0 -0.35,-0.15 -0.15,-0.35 0,-1 0.15,-0.35 0.35,-0.15 Z M 17.5,10 l 3,0 0.35,0.15 0.15,0.35 0,1 -0.15,0.35 -0.35,0.15 -0.5,0 0,1 -2,0 0,-1 -0.5,0 -0.35,-0.15 -0.15,-0.35 0,-1 0.15,-0.35 0.35,-0.15 Z M 17,18.5 l 0.15,-0.35 0.35,-0.15 0.5,0 0,-1 2,0 0,1 0.5,0 0.35,0.15 0.15,0.35 0,1 -0.15,0.35 -0.35,0.15 -3,0 -0.35,-0.15 -0.15,-0.35 0,-1 Z M 16.78,7.09 l 0.88,0 0.57,-0.13 0.38,-0.35 0.22,-0.48 0.07,-0.51 -0.07,-0.53 -0.21,-0.48 -0.36,-0.35 -0.51,-0.13 -0.97,0 0,2.96 Z M 18,15 l 0.08,-0.39 0.21,-0.32 0.32,-0.21 0.39,-0.08 0.39,0.08 0.32,0.21 0.21,0.32 0.08,0.39 -0.08,0.39 -0.21,0.32 -0.32,0.21 -0.39,0.08 -0.39,-0.08 -0.32,-0.21 -0.21,-0.32 -0.08,-0.39 Z M 8,15 l 0.08,-0.39 0.21,-0.32 0.32,-0.21 0.39,-0.08 0.39,0.08 0.32,0.21 0.21,0.32 0.08,0.39 -0.08,0.39 -0.21,0.32 -0.32,0.21 -0.39,0.08 -0.39,-0.08 -0.32,-0.21 -0.21,-0.32 -0.08,-0.39 Z M 6.93,6.22 l 0,-1.73 -1.4,1.73 1.4,0 Z" fill-rule="evenodd" fill="#000000" />
</svg>