<svg xmlns="http://www.w3.org/2000/svg" viewBox="0 0 24 24">
  <path id="9dividedby10" d="M 13.63,20.11 l -0.61,-0.07 -0.51,-0.22 -0.4,-0.34 -0.31,-0.45 -0.37,-1.09 -0.11,-1.2 0.06,-0.91 0.22,-0.91 0.42,-0.79 0.66,-0.55 0.44,-0.15 0.51,-0.05 0.61,0.07 0.51,0.22 0.4,0.35 0.3,0.44 0.38,1.08 0.12,1.2 -0.07,0.92 -0.23,0.91 -0.41,0.78 -0.66,0.56 -0.44,0.15 -0.51,0.05 Z M 10.66,10.12 l 0,-1.22 1.05,-0.26 0.47,-0.27 0.42,-0.37 0.34,-0.49 0.23,-0.61 -0.54,0.31 -0.73,0.11 -0.65,-0.07 -0.57,-0.21 -0.49,-0.34 -0.36,-0.45 -0.24,-0.57 -0.07,-0.66 0.08,-0.66 0.25,-0.56 0.39,-0.46 0.52,-0.35 0.62,-0.22 0.71,-0.07 0.81,0.09 0.66,0.27 0.5,0.43 0.35,0.56 0.21,0.67 0.07,0.76 -0.11,1.25 -0.34,1.09 -0.56,0.91 -0.78,0.71 -1.01,0.47 -1.23,0.21 Z M 16,11 l 0,1.45 -8,0 0,-1.45 8,0 Z M 13.63,19.22 l 0.37,-0.05 0.3,-0.17 0.41,-0.59 0.2,-0.8 0.06,-0.87 -0.06,-0.9 -0.21,-0.8 -0.41,-0.57 -0.29,-0.16 -0.37,-0.05 -0.38,0.05 -0.3,0.17 -0.41,0.59 -0.21,0.81 -0.05,0.86 0.06,0.91 0.21,0.8 0.42,0.56 0.29,0.16 0.37,0.05 Z M 9.41,20 l 0,-5.08 -1.06,0 0,-0.68 0.58,-0.07 0.44,-0.24 0.28,-0.44 0.7,0 0,6.51 -0.94,0 Z M 12.08,6.09 l 0.61,-0.13 0.42,-0.37 0.16,-0.59 -0.16,-0.57 -0.42,-0.38 -0.61,-0.14 -0.67,0.14 -0.44,0.38 -0.14,0.56 0.14,0.6 0.43,0.37 0.68,0.13 Z" fill-rule="evenodd" fill="#000000" />
</svg>