<svg xmlns="http://www.w3.org/2000/svg" viewBox="0 0 24 24">
  <path id="ABSIndicator" d="M 8.94,4.61 l 1.5,-0.46 1.56,-0.15 1.56,0.15 1.5,0.46 1.38,0.74 1.22,0.99 0.99,1.22 0.74,1.38 0.46,1.5 0.15,1.56 -0.15,1.56 -0.46,1.5 -0.74,1.38 -0.99,1.22 -1.22,0.99 -1.38,0.74 -1.5,0.46 -1.56,0.15 -1.56,-0.15 -1.5,-0.46 -1.38,-0.74 -1.22,-0.99 -0.99,-1.22 -0.74,-1.38 -0.46,-1.5 -0.15,-1.56 0.15,-1.56 0.46,-1.5 0.74,-1.38 0.99,-1.22 1.22,-0.99 1.38,-0.74 Z M 12,5.5 l -1.27,0.12 -1.22,0.37 -1.12,0.61 -0.99,0.8 -0.8,0.99 -0.61,1.12 -0.37,1.22 -0.12,1.27 0.12,1.27 0.37,1.22 0.61,1.12 0.8,0.99 0.99,0.8 1.12,0.61 1.22,0.37 1.27,0.12 1.27,-0.12 1.22,-0.37 1.12,-0.61 0.99,-0.8 0.8,-0.99 0.61,-1.12 0.37,-1.22 0.12,-1.27 -0.12,-1.27 -0.37,-1.22 -0.61,-1.12 -0.8,-0.99 -0.99,-0.8 -1.12,-0.61 -1.22,-0.37 -1.27,-0.12 Z M 18.36,5.64 l 0.71,-0.71 1.24,1.51 0.93,1.73 0.57,1.88 0.19,1.95 -0.19,1.95 -0.57,1.88 -0.93,1.73 -1.24,1.51 -0.71,-0.71 1.12,-1.36 0.83,-1.56 0.52,-1.68 0.17,-1.76 -0.17,-1.76 -0.52,-1.68 -0.83,-1.56 -1.12,-1.36 Z M 3.69,8.56 l -0.52,1.68 -0.17,1.76 0.17,1.76 0.52,1.68 0.83,1.56 1.12,1.36 -0.71,0.71 -1.24,-1.51 -0.93,-1.73 -0.57,-1.88 -0.19,-1.95 0.19,-1.95 0.57,-1.88 0.93,-1.73 1.24,-1.51 0.71,0.71 -1.12,1.36 -0.83,1.56 Z M 10.61,9.48 l 1.6,0 0.5,0.04 0.4,0.15 0.29,0.21 0.2,0.28 0.14,0.61 -0.16,0.6 -0.26,0.29 0.38,0.36 0.14,0.33 0.05,0.36 -0.08,0.49 -0.27,0.46 -0.5,0.33 -0.73,0.13 -1.7,0 0,-4.64 Z M 7.88,9.48 l 0.88,0 1.52,4.64 -1.07,0 -0.28,-0.97 -1.22,0 -0.29,0.97 -1.06,0 1.52,-4.64 Z M 16.06,9.4 l 0.49,0.07 0.43,0.22 0.32,0.33 0.2,0.41 0.03,0.11 -0.88,0.29 -0.05,-0.09 -0.23,-0.28 -0.36,-0.11 -0.32,0.09 -0.11,0.23 0.06,0.17 0.24,0.18 0.44,0.23 0.44,0.23 0.44,0.29 0.35,0.42 0.14,0.57 -0.06,0.42 -0.17,0.36 -0.26,0.28 -0.32,0.21 -0.77,0.16 -0.72,-0.15 -0.01,0 -0.58,-0.42 -0.37,-0.64 -0.04,-0.11 0.89,-0.34 0.05,0.11 0.36,0.44 0.48,0.16 0.38,-0.11 0.14,-0.33 -0.1,-0.23 0,-0.01 -0.3,-0.23 -0.43,-0.22 -0.44,-0.2 -0.41,-0.29 0,0 -0.31,-0.39 0,0 -0.12,-0.54 0.18,-0.65 0.52,-0.46 0.36,-0.14 0.42,-0.04 Z M 11.6,12.18 l 0,1 0.76,0 0.34,-0.07 0.15,-0.17 0,0 0.05,-0.23 -0.06,-0.26 0,0 0,0 -0.19,-0.18 0,0 0,-0.01 -0.19,-0.06 -0.28,-0.02 -0.58,0 Z M 11.6,10.41 l 0,0.84 0.51,0 0.31,-0.03 0.19,-0.09 0.14,-0.31 -0.04,-0.2 0,0 0,0 -0.13,-0.14 0,0 0,0 -0.35,-0.07 -0.63,0 Z M 8.32,11.11 l -0.33,1.12 0.66,0 -0.33,-1.12 Z" fill-rule="evenodd" fill="#000000" />
</svg>