<svg xmlns="http://www.w3.org/2000/svg" viewBox="0 0 24 24">
  <path id="accelerationMPH" d="M 3,19 l 0,-6 1.49,0 0,0.02 0.01,-0.02 1.5,2.5 1.5,-2.5 1.49,0 0,6 -1.49,0 0,-3.5 -1.5,2.5 -1.5,-2.5 -0.01,-0.03 0,3.53 -1.49,0 Z M 10,13 l 3,0 0.78,0.16 0.63,0.43 0.43,0.63 0.16,0.78 -0.16,0.78 -0.43,0.63 -0.63,0.43 -0.78,0.16 -1.51,0 0,2 -1.49,0 0,-6 Z M 16,19 l 0,-6 1.49,0 0,2 2.01,0 0,-2 1.49,0 0,2 0.01,0 0,1.5 -0.01,0 0,2.5 -1.49,0 0,-2.5 -2.01,0 0,2.5 -1.49,0 Z M 18,7 l 0.16,-0.78 0.43,-0.63 0.63,-0.43 0.78,-0.16 0.78,0.16 0.63,0.43 0.43,0.63 0.16,0.78 0,2 -0.16,0.78 -0.43,0.63 -0.63,0.43 -0.78,0.16 -0.78,-0.16 -0.63,-0.43 -0.43,-0.63 -0.16,-0.78 0,-2 Z M 2,7 l 0.16,-0.78 0.43,-0.63 0.63,-0.43 0.78,-0.16 0.78,0.16 0.63,0.43 0.43,0.63 0.16,0.78 0,2 -0.16,0.78 -0.43,0.63 -0.63,0.43 -0.78,0.16 -0.78,-0.16 -0.63,-0.43 -0.43,-0.63 -0.16,-0.78 0,-2 Z M 13.57,5.74 l 0.28,-0.28 0.37,-0.24 0.43,-0.17 0.46,-0.08 0.94,0.08 0.33,0.08 0.13,0.04 0,0.99 -0.13,-0.04 -0.31,-0.08 -0.39,-0.08 -0.36,-0.02 -0.55,0.19 -0.35,0.35 -0.15,0.42 -0.04,0.47 0,0.13 0,0.35 0.06,0 0.04,-0.08 0.13,-0.19 0.22,-0.23 0.32,-0.19 0.42,-0.08 0.45,0.07 0.42,0.18 0.32,0.28 0.32,0.65 0.07,0.74 -0.14,0.76 -0.41,0.65 -0.31,0.27 -0.34,0.19 -0.8,0.13 -0.44,-0.04 -0.42,-0.14 -0.4,-0.25 -0.35,-0.38 -0.24,-0.5 -0.12,-0.57 -0.04,-1.24 0.01,-0.38 0.04,-0.56 0.13,-0.47 0.4,-0.73 Z M 4.75,7 l -0.06,-0.29 -0.16,-0.24 -0.24,-0.16 -0.29,-0.06 -0.29,0.06 -0.24,0.16 -0.16,0.24 -0.06,0.29 0,2 0.06,0.29 0.16,0.24 0.24,0.16 0.29,0.06 0.29,-0.06 0.24,-0.16 0.16,-0.24 0.06,-0.29 0,-2 Z M 20.75,7 l -0.06,-0.29 -0.16,-0.24 -0.24,-0.16 -0.29,-0.06 -0.29,0.06 -0.24,0.16 -0.16,0.24 -0.06,0.29 0,2 0.06,0.29 0.16,0.24 0.24,0.16 0.29,0.06 0.29,-0.06 0.24,-0.16 0.16,-0.24 0.06,-0.29 0,-2 Z M 11.49,15.75 l 1.51,0 0.29,-0.06 0.24,-0.16 0.16,-0.24 0.06,-0.29 -0.06,-0.29 -0.16,-0.24 -0.24,-0.16 -0.29,-0.06 -1.51,0 0,1.5 Z M 8,8.5 l 0,-1 3,0 0,1 -3,0 Z M 14.23,8.86 l 0.02,0.44 0.14,0.33 0.26,0.2 0.35,0.07 0.34,-0.07 0.25,-0.2 0.16,-0.29 0.05,-0.34 -0.04,-0.34 -0.15,-0.29 -0.25,-0.2 -0.36,-0.08 -0.32,0.07 -0.23,0.18 -0.22,0.52 Z" fill-rule="evenodd" fill="#000000" />
</svg>