<svg xmlns="http://www.w3.org/2000/svg" viewBox="0 0 24 24">
  <path id="accelerationKPH" d="M 10,19 l 0,-6 3,0 0.78,0.16 0.63,0.43 0.43,0.63 0.16,0.78 -0.16,0.78 -0.43,0.63 -0.63,0.43 -0.78,0.16 -1.51,0 0,2 -1.49,0 Z M 16,13 l 1.49,0 0,2 2.01,0 0,-2 1.49,0 0,2 0.01,0 0,1.5 -0.01,0 0,2.5 -1.49,0 0,-2.5 -2.01,0 0,2.5 -1.49,0 0,-6 Z M 20,5 l 0.78,0.16 0.63,0.43 0.43,0.63 0.16,0.78 0,2 -0.16,0.78 -0.43,0.63 -0.63,0.43 -0.78,0.16 -0.78,-0.16 -0.63,-0.43 -0.43,-0.63 -0.16,-0.78 0,-2 0.16,-0.78 0.43,-0.63 0.63,-0.43 0.78,-0.16 Z M 13,7 l 0.16,-0.78 0.43,-0.63 0.63,-0.43 0.78,-0.16 0.78,0.16 0.63,0.43 0.43,0.63 0.16,0.78 0,2 -0.16,0.78 -0.43,0.63 -0.63,0.43 -0.78,0.16 -0.78,-0.16 -0.63,-0.43 -0.43,-0.63 -0.16,-0.78 0,-2 Z M 4,5 l 0.78,0.16 0.63,0.43 0.43,0.63 0.16,0.78 0,2 -0.16,0.78 -0.43,0.63 -0.63,0.43 -0.78,0.16 -0.78,-0.16 -0.63,-0.43 -0.43,-0.63 -0.16,-0.78 0,-2 0.16,-0.78 0.43,-0.63 0.63,-0.43 0.78,-0.16 Z M 4,13 l 1.49,0 0,2.17 0.07,0.04 0.08,-0.12 0.2,-0.29 0.66,-0.79 0.68,-0.7 0.23,-0.22 0.09,-0.09 1.49,0 0.01,0.5 -1.82,1.82 1.82,3.18 0,0.5 -1.5,0 -0.75,-1.25 -0.62,-1.29 -0.05,-0.02 -0.58,0.56 -0.01,0 0,2 -1.49,0 0,-6 Z M 10.51,5 l 1.49,0 0,6 -1.49,0 0,-6 Z M 4.75,9 l 0,-2 -0.06,-0.29 -0.16,-0.24 -0.24,-0.16 -0.29,-0.06 -0.29,0.06 -0.24,0.16 -0.16,0.24 -0.06,0.29 0,2 0.06,0.29 0.16,0.24 0.24,0.16 0.29,0.06 0.29,-0.06 0.24,-0.16 0.16,-0.24 0.06,-0.29 Z M 15.75,7 l -0.06,-0.29 -0.16,-0.24 -0.24,-0.16 -0.29,-0.06 -0.29,0.06 -0.24,0.16 -0.16,0.24 -0.06,0.29 0,2 0.06,0.29 0.16,0.24 0.24,0.16 0.29,0.06 0.29,-0.06 0.24,-0.16 0.16,-0.24 0.06,-0.29 0,-2 Z M 20.75,9 l 0,-2 -0.06,-0.29 -0.16,-0.24 -0.24,-0.16 -0.29,-0.06 -0.29,0.06 -0.24,0.16 -0.16,0.24 -0.06,0.29 0,2 0.06,0.29 0.16,0.24 0.24,0.16 0.29,0.06 0.29,-0.06 0.24,-0.16 0.16,-0.24 0.06,-0.29 Z M 11.49,15.75 l 1.51,0 0.29,-0.06 0.24,-0.16 0.16,-0.24 0.06,-0.29 -0.06,-0.29 -0.16,-0.24 -0.24,-0.16 -0.29,-0.06 -1.51,0 0,1.5 Z M 6.5,7.5 l 3,0 0,1 -3,0 0,-1 Z" fill-rule="evenodd" fill="#000000" />
</svg>