<svg xmlns="http://www.w3.org/2000/svg" viewBox="0 0 24 24">
  <path id="addItemPolygon" d="M 18,8 l -0.1,1.01 -0.29,0.94 -0.46,0.85 -0.61,0.74 -0.74,0.61 -0.85,0.46 -0.94,0.29 -1.01,0.1 -1.01,-0.1 -0.94,-0.29 -0.85,-0.46 -0.74,-0.61 -0.61,-0.74 -0.46,-0.85 -0.29,-0.94 -0.1,-1.01 0.1,-1.01 0.29,-0.94 0.46,-0.85 0.61,-0.74 0.74,-0.61 0.85,-0.46 0.94,-0.29 1.01,-0.1 1.01,0.1 0.94,0.29 0.85,0.46 0.74,0.61 0.61,0.74 0.46,0.85 0.29,0.94 0.1,1.01 Z M 10.5,22 l -0.58,-0.12 -0.48,-0.32 -0.32,-0.48 -0.12,-0.58 0.1,-0.55 -4.27,-4.99 -0.33,0.04 -0.58,-0.12 -0.48,-0.32 -0.32,-0.48 -0.12,-0.58 0.12,-0.58 0.32,-0.48 0.48,-0.32 0.58,-0.12 0.52,0.09 0.44,0.26 0.33,0.38 0.18,0.48 11.31,2.42 0.52,-0.46 0.7,-0.17 0.58,0.12 0.48,0.32 0.32,0.48 0.12,0.58 -0.12,0.58 -0.32,0.48 -0.48,0.32 -0.58,0.12 -0.48,-0.08 -0.42,-0.22 -5.6,2.8 -0.12,0.58 -0.32,0.48 -0.48,0.32 -0.58,0.12 Z M 7.23,5 l -0.54,1.43 -0.14,0.77 -0.05,0.8 0.05,0.8 0.14,0.77 0.54,1.43 -4.23,0 -0.39,-0.08 -0.32,-0.21 -0.21,-0.32 -0.08,-0.39 0,-4 0.08,-0.39 0.21,-0.32 0.32,-0.21 0.39,-0.08 4.23,0 Z M 12,7 l -2.5,0 0,2 2.5,0 0,2.5 2,0 0,-2.5 2.5,0 0,-2 -2.5,0 0,-2.5 -2,0 0,2.5 Z" fill-rule="evenodd" fill="#000000" />
</svg>