<svg xmlns="http://www.w3.org/2000/svg" viewBox="0 0 24 24">
  <path id="addPolygonVertex" d="M 12,13 l -1.01,-0.1 -0.94,-0.29 -0.85,-0.46 -0.74,-0.61 -0.61,-0.74 -0.46,-0.85 -0.29,-0.94 -0.1,-1.01 0.1,-1.01 0.29,-0.94 0.46,-0.85 0.61,-0.74 0.74,-0.61 0.85,-0.46 0.94,-0.29 1.01,-0.1 1.01,0.1 0.94,0.29 0.85,0.46 0.74,0.61 0.61,0.74 0.46,0.85 0.29,0.94 0.1,1.01 -0.16,1.25 -0.45,1.14 2.67,2.67 0.44,-0.06 0.58,0.12 0.48,0.32 0.32,0.48 0.12,0.58 -0.12,0.58 -0.32,0.48 -0.48,0.32 -0.58,0.12 -0.38,-0.05 -0.34,-0.14 -6.79,4.53 0.01,0.16 -0.12,0.58 -0.32,0.48 -0.48,0.32 -0.58,0.12 -0.58,-0.12 -0.48,-0.32 -0.32,-0.48 -0.12,-0.58 0.1,-0.55 -4.27,-4.99 -0.33,0.04 -0.58,-0.12 -0.48,-0.32 -0.32,-0.48 -0.12,-0.58 0.12,-0.58 0.32,-0.48 0.48,-0.32 0.58,-0.12 0.58,0.12 0.48,0.32 0.32,0.48 0.12,0.58 -0.02,0.22 4.52,3.28 7.51,-2.65 0.01,-0.09 -3.02,-2.26 -0.66,0.42 -0.73,0.32 -0.78,0.19 -0.83,0.07 Z M 11,4.5 l 0,2.5 -2.5,0 0,2 2.5,0 0,2.5 2,0 0,-2.5 2.5,0 0,-2 -2.5,0 0,-2.5 -2,0 Z" fill-rule="evenodd" fill="#000000" />
</svg>