<svg xmlns="http://www.w3.org/2000/svg" viewBox="0 0 48 48">
  <path id="AIL" d="M 10,10 l 0.08,-0.39 0.21,-0.32 0.32,-0.21 0.39,-0.08 1,0 0.39,0.08 0.32,0.21 0.21,0.32 0.08,0.39 0,3 2,0 0,-3 0.08,-0.39 0.21,-0.32 0.32,-0.21 0.39,-0.08 1,0 0.39,0.08 0.32,0.21 0.21,0.32 0.08,0.39 0,3 2,0 0,-3 0.08,-0.39 0.21,-0.32 0.32,-0.21 0.39,-0.08 1,0 0.39,0.08 0.32,0.21 0.21,0.32 0.08,0.39 0,3 2,0 0,-3 0.08,-0.39 0.21,-0.32 0.32,-0.21 0.39,-0.08 1,0 0.39,0.08 0.32,0.21 0.21,0.32 0.08,0.39 0,3 2,0 0,-3 0.08,-0.39 0.21,-0.32 0.32,-0.21 0.39,-0.08 1,0 0.39,0.08 0.32,0.21 0.21,0.32 0.08,0.39 0,3 2,0 0,-3 0.08,-0.39 0.21,-0.32 0.32,-0.21 0.39,-0.08 1,0 0.39,0.08 0.32,0.21 0.21,0.32 0.08,0.39 0,3 3,0 0.39,0.08 0.32,0.21 0.21,0.32 0.08,0.39 0,20 -0.08,0.39 -0.21,0.32 -0.32,0.21 -0.39,0.08 -34,0 -0.39,-0.08 -0.32,-0.21 -0.21,-0.32 -0.08,-0.39 0,-20 0.08,-0.39 0.21,-0.32 0.32,-0.21 0.39,-0.08 3,0 0,-3 Z M 18.87,17.07 l -5.55,13.93 3.44,0 1.02,-2.65 5.19,0 1.04,2.65 3.44,0 -5.57,-13.93 -3.01,0 Z M 28.95,17.07 l 0,13.93 3.14,0 0,-13.93 -3.14,0 Z M 18,36 l 0,2 -0.08,0.39 -0.21,0.32 -0.32,0.21 -0.39,0.08 -1,0 -0.39,-0.08 -0.32,-0.21 -0.21,-0.32 -0.08,-0.39 0,-2 3,0 Z M 10,36 l 3,0 0,2 -0.08,0.39 -0.21,0.32 -0.32,0.21 -0.39,0.08 -1,0 -0.39,-0.08 -0.32,-0.21 -0.21,-0.32 -0.08,-0.39 0,-2 Z M 20,36 l 3,0 0,2 -0.08,0.39 -0.21,0.32 -0.32,0.21 -0.39,0.08 -1,0 -0.39,-0.08 -0.32,-0.21 -0.21,-0.32 -0.08,-0.39 0,-2 Z M 38,36 l 0,2 -0.08,0.39 -0.21,0.32 -0.32,0.21 -0.39,0.08 -1,0 -0.39,-0.08 -0.32,-0.21 -0.21,-0.32 -0.08,-0.39 0,-2 3,0 Z M 28,36 l 0,2 -0.08,0.39 -0.21,0.32 -0.32,0.21 -0.39,0.08 -1,0 -0.39,-0.08 -0.32,-0.21 -0.21,-0.32 -0.08,-0.39 0,-2 3,0 Z M 30,36 l 3,0 0,2 -0.08,0.39 -0.21,0.32 -0.32,0.21 -0.39,0.08 -1,0 -0.39,-0.08 -0.32,-0.21 -0.21,-0.32 -0.08,-0.39 0,-2 Z M 20.76,22.66 l 1.14,2.79 -3.07,0 1.14,-2.79 0.13,-0.31 0.14,-0.36 0.12,-0.34 0.12,0.34 0.14,0.36 0.14,0.31 Z" fill-rule="evenodd" fill="#000000" />
</svg>