<svg xmlns="http://www.w3.org/2000/svg" viewBox="0 0 24 24">
  <path id="AIRace" d="M 5,8 l 2,0 6.23,6.23 0,3.77 1.17,0 0,-2.6 2.6,2.6 0,2 -12,0 0,-1 -2,0 0,-2 2,0 0,-2 -2,0 0,-2 2,0 0,-2 -2,0 0,-2 2,0 0,-1 Z M 13.5,2 l 1.5,1.5 1.5,-1.5 1.5,1.5 -1.5,1.5 1.5,1.5 1.5,-1.5 1.5,1.5 -1.5,1.5 -1.5,-1.5 -0.75,0.75 1.5,1.5 -0.25,0.25 -0.23,0.16 -0.27,0.05 -0.27,-0.05 -0.23,-0.16 -1.5,1.5 -1.5,-1.5 -1.29,1.29 7,7 -1.42,1.42 -11.5,-11.5 2.71,-2.71 1.5,1.5 1.5,-1.5 -1.5,-1.5 0.03,-0.05 0.23,-0.28 0.33,-0.13 0.35,0.02 0.31,0.19 0.75,-0.75 Z M 9.25,12.82 l -2.07,5.18 1.28,0 0.38,-0.98 1.93,0 0.39,0.98 1.28,0 -2.07,-5.18 -1.12,0 Z M 13,7.5 l 1.5,1.5 1.5,-1.5 -1.5,-1.5 -1.5,1.5 Z M 13,7.5 l -1.5,-1.5 -1.29,1.29 1.5,1.5 1.29,-1.29 Z M 15,3.5 l -0.75,0.75 1.5,1.5 0.75,-0.75 -1.5,-1.5 Z M 9.95,14.9 l 0.42,1.03 -1.14,0 0.43,-1.03 0.04,-0.12 0.06,-0.13 0.04,-0.13 0.05,0.13 0.05,0.13 0.05,0.12 Z" fill-rule="evenodd" fill="#000000" />
</svg>