<svg xmlns="http://www.w3.org/2000/svg" viewBox="0 0 24 24">
  <path id="airPuffRight1" d="M 18.5,16.5 l -0.05,0.07 0.05,0.6 -0.07,0.67 -0.19,0.62 -0.31,0.57 -0.41,0.49 -0.49,0.41 -0.57,0.31 -0.62,0.19 -0.67,0.07 -0.57,-0.05 -0.54,-0.14 -0.95,-0.52 -0.73,-0.79 -0.44,-1 0.01,-0.15 0.1,-0.12 0.39,-0.35 0.3,-0.43 0.19,-0.5 0.07,-0.53 0,-0.67 0.08,-0.49 0.13,-0.38 0.25,-1.15 -0.01,-1.17 -0.25,-1.14 -0.49,-1.07 -0.02,-0.03 -0.28,-0.68 -0.19,-0.77 -0.23,-0.52 -0.38,-0.42 -0.1,-0.22 0.13,-0.76 0.26,-0.7 0.38,-0.63 0.49,-0.54 0.58,-0.45 0.66,-0.34 0.72,-0.22 0.77,-0.07 0.81,0.08 0.75,0.23 0.68,0.37 0.59,0.49 0.49,0.59 0.37,0.68 0.23,0.75 0.08,0.81 -0.09,0.83 0.04,0.2 0.16,0.13 0.6,0.22 0.55,0.32 0.5,0.4 0.42,0.47 0.35,0.54 0.25,0.59 0.16,0.63 0.06,0.67 -0.08,0.81 -0.23,0.75 -0.37,0.68 -0.49,0.59 -0.59,0.49 -0.68,0.37 -0.75,0.23 -0.81,0.08 Z M 10.23,10.64 l -7.12,1.25 -0.23,-0.01 -0.19,-0.1 -0.14,-0.17 -0.05,-0.23 0.1,-0.31 0.26,-0.18 6.83,-2.14 0.35,-0.04 0.34,0.08 0.29,0.19 0.21,0.28 0.02,0.04 0.1,0.42 -0.06,0.32 -0.16,0.28 -0.24,0.2 -0.31,0.12 Z M 10.25,16.69 l -4.95,-2.06 -0.22,-0.19 -0.08,-0.27 0.06,-0.23 0.14,-0.17 0.21,-0.09 0.23,0.02 5.12,1.57 0.27,0.15 0.18,0.23 0.08,0.28 -0.03,0.3 -0.16,0.27 -0.25,0.18 -0.29,0.07 -0.31,-0.06 Z M 7.96,13.1 l -0.33,-0.2 -0.13,-0.37 0.15,-0.4 0.37,-0.19 2.87,-0.32 0.42,0.05 0.36,0.2 0.24,0.33 0.09,0.42 0,0.38 -0.08,0.35 -0.22,0.28 -0.31,0.15 -0.37,0 -3.06,-0.68 Z" fill-rule="evenodd" fill="#000000" />
</svg>