<svg xmlns="http://www.w3.org/2000/svg" viewBox="0 0 24 24">
  <path id="airPuffUp1" d="M 8,6 l 0.08,-0.81 0.23,-0.75 0.37,-0.68 0.49,-0.59 0.59,-0.49 0.68,-0.37 0.75,-0.23 0.81,-0.08 0.67,0.06 0.63,0.16 0.59,0.25 0.54,0.35 0.47,0.42 0.4,0.5 0.32,0.55 0.22,0.6 0.13,0.16 0.2,0.04 0.83,-0.09 0.81,0.08 0.75,0.23 0.68,0.37 0.59,0.49 0.49,0.59 0.37,0.68 0.23,0.75 0.08,0.81 -0.05,0.64 -0.15,0.6 -0.55,1.09 -0.84,0.86 -1.07,0.58 -0.14,0 -0.11,-0.08 -0.03,-0.13 0.07,-0.14 0.46,-0.54 0.39,-0.54 0.29,-0.59 0.17,-0.64 0.06,-0.66 -0.06,-0.56 -0.16,-0.52 -0.26,-0.48 -0.34,-0.41 -0.41,-0.34 -0.47,-0.25 -0.52,-0.17 -0.56,-0.05 -0.23,0 -0.95,0.15 -1.2,0.4 -0.23,-0.03 -0.11,-0.21 0,-0.31 -0.16,-0.78 -0.43,-0.64 -0.63,-0.43 -0.78,-0.15 -0.78,0.15 -0.63,0.43 -0.43,0.64 -0.16,0.78 0,1.59 -0.12,0.21 -0.24,0.02 -0.35,-0.18 -0.64,-0.23 -0.68,-0.08 -0.77,0.15 -0.62,0.43 -0.43,0.62 -0.15,0.77 0,0.15 0.17,1.16 0.5,1.06 0,0.17 -0.15,0.06 -1,-0.44 -0.8,-0.73 -0.53,-0.95 -0.14,-0.54 -0.05,-0.58 0.07,-0.67 0.19,-0.62 0.31,-0.57 0.41,-0.49 0.49,-0.41 0.57,-0.31 0.62,-0.19 0.67,-0.07 0.6,0.05 0.07,-0.05 Z M 14.36,11.33 l 0.12,-0.33 0.22,-0.27 0.29,-0.17 0.35,-0.06 0.42,0 0.45,0.11 0.02,0.01 0.29,0.21 0.19,0.29 0.08,0.34 -0.05,0.36 -3.12,9.82 -0.19,0.26 -0.31,0.1 -0.23,-0.05 -0.17,-0.14 -0.1,-0.19 -0.01,-0.23 1.75,-10.06 Z M 11.43,15.53 l -0.83,-5.4 0.07,-0.55 0.36,-0.43 0.79,-0.53 0.4,-0.12 0.3,0.06 0.23,0.17 0.16,0.25 0.04,0.3 -0.42,6.2 -0.17,0.37 -0.38,0.15 -0.36,-0.13 -0.19,-0.34 Z M 8.33,14.25 l -0.06,-0.31 0.06,-0.29 0.18,-0.25 0.26,-0.16 0.3,-0.03 0.28,0.08 0.23,0.18 0.14,0.26 1.09,3.62 0.01,0.24 -0.09,0.21 -0.17,0.14 -0.23,0.06 -0.28,-0.08 -0.18,-0.22 -1.54,-3.45 Z" fill-rule="evenodd" fill="#000000" />
</svg>