<svg xmlns="http://www.w3.org/2000/svg" viewBox="0 0 24 24">
  <path id="aperture" d="M 9.8,3.27 l 2.75,4.77 -8.64,0 0.48,-0.85 0.57,-0.79 0.64,-0.73 0.72,-0.65 0.78,-0.57 0.85,-0.49 0.9,-0.39 0.95,-0.3 Z M 14.2,20.73 l -2.75,-4.77 8.64,0 -0.48,0.85 -0.57,0.79 -0.64,0.73 -0.72,0.65 -0.78,0.57 -0.85,0.49 -0.9,0.39 -0.95,0.3 Z M 3.34,9.54 l 5.51,0 -4.32,7.48 -0.65,-1.13 -0.48,-1.22 -0.3,-1.3 -0.1,-1.37 0.09,-1.26 0.25,-1.2 Z M 20.66,14.46 l -5.51,0 4.32,-7.48 0.65,1.13 0.48,1.22 0.3,1.3 0.1,1.37 -0.09,1.26 -0.25,1.2 Z M 18.46,5.73 l -2.76,4.77 -4.31,-7.48 0.61,-0.02 1.85,0.19 1.72,0.54 1.55,0.86 1.34,1.14 Z M 5.54,18.27 l 2.76,-4.77 4.31,7.48 -0.61,0.02 -1.85,-0.19 -1.72,-0.54 -1.54,-0.86 -1.35,-1.14 Z M 10.61,9.79 l 2.78,0 1.38,2.41 -1.38,2.4 -2.78,0 -1.38,-2.4 1.38,-2.41 Z" fill-rule="evenodd" fill="#000000" />
</svg>