<svg xmlns="http://www.w3.org/2000/svg" viewBox="0 0 16 16">
  <path id="arrowsUp" d="M 3,6.48 l 0.1,-0.43 0.28,-0.35 4,-3.2 0.29,-0.16 0.33,-0.06 0.33,0.06 0.29,0.16 4,3.2 0.28,0.35 0.1,0.43 0,1.75 -0.14,0.52 -0.37,0.35 -0.49,0.14 -0.51,-0.15 -2.98,-1.78 -0.51,-0.14 -0.51,0.14 -2.98,1.78 -0.51,0.15 -0.49,-0.14 -0.37,-0.35 -0.14,-0.52 0,-1.75 Z M 4,11.55 l 0.13,-0.47 0.36,-0.33 3.06,-1.53 0.45,-0.1 0.45,0.1 3.06,1.53 0.36,0.33 0.13,0.47 -0.12,0.45 -0.3,0.31 -0.42,0.14 -0.45,-0.1 -2.26,-1.13 -0.45,-0.1 -0.45,0.1 -2.26,1.13 -0.45,0.1 -0.42,-0.14 -0.3,-0.31 -0.12,-0.45 Z" fill-rule="evenodd" fill="#000000" />
</svg>