<svg xmlns="http://www.w3.org/2000/svg" viewBox="0 0 24 24">
  <path id="arrowsReplace" d="M 6,17 l 4,-4 2,0 -1.25,2.5 5.54,0 0.55,-0.05 0.5,-0.16 0.47,-0.25 0.4,-0.33 0.33,-0.4 0.25,-0.47 0.15,-0.5 0.06,-0.55 0,-1.38 -0.15,-0.73 -0.41,-0.62 2.12,-2.12 0.61,0.75 0.46,0.84 0.27,0.92 0.1,0.96 0,1.38 -0.12,1.15 -0.33,1.07 -0.53,0.97 -0.69,0.85 -0.85,0.69 -0.97,0.53 -1.07,0.33 -1.15,0.12 -5.54,0 1.25,2.5 -2,0 -4,-4 Z M 18,7 l -4,4 -2,0 1.25,-2.5 -5.54,0 -0.55,0.06 -0.5,0.15 -0.47,0.25 -0.4,0.33 -0.33,0.4 -0.25,0.47 -0.15,0.5 -0.06,0.55 0,1.38 0.15,0.73 0.41,0.62 -2.12,2.12 -0.61,-0.75 -0.46,-0.84 -0.27,-0.92 -0.1,-0.96 0,-1.38 0.12,-1.15 0.33,-1.07 0.53,-0.97 0.69,-0.85 0.85,-0.69 0.97,-0.53 1.07,-0.33 1.15,-0.12 5.54,0 -1.25,-2.5 2,0 4,4 Z" fill-rule="evenodd" fill="#000000" />
</svg>