<svg xmlns="http://www.w3.org/2000/svg" viewBox="0 0 24 24">
  <path id="arrowsShuffle" d="M 18,3 l 4,4 -4,4 -2,0 1.25,-2.5 -1.64,0 -0.71,0.18 -0.54,0.49 -4.22,6.33 -0.73,0.84 -0.89,0.63 -1.02,0.39 -1.11,0.14 -3.39,0 0,-3 3.39,0 0.71,-0.18 0.54,-0.49 4.22,-6.33 0.73,-0.84 0.89,-0.63 1.02,-0.39 1.11,-0.14 1.64,0 -1.25,-2.5 2,0 Z M 18,13 l 4,4 -4,4 -2,0 1.25,-2.5 -1.6,0 -1.13,-0.14 -1.04,-0.42 -0.91,-0.66 -0.72,-0.88 -0.12,-0.19 1.77,-2.81 0.89,1.4 0.24,0.29 0.3,0.22 0.72,0.19 1.6,0 -1.25,-2.5 2,0 Z M 6.35,6 l 1.04,0.12 0.97,0.36 0.87,0.56 0.72,0.76 -1.77,2.8 -0.57,-0.9 -0.24,-0.29 -0.3,-0.22 -0.72,-0.19 -3.35,0 0,-3 3.35,0 Z" fill-rule="evenodd" fill="#000000" />
</svg>