<svg xmlns="http://www.w3.org/2000/svg" viewBox="0 0 24 24">
  <path id="autobahn" d="M 5.27,19.78 l 1.95,-8.78 9.56,0 1.95,8.78 0,0.46 -0.2,0.39 -0.33,0.27 -0.45,0.1 -4.78,0 -0.05,-3 -1.84,0 -0.05,3 -4.78,0 -0.45,-0.1 -0.33,-0.27 -0.2,-0.39 0,-0.46 Z M 5,7 l 14,0 0,3 -14,0 0,-3 Z M 4,8 l 0,5 1,0 0,4 -3,0 0,-9 2,0 Z M 19,13 l 1,0 0,-5 2,0 0,9 -3,0 0,-4 Z M 9.8,3 l 1.5,0 -0.03,2 1.46,0 -0.03,-2 1.5,0 0.33,0.06 0.29,0.16 0.22,0.25 0.13,0.31 0.5,2.22 -7.34,0 0.5,-2.22 0.13,-0.31 0.22,-0.25 0.29,-0.16 0.33,-0.06 Z M 11.15,13 l -0.04,3 1.78,0 -0.04,-3 -1.7,0 Z" fill-rule="evenodd" fill="#000000" />
</svg>