<svg xmlns="http://www.w3.org/2000/svg" viewBox="0 0 48 48">
  <path id="automaticTransmissionL" d="M 15.12,6 l 5.63,0 0,3.6 -5.63,0 -0.97,0.1 -0.9,0.3 -0.8,0.47 -0.68,0.62 -0.54,0.74 -0.39,0.84 -0.2,0.92 0,0.97 1.4,13.5 0.29,1.2 0.58,1.04 0.83,0.84 1.03,0.61 -0.25,-1.78 -0.06,-1.72 0.29,-1.64 0.6,-1.5 0.88,-1.33 1.12,-1.11 1.33,-0.84 1.49,-0.54 1.64,-0.19 2.94,0 0,-13.16 0.15,-0.76 0.39,-0.61 0.59,-0.42 0.71,-0.15 3.32,0 0.28,0.06 0.24,0.17 0.16,0.24 0.05,0.3 0,0.39 -0.14,0.75 -0.4,0.62 -0.58,0.41 -0.72,0.16 -1.1,0 0,4.64 1.47,0 0.57,0.12 0.47,0.34 0.32,0.49 0.11,0.6 -0.11,0.6 -0.32,0.5 -0.47,0.33 -0.57,0.12 -1.47,0 0,4.27 1.43,0.26 1.32,0.52 1.19,0.77 1.01,0.98 0,-2.13 1.05,0 1.86,2.74 0.1,0.18 0.11,0.22 -0.02,-0.22 0,-0.19 0,-2.73 1.15,0 0,5.39 -1.01,0 -1.9,-2.75 -0.11,-0.19 -0.11,-0.23 0.02,0.22 0.01,0.2 0,1.24 0.41,1.06 0.26,1.13 0.09,1.18 -0.08,1.21 -0.76,5.42 -0.32,1.38 -0.53,1.26 -0.73,1.12 -0.89,0.97 -1.05,0.79 -1.16,0.59 -1.27,0.37 -1.34,0.13 -3.86,0 -1.32,-0.12 -1.24,-0.36 -1.15,-0.57 -1.03,-0.76 -0.89,-0.94 -0.73,-1.09 -0.55,-1.22 -0.34,-1.33 -1.32,-0.31 -1.23,-0.51 -1.11,-0.71 -0.99,-0.86 -0.83,-1.02 -0.67,-1.15 -0.47,-1.26 -0.26,-1.36 -1.4,-13.5 0.01,-1.75 0.37,-1.66 0.69,-1.51 0.98,-1.33 1.23,-1.11 1.44,-0.85 1.61,-0.53 1.75,-0.19 Z M 20.68,25.18 l 0,11.79 4.2,0 1.42,-0.13 1.18,-0.4 0.96,-0.63 0.75,-0.79 0.56,-0.91 0.38,-1 0.22,-1.02 0.07,-1.01 -0.07,-1.09 -0.23,-1.07 -0.4,-1 -0.56,-0.89 -0.76,-0.76 -0.94,-0.59 -1.15,-0.37 -1.37,-0.13 -4.26,0 Z M 25.12,34.43 l -1.91,0 0,-6.72 2.09,0 0.6,0.07 0.52,0.22 0.43,0.35 0.34,0.44 0.45,1.08 0.15,1.21 -0.15,1.17 -0.46,1.08 -0.36,0.45 -0.47,0.35 -0.56,0.22 -0.67,0.08 Z M 32.65,13.77 l 2.55,0 0.58,0.06 0.46,0.18 0.33,0.28 0.22,0.36 0.17,0.87 -0.11,0.62 -0.31,0.57 -0.49,0.39 0.95,2.06 -1.3,0 -0.91,-1.86 -0.98,0 0,1.86 -1.16,0 0,-5.39 Z M 32.65,11.42 l 0,-5.39 2.3,0 0.6,0.06 0.46,0.19 0.34,0.3 0.23,0.36 0.17,0.83 -0.1,0.61 -0.32,0.56 -0.55,0.41 -0.38,0.12 -0.45,0.04 -1.14,0 0,1.91 -1.16,0 Z M 35.21,16.15 l 0.32,-0.09 0.17,-0.23 0.05,-0.31 -0.04,-0.29 -0.17,-0.23 -0.33,-0.08 -1.4,0 0,1.23 1.4,0 Z M 33.81,8.36 l 1.19,0 0.32,-0.09 0.17,-0.22 0.06,-0.28 -0.05,-0.27 -0.17,-0.23 -0.33,-0.1 -1.19,0 0,1.19 Z" fill-rule="evenodd" fill="#000000" />
</svg>