<svg xmlns="http://www.w3.org/2000/svg" viewBox="0 0 24 24">
  <path id="auxUpDown" d="M 8.88,15 l -1.56,0 -0.47,-1.2 -2.35,0 -0.45,1.2 -1.56,0 2.51,-6.3 1.36,0 2.52,6.3 Z M 10.7,12.57 l 0.07,0.55 0.23,0.36 0.39,0.19 0.55,0.06 0.68,-0.1 0.41,-0.36 0.11,-0.3 0.03,-0.4 0,-3.87 1.43,0 0,3.87 -0.06,0.65 -0.17,0.54 -0.27,0.44 -0.35,0.35 -0.86,0.43 -0.95,0.13 -0.75,-0.08 -0.66,-0.22 -0.53,-0.37 -0.39,-0.5 -0.25,-0.62 -0.08,-0.75 0,-3.87 1.42,0 0,3.87 Z M 18.38,10.47 l 1.16,-1.77 1.69,0 -2.01,3.06 2.12,3.24 -1.67,0 -1.29,-1.94 -1.28,1.94 -1.68,0 2.13,-3.24 -2.01,-3.06 1.67,0 1.17,1.77 Z M 13,19.3 l 1.5,-0.3 0,0.5 -2.5,2.5 -2.5,-2.5 0,-0.5 1.5,0.3 0,-2.3 2,0 0,2.3 Z M 14.5,4.5 l 0,0.5 -1.5,-0.3 0,2.3 -2,0 0,-2.3 -1.5,0.3 0,-0.5 2.5,-2.5 2.5,2.5 Z M 5.62,10.93 l -0.07,0.16 -0.05,0.14 -0.52,1.26 1.39,0 -0.51,-1.26 -0.07,-0.14 -0.06,-0.16 -0.06,-0.16 -0.05,0.16 Z" fill-rule="evenodd" fill="#000000" />
</svg>