<svg xmlns="http://www.w3.org/2000/svg" viewBox="0 0 24 24">
  <path id="axleLift" d="M 9.77,21.71 l -1.57,-0.16 -1.46,-0.45 -1.31,-0.72 -1.15,-0.95 -0.95,-1.15 -0.72,-1.32 -0.45,-1.46 -0.16,-1.56 0.16,-1.57 0.45,-1.46 0.72,-1.32 0.95,-1.15 1.15,-0.94 1.31,-0.72 1.46,-0.45 1.57,-0.16 1.56,0.16 1.46,0.45 1.32,0.72 1.15,0.94 0.95,1.15 0.72,1.32 0.45,1.46 0.16,1.57 -0.16,1.56 -0.45,1.46 -0.72,1.32 -0.95,1.15 -1.15,0.95 -1.32,0.72 -1.46,0.45 -1.56,0.16 Z M 9.77,19.79 l 1.18,-0.12 1.1,-0.34 0.99,-0.54 0.87,-0.71 0.71,-0.87 0.54,-0.99 0.34,-1.1 0.12,-1.18 -0.12,-1.18 -0.34,-1.1 -0.54,-0.99 -0.71,-0.87 -0.87,-0.71 -0.99,-0.54 -1.1,-0.34 -1.18,-0.12 -1.18,0.12 -1.1,0.34 -0.99,0.54 -0.87,0.71 -0.71,0.87 -0.54,0.99 -0.34,1.1 -0.12,1.18 0.12,1.18 0.34,1.1 0.54,0.99 0.71,0.87 0.87,0.71 0.99,0.54 1.1,0.34 1.18,0.12 Z M 9.77,8.95 l 1,0.11 0.94,0.29 0.84,0.46 0.74,0.6 0.61,0.74 0.46,0.85 0.29,0.93 0.1,1.01 -0.1,1 -0.29,0.94 -0.46,0.84 -0.61,0.74 -0.74,0.61 -0.84,0.46 -0.94,0.29 -1,0.1 -1.01,-0.1 -0.93,-0.29 -0.85,-0.46 -0.74,-0.61 -0.6,-0.74 -0.46,-0.84 -0.29,-0.94 -0.11,-1 0.11,-1.01 0.29,-0.93 0.46,-0.85 0.6,-0.74 0.74,-0.6 0.85,-0.46 0.93,-0.29 1.01,-0.11 Z M 7.47,14.1 l 0.11,0.56 0.23,0.49 -1.05,1.75 0.53,0.45 0.59,0.36 1.34,-1.54 0.55,0.07 0.55,-0.07 1.33,1.54 0.6,-0.36 0.52,-0.45 -1.05,-1.75 0.23,-0.49 0.11,-0.56 1.88,-0.79 -0.16,-0.68 -0.27,-0.64 -1.98,0.47 -0.41,-0.38 -0.49,-0.27 -0.17,-2.03 -0.69,-0.06 -0.69,0.06 -0.18,2.03 -0.49,0.27 -0.4,0.38 -1.99,-0.47 -0.26,0.64 -0.16,0.68 1.87,0.79 Z M 15.58,4.38 l 0.24,0.25 0.08,0.33 0,1.48 -0.05,0.02 -1.36,-0.94 -1.5,-0.67 -1.59,-0.41 -1.63,-0.13 -1.64,0.13 -1.58,0.41 -1.5,0.67 -1.36,0.94 -0.28,0.1 -0.27,-0.11 -0.46,-0.47 -0.14,-0.35 0.16,-0.34 1.42,-1.01 1.55,-0.75 1.64,-0.49 1.7,-0.24 1.71,0.01 1.69,0.27 1.64,0.53 1.53,0.77 Z M 19.8,2.03 l 2.22,2.84 0.02,0.05 0,1.09 -0.05,0.07 -0.08,-0.02 -2.12,-1.77 -0.1,0 -2.13,1.77 -0.08,0.02 -0.04,-0.07 0,-1.09 0.01,-0.05 2.23,-2.84 0.12,0 Z M 17.45,8.24 l -0.01,-0.05 0,-1.09 0.04,-0.07 0.08,0.01 2.13,1.77 0.1,0 2.12,-1.77 0.08,-0.01 0.05,0.07 0,1.09 -0.02,0.05 -2.22,2.84 -0.12,0 -2.23,-2.84 Z M 11.3,13.94 l -0.12,0.6 -0.33,0.48 -0.48,0.33 -0.6,0.12 -0.6,-0.12 -0.49,-0.33 -0.32,-0.48 -0.13,-0.6 0.13,-0.6 0.32,-0.49 0.49,-0.32 0.6,-0.13 0.6,0.13 0.48,0.32 0.33,0.49 0.12,0.6 Z" fill-rule="evenodd" fill="#000000" />
</svg>