<svg xmlns="http://www.w3.org/2000/svg" viewBox="0 0 24 24">
  <path id="axleRear" d="M 22,18 l 0,-8 -0.08,-0.39 -0.21,-0.32 -0.32,-0.21 -0.39,-0.08 -3,0 -0.39,0.08 -0.32,0.21 -0.21,0.32 -0.08,0.39 0,3 -2.27,0 -0.31,-0.41 -0.41,-0.31 -0.48,-0.21 -0.53,-0.07 0,-4 1,0 0,-5 -4,0 0,5 1,0 0,4 -0.53,0.07 -0.48,0.21 -0.41,0.31 -0.31,0.41 -2.27,0 0,-3 -0.08,-0.39 -0.21,-0.32 -0.32,-0.21 -0.39,-0.08 -3,0 -0.39,0.08 -0.32,0.21 -0.21,0.32 -0.08,0.39 0,8 0.08,0.39 0.21,0.32 0.32,0.21 0.39,0.08 3,0 0.39,-0.08 0.32,-0.21 0.21,-0.32 0.08,-0.39 0,-3 2.27,0 0.31,0.41 0.41,0.31 0.48,0.21 0.53,0.07 2,0 0.53,-0.07 0.48,-0.21 0.41,-0.31 0.31,-0.41 2.27,0 0,3 0.08,0.39 0.21,0.32 0.32,0.21 0.39,0.08 3,0 0.39,-0.08 0.32,-0.21 0.21,-0.32 Z" fill-rule="evenodd" fill="#000000" />
</svg>