<svg xmlns="http://www.w3.org/2000/svg" viewBox="0 0 24 24">
  <path id="banknotes" d="M 12.78,7.75 l 2.75,4.76 -0.13,0.08 -0.6,0.52 -0.34,0.72 -0.29,1.14 -0.34,0.72 -0.6,0.53 -5.33,3.07 0.72,1.25 5.35,-3.08 0.58,-0.52 0.35,-0.7 0.3,-1.13 0.35,-0.7 0.58,-0.51 0.15,-0.09 0.73,1.26 0.05,0.41 -0.25,0.34 -0.32,0.28 -0.19,0.38 -0.4,1.49 -0.35,0.7 -0.58,0.52 -5.35,3.08 -0.37,0.13 -0.39,-0.03 -0.34,-0.16 -0.26,-0.3 -4,-6.93 -0.13,-0.38 0.03,-0.38 0.16,-0.34 0.3,-0.27 3.62,-2.08 0.58,-0.52 0.35,-0.7 0.3,-1.13 0.35,-0.7 0.58,-0.51 1.02,-0.59 0.37,-0.13 0.39,0.03 0.34,0.17 0.26,0.3 Z M 18.08,13.93 l -4,-6.93 -0.12,-0.38 0.02,-0.38 0.17,-0.35 0.3,-0.26 3.03,-1.75 0.38,-0.13 0.38,0.03 0.34,0.17 0.27,0.3 4,6.93 0.12,0.37 -0.03,0.38 -0.16,0.35 -0.3,0.26 -3.03,1.75 -0.38,0.13 -0.38,-0.03 -0.35,-0.17 -0.26,-0.29 Z M 8.91,7.38 l -0.37,0.33 -0.21,0.43 -0.3,1.14 -0.2,0.5 -0.28,0.46 -0.37,0.39 -0.44,0.32 -4.47,2.58 -0.12,0.15 0.02,0.19 3.5,6.06 -0.43,0.25 -0.38,0.13 -0.38,-0.03 -0.34,-0.16 -0.26,-0.3 -3,-5.2 -0.23,-0.66 0.05,-0.67 0.29,-0.6 0.53,-0.46 4.47,-2.58 0.37,-0.33 0.22,-0.43 0.3,-1.13 0.19,-0.51 0.28,-0.46 0.37,-0.39 0.44,-0.31 6.21,-3.59 0.38,-0.13 0.38,0.03 0.35,0.17 0.26,0.3 0.25,0.43 -7.08,4.08 Z M 7.72,12.98 l -2.6,1.5 1,1.73 2.6,-1.5 -1,-1.73 Z M 18.38,11.44 l 1,1.74 2.6,-1.5 -1,-1.74 -2.6,1.5 Z" fill-rule="evenodd" fill="#000000" />
</svg>