<svg xmlns="http://www.w3.org/2000/svg" viewBox="0 0 24 24">
  <path id="barrelKnocker02" d="M 19.16,11 l 0,2.02 0,0 -0.38,1.95 0.98,0.19 -0.38,1.96 -0.98,-0.19 -0.38,1.97 0.98,0.19 -0.38,1.96 -9.81,-1.9 0.38,-1.96 0.98,0.19 0.38,-1.97 -0.98,-0.19 0.28,-1.47 1.07,-0.3 0.01,0 0,-0.02 0.4,-0.65 1.74,0.11 -0.18,0.94 -0.98,-0.19 -0.38,1.96 0.98,0.19 -0.38,1.97 1.96,0.38 0.38,-1.97 -0.98,-0.19 0.38,-1.96 0.98,0.19 0.33,-1.66 2.98,-0.06 0,-0.69 -3,-0.53 -0.01,0 -0.1,-0.69 -0.99,0.14 -0.28,-1.98 0.98,-0.14 -0.28,-1.98 3.96,-0.58 0.28,1.98 0.99,-0.14 0.29,1.98 -0.99,0.14 0.15,1 Z M 9.1,4.37 l 9.9,-1.44 0.28,1.98 -9.89,1.44 -0.29,-1.98 Z M 8,14.5 l -3,1.5 1,-3 -3,-1 3,-1 -1,-3 3,2 1,2 -1,2.5 Z M 11.8,9.03 l 0.28,1.95 -0.99,0.15 -1.04,-0.18 -0.23,-1.63 0.99,-0.15 -0.29,-1.98 1.98,-0.28 0.29,1.98 -0.99,0.14 Z" fill-rule="evenodd" fill="#000000" />
</svg>