<svg xmlns="http://www.w3.org/2000/svg" viewBox="0 0 24 24">
  <path id="barrelKnocker01" d="M 17.21,19.83 l 0.97,0.26 -0.52,1.93 -9.66,-2.59 0.52,-1.93 0.96,0.26 0.52,-1.93 -0.96,-0.26 0.51,-1.93 0.97,0.26 0.78,-2.9 -0.97,-0.26 0.52,-1.93 0.96,0.26 0.52,-1.93 1.93,0.51 -0.52,1.93 -0.96,-0.25 -0.52,1.93 0.97,0.26 -0.78,2.89 -0.97,-0.25 -0.51,1.93 0.96,0.26 -0.51,1.93 1.93,0.52 0.51,-1.94 -0.96,-0.26 0.52,-1.93 0.96,0.26 0.78,-2.9 -0.97,-0.25 0.52,-1.94 0.97,0.26 0.51,-1.93 3.87,1.04 -0.52,1.93 0.97,0.26 -0.52,1.93 -0.97,-0.26 -0.77,2.9 0.96,0.26 -0.52,1.93 -0.96,-0.26 -0.52,1.93 Z M 8.23,11.32 l -0.15,0.28 -0.22,0.21 -0.27,0.14 -0.31,0.05 -4.28,0 3,-3 -3,-3 4,0 1,-3 1.73,2.59 0.16,0.43 -0.04,0.44 -1.62,4.86 Z M 12.14,3.98 l 9.66,2.59 -0.52,1.93 -9.66,-2.59 0.52,-1.93 Z" fill-rule="evenodd" fill="#000000" />
</svg>