<svg xmlns="http://www.w3.org/2000/svg" viewBox="0 0 24 24">
  <path id="beamCrashBarrier2" d="M 19,6 l 1,1 0,1 -1,1 0,2 1,1 0,1 -1,1 -4,0 0,4 6,0 0.3,0.1 0.17,0.24 0.01,0.3 -0.18,0.26 -0.32,0.24 -0.24,0.4 0.1,0.46 0.1,0.34 -0.07,0.32 -0.23,0.24 -0.34,0.1 -16.6,0 -0.34,-0.1 -0.23,-0.24 -0.07,-0.32 0.1,-0.34 0.1,-0.46 -0.24,-0.4 -0.32,-0.24 -0.18,-0.26 0.01,-0.3 0.17,-0.24 0.3,-0.1 1,0 0,-2.5 3,0 0,2.5 5,0 0,-4 -10,0 0,-3 3.5,0 -0.39,-0.08 -0.32,-0.21 -0.21,-0.32 -0.08,-0.39 0.08,-0.39 0.21,-0.32 0.32,-0.21 0.39,-0.08 -3.5,0 0,-3 17,0 Z M 13.5,11 l -0.39,-0.08 -0.32,-0.21 -0.21,-0.32 -0.08,-0.39 0.08,-0.39 0.21,-0.32 0.32,-0.21 0.39,-0.08 -8,0 0.39,0.08 0.32,0.21 0.21,0.32 0.08,0.39 -0.08,0.39 -0.21,0.32 -0.32,0.21 -0.39,0.08 8,0 Z M 13.5,11 l 3.5,0 0.5,-1 0,-1 -4,0 0.39,0.08 0.32,0.21 0.21,0.32 0.08,0.39 -0.08,0.39 -0.21,0.32 -0.32,0.21 -0.39,0.08 Z" fill-rule="evenodd" fill="#000000" />
</svg>