<svg xmlns="http://www.w3.org/2000/svg" viewBox="0 0 24 24">
  <path id="beamXPLo" d="M 1,8.39 l 0.05,-0.48 0.14,-0.45 0.51,-0.76 0.76,-0.51 0.45,-0.14 0.48,-0.05 1.64,0 2.19,4.85 -4.83,6.21 3.12,0 2.85,-3.66 1.61,3.65 2.91,0 -0.01,-0.01 -2.99,-5.74 2.62,-3.3 1.5,0 2.13,-2 3.74,0 0.81,0.07 0.67,0.22 0.54,0.34 0.43,0.43 0.32,0.5 0.22,0.55 0.14,1.19 -0.07,0.76 -0.21,0.71 -0.35,0.65 -0.47,0.57 -0.6,0.47 -0.71,0.36 -0.81,0.23 -0.92,0.07 -2.47,0 -0.69,3.94 0,0 -0.31,1.44 -12,0 -0.48,-0.05 -0.45,-0.14 -0.76,-0.51 -0.51,-0.76 -0.14,-0.45 -0.05,-0.48 0,-7.72 Z M 19.27,10.84 l 0.46,-0.05 0.37,-0.16 0.45,-0.52 0.15,-0.58 -0.08,-0.61 -0.29,-0.43 -0.26,-0.13 -0.34,-0.04 -2.47,0 -0.46,2.52 2.47,0 Z M 7.64,6 l 3.33,0 -2.13,2.99 -1.2,-2.99 Z" fill-rule="evenodd" fill="#000000" />
</svg>