<svg xmlns="http://www.w3.org/2000/svg" viewBox="0 0 48 48">
  <path id="beamsNodesOutline" d="M 33.5,13.12 l 6.25,13.89 0.25,-0.01 0.6,0.06 0.57,0.18 0.51,0.27 0.44,0.37 0.37,0.44 0.27,0.51 0.18,0.57 0.06,0.6 -0.06,0.6 -0.18,0.57 -0.27,0.51 -0.37,0.44 -0.44,0.37 -0.51,0.27 -0.57,0.18 -0.6,0.06 -0.94,-0.15 -0.81,-0.41 -0.65,-0.64 -0.43,-0.8 -9.3,0 -0.21,0.62 -0.32,0.58 -0.4,0.51 -0.47,0.44 -0.54,0.36 -0.6,0.26 -0.65,0.17 -0.68,0.06 -0.77,-0.07 -0.71,-0.21 -0.66,-0.34 -0.58,-0.44 -8.36,5.37 0.08,0.69 -0.06,0.6 -0.18,0.57 -0.27,0.51 -0.37,0.44 -0.44,0.37 -0.51,0.27 -0.57,0.18 -0.6,0.06 -0.6,-0.06 -0.57,-0.18 -0.51,-0.27 -0.44,-0.37 -0.37,-0.44 -0.27,-0.51 -0.18,-0.57 -0.06,-0.6 0.13,-0.87 0.36,-0.77 0.55,-0.63 0.71,-0.46 -1.39,-15.32 -0.7,-0.18 -0.63,-0.29 -0.57,-0.39 -0.5,-0.49 -0.4,-0.56 -0.3,-0.63 -0.19,-0.68 -0.07,-0.73 0.08,-0.81 0.23,-0.75 0.37,-0.68 0.49,-0.59 0.59,-0.49 0.68,-0.37 0.75,-0.23 0.81,-0.08 1.04,0.14 0.95,0.39 0.8,0.6 0.62,0.79 15.59,-4.75 0,-0.17 0.08,-0.81 0.23,-0.75 0.37,-0.68 0.49,-0.59 0.59,-0.49 0.68,-0.37 0.75,-0.23 0.81,-0.08 0.81,0.08 0.75,0.23 0.68,0.37 0.59,0.49 0.49,0.59 0.37,0.68 0.23,0.75 0.08,0.81 -0.11,0.92 -0.3,0.84 -0.47,0.74 -0.62,0.62 Z M 24.34,26.01 l 4.44,-12.68 -0.67,-0.56 -0.52,-0.69 -15.59,4.75 0,0.17 -0.09,0.87 -0.27,0.8 9.98,8.11 0.53,-0.33 0.58,-0.24 0.62,-0.16 0.65,-0.05 0.34,0.01 Z M 11.84,36.63 l 8.36,-5.38 -0.15,-0.61 -0.05,-0.64 0.09,-0.87 0.27,-0.8 -9.98,-8.11 -1.03,0.55 1.39,15.32 0.58,0.22 0.52,0.32 Z M 37.17,29 l 0.31,-0.63 0.45,-0.54 -6.25,-13.89 -0.68,0.06 -0.34,-0.01 -4.44,12.68 0.57,0.46 0.47,0.55 0.36,0.63 0.25,0.69 9.3,0 Z" fill-rule="evenodd" fill="#000000" />
</svg>