<svg xmlns="http://www.w3.org/2000/svg" viewBox="0 0 48 48">
  <path id="beamsNodesMessageOutline" d="M 7,8 l 0.08,-0.39 0.21,-0.32 0.32,-0.21 0.39,-0.08 25,0 0.39,0.08 0.32,0.21 0.21,0.32 0.08,0.39 0,17.08 3.11,-0.73 0.28,-0.54 0.44,-0.43 0.54,-0.28 0.63,-0.1 0.78,0.16 0.63,0.43 0.43,0.63 0.16,0.78 -0.16,0.78 -0.43,0.63 -0.63,0.43 -0.78,0.16 -0.04,0 -3.74,6.98 0.32,0.43 0.25,0.49 0.16,0.53 0.05,0.57 -0.06,0.6 -0.18,0.57 -0.27,0.51 -0.37,0.44 -0.44,0.37 -0.51,0.27 -0.57,0.18 -0.6,0.06 -1.04,-0.19 -0.89,-0.51 -0.65,-0.77 -0.37,-0.97 -8.49,-1.31 -0.31,0.31 -0.37,0.24 -0.42,0.15 -0.46,0.05 -0.78,-0.16 -0.63,-0.43 -0.43,-0.63 -0.16,-0.78 0.16,-0.78 0.43,-0.63 0.63,-0.43 0.78,-0.16 0.52,0.07 3.55,-3.55 -0.07,-0.52 0.16,-0.78 0.43,-0.63 0.63,-0.43 0.78,-0.16 0.81,0.17 0.65,0.46 0.65,-0.16 -2.05,-2.07 -18.06,0 -0.39,-0.08 -0.32,-0.21 -0.21,-0.32 -0.08,-0.39 0,-15.4 Z M 9,9 l 0,13.4 17.48,0 0.38,0.08 0.33,0.22 4.81,4.87 0,-18.57 -23,0 Z M 29,14 l -17,0 0,-2 17,0 0,2 Z M 12,19 l 0,-2 14,0 0,2 -7,0 -7,0 Z M 29.76,28.14 l -1.84,0.43 -0.03,0.08 4,4.56 0.54,-0.16 0.57,-0.05 0.45,0.03 3.54,-6.6 -2.99,0.71 0,2.86 -0.17,0.56 -0.45,0.37 -0.58,0.05 -0.51,-0.28 -2.53,-2.56 Z M 30.38,34.53 l -3.99,-4.57 -0.39,0.04 -0.52,-0.07 -3.38,3.38 8.26,1.27 0.01,-0.03 0.01,-0.02 Z" fill-rule="evenodd" fill="#000000" />
</svg>