<svg xmlns="http://www.w3.org/2000/svg" viewBox="0 0 24 24">
  <path id="beamCurrency" d="M 19.99,14.33 l -0.11,-0.73 -0.21,-0.69 -0.31,-0.65 -0.4,-0.6 -0.49,-0.53 -0.57,-0.44 0.42,-0.43 0.35,-0.52 0.28,-0.58 0.19,-0.59 0.1,-0.84 -0.05,-0.83 -0.21,-0.77 -0.35,-0.69 -0.49,-0.59 -0.64,-0.45 -0.76,-0.3 -0.9,-0.1 -1.12,0.01 -1.38,0.02 -2.99,0.05 -1.38,0.03 -1.13,0.03 -0.44,0.01 -0.33,0 -0.21,0.01 -0.08,0 -0.43,2.78 0.08,0 0.24,-0.01 0.38,0 0.49,-0.01 1.25,-0.01 1.46,-0.02 1.51,-0.02 1.4,-0.02 1.13,-0.01 0.41,0 0.28,-0.01 0.69,0.12 0.44,0.28 0.21,0.38 0.01,0.4 -0.15,0.42 -0.25,0.33 -0.39,0.25 -0.56,0.2 -0.75,0.13 -0.78,0.07 -0.62,0.03 -0.19,0 -0.06,0 -0.45,2.22 0.07,0 0.22,0.01 0.72,0.06 0.93,0.17 0.91,0.32 0.7,0.5 0.48,0.64 0.22,0.73 -0.05,0.79 -0.35,0.92 -0.51,0.71 -0.67,0.48 -0.8,0.23 -0.52,0.05 -0.67,0.03 -1.5,0.02 -0.7,0.01 -0.58,0 -0.4,-0.01 -0.15,0 0.24,-1.77 0.31,-2.22 0.52,-3.89 -5.92,0 -0.54,2.22 3.46,0 -0.3,1.67 -3.71,0 -0.54,2.22 3.96,0 -0.69,4.45 7.96,0 0.97,-0.07 0.93,-0.22 0.87,-0.35 0.79,-0.48 0.7,-0.6 0.59,-0.71 0.46,-0.82 0.32,-0.93 0.12,-0.75 Z" fill-rule="evenodd" fill="#000000" />
</svg>