<svg xmlns="http://www.w3.org/2000/svg" viewBox="0 0 24 24">
  <path id="beamNG" d="M 7.03,7.29 l 0.92,0.09 0.87,0.27 0.78,0.42 0.68,0.57 0.56,0.68 0.43,0.78 0.27,0.86 0.09,0.93 -0.09,0.93 -0.27,0.86 -0.43,0.79 -0.56,0.68 -0.68,0.56 -0.78,0.42 -0.87,0.27 -0.92,0.1 -0.93,-0.1 -0.87,-0.27 -0.78,-0.42 -0.68,-0.56 -0.56,-0.68 -0.43,-0.79 -0.27,-0.86 -0.09,-0.93 0.09,-0.93 0.27,-0.86 0.43,-0.78 0.56,-0.68 0.68,-0.57 0.78,-0.42 0.87,-0.27 0.93,-0.09 Z M 18.34,13.85 l 0.72,0.07 0.67,0.21 0.61,0.33 0.53,0.43 0.44,0.53 0.33,0.61 0.2,0.67 0.08,0.72 -0.08,0.72 -0.2,0.68 -0.33,0.6 -0.44,0.53 -0.53,0.44 -0.61,0.33 -0.67,0.21 -0.72,0.07 -0.72,-0.07 -0.67,-0.21 -0.61,-0.33 -0.53,-0.44 -0.44,-0.53 -0.33,-0.6 -0.2,-0.68 -0.08,-0.72 0.08,-0.72 0.2,-0.67 0.33,-0.61 0.44,-0.53 0.53,-0.43 0.61,-0.33 0.67,-0.21 0.72,-0.07 Z M 16.58,3 l 0.5,0.05 0.46,0.14 0.78,0.53 0.53,0.78 0.14,0.47 0.05,0.49 -0.05,0.5 -0.14,0.46 -0.53,0.78 -0.78,0.53 -0.46,0.14 -0.5,0.05 -0.5,-0.05 -0.46,-0.14 -0.78,-0.53 -0.53,-0.78 -0.14,-0.46 -0.05,-0.5 0.05,-0.49 0.14,-0.47 0.53,-0.78 0.78,-0.53 0.46,-0.14 0.5,-0.05 Z M 18.49,7.94 l 0.68,5.31 -0.83,-0.08 -0.73,0.06 -0.69,0.19 -0.61,-4.84 0.28,0.01 1.02,-0.17 0.88,-0.48 Z M 13.48,5.85 l 0.13,0.58 0.23,0.53 0.32,0.47 0.39,0.41 -2.66,1.8 -0.59,-0.97 -0.77,-0.82 2.95,-2 Z M 12.18,13.33 l 2.87,1.4 -0.59,0.95 -0.32,1.1 -3,-1.47 0.62,-0.93 0.42,-1.05 Z" fill-rule="evenodd" fill="#000000" />
</svg>