<svg xmlns="http://www.w3.org/2000/svg" viewBox="0 0 48 48">
  <path id="beamsNodesPlugOutline" d="M 21.32,24.19 l -0.48,-0.87 -0.32,-0.91 -0.16,-0.95 0.01,-0.96 0.16,-0.95 0.33,-0.91 0.49,-0.86 0.65,-0.78 3,-3 1.29,1.29 2,-2 1.42,1.42 -2,2 2.58,2.58 2,-2 1.42,1.42 -2,2 1.29,1.29 -3,3 -0.79,0.66 -0.87,0.49 -0.93,0.33 -0.96,0.16 -0.97,-0.01 -0.96,-0.17 -0.93,-0.34 -0.86,-0.51 -9.97,9.21 0.19,0.63 13.41,2.12 0.48,-0.65 0.62,-0.5 -1.44,-7.22 1.96,-0.4 1.45,7.23 0.6,0.15 0.55,0.27 6.44,-5.15 -0.02,-0.3 0.01,-0.19 -5.59,-4 1.16,-1.62 5.59,3.99 0.83,-0.18 0.78,0.16 0.63,0.43 0.43,0.63 0.16,0.78 -0.16,0.78 -0.43,0.63 -0.63,0.43 -0.78,0.16 -0.73,-0.14 -6.44,5.15 0.17,0.99 -0.06,0.6 -0.18,0.57 -0.27,0.51 -0.37,0.44 -0.44,0.37 -0.51,0.27 -0.57,0.18 -0.6,0.06 -1.05,-0.19 -0.88,-0.51 -0.66,-0.78 -0.36,-0.97 -13.41,-2.12 -0.47,0.64 -0.61,0.5 -0.74,0.32 -0.82,0.11 -0.6,-0.06 -0.57,-0.18 -0.51,-0.27 -0.44,-0.37 -0.37,-0.44 -0.27,-0.51 -0.18,-0.57 -0.06,-0.6 0.16,-0.96 0.44,-0.84 0.66,-0.65 0.85,-0.42 0.82,-21.44 -0.38,-0.31 -0.29,-0.4 -0.19,-0.46 -0.07,-0.52 0.16,-0.78 0.43,-0.63 0.63,-0.43 0.78,-0.16 0.78,0.16 0.63,0.43 0.43,0.63 0.16,0.78 -0.01,0.24 6.61,4.96 -1.2,1.6 -6.47,-4.86 -0.82,21.27 0.29,0.14 9.92,-9.16 Z M 41.71,6.71 l -2.07,2.06 0.5,0.86 0.33,0.92 0.17,0.96 0,0.96 -0.17,0.96 -0.32,0.92 -0.49,0.86 -0.66,0.79 -2,2 -8,-8 2,-2 0.79,-0.66 0.86,-0.49 0.92,-0.32 0.96,-0.17 0.96,0 0.96,0.17 0.92,0.33 0.86,0.5 2.06,-2.07 1.42,1.42 Z M 23.41,18.41 l -0.46,0.58 -0.34,0.63 -0.2,0.68 -0.07,0.7 0.07,0.7 0.2,0.68 0.34,0.63 0.46,0.58 0.58,0.46 0.63,0.34 0.68,0.2 0.7,0.07 0.7,-0.07 0.68,-0.2 0.63,-0.34 0.58,-0.46 1.58,-1.59 -5.17,-5.17 -1.59,1.58 Z" fill-rule="evenodd" fill="#000000" />
</svg>