<svg xmlns="http://www.w3.org/2000/svg" viewBox="0 0 24 24">
  <path id="beamCrashBarrier1" d="M 20,5 l 1.5,1.5 0,1 -1.5,1.5 0,3 1.5,1.5 0,1 -1.5,1.5 -3,0 0,6 -4,0 0,-6 -11,0 1,-1.5 -1,-1.5 16,0 1,-1 0,-3 -17,0 0,-3 16,0 1,-1 1,0 Z M 2,17.5 l 3,0 0,4.5 -3,0 0,-4.5 Z M 15,10 l 0.39,0.08 0.32,0.21 0.21,0.32 0.08,0.39 -0.08,0.39 -0.21,0.32 -0.32,0.21 -0.39,0.08 -0.39,-0.08 -0.32,-0.21 -0.21,-0.32 -0.08,-0.39 0.08,-0.39 0.21,-0.32 0.32,-0.21 0.39,-0.08 Z M 2,11 l 0.08,-0.39 0.21,-0.32 0.32,-0.21 0.39,-0.08 0.39,0.08 0.32,0.21 0.21,0.32 0.08,0.39 -0.08,0.39 -0.21,0.32 -0.32,0.21 -0.39,0.08 -0.39,-0.08 -0.32,-0.21 -0.21,-0.32 -0.08,-0.39 Z" fill-rule="evenodd" fill="#000000" />
</svg>