<svg xmlns="http://www.w3.org/2000/svg" viewBox="0 0 24 24">
  <path id="beamXPFull" d="M 2,11.95 l 0.16,-0.78 0.43,-0.64 0.63,-0.43 0.78,-0.15 3.81,0 1.83,4.06 -4.04,5.19 2.61,0 2.39,-3.06 1.35,3.06 2.44,0 -0.02,-0.01 -2.5,-4.81 2.07,-2.49 1.3,0 1.86,-1.94 3.28,0 0.68,0.06 0.55,0.18 0.46,0.28 0.36,0.37 0.45,0.87 0.12,1 -0.06,0.63 -0.18,0.6 -0.29,0.55 -0.39,0.47 -0.5,0.4 -0.6,0.3 -0.68,0.19 -0.76,0.06 -2.22,0 -0.58,3.29 0,0 -0.16,1.03 -12.58,0 -0.78,-0.16 -0.63,-0.43 -0.43,-0.64 -0.16,-0.77 0,-6.28 Z M 2,8.92 l 0.91,-4.92 2.33,0 0.76,0.14 0.5,0.41 0.14,0.3 0.04,0.35 -0.09,0.48 -0.26,0.4 -0.44,0.29 0.5,0.39 0.18,0.6 -0.14,0.65 -0.41,0.49 -0.64,0.31 -0.84,0.11 -2.54,0 Z M 18.68,9 l -0.71,-2.4 -0.04,-0.19 -0.04,-0.23 -0.02,0.19 -0.04,0.22 -0.43,2.33 -1.11,0 0.91,-4.92 1.15,0 0.61,2.3 0.07,0.29 0.03,0.18 0.08,-0.17 0.12,-0.2 1.61,-2.4 1.13,0 -0.91,4.92 -1.12,0 0.42,-2.32 0.05,-0.22 0.05,-0.2 -0.13,0.24 -0.11,0.19 -1.57,2.39 Z M 10.92,8.92 l 2.85,-4.92 1.12,0 1.03,4.92 -1.15,0 -0.19,-0.96 -1.91,0 -0.55,0.96 -1.2,0 Z M 6.94,8.92 l 0.9,-4.92 3.53,0 -0.19,1.01 -2.38,0 -0.16,0.87 1.33,0 -0.19,1.01 -1.34,0 -0.18,1.01 2.54,0 -0.19,1.02 -3.67,0 Z M 19.73,14 l 0.39,-0.04 0.3,-0.14 0.39,-0.43 0.12,-0.48 -0.07,-0.52 -0.24,-0.36 -0.22,-0.1 -0.29,-0.04 -2.06,0 -0.39,2.11 2.07,0 Z M 10,9.95 l 2.78,0 -1.78,2.5 -1,-2.5 Z M 3.3,7.92 l 1.22,0 0.46,-0.07 0.29,-0.19 0.09,-0.31 -0.07,-0.26 -0.21,-0.16 -0.35,-0.06 -1.24,0 -0.19,1.05 Z M 3.68,5.88 l 1.15,0 0.39,-0.06 0.25,-0.17 0.09,-0.27 -0.06,-0.2 -0.17,-0.14 -0.27,-0.05 -1.22,0 -0.16,0.89 Z M 13.19,6.98 l 1.21,0 -0.24,-1.21 -0.02,-0.12 -0.03,-0.15 -0.01,-0.12 -0.06,0.12 -0.07,0.14 -0.07,0.11 -0.71,1.23 Z" fill-rule="evenodd" fill="#000000" />
</svg>