<svg xmlns="http://www.w3.org/2000/svg" viewBox="0 0 24 24">
  <path id="beamCurrencyThin" d="M 19.78,15.63 l -0.23,0.88 -0.43,0.81 -0.58,0.74 -0.71,0.65 -0.82,0.53 -0.89,0.4 -0.94,0.25 -0.95,0.09 -7.73,0 0.79,-4.97 -4.13,-0.01 0.39,-1.63 3.96,-0.02 0.37,-2.06 -3.69,0 0.37,-1.52 5.72,-0.05 -0.48,3.56 -0.68,4.79 0.1,0.01 0.29,0 0.46,0 0.58,0.01 1.43,-0.02 1.6,-0.06 0.75,-0.09 0.67,-0.21 0.57,-0.3 0.48,-0.38 0.39,-0.44 0.31,-0.5 0.35,-1.09 0.03,-0.55 -0.05,-0.53 -0.34,-0.92 -0.6,-0.74 -0.77,-0.49 -0.78,-0.28 -0.72,-0.15 -0.77,-0.07 -0.9,-0.05 0.3,-1.45 0.07,0 0.18,-0.01 0.64,-0.02 0.84,-0.05 0.88,-0.11 0.78,-0.19 0.63,-0.33 0.45,-0.51 0.21,-0.74 0,-0.41 -0.1,-0.37 -0.42,-0.59 -0.64,-0.37 -0.79,-0.12 -0.28,0 -0.41,0 -1.13,0.01 -1.4,0.02 -1.52,0.02 -1.47,0.02 -1.26,0.01 -0.49,0.01 -0.38,0.01 -0.24,0 -0.09,0 0.29,-1.88 0.07,0 0.2,-0.01 0.32,-0.01 0.42,-0.01 1.09,-0.02 1.31,-0.04 2.87,-0.05 1.32,-0.02 1.08,-0.01 0.87,0.08 0.77,0.21 0.64,0.35 0.53,0.44 0.42,0.54 0.29,0.61 0.18,0.67 0.05,0.7 -0.06,0.67 -0.14,0.58 -0.47,0.91 -0.58,0.6 -0.52,0.33 1.05,0.8 0.43,0.51 0.36,0.58 0.27,0.66 0.17,0.73 0.05,0.79 Z" fill-rule="evenodd" fill="#000000" />
</svg>