<svg xmlns="http://www.w3.org/2000/svg" viewBox="0 0 48 48">
  <path id="beamCurrencyOutlineLarge" d="M 14.45,8.23 l 0.48,-0.01 0.65,-0.02 0.81,-0.02 0.93,-0.02 2.19,-0.05 2.45,-0.05 2.56,-0.05 2.51,-0.04 2.27,-0.03 1,0 0.88,-0.01 0.99,0.06 0.92,0.17 0.86,0.26 0.8,0.37 0.72,0.45 0.65,0.53 0.57,0.61 0.51,0.67 0.75,1.48 0.43,1.63 0.11,1.72 -0.22,1.75 -0.28,0.98 -0.41,0.97 -0.53,0.93 -0.63,0.83 0.98,0.95 0.83,1.08 0.68,1.18 0.51,1.26 0.34,1.33 0.15,1.38 -0.04,1.4 -0.24,1.42 -0.65,1.89 -0.95,1.69 -1.2,1.47 -1.44,1.22 -1.62,0.98 -1.77,0.71 -1.89,0.44 -1.97,0.15 -14.49,0 -0.57,-0.13 -0.44,-0.34 -0.27,-0.49 -0.04,-0.58 1.07,-6.85 -5.86,0 -0.6,-0.14 -0.45,-0.37 -0.26,-0.53 0.01,-0.61 0.81,-3.3 0.18,-0.41 0.29,-0.32 0.38,-0.21 0.45,-0.08 5.9,0 0.24,-1.36 -4.9,0 -0.6,-0.14 -0.45,-0.37 -0.25,-0.53 0,-0.62 0.81,-3.3 0.18,-0.41 0.3,-0.32 0.38,-0.21 0.44,-0.08 10.31,0 0.56,0.13 0.44,0.33 0.27,0.48 0.05,0.58 -0.93,6.83 -0.57,4.19 0,0 -0.32,2.33 0.8,0.01 0.94,0 2.09,-0.02 2.02,-0.06 0.86,-0.05 0.68,-0.06 0.63,-0.13 0.58,-0.23 0.55,-0.32 0.49,-0.41 0.44,-0.52 0.38,-0.61 0.32,-0.72 0.25,-0.82 0.09,-0.57 -0.01,-0.58 -0.12,-0.56 -0.21,-0.53 -0.31,-0.51 -0.41,-0.47 -0.51,-0.42 -0.61,-0.36 -1.12,-0.43 -1.24,-0.28 -1.17,-0.16 -0.94,-0.07 -0.56,-0.15 -0.44,-0.36 -0.25,-0.51 -0.01,-0.59 0.66,-3.31 0.17,-0.42 0.29,-0.34 0.39,-0.23 0.44,-0.08 0.81,-0.03 1.05,-0.06 1.11,-0.12 0.99,-0.19 0.51,-0.16 0.39,-0.16 0.52,-0.33 0.29,-0.37 0.2,-0.57 -0.01,-0.35 -0.19,-0.33 -0.19,-0.16 -0.3,-0.15 -0.42,-0.11 -0.57,-0.04 -0.45,0 -0.65,0.01 -0.81,0 -0.96,0.01 -2.24,0.03 -2.48,0.03 -2.52,0.03 -2.34,0.04 -1.04,0.01 -0.91,0.01 -0.76,0.01 -0.59,0.01 -0.58,-0.12 -0.45,-0.35 -0.26,-0.49 -0.04,-0.58 0.69,-4.36 0.15,-0.43 0.28,-0.36 0.38,-0.24 0.47,-0.09 Z M 14.87,10 l -0.55,3.46 0.7,-0.01 0.84,-0.01 0.96,-0.01 1.04,-0.02 2.29,-0.03 2.39,-0.03 2.31,-0.03 2.06,-0.02 0.88,-0.01 0.75,-0.01 0.6,0 0.42,0 0.86,0.07 0.75,0.19 0.65,0.32 0.52,0.44 0.38,0.53 0.23,0.57 0.08,0.59 -0.05,0.59 -0.36,1.02 -0.29,0.45 -0.38,0.42 -0.96,0.62 -1.2,0.42 -1.02,0.2 -1.1,0.14 -1.04,0.07 -0.87,0.04 -0.5,2.47 1.02,0.1 1.21,0.2 1.27,0.32 1.2,0.48 0.84,0.51 0.72,0.6 0.59,0.68 0.47,0.75 0.33,0.81 0.18,0.86 0.02,0.89 -0.14,0.92 -0.32,1.03 -0.41,0.93 -0.52,0.82 -0.61,0.72 -0.7,0.59 -0.78,0.47 -0.87,0.34 -0.93,0.19 -0.83,0.08 -1.02,0.05 -2.36,0.07 -1.19,0.01 -1.1,0 -0.94,0 -0.7,-0.01 -0.57,-0.13 -0.43,-0.33 -0.27,-0.49 -0.04,-0.56 0.38,-2.84 0,0 0.58,-4.19 0.86,-6.33 -9.45,0 -0.59,2.42 4.87,0 0.57,0.13 0.45,0.35 0.26,0.5 0.03,0.59 -0.4,2.25 -0.17,0.44 -0.29,0.35 -0.4,0.23 -0.46,0.08 -5.93,0 -0.59,2.41 5.82,0 0.57,0.13 0.45,0.34 0.27,0.49 0.03,0.59 -1.07,6.84 13.97,0 1.7,-0.13 1.62,-0.37 1.52,-0.61 1.37,-0.83 1.21,-1.04 1.01,-1.23 0.79,-1.41 0.54,-1.58 0.21,-1.21 0.02,-1.2 -0.15,-1.17 -0.31,-1.13 -0.46,-1.06 -0.6,-0.99 -0.74,-0.89 -0.86,-0.77 -0.39,-0.47 -0.14,-0.55 0.08,-0.57 0.31,-0.49 0.55,-0.68 0.48,-0.79 0.38,-0.84 0.25,-0.85 0.18,-1.43 -0.09,-1.38 -0.34,-1.28 -0.57,-1.13 -0.79,-0.94 -1.02,-0.73 -1.24,-0.48 -0.71,-0.12 -0.77,-0.05 -0.82,0.01 -0.94,0 -2.13,0.03 -2.35,0.04 -2.43,0.04 -2.36,0.05 -2.16,0.05 -0.95,0.02 -0.86,0.02 -0.72,0.01 -0.59,0.02 Z" fill-rule="evenodd" fill="#000000" />
</svg>