<svg xmlns="http://www.w3.org/2000/svg" viewBox="0 0 24 24">
  <path id="bezierPath2" d="M 9,7 l 2,0 0.78,0.16 0.63,0.43 0.43,0.63 0.16,0.78 0,2 -0.16,0.78 -0.43,0.63 -0.63,0.43 -0.78,0.16 -2,0 -0.78,-0.16 -0.63,-0.43 -0.43,-0.63 -0.16,-0.78 0,-2 0.16,-0.78 0.43,-0.63 0.63,-0.43 0.78,-0.16 Z M 14,9 l 0,-0.17 0.81,-0.82 0.53,0.17 0.98,0.41 0.97,0.49 1.83,1.13 0.42,-0.16 0.46,-0.05 0.78,0.16 0.63,0.43 0.43,0.63 0.16,0.78 -0.16,0.78 -0.43,0.63 -0.63,0.43 -0.78,0.16 -0.78,-0.16 -0.63,-0.43 -0.43,-0.63 -0.16,-0.78 0,-0.13 -1.66,-1.03 -1.68,-0.77 -0.66,-0.2 0,-0.87 Z M 8.83,14 l 0.17,0 0.87,0 0.2,0.66 0.78,1.68 1.02,1.66 0.13,0 0.78,0.16 0.63,0.43 0.43,0.63 0.16,0.78 -0.16,0.78 -0.43,0.63 -0.63,0.43 -0.78,0.16 -0.78,-0.16 -0.63,-0.43 -0.43,-0.63 -0.16,-0.78 0.05,-0.46 0.16,-0.42 -1.13,-1.84 -0.49,-0.96 -0.41,-0.98 -0.17,-0.53 0.82,-0.81 Z M 16,2 l 2,2 -2,2 -0.43,-0.43 -1.96,1.95 -0.49,-0.64 -0.64,-0.49 1.95,-1.96 -0.43,-0.43 2,-2 Z M 6.39,12.48 l 0.49,0.64 0.64,0.49 -1.95,1.96 0.43,0.43 -2,2 -2,-2 2,-2 0.43,0.43 1.96,-1.95 Z" fill-rule="evenodd" fill="#000000" />
</svg>