<svg xmlns="http://www.w3.org/2000/svg" viewBox="0 0 24 24">
  <path id="bezierPath1" d="M 11,9 l 2,0 0.78,0.16 0.63,0.43 0.43,0.63 0.16,0.78 0,2 -0.16,0.78 -0.43,0.63 -0.63,0.43 -0.78,0.16 -2,0 -0.78,-0.16 -0.63,-0.43 -0.43,-0.63 -0.16,-0.78 0,-2 0.16,-0.78 0.43,-0.63 0.63,-0.43 0.78,-0.16 Z M 18.3,5.06 l -1.65,0.18 -1.49,0.31 -1.29,0.44 -1.04,0.57 -0.7,0.68 -0.36,0.76 -0.77,0 -0.17,0 -0.89,-0.88 0.3,-0.65 0.39,-0.57 1.04,-0.96 1.36,-0.77 1.6,-0.55 1.76,-0.36 1.85,-0.2 0.31,-0.43 0.41,-0.34 0.49,-0.21 0.55,-0.08 0.78,0.16 0.63,0.43 0.43,0.63 0.16,0.78 -0.16,0.78 -0.43,0.63 -0.63,0.43 -0.78,0.16 -0.52,-0.07 -0.46,-0.19 -0.4,-0.3 -0.32,-0.38 Z M 13,16 l 0.17,0 0.89,0.88 -0.3,0.65 -0.39,0.57 -1.04,0.96 -1.36,0.77 -1.6,0.55 -1.76,0.36 -1.85,0.2 -0.31,0.43 -0.41,0.34 -0.49,0.21 -0.55,0.08 -0.78,-0.16 -0.63,-0.43 -0.43,-0.63 -0.16,-0.78 0.16,-0.78 0.43,-0.63 0.63,-0.43 0.78,-0.16 0.52,0.07 0.46,0.19 0.4,0.3 0.32,0.38 1.65,-0.18 1.49,-0.31 1.29,-0.44 1.04,-0.57 0.7,-0.68 0.36,-0.76 0.77,0 Z M 7.57,6.43 l 1.95,1.96 -0.64,0.49 -0.49,0.64 -1.96,-1.95 -0.43,0.43 -2,-2 2,-2 2,2 -0.43,0.43 Z M 14.48,15.61 l 0.64,-0.49 0.49,-0.64 1.96,1.95 0.43,-0.43 2,2 -2,2 -2,-2 0.43,-0.43 -1.95,-1.96 Z" fill-rule="evenodd" fill="#000000" />
</svg>