<svg xmlns="http://www.w3.org/2000/svg" viewBox="0 0 24 24">
  <path id="bicycle2" d="M 11.35,6.37 l 4.64,4.07 -0.98,1.12 -3.01,-2.06 -1.5,1.5 3.98,1.43 -1.06,3.54 -1.42,-0.47 0.52,-1.93 -2.52,-0.57 2.52,5.5 -1.36,0.63 -1.16,-1.99 -0.01,0.2 -0.03,0.2 -0.03,0.19 -0.04,0.19 -0.05,0.19 -0.05,0.18 -0.07,0.18 -0.07,0.18 -0.09,0.17 -0.09,0.17 -0.09,0.16 -0.11,0.15 -0.11,0.15 -0.12,0.15 -0.13,0.14 -0.13,0.13 -0.14,0.13 -0.14,0.12 -0.15,0.12 -0.15,0.1 -0.16,0.1 -0.17,0.1 -0.17,0.08 -0.17,0.08 -0.18,0.07 -0.18,0.06 -0.19,0.05 -0.19,0.04 -0.19,0.04 -0.2,0.02 -0.2,0.02 -0.2,0 -0.21,-0.01 -0.2,-0.01 -0.2,-0.03 -0.2,-0.03 -0.19,-0.05 -0.19,-0.05 -0.19,-0.06 -0.18,-0.07 -0.17,-0.08 -0.18,-0.09 -0.16,-0.1 -0.17,-0.1 -0.15,-0.11 -0.15,-0.12 -0.15,-0.13 -0.14,-0.13 -0.13,-0.14 -0.13,-0.15 -0.12,-0.15 -0.11,-0.15 -0.1,-0.17 -0.1,-0.16 -0.09,-0.18 -0.08,-0.17 -0.07,-0.18 -0.06,-0.19 -0.05,-0.19 -0.05,-0.19 -0.03,-0.2 -0.03,-0.2 -0.01,-0.2 -0.01,-0.21 0.01,-0.21 0.01,-0.2 0.03,-0.2 0.03,-0.2 0.05,-0.19 0.05,-0.19 0.06,-0.19 0.07,-0.18 0.08,-0.17 0.09,-0.18 0.1,-0.16 0.1,-0.17 0.11,-0.15 0.12,-0.15 0.13,-0.15 0.13,-0.14 0.14,-0.13 0.15,-0.13 0.15,-0.12 0.15,-0.11 0.17,-0.1 0.16,-0.1 0.18,-0.09 0.17,-0.08 0.18,-0.07 0.19,-0.06 0.19,-0.05 0.19,-0.05 0.2,-0.03 0.2,-0.03 0.2,-0.01 0.21,-0.01 0.12,0 0.13,0.01 0.12,0.01 0.12,0.01 0.12,0.02 0.12,0.02 0.12,0.02 0.12,0.03 0.11,0.03 0.11,0.03 0.12,0.04 0.11,0.04 0.11,0.04 0.11,0.05 0.1,0.05 0.11,0.05 -0.85,-1.45 4.35,-5.63 Z M 22,17 l -0.01,0.21 -0.01,0.2 -0.03,0.2 -0.03,0.2 -0.05,0.19 -0.05,0.19 -0.06,0.19 -0.07,0.18 -0.08,0.17 -0.09,0.18 -0.1,0.16 -0.1,0.17 -0.11,0.15 -0.12,0.15 -0.13,0.15 -0.13,0.14 -0.14,0.13 -0.15,0.13 -0.15,0.12 -0.15,0.11 -0.17,0.1 -0.16,0.1 -0.18,0.09 -0.17,0.08 -0.18,0.07 -0.19,0.06 -0.19,0.05 -0.19,0.05 -0.2,0.03 -0.2,0.03 -0.2,0.01 -0.21,0.01 -0.21,-0.01 -0.2,-0.01 -0.2,-0.03 -0.2,-0.03 -0.19,-0.05 -0.19,-0.05 -0.19,-0.06 -0.18,-0.07 -0.17,-0.08 -0.18,-0.09 -0.16,-0.1 -0.17,-0.1 -0.15,-0.11 -0.15,-0.12 -0.15,-0.13 -0.14,-0.13 -0.13,-0.14 -0.13,-0.15 -0.12,-0.15 -0.11,-0.15 -0.1,-0.17 -0.1,-0.16 -0.09,-0.18 -0.08,-0.17 -0.07,-0.18 -0.06,-0.19 -0.05,-0.19 -0.05,-0.19 -0.03,-0.2 -0.03,-0.2 -0.01,-0.2 -0.01,-0.21 0.01,-0.21 0.01,-0.2 0.03,-0.2 0.03,-0.2 0.05,-0.19 0.05,-0.19 0.06,-0.19 0.07,-0.18 0.08,-0.17 0.09,-0.18 0.1,-0.16 0.1,-0.17 0.11,-0.15 0.12,-0.15 0.13,-0.15 0.13,-0.14 0.14,-0.13 0.15,-0.13 0.15,-0.12 0.15,-0.11 0.17,-0.1 0.16,-0.1 0.18,-0.09 0.17,-0.08 0.18,-0.07 0.19,-0.06 0.19,-0.05 0.19,-0.05 0.2,-0.03 0.2,-0.03 0.2,-0.01 0.21,-0.01 0.21,0.01 0.2,0.01 0.2,0.03 0.2,0.03 0.19,0.05 0.19,0.05 0.19,0.06 0.18,0.07 0.17,0.08 0.18,0.09 0.16,0.1 0.17,0.1 0.15,0.11 0.15,0.12 0.15,0.13 0.14,0.13 0.13,0.14 0.13,0.15 0.12,0.15 0.11,0.15 0.1,0.17 0.1,0.16 0.09,0.18 0.08,0.17 0.07,0.18 0.06,0.19 0.05,0.19 0.05,0.19 0.03,0.2 0.03,0.2 0.01,0.2 0.01,0.21 Z M 8.5,17 l 0,-0.13 -0.01,-0.13 -0.02,-0.12 -0.02,-0.12 -0.03,-0.12 -0.03,-0.12 -0.04,-0.12 -0.05,-0.11 -0.05,-0.11 -0.05,-0.11 -0.06,-0.11 -0.07,-0.1 -0.07,-0.1 -0.07,-0.09 -0.08,-0.09 -0.08,-0.09 -0.09,-0.08 -0.09,-0.08 -0.09,-0.07 -0.1,-0.07 -0.1,-0.07 -0.11,-0.06 -0.11,-0.05 -0.11,-0.05 -0.11,-0.05 -0.12,-0.04 -0.12,-0.03 -0.12,-0.03 -0.12,-0.02 -0.12,-0.02 -0.13,-0.01 -0.13,0 -0.13,0 -0.13,0.01 -0.12,0.02 -0.12,0.02 -0.12,0.03 -0.12,0.03 -0.12,0.04 -0.11,0.05 -0.11,0.05 -0.11,0.05 -0.11,0.06 -0.1,0.07 -0.1,0.07 -0.09,0.07 -0.09,0.08 -0.09,0.08 -0.08,0.09 -0.08,0.09 -0.07,0.09 -0.07,0.1 -0.07,0.1 -0.06,0.11 -0.05,0.11 -0.05,0.11 -0.05,0.11 -0.04,0.12 -0.03,0.12 -0.03,0.12 -0.02,0.12 -0.02,0.12 -0.01,0.13 0,0.13 0,0.13 0.01,0.13 0.02,0.12 0.02,0.12 0.03,0.12 0.03,0.12 0.04,0.12 0.05,0.11 0.05,0.11 0.05,0.11 0.06,0.11 0.07,0.1 0.07,0.1 0.07,0.09 0.08,0.09 0.08,0.09 0.09,0.08 0.09,0.08 0.09,0.07 0.1,0.07 0.1,0.07 0.11,0.06 0.11,0.05 0.11,0.05 0.11,0.05 0.12,0.04 0.12,0.03 0.12,0.03 0.12,0.02 0.12,0.02 0.13,0.01 0.13,0 0.13,0 0.13,-0.01 0.12,-0.02 0.12,-0.02 0.12,-0.03 0.12,-0.03 0.12,-0.04 0.11,-0.05 0.11,-0.05 0.11,-0.05 0.11,-0.06 0.1,-0.07 0.1,-0.07 0.09,-0.07 0.09,-0.08 0.09,-0.08 0.08,-0.09 0.08,-0.09 0.07,-0.09 0.07,-0.1 0.07,-0.1 0.06,-0.11 0.05,-0.11 0.05,-0.11 0.05,-0.11 0.04,-0.12 0.03,-0.12 0.03,-0.12 0.02,-0.12 0.02,-0.12 0.01,-0.13 0,-0.13 Z M 20.5,17 l 0,-0.13 -0.01,-0.13 -0.02,-0.12 -0.02,-0.12 -0.03,-0.12 -0.03,-0.12 -0.04,-0.12 -0.05,-0.11 -0.05,-0.11 -0.05,-0.11 -0.06,-0.11 -0.07,-0.1 -0.07,-0.1 -0.07,-0.09 -0.08,-0.09 -0.08,-0.09 -0.09,-0.08 -0.09,-0.08 -0.09,-0.07 -0.1,-0.07 -0.1,-0.07 -0.11,-0.06 -0.11,-0.05 -0.11,-0.05 -0.11,-0.05 -0.12,-0.04 -0.12,-0.03 -0.12,-0.03 -0.12,-0.02 -0.12,-0.02 -0.13,-0.01 -0.13,0 -0.13,0 -0.13,0.01 -0.12,0.02 -0.12,0.02 -0.12,0.03 -0.12,0.03 -0.12,0.04 -0.11,0.05 -0.11,0.05 -0.11,0.05 -0.11,0.06 -0.1,0.07 -0.1,0.07 -0.09,0.07 -0.09,0.08 -0.09,0.08 -0.08,0.09 -0.08,0.09 -0.07,0.09 -0.07,0.1 -0.07,0.1 -0.06,0.11 -0.05,0.11 -0.05,0.11 -0.05,0.11 -0.04,0.12 -0.03,0.12 -0.03,0.12 -0.02,0.12 -0.02,0.12 -0.01,0.13 0,0.13 0,0.13 0.01,0.13 0.02,0.12 0.02,0.12 0.03,0.12 0.03,0.12 0.04,0.12 0.05,0.11 0.05,0.11 0.05,0.11 0.06,0.11 0.07,0.1 0.07,0.1 0.07,0.09 0.08,0.09 0.08,0.09 0.09,0.08 0.09,0.08 0.09,0.07 0.1,0.07 0.1,0.07 0.11,0.06 0.11,0.05 0.11,0.05 0.11,0.05 0.12,0.04 0.12,0.03 0.12,0.03 0.12,0.02 0.12,0.02 0.13,0.01 0.13,0 0.13,0 0.13,-0.01 0.12,-0.02 0.12,-0.02 0.12,-0.03 0.12,-0.03 0.12,-0.04 0.11,-0.05 0.11,-0.05 0.11,-0.05 0.11,-0.06 0.1,-0.07 0.1,-0.07 0.09,-0.07 0.09,-0.08 0.09,-0.08 0.08,-0.09 0.08,-0.09 0.07,-0.09 0.07,-0.1 0.07,-0.1 0.06,-0.11 0.05,-0.11 0.05,-0.11 0.05,-0.11 0.04,-0.12 0.03,-0.12 0.03,-0.12 0.02,-0.12 0.02,-0.12 0.01,-0.13 0,-0.13 Z M 13.75,3 l 0.09,0 0.09,0.01 0.09,0.01 0.08,0.02 0.09,0.02 0.08,0.02 0.08,0.03 0.08,0.03 0.08,0.03 0.07,0.04 0.08,0.04 0.07,0.05 0.07,0.05 0.06,0.05 0.07,0.05 0.06,0.06 0.06,0.06 0.05,0.07 0.05,0.06 0.05,0.07 0.05,0.07 0.04,0.08 0.04,0.07 0.03,0.08 0.03,0.08 0.03,0.08 0.02,0.08 0.02,0.09 0.02,0.08 0.01,0.09 0.01,0.09 0,0.09 0,0.09 -0.01,0.09 -0.01,0.09 -0.02,0.08 -0.02,0.09 -0.02,0.08 -0.03,0.08 -0.03,0.08 -0.03,0.08 -0.04,0.07 -0.04,0.08 -0.05,0.07 -0.05,0.07 -0.05,0.06 -0.05,0.07 -0.06,0.06 -0.06,0.06 -0.07,0.05 -0.06,0.05 -0.07,0.05 -0.07,0.05 -0.08,0.04 -0.07,0.04 -0.08,0.03 -0.08,0.03 -0.08,0.03 -0.08,0.02 -0.09,0.02 -0.08,0.02 -0.09,0.01 -0.09,0.01 -0.09,0 -0.09,0 -0.09,-0.01 -0.09,-0.01 -0.08,-0.02 -0.09,-0.02 -0.08,-0.02 -0.08,-0.03 -0.08,-0.03 -0.08,-0.03 -0.07,-0.04 -0.08,-0.04 -0.07,-0.05 -0.07,-0.05 -0.06,-0.05 -0.07,-0.05 -0.06,-0.06 -0.06,-0.06 -0.05,-0.07 -0.05,-0.06 -0.05,-0.07 -0.05,-0.07 -0.04,-0.08 -0.04,-0.07 -0.03,-0.08 -0.03,-0.08 -0.03,-0.08 -0.02,-0.08 -0.02,-0.09 -0.02,-0.08 -0.01,-0.09 -0.01,-0.09 0,-0.09 0,-0.09 0.01,-0.09 0.01,-0.09 0.02,-0.08 0.02,-0.09 0.02,-0.08 0.03,-0.08 0.03,-0.08 0.03,-0.08 0.04,-0.07 0.04,-0.08 0.05,-0.07 0.05,-0.07 0.05,-0.06 0.05,-0.07 0.06,-0.06 0.06,-0.06 0.07,-0.05 0.06,-0.05 0.07,-0.05 0.07,-0.05 0.08,-0.04 0.07,-0.04 0.08,-0.03 0.08,-0.03 0.08,-0.03 0.08,-0.02 0.09,-0.02 0.08,-0.02 0.09,-0.01 0.09,-0.01 0.09,0 Z" fill-rule="evenodd" fill="#000000" />
</svg>