<svg xmlns="http://www.w3.org/2000/svg" viewBox="0 0 48 48">
  <path id="BNGEcosystemOutline" d="M 33.28,30.49 l 2.8,3.66 0.92,-0.15 0.6,0.06 0.57,0.18 0.51,0.27 0.44,0.37 0.37,0.44 0.27,0.51 0.18,0.57 0.06,0.6 -0.06,0.6 -0.18,0.57 -0.27,0.51 -0.37,0.44 -0.44,0.37 -0.51,0.27 -0.57,0.18 -0.6,0.06 -0.6,-0.06 -0.57,-0.18 -0.51,-0.27 -0.44,-0.37 -0.37,-0.44 -0.27,-0.51 -0.18,-0.57 -0.06,-0.6 0.13,-0.87 0.36,-0.77 -2.8,-3.66 -1.73,0.97 -1.88,0.73 -1.99,0.45 -2.09,0.15 -2.09,-0.15 -1.99,-0.45 -1.88,-0.73 -1.73,-0.97 -2.8,3.66 0.36,0.77 0.13,0.87 -0.06,0.6 -0.18,0.57 -0.27,0.51 -0.37,0.44 -0.44,0.37 -0.51,0.27 -0.57,0.18 -0.6,0.06 -0.6,-0.06 -0.57,-0.18 -0.51,-0.27 -0.44,-0.37 -0.37,-0.44 -0.27,-0.51 -0.18,-0.57 -0.06,-0.6 0.06,-0.6 0.18,-0.57 0.27,-0.51 0.37,-0.44 0.44,-0.37 0.51,-0.27 0.57,-0.18 0.6,-0.06 0.92,0.15 2.8,-3.66 -1.03,-1.02 -0.93,-1.12 -0.8,-1.21 -0.68,-1.29 -0.55,-1.37 -0.4,-1.44 -0.25,-1.5 -0.08,-1.54 0.07,-1.43 0.21,-1.39 0.35,-1.34 0.47,-1.29 0.59,-1.22 0.7,-1.16 0.81,-1.08 0.9,-0.99 0.99,-0.9 1.08,-0.81 1.16,-0.7 1.22,-0.59 1.29,-0.47 1.34,-0.35 1.39,-0.21 1.43,-0.07 1.43,0.07 1.39,0.21 1.34,0.35 1.29,0.47 1.22,0.59 1.16,0.7 1.08,0.81 0.99,0.9 0.9,0.99 0.81,1.08 0.7,1.16 0.59,1.22 0.47,1.29 0.35,1.34 0.21,1.39 0.07,1.43 -0.08,1.54 -0.25,1.5 -0.4,1.44 -0.55,1.37 -0.68,1.29 -0.8,1.21 -0.93,1.12 -1.03,1.02 Z M 24,32 l 1.23,-0.06 1.19,-0.18 1.15,-0.3 1.1,-0.4 1.05,-0.51 0.99,-0.6 0.92,-0.69 0.86,-0.77 0.77,-0.86 0.69,-0.92 0.6,-0.99 0.51,-1.05 0.4,-1.1 0.3,-1.15 0.18,-1.19 0.06,-1.23 -0.06,-1.23 -0.18,-1.19 -0.3,-1.15 -0.4,-1.1 -0.51,-1.05 -0.6,-0.99 -0.69,-0.92 -0.77,-0.86 -0.86,-0.77 -0.92,-0.69 -0.99,-0.6 -1.05,-0.51 -1.1,-0.4 -1.15,-0.3 -1.19,-0.18 -1.23,-0.06 -1.23,0.06 -1.19,0.18 -1.15,0.3 -1.1,0.4 -1.05,0.51 -0.99,0.6 -0.92,0.69 -0.86,0.77 -0.77,0.86 -0.69,0.92 -0.6,0.99 -0.51,1.05 -0.4,1.1 -0.3,1.15 -0.18,1.19 -0.06,1.23 0.06,1.23 0.18,1.19 0.3,1.15 0.4,1.1 0.51,1.05 0.6,0.99 0.69,0.92 0.77,0.86 0.86,0.77 0.92,0.69 0.99,0.6 1.05,0.51 1.1,0.4 1.15,0.3 1.19,0.18 1.23,0.06 Z M 33,16 l -0.08,0.81 -0.23,0.75 -0.37,0.68 -0.49,0.59 -0.59,0.49 -0.68,0.37 -0.75,0.23 -0.81,0.08 -1.12,-0.16 -1.51,2.66 -1.74,-1 1.53,-2.68 -0.55,-0.69 -0.39,-0.81 -5.32,0.44 -0.2,0.55 -0.3,0.49 2.28,3.42 0.64,-0.16 0.68,-0.06 0.81,0.08 0.75,0.23 0.68,0.37 0.59,0.49 0.49,0.59 0.37,0.68 0.23,0.75 0.08,0.81 -0.08,0.81 -0.23,0.75 -0.37,0.68 -0.49,0.59 -0.59,0.49 -0.68,0.37 -0.75,0.23 -0.81,0.08 -0.81,-0.08 -0.75,-0.23 -0.68,-0.37 -0.59,-0.49 -0.49,-0.59 -0.37,-0.68 -0.23,-0.75 -0.08,-0.81 0.07,-0.75 0.2,-0.7 0.32,-0.65 0.43,-0.57 -2.28,-3.42 -0.74,0.09 -0.6,-0.06 -0.57,-0.18 -0.51,-0.27 -0.44,-0.37 -0.37,-0.44 -0.27,-0.51 -0.18,-0.57 -0.06,-0.6 0.06,-0.6 0.18,-0.57 0.27,-0.51 0.37,-0.44 0.44,-0.37 0.51,-0.27 0.57,-0.18 0.6,-0.06 0.88,0.13 0.77,0.36 0.63,0.56 0.46,0.72 5.32,-0.44 0.18,-0.69 0.29,-0.63 0.39,-0.57 0.49,-0.49 0.56,-0.4 0.62,-0.3 0.69,-0.18 0.72,-0.07 0.81,0.08 0.75,0.23 0.68,0.37 0.59,0.49 0.49,0.59 0.37,0.68 0.23,0.75 0.08,0.81 Z" fill-rule="evenodd" fill="#000000" />
</svg>