<svg xmlns="http://www.w3.org/2000/svg" viewBox="0 0 24 24">
  <path id="BNGFolder" d="M 9.71,4.99 l 0.36,-0.36 0.5,-0.13 2.75,0 0.56,0.17 0.37,0.46 0.35,0.87 6.23,0 0.43,0.09 0.33,0.26 0.2,0.37 0.03,0.43 -1.69,11 -0.12,0.34 -0.22,0.27 -0.3,0.18 -0.35,0.06 -14.29,0 -0.35,-0.06 -0.3,-0.18 -0.22,-0.26 -0.12,-0.34 -1.72,-10.32 0.02,-0.32 0.14,-0.27 0.24,-0.18 0.31,-0.07 0.15,0 0.78,0.16 0.63,0.43 0.43,0.63 0.16,0.78 0,7.3 0.06,0.27 0.15,0.22 0.22,0.15 0.27,0.06 0.46,-0.17 0.24,-0.43 1.47,-9.55 0.12,-0.34 0.22,-0.27 0.29,-0.18 0.36,-0.06 0.24,0 0.61,-1.01 Z M 11.89,10.6 l -0.73,0.15 -0.61,0.4 -0.4,0.59 -0.15,0.72 0.15,0.72 0.4,0.59 0.61,0.39 0.73,0.15 0.74,-0.15 0.6,-0.39 0.41,-0.59 0.15,-0.72 -0.15,-0.72 -0.41,-0.59 -0.6,-0.4 -0.74,-0.15 Z M 16.54,13.24 l -0.57,0.12 -0.47,0.3 -0.31,0.46 -0.12,0.56 0.12,0.56 0.31,0.46 0.47,0.31 0.57,0.11 0.58,-0.11 0.46,-0.31 0.32,-0.46 0.11,-0.56 -0.11,-0.56 -0.32,-0.46 -0.46,-0.3 -0.58,-0.12 Z M 15.82,8.88 l -0.39,0.08 -0.33,0.21 -0.21,0.32 -0.08,0.38 0.08,0.39 0.21,0.31 0.33,0.21 0.39,0.08 0.39,-0.08 0.32,-0.21 0.22,-0.31 0.08,-0.39 -0.08,-0.38 -0.22,-0.32 -0.32,-0.21 -0.39,-0.08 Z M 15.82,11.13 l -0.11,-0.01 0.25,1.95 0.58,-0.1 0.34,0.03 -0.28,-2.13 -0.36,0.19 -0.42,0.07 Z M 14.54,10.03 l -1.21,0.8 0.32,0.33 0.24,0.39 1.1,-0.72 -0.3,-0.36 -0.15,-0.44 Z M 14.01,13.04 l -0.17,0.42 -0.26,0.37 1.24,0.59 0.13,-0.44 0.24,-0.38 -1.18,-0.56 Z" fill-rule="evenodd" fill="#000000" />
</svg>