<svg xmlns="http://www.w3.org/2000/svg" viewBox="0 0 24 24">
  <path id="BNGMicrochip" d="M 13.01,8.25 l -3.14,1.74 0.13,1.01 -0.1,0.89 -0.28,0.82 0.88,0.74 0,2.6 -2.16,-1.8 -1.09,0.55 -0.61,0.15 -0.64,0.05 -0.81,-0.08 -0.75,-0.23 -0.68,-0.37 -0.59,-0.49 -0.49,-0.59 -0.37,-0.68 -0.23,-0.75 -0.08,-0.81 0.08,-0.81 0.23,-0.75 0.37,-0.68 0.49,-0.59 0.59,-0.49 0.68,-0.37 0.75,-0.23 0.81,-0.08 0.83,0.09 0.77,0.24 0.7,0.4 0.6,0.51 3.14,-1.74 -0.04,-0.5 0.06,-0.6 0.18,-0.57 0.27,-0.51 0.37,-0.44 0.44,-0.37 0.51,-0.27 0.57,-0.18 0.6,-0.06 0.6,0.06 0.57,0.18 0.51,0.27 0.44,0.37 0.37,0.44 0.27,0.51 0.18,0.57 0.06,0.6 -0.11,0.79 -0.29,0.71 -0.47,0.61 -0.59,0.47 0.38,1.92 -2.04,0 -0.31,-1.53 -0.84,-0.25 -0.72,-0.47 Z M 20,12 l 0,1 2,0 0,1.5 -2,0 0,1.5 2,0 0,1.5 -2,0 0,1.5 2,0 0,1.5 -2,0 0,1.5 -6,0 0,-1.5 -2,0 0,-1.5 2,0 0,-1.5 -2,0 0,-1.5 2,0 0,-1.5 -2,0 0,-1.5 2,0 0,-1 6,0 Z" fill-rule="evenodd" fill="#000000" />
</svg>