<svg xmlns="http://www.w3.org/2000/svg" viewBox="0 0 24 24">
  <path id="booleanIntersect" d="M 8,8 l 7.36,0 0.64,0.13 0.52,0.35 0.35,0.52 0.13,0.64 -0.15,1.48 -0.43,1.38 -0.68,1.25 -0.9,1.09 -1.09,0.9 -1.25,0.68 -1.38,0.43 -1.48,0.15 -0.64,-0.13 -0.52,-0.35 -0.35,-0.52 -0.13,-0.64 0,-7.36 Z M 8,18.04 l 0.71,0.32 0.79,0.14 0,0 9,0 0,-9 0,0 -0.14,-0.79 -0.32,-0.71 1.96,0 0,12 -12,0 0,-1.96 Z M 6.5,14.24 l 0,1.12 0.09,0.75 -0.77,-0.49 -0.69,-0.6 -0.62,-0.67 -0.52,-0.76 -0.42,-0.82 -0.31,-0.87 -0.19,-0.93 -0.07,-0.97 0.14,-1.41 0.41,-1.31 0.65,-1.19 0.85,-1.04 1.04,-0.85 1.19,-0.65 1.31,-0.41 1.41,-0.14 0.97,0.07 0.93,0.19 0.87,0.31 0.82,0.42 0.76,0.52 0.67,0.62 0.6,0.69 0.49,0.77 -0.75,-0.09 -1.12,0 -0.85,-0.83 -1.01,-0.63 -1.14,-0.4 -1.24,-0.14 -1.11,0.11 -1.03,0.32 -0.94,0.51 -0.81,0.67 -0.67,0.81 -0.51,0.94 -0.32,1.03 -0.11,1.11 0.14,1.24 0.4,1.14 0.63,1.01 0.83,0.85 Z" fill-rule="evenodd" fill="#000000" />
</svg>