<svg xmlns="http://www.w3.org/2000/svg" viewBox="0 0 24 24">
  <path id="boxDropOff02" d="M 18,5 l 0,5 -7,2 -5,-2 0,-5 7,-2 5,2 Z M 2.5,18.65 l 0.08,-0.28 0.77,-1.15 0.18,-0.16 0.24,-0.06 0.04,0 0.23,0.06 0.17,0.15 0.09,0.21 -0.02,0.24 -0.06,0.18 -0.02,0.24 0.09,0.21 0.17,0.15 0.23,0.06 14.62,0 0.23,-0.06 0.17,-0.15 0.09,-0.21 -0.02,-0.24 -0.06,-0.18 -0.02,-0.24 0.09,-0.21 0.17,-0.15 0.23,-0.06 0.04,0 0.24,0.06 0.18,0.16 0.77,1.15 0.08,0.28 0,0.85 -0.15,0.35 -0.35,0.15 -18,0 -0.35,-0.15 -0.15,-0.35 0,-0.85 Z M 15,14 l -3,3 -3,-3 1,-1 2,2 2,-2 1,1 Z M 15.92,5.59 l -2.92,-1.09 -5.08,1.27 3.08,1.23 4.92,-1.41 Z" fill-rule="evenodd" fill="#000000" />
</svg>