<svg xmlns="http://www.w3.org/2000/svg" viewBox="0 0 24 24">
  <path id="boxPickUpDropOff01" d="M 6,11.5 l 0,-5 1.85,-3.35 0.36,-0.15 7.58,0 0.36,0.15 1.85,3.35 0,5 -0.05,0.22 -0.15,0.18 -0.3,0.1 -11,0 -0.35,-0.15 -0.15,-0.35 Z M 2.5,18.65 l 0.08,-0.28 0.77,-1.15 0.18,-0.16 0.24,-0.06 0.04,0 0.23,0.06 0.17,0.15 0.09,0.21 -0.02,0.24 -0.06,0.18 -0.02,0.24 0.09,0.21 0.17,0.15 0.23,0.06 14.62,0 0.23,-0.06 0.17,-0.15 0.09,-0.21 -0.02,-0.24 -0.06,-0.18 -0.02,-0.24 0.09,-0.21 0.17,-0.15 0.23,-0.06 0.04,0 0.24,0.06 0.18,0.16 0.77,1.15 0.08,0.28 0,0.85 -0.15,0.35 -0.35,0.15 -18,0 -0.35,-0.15 -0.15,-0.35 0,-0.85 Z M 12.98,4.5 l -1.96,0 -0.52,2 0,2.25 0.07,0.18 0.18,0.07 2.5,0 0.18,-0.07 0.07,-0.18 0,-2.25 -0.52,-2 Z M 13.06,12.94 l 1.94,1.94 1.94,-1.94 1.06,1.06 -3,3 -3,-3 1.06,-1.06 Z M 7.06,17.06 l -1.06,-1.06 3,-3 3,3 -1.06,1.06 -1.94,-1.94 -1.94,1.94 Z" fill-rule="evenodd" fill="#000000" />
</svg>