<svg xmlns="http://www.w3.org/2000/svg" viewBox="0 0 24 24">
  <path id="boxTruckFast" d="M 3,6.75 l 0.06,-0.29 0.16,-0.24 0.24,-0.16 0.29,-0.06 11.25,0 0,8 1,0 0,-6 0.08,-0.39 0.21,-0.32 0.32,-0.21 0.39,-0.08 3.03,0 0.54,0.16 0.37,0.42 1.97,4.22 0.09,0.42 0,2.78 -0.08,0.39 -0.21,0.32 -0.32,0.21 -0.39,0.08 -1.05,0 0.05,0.5 -0.05,0.5 -0.15,0.47 -0.53,0.8 -0.8,0.53 -0.47,0.15 -0.5,0.05 -0.5,-0.05 -0.47,-0.15 -0.8,-0.53 -0.53,-0.8 -0.15,-0.47 -0.05,-0.5 0.05,-0.5 -1.05,0 0,1 -4,0 0,-1 -1.1,0 0.05,0.5 -0.05,0.5 -0.15,0.47 -0.53,0.8 -0.8,0.53 -0.47,0.15 -0.5,0.05 -0.5,-0.05 -0.47,-0.15 -0.8,-0.53 -0.53,-0.8 -0.15,-0.47 -0.05,-0.5 0.05,-0.5 0,-2 -0.39,-0.08 -0.32,-0.21 -0.21,-0.32 -0.08,-0.39 0.08,-0.39 0.21,-0.32 0.32,-0.21 0.39,-0.08 2.25,0 0.29,-0.06 0.24,-0.16 0.16,-0.24 0.06,-0.29 -0.06,-0.29 -0.16,-0.24 -0.24,-0.16 -0.29,-0.06 -1.5,0 -0.29,-0.06 -0.24,-0.16 -0.16,-0.24 -0.06,-0.29 0.06,-0.29 0.16,-0.24 0.24,-0.16 0.29,-0.06 2.5,0 0.29,-0.06 0.24,-0.16 0.16,-0.24 0.06,-0.29 -0.06,-0.29 -0.16,-0.24 -0.24,-0.16 -0.29,-0.06 -4.5,0 -0.29,-0.06 -0.24,-0.16 -0.16,-0.24 -0.06,-0.29 Z M 11.33,7.33 l -0.33,-0.13 -0.33,0.13 -0.21,0.32 -0.07,0.35 0.07,0.35 0.21,0.32 1.33,1.33 -1.33,1.33 -0.21,0.32 -0.07,0.35 0.07,0.35 0.21,0.32 0.33,0.13 0.33,-0.13 2.32,-2.32 0.14,-0.35 -0.14,-0.35 -2.32,-2.32 Z M 19.84,16.51 l -0.1,-0.53 -0.29,-0.43 -0.44,-0.29 -0.52,-0.11 -0.53,0.11 -0.43,0.29 -0.29,0.43 -0.11,0.53 0.11,0.52 0.29,0.44 0.43,0.29 0.53,0.1 0.52,-0.1 0.44,-0.29 0.29,-0.44 0.1,-0.52 Z M 8.45,16.5 l -0.08,-0.39 -0.21,-0.32 -0.32,-0.21 -0.39,-0.08 -0.39,0.08 -0.32,0.21 -0.21,0.32 -0.08,0.39 0.08,0.39 0.21,0.32 0.32,0.21 0.39,0.08 0.39,-0.08 0.32,-0.21 0.21,-0.32 0.08,-0.39 Z M 3.25,9 l 0.29,0.06 0.24,0.16 0.16,0.24 0.06,0.29 -0.06,0.29 -0.16,0.24 -0.24,0.16 -0.29,0.06 -0.5,0 -0.29,-0.06 -0.24,-0.16 -0.16,-0.24 -0.06,-0.29 0.06,-0.29 0.16,-0.24 0.24,-0.16 0.29,-0.06 0.5,0 Z" fill-rule="evenodd" fill="#000000" />
</svg>