<svg xmlns="http://www.w3.org/2000/svg" viewBox="0 0 48 48">
  <path id="bridge" d="M 38.45,37.97 l -2.9,4.06 -5.33,-3.8 -1.14,-1.05 -0.86,-1.26 -0.53,-1.44 -0.19,-1.54 0,-17.88 0.19,-1.54 0.53,-1.44 0.86,-1.26 1.14,-1.05 5.33,-3.8 2.9,4.06 -5.32,3.81 -0.46,0.53 -0.17,0.69 0,17.88 0.17,0.69 0.46,0.53 5.32,3.81 Z M 12.45,42.03 l -2.9,-4.06 5.32,-3.81 0.46,-0.53 0.17,-0.69 0,-17.88 -0.17,-0.69 -0.46,-0.53 -5.32,-3.81 2.9,-4.06 5.33,3.8 1.14,1.05 0.86,1.26 0.53,1.44 0.19,1.54 0,17.88 -0.19,1.54 -0.53,1.44 -0.86,1.26 -1.14,1.05 -5.33,3.8 Z" fill-rule="evenodd" fill="#000000" />
</svg>