<svg xmlns="http://www.w3.org/2000/svg" viewBox="0 0 24 24">
  <path id="bridgeWithRiver" d="M 2,12.5 l 0,-6 0.15,-0.35 0.35,-0.15 3.5,0 0.09,-0.09 0.29,-0.22 0.46,-0.32 0.66,-0.37 0.84,-0.37 1.04,-0.32 1.21,-0.22 1.41,-0.09 1.41,0.09 1.22,0.22 1.03,0.32 0.84,0.37 0.66,0.37 0.47,0.32 0.28,0.22 0.09,0.09 3.5,0 0.35,0.15 0.15,0.35 0,6 -0.15,0.35 -0.35,0.15 -3.18,0 -0.27,-0.08 -0.18,-0.22 -1.1,-2.46 -0.08,-0.06 -0.24,-0.14 -0.38,-0.19 -0.54,-0.23 -0.68,-0.23 -0.82,-0.2 -0.95,-0.14 -1.08,-0.05 -1.09,0.05 -0.98,0.14 -0.85,0.2 -0.72,0.23 -0.58,0.23 -0.43,0.19 -0.26,0.14 -0.09,0.06 -0.88,2.43 -0.18,0.24 -0.29,0.09 -3.15,0 -0.35,-0.15 -0.15,-0.35 Z M 15.5,17 l 0.54,1.02 0.7,0.88 0.77,0.74 0.76,0.59 0.19,0.27 0.03,0.33 -0.14,0.29 -0.28,0.17 -0.98,0.19 -1.28,0.16 -1.27,-0.02 -1.27,-0.21 -1.22,-0.39 -1.27,-0.4 -1.31,-0.21 -1.33,-0.01 -1.32,0.2 -1.43,0.31 -0.32,-0.04 -0.2,-0.25 -0.14,-0.65 -0.03,-0.87 0.22,-1.02 0.23,-0.54 0.35,-0.54 0.58,-0.68 0.62,-0.58 1.24,-0.93 1.15,-0.83 0.49,-0.46 0.42,-0.52 0.19,-0.41 0.02,-0.37 -0.1,-0.32 -0.19,-0.27 -0.16,-0.28 -0.03,-0.29 0.1,-0.24 0.24,-0.14 0.84,-0.13 1.09,-0.05 1.13,0.06 0.87,0.13 0.59,0.16 0.34,0.12 0.13,0.09 0.23,0.29 0.32,0.48 0.27,0.64 0.12,0.75 -0.16,0.82 -0.3,0.92 -0.2,1 0.02,0.52 0.14,0.52 Z" fill-rule="evenodd" fill="#000000" />
</svg>