<svg xmlns="http://www.w3.org/2000/svg" viewBox="0 0 24 24">
  <path id="broom" d="M 14,20 l -1.01,-0.71 -0.8,-0.66 -0.62,-0.67 -0.44,-0.71 -0.31,-0.8 -0.19,-0.95 -0.1,-1.13 -0.03,-1.37 2.5,-1 1.22,0.74 1.27,0.48 1.37,0.3 1.52,0.23 1.62,0.25 -0.56,1.36 -0.71,1.21 -0.86,1.06 -1.02,0.9 -0.8,-0.1 -0.75,-0.22 -0.75,-0.32 -0.78,-0.43 -0.14,-0.02 -0.11,0.05 -0.05,0.11 0.05,0.13 0.79,0.89 1,0.85 -1.31,0.53 Z M 11.19,8.65 l 0.46,-0.18 0.75,2 -2.8,1.06 -0.75,-2 0.46,-0.18 -2.25,-6 1.88,-0.7 2.25,6 Z M 6,20 l -0.78,-0.16 -0.63,-0.43 -0.43,-0.63 -0.16,-0.78 0,-1.38 0.13,-0.5 0.34,-0.35 0.47,-0.15 0.51,0.1 0.25,0.13 0.26,0.19 0.19,0.26 0.49,0.98 0.2,0.28 0.28,0.18 0.32,0.09 0.34,-0.02 0.6,-0.15 0.56,0.02 0.46,0.32 0.95,1.19 0.11,0.26 -0.05,0.27 -0.18,0.2 -0.27,0.08 -3.96,0 Z" fill-rule="evenodd" fill="#000000" />
</svg>