<svg xmlns="http://www.w3.org/2000/svg" viewBox="0 0 24 24">
  <path id="bSpline" d="M 4,16 l 0.07,0 0.61,-0.97 -0.92,-0.15 0.33,-2 1.48,0.24 -0.1,0.65 1.09,-1.76 0.48,-0.66 0.56,-0.6 0.61,-0.51 0.68,-0.44 0.73,-0.34 0.76,-0.25 0.8,-0.16 0.82,-0.05 0.82,0.05 0.8,0.16 0.76,0.25 0.73,0.34 0.68,0.44 0.61,0.51 0.56,0.6 0.48,0.66 1.09,1.76 -0.1,-0.65 1.48,-0.24 0.33,2 -0.92,0.15 0.61,0.97 0.07,0 0.78,0.16 0.63,0.43 0.43,0.63 0.16,0.78 -0.16,0.78 -0.43,0.63 -0.63,0.43 -0.78,0.16 -0.78,-0.16 -0.63,-0.43 -0.43,-0.63 -0.16,-0.78 0.06,-0.49 0.17,-0.45 -2.49,-3.99 -0.71,-0.86 -0.89,-0.66 -1.03,-0.41 -1.11,-0.14 -1.11,0.14 -1.03,0.41 -0.89,0.66 -0.71,0.86 -2.49,3.99 0.17,0.45 0.06,0.49 -0.16,0.78 -0.43,0.63 -0.63,0.43 -0.78,0.16 -0.78,-0.16 -0.63,-0.43 -0.43,-0.63 -0.16,-0.78 0.16,-0.78 0.43,-0.63 0.63,-0.43 0.78,-0.16 Z M 18,4 l 2,2 -2,2 -2,-2 2,-2 Z M 4,6 l 2,-2 2,2 -2,2 -2,-2 Z M 17.76,9.12 l 1.48,-0.24 0.33,2 -1.48,0.24 -0.33,-2 Z M 5.91,11.12 l -1.48,-0.24 0.33,-2 1.48,0.24 -0.33,2 Z M 9,6.75 l 0,-1.5 2,0 0,1.5 -2,0 Z M 13,6.75 l 0,-1.5 2,0 0,1.5 -2,0 Z" fill-rule="evenodd" fill="#000000" />
</svg>