<svg xmlns="http://www.w3.org/2000/svg" viewBox="0 0 24 24">
  <path id="bucketTiltLevel" d="M 5.08,6.43 l 11.67,0 0,5.61 4.59,2.29 0.23,0.18 0.14,0.25 0.04,0.29 -0.08,0.29 -0.18,0.23 -0.25,0.14 -0.29,0.04 -0.28,-0.08 -3.92,-1.96 0,0.52 -0.07,0.56 4.68,2.55 0.23,0.19 0.13,0.26 0.03,0.28 -0.09,0.29 -0.19,0.23 -0.26,0.13 -0.28,0.03 -0.29,-0.09 -4.71,-2.57 -0.77,0.48 -0.93,0.18 -0.93,-0.18 -0.8,-0.51 -10.02,-9.52 0.92,-1.17 1.68,1.06 Z M 13.53,14.97 l 0.32,0.21 0.38,0.07 0.4,-0.08 0.32,-0.22 0.22,-0.32 0.08,-0.4 0,-6.3 -9.13,0 7.41,7.04 Z M 16.5,19.75 l -13,0 0,-1.5 13,0 0,1.5 Z M 16.5,4.75 l -13,0 0,-1.5 13,0 0,1.5 Z" fill-rule="evenodd" fill="#000000" />
</svg>