<svg xmlns="http://www.w3.org/2000/svg" viewBox="0 0 24 24">
  <path id="bucketTilt" d="M 5.08,8.43 l 11.67,0 0,5.23 4.51,1.63 0.25,0.16 0.17,0.23 0.07,0.28 -0.04,0.3 -0.16,0.25 -0.23,0.17 -0.28,0.07 -0.3,-0.04 -3.99,-1.46 0,0.98 -0.04,0.41 4.55,1.65 0.25,0.16 0.17,0.23 0.07,0.28 -0.04,0.3 -0.16,0.25 -0.23,0.17 -0.28,0.07 -0.3,-0.04 -4.71,-1.72 -0.37,0.32 -0.44,0.24 -0.47,0.15 -0.52,0.05 -0.93,-0.18 -0.8,-0.51 -10.02,-9.52 0.92,-1.17 1.68,1.06 Z M 13.53,16.97 l 0.32,0.21 0.38,0.07 0.4,-0.08 0.32,-0.22 0.22,-0.32 0.08,-0.4 0,-1.52 -0.01,0 0.01,-0.02 0,-4.76 -9.13,0 7.41,7.04 Z M 4.75,14.01 l 0.09,1.22 0.27,1.19 0.45,1.14 0.61,1.06 0.98,-1.47 0.35,0.35 0,3.54 -3.54,0 -0.35,-0.36 1.48,-0.98 -0.79,-1.3 -0.58,-1.4 -0.35,-1.47 -0.12,-1.52 0.75,0 0.75,0 Z M 15.5,5 l -2.5,2.5 -0.5,0 0.35,-1.75 -1.04,0.09 -1.02,0.21 -0.98,0.34 -0.93,0.47 -0.75,-1.3 1.11,-0.55 1.16,-0.41 1.21,-0.25 1.24,-0.1 -0.35,-1.75 0.5,0 2.5,2.5 Z" fill-rule="evenodd" fill="#000000" />
</svg>