<svg xmlns="http://www.w3.org/2000/svg" viewBox="0 0 24 24">
  <path id="bucketArmUpDown" d="M 4.65,8.19 l 9.1,0 0,3.73 6.99,-2.62 0.29,-0.05 0.28,0.07 0.23,0.16 0.16,0.26 0.05,0.29 -0.07,0.28 -0.16,0.23 -0.26,0.16 -7.51,2.82 0,0.96 7.03,-2.2 0.29,-0.03 0.28,0.09 0.22,0.18 0.15,0.26 0.03,0.29 -0.09,0.28 -0.18,0.22 -0.26,0.15 -8,2.5 -0.21,0.03 -0.62,0.37 -0.74,0.13 -0.8,-0.16 -0.68,-0.45 -7.7,-7.61 0.94,-1.16 1.24,0.82 Z M 11.23,15.08 l 0.42,0.17 0.23,-0.05 0.19,-0.13 0.13,-0.19 0.05,-0.23 0,-4.96 -6.47,0 5.45,5.39 Z M 18.5,4.5 l 0,0.5 -1.75,-0.35 0,3.35 -1.5,0 0,-3.35 -1.75,0.35 0,-0.5 2.5,-2.5 2.5,2.5 Z M 16.75,19.35 l 1.75,-0.35 0,0.5 -2.5,2.5 -2.5,-2.5 0,-0.5 1.75,0.35 0,-1.85 1.5,0 0,1.85 Z" fill-rule="evenodd" fill="#000000" />
</svg>