<svg xmlns="http://www.w3.org/2000/svg" viewBox="0 0 24 24">
  <path id="bucketAdd" d="M 6.5,17.5 l 11,0 0.39,-0.08 0.32,-0.21 0.21,-0.32 0.08,-0.39 0,-6.5 2.5,0 0,7 -0.06,0.6 -0.18,0.57 -0.27,0.51 -0.37,0.44 -0.44,0.37 -0.51,0.27 -0.57,0.18 -0.6,0.06 -12,0 -0.6,-0.06 -0.57,-0.18 -0.51,-0.27 -0.44,-0.37 -0.37,-0.44 -0.27,-0.51 -0.18,-0.57 -0.06,-0.6 0,-7 2.5,0 0,6.5 0.08,0.39 0.21,0.32 0.32,0.21 0.39,0.08 Z M 13,3 l 2,0 0,2 2,0 0,2 -2,0 0,2 -2,0 0,-2 -2,0 0,-2 2,0 0,-2 Z M 9,9 l 2,0 0,2 2,0 0,2 -2,0 0,2 -2,0 0,-2 -2,0 0,-2 2,0 0,-2 Z" fill-rule="evenodd" fill="#000000" />
</svg>