<svg xmlns="http://www.w3.org/2000/svg" viewBox="0 0 24 24">
  <path id="bucketArmLevel" d="M 14.49,9.35 l 0.05,-0.02 6.13,-3 0.29,-0.08 0.28,0.04 0.25,0.14 0.18,0.24 0.08,0.29 -0.04,0.28 -0.14,0.25 -0.24,0.18 -5.76,2.82 0.31,0.79 4.84,-1.97 0.29,-0.06 0.28,0.06 0.24,0.16 0.16,0.25 0.06,0.29 -0.06,0.28 -0.16,0.24 -0.25,0.16 -5.96,2.44 -0.02,0.01 -0.67,0.45 -0.8,0.17 -10.83,0.06 -0.15,-1.48 1.45,-0.3 6.44,-6.43 3.75,3.74 Z M 9.01,15.78 l 0.71,-0.34 0.75,-0.23 1.53,-0.19 1.53,0.19 0.75,0.23 0.71,0.34 1.64,0.89 1.1,0.43 1.17,0.15 1.6,0 0,1.5 -1.6,0 -1.54,-0.19 -1.45,-0.57 -1.64,-0.9 -1.11,-0.43 -1.16,-0.15 -1.16,0.15 -1.11,0.43 -1.64,0.9 -1.45,0.57 -1.54,0.19 -1.6,0 0,-1.5 1.6,0 1.17,-0.15 1.1,-0.43 1.64,-0.89 Z M 6.16,12.3 l 7.66,-0.04 0.42,-0.18 0.18,-0.42 -0.18,-0.43 -3.5,-3.5 -4.58,4.57 Z" fill-rule="evenodd" fill="#000000" />
</svg>