<svg xmlns="http://www.w3.org/2000/svg" viewBox="0 0 24 24">
  <path id="bucketArmUp" d="M 4.65,3.19 l 9.1,0 0,4.29 7.51,2.82 0.26,0.16 0.16,0.23 0.07,0.28 -0.05,0.29 -0.16,0.26 -0.23,0.16 -0.28,0.07 -0.29,-0.05 -6.99,-2.62 0,0.57 -0.03,0.35 7.58,3.31 0.24,0.17 0.16,0.25 0.05,0.28 -0.06,0.29 -0.17,0.24 -0.25,0.16 -0.28,0.05 -0.29,-0.06 -7.75,-3.39 -0.6,0.33 -0.7,0.12 -0.8,-0.16 -0.68,-0.45 -7.7,-7.61 0.94,-1.16 1.24,0.82 Z M 20.5,21.75 l -17,0 0,-1.5 17,0 0,1.5 Z M 11.23,10.08 l 0.42,0.17 0.23,-0.05 0.19,-0.13 0.13,-0.19 0.05,-0.23 0,-4.96 -6.47,0 5.45,5.39 Z M 18.5,16.5 l 0,0.5 -1.75,-0.35 0,2.35 -1.5,0 0,-2.35 -1.75,0.35 0,-0.5 2.5,-2.5 2.5,2.5 Z" fill-rule="evenodd" fill="#000000" />
</svg>