<svg xmlns="http://www.w3.org/2000/svg" viewBox="0 0 24 24">
  <path id="bucketTiltDown" d="M 16.2,7.25 l 0.94,0.18 0.79,0.5 0.56,0.74 0.25,0.92 2.68,1.79 0.21,0.21 0.11,0.26 0,0.29 -0.12,0.28 -0.21,0.21 -0.26,0.11 -0.29,0 -0.28,-0.12 -2.21,-1.48 -0.25,0.34 -0.43,0.49 3.77,2.94 0.19,0.22 0.09,0.28 -0.02,0.28 -0.13,0.27 -0.22,0.19 -0.28,0.09 -0.28,-0.02 -0.27,-0.13 -3.84,-2.98 -7.31,8.38 -1.2,-0.89 1.06,-1.68 0,-11.67 6.95,0 Z M 10.75,17.65 l 6.24,-7.16 0.19,-0.32 0.07,-0.37 -0.08,-0.41 -0.23,-0.33 -0.33,-0.23 -0.41,-0.08 -5.45,0 0,8.9 Z M 11.66,3.66 l -0.94,0.26 -0.91,0.38 -0.85,0.47 -0.79,0.58 -1.15,1.15 -0.89,1.35 1.69,0.44 -0.22,0.45 -3.34,1.16 -1.16,-3.34 0.22,-0.45 1.45,1.1 1.07,-1.63 0.65,-0.73 0.72,-0.66 0.94,-0.68 1.01,-0.56 1.07,-0.44 1.11,-0.32 0.32,1.47 Z" fill-rule="evenodd" fill="#000000" />
</svg>