<svg xmlns="http://www.w3.org/2000/svg" viewBox="0 0 24 24">
  <path id="bucketTiltUp" d="M 5.08,5.43 l 11.67,0 0,5.23 4.51,1.63 0.25,0.16 0.17,0.23 0.07,0.28 -0.04,0.3 -0.16,0.25 -0.23,0.17 -0.28,0.07 -0.3,-0.04 -3.99,-1.46 0,0.98 -0.04,0.41 4.55,1.65 0.25,0.16 0.17,0.23 0.07,0.28 -0.04,0.3 -0.16,0.25 -0.23,0.17 -0.28,0.07 -0.3,-0.04 -4.71,-1.72 -0.37,0.32 -0.44,0.24 -0.47,0.15 -0.52,0.05 -0.93,-0.18 -0.8,-0.51 -10.02,-9.52 0.92,-1.17 1.68,1.06 Z M 13.53,13.97 l 0.32,0.21 0.38,0.07 0.4,-0.08 0.32,-0.22 0.22,-0.32 0.08,-0.4 0,-1.52 -0.01,0 0.01,-0.02 0,-4.76 -9.13,0 7.41,7.04 Z M 7.73,13.16 l 0.03,0.5 -1.76,-0.26 0.24,1.49 0.51,1.42 0.46,0.86 0.57,0.8 0.65,0.73 0.74,0.64 -0.92,1.19 -0.87,-0.76 -0.78,-0.86 -0.66,-0.94 -0.55,-1.02 -0.61,-1.7 -0.29,-1.78 -1.73,0.44 -0.02,-0.5 2.37,-2.62 2.62,2.37 Z" fill-rule="evenodd" fill="#000000" />
</svg>