<svg xmlns="http://www.w3.org/2000/svg" viewBox="0 0 24 24">
  <path id="bucketSubtract" d="M 6.5,17.5 l 11,0 0.39,-0.08 0.32,-0.21 0.21,-0.32 0.08,-0.39 0,-6.5 2.5,0 0,7 -0.06,0.6 -0.18,0.57 -0.27,0.51 -0.37,0.44 -0.44,0.37 -0.51,0.27 -0.57,0.18 -0.6,0.06 -12,0 -0.6,-0.06 -0.57,-0.18 -0.51,-0.27 -0.44,-0.37 -0.37,-0.44 -0.27,-0.51 -0.18,-0.57 -0.06,-0.6 0,-7 2.5,0 0,6.5 0.08,0.39 0.21,0.32 0.32,0.21 0.39,0.08 Z M 9.75,8.5 l -0.65,-0.07 -0.62,-0.19 -0.55,-0.3 -0.48,-0.39 -0.39,-0.48 -0.3,-0.55 -0.19,-0.62 -0.07,-0.65 0.07,-0.65 0.19,-0.62 0.3,-0.55 0.39,-0.48 0.48,-0.39 0.55,-0.3 0.62,-0.19 0.65,-0.07 0.65,0.07 0.62,0.19 0.55,0.3 0.48,0.39 0.39,0.48 0.3,0.55 0.19,0.62 0.07,0.65 -0.07,0.65 -0.19,0.62 -0.3,0.55 -0.39,0.48 -0.48,0.39 -0.55,0.3 -0.62,0.19 -0.65,0.07 Z M 11,12.25 l 0.07,-0.65 0.19,-0.62 0.3,-0.55 0.39,-0.48 0.48,-0.39 0.55,-0.3 0.62,-0.19 0.65,-0.07 0.65,0.07 0.62,0.19 0.55,0.3 0.48,0.39 0.39,0.48 0.3,0.55 0.19,0.62 0.07,0.65 -0.07,0.65 -0.19,0.62 -0.3,0.55 -0.39,0.48 -0.48,0.39 -0.55,0.3 -0.62,0.19 -0.65,0.07 -0.65,-0.07 -0.62,-0.19 -0.55,-0.3 -0.48,-0.39 -0.39,-0.48 -0.3,-0.55 -0.19,-0.62 -0.07,-0.65 Z M 7.5,4.5 l 0,1.5 4.5,0 0,-1.5 -4.5,0 Z M 16.5,11.5 l -4.5,0 0,1.5 4.5,0 0,-1.5 Z" fill-rule="evenodd" fill="#000000" />
</svg>