<svg xmlns="http://www.w3.org/2000/svg" viewBox="0 0 24 24">
  <path id="bucketArmDown" d="M 20.63,9.35 l 0.29,-0.1 0.28,0.03 0.26,0.13 0.19,0.22 0.1,0.29 -0.03,0.28 -0.13,0.26 -0.22,0.19 -7.62,4.29 0,0.85 6.92,-3.46 0.28,-0.08 0.29,0.04 0.25,0.14 0.18,0.24 0.08,0.28 -0.04,0.29 -0.14,0.25 -0.23,0.18 -7.81,3.9 -0.32,0.48 -0.44,0.37 -0.52,0.24 -0.6,0.09 -0.8,-0.16 -0.68,-0.45 -7.7,-7.61 0.94,-1.16 1.24,0.82 9.1,0 0,3.03 6.88,-3.87 Z M 20.5,21.75 l -17,0 0,-1.5 17,0 0,1.5 Z M 11.23,17.08 l 0.42,0.17 0.23,-0.05 0.19,-0.13 0.13,-0.19 0.05,-0.23 0,-4.96 -6.47,0 5.45,5.39 Z M 16.75,6.35 l 1.75,-0.35 0,0.5 -2.5,2.5 -2.5,-2.5 0,-0.5 1.75,0.35 0,-4.35 1.5,0 0,4.35 Z" fill-rule="evenodd" fill="#000000" />
</svg>