<svg xmlns="http://www.w3.org/2000/svg" viewBox="0 0 24 24">
  <path id="bug" d="M 22,14 l 0,-2 -4,0 0,-2 1,0 0.77,-0.15 0.64,-0.44 0.44,-0.64 0.15,-0.77 0,-2 -2,0 0,2 -3.6,0 -0.21,-0.12 -0.01,-0.24 0.5,-1.01 0.24,-0.65 0.02,-0.68 -0.39,-1.15 -0.72,-0.98 -0.61,-0.5 -0.69,-0.37 -0.75,-0.22 -0.78,-0.08 -0.78,0.08 -0.75,0.22 -0.69,0.37 -0.61,0.5 -0.72,0.98 -0.39,1.15 0.02,0.68 0.24,0.65 0.5,1.01 -0.01,0.24 -0.21,0.12 -3.6,0 0,-2 -2,0 0,2 0.15,0.77 0.44,0.64 0.64,0.44 0.77,0.15 1,0 0,2 -4,0 0,2 4,0 0,1 0.09,1 -1.09,0 -0.77,0.15 -0.64,0.44 -0.44,0.64 -0.15,0.77 0,2 2,0 0,-2 1.81,0 0.28,0.57 0.31,0.73 0.38,0.66 0.53,0.52 0.66,0.34 0.75,0.14 0.25,0.01 0.4,-0.07 0.33,-0.21 0.22,-0.32 0.08,-0.4 0,-9.97 2,0 0,9.97 0.08,0.4 0.22,0.32 0.33,0.21 0.4,0.07 0.25,-0.01 0.75,-0.14 0.66,-0.34 0.53,-0.52 0.38,-0.66 0.31,-0.73 0.28,-0.57 1.81,0 0,2 2,0 0,-2 -0.15,-0.77 -0.44,-0.64 -0.64,-0.44 -0.77,-0.15 -1.09,0 0.09,-1 0,-1 Z" fill-rule="evenodd" fill="#000000" />
</svg>