<svg xmlns="http://www.w3.org/2000/svg" viewBox="0 0 24 24">
  <path id="bulldozer" d="M 5,5 l 4,0 2,4 5,0 1,1 0,3 -13,0 0,-4 1,-4 Z M 2,16.5 l 0.05,-0.5 0.15,-0.47 0.53,-0.8 0.8,-0.53 0.47,-0.15 0.5,-0.05 10,0 0.5,0.05 0.47,0.15 0.8,0.53 0.53,0.8 0.15,0.47 0.05,0.5 -0.05,0.5 -0.15,0.47 -0.53,0.8 -0.8,0.53 -0.47,0.15 -0.5,0.05 -10,0 -0.5,-0.05 -0.47,-0.15 -0.8,-0.53 -0.53,-0.8 -0.15,-0.47 -0.05,-0.5 Z M 4.5,15.5 l -0.39,0.08 -0.32,0.21 -0.21,0.32 -0.08,0.39 0.08,0.39 0.21,0.32 0.32,0.21 0.39,0.08 10,0 0.39,-0.08 0.32,-0.21 0.21,-0.32 0.08,-0.39 -0.08,-0.39 -0.21,-0.32 -0.32,-0.21 -0.39,-0.08 -10,0 Z M 19.5,11 l 1,5 1.5,1 0,1 -4,0 0,-7 1.5,0 Z" fill-rule="evenodd" fill="#000000" />
</svg>