<svg xmlns="http://www.w3.org/2000/svg" viewBox="0 0 48 48">
  <path id="bump" d="M 45,27.5 l 0,-5 -10.27,0 -0.28,-0.76 -0.73,-1.56 -0.94,-1.41 -1.13,-1.23 -1.29,-1.05 -1.44,-0.85 -1.56,-0.62 -1.64,-0.39 -1.72,-0.13 -1.72,0.13 -1.64,0.39 -1.56,0.62 -1.44,0.85 -1.29,1.05 -1.13,1.23 -0.94,1.41 -0.73,1.56 -0.28,0.76 -10.27,0 0,5 11.67,0 0.9,-0.14 0.8,-0.39 0.64,-0.61 0.45,-0.79 0.77,-2.07 0.41,-0.87 0.51,-0.77 0.63,-0.68 0.71,-0.58 0.8,-0.47 0.85,-0.34 0.91,-0.22 0.95,-0.07 0.95,0.07 0.91,0.22 0.85,0.34 0.8,0.47 0.71,0.58 0.63,0.68 0.51,0.77 0.41,0.87 0.77,2.07 0.45,0.79 0.64,0.61 0.8,0.39 0.9,0.14 Z" fill-rule="evenodd" fill="#000000" />
</svg>