<svg xmlns="http://www.w3.org/2000/svg" viewBox="0 0 48 48">
  <path id="bumps" d="M 46,28.5 l 0,-5 -0.1,0 -1.36,-0.13 -1.29,-0.4 -1.19,-0.63 -1.05,-0.87 -0.88,-0.72 -0.97,-0.53 -1.04,-0.34 -1.07,-0.14 -1.08,0.06 -1.06,0.26 -1.01,0.45 -0.93,0.66 -1.82,1.55 -0.43,0.25 -0.49,0.06 -0.47,-0.12 -0.41,-0.3 -1.17,-1.02 -1.31,-0.73 -1.41,-0.44 -1.46,-0.15 -1.46,0.15 -1.41,0.44 -1.31,0.73 -1.17,1.02 -0.11,0.12 -0.21,0.08 -0.19,-0.11 -1.25,-1.87 -0.99,-1.15 -1.19,-0.84 -1.32,-0.52 -1.39,-0.2 -1.41,0.12 -1.34,0.45 -1.24,0.77 -1.05,1.1 -0.56,0.74 -0.88,0.93 -1.06,0.69 -1.19,0.43 -1.27,0.15 0,5 1.23,-0.07 1.2,-0.21 1.16,-0.35 1.11,-0.48 1.04,-0.6 0.98,-0.72 0.89,-0.83 0.79,-0.94 0.56,-0.74 0.41,-0.34 0.49,-0.1 0.48,0.13 0.39,0.35 1.25,1.87 0.8,0.95 0.96,0.7 1.06,0.46 1.14,0.22 1.15,-0.04 1.13,-0.29 1.05,-0.54 0.94,-0.81 0.11,-0.12 0.37,-0.32 0.41,-0.23 0.9,-0.18 0.9,0.18 0.41,0.23 0.37,0.32 0.93,0.83 1.04,0.61 1.12,0.4 1.17,0.18 1.18,-0.04 1.16,-0.26 1.11,-0.49 1.02,-0.72 1.81,-1.55 0.3,-0.17 0.34,-0.05 0.33,0.07 0.28,0.2 0.88,0.79 0.94,0.7 1,0.6 1.05,0.49 1.09,0.39 1.13,0.29 1.16,0.17 1.18,0.06 Z" fill-rule="evenodd" fill="#000000" />
</svg>