<svg xmlns="http://www.w3.org/2000/svg" viewBox="0 0 24 24">
  <path id="bus" d="M 4,7 l 0.08,-0.81 0.23,-0.75 0.37,-0.68 0.49,-0.59 0.59,-0.49 0.68,-0.37 0.75,-0.23 0.81,-0.08 8,0 0.81,0.08 0.75,0.23 0.68,0.37 0.59,0.49 0.49,0.59 0.37,0.68 0.23,0.75 0.08,0.81 0,1 1,0 0,4 -1,0 0,7.5 -0.12,0.58 -0.32,0.48 -0.48,0.32 -0.58,0.12 -1,0 -0.58,-0.12 -0.48,-0.32 -0.32,-0.48 -0.12,-0.58 0,-1.5 -8,0 0,1.5 -0.12,0.58 -0.32,0.48 -0.48,0.32 -0.58,0.12 -1,0 -0.58,-0.12 -0.48,-0.32 -0.32,-0.48 -0.12,-0.58 0,-7.5 -1,0 0,-4 1,0 0,-1 Z M 6,11 l 12,0 0,-4 -0.16,-0.78 -0.43,-0.63 -0.63,-0.43 -0.78,-0.16 -2,0 0,1 -0.08,0.39 -0.21,0.32 -0.32,0.21 -0.39,0.08 -2,0 -0.39,-0.08 -0.32,-0.21 -0.21,-0.32 -0.08,-0.39 0,-1 -2,0 -0.78,0.16 -0.63,0.43 -0.43,0.63 -0.16,0.78 0,4 Z M 15,13 l -0.39,0.08 -0.32,0.21 -0.21,0.32 -0.08,0.39 0.08,0.39 0.21,0.32 0.32,0.21 0.39,0.08 2,0 0.39,-0.08 0.32,-0.21 0.21,-0.32 0.08,-0.39 -0.08,-0.39 -0.21,-0.32 -0.32,-0.21 -0.39,-0.08 -2,0 Z M 6,14 l 0.08,0.39 0.21,0.32 0.32,0.21 0.39,0.08 2,0 0.39,-0.08 0.32,-0.21 0.21,-0.32 0.08,-0.39 -0.08,-0.39 -0.21,-0.32 -0.32,-0.21 -0.39,-0.08 -2,0 -0.39,0.08 -0.32,0.21 -0.21,0.32 -0.08,0.39 Z" fill-rule="evenodd" fill="#000000" />
</svg>