<svg xmlns="http://www.w3.org/2000/svg" viewBox="0 0 24 24">
  <path id="busTilted" d="M 2.63,9.32 l -0.03,-0.81 0.13,-0.78 0.27,-0.72 0.4,-0.66 0.52,-0.56 0.62,-0.46 0.71,-0.33 0.79,-0.2 7.92,-1.1 0.81,-0.03 0.78,0.12 0.72,0.27 0.66,0.41 0.56,0.52 0.46,0.62 0.34,0.71 0.19,0.79 0.14,0.99 0.99,-0.14 0.55,3.96 -0.99,0.14 0.29,2.05 0.39,0.36 0.15,0.53 0,5 -0.08,0.39 -0.21,0.32 -0.32,0.21 -0.39,0.08 -2,0 -0.39,-0.08 -0.32,-0.21 -0.21,-0.32 -0.08,-0.39 0,-1.44 -8,1.12 0,0.32 -0.08,0.39 -0.21,0.32 -0.32,0.21 -0.39,0.08 -2,0 -0.39,-0.08 -0.32,-0.21 -0.21,-0.32 -0.08,-0.39 0,-0.89 -0.68,-4.84 -0.99,0.14 -0.55,-3.96 0.99,-0.14 -0.14,-0.99 Z M 5.17,13 l 11.88,-1.66 -0.55,-3.96 -0.26,-0.75 -0.52,-0.57 -0.69,-0.33 -0.79,-0.05 -1.98,0.27 0.14,0.99 -0.03,0.4 -0.16,0.35 -0.29,0.25 -0.37,0.13 -1.98,0.28 -0.4,-0.02 -0.35,-0.17 -0.25,-0.29 -0.13,-0.37 -0.14,-0.99 -1.98,0.27 -0.75,0.27 -0.57,0.51 -0.34,0.69 -0.05,0.79 0.56,3.96 Z M 5.58,15.97 l 0.13,0.38 0.26,0.28 0.34,0.17 0.4,0.03 1.98,-0.28 0.38,-0.13 0.28,-0.26 0.17,-0.34 0.02,-0.4 -0.13,-0.37 -0.25,-0.29 -0.35,-0.17 -0.4,-0.02 -1.98,0.28 -0.37,0.13 -0.29,0.25 -0.16,0.35 -0.03,0.39 Z M 14.36,13.74 l -0.38,0.13 -0.28,0.26 -0.17,0.34 -0.03,0.4 0.14,0.37 0.25,0.29 0.35,0.17 0.39,0.02 1.98,-0.28 0.38,-0.13 0.28,-0.25 0.17,-0.35 0.03,-0.4 -0.14,-0.37 -0.25,-0.28 -0.35,-0.17 -0.39,-0.03 -1.98,0.28 Z" fill-rule="evenodd" fill="#000000" />
</svg>