<svg xmlns="http://www.w3.org/2000/svg" viewBox="0 0 24 24">
  <path id="cableSection" d="M 10.29,2.88 l 0.27,0.02 0.84,0.11 0.99,0.27 1.07,0.44 1.1,0.6 1.06,0.77 0.97,0.95 0.81,1.14 0.6,1.32 0.41,1.64 0.13,1.55 -0.12,1.44 -0.35,1.3 -0.54,1.16 -0.71,0.99 -0.86,0.81 -0.96,0.61 -1.14,0.46 -1.14,0.26 -1.14,0.05 -1.12,-0.15 -1.07,-0.37 -1.02,-0.59 -0.96,-0.8 -0.86,-1.03 -0.2,-0.44 -0.01,-0.42 0.16,-0.36 0.29,-0.27 0.37,-0.13 0.44,0.05 0.46,0.25 0.44,0.49 0.4,0.48 0.53,0.43 0.62,0.35 0.71,0.26 0.77,0.12 0.81,-0.02 0.83,-0.21 0.83,-0.41 0.77,-0.55 0.66,-0.6 0.55,-0.67 0.43,-0.73 0.31,-0.79 0.18,-0.87 0.05,-0.94 -0.1,-1.02 -0.25,-1 -0.4,-0.87 -0.52,-0.75 -0.58,-0.62 -0.63,-0.49 -0.62,-0.36 -0.57,-0.22 -0.49,-0.09 -0.02,-0.44 -0.14,-0.51 -0.37,-0.54 -0.31,-0.27 -0.41,-0.26 0.36,0.54 0.13,0.67 -0.14,0.67 -0.37,0.56 -0.55,0.37 -0.68,0.14 -0.67,-0.14 -0.56,-0.37 -0.37,-0.56 -0.14,-0.67 0.14,-0.68 0.37,-0.55 0.56,-0.38 0.67,-0.13 Z M 5,18.5 l -0.26,-0.46 -0.06,-0.44 0.1,-0.37 0.22,-0.31 0.3,-0.22 0.34,-0.1 0.33,0.02 0.28,0.17 0.27,0.32 0.34,0.42 0.42,0.5 0.55,0.52 0.7,0.5 0.88,0.44 1.09,0.33 1.33,0.18 1.07,-0.01 0.9,-0.15 0.76,-0.25 0.64,-0.33 1.01,-0.71 0.79,-0.55 -0.24,0.58 -0.34,0.6 -0.46,0.59 -0.59,0.54 -0.72,0.48 -0.88,0.37 -1.05,0.25 -1.22,0.09 -1.22,-0.05 -1.06,-0.15 -0.91,-0.24 -0.8,-0.34 -0.71,-0.42 -0.63,-0.52 -1.17,-1.28 Z M 12.31,6.35 l 0.22,0.02 0.42,0.09 0.49,0.23 0.52,0.35 0.51,0.48 0.49,0.59 0.41,0.71 0.32,0.83 0.18,0.92 0,0.95 -0.2,0.86 -0.35,0.77 -0.47,0.68 -0.55,0.58 -0.6,0.48 -0.61,0.36 -0.59,0.25 0.28,-0.3 0.4,-0.48 0.45,-0.63 0.4,-0.73 0.27,-0.77 0.05,-0.77 -0.25,-0.73 -0.26,-0.34 -0.38,-0.3 0.08,-0.11 0.26,-0.27 0.29,-0.46 0.19,-0.67 -0.01,-0.71 -0.29,-0.6 0.07,0.46 -0.14,0.68 -0.37,0.55 -0.56,0.38 -0.67,0.13 -0.68,-0.13 -0.55,-0.38 -0.38,-0.55 -0.13,-0.68 0.13,-0.67 0.38,-0.56 0.55,-0.37 0.68,-0.14 Z M 8.2,6.35 l 0.67,0.14 0.55,0.37 0.38,0.56 0.13,0.67 -0.13,0.68 -0.38,0.55 -0.55,0.38 -0.67,0.13 -0.68,-0.13 -0.55,-0.38 -0.38,-0.55 -0.13,-0.68 0.13,-0.67 0.38,-0.56 0.55,-0.37 0.68,-0.14 Z" fill-rule="evenodd" fill="#000000" />
</svg>