<svg xmlns="http://www.w3.org/2000/svg" viewBox="0 0 24 24">
  <path id="cameraFocusOnVehicle1" d="M 12,6 l 0.93,0.02 0.75,0.05 0.51,0.05 0.19,0.02 1.2,0.2 0.52,0.27 0.34,0.48 1,2.41 0.21,0.35 0.31,0.27 0.24,0.15 0.37,0.35 0.21,0.45 0.18,0.68 0.04,0.33 0,1.75 -0.02,0.22 -0.13,0.79 -0.11,0.26 -0.18,0.24 -0.46,0.39 0,1.62 -0.06,0.27 -0.15,0.21 -0.22,0.14 -0.27,0.06 -0.7,0 -0.27,-0.06 -0.22,-0.14 -0.15,-0.21 -0.06,-0.27 0,-1.35 -1.5,0 -1,-0.5 -3,0 -1,0.5 -1.5,0 0,1.35 -0.06,0.27 -0.15,0.21 -0.22,0.14 -0.27,0.06 -0.7,0 -0.27,-0.06 -0.22,-0.14 -0.15,-0.21 -0.06,-0.27 0,-1.62 -0.46,-0.39 -0.18,-0.24 -0.1,-0.26 -0.14,-0.79 -0.02,-0.22 0,-1.75 0.04,-0.33 0.18,-0.68 0.21,-0.45 0.37,-0.35 0.24,-0.15 0.31,-0.27 0.21,-0.35 1,-2.41 0.34,-0.48 0.52,-0.27 1.2,-0.2 0.19,-0.02 0.51,-0.05 0.75,-0.05 0.93,-0.02 Z M 12,9.76 l 2.12,0.03 1.16,0.04 1.27,0.06 -0.9,-2.32 -0.22,-0.29 -0.36,-0.14 -3.07,-0.16 -3.07,0.16 -0.36,0.14 -0.22,0.29 -0.9,2.32 1.27,-0.06 1.16,-0.04 2.12,-0.03 Z M 19.5,19 l 0,-2 1.5,0 0,2 -0.16,0.78 -0.43,0.63 -0.63,0.43 -0.78,0.16 -2,0 0,-1.5 2,0 0.35,-0.15 0.15,-0.35 Z M 3,19 l 0,-2 1.5,0 0,2 0.15,0.35 0.35,0.15 2,0 0,1.5 -2,0 -0.78,-0.16 -0.63,-0.43 -0.43,-0.63 -0.16,-0.78 Z M 19,3 l 0.78,0.16 0.63,0.43 0.43,0.63 0.16,0.78 0,2 -1.5,0 0,-2 -0.15,-0.35 -0.35,-0.15 -2,0 0,-1.5 2,0 Z M 7,3 l 0,1.5 -2,0 -0.35,0.15 -0.15,0.35 0,2 -1.5,0 0,-2 0.16,-0.78 0.43,-0.63 0.63,-0.43 0.78,-0.16 2,0 Z M 7.26,11.45 l -0.36,-0.02 -0.33,0.1 -0.27,0.22 -0.18,0.3 -0.04,0.44 0.17,0.39 0.33,0.28 0.45,0.11 1.38,0 0.31,-0.06 0.25,-0.16 0.17,-0.25 0.06,-0.29 -0.17,-0.47 -0.43,-0.27 -1.34,-0.32 Z M 16.74,11.45 l -1.34,0.32 -0.43,0.27 -0.17,0.47 0.06,0.29 0.17,0.25 0.25,0.16 0.31,0.06 1.38,0 0.45,-0.11 0.33,-0.28 0.17,-0.39 -0.04,-0.44 -0.18,-0.3 -0.27,-0.22 -0.33,-0.1 -0.36,0.02 Z" fill-rule="evenodd" fill="#000000" />
</svg>