<svg xmlns="http://www.w3.org/2000/svg" viewBox="0 0 24 24">
  <path id="cameraFocusOnVehicle2" d="M 21,13.5 l -0.15,0.35 -0.35,0.15 -1.5,0 -0.16,0.78 -0.43,0.63 -0.63,0.43 -0.78,0.16 -0.78,-0.16 -0.63,-0.43 -0.43,-0.63 -0.16,-0.78 -6,0 -0.16,0.78 -0.43,0.63 -0.63,0.43 -0.78,0.16 -0.78,-0.16 -0.63,-0.43 -0.43,-0.63 -0.16,-0.78 -1.5,0 -0.35,-0.15 -0.15,-0.35 0,-1.45 0.15,-1 0.43,-0.93 0.48,-0.56 0.58,-0.46 1.9,-1.19 0.74,-0.39 0.79,-0.29 0.81,-0.17 0.84,-0.06 2.45,0 0.77,0.15 0.65,0.44 2.31,2.31 0.23,0.13 3.65,0.91 0.19,0.1 0.13,0.17 0.85,1.68 0.05,0.23 0,0.38 Z M 19.5,19 l 0,-2 1.5,0 0,2 -0.16,0.78 -0.43,0.63 -0.63,0.43 -0.78,0.16 -2,0 0,-1.5 2,0 0.35,-0.15 0.15,-0.35 Z M 3,19 l 0,-2 1.5,0 0,2 0.15,0.35 0.35,0.15 2,0 0,1.5 -2,0 -0.78,-0.16 -0.63,-0.43 -0.43,-0.63 -0.16,-0.78 Z M 21,5 l 0,2 -1.5,0 0,-2 -0.15,-0.35 -0.35,-0.15 -2,0 0,-1.5 2,0 0.78,0.16 0.63,0.43 0.43,0.63 0.16,0.78 Z M 7,3 l 0,1.5 -2,0 -0.35,0.15 -0.15,0.35 0,2 -1.5,0 0,-2 0.16,-0.78 0.43,-0.63 0.63,-0.43 0.78,-0.16 2,0 Z" fill-rule="evenodd" fill="#000000" />
</svg>