<svg xmlns="http://www.w3.org/2000/svg" viewBox="0 0 24 24">
  <path id="cameraNearClip" d="M 12,3 l 1.5,0 0,2.85 5.5,-3.85 2,0 0,20 -2,0 -5.5,-3.85 0,2.85 -1.5,0 0,-18 Z M 7,9.5 l 0.21,-0.01 0.1,0.18 0,4.66 -0.1,0.18 -0.21,-0.01 -2,-1.5 -0.08,0.39 -0.21,0.32 -0.32,0.21 -0.39,0.08 -0.97,0 -0.39,-0.08 -0.32,-0.21 -0.21,-0.32 -0.08,-0.39 0,-2 0.08,-0.39 0.21,-0.32 0.32,-0.21 0.39,-0.08 0.97,0 0.39,0.08 0.32,0.21 0.21,0.32 0.08,0.39 2,-1.5 Z M 10.5,7.95 l 0,2.05 -1.5,1 0,-2 1.5,-1.05 Z M 10.5,14 l 0,2.05 -1.5,-1.05 0,-2 1.5,1 Z" fill-rule="evenodd" fill="#000000" />
</svg>