<svg xmlns="http://www.w3.org/2000/svg" viewBox="0 0 24 24">
  <path id="cameraFocusOnPath" d="M 3,19 l 0,-4 1.5,0 0,4 0.15,0.35 0.35,0.15 0.5,0 0,-0.84 0.11,-1.08 0.31,-1.03 0.5,-0.94 0.69,-0.84 0.68,-0.68 1.21,0.91 0.91,1.21 -0.68,0.68 -0.31,0.38 -0.23,0.43 -0.19,0.96 0,0.84 0.5,0 0,1.5 -4,0 -0.78,-0.16 -0.63,-0.43 -0.43,-0.63 -0.16,-0.78 Z M 21,4.71 l -0.07,0.86 -0.21,0.84 -0.33,0.79 -0.46,0.73 -0.54,0.62 -0.62,0.52 -0.69,0.42 -0.75,0.32 -0.96,0.31 -0.52,0.25 -0.46,0.36 -0.08,0.08 0.19,-1.31 -1,-1 -1.31,0.19 0.08,-0.08 1,-0.79 1.15,-0.54 0.96,-0.32 0.64,-0.33 0.51,-0.5 0.35,-0.67 0.12,-0.75 0,-1.71 3,0 0,1.71 Z M 14,10 l -1,6 -1,1 -2,-3 -3,-2 1,-1 6,-1 Z M 19,19.5 l 0.35,-0.15 0.15,-0.35 0,-4 1.5,0 0,4 -0.16,0.78 -0.43,0.63 -0.63,0.43 -0.78,0.16 -4,0 0,-1.5 4,0 Z M 9,3 l 0,1.5 -4,0 -0.35,0.15 -0.15,0.35 0,4 -1.5,0 0,-4 0.16,-0.78 0.43,-0.63 0.63,-0.43 0.78,-0.16 4,0 Z M 14,3 l 2,0 0,1.5 -2,0 0,-1.5 Z" fill-rule="evenodd" fill="#000000" />
</svg>