<svg xmlns="http://www.w3.org/2000/svg" viewBox="0 0 24 24">
  <path id="cameraFarClip" d="M 15.5,4.45 l 0,-2.45 1.5,0 0,20 -1.5,0 0,-2.45 -6.5,-4.55 0,-6 6.5,-4.55 Z M 5.5,11 l 1.5,-1.5 0.21,-0.01 0.1,0.18 0,4.66 -0.1,0.18 -0.21,-0.01 -2,-1.5 -0.08,0.39 -0.21,0.32 -0.32,0.21 -0.39,0.08 -0.97,0 -0.39,-0.08 -0.32,-0.21 -0.21,-0.32 -0.08,-0.39 0,-2 0.08,-0.39 0.21,-0.32 0.32,-0.21 0.39,-0.08 0.97,0 0.39,0.08 0.32,0.21 0.21,0.32 0.08,0.39 0.5,0 Z M 18.5,21.65 l 0,-2.32 2.5,1.67 0,1 -2,0 -0.5,-0.35 Z M 18.5,2.35 l 0.5,-0.35 2,0 0,1 -2.5,1.67 0,-2.32 Z" fill-rule="evenodd" fill="#000000" />
</svg>