<svg xmlns="http://www.w3.org/2000/svg" viewBox="0 0 24 24">
  <path id="cameraFocusTopDown" d="M 17,16.39 l -0.05,0.22 -0.13,0.17 -0.19,0.09 -0.23,0.01 -4.3,-0.86 -0.2,0 -4.3,0.86 -0.23,-0.01 -0.19,-0.09 -0.13,-0.17 -0.05,-0.22 0,-2.89 0.06,-0.24 4.5,-7.47 0.19,-0.2 0.25,-0.06 0.25,0.06 0.19,0.2 4.5,7.47 0.06,0.24 0,2.89 Z M 19.5,19 l 0,-2 1.5,0 0,2 -0.16,0.78 -0.43,0.63 -0.63,0.43 -0.78,0.16 -2,0 0,-1.5 2,0 0.35,-0.15 0.15,-0.35 Z M 3,19 l 0,-2 1.5,0 0,2 0.15,0.35 0.35,0.15 2,0 0,1.5 -2,0 -0.78,-0.16 -0.63,-0.43 -0.43,-0.63 -0.16,-0.78 Z M 21,5 l 0,2 -1.5,0 0,-2 -0.15,-0.35 -0.35,-0.15 -2,0 0,-1.5 2,0 0.78,0.16 0.63,0.43 0.43,0.63 0.16,0.78 Z M 7,3 l 0,1.5 -2,0 -0.35,0.15 -0.15,0.35 0,2 -1.5,0 0,-2 0.16,-0.78 0.43,-0.63 0.63,-0.43 0.78,-0.16 2,0 Z" fill-rule="evenodd" fill="#000000" />
</svg>