<svg xmlns="http://www.w3.org/2000/svg" viewBox="0 0 24 24">
  <path id="cannon" d="M 9.85,9.85 l 0.14,-0.42 0.27,-0.32 0.36,-0.22 0.43,-0.08 0.4,0.07 0.35,0.19 0.27,0.29 0.16,0.37 0.77,3.08 3,0 0.39,0.08 0.32,0.21 0.21,0.32 0.08,0.39 0,1.08 0.47,-0.2 0.53,-0.07 0.78,0.16 0.63,0.42 0.43,0.64 0.16,0.78 -0.16,0.78 -0.43,0.63 -0.63,0.43 -0.78,0.16 -0.53,-0.07 -0.48,-0.21 -0.41,-0.31 -0.31,-0.41 -8.54,0 -0.31,0.41 -0.41,0.31 -0.48,0.21 -0.53,0.07 -0.78,-0.16 -0.63,-0.43 -0.43,-0.63 -0.16,-0.78 0.16,-0.78 0.43,-0.64 0.63,-0.42 0.78,-0.16 0.53,0.07 0.48,0.2 0.41,0.32 0.31,0.41 1.27,0 0.85,-5.77 Z M 13.87,10.39 l -0.61,-1.37 -0.44,-0.68 -0.62,-0.48 -0.74,-0.27 -0.81,-0.02 -0.71,0.22 -0.6,0.4 -0.46,0.55 -0.28,0.68 -0.87,3.49 -0.16,0.23 -0.28,0.09 -0.5,-0.09 -0.46,-0.2 -0.63,-0.56 -0.38,-0.76 -0.57,-2.13 -0.05,-0.84 0.27,-0.81 0.3,-0.4 0.38,-0.32 0.5,-0.33 0.87,-0.5 0.93,-0.39 0.96,-0.27 1,-0.14 7.07,-0.58 -0.02,-0.25 0.08,-0.24 0.16,-0.18 0.23,-0.11 0.35,-0.1 0.4,-0.02 0.36,0.12 0.29,0.26 0.18,0.35 1.03,3.87 0.03,0.39 -0.13,0.36 -0.25,0.29 -0.36,0.18 -0.35,0.09 -0.25,0.02 -0.23,-0.08 -0.18,-0.16 -0.12,-0.23 -2.99,1.42 -0.39,0.09 -0.38,-0.06 -0.34,-0.2 -0.23,-0.33 Z" fill-rule="evenodd" fill="#000000" />
</svg>