<svg xmlns="http://www.w3.org/2000/svg" viewBox="0 0 24 24">
  <path id="car" d="M 2.31,10.75 l 0.31,-0.67 0.52,-0.51 0.34,-0.23 0.45,-0.4 0.3,-0.52 1.43,-3.56 0.2,-0.38 0.28,-0.33 0.35,-0.25 0.4,-0.15 1.15,-0.22 1.25,-0.15 2.71,-0.13 2.71,0.13 1.25,0.15 1.15,0.22 0.4,0.15 0.35,0.25 0.28,0.33 0.2,0.38 1.43,3.56 0.3,0.52 0.45,0.4 0.34,0.23 0.52,0.51 0.31,0.67 0.25,1.01 0.06,0.49 0,2.58 -0.03,0.33 -0.19,1.17 -0.27,0.72 -0.51,0.55 0,2.4 -0.08,0.39 -0.21,0.32 -0.32,0.21 -0.39,0.08 -1,0 -0.39,-0.08 -0.32,-0.21 -0.21,-0.32 -0.08,-0.39 0,-2 -2,0 -1,-0.5 -6,0 -1,0.5 -2,0 0,2 -0.08,0.39 -0.21,0.32 -0.32,0.21 -0.39,0.08 -1,0 -0.39,-0.08 -0.32,-0.21 -0.21,-0.32 -0.08,-0.39 0,-2.4 -0.51,-0.55 -0.27,-0.72 -0.19,-1.17 -0.03,-0.33 0,-2.58 0.06,-0.49 0.25,-1.01 Z M 6.78,5.57 l -1.28,3.43 1.83,-0.09 1.66,-0.06 3.05,-0.03 3.03,0.06 1.64,0.05 1.79,0.07 -1.28,-3.43 -0.33,-0.43 -0.5,-0.2 -2.27,-0.18 -2.17,-0.06 -2.14,0.06 -2.2,0.17 -0.5,0.21 -0.33,0.43 Z M 3.6,12.2 l -0.05,0.66 0.24,0.57 0.47,0.41 0.64,0.16 1.98,0 0.43,-0.09 0.36,-0.24 0.24,-0.36 0.09,-0.43 -0.06,-0.37 -0.18,-0.32 -0.27,-0.25 -0.34,-0.15 -1.92,-0.48 -0.52,-0.03 -0.47,0.15 -0.39,0.32 -0.25,0.45 Z M 18.77,11.31 l -1.92,0.48 -0.34,0.15 -0.27,0.25 -0.18,0.32 -0.06,0.37 0.09,0.43 0.24,0.36 0.36,0.24 0.43,0.09 1.98,0 0.64,-0.16 0.47,-0.41 0.24,-0.57 -0.05,-0.66 -0.25,-0.45 -0.39,-0.32 -0.47,-0.15 -0.52,0.03 Z" fill-rule="evenodd" fill="#000000" />
</svg>