<svg xmlns="http://www.w3.org/2000/svg" viewBox="0 0 24 24">
  <path id="carCoin" d="M 17.5,2 l 0.91,0.12 0.84,0.35 0.77,0.55 0.66,0.74 0.55,0.89 0.42,1.01 0.26,1.13 0.09,1.21 -0.08,1.1 -0.22,1.04 -0.34,0.95 -0.47,0.85 0.05,0.21 0.06,0.47 0,2.48 -0.03,0.31 -0.18,1.12 -0.26,0.69 -0.48,0.53 0,2.29 -0.07,0.38 -0.21,0.3 -0.3,0.2 -0.37,0.08 -0.95,0 -0.37,-0.08 -0.3,-0.2 -0.21,-0.3 -0.07,-0.38 0,-1.91 -1.9,0 -0.95,-0.48 -5.7,0 -0.95,0.48 -1.9,0 0,1.91 -0.07,0.38 -0.21,0.3 -0.3,0.2 -0.37,0.08 -0.95,0 -0.37,-0.08 -0.3,-0.2 -0.21,-0.3 -0.07,-0.38 0,-2.29 -0.48,-0.53 -0.26,-0.69 -0.18,-1.12 -0.03,-0.31 0,-2.48 0.06,-0.47 0.24,-0.97 0.29,-0.64 0.5,-0.49 0.32,-0.21 0.42,-0.39 0.29,-0.5 1.35,-3.41 0.46,-0.68 0.33,-0.23 0.39,-0.15 1.22,-0.23 1.36,-0.16 2.91,-0.08 0.69,-0.84 0.8,-0.63 0.9,-0.4 0.97,-0.14 2,0 Z M 20.5,8 l -0.07,-0.98 -0.21,-0.9 -0.33,-0.79 -0.41,-0.67 -0.47,-0.52 -0.5,-0.36 -0.5,-0.21 -0.51,-0.07 -0.51,0.07 -0.5,0.21 -0.5,0.36 -0.47,0.52 -0.41,0.67 -0.33,0.79 -0.21,0.9 -0.07,0.98 0.07,0.98 0.21,0.9 0.33,0.79 0.41,0.67 0.47,0.52 0.5,0.36 0.5,0.21 0.51,0.07 0.51,-0.07 0.5,-0.21 0.5,-0.36 0.47,-0.52 0.41,-0.67 0.33,-0.79 0.21,-0.9 0.07,-0.98 Z M 11.11,9.33 l -0.11,-1.33 0.12,-1.36 0.33,-1.25 -2.04,0.06 -2.08,0.16 -0.48,0.2 -0.3,0.42 -1.22,3.28 1.61,-0.09 1.47,-0.05 2.7,-0.04 Z M 3.52,12.57 l -0.05,0.63 0.23,0.55 0.45,0.4 0.6,0.15 1.88,0 0.42,-0.09 0.34,-0.23 0.23,-0.34 0.08,-0.42 -0.06,-0.35 -0.17,-0.31 -0.25,-0.24 -0.33,-0.14 -1.82,-0.46 -0.49,-0.03 -0.45,0.15 -0.37,0.3 -0.24,0.43 Z M 16,7 l 1,-1.5 1,0 0.35,0.15 0.15,0.35 0,4 -0.15,0.35 -0.35,0.15 -0.5,0 -0.35,-0.15 -0.15,-0.35 0,-2.5 -1,0.59 0,-1.09 Z" fill-rule="evenodd" fill="#000000" />
</svg>