<svg xmlns="http://www.w3.org/2000/svg" viewBox="0 0 24 24">
  <path id="carCrash" d="M 3,15.64 l 0.09,-0.51 0.26,-0.44 0.19,-0.21 0.22,-0.36 0.12,-0.4 0.31,-2.67 0.2,-0.57 0.44,-0.4 0.73,-0.36 0.82,-0.33 1.81,-0.58 1.85,-0.4 1.7,-0.18 0.58,0.13 0.45,0.39 1.61,2.15 0.3,0.3 0.37,0.19 0.28,0.09 0.44,0.25 0.33,0.4 0.35,0.64 0.13,0.31 0.47,1.75 0.04,0.23 0.08,0.82 -0.05,0.54 -0.24,0.47 0.43,1.62 0.02,0.27 -0.09,0.26 -0.17,0.2 -0.25,0.12 -0.68,0.19 -0.28,0.01 -0.25,-0.08 -0.2,-0.18 -0.13,-0.25 -0.36,-1.35 -1.35,0.36 -0.77,-0.16 -4.06,1.09 -0.58,0.52 -1.35,0.36 0.3,1.13 2.39,0 0.35,0.15 0.15,0.35 -0.15,0.35 -0.35,0.15 -5,0 -0.35,-0.15 -0.15,-0.35 0.15,-0.35 0.35,-0.15 0.44,0 -0.23,-0.85 -0.45,-0.28 -0.31,-0.44 -0.34,-0.76 -0.08,-0.21 -0.47,-1.75 -0.05,-0.34 -0.01,-0.73 Z M 12.62,6.68 l -0.32,0.11 -0.33,0.01 -0.98,0.01 -0.4,-0.02 -0.37,-0.15 -0.29,-0.26 -0.18,-0.36 -0.59,-2.39 0.01,-0.16 0.09,-0.11 0.28,0 2.46,1.64 2.2,-2.64 0.24,-0.08 0.19,0.17 0.87,3.05 4.98,-1.81 0.26,0.06 0.05,0.27 -1.79,4.48 2.55,1.28 0.14,0.22 -0.14,0.22 -2.86,1.43 -0.28,0.08 -0.28,-0.04 -0.26,-0.14 -0.19,-0.23 -0.06,-0.28 0.12,-0.49 -1.29,-0.83 0,-1.99 -2.3,0 -0.49,-1.61 -1.04,0.56 Z M 5.09,11.33 l -0.25,2.55 1.22,-0.4 1.11,-0.34 2.06,-0.57 2.06,-0.51 1.11,-0.26 1.23,-0.28 -1.49,-2.08 -0.3,-0.24 -0.37,-0.04 -1.57,0.29 -1.48,0.35 -2.89,0.95 -0.31,0.22 -0.13,0.36 Z M 4.13,16.39 l 0.09,0.45 0.26,0.34 0.4,0.2 0.46,-0.01 1.34,-0.36 0.27,-0.14 0.2,-0.23 0.1,-0.28 -0.02,-0.31 -0.28,-0.43 -0.49,-0.16 -1.39,0.03 -0.35,0.07 -0.29,0.19 -0.21,0.29 -0.09,0.35 Z M 14.23,13.03 l -1.21,0.68 -0.34,0.38 -0.04,0.51 0.14,0.28 0.23,0.19 0.28,0.1 0.31,-0.02 1.34,-0.36 0.41,-0.22 0.24,-0.36 0.06,-0.44 -0.16,-0.43 -0.25,-0.26 -0.32,-0.14 -0.35,-0.02 -0.34,0.11 Z" fill-rule="evenodd" fill="#000000" />
</svg>