<svg xmlns="http://www.w3.org/2000/svg" viewBox="0 0 24 24">
  <path id="carClock" d="M 13.46,4.91 l -0.49,0.48 -0.4,0.55 -0.3,0.62 -0.19,0.66 -0.08,0.68 0.04,0.69 0.16,0.66 0.27,0.64 0.38,0.57 0.46,0.5 0.55,0.42 0.61,0.32 0.66,0.2 0.67,0.1 0.69,-0.03 0.67,-0.14 0.89,-0.4 0.76,-0.59 0.33,-0.38 0.36,-0.51 0.27,-0.29 0.35,-0.17 0.38,-0.01 0.37,0.13 0.3,0.27 0.16,0.35 0.02,0.38 -0.14,0.37 -0.41,0.6 0.14,0.57 0.06,0.47 0,2.48 -0.03,0.31 -0.18,1.12 -0.26,0.69 -0.48,0.53 0,2.29 -0.07,0.38 -0.21,0.3 -0.3,0.2 -0.37,0.08 -0.95,0 -0.37,-0.08 -0.3,-0.2 -0.21,-0.3 -0.07,-0.38 0,-1.91 -1.9,0 -0.95,-0.48 -5.7,0 -0.95,0.48 -1.9,0 0,1.91 -0.07,0.38 -0.21,0.3 -0.3,0.2 -0.37,0.08 -0.95,0 -0.37,-0.08 -0.3,-0.2 -0.21,-0.3 -0.07,-0.38 0,-2.29 -0.48,-0.53 -0.26,-0.69 -0.18,-1.12 -0.03,-0.31 0,-2.48 0.06,-0.47 0.24,-0.97 0.29,-0.64 0.5,-0.49 0.32,-0.21 0.42,-0.39 0.29,-0.5 1.35,-3.41 0.46,-0.68 0.33,-0.23 0.39,-0.15 1.09,-0.21 1.2,-0.15 2.59,-0.12 0.66,-0.64 0.86,-0.58 0.93,-0.43 0.99,-0.26 1.03,-0.09 0.38,0.08 0.33,0.21 0.21,0.33 0.08,0.38 0,4.59 0.82,0.81 0.22,0.33 0.07,0.38 -0.07,0.38 -0.22,0.33 -0.33,0.22 -0.38,0.07 -0.38,-0.07 -0.33,-0.22 -1.11,-1.11 -0.21,-0.33 -0.08,-0.38 0,-3.87 -0.81,0.3 -0.73,0.48 Z M 10.15,9.33 l -0.15,-1.24 0.12,-1.26 0.47,-1.43 -3.26,0.21 -0.48,0.2 -0.3,0.42 -1.22,3.28 1.32,-0.07 1.24,-0.05 2.26,-0.06 Z M 5.07,11.72 l -0.49,-0.03 -0.45,0.15 -0.37,0.3 -0.24,0.43 -0.05,0.63 0.23,0.55 0.45,0.4 0.6,0.15 1.88,0 0.42,-0.09 0.34,-0.23 0.23,-0.34 0.08,-0.42 -0.06,-0.35 -0.17,-0.31 -0.25,-0.24 -0.33,-0.14 -1.82,-0.46 Z M 20.24,3.76 l 0.91,1.15 0.59,1.34 0.04,0.39 -0.12,0.37 -0.24,0.3 -0.35,0.19 -0.39,0.03 -0.37,-0.11 -0.3,-0.24 -0.18,-0.35 -0.4,-0.89 -0.6,-0.77 -0.22,-0.33 -0.07,-0.38 0.07,-0.37 0.22,-0.33 0.33,-0.22 0.38,-0.08 0.37,0.08 0.33,0.22 Z" fill-rule="evenodd" fill="#000000" />
</svg>