<svg xmlns="http://www.w3.org/2000/svg" viewBox="0 0 24 24">
  <path id="carDealer" d="M 6.19,11.73 l 0.18,-0.38 0.32,-0.29 0.2,-0.13 0.27,-0.22 0.18,-0.3 0.85,-2 0.29,-0.4 0.46,-0.23 1.44,-0.21 1.62,-0.07 1.62,0.07 1.44,0.21 0.46,0.23 0.29,0.4 0.85,2 0.18,0.3 0.27,0.22 0.2,0.13 0.32,0.29 0.18,0.38 0.15,0.57 0.04,0.27 0,1.46 -0.02,0.18 -0.11,0.66 -0.17,0.41 -0.3,0.31 0,1.35 -0.18,0.4 -0.42,0.16 -0.6,0 -0.42,-0.16 -0.18,-0.4 0,-1.13 -1.2,0 -0.6,-0.28 -3.6,0 -0.6,0.28 -1.2,0 0,1.13 -0.18,0.4 -0.42,0.16 -0.6,0 -0.42,-0.16 -0.18,-0.4 0,-1.35 -0.3,-0.31 -0.17,-0.41 -0.11,-0.66 -0.02,-0.18 0,-1.46 0.04,-0.27 0.15,-0.57 Z M 4.39,17.12 l -0.23,0.12 -0.11,0.09 -0.05,0.17 0.16,0.2 0.47,0.19 0.74,0.17 0.97,0.15 1.19,0.12 1.36,0.09 1.5,0.06 1.61,0.02 1.61,-0.02 1.5,-0.06 1.36,-0.09 1.19,-0.12 0.97,-0.15 0.74,-0.17 0.47,-0.19 0.16,-0.2 -0.05,-0.17 -0.11,-0.09 -0.23,-0.12 -0.04,-0.09 0.08,-0.06 0.57,0.12 0.43,0.13 0.26,0.14 0.09,0.14 0,3 -0.18,0.2 -0.53,0.19 -0.83,0.17 -1.1,0.15 -1.33,0.12 -1.53,0.09 -1.69,0.06 -1.81,0.02 -1.81,-0.02 -1.69,-0.06 -1.53,-0.09 -1.33,-0.12 -1.1,-0.15 -0.83,-0.17 -0.53,-0.19 -0.18,-0.2 0,-3 0.09,-0.14 0.26,-0.14 0.43,-0.13 0.57,-0.12 0.08,0.06 -0.04,0.09 Z M 11.83,5.06 l -7.94,2.8 -0.34,0 -0.26,-0.22 -0.27,-0.48 -0.04,-0.4 0.27,-0.31 7.89,-3.5 0.86,-0.18 0.86,0.18 7.89,3.5 0.27,0.31 -0.04,0.4 -0.27,0.48 -0.26,0.22 -0.34,0 -7.94,-2.8 -0.34,0 Z M 8.87,8.81 l -0.77,1.93 1.1,-0.05 1,-0.04 1.83,-0.01 1.81,0.03 0.99,0.03 1.07,0.04 -0.77,-1.93 -0.19,-0.25 -0.31,-0.11 -2.66,-0.13 -2.6,0.13 -0.31,0.11 -0.19,0.25 Z M 16.06,12.04 l -1.15,0.27 -0.37,0.22 -0.14,0.39 0.05,0.25 0.15,0.2 0.21,0.14 0.26,0.05 1.19,0 0.38,-0.09 0.29,-0.23 0.14,-0.33 -0.03,-0.37 -0.15,-0.25 -0.23,-0.18 -0.29,-0.09 -0.31,0.02 Z M 6.96,12.54 l -0.03,0.37 0.14,0.33 0.29,0.23 0.38,0.09 1.19,0 0.26,-0.05 0.21,-0.14 0.15,-0.2 0.05,-0.25 -0.14,-0.39 -0.37,-0.22 -1.15,-0.27 -0.31,-0.02 -0.29,0.09 -0.23,0.18 -0.15,0.25 Z" fill-rule="evenodd" fill="#000000" />
</svg>