<svg xmlns="http://www.w3.org/2000/svg" viewBox="0 0 24 24">
  <path id="cardboardBoxCoins" d="M 11,3 l 0.14,0.06 -0.02,0.27 0,1.23 -0.12,-0.06 -2.29,1.06 4.03,1.88 -0.04,0.01 -0.67,0.34 -0.61,0.44 -0.08,0.07 -4.26,-1.99 -2.58,1.19 6.01,2.77 0,0.93 0.06,0.54 0.17,0.48 0.54,0.75 0.66,0.53 0.73,0.38 0.8,0.28 0.88,0.21 1.94,0.17 1.93,-0.17 0.88,-0.21 0.8,-0.28 0.1,-0.04 0,2.77 -9,4.39 -9,-4.39 0,-9.77 9,-3.84 Z M 3.5,15.5 l 6.5,3 0,-7 -6.5,-3 0,7 Z M 21.18,3.33 l 0,1.23 -0.09,0.37 -0.25,0.34 -0.4,0.31 -0.52,0.27 -0.63,0.23 -0.73,0.16 -1.66,0.15 -1.67,-0.15 -0.72,-0.16 -0.64,-0.23 -0.52,-0.27 -0.39,-0.31 -0.25,-0.34 -0.09,-0.37 0,-1.23 0.09,-0.37 0.25,-0.34 0.39,-0.31 0.52,-0.27 0.64,-0.23 0.72,-0.17 1.67,-0.14 1.66,0.14 0.73,0.17 0.63,0.23 0.52,0.27 0.4,0.31 0.25,0.34 0.09,0.37 Z M 14.47,6.95 l 1.16,0.24 1.27,0.08 1.45,-0.11 1.3,-0.3 1.11,-0.47 0.86,-0.61 0.58,0.28 0.43,0.32 0.28,0.36 0.1,0.39 0,1.22 -0.09,0.37 -0.25,0.35 -0.39,0.31 -0.52,0.27 -0.64,0.22 -0.72,0.17 -1.67,0.15 -1.66,-0.15 -0.73,-0.17 -0.63,-0.22 -0.53,-0.27 -0.39,-0.31 -0.25,-0.35 -0.09,-0.37 0,-1.22 0.02,-0.18 Z M 20.56,11.05 l 0,0.15 -0.08,0.37 -0.25,0.35 -0.4,0.31 -0.52,0.27 -0.63,0.23 -0.73,0.16 -1.66,0.15 -1.67,-0.15 -0.73,-0.16 -0.63,-0.23 -0.52,-0.27 -0.4,-0.31 -0.24,-0.35 -0.09,-0.37 0,-1.22 0.14,-0.32 0.26,-0.31 0.39,-0.27 0.48,-0.25 0.23,0.49 0.39,0.45 0.54,0.4 0.66,0.35 0.78,0.29 0.88,0.21 0.95,0.14 1.02,0.05 1.83,-0.16 Z" fill-rule="evenodd" fill="#000000" />
</svg>