<svg xmlns="http://www.w3.org/2000/svg" viewBox="0 0 48 48">
  <path id="carFrontRouteOutline" d="M 34.88,23.94 l 2.18,5.29 0.1,0.07 0.82,0.56 0.43,0.43 0.24,0.53 0.05,0.59 -0.17,0.58 -0.34,0.41 -0.49,0.23 -5.69,1.22 -0.18,0.15 -0.13,0.34 0.03,0.24 0.21,0.1 5.2,-0.33 0.21,-0.13 0.2,-0.41 0.18,-0.23 0.25,-0.14 0.29,-0.04 0.28,0.08 0.24,0.18 0.14,0.25 0.04,0.29 -0.08,0.28 -0.2,0.41 -0.26,0.38 -0.34,0.29 -0.41,0.2 -0.45,0.09 -5.19,0.33 -0.46,-0.04 -0.42,-0.14 -0.36,-0.23 -0.29,-0.32 -0.21,-0.37 -0.11,-0.41 0,-0.44 0.11,-0.45 0.14,-0.33 0.21,-0.38 0.28,-0.31 0.36,-0.23 0.41,-0.15 5.5,-1.18 -0.07,-0.1 -0.82,-0.57 -1.17,-0.6 -1.29,-0.29 -2.45,-0.24 -0.07,0 -2.08,0.37 -0.3,0.02 -9.93,0 -0.3,-0.02 -2.07,-0.37 -0.07,0 -2.58,0.29 -1.18,0.27 -1.08,0.55 -0.84,0.56 -0.07,0.13 5.45,1.18 0.4,0.15 0.36,0.23 0.28,0.31 0.21,0.37 0.13,0.34 0.12,0.45 0,0.44 -0.12,0.41 -0.2,0.37 -0.29,0.32 -0.36,0.23 -0.42,0.14 -0.46,0.03 -5.14,-0.32 -0.42,-0.08 -0.37,-0.17 -0.33,-0.25 -0.26,-0.33 -0.3,-0.48 -0.1,-0.28 0.01,-0.28 0.12,-0.27 0.22,-0.2 0.28,-0.1 0.28,0.01 0.26,0.12 0.21,0.21 0.29,0.48 0.2,0.12 5.14,0.33 0.22,-0.11 0.03,-0.24 -0.13,-0.33 -0.18,-0.15 -5.61,-1.22 -0.44,-0.2 -0.33,-0.35 -0.23,-0.6 0.02,-0.63 0.24,-0.58 0.46,-0.45 0.82,-0.55 2.2,-5.33 0.32,-0.64 0.4,-0.57 0.48,-0.5 0.55,-0.43 0.6,-0.34 0.64,-0.25 0.69,-0.16 0.71,-0.05 13.01,0 0.71,0.05 0.68,0.16 0.65,0.25 0.6,0.34 0.55,0.43 0.48,0.5 0.4,0.57 0.32,0.64 Z M 14.47,24.51 l -1.58,3.86 0.95,-0.18 2.57,-0.28 0.5,0.01 2.07,0.37 0.04,0 9.93,0 0.04,0 2.08,-0.37 0.47,-0.02 2.46,0.25 1.07,0.19 -1.58,-3.83 -0.49,-0.83 -0.7,-0.63 -0.86,-0.41 -0.95,-0.14 -13.01,0 -0.95,0.14 -0.86,0.41 -0.7,0.63 -0.5,0.83 Z M 11.13,40.2 l 0.04,-0.29 -0.68,-0.35 -0.66,-0.57 -0.18,-0.23 -0.08,-0.28 0.03,-0.28 0.15,-0.26 0.23,-0.19 0.28,-0.08 0.28,0.04 0.26,0.14 0.66,0.56 0.15,0.06 6.03,0.41 0.19,-0.06 0.78,-0.7 0.54,-0.33 0.63,-0.12 8.41,0 0.63,0.12 0.54,0.33 0.78,0.7 0.18,0.06 6.06,-0.41 0.15,-0.06 0.66,-0.56 0.26,-0.14 0.28,-0.04 0.28,0.08 0.23,0.19 0.15,0.26 0.03,0.28 -0.08,0.28 -0.18,0.23 -0.66,0.57 -0.7,0.36 0.04,0.28 0,2.59 -0.08,0.39 -0.21,0.32 -0.32,0.21 -0.39,0.08 -2.59,0 -0.39,-0.08 -0.32,-0.21 -0.21,-0.32 -0.08,-0.39 0,-2.53 -1.82,0.12 -0.69,-0.09 -0.6,-0.36 -0.78,-0.69 -0.17,-0.07 -8.41,0 -0.17,0.07 -0.78,0.69 -0.6,0.36 -0.69,0.09 -1.82,-0.13 0,2.54 -0.08,0.39 -0.21,0.32 -0.32,0.21 -0.39,0.08 -2.59,0 -0.39,-0.08 -0.32,-0.21 -0.21,-0.32 -0.08,-0.39 0,-2.59 Z M 42,8 l -0.17,1.31 -0.45,1.26 -0.65,1.18 -0.73,1.06 -0.73,0.9 -0.64,0.69 -0.46,0.44 -0.13,0.12 -0.04,0.04 -0.04,-0.04 -0.13,-0.12 -0.45,-0.44 -0.65,-0.69 -0.73,-0.9 -0.73,-1.06 -0.64,-1.18 -0.46,-1.26 -0.17,-1.31 0.08,-0.81 0.23,-0.75 0.37,-0.68 0.49,-0.59 0.59,-0.49 0.68,-0.37 0.75,-0.23 0.81,-0.08 0.81,0.08 0.75,0.23 0.68,0.37 0.59,0.49 0.49,0.59 0.37,0.68 0.23,0.75 0.08,0.81 Z M 15.19,16.13 l -2.92,0.83 -0.39,0.03 -0.37,-0.12 -0.29,-0.24 -0.18,-0.36 -0.03,-0.39 0.12,-0.37 0.24,-0.29 0.36,-0.18 2.91,-0.84 2.17,-0.43 2.2,-0.09 2.19,0.25 2.13,0.6 1.88,0.69 1.67,0.48 1.72,0.24 1.73,-0.02 1.72,-0.27 2.73,-0.62 0.39,-0.02 0.36,0.14 0.28,0.26 0.16,0.37 0.02,0.39 -0.14,0.36 -0.26,0.28 -0.37,0.16 -2.72,0.63 -2.01,0.31 -2.02,0.02 -2,-0.27 -1.95,-0.56 -1.88,-0.69 -1.83,-0.52 -1.87,-0.22 -1.89,0.08 -1.86,0.38 Z M 12,10.91 l -0.13,0.95 -0.34,0.92 -0.48,0.86 -0.55,0.77 -0.55,0.65 -0.48,0.5 -0.34,0.33 -0.13,0.11 -0.13,-0.11 -0.34,-0.33 -0.48,-0.5 -0.55,-0.65 -0.55,-0.77 -0.48,-0.86 -0.34,-0.92 -0.13,-0.95 0.06,-0.59 0.18,-0.54 0.27,-0.5 0.37,-0.43 0.44,-0.35 0.51,-0.27 0.57,-0.17 0.6,-0.06 0.6,0.06 0.57,0.17 0.51,0.27 0.44,0.35 0.37,0.43 0.27,0.5 0.18,0.54 0.06,0.59 Z M 21.39,34.9 l -0.23,0.14 -0.64,1.28 -0.18,0.23 -0.25,0.15 -0.29,0.03 -0.28,-0.07 -0.24,-0.19 -0.14,-0.25 -0.04,-0.28 0.08,-0.29 0.64,-1.28 0.28,-0.41 0.37,-0.3 0.44,-0.19 0.48,-0.07 5.19,0 0.48,0.07 0.44,0.19 0.37,0.3 0.28,0.41 0.64,1.28 0.08,0.29 -0.04,0.28 -0.14,0.25 -0.24,0.19 -0.28,0.07 -0.29,-0.03 -0.25,-0.15 -0.18,-0.23 -0.65,-1.28 -0.22,-0.14 -5.19,0 Z M 40,8 l -0.16,-0.78 -0.43,-0.63 -0.63,-0.43 -0.78,-0.16 -0.78,0.16 -0.63,0.43 -0.43,0.63 -0.16,0.78 0.12,0.84 0.32,0.9 0.51,0.93 0.64,0.93 0.41,0.51 0.41,-0.51 0.64,-0.93 0.51,-0.93 0.32,-0.9 0.12,-0.84 Z" fill-rule="evenodd" fill="#000000" />
</svg>