<svg xmlns="http://www.w3.org/2000/svg" viewBox="0 0 24 24">
  <path id="carFast" d="M 9.5,16 l 1.38,-5.5 3.15,0 0.22,-0.13 -0.01,-0.26 -1.29,-1.94 -0.54,-0.49 -0.71,-0.18 -0.07,0 0.36,-1.46 0.55,0.15 0.51,0.24 0.46,0.34 0.39,0.43 2.1,2.8 1.22,0.08 1.19,0.25 1.14,0.4 1.09,0.55 0.09,0.06 0.1,0.12 0.01,0.16 -0.08,0.13 -0.16,0.05 -0.6,0 -1.4,-0.21 -0.25,0.12 0.02,0.28 0.68,0.91 0.53,0.44 0.67,0.16 1,0 0.18,0.07 0.07,0.18 0,0.19 0.03,0.11 0.25,0.5 0.1,0.45 -0.1,0.45 -0.14,0.27 -0.19,0.21 -0.26,0.07 -1.36,0 -0.43,0.8 -0.65,0.64 -0.81,0.41 -0.94,0.15 -0.94,-0.15 -0.81,-0.41 -0.65,-0.64 -0.43,-0.8 -4.67,0 Z M 2,11 l 0.08,-0.39 0.21,-0.32 0.32,-0.21 0.39,-0.08 5,0 0.39,0.08 0.32,0.21 0.21,0.32 0.08,0.39 -0.08,0.39 -0.21,0.32 -0.32,0.21 -0.39,0.08 -5,0 -0.39,-0.08 -0.32,-0.21 -0.21,-0.32 -0.08,-0.39 Z M 4,7 l 0.08,-0.39 0.21,-0.32 0.32,-0.21 0.39,-0.08 4,0 0.39,0.08 0.32,0.21 0.21,0.32 0.08,0.39 -0.08,0.39 -0.21,0.32 -0.32,0.21 -0.39,0.08 -4,0 -0.39,-0.08 -0.32,-0.21 -0.21,-0.32 -0.08,-0.39 Z M 3,15 l 0.08,-0.39 0.21,-0.32 0.32,-0.21 0.39,-0.08 3,0 0.39,0.08 0.32,0.21 0.21,0.32 0.08,0.39 -0.08,0.39 -0.21,0.32 -0.32,0.21 -0.39,0.08 -3,0 -0.39,-0.08 -0.32,-0.21 -0.21,-0.32 -0.08,-0.39 Z M 18.5,15 l -0.12,-0.58 -0.32,-0.48 -0.48,-0.32 -0.58,-0.12 -0.58,0.12 -0.48,0.32 -0.32,0.48 -0.12,0.58 0.12,0.58 0.32,0.48 0.48,0.32 0.58,0.12 0.58,-0.12 0.48,-0.32 0.32,-0.48 0.12,-0.58 Z" fill-rule="evenodd" fill="#000000" />
</svg>