<svg xmlns="http://www.w3.org/2000/svg" viewBox="0 0 24 24">
  <path id="carFastReverse" d="M 10.5,7.5 l -1.77,0 -0.21,0.05 -0.17,0.13 -1.67,2 -0.11,0.27 0.04,0.26 0.18,0.21 0.28,0.08 3.93,0 1.5,5 -3.04,0 -0.35,0.99 -0.66,0.79 -0.89,0.53 -0.52,0.14 -0.54,0.05 -0.54,-0.05 -0.52,-0.14 -0.89,-0.53 -0.66,-0.79 -0.35,-0.99 -0.68,0 -0.29,-0.09 -0.18,-0.25 -0.36,-1.08 -0.03,-0.16 0,-0.88 0.01,-0.08 0.46,-2.77 0.18,-0.31 4.71,-3.77 0.32,-0.11 2.32,0 0.5,1.5 Z M 19,10 l 0.39,0.08 0.32,0.21 0.21,0.32 0.08,0.39 -0.08,0.39 -0.21,0.32 -0.32,0.21 -0.39,0.08 -5,0 -0.39,-0.08 -0.32,-0.21 -0.21,-0.32 -0.08,-0.39 0.08,-0.39 0.21,-0.32 0.32,-0.21 0.39,-0.08 5,0 Z M 17,6 l 0.39,0.08 0.32,0.21 0.21,0.32 0.08,0.39 -0.08,0.39 -0.21,0.32 -0.32,0.21 -0.39,0.08 -4,0 -0.39,-0.08 -0.32,-0.21 -0.21,-0.32 -0.08,-0.39 0.08,-0.39 0.21,-0.32 0.32,-0.21 0.39,-0.08 4,0 Z M 18,14 l 0.39,0.08 0.32,0.21 0.21,0.32 0.08,0.39 -0.08,0.39 -0.21,0.32 -0.32,0.21 -0.39,0.08 -3,0 -0.39,-0.08 -0.32,-0.21 -0.21,-0.32 -0.08,-0.39 0.08,-0.39 0.21,-0.32 0.32,-0.21 0.39,-0.08 3,0 Z M 6.5,13.5 l -0.58,0.12 -0.48,0.32 -0.32,0.48 -0.12,0.58 0.12,0.58 0.32,0.48 0.48,0.32 0.58,0.12 0.58,-0.12 0.48,-0.32 0.32,-0.48 0.12,-0.58 -0.12,-0.58 -0.32,-0.48 -0.48,-0.32 -0.58,-0.12 Z" fill-rule="evenodd" fill="#000000" />
</svg>