<svg xmlns="http://www.w3.org/2000/svg" viewBox="0 0 24 24">
  <path id="carNumber8" d="M 22,8 l -0.08,0.99 -0.24,0.94 -0.37,0.87 -0.5,0.79 0.13,0.56 0.06,0.47 0,2.48 -0.03,0.31 -0.18,1.12 -0.26,0.69 -0.48,0.53 0,2.29 -0.07,0.38 -0.21,0.3 -0.3,0.2 -0.37,0.08 -0.95,0 -0.37,-0.08 -0.3,-0.2 -0.21,-0.3 -0.07,-0.38 0,-1.91 -1.9,0 -0.95,-0.48 -5.7,0 -0.95,0.48 -1.9,0 0,1.91 -0.07,0.38 -0.21,0.3 -0.3,0.2 -0.37,0.08 -0.95,0 -0.37,-0.08 -0.3,-0.2 -0.21,-0.3 -0.07,-0.38 0,-2.29 -0.48,-0.53 -0.26,-0.69 -0.18,-1.12 -0.03,-0.31 0,-2.48 0.06,-0.47 0.24,-0.97 0.29,-0.64 0.5,-0.49 0.32,-0.21 0.42,-0.39 0.29,-0.5 1.35,-3.41 0.46,-0.68 0.33,-0.23 0.39,-0.15 1.09,-0.21 1.2,-0.15 2.59,-0.12 0.91,-0.83 1.07,-0.63 1.2,-0.4 1.29,-0.14 1.21,0.12 1.13,0.35 1.01,0.55 0.89,0.74 0.74,0.89 0.55,1.01 0.35,1.13 0.12,1.21 Z M 14.75,10.86 l 0.57,0.19 0.68,0.06 0.68,-0.06 0.58,-0.19 0.47,-0.31 0.34,-0.4 0.21,-0.51 0.07,-0.58 -0.08,-0.49 -0.22,-0.42 -0.33,-0.36 -0.43,-0.25 0.36,-0.26 0.32,-0.42 0.13,-0.59 -0.06,-0.48 -0.18,-0.4 -0.31,-0.34 -0.41,-0.25 -0.52,-0.16 -0.62,-0.05 -0.62,0.05 -0.52,0.16 -0.41,0.25 -0.31,0.34 -0.18,0.4 -0.06,0.48 0.13,0.6 0.31,0.43 0.36,0.25 -0.44,0.26 -0.32,0.34 -0.21,0.42 -0.06,0.49 0.07,0.58 0.21,0.51 0.33,0.4 0.47,0.31 Z M 7.33,5.61 l -0.48,0.2 -0.3,0.42 -1.22,3.28 1.32,-0.07 1.24,-0.05 2.26,-0.06 -0.15,-1.33 0.15,-1.35 0.44,-1.25 -3.26,0.21 Z M 3.52,12.57 l -0.05,0.63 0.23,0.55 0.45,0.4 0.6,0.15 1.88,0 0.42,-0.09 0.34,-0.23 0.23,-0.34 0.08,-0.42 -0.06,-0.35 -0.17,-0.31 -0.25,-0.24 -0.33,-0.14 -1.82,-0.46 -0.49,-0.03 -0.45,0.15 -0.37,0.3 -0.24,0.43 Z M 16.48,9.75 l -0.48,0.11 -0.5,-0.11 -0.33,-0.28 -0.11,-0.42 0.11,-0.43 0.33,-0.28 0.5,-0.09 0.48,0.09 0.34,0.28 0.12,0.43 -0.12,0.42 -0.34,0.28 Z M 16.51,6.8 l -0.22,0.13 -0.29,0.04 -0.3,-0.04 -0.22,-0.13 -0.14,-0.19 -0.04,-0.24 0.18,-0.4 0.22,-0.12 0.3,-0.04 0.29,0.04 0.22,0.12 0.15,0.18 0.05,0.22 -0.05,0.24 -0.15,0.19 Z" fill-rule="evenodd" fill="#000000" />
</svg>