<svg xmlns="http://www.w3.org/2000/svg" viewBox="0 0 24 24">
  <path id="carNumber6" d="M 22,8 l -0.08,0.99 -0.24,0.94 -0.37,0.87 -0.5,0.79 0.13,0.56 0.06,0.47 0,2.48 -0.03,0.31 -0.18,1.12 -0.26,0.69 -0.48,0.53 0,2.29 -0.07,0.38 -0.21,0.3 -0.3,0.2 -0.37,0.08 -0.95,0 -0.37,-0.08 -0.3,-0.2 -0.21,-0.3 -0.07,-0.38 0,-1.91 -1.9,0 -0.95,-0.48 -5.7,0 -0.95,0.48 -1.9,0 0,1.91 -0.07,0.38 -0.21,0.3 -0.3,0.2 -0.37,0.08 -0.95,0 -0.37,-0.08 -0.3,-0.2 -0.21,-0.3 -0.07,-0.38 0,-2.29 -0.48,-0.53 -0.26,-0.69 -0.18,-1.12 -0.03,-0.31 0,-2.48 0.06,-0.47 0.24,-0.97 0.29,-0.64 0.5,-0.49 0.32,-0.21 0.42,-0.39 0.29,-0.5 1.35,-3.41 0.46,-0.68 0.33,-0.23 0.39,-0.15 1.09,-0.21 1.2,-0.15 2.59,-0.12 0.91,-0.83 1.07,-0.63 1.2,-0.4 1.29,-0.14 1.21,0.12 1.13,0.35 1.01,0.55 0.89,0.74 0.74,0.89 0.55,1.01 0.35,1.13 0.12,1.21 Z M 15.09,10.93 l 0.47,0.13 0.55,0.05 0.63,-0.07 0.56,-0.19 0.46,-0.31 0.36,-0.42 0.22,-0.5 0.07,-0.57 -0.07,-0.58 -0.21,-0.5 -0.33,-0.41 -0.43,-0.32 -0.52,-0.2 -0.58,-0.06 -0.47,0.06 -0.38,0.15 0.24,-0.36 0.31,-0.29 0.79,-0.4 0.84,-0.21 0,-1.34 -1.25,0.31 -0.99,0.5 -0.73,0.65 -0.51,0.79 -0.29,0.89 -0.1,0.96 0.16,0.96 0.45,0.77 0.34,0.29 0.41,0.22 Z M 7.33,5.61 l -0.48,0.2 -0.3,0.42 -1.22,3.28 1.32,-0.07 1.24,-0.05 2.26,-0.06 -0.15,-1.33 0.15,-1.35 0.44,-1.25 -3.26,0.21 Z M 3.52,12.57 l -0.05,0.63 0.23,0.55 0.45,0.4 0.6,0.15 1.88,0 0.42,-0.09 0.34,-0.23 0.23,-0.34 0.08,-0.42 -0.06,-0.35 -0.17,-0.31 -0.25,-0.24 -0.33,-0.14 -1.82,-0.46 -0.49,-0.03 -0.45,0.15 -0.37,0.3 -0.24,0.43 Z M 16.57,9.68 l -0.46,0.09 -0.47,-0.09 -0.33,-0.24 -0.12,-0.39 0.12,-0.38 0.33,-0.26 0.47,-0.09 0.35,0.05 0.29,0.15 0.19,0.23 0.07,0.3 -0.12,0.39 -0.32,0.24 Z" fill-rule="evenodd" fill="#000000" />
</svg>