<svg xmlns="http://www.w3.org/2000/svg" viewBox="0 0 24 24">
  <path id="carOffroadRear" d="M 6.08,6.58 l 0.24,-0.54 0.38,-0.42 0.5,-0.27 0.58,-0.1 8.44,0 0.58,0.1 0.5,0.27 0.38,0.42 0.24,0.54 0.83,3.33 0,0.59 -1.79,0 0.04,-0.5 -0.06,-0.6 -0.18,-0.57 -0.27,-0.51 -0.37,-0.44 -0.44,-0.37 -0.51,-0.27 -0.57,-0.18 -0.6,-0.06 -0.6,0.06 -0.57,0.18 -0.51,0.27 -0.44,0.37 -0.37,0.44 -0.27,0.51 -0.18,0.57 -0.06,0.6 0.06,0.6 0.18,0.57 0.27,0.51 0.37,0.44 0.44,0.37 0.51,0.27 0.57,0.18 0.6,0.06 0.65,-0.07 0.6,-0.2 0.53,-0.31 0.46,-0.42 3.01,0 0,1.03 0.3,0.13 0.24,0.22 0.15,0.29 0.06,0.33 0,3 -0.12,0.58 -0.32,0.48 -0.48,0.32 -0.58,0.12 -1.5,0 -0.58,-0.12 -0.48,-0.32 -0.32,-0.48 -0.12,-0.58 0,-0.75 -7,0 0,0.75 -0.12,0.58 -0.32,0.48 -0.48,0.32 -0.58,0.12 -1.5,0 -0.58,-0.12 -0.48,-0.32 -0.32,-0.48 -0.12,-0.58 0,-3 0.06,-0.33 0.15,-0.29 0.24,-0.22 0.3,-0.13 0,-1.03 3.25,0 -0.5,-1.5 -2.25,0 0,-0.59 0.83,-3.33 Z M 15.5,10 l -0.12,0.58 -0.32,0.48 -0.48,0.32 -0.58,0.12 -0.58,-0.12 -0.48,-0.32 -0.32,-0.48 -0.12,-0.58 0.12,-0.58 0.32,-0.48 0.48,-0.32 0.58,-0.12 0.58,0.12 0.48,0.32 0.32,0.48 0.12,0.58 Z M 8,13.5 l 0,1 0.15,0.35 0.35,0.15 2,0 0.35,-0.15 0.15,-0.35 0,-1 -0.15,-0.35 -0.35,-0.15 -2,0 -0.35,0.15 -0.15,0.35 Z M 7.49,16.11 l -2.49,-1 0,1.89 0.15,0.35 0.35,0.15 1.5,0 0.35,-0.15 0.15,-0.35 0,-0.82 -0.01,-0.07 Z M 19,15.11 l -2.49,1 -0.01,0.07 0,0.82 0.15,0.35 0.35,0.15 1.5,0 0.35,-0.15 0.15,-0.35 0,-1.89 Z" fill-rule="evenodd" fill="#000000" />
</svg>