<svg xmlns="http://www.w3.org/2000/svg" viewBox="0 0 24 24">
  <path id="carOffroadOutlineRear" d="M 7.78,5.25 l 8.44,0 0.58,0.1 0.5,0.27 0.38,0.42 0.24,0.54 0.83,3.33 0,1.34 0.5,0 0,1.78 0.3,0.13 0.24,0.22 0.15,0.29 0.06,0.33 0,3 -0.12,0.58 -0.32,0.48 -0.48,0.32 -0.58,0.12 -1.5,0 -0.58,-0.12 -0.48,-0.32 -0.32,-0.48 -0.12,-0.58 0,-0.75 -7,0 0,0.75 -0.12,0.58 -0.32,0.48 -0.48,0.32 -0.58,0.12 -1.5,0 -0.58,-0.12 -0.48,-0.32 -0.32,-0.48 -0.12,-0.58 0,-3 0.06,-0.33 0.15,-0.29 0.24,-0.22 0.3,-0.13 0,-1.78 0.5,0 0,-1.34 0.83,-3.33 0.24,-0.54 0.38,-0.42 0.5,-0.27 0.58,-0.1 Z M 8,12.75 l -1.75,0 0,1.24 1.89,0.76 7.72,0 1.89,-0.76 0,-1.24 -1.31,0 -0.47,0.51 -0.58,0.4 -0.66,0.25 -0.73,0.09 -0.6,-0.06 -0.57,-0.18 -0.51,-0.27 -0.44,-0.37 -0.37,-0.44 -0.27,-0.51 -0.18,-0.57 -0.06,-0.6 0.06,-0.6 0.18,-0.57 0.27,-0.51 0.37,-0.44 0.44,-0.37 0.51,-0.27 0.57,-0.18 0.6,-0.06 0.6,0.06 0.57,0.18 0.51,0.27 0.44,0.37 0.37,0.44 0.27,0.51 0.18,0.57 0.06,0.6 -0.01,0.25 0.26,0 0,-1.16 -0.79,-3.15 -0.09,-0.14 -0.15,-0.05 -8.44,0 -0.15,0.05 -0.09,0.14 -0.79,3.15 0,1.16 1.25,0 0,1.5 Z M 16,11 l -0.16,-0.78 -0.43,-0.63 -0.63,-0.43 -0.78,-0.16 -0.78,0.16 -0.63,0.43 -0.43,0.63 -0.16,0.78 0.16,0.78 0.43,0.63 0.63,0.43 0.78,0.16 0.78,-0.16 0.63,-0.43 0.43,-0.63 0.16,-0.78 Z M 5,15.11 l 0,1.89 0.15,0.35 0.35,0.15 1.5,0 0.35,-0.15 0.15,-0.35 0,-0.82 -0.01,-0.07 -2.49,-1 Z M 16.51,16.11 l -0.01,0.07 0,0.82 0.15,0.35 0.35,0.15 1.5,0 0.35,-0.15 0.15,-0.35 0,-1.89 -2.49,1 Z" fill-rule="evenodd" fill="#000000" />
</svg>