<svg xmlns="http://www.w3.org/2000/svg" viewBox="0 0 24 24">
  <path id="carOffroadSide" d="M 7.12,5.25 l 5.87,0 0.41,0.05 0.39,0.14 0.34,0.23 0.28,0.31 2,2.81 3.76,0.37 0.63,0.19 0.5,0.38 0.33,0.54 0.12,0.64 0,2.32 -0.9,1.34 0.15,0.93 -0.06,0.6 -0.18,0.57 -0.27,0.51 -0.37,0.44 -0.44,0.37 -0.51,0.27 -0.57,0.18 -0.6,0.06 -1,-0.17 -0.85,-0.47 -0.66,-0.71 -0.4,-0.9 -5.18,0 -0.4,0.9 -0.66,0.71 -0.85,0.47 -1,0.17 -0.6,-0.06 -0.57,-0.18 -0.51,-0.27 -0.44,-0.37 -0.37,-0.44 -0.27,-0.51 -0.18,-0.57 -0.06,-0.6 0.07,-0.66 0.21,-0.62 -0.24,-0.73 -0.14,0.01 -1.15,0 -0.29,-0.06 -0.24,-0.16 -0.16,-0.24 -0.06,-0.29 0,-4 0.06,-0.29 0.16,-0.24 0.24,-0.16 0.29,-0.06 1.15,0 0.28,0.06 0.25,0.16 0.08,0.08 1.04,-2.08 0.28,-0.4 0.37,-0.31 0.44,-0.19 0.48,-0.07 Z M 19.39,14.06 l -0.63,-0.41 -0.76,-0.15 -0.78,0.16 -0.63,0.43 -0.43,0.63 -0.16,0.78 0,0 0.16,0.78 0.43,0.63 0.63,0.43 0.78,0.16 0.78,-0.16 0.63,-0.43 0.43,-0.63 0.16,-0.78 -0.14,-0.74 -0.38,-0.61 -0.1,-0.07 0.01,-0.02 Z M 9,15.5 l -0.16,-0.78 -0.43,-0.63 -0.63,-0.43 -0.78,-0.16 -0.78,0.16 -0.63,0.43 -0.43,0.63 -0.16,0.78 0.16,0.78 0.43,0.63 0.63,0.43 0.78,0.16 0.78,-0.16 0.63,-0.43 0.43,-0.63 0.16,-0.78 Z M 4,9.21 l -0.21,-0.21 -0.79,0 0,3.5 0.75,0 0,-1.84 0.09,-0.55 0.16,-0.48 0,-0.42 Z" fill-rule="evenodd" fill="#000000" />
</svg>