<svg xmlns="http://www.w3.org/2000/svg" viewBox="0 0 48 48">
  <path id="carSideRouteOutline" d="M 18.59,21 l 7.21,0 1.37,0.19 1.24,0.55 1.05,0.86 0.79,1.13 2.07,4.04 6.38,1.14 0.69,0.19 0.63,0.29 0.56,0.4 0.49,0.49 0.39,0.56 0.29,0.62 0.19,0.67 0.06,0.72 0,3.15 -0.16,0.78 -0.43,0.63 -0.63,0.43 -0.78,0.16 -2.13,0 -0.21,0.62 -0.32,0.58 -0.4,0.51 -0.47,0.44 -0.54,0.36 -0.6,0.26 -0.65,0.17 -0.68,0.06 -0.68,-0.06 -0.65,-0.17 -0.6,-0.26 -0.54,-0.36 -0.47,-0.44 -0.4,-0.51 -0.32,-0.58 -0.21,-0.62 -10.38,0 0,-2 10.38,0 0.21,-0.62 0.32,-0.58 0.4,-0.51 0.47,-0.44 0.54,-0.36 0.6,-0.26 0.65,-0.17 0.68,-0.06 0.68,0.06 0.65,0.17 0.6,0.26 0.54,0.36 0.47,0.44 0.4,0.51 0.32,0.58 0.21,0.62 2.13,0 0,-3.15 -0.12,-0.7 -0.35,-0.59 -0.52,-0.44 -0.66,-0.24 -6.79,-1.21 -11.81,0 0,-2 10.27,0 -1.55,-3.03 -0.47,-0.68 -0.63,-0.52 -0.75,-0.33 -0.82,-0.11 -7.21,0 -0.84,0.09 -0.8,0.26 -0.72,0.42 -0.62,0.57 -2.98,3.33 2.02,0 0,2 -4.02,0 -2.07,1.01 -0.41,0.37 -0.15,0.53 0,4.42 2.13,0 0.21,-0.62 0.32,-0.58 0.4,-0.51 0.47,-0.44 0.54,-0.36 0.6,-0.26 0.65,-0.17 0.68,-0.06 0.81,0.08 0.75,0.23 0.68,0.37 0.59,0.49 0.49,0.59 0.37,0.68 0.23,0.75 0.08,0.81 -0.08,0.81 -0.23,0.75 -0.37,0.68 -0.49,0.59 -0.59,0.49 -0.68,0.37 -0.75,0.23 -0.81,0.08 -0.68,-0.06 -0.65,-0.17 -0.6,-0.26 -0.54,-0.36 -0.47,-0.44 -0.4,-0.51 -0.32,-0.58 -0.21,-0.62 -2.13,0 -0.78,-0.16 -0.63,-0.43 -0.43,-0.63 -0.16,-0.78 0,-4.42 0.12,-0.83 0.33,-0.76 0.53,-0.63 0.7,-0.47 2.1,-1.04 4.33,-4.85 0.94,-0.85 1.09,-0.63 1.19,-0.39 1.26,-0.13 Z M 38,16 l -0.04,-0.04 -0.13,-0.12 -0.45,-0.44 -0.65,-0.69 -0.73,-0.9 -0.73,-1.06 -0.64,-1.18 -0.46,-1.26 -0.17,-1.31 0.08,-0.81 0.23,-0.75 0.37,-0.68 0.49,-0.59 0.59,-0.49 0.68,-0.37 0.75,-0.23 0.81,-0.08 0.81,0.08 0.75,0.23 0.68,0.37 0.59,0.49 0.49,0.59 0.37,0.68 0.23,0.75 0.08,0.81 -0.17,1.31 -0.45,1.26 -0.65,1.18 -0.73,1.06 -0.73,0.9 -0.64,0.69 -0.46,0.44 -0.13,0.12 -0.04,0.04 Z M 11,10.91 l -0.13,0.95 -0.34,0.92 -0.48,0.86 -0.55,0.77 -0.55,0.65 -0.48,0.5 -0.34,0.33 -0.13,0.11 -0.13,-0.11 -0.34,-0.33 -0.48,-0.5 -0.55,-0.65 -0.55,-0.77 -0.48,-0.86 -0.34,-0.92 -0.13,-0.95 0.06,-0.59 0.18,-0.54 0.27,-0.5 0.37,-0.43 0.44,-0.35 0.51,-0.27 0.57,-0.17 0.6,-0.06 0.6,0.06 0.57,0.17 0.51,0.27 0.44,0.35 0.37,0.43 0.27,0.5 0.18,0.54 0.06,0.59 Z M 24,14 l 9,0 0.39,0.08 0.32,0.21 0.21,0.32 0.08,0.39 -0.08,0.39 -0.21,0.32 -0.32,0.21 -0.39,0.08 -9,0 -0.39,-0.08 -0.32,-0.21 -0.21,-0.32 -0.08,-0.39 0.08,-0.39 0.21,-0.32 0.32,-0.21 0.39,-0.08 Z M 38.41,12.6 l 0.64,-0.93 0.51,-0.93 0.32,-0.9 0.12,-0.84 -0.16,-0.78 -0.43,-0.63 -0.63,-0.43 -0.78,-0.16 -0.78,0.16 -0.63,0.43 -0.43,0.63 -0.16,0.78 0.12,0.84 0.32,0.9 0.51,0.93 0.64,0.93 0.41,0.51 0.41,-0.51 Z M 34,39 l 0.78,-0.16 0.63,-0.43 0.43,-0.63 0.16,-0.78 -0.16,-0.78 -0.43,-0.63 -0.63,-0.43 -0.78,-0.16 -0.78,0.16 -0.63,0.43 -0.43,0.63 -0.16,0.78 0.16,0.78 0.43,0.63 0.63,0.43 0.78,0.16 Z M 14,39 l 0.78,-0.16 0.63,-0.43 0.43,-0.63 0.16,-0.78 -0.16,-0.78 -0.43,-0.63 -0.63,-0.43 -0.78,-0.16 -0.78,0.16 -0.63,0.43 -0.43,0.63 -0.16,0.78 0.16,0.78 0.43,0.63 0.63,0.43 0.78,0.16 Z M 12,14 l 2,0 0.39,0.08 0.32,0.21 0.21,0.32 0.08,0.39 -0.08,0.39 -0.21,0.32 -0.32,0.21 -0.39,0.08 -2,0 -0.39,-0.08 -0.32,-0.21 -0.21,-0.32 -0.08,-0.39 0.08,-0.39 0.21,-0.32 0.32,-0.21 0.39,-0.08 Z M 17,15 l 0.08,-0.39 0.21,-0.32 0.32,-0.21 0.39,-0.08 2,0 0.39,0.08 0.32,0.21 0.21,0.32 0.08,0.39 -0.08,0.39 -0.21,0.32 -0.32,0.21 -0.39,0.08 -2,0 -0.39,-0.08 -0.32,-0.21 -0.21,-0.32 -0.08,-0.39 Z" fill-rule="evenodd" fill="#000000" />
</svg>