<svg xmlns="http://www.w3.org/2000/svg" viewBox="0 0 24 24">
  <path id="carsWrench" d="M 2,12 l 5,0 -0.92,-2.76 -0.12,-0.2 -0.2,-0.11 -0.54,-0.12 -0.81,-0.15 -1.09,-0.11 -1.32,-0.05 0,-1.5 1.2,0.03 1.06,0.07 0.92,0.09 0.74,0.1 0.48,0.15 0.41,0.27 0.32,0.38 0.22,0.45 1.15,3.46 0.13,0.06 0.38,0.25 0.31,0.33 0.23,0.38 0.14,0.44 0.27,1.35 0.04,0.39 0,1.48 -0.1,0.63 -0.17,0.51 -0.28,0.42 -0.45,0.24 0,1.52 -0.15,0.35 -0.35,0.15 7,0 -0.35,-0.15 -0.15,-0.35 0,-1.52 -0.45,-0.24 -0.28,-0.42 -0.17,-0.51 -0.1,-0.63 0,-1.48 0.04,-0.39 0.27,-1.35 0.14,-0.44 0.23,-0.38 0.31,-0.33 0.38,-0.25 0.13,-0.06 1.15,-3.46 0.22,-0.45 0.32,-0.38 0.41,-0.27 0.48,-0.15 0.74,-0.1 0.92,-0.09 1.06,-0.07 1.2,-0.03 0,1.5 -1.32,0.05 -1.09,0.11 -0.81,0.15 -0.54,0.12 -0.2,0.11 -0.12,0.2 -0.92,2.76 5,0 0,6 -3,0 -1,0.5 -1,0 0,1.5 -0.15,0.35 -0.35,0.15 4.75,0 0.29,0.06 0.24,0.16 0.16,0.24 0.06,0.29 -0.06,0.29 -0.16,0.24 -0.24,0.16 -0.29,0.06 -18.5,0 -0.29,-0.06 -0.24,-0.16 -0.16,-0.24 -0.06,-0.29 0.06,-0.29 0.16,-0.24 0.24,-0.16 0.29,-0.06 4.75,0 -0.35,-0.15 -0.15,-0.35 0,-1.5 -1,0 -1,-0.5 -3,0 0,-6 Z M 11.34,3.11 l 1.32,-0.88 0.33,-0.08 0.3,0.14 0.71,0.71 -2,2 2,2 2,-2 0.71,0.71 0.14,0.3 -0.08,0.33 -0.88,1.32 -0.48,0.56 -0.6,0.43 -0.68,0.26 -0.74,0.09 -1.39,0 -2,2 -2,-2 2,-2 0,-1.39 0.09,-0.74 0.26,-0.68 0.43,-0.6 0.56,-0.48 Z M 9,14.02 l -0.13,-0.49 -0.32,-0.35 -0.45,-0.16 -0.49,0.08 -1.56,0.67 -0.4,0.33 -0.15,0.5 0.07,0.35 0.19,0.29 0.29,0.19 0.35,0.07 1.6,0 0.39,-0.08 0.32,-0.21 0.21,-0.32 0.08,-0.39 0,-0.48 Z M 15,14.02 l 0,0.48 0.08,0.39 0.21,0.32 0.32,0.21 0.39,0.08 1.6,0 0.35,-0.07 0.29,-0.19 0.19,-0.29 0.07,-0.35 -0.15,-0.5 -0.4,-0.33 -1.56,-0.67 -0.49,-0.08 -0.45,0.16 -0.32,0.35 -0.13,0.49 Z" fill-rule="evenodd" fill="#000000" />
</svg>