<svg xmlns="http://www.w3.org/2000/svg" viewBox="0 0 48 48">
  <path id="carSensorsOutline" d="M 34.9,12.69 l 2.17,5.29 0.11,0.07 0.82,0.56 0.43,0.43 0.24,0.53 0.04,0.59 -0.16,0.58 -0.35,0.41 -0.48,0.23 -5.69,1.22 -0.18,0.15 -0.14,0.34 0.03,0.24 0.22,0.1 5.19,-0.33 0.21,-0.13 0.2,-0.41 0.19,-0.23 0.25,-0.14 0.28,-0.04 0.29,0.08 0.24,0.18 0.14,0.25 0.03,0.29 -0.07,0.28 -0.21,0.41 -0.25,0.38 -0.34,0.29 -0.41,0.2 -0.45,0.09 -5.2,0.33 -0.46,-0.04 -0.42,-0.14 -0.35,-0.23 -0.29,-0.32 -0.21,-0.37 -0.11,-0.41 -0.01,-0.44 0.12,-0.45 0.13,-0.33 0.21,-0.38 0.29,-0.31 0.35,-0.23 0.41,-0.15 5.51,-1.18 -0.07,-0.1 -0.82,-0.57 -1.17,-0.6 -1.29,-0.29 -2.46,-0.24 -0.07,0 -2.07,0.37 -0.31,0.02 -9.92,0 -0.31,-0.02 -2.07,-0.37 -0.07,0 -2.57,0.28 -1.18,0.28 -1.09,0.55 -0.83,0.56 -0.08,0.13 5.45,1.18 0.41,0.15 0.35,0.23 0.29,0.31 0.21,0.37 0.13,0.34 0.12,0.45 -0.01,0.44 -0.11,0.41 -0.21,0.37 -0.29,0.32 -0.36,0.23 -0.41,0.14 -0.47,0.03 -5.14,-0.32 -0.41,-0.08 -0.38,-0.17 -0.32,-0.25 -0.27,-0.33 -0.29,-0.48 -0.11,-0.28 0.02,-0.28 0.11,-0.27 0.22,-0.2 0.28,-0.1 0.29,0.01 0.26,0.12 0.2,0.21 0.3,0.48 0.2,0.12 5.14,0.33 0.22,-0.11 0.03,-0.24 -0.14,-0.33 -0.17,-0.15 -5.62,-1.22 -0.44,-0.2 -0.33,-0.35 -0.22,-0.6 0.01,-0.63 0.25,-0.58 0.46,-0.45 0.82,-0.55 2.19,-5.33 0.32,-0.64 0.41,-0.57 0.48,-0.5 0.54,-0.43 0.6,-0.34 0.65,-0.25 0.68,-0.16 0.72,-0.05 13.01,0 0.71,0.05 0.68,0.16 0.65,0.25 0.6,0.34 0.54,0.43 0.48,0.5 0.41,0.57 0.32,0.64 Z M 14.49,13.26 l -1.59,3.86 0.95,-0.18 2.58,-0.28 0.5,0.01 2.06,0.37 0.05,0 9.92,0 0.05,0 2.07,-0.37 0.48,-0.02 2.46,0.25 1.07,0.19 -1.58,-3.83 -0.5,-0.83 -0.7,-0.63 -0.85,-0.41 -0.95,-0.14 -13.01,0 -0.96,0.14 -0.85,0.41 -0.7,0.63 -0.5,0.83 Z M 11.14,28.95 l 0.04,-0.29 -0.67,-0.35 -0.66,-0.57 -0.19,-0.23 -0.07,-0.28 0.03,-0.28 0.14,-0.26 0.24,-0.19 0.27,-0.08 0.29,0.04 0.26,0.14 0.66,0.56 0.15,0.06 6.03,0.41 0.18,-0.06 0.78,-0.7 0.55,-0.33 0.62,-0.12 8.42,0 0.63,0.12 0.54,0.33 0.78,0.7 0.18,0.06 6.06,-0.41 0.14,-0.06 0.66,-0.56 0.26,-0.14 0.29,-0.04 0.28,0.08 0.23,0.19 0.14,0.26 0.04,0.28 -0.08,0.28 -0.18,0.23 -0.66,0.57 -0.7,0.36 0.04,0.28 0,2.59 -0.08,0.39 -0.22,0.32 -0.31,0.21 -0.39,0.08 -2.59,0 -0.39,-0.08 -0.32,-0.21 -0.22,-0.32 -0.07,-0.39 0,-2.53 -1.83,0.12 -0.69,-0.09 -0.6,-0.36 -0.77,-0.69 -0.17,-0.07 -8.42,0 -0.17,0.07 -0.77,0.69 -0.6,0.36 -0.69,0.09 -1.82,-0.13 0,2.54 -0.08,0.39 -0.22,0.32 -0.32,0.21 -0.38,0.08 -2.6,0 -0.39,-0.08 -0.31,-0.21 -0.22,-0.32 -0.08,-0.39 0,-2.59 Z M 43.92,8.5 l 0.71,1.33 0.62,1.37 0.97,2.85 0.58,2.94 0.2,3.01 -0.2,3.01 -0.58,2.94 -0.97,2.85 -0.62,1.37 -0.71,1.33 -1.73,-1 1.21,-2.47 0.88,-2.59 0.54,-2.69 0.18,-2.75 -0.18,-2.75 -0.54,-2.69 -0.88,-2.59 -1.21,-2.47 1.73,-1 Z M 1,20 l 0.2,-3.01 0.58,-2.94 0.97,-2.85 0.62,-1.37 0.71,-1.33 1.73,1 -1.21,2.47 -0.88,2.59 -0.54,2.69 -0.18,2.75 0.18,2.75 0.54,2.69 0.88,2.59 1.21,2.47 -1.73,1 -0.71,-1.33 -0.62,-1.37 -0.97,-2.85 -0.58,-2.94 -0.2,-3.01 Z M 42.35,15.08 l 0.49,2.45 0.16,2.47 -0.16,2.47 -0.49,2.45 -1.93,-0.52 0.44,-2.19 0.14,-2.21 -0.14,-2.21 -0.44,-2.19 1.93,-0.52 Z M 5.65,24.92 l -0.49,-2.45 -0.16,-2.47 0.16,-2.47 0.49,-2.45 1.93,0.52 -0.44,2.19 -0.14,2.21 0.14,2.21 0.44,2.19 -1.93,0.52 Z M 10.16,34.91 l -5,9 -0.2,0.22 -0.25,0.13 -0.29,0.03 -0.28,-0.09 -0.23,-0.2 -0.13,-0.25 -0.03,-0.29 0.09,-0.28 5,-9 0.2,-0.23 0.25,-0.13 0.29,-0.03 0.28,0.1 0.23,0.19 0.13,0.25 0.03,0.29 -0.09,0.29 Z M 21.4,23.65 l -0.22,0.14 -0.64,1.28 -0.18,0.23 -0.26,0.15 -0.28,0.03 -0.29,-0.07 -0.23,-0.19 -0.14,-0.25 -0.04,-0.28 0.08,-0.29 0.64,-1.28 0.28,-0.41 0.36,-0.3 0.44,-0.19 0.48,-0.07 5.2,0 0.48,0.07 0.44,0.19 0.37,0.3 0.27,0.41 0.64,1.28 0.08,0.29 -0.04,0.28 -0.14,0.25 -0.23,0.19 -0.29,0.07 -0.28,-0.03 -0.25,-0.15 -0.19,-0.23 -0.64,-1.28 -0.22,-0.14 -5.2,0 Z M 43.17,42.21 l 0.5,1 0.08,0.36 -0.11,0.37 -0.27,0.26 -0.37,0.09 -8,0 -0.29,-0.06 -0.24,-0.16 -0.16,-0.24 -0.06,-0.29 0.06,-0.29 0.16,-0.24 0.24,-0.16 0.29,-0.06 6.79,0 -0.04,-0.27 0.05,-0.26 0.14,-0.22 0.22,-0.17 0.29,-0.08 0.29,0.04 0.25,0.14 0.18,0.24 Z M 41.17,38.21 l 0.5,1 0.08,0.36 -0.11,0.37 -0.27,0.26 -0.37,0.09 -6.5,0 -0.29,-0.06 -0.24,-0.16 -0.16,-0.24 -0.06,-0.29 0.06,-0.29 0.16,-0.24 0.24,-0.16 0.29,-0.06 5.29,0 -0.04,-0.27 0.05,-0.26 0.14,-0.22 0.22,-0.17 0.29,-0.08 0.29,0.04 0.25,0.14 0.18,0.24 Z M 39.17,34.71 l 0.5,1 0.08,0.36 -0.11,0.37 -0.27,0.26 -0.37,0.09 -5,0 -0.29,-0.06 -0.24,-0.16 -0.16,-0.24 -0.06,-0.29 0.06,-0.29 0.16,-0.24 0.24,-0.16 0.29,-0.06 3.79,0 -0.04,-0.27 0.05,-0.26 0.14,-0.22 0.22,-0.17 0.29,-0.08 0.29,0.04 0.25,0.14 0.18,0.24 Z M 8,42.79 l 5,0 0.29,0.06 0.24,0.16 0.16,0.24 0.06,0.29 -0.06,0.29 -0.16,0.24 -0.24,0.16 -0.29,0.06 -5,0 -0.29,-0.06 -0.24,-0.16 -0.16,-0.24 -0.06,-0.29 0.06,-0.29 0.16,-0.24 0.24,-0.16 0.29,-0.06 Z M 10,38.79 l 3.5,0 0.29,0.06 0.24,0.16 0.16,0.24 0.06,0.29 -0.06,0.29 -0.16,0.24 -0.24,0.16 -0.29,0.06 -3.5,0 -0.29,-0.06 -0.24,-0.16 -0.16,-0.24 -0.06,-0.29 0.06,-0.29 0.16,-0.24 0.24,-0.16 0.29,-0.06 Z M 11.5,35.29 l 2.5,0 0.29,0.06 0.24,0.16 0.16,0.24 0.06,0.29 -0.06,0.29 -0.16,0.24 -0.24,0.16 -0.29,0.06 -2.5,0 -0.29,-0.06 -0.24,-0.16 -0.16,-0.24 -0.06,-0.29 0.06,-0.29 0.16,-0.24 0.24,-0.16 0.29,-0.06 Z" fill-rule="evenodd" fill="#000000" />
</svg>