<svg xmlns="http://www.w3.org/2000/svg" viewBox="0 0 24 24">
  <path id="carsFollow" d="M 2,7.27 l 0.07,-0.26 0.17,-0.16 0.22,-0.03 0.22,0.12 0.22,0.26 1.95,2.6 0.18,0.15 0.22,0.05 1.15,0.11 1.13,0.25 1.08,0.39 1.03,0.53 0.09,0.06 0.1,0.12 0.01,0.16 -0.08,0.13 -0.16,0.05 -0.56,0 -0.08,-0.01 -1.36,-0.2 -0.25,0.12 0.02,0.28 0.68,0.91 0.53,0.44 0.67,0.16 1,0 0.18,0.07 0.07,0.18 0,0.19 0.03,0.11 0.25,0.5 0.1,0.45 -0.1,0.45 -0.14,0.27 -0.19,0.21 -0.26,0.07 -1.36,0 -0.43,0.8 -0.65,0.64 -0.81,0.41 -0.93,0.15 15.99,0 0,1.5 -20,0 0,-1.5 3.99,0 -0.93,-0.15 -0.81,-0.41 -0.65,-0.64 -0.43,-0.8 -0.67,0 -0.35,-0.15 -0.15,-0.35 0,-4.5 0.15,-0.35 0.35,-0.15 0.53,0 0.22,-0.13 -0.01,-0.26 -1.16,-1.73 -0.08,-0.28 0,-0.83 Z M 21.5,6 l 0.35,0.15 0.15,0.35 0,0.5 -0.15,0.35 -0.35,0.15 -1.27,0 -0.21,0.05 -0.17,0.13 -1.67,2 -0.11,0.27 0.04,0.26 0.18,0.21 0.28,0.08 2.93,0 0.35,0.15 0.15,0.35 0,4 -0.15,0.35 -0.35,0.15 -0.54,0 -0.35,0.99 -0.66,0.79 -0.89,0.53 -0.52,0.14 -0.54,0.05 -0.54,-0.05 -0.52,-0.14 -0.89,-0.53 -0.66,-0.79 -0.35,-0.99 -0.68,0 -0.29,-0.09 -0.18,-0.25 -0.36,-1.08 -0.03,-0.16 0,-0.88 0.01,-0.08 0.46,-2.77 0.18,-0.31 4.71,-3.77 0.32,-0.11 2.32,0 Z M 6.5,5.5 l 1.5,0 0,1.5 -1.5,0 0,1 -1.5,0 0,-5 1.5,0 0,2.5 Z M 15,8 l -1.5,0 0,-1 -1.5,0 0,-1.5 1.5,0 0,-2.5 1.5,0 0,5 Z M 6,13.5 l -0.58,0.12 -0.48,0.32 -0.32,0.48 -0.12,0.58 0.12,0.58 0.32,0.48 0.48,0.32 0.58,0.12 0.58,-0.12 0.48,-0.32 0.32,-0.48 0.12,-0.58 -0.12,-0.58 -0.32,-0.48 -0.48,-0.32 -0.58,-0.12 Z M 18,13.5 l -0.58,0.12 -0.48,0.32 -0.32,0.48 -0.12,0.58 0.12,0.58 0.32,0.48 0.48,0.32 0.58,0.12 0.58,-0.12 0.48,-0.32 0.32,-0.48 0.12,-0.58 -0.12,-0.58 -0.32,-0.48 -0.48,-0.32 -0.58,-0.12 Z M 11,7 l -2,0 0,-1.5 2,0 0,1.5 Z" fill-rule="evenodd" fill="#000000" />
</svg>