<svg xmlns="http://www.w3.org/2000/svg" viewBox="0 0 24 24">
  <path id="carsFlee" d="M 8.06,16.7 l 0.07,-0.37 0.2,-0.31 0.19,-0.05 0.14,0.15 0.12,0.15 0.19,0.01 1,-0.36 0.15,-0.15 0.26,-0.71 0.15,-0.15 0.77,-0.19 0.78,-0.06 0.79,0.06 0.77,0.18 0.15,0.14 0.3,0.76 0.15,0.14 0.9,0.34 0.2,-0.01 0.13,-0.16 0,-0.01 0.15,-0.16 0.19,0.06 0.18,0.3 0.07,0.36 0,5.01 -0.11,0.26 -0.26,0.11 -0.23,-0.08 -0.13,-0.21 -0.1,-0.5 -0.28,-0.5 -0.52,-0.26 -0.51,-0.09 -1.86,-0.16 -1.86,0.16 -0.51,0.09 -0.51,0.26 -0.29,0.5 -0.1,0.5 -0.13,0.21 -0.23,0.08 -0.26,-0.11 -0.11,-0.26 0,-4.97 Z M 9.26,5.98 l 0.03,-0.2 2.35,-3.52 0.19,-0.17 0.23,-0.06 0.23,0.06 0.19,0.17 2.33,3.5 0.02,0.24 -0.37,0.8 -1.52,-1.04 0,7.37 -1.75,0 0,-7.41 -1.73,1.08 -0.2,-0.82 Z M 2.21,5.87 l 0.01,-0.25 0.12,-0.2 0.21,-0.13 0.25,-0.01 4.14,0.83 0.18,0.13 0.44,0.89 -1.94,0.33 0.35,0.35 0.81,0.91 0.68,1 0.56,1.07 0.42,1.13 0.09,0.32 0.45,1.67 -0.85,0.22 -0.84,0.23 -0.45,-1.67 -0.07,-0.26 -0.35,-0.93 -0.46,-0.89 -0.56,-0.82 -0.66,-0.74 -0.36,-0.36 -0.32,1.94 -0.89,-0.44 -0.13,-0.18 -0.83,-4.14 Z M 15.66,12.24 l 0.42,-1.23 0.57,-1.16 0.72,-1.07 0.85,-0.97 0.35,-0.35 -1.94,-0.33 0.45,-0.89 0.17,-0.13 4.15,-0.83 0.25,0.01 0.2,0.13 0.12,0.2 0.02,0.25 -0.83,4.14 -0.14,0.18 -0.89,0.44 -0.32,-1.94 -0.35,0.36 -0.71,0.8 -0.58,0.88 -0.47,0.95 -0.35,1.01 -0.44,1.67 -0.85,-0.23 -0.84,-0.22 0.44,-1.67 Z" fill-rule="evenodd" fill="#000000" />
</svg>