<svg xmlns="http://www.w3.org/2000/svg" viewBox="0 0 24 24">
  <path id="cars" d="M 13.82,21.75 l -0.36,-0.17 -0.26,-0.28 -0.15,-0.37 -0.05,-0.41 0,-7.08 -0.58,0.2 -0.21,0.02 -0.19,-0.08 -0.13,-0.15 -0.05,-0.21 0.05,-0.21 0.14,-0.16 0.97,-0.64 0,-2.13 0.09,-0.57 0.23,-0.51 0.38,-0.43 0.48,-0.31 0.18,-0.08 0.82,-0.18 2.64,0 0.83,0.18 0.18,0.08 0.48,0.31 0.37,0.43 0.24,0.51 0.08,0.57 0,2.13 0.97,0.64 0.15,0.16 0.05,0.21 -0.05,0.21 -0.13,0.15 -0.19,0.08 -0.21,-0.02 -0.59,-0.2 0,7.08 -0.05,0.41 -0.15,0.37 -0.25,0.28 -0.36,0.17 -1.23,0.19 -1.46,0.06 -1.45,-0.06 -1.23,-0.19 Z M 4.81,15.75 l -0.36,-0.17 -0.25,-0.28 -0.15,-0.37 -0.05,-0.41 0,-7.08 -0.59,0.2 -0.21,0.02 -0.18,-0.08 -0.14,-0.15 -0.05,-0.21 0.06,-0.21 0.14,-0.16 0.97,-0.64 0,-2.13 0.08,-0.57 0.24,-0.51 0.37,-0.43 0.49,-0.31 0.18,-0.08 0.82,-0.18 2.64,0 0.82,0.18 0.18,0.08 0.49,0.31 0.37,0.43 0.24,0.51 0.08,0.57 0,2.13 0.97,0.64 0.14,0.16 0.06,0.21 -0.05,0.21 -0.14,0.15 -0.18,0.08 -0.21,-0.02 -0.59,-0.2 0,7.08 -0.05,0.41 -0.15,0.37 -0.25,0.28 -0.36,0.17 -1.23,0.19 -1.46,0.06 -1.46,-0.06 -1.23,-0.19 Z M 9.9,8.71 l 0.67,-1.74 -0.01,-0.31 -0.23,-0.19 -1.36,-0.29 -1.47,-0.1 -1.47,0.1 -1.36,0.29 -0.23,0.19 -0.01,0.31 0.67,1.74 0.16,0.2 0.26,0.05 0.62,-0.08 0.52,-0.05 0.87,-0.04 0.86,0.04 0.5,0.06 0.59,0.07 0.26,-0.05 0.16,-0.2 Z M 18.91,14.71 l 0.66,-1.74 -0.01,-0.31 -0.22,-0.19 -1.36,-0.29 -1.48,-0.1 -1.47,0.1 -1.36,0.29 -0.22,0.19 -0.01,0.31 0.66,1.74 0.17,0.2 0.25,0.05 0.62,-0.08 0.52,-0.05 0.87,-0.04 0.86,0.04 0.5,0.06 0.6,0.07 0.25,-0.05 0.17,-0.2 Z M 10.15,14.26 l -0.27,-0.95 -0.15,-0.21 -0.26,-0.07 -1.07,0.07 -0.84,0.03 -0.87,-0.03 -0.53,-0.03 -0.63,-0.05 -0.25,0.07 -0.16,0.22 -0.26,0.95 0.03,0.29 0.24,0.16 0.48,0.05 0.58,0.04 1.31,0.03 1.31,-0.03 0.58,-0.04 0.48,-0.05 0.24,-0.16 0.04,-0.29 Z M 19.15,20.26 l -0.27,-0.95 -0.15,-0.21 -0.26,-0.07 -1.06,0.07 -0.85,0.03 -0.87,-0.03 -0.53,-0.03 -0.62,-0.05 -0.26,0.07 -0.15,0.22 -0.27,0.95 0.03,0.29 0.24,0.16 0.49,0.05 0.57,0.04 1.31,0.03 1.32,-0.03 0.57,-0.04 0.49,-0.05 0.23,-0.16 0.04,-0.29 Z" fill-rule="evenodd" fill="#000000" />
</svg>