<svg xmlns="http://www.w3.org/2000/svg" viewBox="0 0 24 24">
  <path id="carsChange" d="M 22,12 l 0,6 -3,0 -1,0.5 -1,0 0,1.5 -0.15,0.35 -0.35,0.15 4.75,0 0.29,0.06 0.24,0.16 0.16,0.24 0.06,0.29 -0.06,0.29 -0.16,0.24 -0.24,0.16 -0.29,0.06 -18.5,0 -0.29,-0.06 -0.24,-0.16 -0.16,-0.24 -0.06,-0.29 0.06,-0.29 0.16,-0.24 0.24,-0.16 0.29,-0.06 6.75,0 -0.35,-0.15 -0.15,-0.35 0,-1.5 -1,0 -1,-0.5 -5,0 0,-6 7,0 -0.92,-2.76 -0.12,-0.2 -0.2,-0.11 -0.54,-0.12 -0.81,-0.15 -1.09,-0.11 -1.32,-0.05 -1.08,0.03 -0.92,0.08 0,-1.54 0.95,-0.05 1.05,-0.02 1.2,0.03 1.06,0.07 0.92,0.09 0.74,0.1 0.48,0.15 0.41,0.27 0.32,0.38 0.22,0.45 1.15,3.46 0.13,0.06 0.38,0.25 0.31,0.33 0.23,0.38 0.14,0.44 0.27,1.35 0.04,0.39 0,1.48 -0.1,0.63 -0.17,0.51 -0.28,0.42 -0.45,0.24 0,1.52 -0.15,0.35 -0.35,0.15 5,0 -0.35,-0.15 -0.15,-0.35 0,-1.52 -0.45,-0.24 -0.28,-0.42 -0.17,-0.51 -0.1,-0.63 0,-1.48 0.04,-0.39 0.27,-1.35 0.14,-0.44 0.23,-0.38 0.31,-0.33 0.38,-0.25 0.13,-0.06 1.15,-3.46 0.22,-0.45 0.32,-0.38 0.41,-0.27 0.48,-0.15 0.74,-0.1 0.92,-0.09 1.06,-0.07 1.2,-0.03 0,1.5 -1.32,0.05 -1.09,0.11 -0.81,0.15 -0.54,0.12 -0.2,0.11 -0.12,0.2 -0.92,2.76 5,0 Z M 16,2 l 1,0 0,5 -5,0 0,-1 1.94,-0.65 -0.77,-0.76 -0.65,-0.44 -0.76,-0.15 -2.52,0 -0.76,0.15 -0.65,0.44 -1.12,1.12 -1.42,-1.42 1.12,-1.12 0.61,-0.5 0.69,-0.37 0.75,-0.22 0.78,-0.08 2.52,0 0.78,0.08 0.75,0.22 0.69,0.37 0.61,0.5 0.76,0.77 0.65,-1.94 Z M 11,14.5 l 0,-0.48 -0.13,-0.49 -0.32,-0.35 -0.45,-0.16 -0.49,0.08 -1.56,0.67 -0.4,0.33 -0.15,0.5 0.07,0.35 0.19,0.29 0.29,0.19 0.35,0.07 1.6,0 0.39,-0.08 0.32,-0.21 0.21,-0.32 0.08,-0.39 Z M 15,14.5 l 0.08,0.39 0.21,0.32 0.32,0.21 0.39,0.08 1.6,0 0.35,-0.07 0.29,-0.19 0.19,-0.29 0.07,-0.35 -0.15,-0.5 -0.4,-0.33 -1.56,-0.67 -0.49,-0.08 -0.45,0.16 -0.32,0.35 -0.13,0.49 0,0.48 Z" fill-rule="evenodd" fill="#000000" />
</svg>