<svg xmlns="http://www.w3.org/2000/svg" viewBox="0 0 24 24">
  <path id="carSensors" d="M 6.52,11.3 l 0.17,-0.34 0.3,-0.26 0.19,-0.12 0.25,-0.2 0.18,-0.27 0.8,-1.81 0.28,-0.37 0.42,-0.2 1.36,-0.19 1.53,-0.07 1.53,0.07 1.36,0.19 0.42,0.2 0.28,0.37 0.8,1.81 0.18,0.27 0.25,0.2 0.19,0.12 0.3,0.26 0.17,0.34 0.14,0.51 0.04,0.25 0,1.32 -0.02,0.17 -0.11,0.59 -0.15,0.37 -0.29,0.28 0,1.23 -0.16,0.36 -0.4,0.15 -0.57,0 -0.4,-0.15 -0.17,-0.36 0,-1.02 -1.13,0 -0.56,-0.26 -3.4,0 -0.56,0.26 -1.13,0 0,1.02 -0.17,0.36 -0.4,0.15 -0.57,0 -0.4,-0.15 -0.16,-0.36 0,-1.23 -0.29,-0.28 -0.15,-0.37 -0.11,-0.59 -0.02,-0.17 0,-1.32 0.04,-0.25 0.14,-0.51 Z M 9.05,8.66 l -0.73,1.75 1.04,-0.05 0.94,-0.03 1.72,-0.02 1.72,0.03 1.94,0.07 -0.73,-1.75 -0.18,-0.22 -0.29,-0.11 -2.51,-0.11 -2.45,0.11 -0.29,0.11 -0.18,0.22 Z M 19.93,17.36 l 0.47,-1.31 0.33,-1.33 0.2,-1.36 0.07,-1.36 -0.07,-1.36 -0.2,-1.36 -0.33,-1.33 -0.47,-1.31 0.93,-0.38 0.5,1.4 0.35,1.43 0.22,1.45 0.07,1.46 -0.07,1.46 -0.22,1.45 -0.35,1.43 -0.5,1.4 -0.93,-0.38 Z M 4.16,17.58 l -0.92,0.4 -0.52,-1.39 -0.38,-1.42 -0.24,-1.45 -0.1,-1.46 0.05,-1.46 0.19,-1.46 0.33,-1.43 0.47,-1.41 0.93,0.37 -0.44,1.31 -0.31,1.34 -0.18,1.36 -0.04,1.36 0.09,1.37 0.23,1.35 0.35,1.33 0.49,1.29 Z M 18.35,15.03 l 0.3,-1.52 0.1,-1.53 -0.1,-1.53 -0.3,-1.51 1.2,-0.32 0.34,1.67 0.11,1.69 -0.11,1.69 -0.33,1.68 -1.21,-0.32 Z M 5.65,15.03 l -1.21,0.32 -0.33,-1.67 -0.11,-1.69 0.11,-1.69 0.34,-1.68 1.2,0.33 -0.3,1.51 -0.1,1.53 0.1,1.53 0.3,1.51 Z M 16,20 l 0,1 -8,0 0,-1 8,0 Z M 10,18 l 4,0 0,1 -4,0 0,-1 Z M 15.83,11.58 l -1.09,0.25 -0.34,0.2 -0.14,0.35 0.05,0.23 0.14,0.18 0.45,0.17 1.12,0 0.36,-0.08 0.27,-0.21 0.13,-0.3 -0.03,-0.33 -0.14,-0.23 -0.22,-0.16 -0.27,-0.08 -0.29,0.01 Z M 7.25,12.04 l -0.03,0.33 0.13,0.3 0.27,0.21 0.36,0.08 1.12,0 0.45,-0.17 0.14,-0.18 0.05,-0.23 -0.14,-0.35 -0.34,-0.2 -1.09,-0.25 -0.29,-0.01 -0.27,0.08 -0.22,0.16 -0.14,0.23 Z" fill-rule="evenodd" fill="#000000" />
</svg>