<svg xmlns="http://www.w3.org/2000/svg" viewBox="0 0 24 24">
  <path id="carsChase02" d="M 11,4.4 l 0,5.93 0.5,-0.16 0.34,0.05 0.16,0.3 -0.17,0.32 -0.83,0.55 0,1.7 -0.08,0.55 -0.23,0.49 -0.35,0.4 -0.47,0.3 -0.78,0.17 -2.18,0 -0.78,-0.17 -0.47,-0.3 -0.35,-0.4 -0.23,-0.49 -0.08,-0.55 0,-1.7 -0.83,-0.55 -0.17,-0.32 0.16,-0.3 0.34,-0.05 0.5,0.16 0,-5.93 0.05,-0.41 0.15,-0.37 0.26,-0.27 0.36,-0.16 1.01,-0.14 1.17,-0.05 1.17,0.05 1.01,0.14 0.36,0.16 0.26,0.27 0.15,0.37 0.05,0.41 Z M 19,10.4 l 0,5.93 0.5,-0.16 0.34,0.05 0.16,0.3 -0.17,0.32 -0.83,0.55 0,1.7 -0.08,0.55 -0.23,0.49 -0.35,0.4 -0.47,0.3 -0.78,0.17 -2.18,0 -0.78,-0.17 -0.47,-0.3 -0.35,-0.4 -0.23,-0.49 -0.08,-0.55 0,-1.7 -0.83,-0.55 -0.17,-0.32 0.16,-0.3 0.34,-0.05 0.5,0.16 0,-5.93 0.05,-0.41 0.15,-0.37 0.26,-0.27 0.36,-0.16 1.01,-0.14 1.17,-0.05 1.17,0.05 1.01,0.14 0.36,0.16 0.26,0.27 0.15,0.37 0.05,0.41 Z M 5.93,9.29 l -0.54,1.4 0.01,0.3 0.22,0.2 1.15,0.23 1.23,0.08 1.23,-0.08 1.15,-0.23 0.22,-0.2 0.01,-0.3 -0.53,-1.4 -0.17,-0.2 -0.25,-0.05 -0.95,0.11 -0.74,0.03 -0.71,-0.04 -0.92,-0.1 -0.25,0.05 -0.16,0.2 Z M 14.34,15.04 l -0.25,0.05 -0.16,0.2 -0.54,1.4 0.01,0.3 0.22,0.2 1.15,0.23 1.23,0.08 1.23,-0.08 1.15,-0.23 0.22,-0.2 0.01,-0.3 -0.53,-1.4 -0.17,-0.2 -0.25,-0.05 -0.95,0.11 -0.74,0.03 -0.71,-0.04 -0.92,-0.1 Z M 5.75,4.55 l 0.2,0.71 0.15,0.22 0.26,0.07 0.88,-0.07 0.71,-0.02 0.73,0.02 0.96,0.07 0.26,-0.07 0.15,-0.22 0.2,-0.71 -0.03,-0.29 -0.24,-0.16 -0.89,-0.07 -1.09,-0.03 -1.09,0.03 -0.89,0.07 -0.24,0.16 -0.03,0.29 Z M 14.02,10.1 l -0.24,0.16 -0.03,0.29 0.2,0.71 0.15,0.22 0.26,0.07 0.88,-0.07 0.71,-0.02 0.73,0.02 0.96,0.07 0.26,-0.07 0.15,-0.22 0.2,-0.71 -0.03,-0.29 -0.24,-0.16 -0.89,-0.07 -1.09,-0.03 -1.09,0.03 -0.89,0.07 Z M 6.2,7.46 l -0.14,0.06 -0.06,0.14 0,0.58 0.06,0.14 0.14,0.06 1.6,0 0,-0.98 -1.6,0 Z M 9.8,8.44 l 0.14,-0.06 0.06,-0.14 0,-0.58 -0.06,-0.14 -0.14,-0.06 -1.6,0 0,0.98 1.6,0 Z" fill-rule="evenodd" fill="#000000" />
</svg>