<svg xmlns="http://www.w3.org/2000/svg" viewBox="0 0 48 48">
  <path id="carSideOutlineLarge" d="M 11.98,17.38 l -1.61,2.01 -0.44,0.45 -0.51,0.37 -0.57,0.27 -0.62,0.16 -0.49,0.18 -0.39,0.32 -0.26,0.44 -0.09,0.52 0,0.4 0,1.79 -0.05,0.53 -0.16,0.51 -0.24,0.46 -0.34,0.42 -0.16,0.23 -0.05,0.27 0,1.67 0.17,0.73 0.26,0.37 0.34,0.28 0.4,0.18 0.45,0.06 0.51,0 0.21,-0.62 0.32,-0.58 0.4,-0.51 0.47,-0.44 0.54,-0.36 0.6,-0.26 0.65,-0.17 0.68,-0.06 0.68,0.06 0.65,0.17 0.6,0.26 0.54,0.36 0.47,0.44 0.4,0.51 0.32,0.58 0.21,0.62 16.26,0 0.21,-0.62 0.32,-0.58 0.4,-0.51 0.47,-0.44 0.54,-0.36 0.6,-0.26 0.65,-0.17 0.68,-0.06 0.68,0.06 0.65,0.17 0.6,0.26 0.54,0.36 0.47,0.44 0.4,0.51 0.32,0.58 0.21,0.62 1.51,0 0.45,-0.06 0.4,-0.18 0.34,-0.28 0.26,-0.37 0.17,-0.73 0,-0.67 -0.05,-0.27 -0.16,-0.23 -0.23,-0.16 -0.27,-0.05 -3.12,0 -0.95,-0.15 -0.85,-0.45 -0.97,-0.73 -0.63,-0.64 -0.42,-0.81 -0.3,-0.9 1.9,-0.64 0.3,0.91 0.35,0.48 0.97,0.73 0.28,0.15 0.32,0.05 3.12,0 0.53,0.05 0.51,0.16 0.46,0.24 0.42,0.34 0.34,0.42 0.24,0.46 0.16,0.51 0.05,0.53 0,0.67 -0.1,0.83 -0.28,0.79 -0.57,0.83 -0.77,0.63 -0.9,0.4 -1,0.14 -1.51,0 -0.21,0.62 -0.32,0.58 -0.4,0.51 -0.47,0.44 -0.54,0.36 -0.6,0.26 -0.65,0.17 -0.68,0.06 -0.68,-0.06 -0.65,-0.17 -0.6,-0.26 -0.54,-0.36 -0.47,-0.44 -0.4,-0.51 -0.32,-0.58 -0.21,-0.62 -16.26,0 -0.21,0.62 -0.32,0.58 -0.4,0.51 -0.47,0.44 -0.54,0.36 -0.6,0.26 -0.65,0.17 -0.68,0.06 -0.68,-0.06 -0.65,-0.17 -0.6,-0.26 -0.54,-0.36 -0.47,-0.44 -0.4,-0.51 -0.32,-0.58 -0.21,-0.62 -0.51,0 -1,-0.14 -0.9,-0.4 -0.77,-0.63 -0.57,-0.83 -0.28,-0.79 -0.1,-0.83 0,-1.67 0.05,-0.53 0.16,-0.51 0.24,-0.46 0.34,-0.42 0.16,-0.23 0.05,-0.27 0,-1.79 0,-0.4 0.06,-0.63 0.16,-0.59 0.26,-0.54 0.34,-0.49 0.43,-0.42 0.49,-0.35 0.56,-0.25 0.6,-0.16 0.51,-0.18 0.4,-0.35 1.61,-2.01 1.11,-1.11 1.32,-0.83 1.47,-0.51 1.56,-0.18 6.93,0 0.72,0.05 0.7,0.15 0.67,0.24 0.64,0.34 1.51,1.01 1.45,1.08 1.38,1.17 1.32,1.25 0.21,0.21 2.51,0 1.62,0.08 1.6,0.25 1.56,0.4 1.52,0.56 0.43,0.19 0.62,0.33 0.45,0.3 0.54,0.47 0.4,0.57 0.25,0.65 0.09,0.7 -2,0 -0.1,-0.41 -0.29,-0.31 -0.45,-0.3 -0.3,-0.16 -0.42,-0.19 -1.33,-0.49 -1.37,-0.35 -1.4,-0.22 -1.42,-0.07 -2.6,0 -0.68,-0.13 -0.57,-0.39 -0.28,-0.28 -2.54,-2.26 -2.77,-1.96 -0.8,-0.36 -0.87,-0.12 -6.93,0 -1.11,0.13 -1.05,0.36 -0.94,0.59 -0.8,0.8 Z M 12,33 l 0.78,-0.16 0.63,-0.43 0.43,-0.63 0.16,-0.78 -0.16,-0.78 -0.43,-0.63 -0.63,-0.43 -0.78,-0.16 -0.78,0.16 -0.63,0.43 -0.43,0.63 -0.16,0.78 0.16,0.78 0.43,0.63 0.63,0.43 0.78,0.16 Z M 36,33 l 0.78,-0.16 0.63,-0.43 0.43,-0.63 0.16,-0.78 -0.16,-0.78 -0.43,-0.63 -0.63,-0.43 -0.78,-0.16 -0.78,0.16 -0.63,0.43 -0.43,0.63 -0.16,0.78 0.16,0.78 0.43,0.63 0.63,0.43 0.78,0.16 Z" fill-rule="evenodd" fill="#000000" />
</svg>