<svg xmlns="http://www.w3.org/2000/svg" viewBox="0 0 24 24">
  <path id="carStarred" d="M 13.67,5.14 l 1.01,-1.86 0.25,-0.34 0.32,-0.24 0.36,-0.15 0.38,-0.05 0.39,0.05 0.36,0.14 0.32,0.24 0.26,0.35 1.21,2.23 2.5,0.47 0.4,0.13 0.33,0.23 0.25,0.3 0.17,0.34 0.07,0.38 -0.02,0.39 -0.13,0.38 -0.25,0.36 -1.75,1.84 0.33,2.52 -0.08,0.7 -0.35,0.55 0,1.34 -0.02,0.3 -0.18,1.05 -0.24,0.65 -0.46,0.5 0,2.16 -0.07,0.35 -0.19,0.29 -0.29,0.19 -0.35,0.07 -0.9,0 -0.35,-0.07 -0.29,-0.19 -0.19,-0.29 -0.07,-0.35 0,-1.8 -1.8,0 -0.9,-0.45 -5.4,0 -0.9,0.45 -1.8,0 0,1.8 -0.07,0.35 -0.19,0.29 -0.29,0.19 -0.35,0.07 -0.9,0 -0.35,-0.07 -0.29,-0.19 -0.19,-0.29 -0.07,-0.35 0,-2.16 -0.46,-0.5 -0.24,-0.65 -0.18,-1.05 -0.02,-0.3 0,-2.33 0.05,-0.44 0.23,-0.91 0.28,-0.6 0.47,-0.46 0.3,-0.21 0.4,-0.36 0.28,-0.47 1.28,-3.21 0.44,-0.64 0.31,-0.22 0.36,-0.14 1.64,-0.28 1.85,-0.15 1.92,-0.01 1.86,0.13 Z M 13.48,9.82 l -0.42,3.23 2.94,-1.4 2.84,1.35 0.09,0 -0.41,-3.18 2.24,-2.37 -3.2,-0.59 -1.56,-2.86 -1.56,2.86 -3.2,0.59 2.24,2.37 Z M 11.61,10.02 l -1.46,-1.53 -0.32,-0.54 -0.08,-0.59 0.15,-0.57 0.36,-0.47 -3.21,0.2 -0.45,0.18 -0.29,0.39 -1.16,3.09 1.81,-0.09 1.64,-0.05 3.01,-0.02 Z M 4.91,12.26 l -0.47,-0.02 -0.43,0.14 -0.34,0.28 -0.23,0.41 -0.05,0.59 0.22,0.52 0.42,0.37 0.58,0.14 1.78,0 0.39,-0.08 0.32,-0.22 0.22,-0.32 0.08,-0.39 -0.06,-0.34 -0.15,-0.28 -0.25,-0.23 -0.31,-0.13 -1.72,-0.44 Z" fill-rule="evenodd" fill="#000000" />
</svg>