<svg xmlns="http://www.w3.org/2000/svg" viewBox="0 0 24 24">
  <path id="carWithLidar" d="M 7.9,10.75 l 0.32,-0.32 0.37,-0.23 0.42,-0.15 0.45,-0.05 3.04,0 0.73,0.05 0.64,0.17 0.57,0.31 0.56,0.47 2,2 2.46,0.86 1,0.45 0.47,0.37 0.38,0.45 0.29,0.52 0.2,0.56 0.08,0.31 0.12,0.98 -0.15,0.35 -0.35,0.15 -1.5,0 -0.06,-0.6 -0.18,-0.57 -0.27,-0.51 -0.37,-0.44 -0.44,-0.37 -0.51,-0.27 -0.57,-0.18 -0.6,-0.06 -0.6,0.06 -0.57,0.18 -0.51,0.27 -0.44,0.37 -0.37,0.44 -0.27,0.51 -0.18,0.57 -0.06,0.6 -5,0 -0.06,-0.6 -0.18,-0.57 -0.27,-0.51 -0.37,-0.44 -0.44,-0.37 -0.51,-0.27 -0.57,-0.18 -0.6,-0.06 -0.6,0.06 -0.57,0.18 -0.51,0.27 -0.44,0.37 -0.37,0.44 -0.27,0.51 -0.18,0.57 -0.06,0.6 -0.5,0 -0.35,-0.15 -0.15,-0.35 0,-2 0.17,-0.85 0.36,-0.89 0.25,-0.39 0.34,-0.3 0.41,-0.2 0.46,-0.11 2.51,-0.26 1.4,-1.75 Z M 10.57,4.5 l 2.86,0 0.38,0.17 0.12,0.39 -0.43,3.44 -3,0 -0.43,-3.44 0.12,-0.39 0.38,-0.17 Z M 19,18 l -0.16,0.78 -0.43,0.63 -0.63,0.43 -0.78,0.16 -0.78,-0.16 -0.63,-0.43 -0.43,-0.63 -0.16,-0.78 0.16,-0.78 0.43,-0.63 0.63,-0.43 0.78,-0.16 0.78,0.16 0.63,0.43 0.43,0.63 0.16,0.78 Z M 6,16 l 0.78,0.16 0.63,0.43 0.43,0.63 0.16,0.78 -0.16,0.78 -0.43,0.63 -0.63,0.43 -0.78,0.16 -0.78,-0.16 -0.63,-0.43 -0.43,-0.63 -0.16,-0.78 0.16,-0.78 0.43,-0.63 0.63,-0.43 0.78,-0.16 Z M 22,6.75 l -6,0 0,-1.5 6,0 0,1.5 Z M 8,6.75 l -6,0 0,-1.5 6,0 0,1.5 Z M 8.8,8.69 l -4.5,2 -0.6,-1.38 4.5,-2 0.6,1.38 Z M 19.7,10.69 l -4.5,-2 0.6,-1.38 4.5,2 -0.6,1.38 Z M 8.08,4.62 l -1.5,-1 0.84,-1.24 1.5,1 -0.84,1.24 Z M 17.42,3.62 l -1.5,1 -0.84,-1.24 1.5,-1 0.84,1.24 Z" fill-rule="evenodd" fill="#000000" />
</svg>