<svg xmlns="http://www.w3.org/2000/svg" viewBox="0 0 24 24">
  <path id="catalog01" d="M 22,9 l 0.39,0.08 0.32,0.21 0.21,0.32 0.08,0.39 0,12 -0.08,0.39 -0.21,0.32 -0.32,0.21 -0.39,0.08 -20,0 -0.39,-0.08 -0.32,-0.21 -0.21,-0.32 -0.08,-0.39 0,-12 0.08,-0.39 0.21,-0.32 0.32,-0.21 0.39,-0.08 20,0 Z M 20,5 l 0.39,0.08 0.32,0.21 0.21,0.32 0.08,0.39 -0.08,0.39 -0.21,0.32 -0.32,0.21 -0.39,0.08 -16,0 -0.39,-0.08 -0.32,-0.21 -0.21,-0.32 -0.08,-0.39 0.08,-0.39 0.21,-0.32 0.32,-0.21 0.39,-0.08 16,0 Z M 11.82,11.39 l -1.18,2.57 -0.16,0.11 -2.8,0.33 -0.17,0.14 0.05,0.21 2.08,1.92 0.06,0.18 -0.55,2.77 0.07,0.2 0.22,0.01 2.46,-1.38 0.2,0 2.46,1.38 0.22,-0.01 0.07,-0.2 -0.55,-2.77 0.06,-0.18 2.08,-1.92 0.05,-0.21 -0.17,-0.14 -2.8,-0.33 -0.16,-0.11 -1.18,-2.57 -0.18,-0.11 -0.18,0.11 Z M 18,1 l 0.39,0.08 0.32,0.21 0.21,0.32 0.08,0.39 -0.08,0.39 -0.21,0.32 -0.32,0.21 -0.39,0.08 -12,0 -0.39,-0.08 -0.32,-0.21 -0.21,-0.32 -0.08,-0.39 0.08,-0.39 0.21,-0.32 0.32,-0.21 0.39,-0.08 12,0 Z" fill-rule="evenodd" fill="#000000" />
</svg>