<svg xmlns="http://www.w3.org/2000/svg" viewBox="0 0 24 24">
  <path id="catalog02" d="M 2,4 l 0.08,-0.39 0.21,-0.32 0.32,-0.21 0.39,-0.08 10,0 0.39,0.08 0.32,0.21 0.21,0.32 0.08,0.39 0,16 -0.08,0.39 -0.21,0.32 -0.32,0.21 -0.39,0.08 -10,0 -0.39,-0.08 -0.32,-0.21 -0.21,-0.32 -0.08,-0.39 0,-16 Z M 21,13 l 0.39,0.08 0.32,0.21 0.21,0.32 0.08,0.39 0,5 -0.08,0.39 -0.21,0.32 -0.32,0.21 -0.39,0.08 -4,0 -0.39,-0.08 -0.32,-0.21 -0.21,-0.32 -0.08,-0.39 0,-5 0.08,-0.39 0.21,-0.32 0.32,-0.21 0.39,-0.08 4,0 Z M 21,4 l 0.39,0.08 0.32,0.21 0.21,0.32 0.08,0.39 0,5 -0.08,0.39 -0.21,0.32 -0.32,0.21 -0.39,0.08 -4,0 -0.39,-0.08 -0.32,-0.21 -0.21,-0.32 -0.08,-0.39 0,-5 0.08,-0.39 0.21,-0.32 0.32,-0.21 0.39,-0.08 4,0 Z M 7.82,8.39 l -0.9,1.96 -0.16,0.11 -2.13,0.25 -0.17,0.14 0.05,0.21 1.58,1.46 0.06,0.18 -0.42,2.11 0.08,0.2 0.22,0.01 1.87,-1.05 0.2,0 1.87,1.05 0.22,-0.01 0.08,-0.2 -0.42,-2.11 0.06,-0.18 1.58,-1.46 0.05,-0.21 -0.17,-0.14 -2.13,-0.25 -0.16,-0.11 -0.9,-1.96 -0.18,-0.11 -0.18,0.11 Z" fill-rule="evenodd" fill="#000000" />
</svg>