<svg xmlns="http://www.w3.org/2000/svg" viewBox="0 0 48 48">
  <path id="caution" d="M 22.12,29.5 l -1.08,-10.82 0,-9.16 5.96,0 0,9.16 -1.08,10.82 -3.8,0 Z M 24,38.48 l -0.78,-0.07 -0.71,-0.2 -0.64,-0.35 -0.57,-0.48 -0.46,-0.58 -0.34,-0.63 -0.19,-0.7 -0.07,-0.75 0.07,-0.78 0.19,-0.7 0.34,-0.65 0.46,-0.57 0.57,-0.48 0.64,-0.34 0.71,-0.21 0.78,-0.07 0.8,0.07 0.72,0.21 0.66,0.34 0.58,0.48 0.49,0.57 0.35,0.65 0.21,0.7 0.07,0.78 -0.07,0.75 -0.21,0.7 -0.35,0.63 -0.49,0.58 -0.58,0.48 -0.66,0.35 -0.72,0.2 -0.8,0.07 Z" fill-rule="evenodd" fill="#000000" />
</svg>