<svg xmlns="http://www.w3.org/2000/svg" viewBox="0 0 24 24">
  <path id="centrifugalClutchLocked03" d="M 22,12 l -0.05,1.02 -0.15,1 -0.25,0.95 -0.34,0.92 -0.92,1.7 -1.22,1.48 -1.48,1.22 -1.7,0.92 -0.92,0.34 -0.95,0.25 -1,0.15 -1.02,0.05 -1.02,-0.05 -1,-0.15 -0.95,-0.25 -0.92,-0.34 -1.7,-0.92 -1.48,-1.22 -1.22,-1.48 -0.92,-1.7 -0.34,-0.92 -0.25,-0.95 -0.15,-1 -0.05,-1.02 0.05,-1.02 0.15,-1 0.25,-0.95 0.34,-0.92 0.92,-1.7 1.22,-1.48 1.48,-1.22 1.7,-0.92 0.92,-0.34 0.95,-0.25 1,-0.15 1.02,-0.05 1.02,0.05 1,0.15 0.95,0.25 0.92,0.34 1.7,0.92 1.48,1.22 1.22,1.48 0.92,1.7 0.34,0.92 0.25,0.95 0.15,1 0.05,1.02 Z M 18.93,16 l -2.6,-1.5 0.5,-1.21 0.17,-1.29 -0.17,-1.29 -0.5,-1.21 -0.79,-1.04 -1.04,-0.79 -1.21,-0.5 -1.29,-0.17 0,-3 -1.09,0.07 -1.05,0.22 -0.99,0.35 -0.93,0.46 -0.85,0.58 -0.77,0.69 -0.68,0.77 -0.57,0.86 2.6,1.5 -0.5,1.21 -0.17,1.29 0.17,1.29 0.5,1.21 0.79,1.04 1.04,0.79 1.21,0.5 1.29,0.17 0,3 1.09,-0.07 1.05,-0.22 0.99,-0.35 0.93,-0.46 0.85,-0.58 0.77,-0.69 0.68,-0.77 0.57,-0.86 Z M 12,15 l -0.6,-0.06 -0.57,-0.18 -0.51,-0.27 -0.44,-0.37 -0.37,-0.44 -0.27,-0.51 -0.18,-0.57 -0.06,-0.6 0.06,-0.6 0.18,-0.57 0.27,-0.51 0.37,-0.44 0.44,-0.37 0.51,-0.27 0.57,-0.18 0.6,-0.06 0.6,0.06 0.57,0.18 0.51,0.27 0.44,0.37 0.37,0.44 0.27,0.51 0.18,0.57 0.06,0.6 -0.06,0.6 -0.18,0.57 -0.27,0.51 -0.37,0.44 -0.44,0.37 -0.51,0.27 -0.57,0.18 -0.6,0.06 Z" fill-rule="evenodd" fill="#000000" />
</svg>