<svg xmlns="http://www.w3.org/2000/svg" viewBox="0 0 24 24">
  <path id="centrifugalClutchUnlocked03" d="M 22,12 l -0.05,1.02 -0.15,1 -0.25,0.95 -0.34,0.92 -0.92,1.7 -1.22,1.48 -1.48,1.22 -1.7,0.92 -0.92,0.34 -0.95,0.25 -1,0.15 -1.02,0.05 -1.02,-0.05 -1,-0.15 -0.95,-0.25 -0.92,-0.34 -1.7,-0.92 -1.48,-1.22 -1.22,-1.48 -0.92,-1.7 -0.34,-0.92 -0.25,-0.95 -0.15,-1 -0.05,-1.02 0.05,-1.02 0.15,-1 0.25,-0.95 0.34,-0.92 0.92,-1.7 1.22,-1.48 1.48,-1.22 1.7,-0.92 0.92,-0.34 0.95,-0.25 1,-0.15 1.02,-0.05 1.02,0.05 1,0.15 0.95,0.25 0.92,0.34 1.7,0.92 1.48,1.22 1.22,1.48 0.92,1.7 0.34,0.92 0.25,0.95 0.15,1 0.05,1.02 Z M 20,12 l -0.16,-1.61 -0.47,-1.5 -0.74,-1.36 -0.97,-1.19 -1.19,-0.97 -1.36,-0.74 -1.5,-0.47 -1.61,-0.16 -1.61,0.16 -1.5,0.47 -1.36,0.74 -1.19,0.97 -0.97,1.19 -0.74,1.36 -0.47,1.5 -0.16,1.61 0.16,1.61 0.47,1.5 0.74,1.36 0.97,1.19 1.19,0.97 1.36,0.74 1.5,0.47 1.61,0.16 1.61,-0.16 1.5,-0.47 1.36,-0.74 1.19,-0.97 0.97,-1.19 0.74,-1.36 0.47,-1.5 0.16,-1.61 Z M 14.6,13.5 l -0.47,0.61 -0.61,0.48 -0.72,0.3 -0.8,0.11 0,3 -0.78,-0.05 -0.77,-0.15 -0.74,-0.26 -0.71,-0.34 -0.65,-0.44 -0.59,-0.52 -0.52,-0.59 -0.44,-0.65 -0.34,-0.71 -0.26,-0.74 -0.15,-0.77 -0.05,-0.78 0.05,-0.78 0.15,-0.77 0.26,-0.74 0.34,-0.71 2.6,1.5 0.47,-0.61 0.61,-0.48 0.72,-0.3 0.8,-0.11 0,-3 0.78,0.05 0.77,0.15 0.74,0.26 0.71,0.34 0.65,0.44 0.59,0.52 0.52,0.59 0.44,0.65 0.34,0.71 0.26,0.74 0.15,0.77 0.05,0.78 -0.05,0.78 -0.15,0.77 -0.26,0.74 -0.34,0.71 -2.6,-1.5 Z" fill-rule="evenodd" fill="#000000" />
</svg>