<svg xmlns="http://www.w3.org/2000/svg" viewBox="0 0 24 24">
  <path id="charging" d="M 3.4,14.26 l 6.12,-11.34 0.26,-0.23 0.32,-0.01 0.26,0.17 0.1,0.33 -0.28,6.3 0.14,0.37 0.36,0.15 4.45,0 0.26,0.07 0.17,0.18 0.07,0.24 -0.07,0.26 -6.09,10.47 -0.26,0.22 -0.31,0.01 -0.26,-0.18 -0.1,-0.33 0.28,-5.41 -0.14,-0.37 -0.36,-0.16 -4.48,0 -0.26,-0.07 -0.17,-0.17 -0.07,-0.24 0.06,-0.26 Z M 16,12.53 l 2.53,-2.53 2.53,2.53 -1.06,1.06 -1.47,-1.47 -1.47,1.47 -1.06,-1.06 Z M 16,16.53 l 2.53,-2.53 2.53,2.53 -1.06,1.06 -1.47,-1.47 -1.47,1.47 -1.06,-1.06 Z M 16,8.53 l 2.53,-2.53 2.53,2.53 -1.06,1.06 -1.47,-1.47 -1.47,1.47 -1.06,-1.06 Z" fill-rule="evenodd" fill="#000000" />
</svg>