<svg xmlns="http://www.w3.org/2000/svg" viewBox="0 0 24 24">
  <path id="chartBars" d="M 10,6 l 0.08,-0.39 0.21,-0.32 0.32,-0.21 0.39,-0.08 2,0 0.39,0.08 0.32,0.21 0.21,0.32 0.08,0.39 0,13 -0.08,0.39 -0.21,0.32 -0.32,0.21 -0.39,0.08 -2,0 -0.39,-0.08 -0.32,-0.21 -0.21,-0.32 -0.08,-0.39 0,-13 Z M 4,11 l 0.08,-0.39 0.21,-0.32 0.32,-0.21 0.39,-0.08 2,0 0.39,0.08 0.32,0.21 0.21,0.32 0.08,0.39 0,8 -0.08,0.39 -0.21,0.32 -0.32,0.21 -0.39,0.08 -2,0 -0.39,-0.08 -0.32,-0.21 -0.21,-0.32 -0.08,-0.39 0,-8 Z M 16,15 l 0.08,-0.39 0.21,-0.32 0.32,-0.21 0.39,-0.08 2,0 0.39,0.08 0.32,0.21 0.21,0.32 0.08,0.39 0,4 -0.08,0.39 -0.21,0.32 -0.32,0.21 -0.39,0.08 -2,0 -0.39,-0.08 -0.32,-0.21 -0.21,-0.32 -0.08,-0.39 0,-4 Z" fill-rule="evenodd" fill="#000000" />
</svg>