<svg xmlns="http://www.w3.org/2000/svg" viewBox="0 0 24 24">
  <path id="chatBubble" d="M 3,7.5 l 0.06,-0.6 0.18,-0.57 0.27,-0.51 0.37,-0.44 0.44,-0.37 0.51,-0.27 0.57,-0.18 0.6,-0.06 12,0 0.6,0.06 0.57,0.18 0.51,0.27 0.44,0.37 0.37,0.44 0.27,0.51 0.18,0.57 0.06,0.6 0,8.5 -0.06,0.6 -0.18,0.57 -0.27,0.51 -0.37,0.44 -0.44,0.37 -0.51,0.27 -0.57,0.18 -0.6,0.06 -6.75,0 -0.98,0.97 -1.11,0.81 -1.22,0.63 -1.32,0.43 -0.62,0.16 0.11,-0.21 0.53,-1.36 0.3,-1.43 -0.94,0 -0.6,-0.06 -0.57,-0.18 -0.51,-0.27 -0.44,-0.37 -0.37,-0.44 -0.27,-0.51 -0.18,-0.57 -0.06,-0.6 0,-8.5 Z M 6,12 l 0.08,0.39 0.21,0.32 0.32,0.21 0.39,0.08 10,0 0.39,-0.08 0.32,-0.21 0.21,-0.32 0.08,-0.39 -0.08,-0.39 -0.21,-0.32 -0.32,-0.21 -0.39,-0.08 -10,0 -0.39,0.08 -0.32,0.21 -0.21,0.32 -0.08,0.39 Z M 7.12,6.5 l -0.49,0.1 -0.4,0.27 -0.27,0.39 -0.09,0.49 0.09,0.49 0.27,0.39 0.4,0.27 0.49,0.1 6.5,0 0.48,-0.1 0.4,-0.27 0.27,-0.39 0.1,-0.49 -0.1,-0.49 -0.27,-0.39 -0.4,-0.27 -0.48,-0.1 -6.5,0 Z M 7,15 l -0.39,0.08 -0.32,0.21 -0.21,0.32 -0.08,0.39 0.08,0.39 0.21,0.32 0.32,0.21 0.39,0.08 5,0 0.39,-0.08 0.32,-0.21 0.21,-0.32 0.08,-0.39 -0.08,-0.39 -0.21,-0.32 -0.32,-0.21 -0.39,-0.08 -5,0 Z" fill-rule="evenodd" fill="#000000" />
</svg>