<svg xmlns="http://www.w3.org/2000/svg" viewBox="0 0 24 24">
  <path id="checkboxOn" d="M 19.16,6.97 l -0.1,-0.72 -0.26,-0.67 -0.4,-0.58 -0.18,-0.11 -0.2,-0.02 -0.19,0.09 -0.14,0.16 -6.55,12.11 -0.18,0.19 -0.25,0.07 -1.99,0.05 -0.26,-0.07 -0.19,-0.19 -3.16,-5.73 -0.05,-0.37 0.22,-0.3 1.68,-1.05 0.4,-0.06 0.31,0.26 1.52,2.94 0.19,0.2 0.25,0.07 0.25,-0.07 0.19,-0.2 4.43,-8.23 0.06,-0.26 -0.08,-0.24 -0.17,-0.17 -0.25,-0.07 -7.06,0 -0.6,0.06 -0.57,0.18 -0.51,0.27 -0.44,0.37 -0.37,0.44 -0.27,0.51 -0.18,0.57 -0.06,0.6 0,10 0.06,0.6 0.18,0.57 0.27,0.51 0.37,0.44 0.44,0.37 0.51,0.27 0.57,0.18 0.6,0.06 6.66,0 0.99,-0.17 0.85,-0.47 0.67,-0.71 0.4,-0.92 2.5,-10 Z" fill-rule="evenodd" fill="#000000" />
</svg>