<svg xmlns="http://www.w3.org/2000/svg" viewBox="0 0 24 24">
  <path id="checkboxOff" d="M 7,4 l 9.16,0 0.7,0.08 0.64,0.24 0.56,0.36 0.46,0.47 0.35,0.57 0.22,0.63 0.07,0.67 -0.09,0.71 -2.5,10 -0.4,0.92 -0.67,0.71 -0.85,0.47 -0.99,0.17 -6.66,0 -0.6,-0.06 -0.57,-0.18 -0.51,-0.27 -0.44,-0.37 -0.37,-0.44 -0.27,-0.51 -0.18,-0.57 -0.06,-0.6 0,-10 0.06,-0.6 0.18,-0.57 0.27,-0.51 0.37,-0.44 0.44,-0.37 0.51,-0.27 0.57,-0.18 0.6,-0.06 Z M 16.16,6 l -9.16,0 -0.39,0.08 -0.32,0.21 -0.21,0.32 -0.08,0.39 0,10 0.08,0.39 0.21,0.32 0.32,0.21 0.39,0.08 6.66,0 0.33,-0.06 0.28,-0.15 0.22,-0.24 0.14,-0.31 2.5,-10 0,-0.46 -0.18,-0.4 -0.34,-0.27 -0.45,-0.11 Z" fill-rule="evenodd" fill="#000000" />
</svg>