<svg xmlns="http://www.w3.org/2000/svg" viewBox="0 0 24 24">
  <path id="circuitMicrochip" d="M 18,12 l 0,1 2,0 0,1.5 -2,0 0,1.5 2,0 0,1.5 -2,0 0,1.5 2,0 0,1.5 -2,0 0,1.5 -6,0 0,-4.5 -2,0 0,-1.5 2,0 0,-1.5 -2,0 0,-1.5 2,0 0,-1 6,0 Z M 7,9 l -0.6,-0.06 -0.57,-0.18 -0.51,-0.27 -0.44,-0.37 -0.37,-0.44 -0.27,-0.51 -0.18,-0.57 -0.06,-0.6 0.06,-0.6 0.18,-0.57 0.27,-0.51 0.37,-0.44 0.44,-0.37 0.51,-0.27 0.57,-0.18 0.6,-0.06 0.94,0.15 0.81,0.41 0.65,0.64 0.43,0.8 7.17,0 0,5.5 -2,0 0,-3.5 -5.17,0 -0.43,0.8 -0.65,0.64 -0.81,0.41 -0.94,0.15 Z M 10.5,21 l -4.5,0 0,-10.5 2,0 0,8.5 2.5,0 0,2 Z" fill-rule="evenodd" fill="#000000" />
</svg>