<svg xmlns="http://www.w3.org/2000/svg" viewBox="0 0 56 56">
  <path id="circlePinFront" d="M 46.9,25.94 l -0.29,1.89 -0.46,1.82 -0.64,1.75 -0.8,1.66 -0.95,1.56 -1.1,1.47 -1.22,1.35 -1.35,1.22 -1.47,1.1 -1.56,0.95 -1.66,0.8 -1.75,0.64 -1.82,0.46 -1.89,0.29 -1.94,0.1 -1.94,-0.1 -1.89,-0.29 -1.82,-0.46 -1.75,-0.64 -1.66,-0.8 -1.56,-0.95 -1.47,-1.1 -1.35,-1.22 -1.22,-1.35 -1.1,-1.47 -0.95,-1.56 -0.8,-1.66 -0.64,-1.75 -0.46,-1.82 -0.29,-1.89 -0.1,-1.94 0.1,-1.94 0.29,-1.89 0.46,-1.82 0.64,-1.75 0.8,-1.66 0.95,-1.56 1.1,-1.47 1.22,-1.35 1.35,-1.22 1.47,-1.1 1.56,-0.95 1.66,-0.8 1.75,-0.64 1.82,-0.46 1.89,-0.29 1.94,-0.1 1.94,0.1 1.89,0.29 1.82,0.46 1.75,0.64 1.66,0.8 1.56,0.95 1.47,1.1 1.35,1.22 1.22,1.35 1.1,1.47 0.95,1.56 0.8,1.66 0.64,1.75 0.46,1.82 0.29,1.89 0.1,1.94 Z" fill-rule="evenodd" fill="#000000" />
</svg>