<svg xmlns="http://www.w3.org/2000/svg" viewBox="0 0 24 24">
  <path id="circleSlashed" d="M 21,12 l -0.18,1.81 -0.53,1.69 -0.83,1.53 -1.1,1.33 -1.33,1.1 -1.53,0.83 -1.69,0.53 -1.81,0.18 -1.81,-0.18 -1.69,-0.53 -1.53,-0.83 -1.33,-1.1 -1.1,-1.33 -0.83,-1.53 -0.53,-1.69 -0.18,-1.81 0.18,-1.81 0.53,-1.69 0.83,-1.53 1.1,-1.33 1.33,-1.1 1.53,-0.83 1.69,-0.53 1.81,-0.18 1.81,0.18 1.69,0.53 1.53,0.83 1.33,1.1 1.1,1.33 0.83,1.53 0.53,1.69 0.18,1.81 Z M 15.59,17.71 l -9.3,-9.3 -0.44,0.81 -0.33,0.88 -0.2,0.93 -0.07,0.97 0.14,1.36 0.39,1.27 0.62,1.14 0.83,1 1,0.83 1.14,0.62 1.27,0.39 1.36,0.14 0.97,-0.07 0.93,-0.2 0.88,-0.33 0.81,-0.44 Z M 17.71,15.59 l 0.44,-0.81 0.33,-0.88 0.2,-0.93 0.07,-0.97 -0.14,-1.36 -0.39,-1.27 -0.62,-1.14 -0.83,-1 -1,-0.83 -1.14,-0.62 -1.27,-0.39 -1.36,-0.14 -0.97,0.07 -0.93,0.2 -0.88,0.33 -0.81,0.44 9.3,9.3 Z" fill-rule="evenodd" fill="#000000" />
</svg>