<svg xmlns="http://www.w3.org/2000/svg" viewBox="0 0 56 56">
  <path id="circlePinBack" d="M 28,2 l 2.25,0.11 2.18,0.34 2.11,0.54 2.02,0.74 1.93,0.93 1.81,1.1 1.69,1.26 1.57,1.42 1.42,1.57 1.26,1.69 1.1,1.81 0.93,1.93 0.74,2.02 0.54,2.11 0.34,2.18 0.11,2.25 -0.13,2.39 -0.37,2.3 -0.59,2.22 -0.8,2.15 -0.98,2.06 -1.16,1.99 -1.3,1.91 -1.44,1.84 -1.56,1.77 -1.64,1.7 -3.52,3.21 -3.67,2.94 -3.7,2.71 -0.55,0.28 -0.59,0.09 -0.59,-0.09 -0.55,-0.28 -3.7,-2.71 -3.67,-2.94 -3.52,-3.21 -1.64,-1.7 -1.56,-1.77 -1.44,-1.84 -1.3,-1.91 -1.16,-1.99 -0.98,-2.06 -0.8,-2.15 -0.59,-2.22 -0.37,-2.3 -0.13,-2.39 0.11,-2.25 0.34,-2.18 0.54,-2.11 0.74,-2.02 0.93,-1.93 1.1,-1.81 1.26,-1.69 1.42,-1.57 1.57,-1.42 1.69,-1.26 1.81,-1.1 1.93,-0.93 2.02,-0.74 2.11,-0.54 2.18,-0.34 2.25,-0.11 Z M 45,24 l -0.09,-1.74 -0.26,-1.69 -0.41,-1.63 -0.58,-1.56 -0.71,-1.48 -0.85,-1.4 -0.98,-1.31 -1.1,-1.21 -1.21,-1.1 -1.31,-0.98 -1.4,-0.85 -1.48,-0.71 -1.56,-0.58 -1.63,-0.41 -1.69,-0.26 -1.74,-0.09 -1.74,0.09 -1.69,0.26 -1.63,0.41 -1.56,0.58 -1.48,0.71 -1.4,0.85 -1.31,0.98 -1.21,1.1 -1.1,1.21 -0.98,1.31 -0.85,1.4 -0.71,1.48 -0.58,1.56 -0.41,1.63 -0.26,1.69 -0.09,1.74 0.14,2.21 0.4,2.12 0.63,2.03 0.85,1.94 1.22,2.01 1.48,1.75 1.7,1.47 1.89,1.21 2.04,0.94 2.16,0.68 2.22,0.4 2.27,0.13 2.27,-0.13 2.22,-0.4 2.16,-0.68 2.04,-0.94 1.89,-1.21 1.7,-1.47 1.48,-1.75 1.22,-2.01 0.85,-1.94 0.63,-2.03 0.4,-2.12 0.14,-2.21 Z" fill-rule="evenodd" fill="#000000" />
</svg>