<svg xmlns="http://www.w3.org/2000/svg" viewBox="0 0 48 48">
  <path id="cityOutline" d="M 20,27 l 23,0 0,6 -23,0 0,-6 Z M 16,8 l 14,0 0,17 -2,0 0,-15 -10,0 0,28 1,0 0,2 -3,0 0,-32 Z M 6,20 l 8,0 0,2 -6,0 0,16 6,0 0,2 -8,0 0,-20 Z M 23,38 l 17,0 0,-4 2,0 0,6 -21,0 0,-6 2,0 0,4 Z M 22,29 l 0,2 19,0 0,-2 -19,0 Z M 20,12 l 6,0 0,2 -6,0 0,-2 Z M 20,16 l 6,0 0,2 -6,0 0,-2 Z M 20,20 l 6,0 0,2 -6,0 0,-2 Z M 39,18 l 2,0 0,4 -2,0 0,-4 Z M 35,21 l 2,0 0,4 -2,0 0,-4 Z M 10,24 l 4,0 0,2 -4,0 0,-2 Z M 10,28 l 4,0 0,2 -4,0 0,-2 Z M 10,32 l 4,0 0,2 -4,0 0,-2 Z" fill-rule="evenodd" fill="#000000" />
</svg>