<svg xmlns="http://www.w3.org/2000/svg" viewBox="0 0 24 24">
  <path id="clapperboard" d="M 2.3,7.64 l -0.04,-0.4 0.12,-0.37 0.25,-0.3 0.36,-0.18 15.43,-4.13 0.4,-0.03 0.36,0.13 0.29,0.25 0.18,0.36 0.77,2.89 -2.42,0.66 0,-2.52 -2,0.5 0,2.56 -2,0.54 0,-2.6 -2,0.5 0,2.65 -2,0.54 0,-2.69 -2,0.5 0,2.73 -1,0.27 -1,0 0,0.5 0.5,0 0.79,0.39 0.45,0.11 13.26,0 0,8.5 -0.08,0.39 -0.21,0.32 -0.32,0.21 -0.39,0.08 -16,0 -0.39,-0.08 -0.32,-0.21 -0.21,-0.32 -0.08,-0.39 0,-9 -0.7,-2.36 Z M 6,13.5 l 0,3 0.15,0.35 0.35,0.15 5,0 0.35,-0.15 0.15,-0.35 0,-1 0.15,-0.35 0.35,-0.15 1.5,0 0.35,-0.15 0.15,-0.35 0,-1 -0.15,-0.35 -0.35,-0.15 -7.5,0 -0.35,0.15 -0.15,0.35 Z M 16,13.5 l 0,1 0.15,0.35 0.35,0.15 2,0 0.35,-0.15 0.15,-0.35 0,-1 -0.15,-0.35 -0.35,-0.15 -2,0 -0.35,0.15 -0.15,0.35 Z M 6,8 l -0.08,-0.39 -0.21,-0.32 -0.32,-0.21 -0.39,-0.08 -0.39,0.08 -0.32,0.21 -0.21,0.32 -0.08,0.39 0.08,0.39 0.21,0.32 0.32,0.21 0.39,0.08 0.39,-0.08 0.32,-0.21 0.21,-0.32 0.08,-0.39 Z" fill-rule="evenodd" fill="#000000" />
</svg>