<svg xmlns="http://www.w3.org/2000/svg" viewBox="0 0 48 48">
  <path id="clutchL" d="M 17,24 l 0.16,-3.22 0.47,-3.01 0.34,-1.4 0.4,-1.32 0.46,-1.23 0.51,-1.13 0.57,-1.04 0.62,-0.92 0.66,-0.8 0.7,-0.67 0.73,-0.54 0.77,-0.39 0.79,-0.25 0.82,-0.08 3,0 1.06,0.14 1.01,0.4 0.97,0.65 0.91,0.89 0.83,1.09 0.76,1.29 0.68,1.47 0.58,1.63 0.03,0.53 -0.21,0.46 -0.4,0.33 -0.52,0.12 -0.36,-0.06 -0.32,-0.15 -0.26,-0.25 -0.19,-0.31 -0.44,-0.92 -0.48,-0.83 -0.53,-0.73 -0.56,-0.61 -0.6,-0.48 -0.63,-0.36 -0.65,-0.22 -0.68,-0.08 -0.61,0.06 -0.6,0.18 -0.57,0.3 -0.56,0.4 -0.52,0.51 -0.5,0.6 -0.88,1.46 -0.74,1.78 -0.55,2.04 -0.35,2.25 -0.12,2.42 0.12,2.42 0.35,2.25 0.55,2.04 0.74,1.78 0.88,1.46 0.5,0.6 0.52,0.51 0.56,0.4 0.57,0.3 0.6,0.18 0.61,0.06 0.68,-0.08 0.65,-0.22 0.63,-0.36 0.6,-0.48 0.56,-0.61 0.53,-0.73 0.48,-0.83 0.44,-0.92 0.19,-0.31 0.26,-0.25 0.32,-0.15 0.36,-0.06 0.52,0.12 0.4,0.33 0.21,0.46 -0.03,0.53 -0.58,1.63 -0.68,1.47 -0.76,1.29 -0.83,1.09 -0.91,0.89 -0.97,0.65 -1.01,0.4 -1.06,0.14 -3,0 -0.82,-0.08 -0.79,-0.25 -0.77,-0.39 -0.73,-0.54 -0.7,-0.67 -0.66,-0.8 -0.62,-0.92 -0.57,-1.04 -0.51,-1.13 -0.46,-1.23 -0.4,-1.32 -0.34,-1.4 -0.47,-3.01 -0.16,-3.22 Z M 22.58,6.75 l 0.05,0.15 -0.13,0.1 -0.87,0.09 -0.84,0.26 -0.82,0.41 -0.78,0.58 -0.74,0.71 -0.7,0.85 -0.66,0.98 -0.6,1.1 -0.55,1.21 -0.49,1.31 -0.42,1.4 -0.36,1.48 -0.29,1.56 -0.21,1.63 -0.13,1.69 -0.04,1.74 0.04,1.74 0.13,1.69 0.21,1.63 0.29,1.56 0.36,1.48 0.42,1.4 0.49,1.31 0.55,1.21 0.6,1.1 0.66,0.98 0.7,0.85 0.74,0.71 0.78,0.58 0.82,0.41 0.84,0.26 0.87,0.09 0.13,0.1 -0.05,0.15 -1.26,0.56 -1.32,0.19 -0.76,-0.06 -0.75,-0.19 -0.72,-0.31 -0.7,-0.42 -0.68,-0.52 -0.64,-0.63 -0.62,-0.73 -0.59,-0.82 -1.06,-1.91 -0.9,-2.21 -0.71,-2.49 -0.52,-2.71 -1.35,0 -0.6,-0.1 -0.57,-0.29 -0.51,-0.46 -0.44,-0.61 -0.37,-0.74 -0.27,-0.85 -0.18,-0.94 -0.06,-1.01 0.06,-1.01 0.18,-0.94 0.27,-0.85 0.37,-0.74 0.44,-0.61 0.51,-0.46 0.57,-0.29 0.6,-0.1 1.35,0 0.52,-2.71 0.71,-2.49 0.9,-2.21 1.06,-1.91 0.59,-0.82 0.62,-0.73 0.64,-0.63 0.68,-0.52 0.7,-0.42 0.72,-0.31 0.75,-0.19 0.76,-0.06 1.32,0.19 1.26,0.56 Z M 27,24 l 0.05,-1.01 0.15,-0.94 0.23,-0.85 0.3,-0.74 0.37,-0.61 0.43,-0.46 0.47,-0.29 0.5,-0.1 11,0 0.5,0.1 0.47,0.29 0.43,0.46 0.37,0.61 0.3,0.74 0.23,0.85 0.15,0.94 0.05,1.01 -0.05,1.01 -0.15,0.94 -0.23,0.85 -0.3,0.74 -0.37,0.61 -0.43,0.46 -0.47,0.29 -0.5,0.1 -11,0 -0.5,-0.1 -0.47,-0.29 -0.43,-0.46 -0.37,-0.61 -0.3,-0.74 -0.23,-0.85 -0.15,-0.94 -0.05,-1.01 Z" fill-rule="evenodd" fill="#000000" />
</svg>