<svg xmlns="http://www.w3.org/2000/svg" viewBox="0 0 24 24">
  <path id="code" d="M 18,21 l 0,-1.62 0.77,-0.14 0.56,-0.34 0.33,-0.53 0.11,-0.7 0,-1.07 0.1,-0.85 0.27,-0.62 0.44,-0.4 0.59,-0.23 -0.59,-0.22 -0.44,-0.4 -0.27,-0.61 -0.1,-0.87 0,-1.07 -0.11,-0.7 -0.33,-0.52 -0.56,-0.34 -0.77,-0.15 0,-1.62 0.81,0.08 0.74,0.18 0.64,0.28 0.55,0.4 0.44,0.5 0.32,0.61 0.2,0.73 0.07,0.83 0,0.94 0.06,0.46 0.16,0.36 0.27,0.23 0.36,0.08 0.38,0 0,1.62 -0.38,0 -0.36,0.08 -0.27,0.23 -0.16,0.36 -0.06,0.46 0,0.96 -0.07,0.83 -0.2,0.73 -0.32,0.61 -0.44,0.51 -0.55,0.39 -0.64,0.29 -0.74,0.18 -0.81,0.07 Z M 5.45,15 l -0.72,-0.07 -0.66,-0.18 -0.57,-0.29 -0.48,-0.39 -0.39,-0.51 -0.28,-0.61 -0.18,-0.73 -0.06,-0.83 0,-0.96 -0.05,-0.46 -0.14,-0.36 -0.24,-0.23 -0.33,-0.08 -0.35,0 0,-1.62 0.35,0 0.33,-0.08 0.24,-0.23 0.14,-0.36 0.05,-0.46 0,-0.94 0.06,-0.83 0.18,-0.73 0.28,-0.61 0.39,-0.5 0.48,-0.4 0.57,-0.28 0.66,-0.18 0.72,-0.08 0,1.62 -0.69,0.15 -0.49,0.34 -0.29,0.52 -0.1,0.7 0,1.07 -0.08,0.87 -0.25,0.61 -0.39,0.4 -0.52,0.22 0.53,0.23 0.39,0.4 0.24,0.62 0.08,0.85 0,1.07 0.1,0.7 0.29,0.53 0.49,0.34 0.69,0.14 0,1.62 Z M 8.12,13.18 l -0.48,-0.09 -0.39,-0.26 -0.25,-0.38 -0.09,-0.48 0.09,-0.46 0.25,-0.39 0.39,-0.26 0.48,-0.09 0.48,0.09 0.38,0.26 0.26,0.39 0.1,0.46 -0.1,0.48 -0.26,0.38 -0.38,0.26 -0.48,0.09 Z M 11.95,13.18 l -0.48,-0.09 -0.39,-0.26 -0.25,-0.38 -0.09,-0.48 0.09,-0.46 0.25,-0.39 0.39,-0.26 0.48,-0.09 0.48,0.09 0.39,0.26 0.25,0.39 0.1,0.46 -0.1,0.48 -0.25,0.38 -0.39,0.26 -0.48,0.09 Z M 15.79,13.18 l -0.49,-0.09 -0.38,-0.26 -0.26,-0.38 -0.09,-0.48 0.09,-0.46 0.26,-0.39 0.38,-0.26 0.49,-0.09 0.47,0.09 0.39,0.26 0.26,0.39 0.09,0.46 -0.09,0.48 -0.26,0.38 -0.39,0.26 -0.47,0.09 Z" fill-rule="evenodd" fill="#000000" />
</svg>