<svg xmlns="http://www.w3.org/2000/svg" viewBox="0 0 24 24">
  <path id="cogDamaged" d="M 20.93,13.14 l -0.07,0.14 -0.13,0.07 -1.91,0.33 -0.2,0.19 -0.62,1.49 0.01,0.27 1.12,1.58 -0.01,0.3 -0.76,0.85 -0.85,0.76 -0.3,0.01 -1.58,-1.12 -0.27,-0.01 -1.49,0.62 -0.19,0.2 -0.33,1.91 -0.07,0.13 -0.14,0.07 -1.14,0.07 -1.14,-0.07 -0.14,-0.07 -0.07,-0.13 -0.33,-1.91 -0.19,-0.2 -1.49,-0.62 -0.27,0.01 -1.58,1.12 -0.3,-0.01 -0.85,-0.76 -0.76,-0.85 -0.01,-0.3 1.12,-1.58 0.01,-0.27 -0.62,-1.49 -0.2,-0.19 -1.91,-0.33 -0.13,-0.07 -0.07,-0.14 -0.07,-1.14 0.07,-1.14 0.07,-0.14 0.13,-0.07 1.91,-0.33 0.2,-0.19 0.62,-1.49 -0.01,-0.27 -0.96,-1.37 1.97,0 0.5,3.5 2.52,1.8 0.15,0.52 0.28,0.44 0.38,0.36 0.46,0.25 0.71,2.13 5,1 -3,-2 -0.67,-1.51 0.49,-0.66 0.18,-0.83 -0.16,-0.78 -0.43,-0.63 -0.63,-0.43 -0.78,-0.16 -0.82,0.17 -1.68,-0.67 0.5,-4 -0.07,-0.06 0.2,-0.06 0.19,-0.2 0.33,-1.91 0.07,-0.13 0.14,-0.07 1.14,-0.07 1.14,0.07 0.14,0.07 0.07,0.13 0.33,1.91 0.19,0.2 1.49,0.62 0.27,-0.01 1.58,-1.12 0.3,0.01 0.85,0.76 0.76,0.85 0.01,0.3 -1.12,1.58 -0.01,0.27 0.62,1.49 0.2,0.19 1.91,0.33 0.13,0.07 0.07,0.14 0.07,1.14 Z" fill-rule="evenodd" fill="#000000" />
</svg>