<svg xmlns="http://www.w3.org/2000/svg" viewBox="0 0 24 24">
  <path id="cogsDamaged" d="M 9.11,11.4 l 0.19,0.2 0.89,0.37 0.28,-0.01 0.96,-0.68 0.29,0.01 0.99,0.99 0.01,0.29 -0.68,0.96 -0.01,0.28 0.37,0.89 0.2,0.19 1.16,0.2 0.13,0.07 0.07,0.14 0.04,0.7 -0.04,0.7 -0.07,0.14 -0.13,0.07 -1.16,0.2 -0.2,0.19 -0.37,0.89 0.01,0.28 0.68,0.96 -0.01,0.29 -0.99,0.99 -0.29,0.01 -0.96,-0.68 -0.28,-0.01 -0.89,0.37 -0.19,0.2 -0.2,1.16 -0.07,0.13 -0.14,0.07 -0.7,0.04 -0.7,-0.04 -0.14,-0.07 -0.07,-0.13 -0.2,-1.16 -0.19,-0.2 -0.89,-0.37 -0.28,0.01 -0.96,0.68 -0.29,-0.01 -0.99,-0.99 -0.01,-0.29 0.68,-0.96 0.01,-0.28 -0.37,-0.89 -0.2,-0.19 -1.16,-0.2 -0.13,-0.07 -0.07,-0.14 -0.04,-0.7 0.04,-0.7 0.07,-0.14 0.13,-0.07 1.16,-0.2 0.2,-0.19 0.37,-0.89 -0.01,-0.28 -0.68,-0.96 0.01,-0.29 0.99,-0.99 0.29,-0.01 0.96,0.68 0.28,0.01 0.89,-0.37 0.19,-0.2 0.2,-1.16 0.07,-0.13 0.14,-0.07 0.7,-0.04 0.7,0.04 0.14,0.07 0.07,0.13 0.2,1.16 Z M 14.26,2.97 l 1.48,1.12 0.24,0.04 0.42,-0.11 0.19,-0.15 0.72,-1.72 0.1,-0.12 0.15,-0.03 0.71,0.14 0.66,0.23 0.12,0.1 0.02,0.15 -0.23,1.85 0.09,0.23 0.3,0.3 0.23,0.09 1.85,-0.23 0.15,0.03 0.11,0.11 0.23,0.67 0.13,0.7 -0.03,0.15 -0.12,0.1 -1.71,0.72 -0.16,0.19 -0.11,0.42 0.04,0.24 1.12,1.48 0.05,0.15 -0.04,0.15 -0.47,0.53 -0.53,0.47 -0.15,0.04 -0.15,-0.05 -1.48,-1.12 -0.24,-0.04 -0.42,0.11 -0.19,0.16 -0.72,1.71 -0.1,0.12 -0.15,0.03 -0.7,-0.13 -0.67,-0.23 -0.11,-0.11 -0.03,-0.15 0.23,-1.85 -0.09,-0.23 -0.3,-0.3 -0.23,-0.09 -1.85,0.23 -0.15,-0.02 -0.1,-0.12 -0.23,-0.66 -0.14,-0.71 0.03,-0.15 0.12,-0.1 1.72,-0.72 0.15,-0.19 0.11,-0.42 -0.04,-0.24 -1.12,-1.48 -0.05,-0.15 0.05,-0.14 0.46,-0.54 0.54,-0.46 0.14,-0.05 0.15,0.05 Z M 11,16 l -0.06,-0.6 -0.18,-0.57 -0.27,-0.51 -0.37,-0.44 -0.44,-0.37 -0.51,-0.27 -0.57,-0.18 -0.6,-0.06 -0.6,0.06 -0.57,0.18 -0.51,0.27 -0.44,0.37 -0.37,0.44 -0.27,0.51 -0.18,0.57 -0.06,0.6 0.06,0.6 0.18,0.57 0.27,0.51 0.37,0.44 0.44,0.37 0.51,0.27 0.57,0.18 0.6,0.06 0.6,-0.06 0.57,-0.18 0.51,-0.27 0.44,-0.37 0.37,-0.44 0.27,-0.51 0.18,-0.57 0.06,-0.6 Z M 6,3 l 2,3 2,0 1,4 -2,-1.5 -2,0 -2,-2.5 -3,0 1,-4 3,1 Z M 19,15 l 3,2 -2,4 -2,-4 -2,-2 3,0 Z M 17.97,6.97 l -0.08,-0.39 -0.22,-0.32 -0.31,-0.22 -0.39,-0.07 -0.39,0.07 -0.32,0.22 -0.22,0.32 -0.07,0.39 0.07,0.39 0.22,0.31 0.32,0.22 0.39,0.08 0.39,-0.08 0.31,-0.22 0.22,-0.31 0.08,-0.39 Z" fill-rule="evenodd" fill="#000000" />
</svg>