<svg xmlns="http://www.w3.org/2000/svg" viewBox="0 0 24 24">
  <path id="cogs" d="M 10.3,9.66 l 0.19,0.2 1.09,0.46 0.27,-0.02 1.17,-0.82 0.29,0.01 0.64,0.56 0.56,0.64 0.01,0.29 -0.82,1.17 -0.02,0.27 0.46,1.09 0.2,0.19 1.41,0.24 0.13,0.07 0.07,0.14 0.05,0.85 -0.05,0.85 -0.07,0.14 -0.13,0.07 -1.41,0.24 -0.2,0.19 -0.46,1.09 0.02,0.27 0.82,1.17 -0.01,0.29 -0.56,0.64 -0.64,0.56 -0.29,0.01 -1.17,-0.82 -0.27,-0.02 -1.09,0.46 -0.19,0.2 -0.24,1.41 -0.07,0.13 -0.14,0.07 -0.85,0.05 -0.85,-0.05 -0.14,-0.07 -0.07,-0.13 -0.24,-1.41 -0.19,-0.2 -1.09,-0.46 -0.27,0.02 -1.17,0.82 -0.29,-0.01 -0.64,-0.56 -0.56,-0.64 -0.01,-0.29 0.82,-1.17 0.02,-0.27 -0.46,-1.09 -0.2,-0.19 -1.41,-0.24 -0.13,-0.07 -0.07,-0.14 -0.05,-0.85 0.05,-0.85 0.07,-0.14 0.13,-0.07 1.41,-0.24 0.2,-0.19 0.46,-1.09 -0.02,-0.27 -0.82,-1.17 0.01,-0.29 0.56,-0.64 0.64,-0.56 0.29,-0.01 1.17,0.82 0.27,0.02 1.09,-0.46 0.19,-0.2 0.24,-1.41 0.07,-0.13 0.14,-0.07 0.85,-0.05 0.85,0.05 0.14,0.07 0.07,0.13 0.24,1.41 Z M 14.26,2.97 l 1.48,1.12 0.24,0.04 0.42,-0.11 0.19,-0.15 0.72,-1.72 0.1,-0.12 0.15,-0.03 0.71,0.14 0.66,0.23 0.12,0.1 0.02,0.15 -0.23,1.85 0.09,0.23 0.3,0.3 0.23,0.09 1.85,-0.23 0.15,0.03 0.11,0.11 0.23,0.67 0.13,0.7 -0.03,0.15 -0.12,0.1 -1.71,0.72 -0.16,0.19 -0.11,0.42 0.04,0.24 1.12,1.48 0.05,0.15 -0.04,0.15 -0.47,0.53 -0.53,0.47 -0.15,0.04 -0.15,-0.05 -1.48,-1.12 -0.24,-0.04 -0.42,0.11 -0.19,0.16 -0.72,1.71 -0.1,0.12 -0.15,0.03 -0.7,-0.13 -0.67,-0.23 -0.11,-0.11 -0.03,-0.15 0.23,-1.85 -0.09,-0.23 -0.3,-0.3 -0.23,-0.09 -1.85,0.23 -0.15,-0.02 -0.1,-0.12 -0.23,-0.66 -0.14,-0.71 0.03,-0.15 0.12,-0.1 1.72,-0.72 0.15,-0.19 0.11,-0.42 -0.04,-0.24 -1.12,-1.48 -0.05,-0.15 0.05,-0.14 0.46,-0.54 0.54,-0.46 0.14,-0.05 0.15,0.05 Z M 11,15 l -0.16,-0.78 -0.43,-0.63 -0.63,-0.43 -0.78,-0.16 -0.78,0.16 -0.63,0.43 -0.43,0.63 -0.16,0.78 0.16,0.78 0.43,0.63 0.63,0.43 0.78,0.16 0.78,-0.16 0.63,-0.43 0.43,-0.63 0.16,-0.78 Z M 17.97,6.97 l -0.08,-0.39 -0.22,-0.32 -0.31,-0.22 -0.39,-0.07 -0.39,0.07 -0.32,0.22 -0.22,0.32 -0.07,0.39 0.07,0.39 0.22,0.31 0.32,0.22 0.39,0.08 0.39,-0.08 0.31,-0.22 0.22,-0.31 0.08,-0.39 Z" fill-rule="evenodd" fill="#000000" />
</svg>