<svg xmlns="http://www.w3.org/2000/svg" viewBox="0 0 24 24">
  <path id="colorPalette" d="M 7,4 l 3,0 0.39,0.08 0.32,0.21 0.21,0.32 0.08,0.39 0,2 -3,0 0,1.5 3,0 0,2.5 -3,0 0,1.5 3,0 0,5.5 -0.08,0.39 -0.21,0.32 -0.32,0.21 -0.39,0.08 -0.99,0 -0.18,0.22 -0.67,0.62 -0.77,0.45 -0.83,0.26 -0.82,0.06 -0.77,-0.16 -0.66,-0.36 -0.52,-0.54 -0.33,-0.68 -0.13,-0.78 0.08,-0.82 0.29,-0.82 0.47,-0.76 0.23,-0.2 0.27,-0.09 0.29,0.02 0.26,0.14 0.2,0.23 0.09,0.27 -0.03,0.29 -0.13,0.26 -0.3,0.49 -0.18,0.49 -0.04,0.46 0.06,0.37 0.33,0.47 0.26,0.15 0.36,0.07 0.44,-0.03 0.5,-0.16 0.61,-0.39 -0.57,-0.47 -0.44,-0.59 -0.28,-0.7 -0.1,-0.77 0,-11 0.08,-0.39 0.21,-0.32 0.32,-0.21 0.39,-0.08 Z M 20,18 l -0.08,0.39 -0.21,0.32 -0.32,0.21 -0.39,0.08 -7.03,0 1.51,-1.5 5.02,0 0,-2 -3.01,0 1.5,-1.5 2.01,0 0.39,0.08 0.32,0.21 0.21,0.32 0.08,0.39 0,3 Z M 15.61,8.12 l -3.61,3.61 0,-2.12 2.9,-2.9 0.33,-0.22 0.38,-0.08 0.37,0.08 0.33,0.22 2.12,2.12 0.22,0.33 0.08,0.38 -0.08,0.37 -0.22,0.33 -1.41,1.42 -1.06,-1.06 1.06,-1.06 -1.41,-1.42 Z M 13.13,13.42 l 1.77,-1.76 1.06,1.06 -1.77,1.77 -1.06,-1.07 Z M 13.13,15.55 l -1.13,1.13 0,-2.12 0.07,-0.07 1.06,1.06 Z M 9.83,16.56 l 0.17,-0.56 -0.08,-0.39 -0.21,-0.32 -0.32,-0.21 -0.39,-0.08 -0.39,0.08 -0.32,0.21 -0.21,0.32 -0.08,0.39 0.09,0.41 0.24,0.33 -0.04,-0.35 -0.01,-0.29 0.11,-0.27 0.19,-0.21 0.27,-0.13 0.3,-0.01 0.27,0.1 0.21,0.2 0.12,0.27 0.08,0.51 Z" fill-rule="evenodd" fill="#000000" />
</svg>