<svg xmlns="http://www.w3.org/2000/svg" viewBox="0 0 24 24">
  <path id="colorSaturation" d="M 12,21 l -1.81,-0.18 -1.69,-0.53 -1.53,-0.83 -1.33,-1.1 -1.1,-1.33 -0.83,-1.53 -0.53,-1.69 -0.18,-1.81 0.18,-1.81 0.53,-1.69 0.83,-1.53 1.1,-1.33 1.33,-1.1 1.53,-0.83 1.69,-0.53 1.81,-0.18 1.81,0.18 1.69,0.53 1.53,0.83 1.33,1.1 1.1,1.33 0.83,1.53 0.53,1.69 0.18,1.81 -0.18,1.81 -0.53,1.69 -0.83,1.53 -1.1,1.33 -1.33,1.1 -1.53,0.83 -1.69,0.53 -1.81,0.18 Z M 12,19.5 l 1.51,-0.15 1.41,-0.44 1.27,-0.69 1.11,-0.92 0.92,-1.11 0.69,-1.27 0.44,-1.41 0.15,-1.51 -0.15,-1.51 -0.44,-1.41 -0.69,-1.27 -0.92,-1.11 -1.11,-0.92 -1.27,-0.69 -1.41,-0.44 -1.51,-0.15 -1.51,0.15 -1.41,0.44 -1.27,0.69 -1.11,0.92 -0.92,1.11 -0.69,1.27 -0.44,1.41 -0.15,1.51 0.15,1.51 0.44,1.41 0.69,1.27 0.92,1.11 1.11,0.92 1.27,0.69 1.41,0.44 1.51,0.15 Z M 12,6 l 1.17,0.12 1.13,0.34 1.03,0.55 0.91,0.75 0.75,0.91 0.55,1.03 0.34,1.13 0.12,1.17 -0.12,1.17 -0.34,1.13 -0.55,1.03 -0.75,0.91 -0.91,0.75 -1.03,0.55 -1.13,0.34 -1.17,0.12 0,-12 Z M 11,11 l 0,2 -4.92,0 -0.08,-1 0.08,-1 4.92,0 Z M 11,7 l 0,2 -4.2,0 0.44,-0.65 0.52,-0.59 0.92,-0.76 2.32,0 Z M 11,15 l 0,2 -2.32,0 -0.92,-0.76 -0.52,-0.59 -0.44,-0.65 4.2,0 Z" fill-rule="evenodd" fill="#000000" />
</svg>