<svg xmlns="http://www.w3.org/2000/svg" viewBox="0 0 24 24">
  <path id="colorCirclePalette" d="M 19.69,14.06 l -0.55,1.47 -0.82,1.32 -1.06,1.13 -1.28,0.92 -2.81,-4.88 0.68,-0.6 0.41,-0.82 5.43,1.46 Z M 13.81,18.76 l -1.36,0.23 -1.36,-0.05 -1.33,-0.31 -1.26,-0.57 2.33,-4.03 0.86,0.3 0.92,-0.06 1.2,4.49 Z M 7.81,16.19 l -0.74,-0.9 -0.55,-1.02 -0.33,-1.11 -0.12,-1.16 3.64,0 0.18,0.88 0.49,0.74 -2.57,2.57 Z M 21.04,7.73 l 0.47,1.17 0.31,1.21 0.16,1.24 0,1.26 -1.99,-0.12 -0.01,-1.01 -0.12,-0.99 -0.26,-0.97 -0.37,-0.94 1.81,-0.85 Z M 9.41,2.34 l 1.24,-0.25 1.25,-0.09 1.25,0.07 1.24,0.22 -0.48,1.94 -0.99,-0.18 -1,-0.05 -1,0.07 -0.99,0.2 -0.52,-1.93 Z M 16.02,2.85 l 1.12,0.57 1.03,0.71 0.94,0.84 0.83,0.95 -1.59,1.21 -0.66,-0.76 -0.75,-0.66 -0.83,-0.57 -0.89,-0.46 0.8,-1.83 Z M 6.95,10.65 l 0.36,-0.97 0.54,-0.86 0.7,-0.75 0.83,-0.6 1.45,2.51 -0.68,0.6 -0.4,0.82 -2.8,-0.75 Z M 18.33,9.01 l 0.32,0.82 0.22,0.85 0.12,0.87 0,0.88 -2.1,-0.13 -0.08,-1.23 -0.38,-1.16 1.9,-0.9 Z M 10.19,5.24 l 0.86,-0.18 0.88,-0.06 0.87,0.05 0.87,0.15 -0.5,2.04 -1.22,-0.14 -1.22,0.17 -0.54,-2.03 Z M 14.82,5.59 l 0.78,0.41 0.72,0.49 0.66,0.59 0.58,0.66 -1.67,1.28 -0.86,-0.87 -1.06,-0.64 0.85,-1.92 Z M 10.96,8.14 l 1,-0.14 0.99,0.12 -0.38,1.55 -0.6,-0.07 -0.59,0.08 -0.42,-1.54 Z M 15.62,10.29 l 0.31,0.95 0.06,1 -1.59,-0.09 -0.04,-0.6 -0.19,-0.58 1.45,-0.68 Z M 13.61,8.34 l 0.86,0.51 0.7,0.72 -1.27,0.97 -0.42,-0.43 -0.51,-0.31 0.64,-1.46 Z" fill-rule="evenodd" fill="#000000" />
</svg>