<svg xmlns="http://www.w3.org/2000/svg" viewBox="0 0 24 24">
  <path id="colorBrightnessSun" d="M 12,2 l 0.39,0.08 0.32,0.21 0.21,0.32 0.08,0.39 0,2.07 0.87,0.18 0.83,0.29 0.77,0.38 0.72,0.47 1.47,-1.46 0.33,-0.22 0.37,-0.07 0.38,0.07 0.33,0.22 0.22,0.33 0.07,0.38 -0.07,0.37 -0.22,0.33 -1.46,1.47 0.47,0.72 0.38,0.77 0.29,0.83 0.18,0.87 2.07,0 0.39,0.08 0.32,0.21 0.21,0.32 0.08,0.39 -0.08,0.39 -0.21,0.32 -0.32,0.21 -0.39,0.08 -2.07,0 -0.18,0.87 -0.29,0.83 -0.38,0.77 -0.47,0.72 1.46,1.47 0.22,0.33 0.07,0.37 -0.07,0.38 -0.22,0.33 -0.33,0.22 -0.38,0.07 -0.37,-0.07 -0.33,-0.22 -1.47,-1.46 -0.72,0.47 -0.77,0.38 -0.83,0.29 -0.87,0.18 0,2.07 -0.08,0.39 -0.21,0.32 -0.32,0.21 -0.39,0.08 -0.39,-0.08 -0.32,-0.21 -0.21,-0.32 -0.08,-0.39 0,-2.07 -0.87,-0.18 -0.83,-0.29 -0.77,-0.38 -0.72,-0.47 -1.47,1.46 -0.33,0.22 -0.37,0.07 -0.38,-0.07 -0.33,-0.22 -0.22,-0.33 -0.07,-0.38 0.07,-0.37 0.22,-0.33 1.46,-1.47 -0.47,-0.72 -0.38,-0.77 -0.29,-0.83 -0.18,-0.87 -2.07,0 -0.39,-0.08 -0.32,-0.21 -0.21,-0.32 -0.08,-0.39 0.08,-0.39 0.21,-0.32 0.32,-0.21 0.39,-0.08 2.07,0 0.18,-0.87 0.29,-0.83 0.38,-0.77 0.47,-0.72 -1.46,-1.47 -0.22,-0.33 -0.07,-0.37 0.07,-0.38 0.22,-0.33 0.33,-0.22 0.38,-0.07 0.37,0.07 0.33,0.22 1.47,1.46 0.72,-0.47 0.77,-0.38 0.83,-0.29 0.87,-0.18 0,-2.07 0.08,-0.39 0.21,-0.32 0.32,-0.21 0.39,-0.08 Z M 17.5,12 l -0.11,-1.11 -0.32,-1.03 -0.51,-0.94 -0.67,-0.81 -0.81,-0.67 -0.94,-0.51 -1.03,-0.32 -1.11,-0.11 -1.11,0.11 -1.03,0.32 -0.94,0.51 -0.81,0.67 -0.67,0.81 -0.51,0.94 -0.32,1.03 -0.11,1.11 0.11,1.11 0.32,1.03 0.51,0.94 0.67,0.81 0.81,0.67 0.94,0.51 1.03,0.32 1.11,0.11 1.11,-0.11 1.03,-0.32 0.94,-0.51 0.81,-0.67 0.67,-0.81 0.51,-0.94 0.32,-1.03 0.11,-1.11 Z M 12,8 l 0.78,0.08 0.75,0.22 0.69,0.37 0.61,0.5 0.5,0.61 0.37,0.69 0.22,0.75 0.08,0.78 -0.08,0.78 -0.22,0.75 -0.37,0.69 -0.5,0.61 -0.61,0.5 -0.69,0.37 -0.75,0.22 -0.78,0.08 0,-8 Z" fill-rule="evenodd" fill="#000000" />
</svg>