<svg xmlns="http://www.w3.org/2000/svg" viewBox="0 0 24 24">
  <path id="concreteRoadBlock" d="M 5.49,6.24 l 0.07,-0.17 0.18,-0.07 13.52,0 0.18,0.07 0.07,0.17 0.48,8.66 0.08,0.17 1.86,1.86 0.07,0.17 0,1.65 -0.07,0.18 -0.18,0.07 -18.5,0 -0.18,-0.07 -0.07,-0.18 0,-1.65 0.07,-0.17 1.86,-1.86 0.08,-0.17 0.48,-8.66 Z M 10.93,16.93 l 0.17,0.07 8.8,0 0.23,-0.15 -0.06,-0.28 -1.5,-1.5 -0.17,-0.07 -5.22,0 -0.15,-0.05 -0.09,-0.12 -0.39,-1.17 0.08,-0.27 5.24,-4.28 0.08,-0.27 -0.39,-1.16 -0.1,-0.13 -0.15,-0.04 -8.45,0.42 -0.17,0.08 -0.07,0.19 0.37,6.7 0.08,0.17 1.86,1.86 Z" fill-rule="evenodd" fill="#000000" />
</svg>