<svg xmlns="http://www.w3.org/2000/svg" viewBox="0 0 24 24">
  <path id="coolantTemp" d="M 13.41,3.5 l 2.59,0 0.39,0.08 0.32,0.21 0.21,0.32 0.08,0.39 -0.08,0.39 -0.21,0.32 -0.32,0.21 -0.39,0.08 -2.5,0 0,2.5 2.5,0 0.39,0.08 0.32,0.21 0.21,0.32 0.08,0.39 -0.08,0.39 -0.21,0.32 -0.32,0.21 -0.39,0.08 -2.5,0 0,3 2.5,0 0.39,0.08 0.32,0.21 0.21,0.32 0.08,0.39 -0.08,0.39 -0.21,0.32 -0.32,0.21 -0.39,0.08 -2.5,0 0,1.4 0.61,0.47 0.48,0.61 0.3,0.72 0.11,0.8 -0.06,0.6 -0.18,0.57 -0.27,0.51 -0.37,0.44 -0.44,0.37 -0.51,0.27 -0.57,0.18 -0.6,0.06 -0.6,-0.06 -0.57,-0.18 -0.51,-0.27 -0.44,-0.37 -0.37,-0.44 -0.27,-0.51 -0.18,-0.57 -0.06,-0.6 0.11,-0.8 0.3,-0.72 0.48,-0.61 0.61,-0.47 0,-12.4 0.12,-0.58 0.32,-0.48 0.48,-0.32 0.58,-0.12 0.47,0.07 0.41,0.21 0.32,0.32 0.21,0.4 Z M 7.5,17.18 l 0,0.74 -0.05,0.09 -0.73,0.28 -0.76,0.03 -0.73,-0.21 -0.64,-0.46 -0.12,-0.12 -0.22,-0.15 -0.25,-0.04 -0.25,0.04 -0.22,0.15 -0.25,0.17 -0.28,0.05 -0.28,-0.05 -0.25,-0.17 -0.17,-0.25 -0.05,-0.28 0.05,-0.28 0.17,-0.25 0.72,-0.48 0.81,-0.15 0.81,0.15 0.72,0.48 0.12,0.12 0.49,0.24 0.54,-0.11 0.28,-0.08 0.26,0.07 0.2,0.19 0.08,0.28 Z M 16.5,17.92 l 0,-0.74 0.08,-0.28 0.2,-0.19 0.26,-0.07 0.28,0.08 0.54,0.11 0.49,-0.24 0.12,-0.12 0.72,-0.48 0.81,-0.15 0.81,0.15 0.72,0.48 0.17,0.25 0.05,0.28 -0.05,0.28 -0.17,0.25 -0.25,0.17 -0.28,0.05 -0.28,-0.05 -0.25,-0.17 -0.22,-0.15 -0.25,-0.04 -0.25,0.04 -0.22,0.15 -0.12,0.12 -0.64,0.46 -0.73,0.21 -0.76,-0.03 -0.73,-0.28 -0.05,-0.09 Z M 7.5,20.06 l 0,0.38 -0.08,0.33 -0.24,0.24 -0.67,0.23 -0.71,0 -0.67,-0.21 -0.59,-0.43 -0.07,-0.07 -0.22,-0.15 -0.25,-0.04 -0.25,0.04 -0.22,0.15 -0.25,0.17 -0.28,0.05 -0.28,-0.05 -0.25,-0.17 -0.17,-0.25 -0.05,-0.28 0.05,-0.28 0.17,-0.25 0.72,-0.48 0.81,-0.15 0.81,0.15 0.72,0.48 0.07,0.07 0.23,0.16 0.26,0.06 0.51,-0.15 0.3,-0.11 0.29,0.06 0.22,0.2 0.09,0.3 Z M 16.5,20.44 l 0,-0.38 0.09,-0.3 0.22,-0.2 0.29,-0.06 0.3,0.11 0.51,0.15 0.26,-0.06 0.23,-0.16 0.07,-0.07 0.72,-0.48 0.81,-0.15 0.81,0.15 0.72,0.48 0.17,0.25 0.05,0.28 -0.05,0.28 -0.17,0.25 -0.25,0.17 -0.28,0.05 -0.28,-0.05 -0.25,-0.17 -0.22,-0.15 -0.25,-0.04 -0.25,0.04 -0.22,0.15 -0.07,0.07 -0.59,0.43 -0.67,0.21 -0.71,0 -0.67,-0.23 -0.24,-0.24 -0.08,-0.33 Z" fill-rule="evenodd" fill="#000000" />
</svg>