<svg xmlns="http://www.w3.org/2000/svg" viewBox="0 0 48 48">
  <path id="couplerL" d="M 28.93,9.29 l 2.13,0.59 2.01,0.89 1.86,1.18 1.68,1.44 -4.25,4.25 -1,-0.87 -1.12,-0.71 -1.2,-0.53 -1.28,-0.36 -1.32,-0.16 -1.32,0.03 -1.3,0.23 -1.26,0.42 -1.19,0.59 -1.08,0.76 -0.96,0.91 -0.81,1.05 -0.66,1.16 -0.47,1.23 -0.29,1.29 -0.1,1.32 0.1,1.32 0.29,1.29 0.47,1.23 0.66,1.16 0.81,1.05 0.96,0.91 1.08,0.76 1.19,0.59 1.26,0.42 1.3,0.23 1.32,0.03 1.32,-0.16 1.28,-0.36 1.2,-0.53 1.12,-0.71 1,-0.87 4.25,4.25 -1.68,1.44 -1.86,1.18 -2.01,0.89 -2.13,0.59 -2.2,0.27 -2.2,-0.05 -2.17,-0.38 -2.1,-0.69 -1.98,-1 -1.8,-1.26 -1.59,-1.52 -1.36,-1.75 -1.17,-2.09 -0.82,-2.24 -7.54,0 0,-8 7.54,0 0.82,-2.24 1.17,-2.09 1.36,-1.75 1.59,-1.52 1.8,-1.26 1.98,-1 2.1,-0.69 2.17,-0.38 2.2,-0.05 2.2,0.27 Z M 31.75,28 l -0.52,0.65 -0.58,0.58 -0.65,0.52 -0.71,0.43 -0.76,0.35 -0.81,0.26 -0.84,0.16 -0.88,0.05 -1.41,-0.14 -1.31,-0.41 -1.19,-0.65 -1.04,-0.85 -0.85,-1.04 -0.65,-1.19 -0.41,-1.31 -0.14,-1.41 0.14,-1.41 0.41,-1.31 0.65,-1.19 0.85,-1.04 1.04,-0.85 1.19,-0.65 1.31,-0.41 1.41,-0.14 0.88,0.05 0.84,0.16 0.81,0.26 0.76,0.35 0.71,0.43 0.65,0.52 0.58,0.58 0.52,0.65 12.25,0 0,8 -12.25,0 Z" fill-rule="evenodd" fill="#000000" />
</svg>