<svg xmlns="http://www.w3.org/2000/svg" viewBox="0 0 48 48">
  <path id="crest" d="M 45.79,25.63 l -1.97,-0.66 -1.67,-0.67 -1.58,-0.85 -1.46,-1.02 -1.34,-1.2 -0.94,-0.93 -1.85,-1.62 -2.04,-1.34 -2.2,-1.06 -2.34,-0.76 -2.19,-0.4 -2.21,-0.14 -2.21,0.14 -2.19,0.4 -2.34,0.76 -2.2,1.06 -2.04,1.34 -1.85,1.62 -0.94,0.93 -1.34,1.2 -1.46,1.02 -1.58,0.85 -1.67,0.67 -1.97,0.66 1.58,4.74 1.98,-0.66 2.2,-0.88 2.08,-1.12 1.94,-1.36 1.78,-1.58 0.93,-0.94 1.34,-1.17 1.48,-0.97 1.6,-0.77 1.69,-0.55 1.59,-0.29 1.6,-0.1 1.6,0.1 1.59,0.29 1.69,0.55 1.6,0.77 1.48,0.97 1.34,1.17 0.93,0.94 1.78,1.58 1.94,1.36 2.08,1.12 2.2,0.88 1.98,0.66 Z" fill-rule="evenodd" fill="#000000" />
</svg>