<svg xmlns="http://www.w3.org/2000/svg" viewBox="0 0 24 24">
  <path id="crossroads1" d="M 8.9,2.37 l 0.18,-0.27 0.31,-0.1 5.22,0 0.31,0.1 0.18,0.27 1.22,4.63 0,0 0.52,2 0.22,0.81 0.09,0.14 0.15,0.05 3.9,0 0.8,2 -10.79,0 -0.17,0.07 -0.08,0.17 -0.29,4.79 2.64,0 -0.2,-3.53 4.92,0 1.8,6.87 0.01,0.23 -0.09,0.21 -0.17,0.14 -0.23,0.05 -5.85,0 -0.1,-1.98 -2.81,0 -0.09,1.98 -5.85,0 -0.23,-0.05 -0.17,-0.14 -0.09,-0.21 0.01,-0.23 2.2,-8.37 -0.01,0 0.53,-2 0.19,-0.69 -0.05,-0.21 -0.2,-0.1 -3.63,0 0.8,-2 3.68,0 0.27,-1 4.5,0 0.18,-0.08 0.07,-0.18 -0.15,-2.74 -1.11,0 -0.1,2 -3.13,0 0.69,-2.63 Z M 2.8,10 l 3.07,0 -0.58,2 -3.29,0 0.8,-2 Z M 20.8,9 l -2.98,0 -0.59,-2 2.77,0 0.8,2 Z" fill-rule="evenodd" fill="#000000" />
</svg>