<svg xmlns="http://www.w3.org/2000/svg" viewBox="0 0 24 24">
  <path id="cruiseDisable" d="M 19,3.5 l 1.5,1.5 -15.5,15.5 -1.5,-1.5 15.5,-15.5 Z M 15.47,3.7 l -1.56,1.56 -0.91,-0.19 0,1.02 -0.08,0.36 -0.22,0.29 -0.32,0.19 -0.38,0.07 -0.38,-0.07 -0.32,-0.19 -0.22,-0.29 -0.08,-0.36 0,-1.02 -1.5,0.39 -1.39,0.72 -0.3,0.21 0.72,0.73 0.2,0.31 0.04,0.36 -0.09,0.36 -0.22,0.31 -0.31,0.22 -0.36,0.09 -0.36,-0.04 -0.31,-0.2 -0.73,-0.72 -0.47,0.73 -0.39,0.78 -0.28,0.83 -0.18,0.85 1.02,0 0.36,0.08 0.29,0.22 0.19,0.32 0.07,0.38 -0.07,0.38 -0.19,0.32 -0.29,0.22 -0.36,0.08 -1.02,0 0.06,0.37 0.13,0.54 -1.56,1.56 -0.53,-1.71 -0.16,-1.32 0.03,-1.32 0.23,-1.3 0.42,-1.26 0.59,-1.19 0.76,-1.08 0.91,-0.96 1.05,-0.81 1.16,-0.66 1.23,-0.47 1.29,-0.29 1.32,-0.1 1.78,0.18 1.69,0.52 Z M 18.93,13 l -1.02,0 -0.36,-0.08 -0.29,-0.22 -0.19,-0.32 -0.07,-0.38 0.07,-0.38 0.19,-0.32 0.29,-0.22 0.36,-0.08 1.02,0 -0.19,-0.91 1.56,-1.56 0.01,0.03 0.42,1.26 0.23,1.3 0.03,1.32 -0.16,1.32 -0.36,1.28 -0.53,1.2 -0.71,1.12 -0.87,1 -0.33,0.22 -0.37,0.08 -0.38,-0.08 -0.33,-0.22 -2.16,-2.15 -0.22,-0.33 -0.07,-0.38 0.07,-0.38 0.22,-0.33 0.33,-0.22 0.38,-0.07 0.38,0.07 0.33,0.22 1.4,1.4 0.78,-1.34 0.48,-1.48 0.06,-0.37 Z" fill-rule="evenodd" fill="#000000" />
</svg>