<svg xmlns="http://www.w3.org/2000/svg" viewBox="0 0 24 24">
  <path id="cruiseEnable" d="M 17,6.5 l 0.19,0.24 0.02,0.31 -0.25,0.99 -0.13,0.23 -0.22,0.14 -0.26,0.02 -0.25,-0.1 -0.98,-0.6 -1.03,-0.41 -1.09,-0.25 0,1.02 -0.08,0.36 -0.22,0.29 -0.32,0.19 -0.38,0.07 -0.38,-0.07 -0.32,-0.19 -0.22,-0.29 -0.08,-0.36 0,-1.02 -1.5,0.39 -1.39,0.72 -0.3,0.21 0.72,0.73 0.2,0.31 0.04,0.36 -0.09,0.36 -0.22,0.31 -0.31,0.22 -0.36,0.09 -0.36,-0.04 -0.31,-0.2 -0.73,-0.72 -0.47,0.73 -0.39,0.78 -0.28,0.83 -0.18,0.85 1.02,0 0.36,0.08 0.29,0.22 0.19,0.32 0.07,0.38 -0.07,0.38 -0.19,0.32 -0.29,0.22 -0.36,0.08 -1.02,0 0.06,0.37 0.48,1.48 0.78,1.34 1.4,-1.4 0.33,-0.22 0.38,-0.07 0.38,0.07 0.33,0.22 0.22,0.33 0.07,0.38 -0.07,0.38 -0.22,0.33 -2.16,2.15 -0.32,0.22 -0.39,0.08 -0.38,-0.08 -0.32,-0.22 -0.87,-1 -0.71,-1.12 -0.53,-1.2 -0.36,-1.28 -0.16,-1.32 0.03,-1.32 0.23,-1.3 0.42,-1.26 0.59,-1.19 0.76,-1.08 0.91,-0.96 1.05,-0.81 1.16,-0.66 1.23,-0.47 1.29,-0.29 1.32,-0.1 1.01,0.06 0.99,0.16 0.96,0.28 0.93,0.38 1.11,0.62 Z M 16.47,9.53 l 0.22,0.33 0.08,0.37 -0.08,0.38 -0.22,0.33 -1.76,1.77 0.21,0.62 0.08,0.67 -0.06,0.6 -0.18,0.57 -0.27,0.51 -0.37,0.44 -0.44,0.37 -0.51,0.27 -0.57,0.18 -0.6,0.06 -0.6,-0.06 -0.57,-0.18 -0.51,-0.27 -0.44,-0.37 -0.37,-0.44 -0.27,-0.51 -0.18,-0.57 -0.06,-0.6 0.06,-0.6 0.18,-0.57 0.27,-0.51 0.37,-0.44 0.44,-0.37 0.51,-0.27 0.57,-0.18 0.6,-0.06 0.67,0.08 0.62,0.21 1.77,-1.76 0.33,-0.22 0.38,-0.08 0.37,0.08 0.33,0.22 Z M 17.96,9.04 l 0.99,-0.25 0.3,0.02 0.22,0.18 0.84,1.57 0.42,1.26 0.23,1.3 0.03,1.32 -0.16,1.32 -0.36,1.28 -0.53,1.2 -0.71,1.12 -0.87,1 -0.33,0.22 -0.37,0.08 -0.38,-0.08 -0.33,-0.22 -2.16,-2.15 -0.22,-0.33 -0.07,-0.38 0.07,-0.38 0.22,-0.33 0.33,-0.22 0.38,-0.07 0.38,0.07 0.33,0.22 1.4,1.4 0.78,-1.34 0.48,-1.48 0.06,-0.37 -1.02,0 -0.36,-0.08 -0.29,-0.22 -0.19,-0.32 -0.07,-0.38 0.07,-0.38 0.19,-0.32 0.29,-0.22 0.36,-0.08 1.02,0 -0.18,-0.85 -0.28,-0.83 -0.8,-1.42 -0.1,-0.25 0.02,-0.26 0.14,-0.22 0.23,-0.13 Z M 20,5 l 2,-2 1,1 -2,2 1.5,1.5 -4.5,0.5 0.5,-4.5 1.5,1.5 Z M 13,14 l -0.08,-0.39 -0.21,-0.32 -0.32,-0.21 -0.39,-0.08 -0.39,0.08 -0.32,0.21 -0.21,0.32 -0.08,0.39 0.08,0.39 0.21,0.32 0.32,0.21 0.39,0.08 0.39,-0.08 0.32,-0.21 0.21,-0.32 0.08,-0.39 Z" fill-rule="evenodd" fill="#000000" />
</svg>