<svg xmlns="http://www.w3.org/2000/svg" viewBox="0 0 24 24">
  <path id="cup" d="M 7.11,4.1 l 0.05,-0.42 0.2,-0.35 0.33,-0.24 0.41,-0.09 7.8,0 0.41,0.09 0.33,0.24 0.2,0.35 0.05,0.42 -0.01,0.15 0.85,0 0.67,0.08 0.61,0.24 0.52,0.36 0.43,0.46 0.3,0.55 0.18,0.61 0.03,0.65 -0.14,0.67 -0.66,2 -0.4,0.77 -0.6,0.59 -0.76,0.38 -0.85,0.14 -1.17,0 -0.42,0.68 -0.54,0.58 -0.64,0.47 -0.75,0.34 -0.39,0.13 -0.31,0.05 -1.68,0 -0.31,-0.05 -0.39,-0.13 -0.75,-0.34 -0.64,-0.47 -0.54,-0.58 -0.42,-0.68 -1.17,0 -0.85,-0.14 -0.76,-0.38 -0.6,-0.59 -0.4,-0.77 -0.66,-2 -0.14,-0.67 0.03,-0.65 0.18,-0.61 0.3,-0.55 0.43,-0.46 0.52,-0.36 0.61,-0.24 0.67,-0.08 0.85,0 -0.01,-0.15 Z M 11,15 l 2,0 0.5,2 0.72,0 0.33,0.06 0.28,0.15 0.23,0.24 0.13,0.31 0.31,1.24 0.5,0 0.39,0.08 0.32,0.21 0.21,0.32 0.08,0.39 -0.08,0.39 -0.21,0.32 -0.32,0.21 -0.39,0.08 -8,0 -0.39,-0.08 -0.32,-0.21 -0.21,-0.32 -0.08,-0.39 0.08,-0.39 0.21,-0.32 0.32,-0.21 0.39,-0.08 0.5,0 0.31,-1.24 0.13,-0.31 0.23,-0.24 0.28,-0.15 0.33,-0.06 0.72,0 0.5,-2 Z M 12,5 l -0.93,1.71 -1.92,0.36 1.34,1.42 -0.25,1.94 1.76,-0.84 1.76,0.84 -0.25,-1.94 1.34,-1.42 -1.92,-0.36 -0.93,-1.71 Z M 7.27,5.75 l -1,0 -0.58,0.14 -0.43,0.38 -0.22,0.53 0.05,0.6 0.67,2 0.18,0.34 0.27,0.27 0.34,0.18 0.39,0.06 0.78,0 -0.45,-4.5 Z M 16.27,10.25 l 0.79,0 0.39,-0.06 0.34,-0.18 0.27,-0.27 0.18,-0.34 0.67,-2 0.05,-0.6 -0.22,-0.53 -0.43,-0.38 -0.58,-0.14 -1,0 -0.46,4.5 Z" fill-rule="evenodd" fill="#000000" />
</svg>