<svg xmlns="http://www.w3.org/2000/svg" viewBox="0 0 24 24">
  <path id="danger" d="M 18.69,20 l -13.38,0 -0.53,-0.07 -0.48,-0.2 -0.39,-0.31 -0.31,-0.39 -0.2,-0.45 -0.09,-0.49 0.05,-0.51 0.18,-0.51 6.69,-12.71 0.34,-0.46 0.42,-0.34 0.49,-0.2 0.52,-0.07 0.52,0.07 0.49,0.2 0.42,0.34 0.34,0.46 6.69,12.71 0.18,0.51 0.05,0.51 -0.09,0.49 -0.2,0.45 -0.31,0.39 -0.39,0.31 -0.48,0.2 -0.53,0.07 Z M 10.5,7 l 0.5,7.5 2,0 0.5,-7.5 -3,0 Z M 12,15.5 l -0.58,0.12 -0.48,0.32 -0.32,0.48 -0.12,0.58 0.12,0.58 0.32,0.48 0.48,0.32 0.58,0.12 0.58,-0.12 0.48,-0.32 0.32,-0.48 0.12,-0.58 -0.12,-0.58 -0.32,-0.48 -0.48,-0.32 -0.58,-0.12 Z" fill-rule="evenodd" fill="#000000" />
</svg>