<svg xmlns="http://www.w3.org/2000/svg" viewBox="0 0 24 24">
  <path id="day" d="M 17,12 l -0.1,1.01 -0.29,0.94 -0.46,0.85 -0.61,0.74 -0.74,0.61 -0.85,0.46 -0.94,0.29 -1.01,0.1 -1.01,-0.1 -0.94,-0.29 -0.85,-0.46 -0.74,-0.61 -0.61,-0.74 -0.46,-0.85 -0.29,-0.94 -0.1,-1.01 0.1,-1.01 0.29,-0.94 0.46,-0.85 0.61,-0.74 0.74,-0.61 0.85,-0.46 0.94,-0.29 1.01,-0.1 1.01,0.1 0.94,0.29 0.85,0.46 0.74,0.61 0.61,0.74 0.46,0.85 0.29,0.94 0.1,1.01 Z M 6.35,18.6 l -0.42,0.01 -0.35,-0.19 -0.19,-0.35 0.01,-0.42 0.56,-1.67 0.21,-0.32 0.33,-0.17 0.37,0 0.33,0.2 1.11,1.11 0.2,0.33 0,0.37 -0.17,0.33 -0.32,0.21 -1.67,0.56 Z M 18.6,17.65 l 0.01,0.42 -0.19,0.35 -0.35,0.19 -0.42,-0.01 -1.67,-0.56 -0.32,-0.21 -0.17,-0.33 0,-0.37 0.2,-0.33 1.11,-1.11 0.33,-0.2 0.37,0 0.33,0.17 0.21,0.32 0.56,1.67 Z M 20.66,11.33 l 0.31,0.29 0.1,0.38 -0.1,0.38 -0.31,0.29 -1.57,0.79 -0.38,0.08 -0.35,-0.12 -0.26,-0.26 -0.1,-0.37 0,-1.58 0.1,-0.37 0.26,-0.26 0.35,-0.12 0.38,0.08 1.57,0.79 Z M 5.4,6.35 l -0.01,-0.42 0.19,-0.35 0.35,-0.19 0.42,0.01 1.67,0.56 0.32,0.21 0.17,0.33 0,0.37 -0.2,0.33 -1.11,1.11 -0.33,0.2 -0.37,0 -0.33,-0.17 -0.21,-0.32 -0.56,-1.67 Z M 17.65,5.4 l 0.42,-0.01 0.35,0.19 0.19,0.35 -0.01,0.42 -0.56,1.67 -0.21,0.32 -0.33,0.17 -0.37,0 -0.33,-0.2 -1.11,-1.11 -0.2,-0.33 0,-0.37 0.17,-0.33 0.32,-0.21 1.67,-0.56 Z M 3.34,12.67 l -0.31,-0.29 -0.1,-0.38 0.1,-0.38 0.31,-0.29 1.57,-0.79 0.38,-0.08 0.35,0.12 0.26,0.26 0.1,0.37 0,1.58 -0.1,0.37 -0.26,0.26 -0.35,0.12 -0.38,-0.08 -1.57,-0.79 Z M 11.33,3.34 l 0.29,-0.31 0.38,-0.1 0.38,0.1 0.29,0.31 0.79,1.57 0.08,0.38 -0.12,0.35 -0.26,0.26 -0.37,0.1 -1.58,0 -0.37,-0.1 -0.26,-0.26 -0.12,-0.35 0.08,-0.38 0.79,-1.57 Z M 12.67,20.66 l -0.29,0.31 -0.38,0.1 -0.38,-0.1 -0.29,-0.31 -0.79,-1.57 -0.08,-0.38 0.12,-0.35 0.26,-0.26 0.37,-0.1 1.58,0 0.37,0.1 0.26,0.26 0.12,0.35 -0.08,0.38 -0.79,1.57 Z" fill-rule="evenodd" fill="#000000" />
</svg>