<svg xmlns="http://www.w3.org/2000/svg" viewBox="0 0 24 24">
  <path id="decalRoad" d="M 16.69,8.76 l 0.01,0.46 -0.19,0.4 -0.34,0.27 -0.45,0.11 -3.93,0 -0.27,0.05 -0.22,0.15 -0.19,0.33 0.01,0.37 0.02,0.05 0.04,0.15 0.16,0.52 0.22,0.73 0.25,0.84 0.25,0.84 0.23,0.72 0.16,0.51 0.05,0.14 0.02,0.04 0.13,-0.15 0.31,-0.36 0.44,-0.5 0.51,-0.57 0.5,-0.57 0.43,-0.49 0.31,-0.35 0.12,-0.13 0.11,-0.13 0.48,-0.48 0.3,-0.15 0.32,-0.06 0.15,0 0.37,0.17 0.08,0.17 -0.01,0.2 -0.25,0.61 -0.39,0.54 -3.43,3.81 -0.52,0.44 -0.59,0.32 -0.65,0.19 -0.67,0.07 -5.41,-0.02 -0.22,-0.05 -0.18,-0.15 -0.09,-0.2 0.01,-0.24 4.11,-14.63 0.14,-0.3 0.22,-0.23 0.29,-0.15 0.32,-0.05 1.74,0 -0.19,2.5 1.38,0 -0.19,-2.5 1.72,0 0.33,0.06 0.28,0.15 0.23,0.24 0.13,0.31 1.5,6 Z M 5.04,19.5 l 12.35,0 0.22,-0.05 0.17,-0.13 0.09,-0.19 0.01,-0.23 -0.36,-1.78 0.01,-0.24 0.2,-0.32 0.33,-0.11 0.33,0.09 0.22,0.3 0.95,2.84 0.04,0.48 -0.18,0.42 -0.34,0.31 -0.47,0.11 -13.57,0 -0.35,-0.09 -0.26,-0.22 -0.13,-0.32 0.03,-0.36 0.27,-0.37 0.44,-0.14 Z M 11,8.5 l 2,0 -0.19,-2.5 -1.62,0 -0.19,2.5 Z" fill-rule="evenodd" fill="#000000" />
</svg>