<svg xmlns="http://www.w3.org/2000/svg" viewBox="0 0 24 24">
  <path id="decal" d="M 12,20 l -0.53,-0.02 -1.27,-0.18 -1.28,-0.42 -1.19,-0.61 -1.05,-0.8 -0.91,-0.95 -0.74,-1.1 -0.56,-1.21 -0.35,-1.32 -0.12,-1.39 0.16,-1.61 0.47,-1.5 0.74,-1.36 0.97,-1.19 1.19,-0.97 1.36,-0.74 1.5,-0.47 1.61,-0.16 1.39,0.12 1.32,0.35 1.21,0.56 1.1,0.74 0.95,0.91 0.8,1.05 0.61,1.19 0.42,1.28 0.18,1.27 0.02,0.53 -8,8 Z M 6,12 l 0.08,0.96 0.22,0.91 0.35,0.85 0.48,0.78 0.58,0.7 0.69,0.6 0.76,0.49 0.85,0.37 0.21,-1.51 0.47,-1.41 0.72,-1.28 0.93,-1.12 1.12,-0.93 1.28,-0.72 1.41,-0.47 1.51,-0.21 -0.37,-0.85 -0.49,-0.76 -0.6,-0.69 -0.7,-0.58 -0.78,-0.48 -0.85,-0.35 -0.91,-0.22 -0.96,-0.08 -1.21,0.12 -1.13,0.35 -1.01,0.55 -0.89,0.74 -0.74,0.89 -0.55,1.01 -0.35,1.13 -0.12,1.21 Z" fill-rule="evenodd" fill="#000000" />
</svg>