<svg xmlns="http://www.w3.org/2000/svg" viewBox="0 0 24 24">
  <path id="deform" d="M 9.84,5 l 10.97,0 0.43,0.1 0.33,0.26 0.2,0.37 0.02,0.45 -2.14,12 -0.12,0.33 -0.23,0.26 -0.29,0.17 -0.35,0.06 -10.97,0 -0.43,-0.1 -0.33,-0.26 -0.2,-0.37 -0.02,-0.45 2.14,-12 0.12,-0.33 0.23,-0.26 0.29,-0.17 0.35,-0.06 Z M 10.67,7 l -1.78,10 8.94,0 1.78,-10 -8.94,0 Z M 4.5,14 l -1.5,0 0,-4 1.5,0 0,4 Z M 5.24,17.5 l -0.26,1.5 -0.98,0 -0.39,-0.08 -0.32,-0.21 -0.21,-0.32 -0.08,-0.39 0,-2 1.5,0 0,1.5 0.74,0 Z M 3,6 l 0.08,-0.39 0.21,-0.32 0.32,-0.21 0.39,-0.08 1,0 0,1.5 -0.5,0 0,1.5 -1.5,0 0,-2 Z M 7.48,5 l -0.27,1.5 -0.71,0 0,-1.5 0.98,0 Z" fill-rule="evenodd" fill="#000000" />
</svg>