<svg xmlns="http://www.w3.org/2000/svg" viewBox="0 0 24 24">
  <path id="deliveryTruckArrows" d="M 22.07,16 l -1.05,0 0.05,0.5 -0.05,0.5 -0.14,0.47 -0.54,0.8 -0.79,0.53 -0.47,0.15 -0.51,0.05 -0.5,-0.05 -0.47,-0.15 -0.79,-0.53 -0.54,-0.8 -0.14,-0.47 -0.06,-0.5 0.05,-0.5 -1.05,0 0,1 -5,0 0,-1 -1.05,0 0.05,0.5 -0.05,0.5 -0.14,0.47 -0.54,0.8 -0.79,0.53 -0.47,0.15 -0.51,0.05 -0.5,-0.05 -0.47,-0.15 -0.79,-0.53 -0.54,-0.8 -0.14,-0.47 -0.06,-0.5 0.05,-0.5 -2.05,0 0,-2 14,0 0,-6 0.08,-0.39 0.22,-0.32 0.32,-0.21 0.38,-0.08 3.03,0 0.54,0.16 0.37,0.42 1.97,4.22 0.09,0.42 0,2.78 -0.07,0.39 -0.22,0.32 -0.32,0.21 -0.39,0.08 Z M 1,5.72 l 13.34,-1.72 1.01,7.8 -13.35,1.72 -1,-7.8 Z M 9.72,7.35 l 1.65,1.65 -1.65,1.65 0.71,0.7 2.35,-2.35 -2.35,-2.35 -0.71,0.7 Z M 6.72,7.35 l 1.65,1.65 -1.65,1.65 0.71,0.7 2.35,-2.35 -2.35,-2.35 -0.71,0.7 Z M 5.37,9 l -1.65,1.65 0.71,0.7 2.35,-2.35 -2.35,-2.35 -0.71,0.7 1.65,1.65 Z M 19.92,16.51 l -0.11,-0.53 -0.29,-0.43 -0.43,-0.3 -0.53,-0.1 -0.53,0.1 -0.43,0.3 -0.29,0.43 -0.11,0.53 0.11,0.52 0.29,0.44 0.43,0.29 0.53,0.1 0.53,-0.1 0.43,-0.29 0.29,-0.44 0.11,-0.52 Z M 7.57,16.5 l -0.07,-0.39 -0.22,-0.32 -0.32,-0.21 -0.39,-0.08 -0.38,0.08 -0.32,0.21 -0.22,0.32 -0.08,0.39 0.08,0.39 0.22,0.32 0.32,0.21 0.38,0.08 0.39,-0.08 0.32,-0.21 0.22,-0.32 0.07,-0.39 Z" fill-rule="evenodd" fill="#000000" />
</svg>