<svg xmlns="http://www.w3.org/2000/svg" viewBox="0 0 24 24">
  <path id="deliveryTruck" d="M 22,16 l -1.05,0 0.05,0.5 -0.05,0.5 -0.15,0.47 -0.53,0.8 -0.8,0.53 -0.47,0.15 -0.5,0.05 -0.5,-0.05 -0.47,-0.15 -0.8,-0.53 -0.53,-0.8 -0.15,-0.47 -0.05,-0.5 0.05,-0.5 -1.05,0 0,1 -5,0 0,-1 -1.05,0 0.05,0.5 -0.05,0.5 -0.15,0.47 -0.53,0.8 -0.8,0.53 -0.47,0.15 -0.5,0.05 -0.5,-0.05 -0.47,-0.15 -0.8,-0.53 -0.53,-0.8 -0.15,-0.47 -0.05,-0.5 0.05,-0.5 -2.05,0 0,-2 14,0 0,-6 0.08,-0.39 0.21,-0.32 0.32,-0.21 0.39,-0.08 3.03,0 0.54,0.16 0.37,0.42 1.97,4.22 0.09,0.42 0,2.78 -0.08,0.39 -0.21,0.32 -0.32,0.21 -0.39,0.08 Z M 0.93,5.72 l 13.34,-1.72 1,7.8 -13.34,1.72 -1,-7.8 Z M 19.84,16.51 l -0.1,-0.53 -0.29,-0.43 -0.44,-0.3 -0.52,-0.1 -0.53,0.1 -0.43,0.3 -0.29,0.43 -0.11,0.53 0.11,0.52 0.29,0.44 0.43,0.29 0.53,0.1 0.52,-0.1 0.44,-0.29 0.29,-0.44 0.1,-0.52 Z M 7.5,16.5 l -0.08,-0.39 -0.21,-0.32 -0.32,-0.21 -0.39,-0.08 -0.39,0.08 -0.32,0.21 -0.21,0.32 -0.08,0.39 0.08,0.39 0.21,0.32 0.32,0.21 0.39,0.08 0.39,-0.08 0.32,-0.21 0.21,-0.32 0.08,-0.39 Z" fill-rule="evenodd" fill="#000000" />
</svg>