<svg xmlns="http://www.w3.org/2000/svg" viewBox="0 0 48 48">
  <path id="dialogOutline" d="M 18,21 l 0.16,-0.78 0.43,-0.63 0.63,-0.43 0.78,-0.16 20,0 0.78,0.16 0.63,0.43 0.43,0.63 0.16,0.78 0,13 -0.16,0.78 -0.43,0.63 -0.63,0.43 -0.78,0.16 -3.5,0 0,4.5 -0.17,0.56 -0.45,0.36 -0.58,0.06 -0.51,-0.27 -5.2,-5.21 -9.59,0 -0.78,-0.16 -0.63,-0.43 -0.43,-0.63 -0.16,-0.78 0,-13 Z M 40,21 l -20,0 0,13 9.59,0 0.76,0.15 0.65,0.44 3.5,3.5 0,-2.09 0.16,-0.78 0.43,-0.63 0.63,-0.43 0.78,-0.16 3.5,0 0,-13 Z M 30,12 l 0,6 -2,0 0,-6 -20,0 0,13 2,0 0.78,0.16 0.63,0.43 0.43,0.63 0.16,0.78 0,2.09 3.5,-3.5 0.65,-0.44 0.76,-0.15 0.09,0 0,2 -0.09,0 -5.2,5.21 -0.51,0.27 -0.58,-0.06 -0.45,-0.36 -0.17,-0.56 0,-4.5 -2,0 -0.78,-0.16 -0.63,-0.43 -0.43,-0.63 -0.16,-0.78 0,-13 0.16,-0.78 0.43,-0.63 0.63,-0.43 0.78,-0.16 20,0 0.78,0.16 0.63,0.43 0.43,0.63 0.16,0.78 Z" fill-rule="evenodd" fill="#000000" />
</svg>