<svg xmlns="http://www.w3.org/2000/svg" viewBox="0 0 24 24">
  <path id="diceD6" d="M 10.66,4.17 l 0.66,-0.24 0.68,-0.08 0.68,0.08 0.66,0.24 5,2.5 0.69,0.47 0.52,0.64 0.33,0.75 0.12,0.82 0,5.3 -0.12,0.82 -0.33,0.75 -0.52,0.64 -0.69,0.47 -5,2.5 -0.66,0.24 -0.68,0.08 -0.68,-0.08 -0.66,-0.24 -5,-2.5 -0.69,-0.47 -0.52,-0.64 -0.33,-0.75 -0.12,-0.82 0,-5.3 0.12,-0.82 0.33,-0.75 0.52,-0.64 0.69,-0.47 5,-2.5 Z M 16.24,8.59 l -1.25,0.31 -0.99,0.5 -0.73,0.65 -0.51,0.79 -0.29,0.89 -0.1,0.96 0.16,0.96 0.46,0.76 0.33,0.3 0.41,0.22 0.48,0.13 0.54,0.05 0.63,-0.07 0.56,-0.19 0.46,-0.31 0.36,-0.42 0.22,-0.5 0.07,-0.57 -0.07,-0.58 -0.21,-0.5 -0.33,-0.41 -0.43,-0.32 -0.52,-0.2 -0.58,-0.06 -0.47,0.06 -0.37,0.15 0.23,-0.36 0.31,-0.29 0.79,-0.4 0.84,-0.21 0,-1.34 Z M 9.8,9.11 l 0,1.64 -0.39,-0.34 -0.51,-0.12 -0.53,0.08 -0.46,0.23 -0.39,0.37 -0.28,0.48 -0.19,0.58 -0.06,0.67 0.13,1.02 0.37,0.76 0.6,0.47 0.79,0.16 0.57,-0.13 0.35,-0.37 0,0.39 1.35,0 0,-6.5 -1.35,0.61 Z M 9.12,11.6 l 0.38,0.07 0.3,0.22 0,1.65 -0.27,0.2 -0.41,0.06 -0.44,-0.12 -0.25,-0.36 -0.09,-0.62 0.05,-0.48 0.15,-0.34 0.25,-0.21 0.33,-0.07 Z M 14.75,12.32 l 0.35,0.05 0.29,0.15 0.2,0.23 0.06,0.3 -0.12,0.39 -0.32,0.24 -0.46,0.09 -0.47,-0.09 -0.33,-0.24 -0.12,-0.39 0.12,-0.38 0.33,-0.26 0.47,-0.09 Z" fill-rule="evenodd" fill="#000000" />
</svg>