<svg xmlns="http://www.w3.org/2000/svg" viewBox="0 0 24 24">
  <path id="dice24" d="M 10.91,11 l 0.52,0 0.4,0.02 0.55,0.15 0.45,0.45 0.15,0.55 0.02,0.4 0,0.52 0,4.82 0,0.52 -0.02,0.4 -0.15,0.55 -0.45,0.45 -0.55,0.15 -0.4,0.02 -0.52,0 -4.82,0 -0.52,0 -0.4,-0.02 -0.55,-0.15 -0.45,-0.45 -0.15,-0.55 -0.02,-0.4 0,-0.52 0,-4.82 0,-0.52 0.02,-0.4 0.15,-0.55 0.45,-0.45 0.55,-0.15 0.4,-0.02 0.52,0 4.82,0 Z M 15.71,2.14 l 0.64,0 0.49,0.28 0.29,0.27 0.37,0.37 3.41,3.41 0.37,0.37 0.27,0.29 0.28,0.5 0,0.64 -0.28,0.49 -0.27,0.29 -0.37,0.37 -3.41,3.41 -0.37,0.37 -0.29,0.27 -0.49,0.28 -0.64,0 -0.5,-0.28 -0.29,-0.27 -0.37,-0.37 -3.41,-3.41 -0.37,-0.37 -0.26,-0.29 -0.29,-0.49 0,-0.64 0.29,-0.5 0.26,-0.29 0.37,-0.37 3.41,-3.41 0.37,-0.37 0.29,-0.27 0.5,-0.28 Z M 13.91,7.24 l -0.34,-0.22 -0.37,-0.07 -0.38,0.07 -0.33,0.22 -0.22,0.33 -0.07,0.38 0.07,0.37 0.22,0.33 0.33,0.22 0.38,0.08 0.37,-0.08 0.34,-0.22 0.21,-0.33 0.08,-0.37 -0.08,-0.38 -0.21,-0.33 Z M 19.56,7.24 l -0.33,-0.22 -0.38,-0.07 -0.37,0.07 -0.33,0.22 -0.22,0.33 -0.08,0.38 0.08,0.37 0.22,0.33 0.33,0.22 0.37,0.08 0.38,-0.08 0.33,-0.22 0.22,-0.33 0.07,-0.37 -0.07,-0.38 -0.22,-0.33 Z M 10.5,12.5 l -0.39,0.08 -0.32,0.21 -0.21,0.32 -0.08,0.39 0.08,0.39 0.21,0.32 0.32,0.21 0.39,0.08 0.39,-0.08 0.32,-0.21 0.21,-0.32 0.08,-0.39 -0.08,-0.39 -0.21,-0.32 -0.32,-0.21 -0.39,-0.08 Z M 6.5,16.5 l -0.39,0.08 -0.32,0.21 -0.21,0.32 -0.08,0.39 0.08,0.39 0.21,0.32 0.32,0.21 0.39,0.08 0.39,-0.08 0.32,-0.21 0.21,-0.32 0.08,-0.39 -0.08,-0.39 -0.21,-0.32 -0.32,-0.21 -0.39,-0.08 Z M 16.73,10.07 l -0.33,-0.22 -0.37,-0.08 -0.38,0.08 -0.33,0.22 -0.22,0.33 -0.07,0.37 0.07,0.38 0.22,0.33 0.33,0.22 0.38,0.07 0.37,-0.07 0.33,-0.22 0.22,-0.33 0.08,-0.38 -0.08,-0.37 -0.22,-0.33 Z M 16.73,4.41 l -0.33,-0.22 -0.37,-0.07 -0.38,0.07 -0.33,0.22 -0.22,0.33 -0.07,0.38 0.07,0.37 0.22,0.33 0.33,0.22 0.38,0.08 0.37,-0.08 0.33,-0.22 0.22,-0.33 0.08,-0.37 -0.08,-0.38 -0.22,-0.33 Z" fill-rule="evenodd" fill="#000000" />
</svg>