<svg xmlns="http://www.w3.org/2000/svg" viewBox="0 0 24 24">
  <path id="differentialFrontLocked" d="M 13.13,4.13 l 0.28,0.28 0.65,0.44 0.77,0.15 0.67,0 0.58,0.12 0.48,0.32 0.32,0.48 0.12,0.58 1.03,0.26 0.39,0.17 0.31,0.28 0.2,0.37 0.07,0.42 2,0 0.39,0.08 0.32,0.21 0.21,0.32 0.08,0.39 0,2 -0.08,0.39 -0.21,0.32 -0.32,0.21 -0.39,0.08 -2,0 -0.07,0.42 -0.2,0.37 -0.31,0.28 -0.39,0.17 -1.03,0.26 0,1 -0.12,0.58 -0.32,0.48 -0.48,0.32 -0.58,0.12 -2.5,0 0,5 -0.08,0.39 -0.21,0.32 -0.32,0.21 -0.39,0.08 -2,0 -0.39,-0.08 -0.32,-0.21 -0.21,-0.32 -0.08,-0.39 0,-5 -2,0 -0.78,-0.16 -0.63,-0.43 -0.43,-0.63 -0.16,-0.78 0,-2 -2,0 -0.39,-0.08 -0.32,-0.21 -0.21,-0.32 -0.08,-0.39 0,-2 0.08,-0.39 0.21,-0.32 0.32,-0.21 0.39,-0.08 2,0 0,-1 0.16,-0.78 0.43,-0.63 0.63,-0.43 0.78,-0.16 0.17,0 0.77,-0.15 0.65,-0.44 0.28,-0.28 0.31,-0.18 0.91,-0.16 0.91,-0.06 0.91,0.06 0.91,0.16 0.31,0.18 Z M 8.8,11.15 l 0.13,-0.15 4.14,0 0.13,0.15 1,0.75 0.26,0.1 0.26,-0.05 0.2,-0.18 0.08,-0.27 0,-3 -0.08,-0.27 -0.2,-0.18 -0.26,-0.05 -0.26,0.1 -1,0.75 -0.13,0.15 -4.14,0 -0.13,-0.15 -1,-0.75 -0.26,-0.1 -0.26,0.05 -0.2,0.18 -0.08,0.27 0,3 0.08,0.27 0.2,0.18 0.26,0.05 0.26,-0.1 1,-0.75 Z M 9.5,14 l 3,0 0.27,-0.08 0.18,-0.2 0.05,-0.26 -0.1,-0.26 -0.75,-1 -0.18,-0.15 -0.22,-0.05 -1.5,0 -0.22,0.05 -0.18,0.15 -0.75,1 -0.1,0.26 0.05,0.26 0.18,0.2 0.27,0.08 Z" fill-rule="evenodd" fill="#000000" />
</svg>