<svg xmlns="http://www.w3.org/2000/svg" viewBox="0 0 48 48">
  <path id="documentSmileOutline" d="M 9,11 l 0.06,-0.6 0.18,-0.57 0.27,-0.51 0.37,-0.44 0.44,-0.37 0.51,-0.27 0.57,-0.18 0.6,-0.06 19,0 0.6,0.06 0.57,0.18 0.51,0.27 0.44,0.37 0.37,0.44 0.27,0.51 0.18,0.57 0.06,0.6 0,15 -2,0 0,-15 -0.08,-0.39 -0.21,-0.32 -0.32,-0.21 -0.39,-0.08 -19,0 -0.39,0.08 -0.32,0.21 -0.21,0.32 -0.08,0.39 0,24 0.08,0.39 0.21,0.32 0.32,0.21 0.39,0.08 13,0 0,2 -13,0 -0.6,-0.06 -0.57,-0.18 -0.51,-0.27 -0.44,-0.37 -0.37,-0.44 -0.27,-0.51 -0.18,-0.57 -0.06,-0.6 0,-24 Z M 29,20 l -15,0 0,-2 15,0 0,2 Z M 27,15 l -13,0 0,-2 13,0 0,2 Z M 35.67,40.45 l 0.72,-1.28 0.51,-1.35 0.31,-1.4 0.11,-1.42 -0.11,-1.42 -0.31,-1.4 -0.51,-1.35 -0.72,-1.28 1.66,-1.1 0.87,1.54 0.62,1.62 0.37,1.68 0.13,1.71 -0.13,1.71 -0.37,1.68 -0.62,1.62 -0.87,1.54 -1.66,-1.1 Z M 25,25 l -11,0 0,-2 11,0 0,2 Z M 34,34 l -6,0 0,-2 6,0 0,2 Z M 34,38 l -6,0 0,-2 6,0 0,2 Z" fill-rule="evenodd" fill="#000000" />
</svg>