<svg xmlns="http://www.w3.org/2000/svg" viewBox="0 0 24 24">
  <path id="doorIn" d="M 14,2 l 5.32,1.77 0.28,0.15 0.21,0.22 0.14,0.27 0.05,0.31 0,15.35 -0.07,0.37 -0.2,0.31 -0.29,0.22 -0.37,0.1 -5,0.35 -0.41,-0.05 -0.34,-0.21 -0.23,-0.33 -0.09,-0.4 0,-6.43 2,0 0,-1.5 -2,-0.5 0,-6.5 -2.5,0 0,15.5 -1.5,0 0,-16 0.08,-0.39 0.21,-0.32 0.32,-0.21 0.39,-0.08 3,0 0,-2 1,0 Z M 6.66,12 l -1.83,-3.66 1.34,-0.68 2.17,4.34 -2.17,4.34 -1.34,-0.68 1.83,-3.66 Z M 2.33,9.34 l 1.34,-0.68 1.67,3.34 -1.67,3.34 -1.34,-0.68 1.33,-2.66 -1.33,-2.66 Z" fill-rule="evenodd" fill="#000000" />
</svg>