<svg xmlns="http://www.w3.org/2000/svg" viewBox="0 0 24 24">
  <path id="doorFront" d="M 4.43,4.93 l 0.1,-0.37 0.22,-0.29 0.31,-0.2 0.37,-0.07 8.11,0 0.42,0.09 0.34,0.26 5.34,6.23 0.27,0.45 0.09,0.52 0,0.44 -0.19,3.49 -0.57,3.45 -0.18,0.43 -0.3,0.34 -0.4,0.22 -0.46,0.08 -11.36,0 -0.48,-0.12 -0.36,-0.33 -1.03,-1.54 -0.5,-1.06 -0.17,-1.16 0,-4.79 0.43,-6.07 Z M 13.26,5.5 l -6.8,0 -0.34,0.13 -0.16,0.32 -0.41,4.5 0.13,0.39 0.37,0.16 10.89,0 0.28,-0.08 0.18,-0.21 0.04,-0.26 -0.11,-0.27 -3.68,-4.5 -0.17,-0.13 -0.22,-0.05 Z M 6.25,13 l -0.29,0.06 -0.24,0.16 -0.16,0.24 -0.06,0.29 0.06,0.29 0.16,0.24 0.24,0.16 0.29,0.06 1.5,0 0.29,-0.06 0.24,-0.16 0.16,-0.24 0.06,-0.29 -0.06,-0.29 -0.16,-0.24 -0.24,-0.16 -0.29,-0.06 -1.5,0 Z" fill-rule="evenodd" fill="#000000" />
</svg>