<svg xmlns="http://www.w3.org/2000/svg" viewBox="0 0 24 24">
  <path id="doorHandle" d="M 16.89,5 l 0.69,0.06 0.65,0.17 0.62,0.28 0.57,0.39 2.4,1.95 0.13,0.17 0.05,0.22 0,0.68 -10,-0.42 -4.59,0.42 -0.36,0.1 -0.29,0.22 -0.19,0.31 -0.07,0.36 0,2.18 0.07,0.36 0.19,0.31 0.29,0.22 0.36,0.1 4.59,0.42 10,-0.42 0,0.66 -0.06,0.23 -0.16,0.18 -4.54,3.14 -1.09,0.53 -1.19,0.18 -6.76,0 -0.7,-0.06 -0.67,-0.18 -0.64,-0.3 -0.57,-0.4 -3.44,-2.91 -0.13,-0.17 -0.05,-0.21 0,-1.07 1.9,0.19 0.42,-0.05 0.35,-0.2 0.24,-0.33 0.09,-0.41 0,-1.79 -0.09,-0.42 -0.24,-0.33 -0.35,-0.2 -0.42,-0.05 -1.9,0.19 0,-1.11 0.12,-0.33 1.32,-1.5 0.62,-0.58 0.73,-0.42 0.8,-0.27 0.85,-0.09 10.45,0 Z M 9,12 l -0.39,-0.08 -0.32,-0.21 -0.21,-0.32 -0.08,-0.39 0.08,-0.39 0.21,-0.32 0.32,-0.21 0.39,-0.08 0.39,0.08 0.32,0.21 0.21,0.32 0.08,0.39 -0.08,0.39 -0.21,0.32 -0.32,0.21 -0.39,0.08 Z" fill-rule="evenodd" fill="#000000" />
</svg>