<svg xmlns="http://www.w3.org/2000/svg" viewBox="0 0 24 24">
  <path id="doorFrontCoins" d="M 5.43,3 l 8.11,0 0.42,0.09 0.34,0.26 4.83,5.64 -1.04,-0.18 -1.11,-0.06 -3.33,-4.07 -0.17,-0.13 -0.22,-0.05 -6.8,0 -0.34,0.13 -0.16,0.32 -0.41,4.5 0.13,0.39 0.37,0.16 6.28,0 -0.27,0.24 -0.49,0.69 -0.15,0.42 -0.06,0.48 0,1.23 0.06,0.48 0.15,0.42 0.49,0.69 0.53,0.44 0.61,0.34 -0.01,0.2 0,0.38 -0.4,0.17 -0.64,0.32 -0.57,0.42 -0.49,0.56 -0.32,0.76 -0.02,0.12 0,0.64 -4.21,0 -0.48,-0.12 -0.36,-0.33 -1.03,-1.54 -0.5,-1.06 -0.17,-1.16 0,-4.79 0.43,-6.07 0.1,-0.37 0.22,-0.29 0.31,-0.2 0.37,-0.07 Z M 21.17,11.83 l 0,1.23 -0.09,0.37 -0.25,0.34 -0.39,0.31 -0.53,0.27 -0.63,0.23 -0.73,0.16 -1.66,0.15 -1.67,-0.15 -0.72,-0.16 -0.64,-0.23 -0.52,-0.27 -0.39,-0.31 -0.25,-0.34 -0.09,-0.37 0,-1.23 0.09,-0.37 0.25,-0.34 0.39,-0.31 0.52,-0.27 0.64,-0.23 0.72,-0.17 1.67,-0.14 1.66,0.14 0.73,0.17 0.63,0.23 0.53,0.27 0.39,0.31 0.25,0.34 0.09,0.37 Z M 14.46,15.45 l 1.16,0.24 1.27,0.08 1.45,-0.11 1.3,-0.3 1.11,-0.47 0.86,-0.61 0.58,0.28 0.44,0.32 0.27,0.36 0.1,0.39 0,1.22 -0.09,0.37 -0.25,0.35 -0.39,0.31 -0.52,0.27 -0.64,0.22 -0.72,0.17 -1.67,0.15 -1.66,-0.15 -0.73,-0.17 -0.63,-0.22 -0.52,-0.27 -0.4,-0.31 -0.25,-0.35 -0.09,-0.37 0,-1.22 0.02,-0.18 Z M 20.56,19.55 l 0,0.15 -0.09,0.37 -0.25,0.35 -0.39,0.31 -0.53,0.27 -0.63,0.23 -0.73,0.16 -1.66,0.15 -1.67,-0.15 -0.72,-0.16 -0.64,-0.23 -0.52,-0.27 -0.39,-0.31 -0.25,-0.35 -0.09,-0.37 0,-1.22 0.14,-0.32 0.27,-0.31 0.38,-0.27 0.48,-0.25 0.23,0.49 0.39,0.45 0.54,0.4 0.66,0.35 0.78,0.29 0.88,0.21 0.95,0.14 1.02,0.04 1.84,-0.15 Z M 5.5,12.75 l 0.06,0.29 0.16,0.24 0.24,0.16 0.29,0.06 1.5,0 0.29,-0.06 0.24,-0.16 0.16,-0.24 0.06,-0.29 -0.06,-0.29 -0.16,-0.24 -0.24,-0.16 -0.29,-0.06 -1.5,0 -0.29,0.06 -0.24,0.16 -0.16,0.24 -0.06,0.29 Z" fill-rule="evenodd" fill="#000000" />
</svg>