<svg xmlns="http://www.w3.org/2000/svg" viewBox="0 0 24 24">
  <path id="doorFrontDetached" d="M 3.1,7.47 l 6.58,-1.76 0.35,-0.01 0.34,0.13 5.68,3.89 0.32,0.31 0.18,0.4 0.1,0.36 0.6,2.87 0.29,2.92 -0.05,0.38 -0.17,0.35 -0.28,0.26 -0.35,0.17 -9.22,2.46 -0.41,0.01 -0.36,-0.19 -1.17,-1.03 -0.64,-0.75 -0.39,-0.9 -1.04,-3.88 -0.96,-5.02 0,-0.31 0.11,-0.29 0.21,-0.23 0.28,-0.14 Z M 9.9,7.06 l -0.35,-0.06 -5.24,1.46 -0.25,0.18 -0.06,0.3 0.65,3.73 0.18,0.28 0.34,0.06 8.56,-2.36 0.2,-0.12 0.1,-0.21 -0.02,-0.22 -0.15,-0.19 -3.96,-2.85 Z M 18.5,15 l -0.35,-0.15 -0.15,-0.35 0,-4.08 0.12,-0.32 0.3,-0.17 2.58,-0.43 0,5.5 -2.5,0 Z M 15,3.5 l 3.5,-1.5 0.5,5 -1,0.5 -3,-4 Z M 20.5,17.18 l 1,2.5 -1.5,0.5 0,-3 0.5,0 Z M 20,8 l 0,-3 1.5,0.5 -1,2.5 -0.5,0 Z M 5.28,15.36 l 0.11,0.23 0.18,0.15 0.23,0.08 0.25,-0.01 1.21,-0.33 0.23,-0.11 0.16,-0.18 0.07,-0.23 -0.01,-0.25 -0.11,-0.22 -0.19,-0.16 -0.22,-0.08 -0.25,0.02 -1.22,0.32 -0.22,0.11 -0.16,0.19 -0.08,0.22 0.02,0.25 Z M 16,7 l 1.5,1.5 -0.5,0.5 -2,-1 1,-1 Z" fill-rule="evenodd" fill="#000000" />
</svg>