<svg xmlns="http://www.w3.org/2000/svg" viewBox="0 0 48 48">
  <path id="doubleCaution" d="M 15.67,29.5 l -1.08,-10.82 0,-9.16 5.96,0 0,9.16 -1.08,10.82 -3.8,0 Z M 28.4,29.5 l -1.08,-10.82 0,-9.16 5.96,0 0,9.16 -1.08,10.82 -3.8,0 Z M 30.28,38.48 l -0.78,-0.07 -0.71,-0.2 -0.64,-0.35 -0.57,-0.48 -0.46,-0.58 -0.34,-0.63 -0.19,-0.7 -0.07,-0.75 0.07,-0.78 0.19,-0.7 0.34,-0.65 0.46,-0.57 0.57,-0.48 0.64,-0.34 0.71,-0.21 0.78,-0.07 0.8,0.07 0.72,0.21 0.66,0.34 0.58,0.48 0.49,0.57 0.35,0.65 0.21,0.7 0.07,0.78 -0.07,0.75 -0.21,0.7 -0.35,0.63 -0.49,0.58 -0.58,0.48 -0.66,0.35 -0.72,0.2 -0.8,0.07 Z M 17.55,38.48 l -0.79,-0.07 -0.71,-0.2 -0.64,-0.35 -0.56,-0.48 -0.47,-0.58 -0.33,-0.63 -0.2,-0.7 -0.06,-0.75 0.06,-0.78 0.2,-0.7 0.33,-0.65 0.47,-0.57 0.56,-0.48 0.64,-0.34 0.71,-0.21 0.79,-0.07 0.79,0.07 0.73,0.21 0.65,0.34 0.59,0.48 0.49,0.57 0.35,0.65 0.21,0.7 0.07,0.78 -0.07,0.75 -0.21,0.7 -0.35,0.63 -0.49,0.58 -0.59,0.48 -0.65,0.35 -0.73,0.2 -0.79,0.07 Z" fill-rule="evenodd" fill="#000000" />
</svg>