<svg xmlns="http://www.w3.org/2000/svg" viewBox="0 0 24 24">
  <path id="drag01" d="M 17.91,16.9 l -0.33,0.3 -0.09,0.28 -0.12,0.32 -0.27,0.16 -0.08,0.04 2.98,0 0,1 -9.18,0.46 -0.19,-0.06 -0.14,-0.15 -0.04,-0.44 0.14,-0.22 0.23,-0.08 0.45,-0.05 0.34,-0.13 0.43,-0.23 0.47,-0.1 0.49,0 -0.45,-0.11 -0.35,-0.29 -0.29,0.18 -0.43,0.16 -0.48,0.06 -0.67,-0.11 -0.46,0.46 -0.56,0.35 -0.63,0.22 -0.68,0.08 -0.81,-0.11 -0.73,-0.32 -0.62,-0.49 -0.47,-0.63 -0.62,0.4 -0.75,0.15 -0.78,-0.16 -0.63,-0.43 -0.43,-0.63 -0.16,-0.78 0.14,-0.72 0.37,-0.61 -0.38,-0.78 -0.13,-0.89 0.06,-0.6 0.18,-0.57 0.27,-0.51 0.37,-0.44 0.44,-0.37 0.51,-0.27 0.57,-0.18 0.6,-0.06 1.02,0.18 0.87,0.49 0.66,0.75 0.38,0.94 0.07,0.64 0.6,0.06 0.56,0.17 0.51,0.28 0.44,0.36 0.22,0.24 0.63,-0.11 0.04,0 0.78,0.16 0.63,0.43 0.43,0.63 0.16,0.78 0.39,0.08 0.32,0.21 0.21,0.32 0.08,0.39 -0.08,0.39 -0.21,0.32 -0.32,0.21 -0.39,0.08 1.73,0 0.2,-0.47 0.07,-0.53 -0.08,-0.56 -0.23,-0.5 -0.35,-0.42 -0.44,-0.31 -0.41,-0.88 -0.65,-0.7 -0.85,-0.46 -0.99,-0.17 -0.33,0.02 -0.82,-0.57 -0.95,-0.35 -0.29,-0.83 -0.46,-0.74 0.46,-1.33 0.69,-1.23 0.88,-1.11 1.05,-0.96 1.18,-0.79 1.28,-0.6 1.36,-0.38 1.4,-0.13 1.41,0.14 1.26,0.41 1.09,0.65 0.9,0.85 0.68,1.04 0.43,1.19 0.18,1.31 -0.12,1.41 -0.22,0.91 -0.34,0.87 -0.43,0.83 -0.53,0.79 -0.6,0.72 -0.68,0.66 -1.53,1.1 -0.04,0.02 Z M 14.6,14.07 l 0.64,-0.07 0.62,-0.17 0.58,-0.29 0.53,-0.37 0.46,-0.46 0.39,-0.52 0.29,-0.57 0.17,-0.62 0.05,-0.62 -0.07,-0.57 -0.2,-0.52 -0.29,-0.46 -0.39,-0.37 -0.48,-0.29 -0.55,-0.17 -0.62,-0.07 -0.64,0.07 -0.62,0.17 -0.58,0.29 -0.53,0.37 -0.47,0.46 -0.38,0.52 -0.29,0.57 -0.17,0.62 -0.05,0.62 0.07,0.57 0.19,0.52 0.3,0.46 0.39,0.37 0.48,0.29 0.55,0.17 0.62,0.07 Z" fill-rule="evenodd" fill="#000000" />
</svg>