<svg xmlns="http://www.w3.org/2000/svg" viewBox="0 0 24 24">
  <path id="drift01" d="M 22.49,10.47 l 0.1,0.36 -0.04,0.36 -0.15,0.34 -0.25,0.3 -6.13,6.14 0.77,0.38 0.19,0.16 0.09,0.22 -0.02,0.24 -0.13,0.21 -0.21,0.13 -0.26,0.02 -1.49,-0.3 -2.66,2.66 -0.45,0.33 -0.51,0.2 -0.54,0.05 -0.55,-0.1 -0.5,-0.17 -0.42,-0.19 -0.36,-0.29 -2.16,-2.16 -0.29,-0.36 -0.19,-0.42 -0.17,-0.5 -0.1,-0.55 0.05,-0.54 0.2,-0.51 0.33,-0.45 2.66,-2.66 -0.3,-1.5 0.02,-0.25 0.13,-0.22 0.21,-0.12 0.24,-0.02 0.22,0.09 0.16,0.19 0.38,0.77 6.14,-6.13 0.3,-0.25 0.34,-0.15 0.36,-0.04 0.36,0.1 0.59,0.36 0.65,0.48 1.34,1.21 1.21,1.34 0.48,0.65 0.36,0.59 Z M 4,2.02 l 2.02,0.12 1.9,0.24 1.77,0.32 1.62,0.4 1.45,0.45 1.28,0.48 1.08,0.49 0.88,0.48 -3,3 -1.2,-0.78 -1.14,-0.68 -2.16,-1.1 -2.19,-0.79 -1.18,-0.29 -1.25,-0.24 -0.35,-0.12 -0.28,-0.22 -0.18,-0.3 -0.07,-0.36 0,-0.12 0.08,-0.39 0.21,-0.32 0.32,-0.21 0.39,-0.06 Z M 12.06,12.39 l -1.68,0.93 -0.27,0.22 -0.17,0.29 -0.05,0.33 0.08,0.33 0.71,1.17 0.92,1.07 1.07,0.92 1.17,0.71 0.33,0.08 0.33,-0.05 0.29,-0.17 0.22,-0.27 0.93,-1.67 0.11,-0.35 -0.02,-0.36 -0.14,-0.33 -0.25,-0.27 -0.72,-0.55 -0.55,-0.5 -0.49,-0.54 -0.52,-0.69 -0.27,-0.26 -0.33,-0.14 -0.35,-0.02 -0.35,0.12 Z M 16.65,7.61 l -0.77,1.08 -0.16,0.36 -0.02,0.37 0.13,0.36 0.25,0.29 0.63,0.51 0.51,0.47 0.48,0.53 0.56,0.67 0.29,0.26 0.36,0.12 0.37,-0.02 0.36,-0.16 1.08,-0.77 0.23,-0.23 0.12,-0.27 0.02,-0.29 -0.12,-0.29 -0.66,-0.84 -0.84,-0.9 -0.9,-0.84 -0.84,-0.66 -0.29,-0.12 -0.29,0.02 -0.27,0.12 -0.23,0.23 Z M 8,13 l -2,2 -0.64,-0.89 -0.64,-0.76 -0.64,-0.62 -0.64,-0.48 -0.32,-0.35 -0.12,-0.45 0.08,-0.35 0.22,-0.26 0.31,-0.13 0.36,0 1.22,0.37 1,0.46 0.89,0.62 0.92,0.84 Z" fill-rule="evenodd" fill="#000000" />
</svg>