<svg xmlns="http://www.w3.org/2000/svg" viewBox="0 0 24 24">
  <path id="drift02" d="M 6.18,15.5 l 6.13,-6.14 -0.77,-0.38 -0.19,-0.16 -0.09,-0.22 0.02,-0.24 0.12,-0.21 0.22,-0.13 0.25,-0.02 1.5,0.3 0.47,-0.47 -0.12,-0.33 0,-1 0.15,-0.35 0.35,-0.15 1.45,0 0.36,-0.36 0.45,-0.33 0.51,-0.2 0.54,-0.05 0.55,0.1 0.5,0.17 0.42,0.19 0.36,0.29 2.16,2.16 0.29,0.36 0.19,0.42 0.17,0.5 0.1,0.52 -0.04,0.52 -0.17,0.49 -0.29,0.43 0.09,0.29 0,1 -0.15,0.35 -0.35,0.15 -1.37,0 -0.96,0.96 0.3,1.5 -0.02,0.25 -0.13,0.21 -0.21,0.13 -0.24,0.02 -0.22,-0.09 -0.16,-0.19 -0.38,-0.77 -6.14,6.13 -0.3,0.25 -0.34,0.15 -0.36,0.04 -0.36,-0.1 -0.59,-0.36 -0.65,-0.48 -1.34,-1.21 -1.21,-1.34 -0.48,-0.65 -0.36,-0.59 -0.1,-0.36 0.04,-0.36 0.15,-0.34 0.25,-0.3 Z M 14.97,14.64 l 0.27,0.26 0.33,0.14 0.35,0.02 0.35,-0.12 1.68,-0.93 0.27,-0.22 0.17,-0.29 0.05,-0.33 -0.08,-0.33 -0.71,-1.17 -0.92,-1.07 -1.07,-0.92 -1.17,-0.71 -0.33,-0.08 -0.33,0.05 -0.29,0.17 -0.22,0.27 -0.93,1.67 -0.11,0.35 0.01,0.36 0.15,0.33 0.25,0.27 0.72,0.55 0.55,0.5 0.49,0.54 0.52,0.69 Z M 14,5 l -3,3 -7,0 -0.39,-0.08 -0.32,-0.21 -0.21,-0.32 -0.08,-0.39 0,-0.09 0.07,-0.36 0.19,-0.31 0.29,-0.22 0.36,-0.1 10.09,-0.92 Z M 10.6,19.97 l 0.29,0.12 0.29,-0.02 0.27,-0.12 0.23,-0.23 0.77,-1.08 0.16,-0.36 0.02,-0.37 -0.13,-0.36 -0.25,-0.29 -0.63,-0.51 -0.51,-0.47 -0.49,-0.53 -0.55,-0.67 -0.29,-0.26 -0.36,-0.12 -0.37,0.02 -0.36,0.16 -1.08,0.77 -0.23,0.23 -0.12,0.27 -0.02,0.29 0.12,0.29 0.66,0.84 0.84,0.9 0.9,0.84 0.84,0.66 Z M 5,15 l -2,0 -0.39,-0.08 -0.32,-0.21 -0.21,-0.32 -0.08,-0.39 0,-0.15 0.06,-0.35 0.18,-0.3 0.26,-0.22 0.34,-0.12 5.16,-0.86 -3,3 Z M 6,19 l 2,2 -4,0 -0.39,-0.08 -0.32,-0.21 -0.21,-0.32 -0.08,-0.39 0.08,-0.39 0.21,-0.32 0.32,-0.21 0.39,-0.08 2,0 Z" fill-rule="evenodd" fill="#000000" />
</svg>