<svg xmlns="http://www.w3.org/2000/svg" viewBox="0 0 24 24">
  <path id="drivetrainGeneric" d="M 15.56,19 l -0.4,-0.16 -0.16,-0.4 0,-1.94 0.16,-0.4 0.4,-0.16 1.44,0 0,-1.44 2,0 0,1.44 1.44,0 0.4,0.16 0.16,0.4 0,1.94 -0.16,0.4 -0.4,0.16 -4.88,0 Z M 15.56,5 l 4.88,0 0.4,0.16 0.16,0.4 0,1.94 -0.16,0.4 -0.4,0.16 -1.44,0 0,1.44 -2,0 0,-1.44 -1.44,0 -0.4,-0.16 -0.16,-0.4 0,-1.94 0.16,-0.4 0.4,-0.16 Z M 3.56,19 l -0.4,-0.16 -0.16,-0.4 0,-1.94 0.16,-0.4 0.4,-0.16 1.44,0 0,-1.44 2,0 0,1.44 1.44,0 0.4,0.16 0.16,0.4 0,1.94 -0.16,0.4 -0.4,0.16 -4.88,0 Z M 3.56,5 l 4.88,0 0.4,0.16 0.16,0.4 0,1.94 -0.16,0.4 -0.4,0.16 -1.44,0 0,1.44 -2,0 0,-1.44 -1.44,0 -0.4,-0.16 -0.16,-0.4 0,-1.94 0.16,-0.4 0.4,-0.16 Z M 15.5,11 l 0,2 -7,0 0,-2 7,0 Z M 4.88,12 l 0.08,-0.44 0.24,-0.36 0.36,-0.24 0.44,-0.08 0.44,0.08 0.36,0.24 0.24,0.36 0.09,0.44 -0.09,0.44 -0.24,0.36 -0.36,0.24 -0.44,0.09 -0.44,-0.09 -0.36,-0.24 -0.24,-0.36 -0.08,-0.44 Z M 16.88,12 l 0.08,-0.44 0.24,-0.36 0.36,-0.24 0.44,-0.08 0.44,0.08 0.36,0.24 0.24,0.36 0.09,0.44 -0.09,0.44 -0.24,0.36 -0.36,0.24 -0.44,0.09 -0.44,-0.09 -0.36,-0.24 -0.24,-0.36 -0.08,-0.44 Z" fill-rule="evenodd" fill="#000000" />
</svg>