<svg xmlns="http://www.w3.org/2000/svg" viewBox="0 0 48 48">
  <path id="drivetrainOutline" d="M 15,13 l 0,3 -7,0 0,-12 7,0 0,3 18,0 0,-3 7,0 0,12 -7,0 0,-3 -6,0 0,7 1,0 0,8 3,0 0,7 2,0 0,-3 7,0 0,12 -7,0 0,-3 -2,0 0,1 -14,0 0,-1 -2,0 0,3 -7,0 0,-12 7,0 0,3 2,0 0,-7 3,0 0,-8 1,0 0,-7 -6,0 Z M 19,40 l 10,0 0,-10 -10,0 0,10 Z M 15,11 l 8,0 0,9 2,0 0,-9 8,0 0,-2 -18,0 0,2 Z M 25,31 l 0,1.17 0.5,0.23 0.45,0.32 1.01,-0.59 1,1.74 -1.01,0.58 0.05,0.55 -0.05,0.55 1.01,0.58 -1,1.74 -1.01,-0.59 -0.45,0.32 -0.5,0.23 0,1.17 -2,0 0,-1.17 -0.5,-0.23 -0.45,-0.32 -1.01,0.59 -1,-1.74 1.01,-0.58 -0.05,-0.55 0.05,-0.55 -1.01,-0.58 1,-1.74 1.01,0.59 0.45,-0.32 0.5,-0.23 0,-1.17 2,0 Z M 10,6 l 0,8 3,0 0,-8 -3,0 Z M 13,34 l -3,0 0,8 3,0 0,-8 Z M 38,6 l -3,0 0,8 3,0 0,-8 Z M 26,28 l 0,-6 -4,0 0,6 4,0 Z M 35,42 l 3,0 0,-8 -3,0 0,8 Z M 17,39 l 0,-2 -2,0 0,2 2,0 Z M 33,39 l 0,-2 -2,0 0,2 2,0 Z M 24,36 l 0.39,-0.08 0.32,-0.21 0.21,-0.32 0.08,-0.39 -0.08,-0.39 -0.21,-0.32 -0.32,-0.21 -0.39,-0.08 -0.39,0.08 -0.32,0.21 -0.21,0.32 -0.08,0.39 0.08,0.39 0.21,0.32 0.32,0.21 0.39,0.08 Z" fill-rule="evenodd" fill="#000000" />
</svg>