<svg xmlns="http://www.w3.org/2000/svg" viewBox="0 0 24 24">
  <path id="droplet" d="M 18,13.78 l -0.12,1.25 -0.35,1.17 -0.55,1.06 -0.74,0.92 -0.89,0.76 -1.01,0.57 -1.13,0.36 -1.21,0.13 -1.21,-0.13 -1.13,-0.36 -1.01,-0.57 -0.89,-0.76 -0.74,-0.92 -0.55,-1.06 -0.35,-1.17 -0.12,-1.25 0.08,-1.09 0.24,-1.07 0.37,-1.04 0.47,-1.02 1.18,-1.98 1.32,-1.9 1.13,-1.63 0.97,-1.59 0.24,-0.14 0.24,0.14 0.97,1.59 1.13,1.63 1.32,1.9 1.18,1.98 0.47,1.02 0.37,1.04 0.24,1.07 0.08,1.09 Z M 10.24,12.24 l 0.81,-0.54 0.95,-0.18 0.39,-0.08 0.32,-0.22 0.21,-0.31 0.08,-0.39 -0.08,-0.39 -0.21,-0.32 -0.32,-0.22 -0.39,-0.07 -0.88,0.08 -0.84,0.26 -0.77,0.41 -0.68,0.56 -0.56,0.68 -0.41,0.77 -0.26,0.84 -0.08,0.88 0.07,0.39 0.22,0.32 0.32,0.21 0.39,0.08 0.39,-0.08 0.31,-0.21 0.22,-0.32 0.08,-0.39 0.18,-0.95 0.54,-0.81 Z M 15.52,14.88 l -0.38,-0.13 -0.38,0.03 -0.35,0.16 -0.26,0.3 -0.39,0.52 -0.52,0.39 -0.3,0.26 -0.16,0.35 -0.03,0.38 0.13,0.38 0.26,0.3 0.34,0.16 0.39,0.03 0.37,-0.13 0.93,-0.71 0.71,-0.93 0.13,-0.37 -0.03,-0.39 -0.16,-0.34 -0.3,-0.26 Z" fill-rule="evenodd" fill="#000000" />
</svg>