<svg xmlns="http://www.w3.org/2000/svg" viewBox="0 0 24 24">
  <path id="dumpBedDown" d="M 11.54,3.53 l 0.08,0.09 2.02,2.28 7.73,4.45 0.38,0.22 0,0.43 0,6 0,0.75 -4.58,0 -9.26,-5.34 1.78,-6.24 -1.47,-2.97 1.05,-0.98 2.27,1.31 Z M 11.16,5.77 l 0.13,0.26 -0.08,0.28 -1.54,5.38 7.9,4.56 2.68,0 0,-4.82 -7.57,-4.35 -0.08,-0.1 -1.88,-2.11 0.44,0.9 Z M 4.76,8.54 l -0.07,0.34 -0.16,1.53 0.12,1.49 0.35,1.37 0.57,1.27 1.18,-1.04 0.25,0.43 -0.92,3.42 -3.41,-0.92 -0.25,-0.43 1.43,-0.48 -0.04,-0.12 -0.37,-1.71 -0.07,-1.73 0.25,-1.67 0.52,-1.58 0.15,-0.33 0.47,0.16 Z" fill-rule="evenodd" fill="#000000" />
</svg>