<svg xmlns="http://www.w3.org/2000/svg" viewBox="0 0 24 24">
  <path id="dumpBedUp" d="M 11.54,3.53 l 0.08,0.09 2.02,2.28 7.73,4.45 0.38,0.22 0,0.43 0,6 0,0.75 -4.58,0 -9.26,-5.34 1.78,-6.24 -1.47,-2.97 1.05,-0.98 2.27,1.31 Z M 11.16,5.77 l 0.13,0.26 -0.08,0.28 -1.54,5.38 7.9,4.56 2.68,0 0,-4.82 -7.57,-4.35 -0.08,-0.1 -1.88,-2.11 0.44,0.9 Z M 7,9 l -0.25,0.43 -1.17,-1.03 -0.59,1.3 -0.37,1.42 -0.11,1.5 0.17,1.52 0.07,0.34 -0.43,0.16 -0.15,-0.34 -0.53,-1.57 -0.24,-1.67 0.05,-1.72 0.37,-1.71 0.06,-0.2 -1.46,-0.5 0.25,-0.43 3.41,-0.92 0.92,3.42 Z" fill-rule="evenodd" fill="#000000" />
</svg>