<svg xmlns="http://www.w3.org/2000/svg" viewBox="0 0 24 24">
  <path id="editCheckmark" d="M 17.38,17.97 l 3.56,-6.72 0.45,0.72 0.33,0.79 0.21,0.85 0.07,0.89 -0.11,1.11 -0.32,1.03 -0.51,0.94 -0.67,0.81 -0.81,0.67 -0.94,0.51 -1.03,0.32 -1.11,0.11 -1.11,-0.11 -1.03,-0.32 -0.94,-0.51 -0.81,-0.67 -0.67,-0.81 -0.51,-0.94 -0.32,-1.03 -0.11,-1.11 0.11,-1.11 0.32,-1.03 0.51,-0.94 0.67,-0.81 0.81,-0.67 0.94,-0.51 1.03,-0.32 1.11,-0.11 0.79,0.06 0.76,0.16 0.71,0.26 0.66,0.36 -2.94,5.56 -1.61,-2.89 -1.74,0.98 2.5,4.5 1.75,-0.02 Z M 6.9,13 l 8,-8 3,3 -0.12,0.13 -1.28,-0.13 -1.31,0.13 -1.22,0.38 -1.1,0.6 -0.97,0.79 -0.79,0.97 -0.6,1.1 -0.38,1.22 -0.13,1.31 0.13,1.28 -0.23,0.22 -3,-3 Z M 8.9,17 l -4.18,1.86 -0.3,0.03 -0.27,-0.14 -0.14,-0.27 0.03,-0.3 1.86,-4.18 3,3 Z M 15.9,4 l 1,-1 1,0 2,2 0,1 -1,1 -3,-3 Z" fill-rule="evenodd" fill="#000000" />
</svg>