<svg xmlns="http://www.w3.org/2000/svg" viewBox="0 0 24 24">
  <path id="eject" d="M 17.08,13 l -10.16,0 -0.53,-0.15 -0.36,-0.39 -0.11,-0.51 0.18,-0.52 5.08,-7.26 0.37,-0.32 0.45,-0.11 0.45,0.11 0.37,0.32 5.08,7.26 0.18,0.52 -0.11,0.51 -0.36,0.39 -0.53,0.15 Z M 7,15 l 10,0 0.39,0.08 0.32,0.21 0.21,0.32 0.08,0.39 0,2 -0.08,0.39 -0.21,0.32 -0.32,0.21 -0.39,0.08 -10,0 -0.39,-0.08 -0.32,-0.21 -0.21,-0.32 -0.08,-0.39 0,-2 0.08,-0.39 0.21,-0.32 0.32,-0.21 0.39,-0.08 Z" fill-rule="evenodd" fill="#000000" />
</svg>