<svg xmlns="http://www.w3.org/2000/svg" viewBox="0 0 48 48">
  <path id="electronicSchemeOutline" d="M 27,29 l 0,-2 -3,0 0,-2 3,0 0,-2 5,0 0,-11 -2,0 0,-2 4,0 0,13 5,0 0,2 3,0 0,2 -3,0 0,2 3,0 0,2 -3,0 0,2 3,0 0,2 -3,0 0,2 3,0 0,2 -3,0 0,2 -12,0 0,-2 -3,0 0,-2 3,0 0,-2 -1,0 0,-2 1,0 0,-2 -3,0 0,-2 3,0 Z M 18,7 l 6,0 0.81,0.08 0.75,0.23 0.68,0.37 0.59,0.49 0.49,0.59 0.37,0.68 0.23,0.75 0.08,0.81 -0.08,0.81 -0.23,0.75 -0.37,0.68 -0.49,0.59 -0.59,0.49 -0.68,0.37 -0.75,0.23 -0.81,0.08 -6,0 -0.68,-0.06 -0.65,-0.17 -0.6,-0.26 -0.54,-0.36 -0.47,-0.44 -0.4,-0.51 -0.32,-0.58 -0.21,-0.62 -2.13,0 0,9 -2,0 0,-11 4.13,0 0.21,-0.62 0.32,-0.58 0.4,-0.51 0.47,-0.44 0.54,-0.36 0.6,-0.26 0.65,-0.17 0.68,-0.06 Z M 29,25 l 0,14 8,0 0,-14 -8,0 Z M 11,22.83 l 6.94,4.17 -5.94,3.57 0,2.43 12,0 0,2 -14,0 0,-4.43 -5.94,-3.57 6.94,-4.17 Z M 7.94,27 l 3.06,1.83 3.06,-1.83 -3.06,-1.83 -3.06,1.83 Z" fill-rule="evenodd" fill="#000000" />
</svg>