<svg xmlns="http://www.w3.org/2000/svg" viewBox="0 0 48 48">
  <path id="engineL" d="M 14.91,9.76 l 0.14,-0.68 0.39,-0.56 0.58,-0.38 0.71,-0.14 14.54,0 0.71,0.14 0.58,0.38 0.39,0.56 0.14,0.68 -0.14,0.69 -0.39,0.56 -0.58,0.38 -0.71,0.14 -1.82,0 0,3.53 1.07,0 0.7,0.13 0.59,0.39 2.57,2.49 0.39,0.57 0.14,0.68 0,2.8 3.64,0 0,-1.77 0.14,-0.68 0.39,-0.56 0.58,-0.38 0.7,-0.14 1.82,0 0.71,0.14 0.58,0.38 0.39,0.56 0.14,0.68 0,10.59 -0.14,0.69 -0.39,0.56 -0.58,0.38 -0.71,0.14 -1.82,0 -0.7,-0.14 -0.58,-0.38 -0.39,-0.56 -0.14,-0.69 0,-1.76 -3.64,0 0,3.24 -0.09,0.56 -1.31,3.81 -0.27,0.5 -0.4,0.38 -0.49,0.24 -0.57,0.09 -10.66,0 -0.7,-0.13 -0.59,-0.39 -4.39,-4.26 -0.59,-0.38 -0.69,-0.13 -2.89,0 -0.7,-0.14 -0.58,-0.38 -0.39,-0.56 -0.15,-0.69 0,-3.53 -2.72,0 0,5.74 -0.11,0.51 -0.29,0.42 -0.44,0.29 -0.53,0.1 -0.53,-0.1 -0.43,-0.29 -0.29,-0.42 -0.11,-0.51 0,-15 0.11,-0.52 0.29,-0.42 0.43,-0.28 0.53,-0.11 0.53,0.11 0.44,0.28 0.29,0.42 0.11,0.52 0,5.73 2.72,0 0,-4.35 0.06,-0.43 0.16,-0.4 0.25,-0.35 0.34,-0.29 4.19,-2.7 0.48,-0.23 0.53,-0.07 3.09,0 0,-3.53 -1.82,0 -0.71,-0.14 -0.58,-0.38 -0.39,-0.56 -0.14,-0.69 Z M 22.18,15.06 l 3.64,0 0,-3.53 -3.64,0 0,3.53 Z" fill-rule="evenodd" fill="#000000" />
</svg>