<svg xmlns="http://www.w3.org/2000/svg" viewBox="0 0 24 24">
  <path id="engine" d="M 7,4 l 0.08,-0.39 0.21,-0.32 0.32,-0.21 0.39,-0.08 8,0 0.39,0.08 0.32,0.21 0.21,0.32 0.08,0.39 -0.08,0.39 -0.21,0.32 -0.32,0.21 -0.39,0.08 -1,0 0,2 0.59,0 0.38,0.08 0.32,0.21 1.42,1.42 0.21,0.32 0.08,0.38 0,1.59 2,0 0,-1 0.08,-0.39 0.21,-0.32 0.32,-0.21 0.39,-0.08 1,0 0.39,0.08 0.32,0.21 0.21,0.32 0.08,0.39 0,6 -0.08,0.39 -0.21,0.32 -0.32,0.21 -0.39,0.08 -1,0 -0.39,-0.08 -0.32,-0.21 -0.21,-0.32 -0.08,-0.39 0,-1 -2,0 0,1.84 -0.05,0.31 -0.72,2.17 -0.15,0.28 -0.22,0.21 -0.27,0.14 -0.31,0.05 -5.87,0 -0.38,-0.08 -0.32,-0.21 -2.42,-2.42 -0.32,-0.21 -0.38,-0.08 -1.59,0 -0.39,-0.08 -0.32,-0.21 -0.21,-0.32 -0.08,-0.39 0,-2 -1.5,0 0,3.25 -0.06,0.29 -0.16,0.24 -0.24,0.16 -0.29,0.06 -0.29,-0.06 -0.24,-0.16 -0.16,-0.24 -0.06,-0.29 0,-8.5 0.06,-0.29 0.16,-0.24 0.24,-0.16 0.29,-0.06 0.29,0.06 0.24,0.16 0.16,0.24 0.06,0.29 0,3.25 1.5,0 0,-2.46 0.12,-0.48 0.33,-0.36 2.3,-1.53 0.55,-0.17 1.7,0 0,-2 -1,0 -0.39,-0.08 -0.32,-0.21 -0.21,-0.32 -0.08,-0.39 Z M 11,7 l 2,0 0,-2 -2,0 0,2 Z" fill-rule="evenodd" fill="#000000" />
</svg>