<svg xmlns="http://www.w3.org/2000/svg" viewBox="0 0 24 24">
  <path id="envelope" d="M 21,9.48 l 0,7.52 -0.08,0.39 -0.21,0.32 -0.32,0.21 -0.39,0.08 -16,0 -0.39,-0.08 -0.32,-0.21 -0.21,-0.32 -0.08,-0.39 0,-7.52 0.07,-0.26 0.18,-0.17 0.25,-0.07 0.26,0.07 4.57,2.75 0.16,0.16 0.07,0.2 -0.02,0.22 -0.12,0.2 -2.65,2.65 -0.11,0.27 0.11,0.27 0.24,0.11 0.25,-0.06 3.78,-2.65 0.27,-0.09 0.28,0.07 1.15,0.7 0.26,0.07 0.26,-0.07 1.15,-0.7 0.28,-0.07 0.27,0.09 3.78,2.65 0.25,0.06 0.24,-0.11 0.11,-0.27 -0.11,-0.27 -2.65,-2.65 -0.12,-0.2 -0.02,-0.22 0.07,-0.2 0.16,-0.16 4.57,-2.75 0.26,-0.07 0.25,0.07 0.18,0.17 0.07,0.26 Z M 4,6 l 16,0 0.39,0.08 0.32,0.21 0.21,0.32 0.08,0.39 0,0.19 -0.07,0.26 -0.21,0.19 -8.5,4.25 -0.22,0.05 -0.22,-0.05 -8.5,-4.25 -0.21,-0.19 -0.07,-0.26 0,-0.19 0.08,-0.39 0.21,-0.32 0.32,-0.21 0.39,-0.08 Z" fill-rule="evenodd" fill="#000000" />
</svg>