<svg xmlns="http://www.w3.org/2000/svg" viewBox="0 0 24 24">
  <path id="ESCOn" d="M 21.95,11 l -0.05,0.39 -0.2,0.32 -0.31,0.21 -0.39,0.08 -9,0 -9,0 -0.39,-0.08 -0.31,-0.21 -0.2,-0.32 -0.05,-0.39 0.25,-1.44 0.46,-1.39 0.93,-1.73 1.24,-1.51 1.51,-1.24 1.73,-0.93 1.88,-0.57 1.95,-0.19 1.95,0.19 1.88,0.57 1.73,0.93 1.51,1.24 1.24,1.51 0.93,1.73 0.46,1.39 0.25,1.44 Z M 8,14 l 8,0 0.39,0.08 0.32,0.21 0.21,0.32 0.08,0.39 0,1 -0.08,0.39 -0.21,0.32 -0.32,0.21 -0.39,0.08 -8,0 -0.39,-0.08 -0.32,-0.21 -0.21,-0.32 -0.08,-0.39 0,-1 0.08,-0.39 0.21,-0.32 0.32,-0.21 0.39,-0.08 Z M 9,10.07 l 0,-0.98 -1.52,0 0,-1.13 1.41,0 0,-0.96 -1.41,0 0,-0.96 1.52,0 0,-0.97 -2.79,0 0,5 2.79,0 Z M 13.2,8.62 l -0.13,-0.65 -0.36,-0.46 -0.59,-0.35 -0.54,-0.29 -0.3,-0.22 -0.08,-0.26 0.05,-0.21 0.15,-0.15 0.28,-0.06 0.54,0.09 0.59,0.22 0.39,-0.93 -0.66,-0.25 -0.83,-0.1 -0.49,0.04 -0.43,0.13 -0.35,0.21 -0.27,0.28 -0.17,0.35 -0.05,0.43 0.07,0.58 0.24,0.41 0.35,0.3 0.47,0.24 0.5,0.24 0.26,0.22 0.09,0.27 -0.06,0.24 -0.17,0.16 -0.31,0.06 -0.71,-0.12 -0.77,-0.29 0,1.08 0.43,0.18 0.45,0.09 0.57,0.04 0.58,-0.05 0.46,-0.15 0.36,-0.23 0.25,-0.31 0.14,-0.37 0.05,-0.41 Z M 15.93,6.1 l 0.42,-0.11 0.55,0.09 0.5,0.22 0.39,-0.95 -0.71,-0.25 -0.74,-0.1 -0.52,0.05 -0.46,0.14 -0.72,0.53 -0.43,0.82 -0.15,1.04 0.06,0.72 0.17,0.63 0.3,0.51 0.42,0.38 0.55,0.24 0.7,0.08 0.69,-0.06 0.64,-0.21 0,-1 -0.58,0.21 -0.58,0.07 -0.33,-0.04 -0.27,-0.14 -0.21,-0.22 -0.14,-0.31 -0.12,-0.86 0.06,-0.66 0.19,-0.5 0.32,-0.32 Z" fill-rule="evenodd" fill="#000000" />
</svg>