<svg xmlns="http://www.w3.org/2000/svg" viewBox="0 0 24 24">
  <path id="ESCOff" d="M 7.98,2.3 l 0.97,-0.35 1,-0.25 1.02,-0.15 1.03,-0.05 1.03,0.05 1.02,0.15 1,0.25 0.97,0.35 0.93,0.44 0.88,0.53 0.83,0.61 0.76,0.7 0.7,0.76 0.61,0.83 0.53,0.88 0.44,0.93 0.48,1.46 0.27,1.51 -0.08,0.61 -0.31,0.49 -0.48,0.33 -0.58,0.12 -18,0 -0.58,-0.12 -0.48,-0.33 -0.31,-0.49 -0.08,-0.61 0.27,-1.51 0.48,-1.46 0.44,-0.93 0.53,-0.88 0.61,-0.83 0.7,-0.76 0.76,-0.7 0.83,-0.61 0.88,-0.53 0.93,-0.44 Z M 12,2.5 l -1.85,0.18 -1.79,0.54 -1.64,0.88 -1.44,1.18 -1.18,1.44 -0.88,1.64 -0.43,1.32 -0.24,1.37 0.11,0.31 0.34,0.14 18,0 0.34,-0.14 0.11,-0.31 -0.24,-1.37 -0.43,-1.32 -0.88,-1.64 -1.18,-1.44 -1.44,-1.18 -1.64,-0.88 -1.79,-0.54 -1.85,-0.18 Z M 8,14 l 8,0 0.39,0.08 0.32,0.21 0.21,0.32 0.08,0.39 0,1 -0.08,0.39 -0.21,0.32 -0.32,0.21 -0.39,0.08 -8,0 -0.39,-0.08 -0.32,-0.21 -0.21,-0.32 -0.08,-0.39 0,-1 0.08,-0.39 0.21,-0.32 0.32,-0.21 0.39,-0.08 Z M 9,10.07 l -2.79,0 0,-5 2.79,0 0,0.97 -1.52,0 0,0.96 1.41,0 0,0.96 -1.41,0 0,1.13 1.52,0 0,0.98 Z M 13.2,8.62 l -0.05,0.41 -0.14,0.37 -0.25,0.31 -0.36,0.23 -0.46,0.15 -0.58,0.05 -0.57,-0.03 -0.45,-0.1 -0.43,-0.18 0,-1.08 0.77,0.29 0.71,0.12 0.31,-0.06 0.17,-0.16 0.06,-0.24 -0.09,-0.27 -0.26,-0.22 -0.5,-0.24 -0.47,-0.24 -0.35,-0.3 -0.24,-0.41 -0.07,-0.58 0.05,-0.43 0.17,-0.35 0.27,-0.28 0.35,-0.21 0.43,-0.13 0.49,-0.04 0.83,0.1 0.66,0.25 -0.39,0.93 -0.59,-0.22 -0.54,-0.09 -0.28,0.06 -0.15,0.15 -0.05,0.21 0.08,0.26 0.3,0.22 0.54,0.29 0.59,0.35 0.36,0.46 0.13,0.65 Z M 16.35,5.99 l -0.42,0.11 -0.32,0.32 -0.19,0.5 -0.06,0.66 0.12,0.86 0.14,0.31 0.21,0.22 0.27,0.14 0.33,0.04 0.58,-0.07 0.58,-0.21 0,1 -0.64,0.21 -0.69,0.06 -0.7,-0.08 -0.55,-0.24 -0.42,-0.38 -0.3,-0.51 -0.17,-0.63 -0.06,-0.72 0.15,-1.04 0.43,-0.82 0.72,-0.53 0.46,-0.14 0.52,-0.05 0.74,0.1 0.71,0.25 -0.39,0.95 -0.5,-0.22 -0.55,-0.09 Z" fill-rule="evenodd" fill="#000000" />
</svg>