<svg xmlns="http://www.w3.org/2000/svg" viewBox="0 0 24 24">
  <path id="evade" d="M 11.5,12 l 0.5,-0.5 0.6,0.6 0.44,0.26 0.51,0 1.07,-0.27 0.34,-0.15 0.25,-0.26 0.37,-0.56 0.19,-0.16 0.23,-0.06 0.23,0.06 0.19,0.16 0.37,0.56 0.25,0.26 0.34,0.15 1.07,0.27 0.51,0 0.44,-0.26 0.6,-0.6 0.5,0.5 -0.13,0.26 -0.32,0.86 -0.13,0.89 0.07,0.91 0.26,0.87 0.25,0.86 0.07,0.87 -0.11,0.85 -0.27,0.81 -0.43,0.73 -0.57,0.64 -0.7,0.52 -0.82,0.37 -1.67,0.56 -1.67,-0.56 -0.82,-0.37 -0.7,-0.52 -0.57,-0.64 -0.43,-0.73 -0.27,-0.81 -0.11,-0.85 0.07,-0.87 0.25,-0.86 0.26,-0.87 0.07,-0.91 -0.13,-0.89 -0.32,-0.86 -0.13,-0.26 Z M 8,6 l 4,-4 4,4 -0.54,0.56 -2.21,-0.36 0,0.19 -0.13,1.05 -0.37,0.96 -0.6,0.85 -0.79,0.68 -1.1,0.74 -0.67,0.5 -0.6,0.58 -0.51,0.65 -0.43,0.7 -0.34,0.74 -0.25,0.79 -0.16,0.81 -0.05,0.84 0,3.72 -2.5,0 0,-3.72 0.07,-1.15 0.21,-1.11 0.34,-1.08 0.47,-1.02 0.59,-0.96 0.71,-0.88 0.81,-0.8 0.92,-0.7 1.1,-0.73 0.33,-0.28 0.24,-0.35 0.16,-0.4 0.05,-0.43 0,-0.19 -2.21,0.36 -0.54,-0.56 Z M 16.24,13.73 l -0.1,-0.13 -0.14,-0.04 -0.14,0.04 -0.1,0.13 -0.6,1.86 -0.09,0.13 -0.15,0.04 -1.95,0 -0.16,0.05 -0.08,0.13 -0.01,0.15 0.1,0.13 1.58,1.15 0.09,0.12 0,0.15 -0.6,1.86 0,0.17 0.09,0.11 0.14,0.05 0.15,-0.05 1.58,-1.15 0.3,0 1.58,1.15 0.15,0.05 0.14,-0.05 0.09,-0.11 0,-0.17 -0.6,-1.86 0,-0.15 0.09,-0.12 1.58,-1.15 0.1,-0.13 -0.01,-0.15 -0.08,-0.13 -0.16,-0.05 -1.95,0 -0.15,-0.04 -0.09,-0.13 -0.6,-1.86 Z" fill-rule="evenodd" fill="#000000" />
</svg>