<svg xmlns="http://www.w3.org/2000/svg" viewBox="0 0 24 24">
  <path id="exhaustMuffler" d="M 13.55,4.71 l 7.07,7.07 -1.42,1.41 -0.7,-0.7 -4.25,4.24 0.71,0.7 -1.41,1.42 -2.48,-2.48 -1.06,1.06 -0.64,0.51 -0.73,0.34 -0.78,0.17 -0.82,-0.02 -0.49,-0.08 -0.23,0.02 -0.2,0.13 -1.06,1.06 -2.12,-2.13 1.06,-1.06 0.64,-0.5 0.73,-0.34 0.79,-0.17 0.81,0.02 0.49,0.08 0.23,-0.03 0.2,-0.12 1.06,-1.06 -2.48,-2.47 1.42,-1.42 0.71,0.71 4.24,-4.24 -0.71,-0.71 1.42,-1.41 Z M 16.37,6.12 l 2.13,-2.12 2.12,3.54 -1.42,1.41 -2.83,-2.83 Z" fill-rule="evenodd" fill="#000000" />
</svg>