<svg xmlns="http://www.w3.org/2000/svg" viewBox="0 0 24 24">
  <path id="exhaustValve" d="M 12.13,6.12 l 1.42,-1.41 7.07,7.07 -1.42,1.41 -0.7,-0.7 -4.25,4.24 0.71,0.7 -1.41,1.42 -2.48,-2.48 -1.06,1.06 -0.64,0.51 -0.73,0.34 -0.78,0.17 -0.82,-0.02 -0.49,-0.08 -0.23,0.02 -0.2,0.13 -1.06,1.06 -2.12,-2.13 1.06,-1.06 0.64,-0.5 0.73,-0.34 0.79,-0.17 0.81,0.02 0.49,0.08 0.23,-0.03 0.2,-0.12 1.06,-1.06 -2.48,-2.47 1.42,-1.42 0.71,0.71 4.24,-4.24 -0.71,-0.71 Z M 10.01,11.07 l -0.44,0.66 -0.15,0.76 0.15,0.75 0.44,0.66 1.41,1.41 0.67,0.44 0.75,0.15 0.75,-0.15 0.66,-0.44 2.83,-2.82 0.44,-0.67 0.15,-0.75 -0.15,-0.75 -0.44,-0.66 -1.41,-1.42 -0.66,-0.44 -0.76,-0.14 -0.75,0.14 -0.66,0.44 -2.83,2.83 Z M 18.5,4 l 2.12,3.54 -1.42,1.41 -2.83,-2.83 2.13,-2.12 Z M 12.77,8.88 l 0.97,-0.26 0.77,2.89 0,0.01 0.03,0.4 -0.13,0.36 -0.25,0.29 -0.36,0.17 0.52,1.94 -0.96,0.25 -0.78,-2.89 -0.02,-0.4 0.12,-0.36 0.25,-0.29 0.36,-0.18 -0.52,-1.93 Z" fill-rule="evenodd" fill="#000000" />
</svg>