<svg xmlns="http://www.w3.org/2000/svg" viewBox="0 0 24 24">
  <path id="exhaustMufflerCoins" d="M 12.13,4.12 l 1.42,-1.41 6.56,6.56 -1.51,-0.39 -1.71,-0.13 -1.89,0.16 -0.86,0.2 -0.77,0.28 -0.7,0.36 -0.61,0.49 -0.49,0.69 -0.15,0.42 -0.06,0.48 0,1.23 0.06,0.48 0.15,0.42 0.49,0.69 0.13,0.34 -0.08,0.42 -1.04,-1.04 -1.06,1.07 -0.64,0.5 -0.73,0.34 -0.78,0.17 -0.82,-0.02 -0.49,-0.08 -0.23,0.02 -0.2,0.13 -1.06,1.06 -2.12,-2.12 1.06,-1.07 0.64,-0.5 0.73,-0.34 0.79,-0.17 0.81,0.02 0.49,0.08 0.23,-0.03 0.2,-0.12 1.06,-1.06 -2.48,-2.47 1.42,-1.42 0.71,0.71 4.24,-4.24 -0.71,-0.71 Z M 21.17,11.83 l 0,1.23 -0.09,0.37 -0.25,0.34 -0.39,0.31 -0.53,0.27 -0.63,0.23 -0.73,0.16 -1.66,0.15 -1.67,-0.15 -0.72,-0.16 -0.64,-0.23 -0.52,-0.27 -0.39,-0.31 -0.25,-0.34 -0.09,-0.37 0,-1.23 0.09,-0.37 0.25,-0.34 0.39,-0.31 0.52,-0.27 0.64,-0.23 0.72,-0.17 1.67,-0.14 1.66,0.14 0.73,0.17 0.63,0.23 0.53,0.27 0.39,0.31 0.25,0.34 0.09,0.37 Z M 14.46,15.45 l 1.16,0.24 1.27,0.08 1.45,-0.11 1.3,-0.3 1.11,-0.47 0.86,-0.61 0.58,0.28 0.44,0.32 0.27,0.36 0.1,0.39 0,1.22 -0.09,0.37 -0.25,0.35 -0.39,0.31 -0.52,0.27 -0.64,0.22 -0.72,0.17 -1.67,0.15 -1.66,-0.15 -0.73,-0.17 -0.63,-0.22 -0.52,-0.27 -0.4,-0.31 -0.25,-0.35 -0.09,-0.37 0,-1.22 0.02,-0.18 Z M 20.56,19.55 l 0,0.15 -0.09,0.37 -0.25,0.35 -0.39,0.31 -0.53,0.27 -0.63,0.23 -0.73,0.16 -1.66,0.15 -1.67,-0.15 -0.72,-0.16 -0.64,-0.23 -0.52,-0.27 -0.39,-0.31 -0.25,-0.35 -0.09,-0.37 0,-1.22 0.14,-0.32 0.27,-0.31 0.38,-0.27 0.48,-0.25 0.23,0.49 0.39,0.45 0.54,0.4 0.66,0.35 0.78,0.29 0.88,0.21 0.95,0.14 1.02,0.04 1.84,-0.15 Z M 18.5,2 l 2.12,3.54 -1.42,1.41 -2.83,-2.83 2.13,-2.12 Z" fill-rule="evenodd" fill="#000000" />
</svg>