<svg xmlns="http://www.w3.org/2000/svg" viewBox="0 0 24 24">
  <path id="explosion" d="M 14.52,12.73 l 6.48,-4.23 0.5,1.5 0,1 -5.5,3 3.5,-0.5 1,0.5 0.5,2 -5.23,0.4 -0.71,-0.06 -0.6,-0.28 -0.45,-0.45 -0.28,-0.56 -0.12,-0.62 0.09,-0.62 0.3,-0.59 0.52,-0.49 Z M 8,13 l -1,2 1,2 1,0 1,2 1.09,0.54 -0.62,0.61 -0.74,0.46 -0.83,0.29 -0.9,0.1 -0.81,-0.08 -0.75,-0.23 -0.68,-0.37 -0.59,-0.49 -0.49,-0.59 -0.37,-0.68 -0.23,-0.75 -0.08,-0.81 0.08,-0.81 0.23,-0.75 0.37,-0.68 0.49,-0.59 0.59,-0.49 0.68,-0.37 0.75,-0.23 0.81,-0.08 Z M 9.45,14.61 l 7.05,-11.61 2.5,-0.5 0.5,1.5 -9.65,10.91 -0.17,0.09 -0.17,-0.06 -0.09,-0.14 0.03,-0.19 Z M 21,21 l -2,1 -6.23,-2.01 -0.27,-0.15 -0.18,-0.24 -0.07,-0.29 0.05,-0.31 0.29,-0.35 0.45,-0.12 7.96,0.47 0,2 Z M 8,11.45 l 0,-7.45 3,-1 -1.9,8.57 -0.2,0.31 -0.35,0.12 -0.39,-0.16 -0.16,-0.39 Z M 19.5,8.5 l -2,1 -0.5,-1 1.5,-2 1,0.5 0,1.5 Z M 6,12 l -1,0 -1,-2.5 2,-0.5 0,3 Z M 12,15 l 1.14,1 -0.64,1 -2,0 0,-1 1.5,-1 Z" fill-rule="evenodd" fill="#000000" />
</svg>