<svg xmlns="http://www.w3.org/2000/svg" viewBox="0 0 24 24">
  <path id="eyeOutlineClosed" d="M 18.95,5.81 l -12,14 -1.9,-1.62 1.1,-1.29 -1.4,-1.23 -1.13,-1.26 -0.83,-1.12 -0.31,-0.47 -0.23,-0.38 -0.12,-0.44 0.12,-0.44 0.46,-0.73 0.68,-0.95 0.91,-1.07 1.12,-1.11 1.34,-1.03 1.55,-0.86 1.74,-0.59 0.95,-0.16 1,-0.06 0.99,0.06 0.94,0.16 1.74,0.58 1.38,-1.61 1.9,1.62 Z M 12,17 l 1.5,-0.17 1.37,-0.46 1.26,-0.7 1.13,-0.87 0.77,-0.74 0.66,-0.74 0.55,-0.7 0.43,-0.62 -0.4,-0.58 -0.5,-0.64 -1.3,-1.39 1.3,-1.52 1.05,1.07 0.85,1.02 0.65,0.91 0.43,0.69 0.12,0.44 -0.12,0.44 -0.45,0.73 -0.69,0.95 -0.91,1.07 -1.12,1.11 -1.34,1.03 -1.54,0.86 -1.75,0.59 -0.95,0.16 -1,0.06 -1.27,-0.09 -1.19,-0.26 1.47,-1.72 0.99,0.07 Z M 14.3,7.4 l -1.11,-0.3 -1.19,-0.1 -1.5,0.17 -1.37,0.46 -1.26,0.7 -1.13,0.87 -0.77,0.74 -0.66,0.74 -0.54,0.7 -0.44,0.62 0.44,0.62 0.54,0.7 0.66,0.74 0.77,0.74 0.72,0.58 1.46,-1.71 -0.29,-0.73 -0.13,-0.94 0.07,-0.71 0.21,-0.65 0.32,-0.6 0.43,-0.51 0.51,-0.43 0.6,-0.32 0.65,-0.21 0.71,-0.07 0.61,0.05 0.57,0.15 1.12,-1.3 Z" fill-rule="evenodd" fill="#000000" />
</svg>