<svg xmlns="http://www.w3.org/2000/svg" viewBox="0 0 24 24">
  <path id="eyeOutlineOpened" d="M 2.25,12.44 l -0.12,-0.44 0.12,-0.44 0.45,-0.73 0.69,-0.95 0.91,-1.07 1.12,-1.11 1.34,-1.03 1.54,-0.86 1.75,-0.59 0.95,-0.16 1,-0.06 1,0.06 0.95,0.16 1.75,0.59 1.54,0.86 1.34,1.03 1.12,1.11 0.91,1.07 0.69,0.95 0.45,0.73 0.12,0.44 -0.12,0.44 -0.46,0.73 -0.68,0.95 -0.91,1.07 -1.12,1.11 -1.34,1.03 -1.55,0.86 -1.74,0.59 -0.95,0.16 -1,0.06 -1,-0.06 -0.95,-0.16 -1.75,-0.59 -1.54,-0.86 -1.34,-1.03 -1.12,-1.11 -0.91,-1.07 -0.69,-0.95 -0.45,-0.73 Z M 4.33,12 l 0.43,0.62 0.55,0.7 0.66,0.74 0.77,0.74 1.13,0.87 1.25,0.7 1.38,0.46 1.5,0.17 1.5,-0.17 1.37,-0.46 1.26,-0.7 1.13,-0.87 0.77,-0.74 0.66,-0.74 0.54,-0.7 0.44,-0.62 -0.44,-0.62 -0.54,-0.7 -0.66,-0.74 -0.77,-0.74 -1.13,-0.87 -1.26,-0.7 -1.37,-0.46 -1.5,-0.17 -1.5,0.17 -1.37,0.46 -1.26,0.7 -1.13,0.87 -0.77,0.74 -0.66,0.74 -0.55,0.7 -0.43,0.62 Z M 15.5,12 l -0.07,0.71 -0.21,0.65 -0.32,0.6 -0.43,0.51 -0.51,0.43 -0.6,0.32 -0.65,0.21 -0.71,0.07 -0.71,-0.07 -0.65,-0.21 -0.6,-0.32 -0.51,-0.43 -0.43,-0.51 -0.32,-0.6 -0.21,-0.65 -0.07,-0.71 0.07,-0.71 0.21,-0.65 0.32,-0.6 0.43,-0.51 0.51,-0.43 0.6,-0.32 0.65,-0.21 0.71,-0.07 0.71,0.07 0.65,0.21 0.6,0.32 0.51,0.43 0.43,0.51 0.32,0.6 0.21,0.65 0.07,0.71 Z" fill-rule="evenodd" fill="#000000" />
</svg>