<svg xmlns="http://www.w3.org/2000/svg" viewBox="0 0 24 24">
  <path id="eyeSolidOpened" d="M 2.25,12.44 l -0.12,-0.44 0.12,-0.44 0.46,-0.73 0.68,-0.95 0.91,-1.07 1.12,-1.11 1.34,-1.03 1.54,-0.86 1.75,-0.59 0.95,-0.16 1,-0.06 1,0.06 0.95,0.16 1.75,0.59 1.54,0.86 1.34,1.03 1.12,1.11 0.91,1.07 0.69,0.95 0.45,0.73 0.12,0.44 -0.12,0.44 -0.45,0.73 -0.69,0.95 -0.91,1.07 -1.12,1.11 -1.34,1.03 -1.55,0.86 -1.74,0.59 -0.95,0.16 -1,0.06 -1,-0.06 -0.95,-0.16 -1.75,-0.59 -1.54,-0.86 -1.34,-1.03 -1.12,-1.11 -0.91,-1.07 -0.68,-0.95 -0.46,-0.73 Z M 12,16.5 l 0.91,-0.09 0.84,-0.26 0.77,-0.42 0.66,-0.55 0.55,-0.66 0.42,-0.77 0.26,-0.84 0.09,-0.91 -0.09,-0.91 -0.26,-0.84 -0.42,-0.77 -0.55,-0.66 -0.66,-0.55 -0.77,-0.42 -0.84,-0.26 -0.91,-0.09 -0.91,0.09 -0.84,0.26 -0.77,0.42 -0.66,0.55 -0.55,0.66 -0.42,0.77 -0.26,0.84 -0.09,0.91 0.09,0.91 0.26,0.84 0.42,0.77 0.55,0.66 0.66,0.55 0.77,0.42 0.84,0.26 0.91,0.09 Z M 15,12 l -0.06,0.6 -0.18,0.57 -0.27,0.51 -0.37,0.44 -0.44,0.37 -0.51,0.27 -0.57,0.18 -0.6,0.06 -0.6,-0.06 -0.57,-0.18 -0.51,-0.27 -0.44,-0.37 -0.37,-0.44 -0.27,-0.51 -0.18,-0.57 -0.06,-0.6 0.06,-0.6 0.18,-0.57 0.27,-0.51 0.37,-0.44 0.44,-0.37 0.51,-0.27 0.57,-0.18 0.6,-0.06 0.6,0.06 0.57,0.18 0.51,0.27 0.44,0.37 0.37,0.44 0.27,0.51 0.18,0.57 0.06,0.6 Z" fill-rule="evenodd" fill="#000000" />
</svg>