<svg xmlns="http://www.w3.org/2000/svg" viewBox="0 0 24 24">
  <path id="eyeSolidClosed" d="M 18.95,5.81 l -12,14 -1.9,-1.62 1.1,-1.29 -1.4,-1.23 -1.13,-1.26 -0.83,-1.12 -0.31,-0.47 -0.23,-0.38 -0.12,-0.44 0.12,-0.44 0.45,-0.73 0.69,-0.95 0.91,-1.07 1.12,-1.11 1.34,-1.03 1.54,-0.86 1.75,-0.59 0.95,-0.16 1,-0.06 0.99,0.06 0.94,0.16 1.74,0.58 1.38,-1.61 1.9,1.62 Z M 12,16.5 l 0.91,-0.09 0.84,-0.26 0.77,-0.42 0.66,-0.55 0.55,-0.66 0.42,-0.77 0.26,-0.84 0.09,-0.91 -0.06,-0.72 -0.16,-0.68 2.4,-2.81 1.09,1.09 0.87,1.05 0.67,0.92 0.44,0.71 0.12,0.44 -0.12,0.44 -0.46,0.73 -0.68,0.95 -0.91,1.07 -1.12,1.11 -1.34,1.03 -1.55,0.86 -1.74,0.59 -0.95,0.16 -1,0.06 -1.34,-0.1 -1.25,-0.29 1.86,-2.17 0.73,0.06 Z M 13.86,7.9 l -0.89,-0.3 -0.97,-0.1 -0.91,0.09 -0.84,0.26 -0.77,0.42 -0.66,0.55 -0.55,0.66 -0.42,0.77 -0.26,0.84 -0.09,0.91 0.05,0.67 0.14,0.64 0.55,1.16 1.04,-1.21 -0.21,-0.61 -0.07,-0.65 0.06,-0.6 0.18,-0.57 0.27,-0.51 0.37,-0.44 0.44,-0.37 0.51,-0.27 0.57,-0.18 0.6,-0.06 0.83,0.12 1.03,-1.22 Z" fill-rule="evenodd" fill="#000000" />
</svg>