<svg xmlns="http://www.w3.org/2000/svg" viewBox="0 0 24 24">
  <path id="eyeWaves" d="M 13.89,12.03 l -1.39,0.47 -0.61,-0.69 -0.69,-0.56 -0.75,-0.44 -0.8,-0.31 0.56,0.47 0.42,0.59 0.27,0.68 0.1,0.76 -0.06,0.6 -0.18,0.57 -0.27,0.51 -0.37,0.44 -0.44,0.37 -0.51,0.27 -0.57,0.18 -0.6,0.06 -0.6,-0.06 -0.57,-0.18 -0.51,-0.27 -0.44,-0.37 -0.37,-0.44 -0.27,-0.51 -0.18,-0.57 -0.06,-0.6 0.1,-0.76 0.27,-0.68 0.42,-0.59 0.56,-0.47 -0.8,0.31 -0.75,0.44 -0.69,0.56 -0.61,0.69 -1.5,-0.47 0.53,-0.84 0.61,-0.72 0.69,-0.61 0.75,-0.5 0.8,-0.38 0.83,-0.28 0.86,-0.17 0.88,-0.05 0.87,0.05 0.86,0.17 0.84,0.28 0.8,0.38 0.75,0.5 0.68,0.61 0.62,0.72 0.52,0.84 Z M 20,12.01 l -0.18,-2.25 -0.53,-2.17 -0.88,-2.06 -1.2,-1.91 1.61,-1.2 0.73,1.07 0.64,1.11 0.54,1.16 0.45,1.2 0.36,1.23 0.25,1.25 0.16,1.28 0.05,1.29 -0.05,1.29 -0.16,1.28 -0.26,1.25 -0.35,1.23 -0.45,1.2 -0.55,1.16 -0.64,1.11 -0.74,1.06 -1.6,-1.2 1.21,-1.9 0.87,-2.06 0.54,-2.18 0.18,-2.24 Z M 14.01,6.01 l 1.6,-1.19 1.03,1.63 0.75,1.77 0.46,1.86 0.15,1.93 -0.16,1.92 -0.46,1.87 -0.75,1.76 -1.03,1.64 -1.6,-1.2 0.86,-1.37 0.63,-1.47 0.38,-1.55 0.13,-1.6 -0.13,-1.61 -0.38,-1.55 -0.62,-1.47 -0.86,-1.37 Z" fill-rule="evenodd" fill="#000000" />
</svg>