<svg xmlns="http://www.w3.org/2000/svg" viewBox="0 0 24 24">
  <path id="filter" d="M 3.17,3.93 l 0.21,-0.36 0.33,-0.3 0.4,-0.2 0.41,-0.07 16.58,0 0.37,0.07 0.24,0.2 0.1,0.3 -0.06,0.36 -0.81,2.14 -0.22,0.36 -0.33,0.3 -0.39,0.2 -0.42,0.07 -16.58,0 -0.36,-0.07 -0.24,-0.2 -0.1,-0.3 0.06,-0.36 0.81,-2.14 Z M 5.02,11.35 l -0.05,-0.49 0.17,-0.43 0.35,-0.31 0.47,-0.12 12.21,0 0.48,0.12 0.34,0.31 0.17,0.44 -0.06,0.49 -0.76,2 -0.36,0.46 -0.57,0.18 -10.71,0 -0.57,-0.18 -0.37,-0.47 -0.74,-2 Z M 8,18 l 0.08,-0.39 0.21,-0.32 0.32,-0.21 0.39,-0.08 6,0 0.39,0.08 0.32,0.21 0.21,0.32 0.08,0.39 0,1 -0.08,0.39 -0.21,0.32 -0.32,0.21 -0.39,0.08 -6,0 -0.39,-0.08 -0.32,-0.21 -0.21,-0.32 -0.08,-0.39 0,-1 Z" fill-rule="evenodd" fill="#000000" />
</svg>