<svg xmlns="http://www.w3.org/2000/svg" viewBox="0 0 48 48">
  <path id="finish" d="M 10,7 l 8.29,0 0,4.14 4.14,0 0,-4.14 4.14,0 0.81,0.16 0.66,0.45 0.44,0.66 0.16,0.8 0,4.14 2.07,0 0,-4.14 4.15,0 0,4.14 2.07,0 0,-4.14 0.16,-0.8 0.45,-0.66 0.65,-0.45 0.81,-0.16 0,20.71 -0.16,0.81 -0.45,0.66 -0.66,0.44 -0.8,0.17 0,-4.15 -2.07,0 0,4.15 -4.15,0 0,-4.15 -2.07,0 0,4.15 -0.8,-0.17 -0.66,-0.44 -0.45,-0.66 -0.16,-0.81 -4.14,0 0,-4.14 -4.14,0 0,4.14 -4.15,0 0,12.43 -4.14,0 0,-33.14 Z M 14.14,11.14 l 0,4.15 4.15,0 0,4.14 -4.15,0 0,4.14 4.15,0 0,-4.14 4.14,0 0,4.14 4.14,0 0,-4.14 -4.14,0 0,-4.14 4.14,0 0,-4.15 -4.14,0 0,4.15 -4.14,0 0,-4.15 -4.15,0 Z M 34.86,21.5 l -4.15,0 0,4.14 4.15,0 0,-4.14 Z M 30.71,17.36 l 4.15,0 0,-4.15 -4.15,0 0,4.15 Z M 34.86,21.5 l 2.07,0 0,-4.14 -2.07,0 0,4.14 Z M 30.71,21.5 l 0,-4.14 -2.07,0 0,4.14 2.07,0 Z" fill-rule="evenodd" fill="#000000" />
</svg>