<svg xmlns="http://www.w3.org/2000/svg" viewBox="0 0 24 24">
  <path id="fire" d="M 19.15,13.52 l -0.06,-0.99 -0.17,-0.98 -0.27,-0.97 -0.36,-0.94 -0.17,0.51 -0.48,1 -0.71,0.83 -0.89,0.64 -1.04,0.39 0.06,-0.11 0.51,-1.28 0.27,-1.32 0.03,-1.33 -0.2,-1.31 -0.42,-1.25 -0.63,-1.17 -0.84,-1.06 -1.04,-0.91 -1.15,-0.69 -1.24,-0.48 -0.35,-0.1 0.18,0.7 0.08,0.7 -0.13,1.39 -0.5,1.31 -0.39,0.6 -0.47,0.55 -0.93,0.95 -0.86,0.9 -0.91,1.1 -0.61,1.14 -0.35,1.23 -0.11,1.43 0.1,1.46 0.34,1.27 0.62,1.16 0.94,1.11 0.97,0.84 0.99,0.6 -0.03,-0.05 -0.08,-0.14 -0.35,-0.87 -0.1,-0.92 0.1,-0.94 0.3,-0.9 0.08,0.25 0.22,0.47 0.33,0.39 0.42,0.3 0.48,0.19 -0.04,-0.08 -0.23,-0.61 -0.13,-0.62 -0.01,-0.62 0.09,-0.62 0.2,-0.58 0.29,-0.55 0.39,-0.5 0.49,-0.43 0.54,-0.34 0.6,-0.23 0.15,-0.04 -0.12,0.66 0.06,0.67 0.23,0.62 0.4,0.54 0.84,0.87 0.42,0.53 0.29,0.53 0.16,0.59 0.05,0.67 -0.03,0.57 -0.1,0.5 -0.45,0.89 1.03,-0.44 0.93,-0.65 0.84,-0.86 0.78,-1.08 0.18,-0.3 0.44,-0.9 0.3,-0.94 0.18,-0.96 Z" fill-rule="evenodd" fill="#000000" />
</svg>