<svg xmlns="http://www.w3.org/2000/svg" viewBox="0 0 24 24">
  <path id="fireDiamond" d="M 21,12 l -4,4 -4,-4 4,-4 4,4 Z M 16,17 l -4,4 -4,-4 4,-4 4,4 Z M 12,11 l -4,-4 4,-4 4,4 -4,4 Z M 7,8 l 4,4 -4,4 -4,-4 4,-4 Z M 10.12,17 l 1.88,1.88 1.88,-1.88 -1.88,-1.88 -1.88,1.88 Z M 12.5,5 l -1,0 0,4 1,0 0,-4 Z M 16.5,10 l 0,4 1,0 0,-4 -1,0 Z M 8,12 l -0.08,-0.39 -0.21,-0.32 -0.32,-0.21 -0.39,-0.08 -0.39,0.08 -0.32,0.21 -0.21,0.32 -0.08,0.39 0.08,0.39 0.21,0.32 0.32,0.21 0.39,0.08 0.39,-0.08 0.32,-0.21 0.21,-0.32 0.08,-0.39 Z" fill-rule="evenodd" fill="#000000" />
</svg>