<svg xmlns="http://www.w3.org/2000/svg" viewBox="0 0 24 24">
  <path id="fireExtinguisher" d="M 9.5,10 l -0.36,0.36 0.36,0.38 0.27,0.45 0.17,0.51 0.06,0.55 -0.1,0.7 0.46,0.53 0.34,0.61 0.22,0.68 0.08,0.73 0,5.5 -7,0 0,-5.5 0.08,-0.73 0.22,-0.68 0.34,-0.61 0.46,-0.53 -0.1,-0.7 0.09,-0.66 0.24,-0.59 -0.33,0 -2.16,0.86 -0.29,0 -0.22,-0.19 -0.08,-0.29 0.03,-0.3 0.13,-0.26 0.23,-0.2 1.77,-1.06 0.19,-0.09 1.4,-0.47 -3.98,-1.33 -0.38,-0.27 -0.14,-0.45 0.13,-0.29 0.31,-0.09 4.06,0.62 0,-0.19 0.08,-0.39 0.21,-0.32 0.32,-0.21 0.39,-0.08 1,0 0.39,0.08 0.32,0.21 0.21,0.32 0.08,0.39 0,1 0.5,0.5 0,1.5 Z M 9.5,10 l 0,-1.5 -0.5,-0.5 0,-1 -0.08,-0.39 -0.21,-0.32 -0.32,-0.21 -0.39,-0.08 -1,0 -0.39,0.08 -0.32,0.21 -0.21,0.32 -0.08,0.39 0,0.19 -4.06,-0.62 -0.31,0.09 -0.13,0.29 0.14,0.45 0.38,0.27 3.98,1.33 -1.4,0.47 -0.19,0.09 -1.77,1.06 -0.23,0.2 -0.13,0.26 -0.03,0.3 0.08,0.29 0.22,0.19 0.29,0 2.16,-0.86 0.33,0 -0.24,0.59 -0.09,0.66 0.1,0.7 -0.46,0.53 -0.34,0.61 -0.22,0.68 -0.08,0.73 0,5.5 7,0 0,-5.5 -0.08,-0.73 -0.22,-0.68 -0.34,-0.61 -0.46,-0.53 0.1,-0.7 -0.06,-0.55 -0.17,-0.51 -0.27,-0.45 -0.36,-0.38 0.36,-0.36 Z M 9.5,10 l -0.36,0.36 0.36,0.38 0.27,0.45 0.17,0.51 0.06,0.55 -0.1,0.7 0.46,0.53 0.34,0.61 0.22,0.68 0.08,0.73 0,5.5 -7,0 0,-5.5 0.08,-0.73 0.22,-0.68 0.34,-0.61 0.46,-0.53 -0.1,-0.7 0.09,-0.66 0.24,-0.59 -0.33,0 -2.16,0.86 -0.29,0 -0.22,-0.19 -0.08,-0.29 0.03,-0.3 0.13,-0.26 0.23,-0.2 1.77,-1.06 0.19,-0.09 1.4,-0.47 -3.98,-1.33 -0.38,-0.27 -0.14,-0.45 0.13,-0.29 0.31,-0.09 4.06,0.62 0,-0.19 0.08,-0.39 0.21,-0.32 0.32,-0.21 0.39,-0.08 1,0 0.39,0.08 0.32,0.21 0.21,0.32 0.08,0.39 0,1 0.5,0.5 0,1.5 Z M 10.5,10 l 0,-1.5 8.5,-5.5 1,0 -0.44,1.86 -0.33,1.88 -0.21,1.89 -0.11,1.89 0.01,1.9 0.11,1.9 0.23,1.9 0.34,1.88 0.4,1.9 -1,0 -8.5,-10 Z M 10.5,10 l 8.5,10 1,0 -0.4,-1.9 -0.34,-1.88 -0.23,-1.9 -0.11,-1.9 -0.01,-1.9 0.11,-1.89 0.21,-1.89 0.33,-1.88 0.44,-1.86 -1,0 -8.5,5.5 0,1.5 Z M 10.5,10 l 0,-1.5 8.5,-5.5 1,0 -0.44,1.86 -0.33,1.88 -0.21,1.89 -0.11,1.89 0.01,1.9 0.11,1.9 0.23,1.9 0.34,1.88 0.4,1.9 -1,0 -8.5,-10 Z M 7.5,13.31 l 0.41,-0.08 0.34,-0.23 0.23,-0.34 0.08,-0.41 -0.08,-0.41 -0.23,-0.34 -0.34,-0.23 -0.41,-0.08 -0.41,0.08 -0.34,0.23 -0.23,0.34 -0.08,0.41 0.08,0.41 0.23,0.34 0.34,0.23 0.41,0.08 Z M 7.5,13.31 l -0.41,-0.08 -0.34,-0.23 -0.23,-0.34 -0.08,-0.41 0.08,-0.41 0.23,-0.34 0.34,-0.23 0.41,-0.08 0.41,0.08 0.34,0.23 0.23,0.34 0.08,0.41 -0.08,0.41 -0.23,0.34 -0.34,0.23 -0.41,0.08 Z M 7.5,13.31 l 0.41,-0.08 0.34,-0.23 0.23,-0.34 0.08,-0.41 -0.08,-0.41 -0.23,-0.34 -0.34,-0.23 -0.41,-0.08 -0.41,0.08 -0.34,0.23 -0.23,0.34 -0.08,0.41 0.08,0.41 0.23,0.34 0.34,0.23 0.41,0.08 Z" fill-rule="evenodd" fill="#000000" />
</svg>