<svg xmlns="http://www.w3.org/2000/svg" viewBox="0 0 48 48">
  <path id="flagOutlineLarge" d="M 27.97,8.99 l 1.46,-0.33 1.33,-0.26 1.22,-0.18 1.1,-0.12 0.99,-0.07 0.86,-0.03 0.75,0.01 0.63,0.03 0.46,0.08 0.42,0.17 0.66,0.53 0.42,0.73 0.15,0.84 0,10.67 -0.07,0.6 -0.19,0.54 -0.29,0.48 -0.39,0.41 -0.45,0.32 -0.5,0.25 -0.53,0.14 -0.55,0.05 -1.24,0.02 -1.58,0.13 -1.92,0.28 -1.08,0.22 -1.17,0.27 -1.16,0.26 -1.08,0.19 -1,0.11 -0.92,0.05 -1.62,-0.06 -1.33,-0.21 -0.82,-0.22 0,11.06 0.06,0.34 0.16,0.29 0.25,0.19 0.29,0.09 2.71,0.14 2.3,-0.06 2.11,-0.17 1.9,-0.29 1.62,-0.39 0.69,-0.24 0.59,-0.26 0.48,-0.27 0.38,-0.27 0.44,-0.52 0.12,-0.48 -0.13,-0.55 -0.19,-0.31 -0.3,-0.34 -0.89,-0.69 -1.28,-0.65 -1.61,-0.56 -1.88,-0.43 -2.09,-0.27 -2.26,-0.09 -0.4,-0.01 -0.23,0 -0.84,-0.17 -0.68,-0.46 -0.47,-0.69 -0.17,-0.84 0.16,-0.81 0.45,-0.67 0.67,-0.45 0.82,-0.17 0.3,0 0.39,0 3.51,0.15 3.28,0.43 1.54,0.31 1.45,0.38 1.37,0.43 1.26,0.48 1.16,0.54 1.06,0.59 0.93,0.65 0.81,0.71 0.67,0.77 0.51,0.84 0.33,0.91 0.12,0.97 -0.12,0.97 -0.33,0.91 -0.51,0.85 -0.67,0.77 -0.81,0.7 -0.93,0.65 -1.06,0.6 -1.16,0.54 -1.26,0.48 -1.37,0.43 -1.45,0.37 -1.54,0.31 -3.28,0.43 -3.51,0.15 -3.51,-0.15 -3.28,-0.43 -1.54,-0.31 -1.45,-0.37 -1.37,-0.43 -1.26,-0.48 -1.16,-0.54 -1.06,-0.6 -0.93,-0.65 -0.81,-0.7 -0.67,-0.77 -0.51,-0.85 -0.33,-0.91 -0.12,-0.97 0.07,-0.74 0.19,-0.71 0.32,-0.68 0.41,-0.64 1.11,-1.15 1.39,-1 0.68,-0.29 0.69,-0.08 0.67,0.12 0.6,0.28 0.51,0.43 0.39,0.54 0.25,0.63 0.09,0.7 0,2.04 0.16,0.59 0.22,0.34 0.34,0.36 0.22,0.12 0.24,-0.07 0.28,-0.3 0.12,-0.47 0,-23.28 0.19,-0.98 0.53,-0.83 0.37,-0.32 0.43,-0.25 0.49,-0.16 0.52,-0.06 1.02,0 0.77,0.12 0.65,0.26 -0.46,0.87 0.46,-0.87 0.41,0.2 0.57,0.22 0.75,0.22 0.92,0.17 1.09,0.1 1.26,-0.01 1.44,-0.15 1.61,-0.33 Z M 36.17,10.03 l -0.55,-0.02 -0.67,-0.01 -0.78,0.02 -0.91,0.07 -1.02,0.11 -1.14,0.17 -1.26,0.24 -1.38,0.32 -1.81,0.37 -1.63,0.17 -1.46,0.01 -1.27,-0.12 -1.1,-0.21 -0.92,-0.26 -0.73,-0.28 -0.56,-0.27 0.47,-0.88 -0.47,0.88 -0.27,-0.11 -0.21,-0.04 -1.02,0 -0.36,0.17 -0.12,0.19 -0.05,0.24 0,23.28 -0.1,0.76 -0.28,0.69 -0.43,0.58 -0.55,0.44 -0.67,0.29 -0.74,0.07 -0.74,-0.17 -0.71,-0.47 -0.55,-0.59 -0.43,-0.65 -0.28,-0.73 -0.1,-0.79 0,0 0,-2.04 -0.09,-0.37 -0.23,-0.24 -0.25,-0.09 -0.27,0.08 -1.15,0.83 -0.79,0.82 -0.45,0.8 -0.14,0.76 0.06,0.5 0.18,0.51 0.33,0.53 0.47,0.54 0.63,0.55 0.76,0.53 0.9,0.5 1.04,0.48 1.15,0.44 1.25,0.4 1.35,0.34 1.44,0.29 3.1,0.41 3.34,0.14 3.34,-0.14 3.1,-0.41 1.44,-0.29 1.35,-0.34 1.25,-0.4 1.15,-0.44 1.04,-0.48 0.9,-0.5 0.76,-0.53 0.63,-0.55 0.47,-0.54 0.33,-0.53 0.18,-0.51 0.06,-0.5 -0.06,-0.49 -0.18,-0.51 -0.33,-0.53 -0.47,-0.54 -0.63,-0.55 -0.76,-0.53 -0.9,-0.51 -1.04,-0.48 -1.15,-0.44 -1.25,-0.39 -1.35,-0.35 -1.44,-0.29 -3.1,-0.4 -3.34,-0.15 -0.4,0 -0.29,0 -0.1,0.1 0.05,0.11 0.12,0.05 0.24,0 0.38,0.01 2.43,0.1 2.27,0.3 2.08,0.47 1.83,0.64 1.56,0.8 0.67,0.46 0.58,0.51 0.49,0.56 0.39,0.63 0.24,0.68 0.09,0.74 -0.09,0.75 -0.26,0.67 -0.4,0.59 -0.52,0.51 -0.59,0.44 -0.68,0.38 -1.57,0.61 -1.82,0.44 -2.06,0.32 -2.25,0.18 -2.39,0.06 -2.91,-0.15 -0.55,-0.11 -0.49,-0.21 -0.44,-0.29 -0.37,-0.36 -0.53,-0.9 -0.18,-1.03 0,-12.63 0,-2.07 1.61,1.27 0,0 0.05,0.04 0.27,0.15 0.53,0.22 0.8,0.23 1.08,0.17 1.38,0.05 0.81,-0.05 0.89,-0.1 0.97,-0.16 1.05,-0.24 1.24,-0.28 1.14,-0.23 2.05,-0.31 1.71,-0.14 1.38,-0.02 0.37,-0.07 0.3,-0.19 0.19,-0.25 0.07,-0.28 0,-10.67 -0.09,-0.27 -0.16,-0.09 Z" fill-rule="evenodd" fill="#000000" />
</svg>