<svg xmlns="http://www.w3.org/2000/svg" viewBox="0 0 24 24">
  <path id="flagNew" d="M 13.86,2.54 l 1.51,-0.32 1.26,-0.17 0.98,-0.05 0.73,0.02 0.27,0.08 0.21,0.16 0.13,0.24 0.05,0.28 0,5.96 -0.09,0.4 -0.25,0.31 -0.34,0.22 -0.41,0.07 -0.73,0.01 -0.92,0.07 -1.11,0.17 -1.29,0.28 -1.2,0.24 -1.01,0.08 -0.84,-0.03 -0.67,-0.1 -0.51,-0.15 -0.35,-0.15 -0.21,-0.11 -0.07,-0.05 0,8.53 1.21,0.15 1.29,0.06 1.04,-0.04 0,1.28 -1.04,0.02 -1.91,-0.08 -1.79,-0.23 -1.61,-0.37 -1.41,-0.49 -1.16,-0.59 -0.87,-0.68 -0.56,-0.75 -0.19,-0.81 0.11,-0.62 0.33,-0.59 0.53,-0.55 0.71,-0.51 0.46,-0.13 0.43,0.14 0.31,0.34 0.12,0.47 0,1.45 0.14,0.57 0.4,0.52 0.63,0.48 0.83,0.4 0,-14.97 0.07,-0.34 0.18,-0.28 0.27,-0.2 0.34,-0.07 0.57,0 0.53,0.15 0.63,0.27 0.47,0.13 0.56,0.11 0.66,0.06 0.76,-0.01 0.86,-0.09 0.96,-0.19 Z M 19.04,14 l 0,3 3,0 0,2 -3,0 0,3 -2,0 0,-3 -3,0 0,-2 3,0 0,-3 2,0 Z M 15.54,13.85 l -0.89,-0.24 -0.98,-0.19 -1.05,-0.12 -1.12,-0.04 -0.22,0 -0.13,0 -0.25,-0.05 -0.21,-0.14 -0.14,-0.2 -0.05,-0.26 0.05,-0.24 0.13,-0.19 0.19,-0.13 0.24,-0.05 0.17,0 0.22,0 2.1,0.1 1.94,0.28 0,1.47 Z" fill-rule="evenodd" fill="#000000" />
</svg>