<svg xmlns="http://www.w3.org/2000/svg" viewBox="0 0 24 24">
  <path id="flatBulbBeam" d="M 6.69,9.52 l 1.24,-0.87 1.56,-1.01 1.64,-0.88 1.7,-0.76 1.75,-0.62 0.3,-0.09 0.8,-0.16 0.79,0.03 0.75,0.19 0.69,0.35 0.6,0.48 0.48,0.6 0.35,0.71 0.2,0.8 0.17,1.85 0.06,1.86 -0.06,1.86 -0.17,1.85 -0.2,0.8 -0.35,0.71 -0.48,0.6 -0.6,0.48 -0.69,0.35 -0.75,0.19 -0.79,0.03 -0.8,-0.16 -0.3,-0.09 -1.75,-0.62 -1.7,-0.76 -1.64,-0.88 -1.56,-1.01 -1.24,-0.87 -0.79,0.38 -0.9,0.14 -0.6,-0.06 -0.57,-0.18 -0.51,-0.27 -0.44,-0.37 -0.37,-0.44 -0.27,-0.51 -0.18,-0.57 -0.06,-0.6 0.06,-0.6 0.18,-0.57 0.27,-0.51 0.37,-0.44 0.44,-0.37 0.51,-0.27 0.57,-0.18 0.6,-0.06 0.9,0.14 0.79,0.38 Z M 6.5,12 l -0.12,-0.58 -0.32,-0.48 -0.48,-0.32 -0.58,-0.12 -0.58,0.12 -0.48,0.32 -0.32,0.48 -0.12,0.58 0.12,0.58 0.32,0.48 0.48,0.32 0.58,0.12 0.58,-0.12 0.48,-0.32 0.32,-0.48 0.12,-0.58 Z" fill-rule="evenodd" fill="#000000" />
</svg>