<svg xmlns="http://www.w3.org/2000/svg" viewBox="0 0 24 24">
  <path id="floppyDisk" d="M 5,4 l 3,0 0,5 0.08,0.39 0.21,0.32 0.32,0.21 0.39,0.08 6,0 0.39,-0.08 0.32,-0.21 0.21,-0.32 0.08,-0.39 0,-5 0.59,0 0.38,0.08 0.32,0.21 2.42,2.42 0.21,0.32 0.08,0.38 0,11.59 -0.08,0.39 -0.21,0.32 -0.32,0.21 -0.39,0.08 -14,0 -0.39,-0.08 -0.32,-0.21 -0.21,-0.32 -0.08,-0.39 0,-14 0.08,-0.39 0.21,-0.32 0.32,-0.21 0.39,-0.08 Z M 8,13 l -0.39,0.08 -0.32,0.21 -0.21,0.32 -0.08,0.39 0,3.5 0.08,0.39 0.21,0.32 0.32,0.21 0.39,0.08 8,0 0.39,-0.08 0.32,-0.21 0.21,-0.32 0.08,-0.39 0,-3.5 -0.08,-0.39 -0.21,-0.32 -0.32,-0.21 -0.39,-0.08 -8,0 Z M 12.5,4 l 1,0 0.35,0.15 0.15,0.35 0,3 -0.15,0.35 -0.35,0.15 -1,0 -0.35,-0.15 -0.15,-0.35 0,-3 0.15,-0.35 0.35,-0.15 Z" fill-rule="evenodd" fill="#000000" />
</svg>