<svg xmlns="http://www.w3.org/2000/svg" viewBox="0 0 24 24">
  <path id="floppyDiskPlus" d="M 7.75,4 l 0.18,0.07 0.07,0.18 0,4.75 0.08,0.39 0.21,0.32 0.32,0.21 0.39,0.08 6,0 0.39,-0.08 0.32,-0.21 0.21,-0.32 0.08,-0.39 0,-4.75 0.07,-0.18 0.18,-0.07 0.34,0 0.38,0.08 0.32,0.21 2.42,2.42 0.21,0.32 0.08,0.38 0,3.96 -0.13,0.22 -0.25,0.01 -1.26,-0.44 -1.36,-0.16 -1.27,0.13 -1.17,0.39 -1.05,0.6 -0.91,0.8 -0.18,0.08 -4.42,0 -0.39,0.08 -0.32,0.21 -0.21,0.32 -0.08,0.39 0,3.5 0.08,0.39 0.21,0.32 0.32,0.21 0.39,0.08 3,0 0.15,0.05 0.09,0.14 0.36,0.93 -0.01,0.25 -0.22,0.13 -6.37,0 -0.39,-0.08 -0.32,-0.21 -0.21,-0.32 -0.08,-0.39 0,-14 0.08,-0.39 0.21,-0.32 0.32,-0.21 0.39,-0.08 2.75,0 Z M 17,22 l -1.01,-0.1 -0.94,-0.29 -0.85,-0.46 -0.74,-0.61 -0.61,-0.74 -0.46,-0.85 -0.29,-0.94 -0.1,-1.01 0.1,-1.01 0.29,-0.94 0.46,-0.85 0.61,-0.74 0.74,-0.61 0.85,-0.46 0.94,-0.29 1.01,-0.1 1.01,0.1 0.94,0.29 0.85,0.46 0.74,0.61 0.61,0.74 0.46,0.85 0.29,0.94 0.1,1.01 -0.1,1.01 -0.29,0.94 -0.46,0.85 -0.61,0.74 -0.74,0.61 -0.85,0.46 -0.94,0.29 -1.01,0.1 Z M 16,15.75 l -0.07,0.18 -0.18,0.07 -2,0 -0.18,0.07 -0.07,0.18 0,1.5 0.07,0.18 0.18,0.07 2,0 0.18,0.07 0.07,0.18 0,2 0.07,0.18 0.18,0.07 1.5,0 0.18,-0.07 0.07,-0.18 0,-2 0.07,-0.18 0.18,-0.07 2,0 0.18,-0.07 0.07,-0.18 0,-1.5 -0.07,-0.18 -0.18,-0.07 -2,0 -0.18,-0.07 -0.07,-0.18 0,-2 -0.07,-0.18 -0.18,-0.07 -1.5,0 -0.18,0.07 -0.07,0.18 0,2 Z M 12.5,4 l 1,0 0.35,0.15 0.15,0.35 0,3 -0.15,0.35 -0.35,0.15 -1,0 -0.35,-0.15 -0.15,-0.35 0,-3 0.15,-0.35 0.35,-0.15 Z" fill-rule="evenodd" fill="#000000" />
</svg>