<svg xmlns="http://www.w3.org/2000/svg" viewBox="0 0 24 24">
  <path id="fogLight" d="M 9.2,7.73 l 0,2.07 0.06,0.27 0.15,0.22 0.22,0.15 0.27,0.06 0.27,-0.06 0.22,-0.15 0.15,-0.22 0.06,-0.27 0,-3.1 0.06,-0.27 0.15,-0.22 0.22,-0.16 0.27,-0.05 0.27,0.05 0.22,0.16 0.15,0.22 0.06,0.27 0,10.3 -0.08,0.39 -0.21,0.32 -0.32,0.21 -0.39,0.08 -1.53,0 -0.5,-0.13 -3.47,-2 -0.63,-0.49 -0.47,-0.61 -0.3,-0.72 -0.1,-0.78 0,-2.54 0.1,-0.78 0.3,-0.72 0.47,-0.61 0.63,-0.49 2.2,-1.26 0.52,-0.14 0.48,0.14 0.36,0.35 0.14,0.51 Z M 18.53,8.53 l -0.46,0.69 -0.15,0.78 0.15,0.78 0.46,0.69 0.46,0.56 0.33,0.62 0.19,0.67 0.07,0.68 -0.07,0.68 -0.19,0.67 -0.33,0.62 -0.46,0.56 -0.44,0.64 -0.17,0.74 0.1,0.74 0.38,0.67 0.05,0.15 -0.06,0.14 -0.78,0.78 -0.14,0.06 -0.14,-0.06 -0.41,-0.56 -0.29,-0.62 -0.16,-0.64 -0.05,-0.66 0.08,-0.66 0.2,-0.64 0.32,-0.6 0.45,-0.54 0.46,-0.69 0.15,-0.78 -0.15,-0.78 -0.46,-0.69 -0.46,-0.56 -0.33,-0.62 -0.19,-0.67 -0.07,-0.68 0.07,-0.68 0.19,-0.67 0.33,-0.62 0.46,-0.56 0.44,-0.64 0.17,-0.74 -0.1,-0.74 -0.38,-0.67 -0.05,-0.15 0.06,-0.14 0.78,-0.78 0.14,-0.06 0.14,0.06 0.41,0.56 0.29,0.62 0.16,0.64 0.05,0.66 -0.08,0.66 -0.2,0.64 -0.32,0.6 -0.45,0.54 Z M 20.77,15.43 l 0.76,0.04 0.33,0.16 0.14,0.34 0,0.93 -0.05,0.22 -0.13,0.17 -0.19,0.1 -0.22,0.01 -1.36,-0.24 -0.16,-0.13 0.03,-0.21 0.37,-0.61 0.28,-0.64 0.2,-0.14 Z M 20.25,11.1 l 1.22,-0.07 0.37,0.14 0.16,0.36 0,0.94 -0.16,0.36 -0.37,0.14 -0.61,-0.04 -0.19,-0.15 -0.24,-0.69 -0.34,-0.66 -0.01,-0.21 0.17,-0.12 Z M 20.92,6.69 l 0.49,-0.09 0.22,0.01 0.19,0.1 0.13,0.17 0.05,0.22 0,0.93 -0.14,0.34 -0.33,0.16 -1.08,0.06 -0.18,-0.1 -0.01,-0.22 0.3,-0.69 0.19,-0.72 0.17,-0.17 Z M 14.03,15.03 l 1.7,0.1 0.17,0.12 -0.01,0.21 -0.37,0.73 -0.09,0.1 -0.13,0.03 -1.39,-0.25 -0.29,-0.17 -0.12,-0.32 0,-0.05 0.16,-0.36 0.37,-0.14 Z M 13.97,11.47 l 1.25,-0.07 0.2,0.14 0.33,0.76 0,0.22 -0.19,0.1 -1.59,-0.09 -0.33,-0.16 -0.14,-0.34 0,-0.06 0.14,-0.34 0.33,-0.16 Z M 13.91,7.93 l 1.48,-0.26 0.2,0.08 0.03,0.22 -0.28,0.78 -0.19,0.15 -1.12,0.07 -0.37,-0.14 -0.16,-0.36 0,-0.05 0.12,-0.32 0.29,-0.17 Z" fill-rule="evenodd" fill="#000000" />
</svg>