<svg xmlns="http://www.w3.org/2000/svg" viewBox="0 0 24 24">
  <path id="folder" d="M 20.13,18.15 l -0.12,0.34 -0.22,0.27 -0.3,0.18 -0.35,0.06 -14.29,0 -0.35,-0.06 -0.3,-0.18 -0.22,-0.26 -0.12,-0.34 -1.72,-10.32 0.02,-0.32 0.14,-0.27 0.24,-0.18 0.31,-0.07 0.15,0 0.78,0.16 0.63,0.43 0.43,0.63 0.16,0.78 0,7.3 0.06,0.27 0.15,0.22 0.22,0.15 0.27,0.06 0.46,-0.17 0.24,-0.43 1.47,-9.55 0.12,-0.34 0.22,-0.27 0.29,-0.18 0.36,-0.06 0.24,0 0.61,-1.01 0.36,-0.36 0.5,-0.13 2.75,0 0.56,0.17 0.37,0.46 0.35,0.87 6.23,0 0.43,0.09 0.33,0.26 0.2,0.37 0.03,0.43 Z" fill-rule="evenodd" fill="#000000" />
</svg>