<svg xmlns="http://www.w3.org/2000/svg" viewBox="0 0 24 24">
  <path id="forceFieldPull1" d="M 16.59,18.55 l 1.15,1.64 -1.33,0.78 -1.42,0.57 -1.49,0.35 -1.53,0.11 -1.53,-0.12 -1.49,-0.36 -1.41,-0.57 -1.32,-0.79 1.15,-1.63 1.06,0.63 1.13,0.46 1.19,0.28 1.23,0.1 1.22,-0.09 1.19,-0.28 1.14,-0.45 1.06,-0.63 Z M 18.55,7.41 l 1.64,-1.15 0.78,1.33 0.57,1.42 0.35,1.49 0.11,1.53 -0.12,1.53 -0.36,1.49 -0.57,1.41 -0.79,1.32 -1.63,-1.15 0.63,-1.06 0.46,-1.13 0.28,-1.19 0.1,-1.23 -0.09,-1.22 -0.28,-1.19 -0.45,-1.14 -0.63,-1.06 Z M 4,11.98 l 0.09,1.22 0.28,1.19 0.45,1.14 0.63,1.06 -1.64,1.15 -0.78,-1.33 -0.57,-1.42 -0.35,-1.49 -0.11,-1.53 0.12,-1.53 0.36,-1.49 0.57,-1.41 0.79,-1.32 1.63,1.15 -0.63,1.06 -0.46,1.13 -0.28,1.19 -0.1,1.23 Z M 12.02,4 l -1.22,0.09 -1.19,0.28 -1.14,0.45 -1.06,0.63 -1.15,-1.64 1.33,-0.78 1.42,-0.57 1.49,-0.35 1.53,-0.11 1.53,0.12 1.49,0.36 1.41,0.57 1.32,0.79 -1.15,1.63 -1.06,-0.63 -1.13,-0.46 -1.19,-0.28 -1.23,-0.1 Z M 10,16.51 l 0,-0.65 0.15,-0.35 1.5,-1.5 0.35,-0.15 0.35,0.15 1.5,1.5 0.15,0.35 0,0.65 -0.05,0.23 -0.14,0.17 -0.2,0.09 -0.23,0 -1.26,-0.31 -0.24,0 -1.26,0.31 -0.23,0 -0.2,-0.09 -0.14,-0.17 -0.05,-0.23 Z M 7.49,10 l 0.65,0 0.35,0.15 1.5,1.5 0.15,0.35 -0.15,0.35 -1.5,1.5 -0.35,0.15 -0.65,0 -0.23,-0.05 -0.17,-0.14 -0.09,-0.2 0,-0.23 0.31,-1.26 0,-0.24 -0.31,-1.26 0,-0.23 0.09,-0.2 0.17,-0.14 0.23,-0.05 Z M 10,8.14 l 0,-0.66 0.05,-0.22 0.14,-0.17 0.2,-0.09 0.23,0 1.26,0.31 0.24,0 1.26,-0.31 0.23,0 0.2,0.09 0.14,0.17 0.05,0.22 0,0.66 -0.15,0.35 -1.5,1.5 -0.35,0.15 -0.35,-0.15 -1.5,-1.5 -0.15,-0.35 Z M 15.86,10 l 0.65,0 0.23,0.05 0.17,0.14 0.09,0.2 0,0.23 -0.31,1.26 0,0.24 0.31,1.26 0,0.23 -0.09,0.2 -0.17,0.14 -0.23,0.05 -0.65,0 -0.35,-0.15 -1.5,-1.5 -0.15,-0.35 0.15,-0.35 1.5,-1.5 0.35,-0.15 Z" fill-rule="evenodd" fill="#000000" />
</svg>