<svg xmlns="http://www.w3.org/2000/svg" viewBox="0 0 24 24">
  <path id="forceFieldPush3" d="M 8.17,12.74 l -1.74,0.93 -1.52,1.24 -1.41,-1.41 0.88,-0.79 0.94,-0.7 1.01,-0.61 1.07,-0.51 1.11,-0.39 1.14,-0.29 1.17,-0.17 1.18,-0.06 1.18,0.06 1.17,0.17 1.14,0.29 1.11,0.39 1.07,0.51 1.01,0.61 0.94,0.7 0.88,0.79 -1.41,1.41 -1.52,-1.24 -1.74,-0.93 -1.88,-0.57 -1.95,-0.19 -1.95,0.19 -1.88,0.57 Z M 9.79,16.66 l -1,0.54 -0.88,0.71 -1.41,-1.41 1.18,-0.97 1.34,-0.72 1.46,-0.44 1.52,-0.15 1.52,0.15 1.46,0.44 1.34,0.72 1.18,0.97 -1.41,1.41 -0.88,-0.71 -1,-0.54 -1.08,-0.33 -1.13,-0.11 -1.13,0.11 -1.08,0.33 Z M 12,7.17 l -3,0.83 0,-1.67 3,-3.33 3,3.33 0,1.67 -3,-0.83 Z M 6.09,9.27 l -1.89,1 -1.51,1.54 -0.42,-0.57 0.43,-2.97 2.97,0.43 0.42,0.57 Z M 18.42,8.7 l 2.97,-0.43 0.43,2.97 -0.42,0.57 -1.5,-1.54 -1.9,-1 0.42,-0.57 Z" fill-rule="evenodd" fill="#000000" />
</svg>