<svg xmlns="http://www.w3.org/2000/svg" viewBox="0 0 24 24">
  <path id="forceFieldPush2" d="M 15.44,16.92 l -1.02,0.57 -1.12,0.37 -1.32,0.14 -1.02,-0.09 -1.13,-0.32 -1.05,-0.53 -0.25,-0.16 -0.78,-0.67 -0.66,-0.79 -0.58,-1.02 -0.37,-1.12 -0.14,-1.32 0.09,-1.02 0.4,-1.34 0.37,-0.72 0.08,-0.12 0.16,-0.25 0.67,-0.78 0.79,-0.66 1.02,-0.58 1.12,-0.37 1.17,-0.14 1.17,0.09 1.13,0.32 1.05,0.53 0.93,0.73 0.76,0.89 0.58,1.02 0.37,1.12 0.14,1.32 0,0.07 -1.1,3.38 -0.67,0.78 -0.79,0.67 Z M 12.69,8.06 l -0.78,-0.06 -0.78,0.09 -0.74,0.25 -0.68,0.38 -0.53,0.44 -0.44,0.53 -0.11,0.16 -0.36,0.7 -0.21,0.76 -0.06,0.63 0,0.05 0.09,0.88 0.25,0.74 0.38,0.68 0.44,0.53 0.53,0.44 0.16,0.11 0.7,0.36 0.76,0.21 0.68,0.06 0.88,-0.09 0.74,-0.25 0.68,-0.38 0.53,-0.44 0.44,-0.53 0.11,-0.16 0.36,-0.7 0.21,-0.76 0.06,-0.68 -0.09,-0.88 -0.25,-0.74 -0.38,-0.68 -0.51,-0.6 -0.62,-0.48 -0.7,-0.36 -0.76,-0.21 Z M 14,12 l -0.16,0.78 -0.43,0.63 -0.63,0.43 -0.78,0.16 -0.78,-0.16 -0.63,-0.43 -0.43,-0.63 -0.16,-0.78 0.16,-0.78 0.43,-0.63 0.63,-0.43 0.78,-0.16 0.78,0.16 0.63,0.43 0.43,0.63 0.16,0.78 Z M 10,19.64 l 0.05,-0.22 0.14,-0.17 0.2,-0.1 0.23,0.01 1.26,0.31 0.24,0 1.26,-0.31 0.23,-0.01 0.2,0.1 0.14,0.17 0.05,0.22 0,0.15 -0.15,0.36 -1.5,1.5 -0.35,0.14 -0.35,-0.14 -1.5,-1.5 -0.15,-0.36 0,-0.15 Z M 4.36,10 l 0.22,0.05 0.17,0.14 0.1,0.2 -0.01,0.23 -0.31,1.26 0,0.24 0.31,1.26 0.01,0.23 -0.1,0.2 -0.17,0.14 -0.22,0.05 -0.15,0 -0.36,-0.15 -1.5,-1.5 -0.14,-0.35 0.14,-0.35 1.5,-1.5 0.36,-0.15 0.15,0 Z M 10,4.21 l 0.15,-0.36 1.5,-1.5 0.35,-0.14 0.35,0.14 1.5,1.5 0.15,0.36 0,0.15 -0.05,0.22 -0.14,0.17 -0.2,0.1 -0.23,-0.01 -1.26,-0.31 -0.24,0 -1.26,0.31 -0.23,0.01 -0.2,-0.1 -0.14,-0.17 -0.05,-0.22 0,-0.15 Z M 19.79,10 l 0.36,0.15 1.5,1.5 0.14,0.35 -0.14,0.35 -1.5,1.5 -0.36,0.15 -0.15,0 -0.22,-0.05 -0.17,-0.14 -0.1,-0.2 0.01,-0.23 0.31,-1.26 0,-0.24 -0.31,-1.26 -0.01,-0.23 0.1,-0.2 0.17,-0.14 0.22,-0.05 0.15,0 Z" fill-rule="evenodd" fill="#000000" />
</svg>