<svg xmlns="http://www.w3.org/2000/svg" viewBox="0 0 24 24">
  <path id="forceFieldPull3" d="M 12.06,4.44 l -2.1,0.16 -2.05,0.47 -1.94,0.79 -1.81,1.08 -1.16,-1.63 2.08,-1.24 2.23,-0.9 2.34,-0.55 2.42,-0.18 2.41,0.2 2.34,0.57 2.22,0.92 2.07,1.26 -1.17,1.62 -1.8,-1.1 -1.94,-0.8 -2.04,-0.49 -2.1,-0.18 Z M 8.44,9.4 l -1.61,0.86 -1.42,1.15 -1.41,-1.41 0.82,-0.75 0.89,-0.66 0.96,-0.57 1,-0.47 1.05,-0.38 1.07,-0.27 1.1,-0.16 1.11,-0.05 1.11,0.05 1.1,0.16 1.07,0.27 1.05,0.38 1,0.47 0.96,0.57 0.89,0.66 0.82,0.75 -1.41,1.41 -1.42,-1.15 -1.61,-0.86 -1.74,-0.53 -1.82,-0.18 -1.82,0.18 -1.74,0.53 Z M 9,11 l 3,0.83 3,-0.83 0,1 -3,3.33 -3,-3.33 0,-1 Z M 6,19.58 l 0.33,-2.13 -0.33,-2.12 0.71,0 2.12,2.12 -2.12,2.13 -0.71,0 Z M 17.12,19.58 l -2.12,-2.13 2.12,-2.12 0.71,0 -0.33,2.12 0.33,2.13 -0.71,0 Z" fill-rule="evenodd" fill="#000000" />
</svg>