<svg xmlns="http://www.w3.org/2000/svg" viewBox="0 0 24 24">
  <path id="forceFieldPull2" d="M 12.02,6 l -0.92,0.07 -0.9,0.21 -0.85,0.34 -0.79,0.47 -1.15,-1.64 1.06,-0.63 1.14,-0.45 1.19,-0.28 1.22,-0.09 1.23,0.1 1.19,0.28 1.13,0.46 1.06,0.63 -1.16,1.63 -0.79,-0.47 -0.85,-0.34 -0.89,-0.22 -0.92,-0.07 Z M 16.91,8.56 l 1.64,-1.15 0.63,1.06 0.45,1.14 0.28,1.19 0.09,1.22 -0.1,1.23 -0.28,1.19 -0.46,1.13 -0.63,1.06 -1.63,-1.16 0.47,-0.79 0.34,-0.85 0.22,-0.89 0.07,-0.92 -0.07,-0.92 -0.21,-0.9 -0.34,-0.85 -0.47,-0.79 Z M 15.44,16.91 l 1.15,1.64 -1.06,0.63 -1.14,0.45 -1.19,0.28 -1.22,0.09 -1.23,-0.1 -1.19,-0.28 -1.13,-0.46 -1.06,-0.63 1.16,-1.63 0.79,0.47 0.85,0.34 0.89,0.22 0.92,0.07 0.92,-0.07 0.9,-0.21 0.85,-0.34 0.79,-0.47 Z M 6,11.98 l 0.07,0.92 0.21,0.9 0.34,0.85 0.47,0.79 -1.64,1.15 -0.63,-1.06 -0.45,-1.14 -0.28,-1.19 -0.09,-1.22 0.1,-1.23 0.28,-1.19 0.46,-1.13 0.63,-1.06 1.63,1.16 -0.47,0.79 -0.34,0.85 -0.22,0.89 -0.07,0.92 Z M 10,7.79 l 0,-0.15 0.05,-0.22 0.14,-0.17 0.2,-0.1 0.23,0.01 1.26,0.31 0.24,0 1.26,-0.31 0.23,-0.01 0.2,0.1 0.14,0.17 0.05,0.22 0,0.15 -0.15,0.36 -1.5,1.5 -0.35,0.14 -0.35,-0.14 -1.5,-1.5 -0.15,-0.36 Z M 7.64,10 l 0.15,0 0.36,0.15 1.5,1.5 0.14,0.35 -0.14,0.35 -1.5,1.5 -0.36,0.15 -0.15,0 -0.22,-0.05 -0.17,-0.14 -0.1,-0.2 0.01,-0.23 0.31,-1.26 0,-0.24 -0.31,-1.26 -0.01,-0.23 0.1,-0.2 0.17,-0.14 0.22,-0.05 Z M 10,16.36 l 0,-0.15 0.15,-0.36 1.5,-1.5 0.35,-0.14 0.35,0.14 1.5,1.5 0.15,0.36 0,0.15 -0.05,0.22 -0.14,0.17 -0.2,0.1 -0.23,-0.01 -1.26,-0.31 -0.24,0 -1.26,0.31 -0.23,0.01 -0.2,-0.1 -0.14,-0.17 -0.05,-0.22 Z M 16.21,10 l 0.15,0 0.22,0.05 0.17,0.14 0.1,0.2 -0.01,0.23 -0.31,1.26 0,0.24 0.31,1.26 0.01,0.23 -0.1,0.2 -0.17,0.14 -0.22,0.05 -0.15,0 -0.36,-0.15 -1.5,-1.5 -0.14,-0.35 0.14,-0.35 1.5,-1.5 0.36,-0.15 Z M 13,12 l -0.08,0.39 -0.21,0.32 -0.32,0.21 -0.39,0.08 -0.39,-0.08 -0.32,-0.21 -0.21,-0.32 -0.08,-0.39 0.08,-0.39 0.21,-0.32 0.32,-0.21 0.39,-0.08 0.39,0.08 0.32,0.21 0.21,0.32 0.08,0.39 Z" fill-rule="evenodd" fill="#000000" />
</svg>