<svg xmlns="http://www.w3.org/2000/svg" viewBox="0 0 24 24">
  <path id="forklift" d="M 9,13 l 2.76,-7.35 0.36,-0.47 0.57,-0.18 4.46,0 0.35,0.06 0.3,0.18 0.22,0.26 0.12,0.34 0.86,5.16 0.88,0 0.23,0.05 1.34,0.67 0.4,0.37 0.15,0.53 0,1.1 -0.06,0.33 -0.15,0.28 -0.24,0.23 -0.31,0.13 -1.24,0.31 0,0.05 0.79,0.31 0.64,0.55 0.42,0.73 0.15,0.86 -0.05,0.5 -0.15,0.47 -0.53,0.8 -0.8,0.53 -0.47,0.15 -0.5,0.05 -0.5,-0.05 -0.47,-0.15 -0.8,-0.53 -0.53,-0.8 -0.15,-0.47 -0.05,-0.5 0.05,-0.5 -3.05,0 -0.06,0.6 -0.18,0.57 -0.27,0.51 -0.37,0.44 -0.44,0.37 -0.51,0.27 -0.57,0.18 -0.6,0.06 -0.99,-0.17 -0.85,-0.46 -0.65,-0.7 -0.4,-0.88 -0.11,0.21 0,1 -6,0 0,-1.5 4,0 0,-14.5 2,0 0,10 1,0 Z M 16.54,6.5 l -3.19,0 -0.29,0.09 -0.18,0.24 -2.21,6.19 0.05,0.33 0.29,0.15 0.05,0 0.68,0.07 0.65,0.2 0.6,0.32 0.53,0.43 0.17,0.1 0.18,-0.01 0.16,-0.1 0.08,-0.18 0.32,-1.91 0.17,-0.3 0.32,-0.12 2.03,0 0.37,-0.16 0.13,-0.39 -0.41,-4.5 -0.16,-0.32 -0.34,-0.13 Z M 11,18.5 l 0.58,-0.12 0.48,-0.32 0.32,-0.48 0.12,-0.58 -0.12,-0.58 -0.32,-0.48 -0.48,-0.32 -0.58,-0.12 -0.58,0.12 -0.48,0.32 -0.32,0.48 -0.12,0.58 0.12,0.58 0.32,0.48 0.48,0.32 0.58,0.12 Z M 19.5,18.5 l 0.39,-0.08 0.32,-0.21 0.21,-0.32 0.08,-0.39 -0.08,-0.39 -0.21,-0.32 -0.32,-0.21 -0.39,-0.08 -0.39,0.08 -0.32,0.21 -0.21,0.32 -0.08,0.39 0.08,0.39 0.21,0.32 0.32,0.21 0.39,0.08 Z" fill-rule="evenodd" fill="#000000" />
</svg>