<svg xmlns="http://www.w3.org/2000/svg" viewBox="0 0 24 24">
  <path id="FPS" d="M 3.27,3.5 l 17.71,0 0.69,0.14 0.56,0.38 0.38,0.56 0.14,0.69 0,1.57 -0.12,0.31 -0.29,0.22 -0.36,0.1 -0.36,-0.06 -0.82,-0.26 -0.93,-0.09 -0.95,0.08 -0.85,0.25 -0.71,0.38 -0.54,0.51 -0.32,0.62 -0.11,0.71 0.11,0.71 0.33,0.64 0.55,0.55 0.77,0.48 0.62,0.27 0.77,0.28 0.73,0.28 0.46,0.27 0.26,0.32 0.09,0.43 -0.08,0.38 -0.24,0.28 -0.37,0.17 -0.49,0.06 -0.73,-0.08 -0.49,-0.26 -0.12,-0.13 -0.54,-0.64 -0.33,-0.22 -0.39,-0.09 -1.19,0 0.12,0.85 0.33,0.74 0.57,0.61 0.78,0.47 0.94,0.3 1.05,0.09 0.93,-0.06 0.79,-0.21 0.62,-0.31 0.33,-0.02 0.13,0.09 0.05,0.16 0,2.71 -0.14,0.69 -0.38,0.56 -0.56,0.38 -0.69,0.14 -17.71,0 -0.69,-0.14 -0.56,-0.38 -0.38,-0.56 -0.14,-0.69 0,-1.98 0.15,-0.35 0.35,-0.15 1.31,0 0,-3.61 2.52,0 0.39,-0.08 0.32,-0.21 0.21,-0.32 0.08,-0.39 0,-0.43 -0.07,-0.18 -0.18,-0.07 -3.27,0 0,-2.09 2.88,0 0.39,-0.08 0.31,-0.21 0.22,-0.32 0.08,-0.39 0,-0.43 -0.08,-0.18 -0.17,-0.07 -4.94,0 -0.35,-0.15 -0.15,-0.35 0,-1.42 0.14,-0.69 0.38,-0.56 0.56,-0.38 0.69,-0.14 Z M 10.28,13.17 l 1.39,0 0.79,-0.04 0.69,-0.15 0.61,-0.25 0.52,-0.35 0.41,-0.43 0.3,-0.49 0.18,-0.57 0.06,-0.63 -0.11,-0.85 -0.33,-0.75 -0.53,-0.63 -0.71,-0.46 -0.86,-0.29 -0.98,-0.09 -3.37,0 -0.17,0.07 -0.08,0.18 0,8.81 2.19,0 0,-3.08 Z M 22.75,10.03 l 0,1.54 -0.05,0.16 -0.14,0.09 -0.33,-0.03 -0.44,-0.3 -0.69,-0.33 -0.85,-0.31 -0.8,-0.3 -0.52,-0.29 -0.28,-0.3 -0.09,-0.33 0.08,-0.37 0.26,-0.29 0.4,-0.19 0.52,-0.07 0.52,0.08 0.4,0.23 0.6,0.56 0.33,0.21 0.37,0.09 0.56,0 0.11,0.04 0.04,0.11 Z M 11.71,11.49 l -1.43,0 0,-2.62 1.46,0 0.53,0.1 0.4,0.29 0.26,0.44 0.08,0.57 -0.08,0.52 -0.25,0.38 -0.41,0.24 -0.56,0.08 Z" fill-rule="evenodd" fill="#000000" />
</svg>