<svg xmlns="http://www.w3.org/2000/svg" viewBox="0 0 24 24">
  <path id="fragile" d="M 17.52,7.34 l -0.04,-0.47 -0.09,-0.71 -0.39,-3.16 -5.87,0 0.37,3 -1,1.5 1.5,2.5 -0.5,0.5 -2.5,-2.5 0.5,-2 -1.12,-3 -1.38,0 -0.39,3.16 -0.09,0.71 -0.04,0.47 0.03,0.79 0.13,0.78 0.23,0.75 0.32,0.7 0.41,0.66 0.49,0.61 0.58,0.53 0.64,0.47 0.41,0.23 0.64,0.32 0.16,0.08 0.33,0.33 0.15,0.45 0,0.17 0,2.36 -0.19,0.81 -0.4,0.53 -0.55,0.35 -1.33,0.53 -0.38,0.31 -0.15,0.48 0.12,0.3 0.3,0.12 7.16,0 0.3,-0.12 0.12,-0.3 -0.15,-0.48 -0.38,-0.31 -1.33,-0.53 -0.55,-0.35 -0.4,-0.53 -0.19,-0.81 0,-2.36 0,-0.17 0.15,-0.45 0.33,-0.33 0.16,-0.08 0.64,-0.32 0.41,-0.23 0.64,-0.47 0.58,-0.53 0.49,-0.61 0.41,-0.66 0.32,-0.7 0.23,-0.75 0.13,-0.78 Z" fill-rule="evenodd" fill="#000000" />
</svg>