<svg xmlns="http://www.w3.org/2000/svg" viewBox="0 0 24 24">
  <path id="frontAxleMidpoint" d="M 16,4 l 0,2 -0.08,0.39 -0.21,0.32 -0.32,0.21 -0.39,0.08 -2,0 0,1.13 0.62,0.21 0.58,0.32 0.51,0.4 0.44,0.47 0.36,0.54 0.26,0.6 0.17,0.65 0.06,0.68 -0.06,0.68 -0.17,0.65 -0.26,0.6 -0.36,0.54 -0.44,0.47 -0.51,0.4 -0.58,0.32 -0.62,0.21 0,1.13 2,0 0.39,0.08 0.32,0.21 0.21,0.32 0.08,0.39 0,2 -0.08,0.39 -0.21,0.32 -0.32,0.21 -0.39,0.08 -6,0 -0.39,-0.08 -0.32,-0.21 -0.21,-0.32 -0.08,-0.39 0,-2 0.08,-0.39 0.21,-0.32 0.32,-0.21 0.39,-0.08 2,0 0,-1.13 -0.99,-0.4 -0.84,-0.64 -0.64,-0.84 -0.4,-0.99 -2.13,0 0,2 -3,2 0,-10 3,2 0,2 2.13,0 0.4,-0.99 0.64,-0.84 0.84,-0.64 0.99,-0.4 0,-1.13 -2,0 -0.39,-0.08 -0.32,-0.21 -0.21,-0.32 -0.08,-0.39 0,-2 0.08,-0.39 0.21,-0.32 0.32,-0.21 0.39,-0.08 6,0 0.39,0.08 0.32,0.21 0.21,0.32 0.08,0.39 Z M 9.5,12 l 0.05,0.5 0.15,0.47 0.53,0.8 0.8,0.53 0.47,0.15 0.5,0.05 0.5,-0.05 0.47,-0.15 0.8,-0.53 0.53,-0.8 0.15,-0.47 0.05,-0.5 -0.05,-0.5 -0.15,-0.47 -0.53,-0.8 -0.8,-0.53 -0.47,-0.15 -0.5,-0.05 -0.5,0.05 -0.47,0.15 -0.8,0.53 -0.53,0.8 -0.15,0.47 -0.05,0.5 Z M 18,16 l 1,-4 -1,-4 0.97,0 3.03,4 -3.03,4 -0.97,0 Z" fill-rule="evenodd" fill="#000000" />
</svg>