<svg xmlns="http://www.w3.org/2000/svg" viewBox="0 0 24 24">
  <path id="frontBumperMidpoint" d="M 12,3 l 0.39,0.08 0.32,0.21 0.21,0.32 0.08,0.39 0,2 -0.08,0.39 -0.21,0.32 -0.32,0.21 -0.39,0.08 -2,0 0,1.5 2.5,0 0,7 -2.5,0 0,1.5 2,0 0.39,0.08 0.32,0.21 0.21,0.32 0.08,0.39 0,2 -0.08,0.39 -0.21,0.32 -0.32,0.21 -0.39,0.08 -6,0 -0.39,-0.08 -0.32,-0.21 -0.21,-0.32 -0.08,-0.39 0,-2 0.08,-0.39 0.21,-0.32 0.32,-0.21 0.39,-0.08 2,0 0,-1.5 -1.5,0 -1.5,0.5 -1,1 -1,0 0,-10 1,0 1,1 1.5,0.5 1.5,0 0,-1.5 -2,0 -0.39,-0.08 -0.32,-0.21 -0.21,-0.32 -0.08,-0.39 0,-2 0.08,-0.39 0.21,-0.32 0.32,-0.21 0.39,-0.08 6,0 Z M 15,4 l 1,0 2,1 1,4 0,0.17 0.8,0.43 0.64,0.65 0.41,0.81 0.15,0.94 -0.15,0.94 -0.41,0.81 -0.64,0.65 -0.8,0.43 0,0.17 -1,4 -2,1 -1,0 0,-4.5 -1,0 0,-7 1,0 0,-4.5 Z M 19.5,12 l -0.12,-0.58 -0.32,-0.48 -0.48,-0.32 -0.58,-0.12 -0.58,0.12 -0.48,0.32 -0.32,0.48 -0.12,0.58 0.12,0.58 0.32,0.48 0.48,0.32 0.58,0.12 0.58,-0.12 0.48,-0.32 0.32,-0.48 0.12,-0.58 Z M 8,14 l 0.97,0 2.03,-2.02 -2.03,-1.98 -0.97,0 0.97,1.98 -0.97,2.02 Z" fill-rule="evenodd" fill="#000000" />
</svg>