<svg xmlns="http://www.w3.org/2000/svg" viewBox="0 0 24 24">
  <path id="fuelPump" d="M 5,11.5 l 0.15,-0.35 0.35,-0.15 7,0 0.35,0.15 0.15,0.35 0,0.5 0.56,0.05 0.52,0.15 0.93,0.54 0.68,0.83 0.22,0.5 0.14,0.54 0.41,2.71 0.17,0.51 0.32,0.43 0.44,0.3 0.52,0.15 0.7,-0.07 0.59,-0.34 0.4,-0.55 0.15,-0.69 0,-6.73 -2.75,-1.83 0.33,-1.64 -2.83,-2.36 0.5,-1 4.3,2.49 0.81,0.6 0.61,0.78 0.39,0.91 0.14,1 0,7.78 -0.07,0.69 -0.21,0.63 -0.34,0.56 -0.43,0.47 -0.52,0.38 -0.6,0.27 -0.65,0.14 -0.68,0 -1,-0.28 -0.84,-0.58 -0.61,-0.81 -0.32,-0.99 -0.42,-2.7 -0.18,-0.53 -0.35,-0.43 -0.47,-0.28 -0.56,-0.1 0,5.5 0.5,0 0.35,0.15 0.15,0.35 0,1 -0.15,0.35 -0.35,0.15 -9,0 -0.35,-0.15 -0.15,-0.35 0,-1 0.15,-0.35 0.35,-0.15 0.5,0 0,-7.5 Z M 6,3.5 l 6,0 0.39,0.08 0.32,0.21 0.21,0.32 0.08,0.39 0,4.5 -0.08,0.39 -0.21,0.32 -0.32,0.21 -0.39,0.08 -6,0 -0.39,-0.08 -0.32,-0.21 -0.21,-0.32 -0.08,-0.39 0,-4.5 0.08,-0.39 0.21,-0.32 0.32,-0.21 0.39,-0.08 Z M 7,5 l -0.39,0.08 -0.32,0.21 -0.21,0.32 -0.08,0.39 0,1 0.08,0.39 0.21,0.32 0.32,0.21 0.39,0.08 4,0 0.39,-0.08 0.32,-0.21 0.21,-0.32 0.08,-0.39 0,-1 -0.08,-0.39 -0.21,-0.32 -0.32,-0.21 -0.39,-0.08 -4,0 Z" fill-rule="evenodd" fill="#000000" />
</svg>