<svg xmlns="http://www.w3.org/2000/svg" viewBox="0 0 24 24">
  <path id="fuelPumpFilling" d="M 6,10.5 l 0.15,-0.35 0.35,-0.15 7,0 0.35,0.15 0.15,0.35 0,8.5 0.5,0 0.35,0.15 0.15,0.35 0,1 -0.15,0.35 -0.35,0.15 -9,0 -0.35,-0.15 -0.15,-0.35 0,-1 0.15,-0.35 0.35,-0.15 0.5,0 0,-8.5 Z M 7,2.5 l 6,0 0.39,0.08 0.32,0.21 0.21,0.32 0.08,0.39 0,4.5 -0.08,0.39 -0.21,0.32 -0.32,0.21 -0.39,0.08 -6,0 -0.39,-0.08 -0.32,-0.21 -0.21,-0.32 -0.08,-0.39 0,-4.5 0.08,-0.39 0.21,-0.32 0.32,-0.21 0.39,-0.08 Z M 8,4 l -0.39,0.08 -0.32,0.21 -0.21,0.32 -0.08,0.39 0,1 0.08,0.39 0.21,0.32 0.32,0.21 0.39,0.08 4,0 0.39,-0.08 0.32,-0.21 0.21,-0.32 0.08,-0.39 0,-1 -0.08,-0.39 -0.21,-0.32 -0.32,-0.21 -0.39,-0.08 -4,0 Z M 10,18 l 0.78,-0.16 0.63,-0.43 0.43,-0.63 0.16,-0.78 -0.1,-0.88 -0.34,-0.97 -0.61,-1.05 -0.95,-1.1 -0.95,1.1 -0.61,1.05 -0.34,0.97 -0.1,0.88 0.16,0.78 0.43,0.63 0.63,0.43 0.78,0.16 Z M 16,7.53 l 2.53,-2.53 2.53,2.53 -1.06,1.06 -1.47,-1.47 -1.47,1.47 -1.06,-1.06 Z M 16,15.53 l 2.53,-2.53 2.53,2.53 -1.06,1.06 -1.47,-1.47 -1.47,1.47 -1.06,-1.06 Z M 16,11.53 l 2.53,-2.53 2.53,2.53 -1.06,1.06 -1.47,-1.47 -1.47,1.47 -1.06,-1.06 Z" fill-rule="evenodd" fill="#000000" />
</svg>