<svg xmlns="http://www.w3.org/2000/svg" viewBox="0 0 24 24">
  <path id="FWD" d="M 15.5,8.19 l 0,-5.19 1.97,0 0.63,0.05 0.53,0.17 0.44,0.26 0.34,0.33 0.45,0.83 0.14,0.95 -0.14,0.9 -0.43,0.84 -0.35,0.35 -0.44,0.27 -0.54,0.18 -0.66,0.06 -1.94,0 Z M 8.99,3 l 1.2,0 0.51,2.61 0.03,0.15 0.02,0.17 0.02,-0.17 0.03,-0.15 0.61,-2.61 1.03,0 0.63,2.6 0.03,0.16 0.02,0.19 0.02,-0.17 0.03,-0.14 0.51,-2.64 1.21,0 -1.12,5.19 -1.11,0 -0.7,-2.83 -0.02,-0.1 -0.02,-0.16 -0.02,0.17 -0.02,0.09 -0.67,2.83 -1.11,0 -1.11,-5.19 Z M 5,11 l 1,0 -1,4 1,4 -1,0 -3,-4 3,-4 Z M 5,3 l 3.67,0 0,1.11 -2.5,0 0,0.85 1.56,0 0,1.11 -1.56,0 0,2.12 -1.17,0 0,-5.19 Z M 10.5,10 l 0.35,0.15 0.15,0.35 0,1 -0.15,0.35 -0.35,0.15 -0.5,0 0,1 -2,0 0,-1 -0.5,0 -0.35,-0.15 -0.15,-0.35 0,-1 0.15,-0.35 0.35,-0.15 3,0 Z M 11,18.5 l 0,1 -0.15,0.35 -0.35,0.15 -3,0 -0.35,-0.15 -0.15,-0.35 0,-1 0.15,-0.35 0.35,-0.15 0.5,0 0,-1 2,0 0,1 0.5,0 0.35,0.15 0.15,0.35 Z M 21,10.5 l 0,1 -0.15,0.35 -0.35,0.15 -3,0 -0.35,-0.15 -0.15,-0.35 0,-1 0.15,-0.35 0.35,-0.15 3,0 0.35,0.15 0.15,0.35 Z M 20.5,18 l 0.35,0.15 0.15,0.35 0,1 -0.15,0.35 -0.35,0.15 -3,0 -0.35,-0.15 -0.15,-0.35 0,-1 0.15,-0.35 0.35,-0.15 3,0 Z M 16.67,7.07 l 0.88,0 0.57,-0.13 0.38,-0.35 0.21,-0.48 0.08,-0.52 -0.08,-0.53 -0.2,-0.47 -0.36,-0.35 -0.52,-0.13 -0.96,0 0,2.96 Z M 10,15 l -0.08,0.39 -0.21,0.32 -0.32,0.21 -0.39,0.08 -0.39,-0.08 -0.32,-0.21 -0.21,-0.32 -0.08,-0.39 0.08,-0.39 0.21,-0.32 0.32,-0.21 0.39,-0.08 0.39,0.08 0.32,0.21 0.21,0.32 0.08,0.39 Z" fill-rule="evenodd" fill="#000000" />
</svg>