<svg xmlns="http://www.w3.org/2000/svg" viewBox="0 0 24 24">
  <path id="gamepad" d="M 7.4,5.32 l 1.61,-0.24 1.63,-0.08 2.72,0 1.63,0.08 1.61,0.24 0.78,0.16 1.15,0.39 0.99,0.67 0.79,0.9 0.54,1.1 0.2,0.95 0.66,5.92 0,0.51 -0.1,0.48 -0.2,0.44 -0.28,0.38 -0.35,0.33 -0.41,0.24 -0.47,0.16 -0.5,0.05 -0.63,-0.09 -0.57,-0.24 -0.49,-0.39 -0.37,-0.51 -1.72,-3.24 -0.37,-0.39 -0.52,-0.14 -5.46,0 -0.52,0.14 -0.37,0.39 -1.72,3.24 -0.37,0.51 -0.49,0.39 -0.57,0.24 -0.63,0.09 -0.5,-0.05 -0.47,-0.16 -0.41,-0.24 -0.35,-0.33 -0.28,-0.38 -0.2,-0.44 -0.1,-0.48 0,-0.51 0.66,-5.92 0.2,-0.95 0.54,-1.1 0.79,-0.9 0.99,-0.67 1.15,-0.39 0.78,-0.16 Z M 7,7 l -0.35,0.15 -0.15,0.35 0,1 -1,0 -0.35,0.15 -0.15,0.35 0,1 0.15,0.35 0.35,0.15 1,0 0,1 0.15,0.35 0.35,0.15 1,0 0.35,-0.15 0.15,-0.35 0,-1 1,0 0.35,-0.15 0.15,-0.35 0,-1 -0.15,-0.35 -0.35,-0.15 -1,0 0,-1 -0.15,-0.35 -0.35,-0.15 -1,0 Z M 15,12 l 0.39,-0.08 0.32,-0.21 0.21,-0.32 0.08,-0.39 -0.08,-0.39 -0.21,-0.32 -0.32,-0.21 -0.39,-0.08 -0.39,0.08 -0.32,0.21 -0.21,0.32 -0.08,0.39 0.08,0.39 0.21,0.32 0.32,0.21 0.39,0.08 Z M 18,8 l -0.08,-0.39 -0.21,-0.32 -0.32,-0.21 -0.39,-0.08 -0.39,0.08 -0.32,0.21 -0.21,0.32 -0.08,0.39 0.08,0.39 0.21,0.32 0.32,0.21 0.39,0.08 0.39,-0.08 0.32,-0.21 0.21,-0.32 0.08,-0.39 Z" fill-rule="evenodd" fill="#000000" />
</svg>