<svg xmlns="http://www.w3.org/2000/svg" viewBox="0 0 24 24">
  <path id="gamepadOld" d="M 3,9 l 0.08,-0.39 0.21,-0.32 0.32,-0.21 0.39,-0.08 16,0 0.39,0.08 0.32,0.21 0.21,0.32 0.08,0.39 0,8 -0.08,0.39 -0.21,0.32 -0.32,0.21 -0.39,0.08 -16,0 -0.39,-0.08 -0.32,-0.21 -0.21,-0.32 -0.08,-0.39 0,-8 Z M 9,10 l -2,0 0,2 -2,0 0,2 2,0 0,2 2,0 0,-2 2,0 0,-2 -2,0 0,-2 Z M 13,6 l 0,0.5 -2,0 0,-0.5 0.06,-0.6 0.18,-0.57 0.27,-0.51 0.37,-0.44 0.44,-0.37 0.51,-0.27 0.57,-0.18 0.6,-0.06 3,0 0.39,0.08 0.32,0.21 0.21,0.32 0.08,0.39 -0.08,0.39 -0.21,0.32 -0.32,0.21 -0.39,0.08 -3,0 -0.39,0.08 -0.32,0.21 -0.21,0.32 -0.08,0.39 Z M 17.5,13 l 0.58,-0.12 0.48,-0.32 0.32,-0.48 0.12,-0.58 -0.12,-0.58 -0.32,-0.48 -0.48,-0.32 -0.58,-0.12 -0.58,0.12 -0.48,0.32 -0.32,0.48 -0.12,0.58 0.12,0.58 0.32,0.48 0.48,0.32 0.58,0.12 Z M 16,14.5 l -0.12,-0.58 -0.32,-0.48 -0.48,-0.32 -0.58,-0.12 -0.58,0.12 -0.48,0.32 -0.32,0.48 -0.12,0.58 0.12,0.58 0.32,0.48 0.48,0.32 0.58,0.12 0.58,-0.12 0.48,-0.32 0.32,-0.48 0.12,-0.58 Z" fill-rule="evenodd" fill="#000000" />
</svg>