<svg xmlns="http://www.w3.org/2000/svg" viewBox="0 0 24 24">
  <path id="garageNumber5" d="M 5.86,8.88 l 6,-0.86 0.28,0 6,0.86 0.34,0.11 0.28,0.22 0.18,0.3 0.06,0.36 -0.05,0.2 -0.14,0.15 -0.19,0.08 -0.21,-0.02 -0.93,-0.21 -0.98,-0.07 -1.29,0.13 -1.2,0.37 -1.1,0.58 -0.95,0.77 -0.36,0.15 -3.1,0 -0.35,0.15 -0.15,0.35 0,6 -0.15,0.35 -0.35,0.15 -1.5,0 -0.39,-0.08 -0.32,-0.21 -0.21,-0.32 -0.08,-0.39 0,-8.13 0.06,-0.36 0.18,-0.3 0.28,-0.22 0.34,-0.11 Z M 12.21,5.06 l -0.33,0 -7.94,2.8 -0.34,0 -0.26,-0.22 -0.27,-0.48 -0.04,-0.4 0.27,-0.31 7.88,-3.5 0.87,-0.18 0.86,0.18 7.88,3.5 0.28,0.31 -0.04,0.4 -0.28,0.48 -0.26,0.22 -0.34,0 -7.94,-2.8 Z M 15.07,21.02 l -0.87,-0.31 -0.65,-0.39 0.97,-1.49 0.47,0.25 0.55,0.2 0.64,0.08 0.71,-0.14 0.48,-0.39 0.13,-0.31 0.05,-0.36 -0.11,-0.53 -0.3,-0.36 -0.51,-0.13 -0.39,0.04 -0.31,0.11 -0.53,0.45 -1.61,-0.87 0.16,-4.27 4.94,0 0,1.82 -3.19,0 -0.04,1.07 0.48,-0.1 0.48,-0.04 0.85,0.09 0.69,0.29 0.55,0.44 0.39,0.57 0.24,0.68 0.08,0.76 -0.11,0.86 -0.32,0.74 -0.5,0.58 -0.66,0.43 -0.78,0.27 -0.87,0.08 -1.11,-0.12 Z" fill-rule="evenodd" fill="#000000" />
</svg>