<svg xmlns="http://www.w3.org/2000/svg" viewBox="0 0 24 24">
  <path id="garage03" d="M 9.9,8.42 l 1.94,-1.3 0.48,-0.12 0.44,0.22 1.05,1.04 -2.94,2.93 2.94,2.94 2.93,-2.94 1.05,1.05 0.21,0.44 -0.12,0.48 -1.3,1.94 -0.71,0.83 -0.87,0.61 -1,0.39 -1.08,0.13 -2.05,0 -2.93,2.94 -2.94,-2.94 2.94,-2.93 0,-2.05 0.13,-1.08 0.39,-1 0.61,-0.87 0.83,-0.71 Z M 11.88,5.06 l -7.94,2.8 -0.34,0 -0.26,-0.22 -0.27,-0.48 -0.04,-0.4 0.27,-0.31 7.88,-3.5 0.87,-0.18 0.86,0.18 7.88,3.5 0.28,0.31 -0.04,0.4 -0.28,0.48 -0.26,0.22 -0.34,0 -7.94,-2.8 -0.33,0 Z" fill-rule="evenodd" fill="#000000" />
</svg>