<svg xmlns="http://www.w3.org/2000/svg" viewBox="0 0 24 24">
  <path id="garageNumber2" d="M 5.86,8.88 l 6,-0.86 0.28,0 6,0.86 0.34,0.11 0.28,0.22 0.18,0.3 0.06,0.36 -0.05,0.2 -0.14,0.15 -0.19,0.08 -0.21,-0.02 -0.93,-0.21 -0.98,-0.07 -1.29,0.13 -1.2,0.37 -1.1,0.58 -0.95,0.77 -0.36,0.15 -3.1,0 -0.35,0.15 -0.15,0.35 0,6 -0.15,0.35 -0.35,0.15 -1.5,0 -0.39,-0.08 -0.32,-0.21 -0.21,-0.32 -0.08,-0.39 0,-8.13 0.06,-0.36 0.18,-0.3 0.28,-0.22 0.34,-0.11 Z M 12.21,5.06 l -0.33,0 -7.94,2.8 -0.34,0 -0.26,-0.22 -0.27,-0.48 -0.04,-0.4 0.27,-0.31 7.88,-3.5 0.87,-0.18 0.86,0.18 7.88,3.5 0.28,0.31 -0.04,0.4 -0.28,0.48 -0.26,0.22 -0.34,0 -7.94,-2.8 Z M 13.77,19.27 l 0.26,-0.7 0.34,-0.61 0.91,-1 1.14,-0.77 0.5,-0.31 0.39,-0.38 0.15,-0.49 -0.05,-0.33 -0.18,-0.24 -0.27,-0.15 -0.34,-0.05 -0.37,0.06 -0.34,0.16 -0.29,0.26 -0.24,0.34 -1.68,-0.77 0.49,-0.77 0.69,-0.58 0.82,-0.36 0.88,-0.12 0.81,0.08 0.67,0.26 0.55,0.39 0.39,0.51 0.24,0.59 0.08,0.65 -0.05,0.66 -0.17,0.55 -0.26,0.44 -0.35,0.38 -0.89,0.63 -0.52,0.32 -0.4,0.27 -0.56,0.47 -0.35,0.53 3.63,0 0,1.81 -5.84,0 0.06,-0.92 0.15,-0.81 Z" fill-rule="evenodd" fill="#000000" />
</svg>