<svg xmlns="http://www.w3.org/2000/svg" viewBox="0 0 24 24">
  <path id="garageNumber9" d="M 5.86,8.88 l 6,-0.86 0.28,0 6,0.86 0.34,0.11 0.28,0.22 0.18,0.3 0.06,0.36 -0.05,0.2 -0.14,0.15 -0.19,0.08 -0.21,-0.02 -0.93,-0.21 -0.98,-0.07 -1.29,0.13 -1.2,0.37 -1.1,0.58 -0.95,0.77 -0.36,0.15 -3.1,0 -0.35,0.15 -0.15,0.35 0,6 -0.15,0.35 -0.35,0.15 -1.5,0 -0.39,-0.08 -0.32,-0.21 -0.21,-0.32 -0.08,-0.39 0,-8.13 0.06,-0.36 0.18,-0.3 0.28,-0.22 0.34,-0.11 Z M 14.59,19.4 l 1.13,-0.15 0.54,-0.22 0.49,-0.35 0.42,-0.48 0.3,-0.66 -0.56,0.26 -0.69,0.08 -0.8,-0.08 -0.71,-0.23 -0.59,-0.39 -0.45,-0.54 -0.28,-0.67 -0.09,-0.81 0.1,-0.78 0.29,-0.66 0.48,-0.54 0.63,-0.39 0.75,-0.25 0.87,-0.08 1,0.1 0.81,0.32 0.61,0.49 0.44,0.66 0.25,0.78 0.09,0.9 -0.14,1.54 -0.41,1.33 -0.68,1.07 -0.97,0.8 -0.59,0.29 -0.67,0.22 -0.75,0.13 -0.82,0.05 0,-1.74 Z M 12.21,5.06 l -0.33,0 -7.94,2.8 -0.34,0 -0.26,-0.22 -0.27,-0.48 -0.04,-0.4 0.27,-0.31 7.88,-3.5 0.87,-0.18 0.86,0.18 7.88,3.5 0.28,0.31 -0.04,0.4 -0.28,0.48 -0.26,0.22 -0.34,0 -7.94,-2.8 Z M 17,16.03 l 0.41,-0.32 0.15,-0.57 -0.15,-0.51 -0.4,-0.36 -0.59,-0.12 -0.71,0.12 -0.43,0.35 -0.15,0.51 0.15,0.57 0.44,0.33 0.68,0.11 0.6,-0.11 Z" fill-rule="evenodd" fill="#000000" />
</svg>