<svg xmlns="http://www.w3.org/2000/svg" viewBox="0 0 24 24">
  <path id="garage01" d="M 5,9.87 l 0.06,-0.36 0.18,-0.3 0.28,-0.22 0.34,-0.11 6,-0.86 0.28,0 6,0.86 0.34,0.11 0.28,0.22 0.18,0.3 0.06,0.36 0,9.13 1.15,1.15 0.14,0.26 -0.04,0.28 -0.17,0.22 -0.29,0.09 -15.58,0 -0.29,-0.09 -0.17,-0.22 -0.04,-0.28 0.14,-0.26 1.15,-1.15 0,-9.13 Z M 8.5,12 l -0.35,0.15 -0.15,0.35 0,6.5 8,0 0,-6.5 -0.15,-0.35 -0.35,-0.15 -7,0 Z M 11.88,5.06 l -7.94,2.8 -0.34,0 -0.26,-0.22 -0.27,-0.48 -0.04,-0.4 0.27,-0.31 7.88,-3.5 0.87,-0.18 0.86,0.18 7.88,3.5 0.28,0.31 -0.04,0.4 -0.28,0.48 -0.26,0.22 -0.34,0 -7.94,-2.8 -0.33,0 Z M 10,14.5 l 0.15,-0.35 0.35,-0.15 3,0 0.35,0.15 0.15,0.35 0,1 -0.15,0.35 -0.35,0.15 -3,0 -0.35,-0.15 -0.15,-0.35 0,-1 Z" fill-rule="evenodd" fill="#000000" />
</svg>