<svg xmlns="http://www.w3.org/2000/svg" viewBox="0 0 24 24">
  <path id="garageNumber6" d="M 5.86,8.88 l 6,-0.86 0.28,0 6,0.86 0.34,0.11 0.28,0.22 0.18,0.3 0.06,0.36 -0.05,0.2 -0.14,0.15 -0.19,0.08 -0.21,-0.02 -0.93,-0.21 -0.98,-0.07 -1.29,0.13 -1.2,0.37 -1.1,0.58 -0.95,0.77 -0.36,0.15 -3.1,0 -0.35,0.15 -0.15,0.35 0,6 -0.15,0.35 -0.35,0.15 -1.5,0 -0.39,-0.08 -0.32,-0.21 -0.21,-0.32 -0.08,-0.39 0,-8.13 0.06,-0.36 0.18,-0.3 0.28,-0.22 0.34,-0.11 Z M 15.28,20.9 l -0.54,-0.29 -0.45,-0.39 -0.35,-0.48 -0.26,-0.55 -0.15,-0.61 -0.05,-0.66 0.13,-1.28 0.38,-1.18 0.68,-1.06 0.98,-0.87 0.61,-0.36 0.71,-0.3 0.79,-0.24 0.88,-0.17 0,1.78 -1.13,0.28 -1.05,0.53 -0.42,0.39 -0.31,0.48 0.5,-0.2 0.63,-0.08 0.78,0.08 0.68,0.27 0.58,0.42 0.44,0.55 0.28,0.67 0.1,0.77 -0.1,0.76 -0.3,0.67 -0.47,0.55 -0.62,0.42 -0.74,0.26 -0.85,0.08 -0.72,-0.06 -0.64,-0.18 Z M 12.21,5.06 l -0.33,0 -7.94,2.8 -0.34,0 -0.26,-0.22 -0.27,-0.48 -0.04,-0.4 0.27,-0.31 7.88,-3.5 0.87,-0.18 0.86,0.18 7.88,3.5 0.28,0.31 -0.04,0.4 -0.28,0.48 -0.26,0.22 -0.34,0 -7.94,-2.8 Z M 17.26,19.24 l 0.43,-0.32 0.15,-0.52 -0.08,-0.4 -0.26,-0.31 -0.38,-0.2 -0.48,-0.07 -0.63,0.13 -0.43,0.35 -0.16,0.5 0.16,0.52 0.43,0.32 0.63,0.12 0.62,-0.12 Z" fill-rule="evenodd" fill="#000000" />
</svg>