<svg xmlns="http://www.w3.org/2000/svg" viewBox="0 0 24 24">
  <path id="garageNumber8" d="M 5.86,8.88 l 6,-0.86 0.28,0 6,0.86 0.34,0.11 0.28,0.22 0.18,0.3 0.06,0.36 -0.05,0.2 -0.14,0.15 -0.19,0.08 -0.21,-0.02 -0.93,-0.21 -0.98,-0.07 -1.29,0.13 -1.2,0.37 -1.1,0.58 -0.95,0.77 -0.36,0.15 -3.1,0 -0.35,0.15 -0.15,0.35 0,6 -0.15,0.35 -0.35,0.15 -1.5,0 -0.39,-0.08 -0.32,-0.21 -0.21,-0.32 -0.08,-0.39 0,-8.13 0.06,-0.36 0.18,-0.3 0.28,-0.22 0.34,-0.11 Z M 14.83,20.81 l -0.62,-0.41 -0.45,-0.54 -0.28,-0.67 -0.09,-0.78 0.09,-0.65 0.27,-0.56 0.44,-0.45 0.58,-0.35 -0.48,-0.34 -0.42,-0.57 -0.13,-0.37 -0.04,-0.43 0.08,-0.63 0.24,-0.54 0.41,-0.45 0.55,-0.33 0.69,-0.21 0.83,-0.07 0.82,0.07 0.69,0.21 0.56,0.33 0.4,0.45 0.25,0.54 0.08,0.63 -0.04,0.42 -0.14,0.36 -0.42,0.57 -0.48,0.34 0.57,0.34 0.45,0.48 0.29,0.57 0.1,0.64 -0.09,0.78 -0.28,0.67 -0.46,0.54 -0.62,0.41 -0.77,0.25 -0.91,0.08 -0.91,-0.08 -0.76,-0.25 Z M 12.21,5.06 l -0.33,0 -7.94,2.8 -0.34,0 -0.26,-0.22 -0.27,-0.48 -0.04,-0.4 0.27,-0.31 7.88,-3.5 0.87,-0.18 0.86,0.18 7.88,3.5 0.28,0.31 -0.04,0.4 -0.28,0.48 -0.26,0.22 -0.34,0 -7.94,-2.8 Z M 17.14,19.34 l 0.45,-0.39 0.17,-0.55 -0.17,-0.58 -0.45,-0.37 -0.64,-0.12 -0.66,0.12 -0.44,0.37 -0.15,0.58 0.15,0.55 0.44,0.39 0.66,0.14 0.64,-0.14 Z M 17.18,15.4 l 0.2,-0.25 0.06,-0.32 -0.06,-0.29 -0.2,-0.24 -0.3,-0.17 -0.38,-0.05 -0.41,0.05 -0.29,0.17 -0.18,0.24 -0.06,0.29 0.06,0.32 0.18,0.25 0.29,0.17 0.41,0.05 0.38,-0.05 0.3,-0.17 Z" fill-rule="evenodd" fill="#000000" />
</svg>