<svg xmlns="http://www.w3.org/2000/svg" viewBox="0 0 24 24">
  <path id="garageNumber3" d="M 5.86,8.88 l 6,-0.86 0.28,0 6,0.86 0.34,0.11 0.28,0.22 0.18,0.3 0.06,0.36 -0.05,0.2 -0.14,0.15 -0.19,0.08 -0.21,-0.02 -0.93,-0.21 -0.98,-0.07 -1.29,0.13 -1.2,0.37 -1.1,0.58 -0.95,0.77 -0.36,0.15 -3.1,0 -0.35,0.15 -0.15,0.35 0,6 -0.15,0.35 -0.35,0.15 -1.5,0 -0.39,-0.08 -0.32,-0.21 -0.21,-0.32 -0.08,-0.39 0,-8.13 0.06,-0.36 0.18,-0.3 0.28,-0.22 0.34,-0.11 Z M 12.21,5.06 l -0.33,0 -7.94,2.8 -0.34,0 -0.26,-0.22 -0.27,-0.48 -0.04,-0.4 0.27,-0.31 7.88,-3.5 0.87,-0.18 0.86,0.18 7.88,3.5 0.28,0.31 -0.04,0.4 -0.28,0.48 -0.26,0.22 -0.34,0 -7.94,-2.8 Z M 14.63,20.62 l -0.7,-0.63 -0.48,-0.84 1.68,-0.68 0.29,0.39 0.32,0.27 0.36,0.17 0.4,0.06 0.41,-0.06 0.32,-0.17 0.2,-0.28 0.07,-0.36 -0.08,-0.31 -0.22,-0.25 -0.34,-0.16 -0.42,-0.06 -0.95,0 0,-1.81 0.95,0 0.34,-0.06 0.24,-0.17 0.16,-0.27 0.05,-0.36 -0.05,-0.32 -0.17,-0.25 -0.26,-0.17 -0.33,-0.06 -0.57,0.17 -0.45,0.47 -1.69,-0.66 0.5,-0.75 0.64,-0.55 0.75,-0.35 0.84,-0.11 0.74,0.07 0.65,0.23 0.53,0.36 0.4,0.49 0.25,0.59 0.08,0.68 -0.06,0.55 -0.19,0.51 -0.3,0.44 -0.42,0.36 0.5,0.31 0.4,0.47 0.25,0.59 0.09,0.67 -0.09,0.65 -0.28,0.57 -0.43,0.48 -0.58,0.36 -0.69,0.23 -0.79,0.07 -1,-0.13 -0.87,-0.39 Z" fill-rule="evenodd" fill="#000000" />
</svg>