<svg xmlns="http://www.w3.org/2000/svg" viewBox="0 0 24 24">
  <path id="gaugeEmpty" d="M 10.24,16 l 3.52,0 0.45,0.11 3.18,1.59 0.28,0.19 0.17,0.25 0.1,0.58 -0.25,0.54 -0.23,0.19 -0.32,0.12 -2.04,0.41 -0.2,0.02 -5.8,0 -0.2,-0.02 -2.04,-0.41 -0.32,-0.12 -0.23,-0.19 -0.25,-0.54 0.1,-0.58 0.17,-0.25 0.28,-0.19 3.18,-1.59 0.45,-0.11 Z M 7.8,6.79 l 0.05,-0.24 0.16,-0.16 0.22,-0.06 0.23,0.07 0.38,0.36 3.52,4.57 0.78,0.32 0.33,0.28 0.26,0.36 0.26,0.76 -0.06,0.76 -0.33,0.69 -0.6,0.53 -0.75,0.25 -0.77,-0.05 -0.69,-0.34 -0.52,-0.6 -0.18,-0.4 -0.08,-0.43 0.11,-0.84 -2.2,-5.33 -0.12,-0.5 Z M 12,4.79 l -1.66,0.17 -1.59,0.48 -1.47,0.79 -1.29,1.05 -1.06,-1.06 1.51,-1.24 1.73,-0.92 1.88,-0.57 1.95,-0.2 1.95,0.2 1.88,0.57 1.73,0.92 1.51,1.24 -1.06,1.06 -1.29,-1.05 -1.47,-0.79 -1.59,-0.48 -1.66,-0.17 Z M 3.52,12.29 l 0,-4.2 3.06,0 0,0.9 -2.12,0 0,0.69 1.17,0 0,0.9 -1.17,0 0,0.81 2.24,0 0,0.9 -3.18,0 Z M 18.69,8.09 l 2.97,0 0,0.9 -2.02,0 0,0.69 1.26,0 0,0.9 -1.26,0 0,1.71 -0.95,0 0,-4.2 Z" fill-rule="evenodd" fill="#000000" />
</svg>