<svg xmlns="http://www.w3.org/2000/svg" viewBox="0 0 48 48">
  <path id="gearTuningOutline" d="M 24.8,5 l 2.4,0.17 0.76,0.11 0.5,4.24 1.32,0.47 1.25,0.6 3.36,-2.65 0.61,0.46 1.82,1.58 1.58,1.82 0.46,0.61 -2.65,3.36 0.6,1.25 0.47,1.32 4.24,0.5 0.11,0.76 0.17,2.4 -0.17,2.4 -0.11,0.76 -4.24,0.51 -0.47,1.31 -0.6,1.25 2.65,3.36 -0.46,0.61 -1.58,1.82 -1.82,1.58 -0.61,0.46 -3.36,-2.65 -1.35,0.64 -0.76,-1.85 1.67,-0.84 0.59,-0.37 3.22,2.54 1.01,-0.92 0.91,-1.01 -2.53,-3.22 0.37,-0.59 0.8,-1.57 0.55,-1.7 0.16,-0.68 4.07,-0.48 0.06,-1.36 -0.06,-1.36 -4.07,-0.48 -0.16,-0.68 -0.55,-1.7 -0.8,-1.57 -0.37,-0.59 2.53,-3.22 -0.91,-1.01 -1.01,-0.92 -3.22,2.54 -0.59,-0.37 -1.57,-0.8 -1.7,-0.55 -0.68,-0.16 -0.48,-4.07 -1.36,-0.06 -1.36,0.06 -0.48,4.07 -0.68,0.16 -1.7,0.55 -1.57,0.8 -0.59,0.37 -3.22,-2.54 -1.01,0.92 -0.92,1.01 2.11,2.67 -1.57,1.23 -3.07,-3.89 0.46,-0.61 1.58,-1.82 1.82,-1.58 0.61,-0.46 3.36,2.65 1.25,-0.6 1.31,-0.47 0.51,-4.24 0.76,-0.11 2.4,-0.17 Z M 24,30 l 0,11 -2,0 0,-11 -1,0 0,-6 4,0 0,6 -1,0 Z M 7,34 l 0,-6 4,0 0,6 -1,0 0,7 -2,0 0,-7 -1,0 Z M 14,39 l 0,-6 4,0 0,6 -1,0 0,2 -2,0 0,-2 -1,0 Z M 17,20 l 0,11 -2,0 0,-11 2,0 Z M 24.8,18 l 0,-2 1.21,0.12 1.13,0.35 1.01,0.55 0.89,0.74 0.73,0.89 0.56,1.01 0.35,1.13 0.12,1.21 -2,0 -0.08,-0.81 -0.23,-0.75 -0.37,-0.68 -0.49,-0.59 -0.59,-0.49 -0.68,-0.37 -0.75,-0.23 -0.81,-0.08 Z M 10,20 l 0,6 -2,0 0,-6 2,0 Z M 24,20 l 0,2 -2,0 0,-2 2,0 Z" fill-rule="evenodd" fill="#000000" />
</svg>