<svg xmlns="http://www.w3.org/2000/svg" viewBox="0 0 48 48">
  <path id="giftBoxOutline" d="M 7,15 l 34,0 0,10 -3,0 0,17 -28,0 0,-17 -3,0 0,-10 Z M 36,25 l -14,0 0,12 -2,0 0,-12 -8,0 0,15 14,0 0,-12 2,0 0,12 8,0 0,-15 Z M 39,23 l 0,-6 -30,0 0,6 30,0 Z M 34.46,6.12 l 0.59,-0.48 0.66,-0.35 0.71,-0.22 0.75,-0.07 0.77,0.08 0.72,0.22 0.65,0.35 0.57,0.47 0.47,0.57 0.35,0.65 0.22,0.72 0.08,0.77 0,0.17 -0.08,0.81 -0.23,0.75 -0.37,0.68 -0.49,0.59 -0.59,0.49 -0.68,0.37 -0.75,0.23 -0.81,0.08 -9.41,0 6.87,-6.88 Z M 10.83,5 l 0.75,0.07 0.71,0.22 0.66,0.35 0.59,0.48 6.87,6.88 -9.41,0 -0.81,-0.08 -0.75,-0.23 -0.68,-0.37 -0.59,-0.49 -0.49,-0.59 -0.37,-0.68 -0.23,-0.75 -0.08,-0.81 0,-0.17 0.08,-0.77 0.22,-0.72 0.35,-0.65 0.47,-0.57 0.57,-0.47 0.65,-0.35 0.72,-0.22 0.77,-0.08 Z M 20,10 l 0.06,-0.6 0.18,-0.57 0.27,-0.51 0.37,-0.44 0.44,-0.37 0.51,-0.27 0.57,-0.18 0.6,-0.06 2,0 0.6,0.06 0.57,0.18 0.51,0.27 0.44,0.37 0.37,0.44 0.27,0.51 0.18,0.57 0.06,0.6 -0.06,0.6 -0.18,0.57 -0.27,0.51 -0.37,0.44 -0.44,0.37 -0.51,0.27 -0.57,0.18 -0.6,0.06 -2,0 -0.6,-0.06 -0.57,-0.18 -0.51,-0.27 -0.44,-0.37 -0.37,-0.44 -0.27,-0.51 -0.18,-0.57 -0.06,-0.6 Z M 37.17,7 l -0.7,0.14 -0.59,0.4 -3.47,3.46 4.59,0 0.78,-0.16 0.63,-0.43 0.43,-0.63 0.16,-0.78 0,-0.17 -0.14,-0.71 -0.4,-0.58 -0.58,-0.4 -0.71,-0.14 Z M 12.12,7.54 l -0.59,-0.4 -0.7,-0.14 -0.71,0.14 -0.58,0.4 -0.4,0.58 -0.14,0.71 0,0.17 0.16,0.78 0.43,0.63 0.63,0.43 0.78,0.16 4.59,0 -3.47,-3.46 Z M 23,9 l -0.39,0.08 -0.32,0.21 -0.21,0.32 -0.08,0.39 0.08,0.39 0.21,0.32 0.32,0.21 0.39,0.08 2,0 0.39,-0.08 0.32,-0.21 0.21,-0.32 0.08,-0.39 -0.08,-0.39 -0.21,-0.32 -0.32,-0.21 -0.39,-0.08 -2,0 Z" fill-rule="evenodd" fill="#000000" />
</svg>