<svg xmlns="http://www.w3.org/2000/svg" viewBox="0 0 24 24">
  <path id="gizmosOutline" d="M 9.6,5.2 l 2,-2.67 0.18,-0.15 0.22,-0.05 0.22,0.05 0.18,0.15 2,2.67 0.1,0.26 -0.05,0.26 -0.18,0.2 -0.27,0.08 -1,0 0,2.16 3.75,1.88 0,4.7 1.71,0.99 0.5,-0.86 0.21,-0.2 0.26,-0.05 0.25,0.08 0.18,0.22 1.31,3.06 0.04,0.24 -0.07,0.21 -0.15,0.17 -0.22,0.08 -3.31,0.4 -0.28,-0.05 -0.2,-0.17 -0.08,-0.26 0.06,-0.27 0.5,-0.87 -1.72,-0.99 -3.74,1.87 -3.78,-1.89 -1.76,1.01 0.5,0.87 0.07,0.27 -0.08,0.26 -0.2,0.17 -0.28,0.05 -3.31,-0.4 -0.22,-0.08 -0.15,-0.17 -0.07,-0.21 0.04,-0.24 1.31,-3.06 0.18,-0.22 0.25,-0.08 0.26,0.05 0.2,0.2 0.5,0.86 1.79,-1.03 0,-4.66 3.75,-1.88 0,-2.16 -1,0 -0.27,-0.08 -0.18,-0.2 -0.05,-0.26 0.1,-0.26 Z M 8.75,11.71 l 0,3.33 2.5,1.25 0,-3.33 -2.5,-1.25 Z M 15.25,11.77 l -2.5,1.2 0,3.32 2.5,-1.25 0,-3.27 Z M 9.68,10.5 l 2.33,1.16 2.36,-1.14 -2.37,-1.18 -2.32,1.16 Z" fill-rule="evenodd" fill="#000000" />
</svg>