<svg xmlns="http://www.w3.org/2000/svg" viewBox="0 0 24 24">
  <path id="gizmosSolid" d="M 12,8.66 l 3.75,1.88 0,4.92 -3.75,1.88 -3.75,-1.88 0,-4.92 3.75,-1.88 Z M 11.6,2.53 l 0.18,-0.15 0.22,-0.05 0.22,0.05 0.18,0.15 2,2.67 0.1,0.26 -0.05,0.26 -0.18,0.2 -0.27,0.08 -1,0 0,2 -1,-0.5 -1,0.5 0,-2 -1,0 -0.27,-0.08 -0.18,-0.2 -0.05,-0.26 0.1,-0.26 2,-2.67 Z M 2.76,17.98 l 1.31,-3.06 0.18,-0.22 0.25,-0.08 0.26,0.05 0.2,0.2 0.5,0.86 1.7,-0.96 -0.03,1.29 0.8,0.52 -1.47,0.88 0.5,0.87 0.07,0.27 -0.08,0.26 -0.2,0.17 -0.28,0.05 -3.31,-0.4 -0.22,-0.08 -0.15,-0.17 -0.07,-0.21 0.04,-0.24 Z M 19.86,14.92 l 1.31,3.06 0.04,0.24 -0.07,0.21 -0.15,0.17 -0.22,0.08 -3.31,0.4 -0.28,-0.05 -0.2,-0.17 -0.08,-0.26 0.06,-0.27 0.5,-0.87 -1.46,-0.88 0.8,-0.52 -0.03,-1.29 1.69,0.96 0.5,-0.86 0.21,-0.2 0.26,-0.05 0.25,0.08 0.18,0.22 Z" fill-rule="evenodd" fill="#000000" />
</svg>