<svg xmlns="http://www.w3.org/2000/svg" viewBox="0 0 24 24">
  <path id="globeSimpleNotSign" d="M 10.86,4.08 l -0.59,0.72 -0.55,0.98 -0.48,1.23 -0.39,1.47 -0.16,0.87 0.76,0.06 0.29,0.08 0.22,0.18 0.15,0.25 0.04,0.29 -0.08,0.29 -0.18,0.23 -0.25,0.14 -0.29,0.04 -0.81,-0.06 -0.03,1.8 0.15,1.79 -0.16,1.56 0.03,0.66 -2.07,-0.58 -0.93,-0.38 -0.84,-0.45 0.52,0.98 0.65,0.9 0.67,0.7 0.74,0.62 0.81,0.52 0.86,0.42 0.33,0.22 0.22,0.32 0.07,0.38 -0.07,0.39 -0.22,0.33 -0.32,0.21 -0.38,0.08 -0.39,-0.08 -1.09,-0.53 -1.01,-0.65 -0.92,-0.77 -0.83,-0.88 -0.72,-0.97 -0.59,-1.05 -0.47,-1.11 -0.32,-1.16 -0.19,-1.19 -0.04,-1.21 0.11,-1.2 0.25,-1.18 0.39,-1.14 0.52,-1.08 0.65,-1.02 0.77,-0.93 0.88,-0.83 0.97,-0.72 1.04,-0.59 1.12,-0.47 1.16,-0.33 1.19,-0.18 1.2,-0.05 1.21,0.11 1.18,0.24 1.14,0.39 1.08,0.52 1.02,0.65 0.93,0.77 0.83,0.87 0.72,0.97 0.6,1.05 0.11,0.38 -0.06,0.38 -0.19,0.33 -0.31,0.25 -0.38,0.1 -0.38,-0.05 -0.34,-0.19 -0.24,-0.32 -0.48,-0.84 -0.57,-0.77 -0.67,-0.7 -0.74,-0.61 -1.25,-0.74 0.57,1.28 0.45,1.47 0.01,0.3 -0.1,0.27 -0.19,0.21 -0.27,0.13 -0.3,0.01 -0.27,-0.09 -0.21,-0.2 -0.13,-0.27 -0.39,-1.28 -0.46,-1.07 -0.51,-0.85 -0.52,-0.62 -1.14,-0.08 -1.14,0.08 Z M 16,22 l -1.21,-0.12 -1.13,-0.35 -1.01,-0.55 -0.89,-0.74 -0.74,-0.89 -0.55,-1.01 -0.35,-1.13 -0.12,-1.21 0.12,-1.21 0.35,-1.13 0.55,-1.01 0.74,-0.89 0.89,-0.74 1.01,-0.55 1.13,-0.35 1.21,-0.12 1.21,0.12 1.13,0.35 1.01,0.55 0.89,0.74 0.74,0.89 0.55,1.01 0.35,1.13 0.12,1.21 -0.12,1.21 -0.35,1.13 -0.55,1.01 -0.74,0.89 -0.89,0.74 -1.01,0.55 -1.13,0.35 -1.21,0.12 Z M 16,20 l 0.81,-0.08 0.75,-0.23 0.68,-0.37 0.59,-0.49 0.49,-0.59 0.37,-0.68 0.23,-0.75 0.08,-0.81 -0.14,-1.07 -0.41,-0.96 -5.48,5.48 0.96,0.41 1.07,0.14 Z M 12.55,18.03 l 5.48,-5.48 -0.96,-0.41 -1.07,-0.14 -0.81,0.08 -0.75,0.23 -0.68,0.37 -0.59,0.49 -0.49,0.59 -0.37,0.68 -0.23,0.75 -0.08,0.81 0.14,1.07 0.41,0.96 Z M 7.04,10.67 l -1.28,-0.22 -1.53,-0.37 -0.21,1.35 0.02,1.38 0.57,0.56 0.81,0.57 0.83,0.43 0.94,0.38 -0.18,-2.03 0.03,-2.05 Z M 7.38,8.18 l 0.49,-1.82 0.67,-1.57 -1.27,0.76 -1.11,0.99 -0.8,1 -0.63,1.12 1.33,0.32 1.14,0.2 0.18,-1 Z" fill-rule="evenodd" fill="#000000" />
</svg>