<svg xmlns="http://www.w3.org/2000/svg" viewBox="0 0 24 24">
  <path id="globe" d="M 2,12 l 0.05,-1.02 0.15,-1 0.25,-0.95 0.34,-0.92 0.92,-1.7 1.22,-1.48 1.48,-1.22 1.7,-0.92 0.92,-0.34 0.95,-0.25 1,-0.15 1.02,-0.05 1.02,0.05 1,0.15 0.95,0.25 0.92,0.34 1.7,0.92 1.48,1.22 1.22,1.48 0.92,1.7 0.34,0.92 0.25,0.95 0.15,1 0.05,1.02 -0.05,1.02 -0.15,1 -0.25,0.95 -0.34,0.92 -0.92,1.7 -1.22,1.48 -1.48,1.22 -1.7,0.92 -0.92,0.34 -0.95,0.25 -1,0.15 -1.02,0.05 -1.02,-0.05 -1,-0.15 -0.95,-0.25 -0.92,-0.34 -1.7,-0.92 -1.48,-1.22 -1.22,-1.48 -0.92,-1.7 -0.34,-0.92 -0.25,-0.95 -0.15,-1 -0.05,-1.02 Z M 11,9.99 l -1.48,-0.04 -1.37,-0.07 -0.15,2.12 0.02,0.79 1.43,0.13 1.55,0.07 0,-3 Z M 13,12.99 l 1.55,-0.07 1.43,-0.13 0.02,-0.79 -0.15,-2.12 -1.37,0.07 -1.48,0.04 0,3 Z M 14.75,17.64 l 0.56,-1.3 0.41,-1.51 -2.72,0.16 0,2.96 1.75,-0.31 Z M 11,17.95 l 0,-2.96 -2.72,-0.16 0.41,1.51 0.56,1.3 1.75,0.31 Z M 13,7.99 l 2.39,-0.09 -0.39,-1.04 -0.47,-0.9 -0.39,-0.58 -0.38,-0.46 -0.76,-0.62 0,3.69 Z M 11,4.3 l -0.76,0.62 -0.38,0.46 -0.39,0.58 -0.47,0.9 -0.39,1.04 2.39,0.09 0,-3.69 Z M 6.16,9.69 l -0.94,-0.14 -0.78,-0.17 -0.31,1.17 -0.13,1.24 0.17,0.1 0.68,0.28 1,0.27 0.16,0.03 -0.01,-0.47 0.16,-2.31 Z M 18,12 l -0.01,0.47 0.16,-0.03 1,-0.27 0.68,-0.28 0.17,-0.1 -0.13,-1.24 -0.31,-1.17 -0.78,0.17 -0.94,0.14 0.16,2.31 Z M 17.36,16.49 l 0.74,-0.52 0.62,-0.52 0.49,-0.48 0.37,-0.42 0.15,-0.47 -1.15,0.31 -0.78,0.16 -0.44,1.94 Z M 6.64,16.49 l -0.44,-1.94 -0.78,-0.16 -1.15,-0.31 0.15,0.47 0.37,0.42 0.49,0.48 0.62,0.52 0.74,0.52 Z M 7.5,5.38 l -1.17,0.98 -0.97,1.18 0.5,0.09 0.61,0.08 0.1,0.02 0.42,-1.23 0.51,-1.12 Z M 17.53,7.71 l 0.61,-0.08 0.5,-0.09 -0.97,-1.18 -1.17,-0.98 0.51,1.12 0.42,1.23 0.1,-0.02 Z" fill-rule="evenodd" fill="#000000" />
</svg>