<svg xmlns="http://www.w3.org/2000/svg" viewBox="0 0 24 24">
  <path id="globeSimplified" d="M 12,2 l 1.02,0.05 1,0.15 0.95,0.25 0.92,0.34 1.7,0.92 1.48,1.22 1.22,1.48 0.92,1.7 0.34,0.92 0.25,0.95 0.15,1 0.05,1.02 -0.05,1.02 -0.15,1 -0.25,0.95 -0.34,0.92 -0.92,1.7 -1.22,1.48 -1.48,1.22 -1.7,0.92 -0.92,0.34 -0.95,0.25 -1,0.15 -1.02,0.05 -1.02,-0.05 -1,-0.15 -0.95,-0.25 -0.92,-0.34 -1.7,-0.92 -1.48,-1.22 -1.22,-1.48 -0.92,-1.7 -0.34,-0.92 -0.25,-0.95 -0.15,-1 -0.05,-1.02 0.05,-1.02 0.15,-1 0.25,-0.95 0.34,-0.92 0.92,-1.7 1.22,-1.48 1.48,-1.22 1.7,-0.92 0.92,-0.34 0.95,-0.25 1,-0.15 1.02,-0.05 Z M 8.78,15.18 l 1.61,0.24 1.69,0.08 1.61,-0.09 1.53,-0.23 0.21,-1.53 0.07,-1.65 -0.04,-1.15 -1.98,0.12 -2.06,0.03 -2.88,-0.15 -0.04,1.15 0.07,1.65 0.21,1.53 Z M 8.69,9.35 l 2.75,0.15 1.97,-0.03 1.9,-0.12 -0.2,-1.06 -0.25,-0.99 -0.31,-0.9 -0.36,-0.8 -0.53,-0.9 -0.52,-0.62 -1.14,-0.08 -1.14,0.08 -0.52,0.62 -0.53,0.9 -0.36,0.8 -0.31,0.9 -0.25,0.99 -0.2,1.06 Z M 13.14,19.92 l 0.52,-0.62 0.53,-0.9 0.34,-0.77 0.3,-0.86 -1.35,0.17 -1.39,0.06 -1.48,-0.05 -1.44,-0.18 0.3,0.86 0.34,0.77 0.53,0.9 0.52,0.62 1.14,0.08 1.14,-0.08 Z M 7.04,10.67 l -0.81,-0.13 -1.07,-0.22 -0.93,-0.25 -0.17,0.95 -0.06,0.98 0.04,0.8 0.36,0.39 0.47,0.39 0.57,0.38 0.7,0.36 1.05,0.43 -0.14,-1.35 -0.05,-1.4 0.04,-1.33 Z M 16.96,10.67 l 0.04,1.33 -0.05,1.4 -0.14,1.35 1.16,-0.48 0.66,-0.36 0.54,-0.36 0.79,-0.75 0.04,-0.8 -0.06,-0.98 -0.17,-0.95 -1.3,0.34 -1.51,0.26 Z M 8.54,4.79 l -1.2,0.7 -1.04,0.9 -0.88,1.06 -0.69,1.21 0.8,0.21 0.96,0.19 0.71,0.12 0.23,-1.23 0.3,-1.16 0.37,-1.05 0.44,-0.95 Z M 15.46,4.79 l 0.44,0.95 0.37,1.05 0.3,1.16 0.23,1.23 1.36,-0.24 1.11,-0.28 -0.69,-1.21 -0.88,-1.06 -1.04,-0.9 -1.2,-0.7 Z M 16.49,16.42 l -0.46,1.49 -0.57,1.3 1.22,-0.72 1.06,-0.91 0.88,-1.09 0.69,-1.24 -0.68,0.37 -1.03,0.44 -1.11,0.36 Z M 8.54,19.21 l -0.57,-1.3 -0.46,-1.49 -1.04,-0.34 -0.97,-0.4 -0.81,-0.43 0.69,1.24 0.88,1.09 1.06,0.91 1.22,0.72 Z" fill-rule="evenodd" fill="#000000" />
</svg>