<svg xmlns="http://www.w3.org/2000/svg" viewBox="0 0 24 24">
  <path id="GPSMark" d="M 12,2 l 0.81,0.08 0.75,0.23 0.68,0.37 0.59,0.49 0.49,0.59 0.37,0.68 0.23,0.75 0.08,0.81 0,0.14 -0.07,0.75 -0.21,0.71 -0.34,0.67 -0.46,0.6 -2.92,3.13 -2.92,-3.13 -0.46,-0.6 -0.34,-0.67 -0.21,-0.71 -0.07,-0.75 0,-0.14 0.08,-0.81 0.23,-0.75 0.37,-0.68 0.49,-0.59 0.59,-0.49 0.68,-0.37 0.75,-0.23 0.81,-0.08 Z M 9,13 l 4,0 0.78,0.16 0.63,0.43 0.43,0.63 0.16,0.78 0,1.5 -0.16,0.78 -0.43,0.63 -0.63,0.43 -0.78,0.16 -2.5,0 0,3.5 -1.5,0 0,-9 Z M 4,13 l 2,0 0.78,0.16 0.63,0.43 0.43,0.63 0.16,0.78 0,0.5 -1.5,0 0,-0.25 -0.06,-0.29 -0.16,-0.24 -0.24,-0.16 -0.29,-0.06 -1.5,0 -0.29,0.06 -0.24,0.16 -0.16,0.24 -0.06,0.29 0,4.5 0.06,0.29 0.16,0.24 0.24,0.16 0.29,0.06 1.5,0 0.29,-0.06 0.24,-0.16 0.16,-0.24 0.06,-0.29 0,-1.25 -1.5,0 0,-1.5 3,0 0,3 -0.16,0.78 -0.43,0.63 -0.63,0.43 -0.78,0.16 -2,0 -0.78,-0.16 -0.63,-0.43 -0.43,-0.63 -0.16,-0.78 0,-5 0.16,-0.78 0.43,-0.63 0.63,-0.43 0.78,-0.16 Z M 18,13 l 2,0 0.78,0.16 0.63,0.43 0.43,0.63 0.16,0.78 0,0.5 -1.5,0 0,-0.25 -0.06,-0.29 -0.16,-0.24 -0.24,-0.16 -0.29,-0.06 -1.5,0 -0.29,0.06 -0.24,0.16 -0.16,0.24 -0.06,0.29 0,0.15 0.16,0.47 0.43,0.26 2.34,0.52 0.63,0.26 0.5,0.44 0.32,0.58 0.12,0.67 0,1.4 -0.16,0.78 -0.43,0.63 -0.63,0.43 -0.78,0.16 -2,0 -0.78,-0.16 -0.63,-0.43 -0.43,-0.63 -0.16,-0.78 0,-0.5 1.5,0 0,0.25 0.06,0.29 0.16,0.24 0.24,0.16 0.29,0.06 1.5,0 0.29,-0.06 0.24,-0.16 0.16,-0.24 0.06,-0.29 0,-0.65 -0.16,-0.47 -0.43,-0.26 -2.34,-0.52 -0.63,-0.26 -0.5,-0.44 -0.32,-0.58 -0.12,-0.67 0,-0.9 0.16,-0.78 0.43,-0.63 0.63,-0.43 0.78,-0.16 Z M 20,9 l 0.39,0.08 0.32,0.21 0.21,0.32 0.08,0.39 -0.08,0.39 -0.21,0.32 -0.32,0.21 -0.39,0.08 -4,0 -0.27,-0.08 -0.18,-0.2 -0.05,-0.26 0.1,-0.26 0.9,-1.2 3.5,0 Z M 4,9 l 3.5,0 0.9,1.2 0.1,0.26 -0.05,0.26 -0.18,0.2 -0.27,0.08 -4,0 -0.39,-0.08 -0.32,-0.21 -0.21,-0.32 -0.08,-0.39 0.08,-0.39 0.21,-0.32 0.32,-0.21 0.39,-0.08 Z M 10.5,14.5 l 0,2.5 2.25,0 0.29,-0.06 0.24,-0.16 0.16,-0.24 0.06,-0.29 0,-1 -0.06,-0.29 -0.16,-0.24 -0.24,-0.16 -0.29,-0.06 -2.25,0 Z M 12,7.5 l 0.58,-0.12 0.48,-0.32 0.32,-0.47 0.12,-0.59 -0.12,-0.59 -0.32,-0.47 -0.48,-0.32 -0.58,-0.12 -0.58,0.12 -0.48,0.32 -0.32,0.47 -0.12,0.59 0.12,0.59 0.32,0.47 0.48,0.32 0.58,0.12 Z" fill-rule="evenodd" fill="#000000" />
</svg>