<svg xmlns="http://www.w3.org/2000/svg" viewBox="0 0 24 24">
  <path id="GPSSolid" d="M 3.5,5 l 17,0 0.39,0.08 0.32,0.21 0.21,0.32 0.08,0.39 0,1.52 -0.05,0.15 -0.13,0.1 -0.33,-0.01 -0.47,-0.19 -0.52,-0.07 -2,0 -0.78,0.16 -0.63,0.43 -0.43,0.63 -0.16,0.78 0,0.4 0.12,0.67 0.32,0.58 0.5,0.44 0.63,0.26 2.34,0.52 0.43,0.26 0.16,0.47 0,0.15 -0.06,0.29 -0.16,0.24 -0.24,0.16 -0.29,0.06 -1.5,0 -0.29,-0.06 -0.24,-0.16 -0.16,-0.24 -0.06,-0.29 0,-0.25 -1.5,0 0,0.5 0.16,0.78 0.43,0.63 0.63,0.43 0.78,0.16 2,0 0.52,-0.07 0.47,-0.19 0.33,-0.01 0.13,0.1 0.05,0.15 0,2.52 -0.08,0.39 -0.21,0.32 -0.32,0.21 -0.39,0.08 -17,0 -0.39,-0.08 -0.32,-0.21 -0.21,-0.32 -0.08,-0.39 0,-2.85 0.09,-0.12 0.15,0.02 0.58,0.33 0.68,0.12 2,0 0.78,-0.16 0.63,-0.43 0.43,-0.63 0.16,-0.78 0,-2.5 -3.5,0 0,1.5 2,0 0,0.75 -0.06,0.29 -0.16,0.24 -0.24,0.16 -0.29,0.06 -1.5,0 -0.29,-0.06 -0.24,-0.16 -0.16,-0.24 -0.06,-0.29 0,-3.5 0.06,-0.29 0.16,-0.24 0.24,-0.16 0.29,-0.06 1.5,0 0.29,0.06 0.24,0.16 0.16,0.24 0.06,0.29 0,0.25 1.5,0 0,-0.5 -0.16,-0.78 -0.43,-0.63 -0.63,-0.43 -0.78,-0.16 -2,0 -0.68,0.12 -0.58,0.33 -0.15,0.02 -0.09,-0.12 0,-1.85 0.08,-0.39 0.21,-0.32 0.32,-0.21 0.39,-0.08 Z M 13,7.5 l -4,0 0,8 1.5,0 0,-3 2.5,0 0.78,-0.16 0.63,-0.43 0.43,-0.63 0.16,-0.78 0,-1 -0.16,-0.78 -0.43,-0.63 -0.63,-0.43 -0.78,-0.16 Z M 12.75,9 l 0.29,0.06 0.24,0.16 0.16,0.24 0.06,0.29 0,0.5 -0.06,0.29 -0.16,0.24 -0.24,0.16 -0.29,0.06 -2.25,0 0,-2 2.25,0 Z M 21.5,10.5 l 0,0.46 -0.08,0.12 -0.15,-0.02 -0.39,-0.25 -0.45,-0.16 -2.5,-0.55 -0.31,-0.2 -0.12,-0.35 0.16,-0.39 0.39,-0.16 1.7,0 0.29,0.06 0.24,0.16 0.16,0.24 0.06,0.29 0.07,0.18 0.18,0.07 0.25,0 0.35,0.15 0.15,0.35 Z" fill-rule="evenodd" fill="#000000" />
</svg>