<svg xmlns="http://www.w3.org/2000/svg" viewBox="0 0 24 24">
  <path id="gyroscopeMicrochip" d="M 6,4 l 12,0 0.39,0.08 0.32,0.21 0.21,0.32 0.08,0.39 2,0 0,2 -2,0 0,2 2,0 0,2 -2,0 0,2 2,0 0,2 -2,0 0,2 2,0 0,2 -2,0 -0.08,0.39 -0.21,0.32 -0.32,0.21 -0.39,0.08 -12,0 -0.39,-0.08 -0.32,-0.21 -0.21,-0.32 -0.08,-0.39 -2,0 0,-2 2,0 0,-2 -2,0 0,-2 2,0 0,-2 -2,0 0,-2 2,0 0,-2 -2,0 0,-2 2,0 0.08,-0.39 0.21,-0.32 0.32,-0.21 0.39,-0.08 Z M 9.73,8.47 l 0.3,0.04 0.27,-0.07 0.24,-0.17 0.15,-0.26 0.04,-0.29 -0.07,-0.28 -0.17,-0.23 -0.25,-0.16 -0.71,-0.2 -0.66,-0.1 -0.58,0.02 -0.51,0.13 -0.39,0.23 -0.34,0.36 -0.21,0.46 -0.09,0.52 0.02,0.62 0.13,0.67 0.25,0.72 0.35,0.76 0.45,0.77 -0.75,1.41 -0.4,1.31 -0.05,0.74 0.1,0.63 0.25,0.5 0.39,0.38 0.53,0.23 0.65,0.07 0.74,-0.07 0.83,-0.24 0.25,-0.15 0.17,-0.23 0.07,-0.28 -0.04,-0.29 -0.15,-0.26 -0.24,-0.17 -0.27,-0.07 -0.3,0.04 -0.62,0.18 -0.43,0.04 -0.26,-0.02 -0.1,-0.04 -0.04,-0.08 -0.03,-0.22 0.03,-0.44 0.22,-0.76 0.41,-0.89 0.85,0.93 1.48,1.29 1.55,0.98 0.76,0.35 0.72,0.25 0.67,0.13 0.62,0.02 0.52,-0.09 0.46,-0.22 0.36,-0.33 0.23,-0.39 0.13,-0.51 0.02,-0.58 -0.1,-0.66 -0.21,-0.71 -0.15,-0.25 -0.23,-0.17 -0.28,-0.07 -0.29,0.04 -0.26,0.15 -0.17,0.24 -0.07,0.27 0.04,0.3 0.16,0.54 0.06,0.41 -0.01,0.28 -0.03,0.15 -0.03,0.04 0,0 -0.06,0.03 -0.19,0.03 -0.35,-0.01 -0.45,-0.09 -0.54,-0.19 -0.64,-0.29 -1.34,-0.85 -1.31,-1.15 -1.05,-1.19 1.32,-1.45 1.5,-1.2 0.79,-0.48 0.71,-0.34 0.63,-0.21 0.52,-0.08 0.32,0.01 0.13,0.04 0.04,0.05 0.04,0.2 -0.01,0.36 -0.11,0.52 -0.26,0.7 -0.38,0.75 -0.5,0.78 -0.61,0.78 -0.71,0.76 -0.16,0.25 -0.06,0.28 0.06,0.29 0.16,0.24 0.25,0.17 0.28,0.05 0.29,-0.05 0.24,-0.17 0.79,-0.85 0.69,-0.88 0.58,-0.9 0.46,-0.9 0.31,-0.86 0.17,-0.79 0.01,-0.7 -0.14,-0.6 -0.27,-0.44 -0.46,-0.37 -0.58,-0.19 -0.66,-0.03 -0.78,0.12 -0.83,0.28 -0.88,0.41 -0.91,0.55 -1.5,1.18 -1.35,1.41 -0.08,-0.15 -0.29,-0.64 -0.19,-0.54 -0.09,-0.45 -0.01,-0.35 0.03,-0.19 0.03,-0.06 0,0 0.04,-0.03 0.15,-0.03 0.28,-0.01 0.41,0.06 0.54,0.16 Z" fill-rule="evenodd" fill="#000000" />
</svg>