<svg xmlns="http://www.w3.org/2000/svg" viewBox="0 0 24 24">
  <path id="gyroscope" d="M 11.05,8.07 l -1.42,2.08 -1.17,2.23 1.13,0.84 1.25,0.79 2.26,1.11 1.11,0.41 1.07,0.3 0.99,0.18 0.83,0.07 0.66,-0.03 0.49,-0.1 0.25,-0.1 0.07,-0.05 0.01,-0.01 0,-0.03 -0.01,-0.23 -0.11,-0.38 -0.24,-0.54 -0.44,-0.69 -0.17,-0.37 -0.01,-0.38 0.14,-0.36 0.27,-0.29 0.36,-0.16 0.38,-0.02 0.36,0.14 0.29,0.27 0.56,0.88 0.38,0.84 0.21,0.78 0.02,0.72 -0.15,0.6 -0.36,0.57 -0.54,0.43 -0.67,0.29 -0.84,0.18 -0.96,0.04 -1.07,-0.09 -1.16,-0.22 -1.22,-0.34 -1.25,-0.46 -1.26,-0.57 -1.25,-0.66 -2.16,-1.43 -0.02,0.05 -0.44,1.56 -0.23,1.36 -0.05,1.12 0.11,0.88 0.09,0.29 0.09,0.2 0.14,0.17 0.08,0.05 0.26,0.02 0.59,-0.12 0.79,-0.36 0.96,-0.64 1.12,-0.95 0.33,-0.21 0.38,-0.07 0.37,0.08 0.33,0.23 0.21,0.33 0.07,0.38 -0.08,0.38 -0.23,0.32 -1.26,1.09 -1.23,0.81 -1.17,0.52 -1.08,0.21 -0.95,-0.11 -0.77,-0.42 -0.59,-0.72 -0.39,-1 -0.17,-1.25 0.06,-1.45 0.27,-1.61 0.5,-1.73 0.29,-0.8 -0.47,-0.48 -0.77,-0.89 -0.61,-0.89 -0.44,-0.85 -0.27,-0.81 -0.08,-0.72 0.1,-0.69 0.32,-0.6 0.43,-0.42 0.64,-0.35 0.78,-0.21 0.92,-0.09 1.04,0.04 0.38,0.12 0.3,0.25 0.18,0.33 0.04,0.4 -0.12,0.38 -0.25,0.29 -0.33,0.19 -0.4,0.03 -0.82,-0.03 -0.59,0.06 -0.38,0.1 -0.21,0.1 -0.02,0.02 0,0.01 -0.01,0.08 0.03,0.27 0.15,0.46 0.29,0.56 0.43,0.64 0.6,0.72 1.18,-2.11 1.36,-1.98 1.22,-1.44 1.25,-1.23 1.24,-0.98 1.23,-0.71 1.14,-0.41 1.04,-0.08 0.9,0.24 0.68,0.52 0.52,0.84 0.3,1.09 0.08,1.32 -0.14,1.53 -0.36,1.66 -0.57,1.75 -0.75,1.77 -0.93,1.77 -0.26,0.3 -0.35,0.16 -0.38,0.03 -0.38,-0.13 -0.29,-0.26 -0.17,-0.34 -0.03,-0.39 0.13,-0.37 0.85,-1.63 0.69,-1.62 0.51,-1.55 0.32,-1.46 0.08,-0.7 0.04,-0.6 -0.06,-0.92 -0.16,-0.6 -0.18,-0.31 -0.08,-0.07 -0.18,-0.04 -0.42,0.04 -0.33,0.1 -0.41,0.17 -0.96,0.56 -1.04,0.82 -1.09,1.07 -1.11,1.32 Z M 14,12 l -0.07,0.52 -0.19,0.46 -0.3,0.4 -0.38,0.32 -0.8,-0.29 -0.76,-0.41 -0.79,-0.63 -0.69,-0.68 0.24,-0.67 0.43,-0.54 0.6,-0.35 0.71,-0.13 0.78,0.16 0.63,0.43 0.43,0.63 0.16,0.78 Z" fill-rule="evenodd" fill="#000000" />
</svg>