<svg xmlns="http://www.w3.org/2000/svg" viewBox="0 0 24 24">
  <path id="hammerParticles" d="M 4.79,3.71 l 0.33,-0.22 0.38,-0.08 0.38,0.08 0.33,0.22 6.79,6.79 3.15,-3.15 0.35,-0.14 0.35,0.14 1.5,1.5 0.15,0.36 0,2.96 -0.15,0.77 -0.44,0.65 -5.56,5.56 -0.35,0.14 -0.35,-0.14 -3.3,-3.3 -0.14,-0.35 0.14,-0.35 2.65,-2.65 -6.79,-6.79 -0.22,-0.33 -0.08,-0.38 0.08,-0.38 0.22,-0.33 0.58,-0.58 Z M 19.5,19.5 l -3.5,0.5 -0.5,-0.5 3,-3 1,3 Z M 6,16.5 l -0.5,0.5 -3.5,-2 1,-2 3,3.5 Z M 9.5,19.5 l -0.5,0.5 -3.5,-1.5 2,-1.5 2,2.5 Z M 7,15 l -0.5,0 -2,-3 2,-0.5 0.5,3.5 Z M 22,16.5 l -1.5,0.5 -0.5,-1 2,-2 0,2.5 Z" fill-rule="evenodd" fill="#000000" />
</svg>