<svg xmlns="http://www.w3.org/2000/svg" viewBox="0 0 24 24">
  <path id="hazardLights" d="M 10.28,3.89 l 0.34,-0.43 0.42,-0.3 0.47,-0.19 0.49,-0.06 0.49,0.06 0.47,0.19 0.42,0.3 0.34,0.43 7.48,12.59 0.22,0.51 0.07,0.52 -0.07,0.51 -0.2,0.47 -0.3,0.41 -0.4,0.32 -0.48,0.2 -0.56,0.08 -14.96,0 -0.56,-0.08 -0.48,-0.2 -0.4,-0.32 -0.3,-0.41 -0.2,-0.47 -0.07,-0.51 0.07,-0.52 0.22,-0.51 7.48,-12.59 Z M 12.43,4.66 l -0.19,-0.19 -0.24,-0.06 -0.24,0.06 -0.19,0.19 -7.48,12.58 -0.07,0.26 0.06,0.25 0.18,0.18 0.26,0.07 14.96,0 0.26,-0.07 0.18,-0.18 0.06,-0.25 -0.07,-0.26 -7.48,-12.58 Z M 11.13,8.49 l 0.38,-0.37 0.49,-0.12 0.49,0.12 0.38,0.37 3.76,6.51 0.14,0.51 -0.14,0.49 -0.35,0.36 -0.51,0.14 -7.54,0 -0.51,-0.14 -0.35,-0.36 -0.14,-0.49 0.14,-0.51 3.76,-6.51 Z M 9.1,15 l 5.8,0 -2.9,-5.01 -2.9,5.01 Z" fill-rule="evenodd" fill="#000000" />
</svg>