<svg xmlns="http://www.w3.org/2000/svg" viewBox="0 0 24 24">
  <path id="helmets" d="M 20.44,10.94 l 0.02,0.25 -0.22,0.13 -6.36,0 -0.41,0.05 -0.35,0.16 -0.29,0.23 -0.22,0.29 -0.19,0.71 0.05,0.38 0.16,0.37 0.42,0.45 0.57,0.24 7.57,1.33 0.51,0.17 0.45,0.29 0.34,0.4 0.21,0.49 0.16,0.66 0.09,0.54 0.05,0.81 -0.16,0.75 -0.4,0.61 -0.61,0.42 -0.74,0.2 -1.66,0.1 -1.92,0.03 -2.16,-0.07 -2.38,-0.21 -1.1,-0.14 -0.85,-0.15 -0.65,-0.17 -0.47,-0.18 -0.34,-0.23 -0.25,-0.26 -0.4,-0.7 -0.38,-0.9 -0.28,-1.04 -0.19,-1.12 -0.06,-1.19 0.13,-1.34 0.39,-1.25 0.61,-1.12 0.81,-0.99 0.98,-0.81 1.13,-0.61 1.24,-0.39 1.34,-0.13 1.03,0.06 0.94,0.18 0.84,0.29 0.76,0.37 0.67,0.44 0.59,0.49 0.98,1.11 Z M 10.75,8.06 l -1.28,0 -0.37,0.05 -0.33,0.14 -0.47,0.49 -0.17,0.66 0.05,0.35 0.14,0.34 0.09,0.13 -0.6,0.98 -0.44,1.07 -0.27,1.15 -0.1,1.21 0.1,1.56 -0.08,0.22 -0.21,0.06 -0.47,-0.11 -0.36,-0.12 -0.52,-0.3 -0.34,-0.38 -0.27,-0.51 -0.35,-0.83 -0.27,-0.95 -0.17,-1.04 -0.06,-1.1 0.13,-1.24 0.36,-1.15 0.57,-1.04 0.75,-0.91 0.92,-0.74 1.05,-0.57 1.16,-0.36 1.25,-0.12 1.36,0.12 1.17,0.33 1.01,0.5 0.84,0.63 0.06,0.27 -0.23,0.16 -0.96,0.09 -0.93,0.21 -0.9,0.32 -0.86,0.43 Z M 8.3,4.25 l -1.37,0.52 -1.22,0.78 -0.05,0 -0.46,0.1 -0.36,0.26 -0.23,0.37 -0.07,0.43 -0.65,0.97 -0.48,1.07 -0.3,1.15 -0.11,1.23 0.02,0.62 -0.05,0.25 -0.14,0.19 -0.2,0.09 -0.23,-0.06 -0.39,-0.35 -0.28,-0.49 -0.3,-0.7 -0.23,-0.79 -0.15,-0.87 -0.05,-0.92 0.11,-1.02 0.31,-0.96 0.49,-0.87 0.64,-0.75 0.79,-0.63 0.9,-0.47 0.99,-0.3 1.07,-0.1 1.15,0.1 1,0.27 0.23,0.19 0.03,0.26 -0.13,0.26 -0.28,0.17 Z" fill-rule="evenodd" fill="#000000" />
</svg>