<svg xmlns="http://www.w3.org/2000/svg" viewBox="0 0 24 24">
  <path id="help" d="M 6,3 l 12,0 0.78,0.16 0.63,0.43 0.43,0.63 0.16,0.78 0,12 -0.12,0.78 -0.35,0.68 -0.54,0.54 -0.7,0.37 -6.13,2.37 -0.32,0 -6.13,-2.37 -0.7,-0.37 -0.54,-0.54 -0.35,-0.68 -0.12,-0.78 0,-12 0.15,-0.77 0.44,-0.64 0.64,-0.44 0.77,-0.15 Z M 13.02,14.37 l 0,-0.48 0.11,-0.77 0.31,-0.62 0.45,-0.51 0.51,-0.46 0.58,-0.53 0.51,-0.61 0.37,-0.78 0.1,-0.47 0.04,-0.55 -0.06,-0.74 -0.19,-0.68 -0.31,-0.61 -0.42,-0.53 -0.55,-0.43 -0.65,-0.32 -0.78,-0.21 -0.88,-0.07 -0.88,0.07 -0.8,0.22 -0.71,0.35 -0.61,0.48 -0.49,0.61 -0.36,0.73 -0.23,0.85 -0.08,0.96 2.09,0 0.14,-0.96 0.4,-0.72 0.65,-0.44 0.88,-0.16 0.75,0.12 0.55,0.34 0.34,0.51 0.11,0.63 -0.1,0.6 -0.27,0.49 -0.85,0.83 -0.62,0.55 -0.57,0.68 -0.41,0.91 -0.12,0.56 -0.04,0.66 0,0.5 2.09,0 Z M 13.41,16.6 l -0.11,-0.55 -0.3,-0.44 -0.46,-0.3 -0.56,-0.11 -0.57,0.11 -0.45,0.3 -0.3,0.44 -0.11,0.55 0.11,0.55 0.3,0.45 0.45,0.29 0.57,0.11 0.56,-0.11 0.46,-0.29 0.3,-0.45 0.11,-0.55 Z" fill-rule="evenodd" fill="#000000" />
</svg>