<svg xmlns="http://www.w3.org/2000/svg" viewBox="0 0 24 24">
  <path id="highBeam" d="M 9.2,7.73 l 0,2.07 0.06,0.27 0.15,0.22 0.22,0.15 0.27,0.06 0.27,-0.06 0.22,-0.15 0.15,-0.22 0.06,-0.27 0,-3.1 0.06,-0.27 0.15,-0.22 0.22,-0.15 0.27,-0.06 0.27,0.06 0.22,0.15 0.15,0.22 0.06,0.27 0,10.3 -0.08,0.39 -0.21,0.32 -0.32,0.21 -0.39,0.08 -1.53,0 -0.5,-0.13 -3.47,-2 -0.63,-0.49 -0.47,-0.61 -0.3,-0.72 -0.1,-0.78 0,-2.54 0.1,-0.78 0.3,-0.72 0.47,-0.61 0.63,-0.49 2.2,-1.26 0.52,-0.14 0.48,0.14 0.36,0.35 0.14,0.51 Z M 21.41,17.4 l -7.5,-1.33 -0.29,-0.17 -0.12,-0.32 0,-0.05 0.16,-0.36 0.37,-0.14 7.5,0.44 0.33,0.16 0.14,0.34 0,0.93 -0.05,0.22 -0.13,0.17 -0.19,0.1 -0.22,0.01 Z M 21.53,8.53 l -7.5,0.44 -0.37,-0.14 -0.16,-0.36 0,-0.05 0.12,-0.32 0.29,-0.17 7.5,-1.33 0.22,0.01 0.19,0.1 0.13,0.17 0.05,0.22 0,0.93 -0.14,0.34 -0.33,0.16 Z M 21.47,12.97 l -7.5,-0.44 -0.33,-0.16 -0.14,-0.34 0,-0.06 0.14,-0.34 0.33,-0.16 7.5,-0.44 0.37,0.14 0.16,0.36 0,0.94 -0.16,0.36 -0.37,0.14 Z" fill-rule="evenodd" fill="#000000" />
</svg>