<svg xmlns="http://www.w3.org/2000/svg" viewBox="0 0 24 24">
  <path id="highwayRoad3To2Merge01" d="M 20.5,22 l -2,0 0,-3.03 -0.08,-0.96 -0.23,-0.93 -1.38,-4.16 -0.23,-0.93 -0.08,-0.96 0,-9.03 2,0 0,8.03 0.08,0.96 0.23,0.93 1.38,4.16 0.23,0.93 0.08,0.96 0,4.03 Z M 3.5,22 l 0,-4.03 0.08,-0.96 0.23,-0.93 1.38,-4.16 0.23,-0.93 0.08,-0.96 0,-8.03 2,0 0,9.03 -0.08,0.96 -0.23,0.93 -1.38,4.16 -0.23,0.93 -0.08,0.96 0,3.03 -2,0 Z M 11,2 l 2,0 0,9.7 0.14,1.27 0.4,1.21 1.42,3.14 0.4,1.21 0.14,1.27 0,2.2 -2,0 0,-1.7 -0.14,-1.27 -0.4,-1.21 -1.42,-3.14 -0.4,-1.21 -0.14,-1.27 0,-10.2 Z M 10.5,22 l -2,0 0,-1.84 0.05,-0.81 0.17,-0.79 0.27,-0.76 0.37,-0.73 0.64,-1.07 1,2 -0.37,1.03 -0.13,1.09 0,1.88 Z" fill-rule="evenodd" fill="#000000" />
</svg>