<svg xmlns="http://www.w3.org/2000/svg" viewBox="0 0 24 24">
  <path id="highwayMerge" d="M 11,2 l 2,0 0,8.1 0.07,0.89 0.2,0.87 1.46,4.78 0.2,0.87 0.07,0.89 0,3.6 -1.5,0 0,-3.41 -0.17,-1.15 -0.85,-2.84 -0.19,-0.27 -0.29,-0.09 -0.29,0.09 -0.19,0.27 -0.85,2.84 -0.17,1.15 0,3.41 -1.5,0 0,-3.6 0.07,-0.89 0.2,-0.87 1.46,-4.78 0.2,-0.87 0.07,-0.89 0,-8.1 Z M 2.5,22 l 0,-5.6 0.07,-0.89 0.2,-0.87 1.46,-4.78 0.2,-0.87 0.07,-0.89 0,-6.1 1.5,0 0,6.6 -0.07,0.89 -0.2,0.87 -1.46,4.78 -0.2,0.87 -0.07,0.89 0,5.1 -1.5,0 Z M 21.5,22 l -1.5,0 0,-5.1 -0.07,-0.89 -0.2,-0.87 -1.46,-4.78 -0.2,-0.87 -0.07,-0.89 0,-6.6 1.5,0 0,6.1 0.07,0.89 0.2,0.87 1.46,4.78 0.2,0.87 0.07,0.89 0,5.6 Z M 8,10 l 0,-2 1,0 0,2 -0.5,2 -1,0 0.5,-2 Z M 15,10 l 0,-2 1,0 0,2 0.5,2 -1,0 -0.5,-2 Z M 8,3 l 1,0 0,3 -1,0 0,-3 Z M 15,3 l 1,0 0,3 -1,0 0,-3 Z M 8,14 l -1,3 -1,0 1,-3 1,0 Z M 17,14 l 1,3 -1,0 -1,-3 1,0 Z M 6,19.5 l 1,0 0,2 -1,0 0,-2 Z M 17,19.5 l 1,0 0,2 -1,0 0,-2 Z" fill-rule="evenodd" fill="#000000" />
</svg>