<svg xmlns="http://www.w3.org/2000/svg" viewBox="0 0 24 24">
  <path id="highwayToUrbanRoadTransition02" d="M 19,22 l -2,0 0,-5.42 -0.13,-1.56 -0.37,-1.52 -0.37,-1.52 -0.13,-1.56 0,-8.42 5,0 0.39,0.08 0.32,0.21 0.21,0.32 0.08,0.39 0,8 -0.08,0.39 -0.21,0.32 -0.32,0.21 -0.39,0.08 -1,0 -1,1 0,9 Z M 5,22 l 0,-9 -1,-1 -1,0 -0.39,-0.08 -0.32,-0.21 -0.21,-0.32 -0.08,-0.39 0,-8 0.08,-0.39 0.21,-0.32 0.32,-0.21 0.39,-0.08 5,0 0,8.42 -0.13,1.56 -0.37,1.52 -0.37,1.52 -0.13,1.56 0,5.42 -2,0 Z M 13,13.5 l 0,7 -0.15,0.35 -0.35,0.15 -1,0 -0.35,-0.15 -0.15,-0.35 0,-7 0.15,-0.35 0.35,-0.15 1,0 0.35,0.15 0.15,0.35 Z M 13,6.5 l 0,2.5 -0.15,0.35 -0.35,0.15 -1,0 -0.35,-0.15 -0.15,-0.35 0,-2.5 0.15,-0.35 0.35,-0.15 1,0 0.35,0.15 0.15,0.35 Z M 13,3 l -0.15,0.35 -0.35,0.15 -1,0 -0.35,-0.15 -0.15,-0.35 0,-0.5 0.15,-0.35 0.35,-0.15 1,0 0.35,0.15 0.15,0.35 0,0.5 Z" fill-rule="evenodd" fill="#000000" />
</svg>