<svg xmlns="http://www.w3.org/2000/svg" viewBox="0 0 24 24">
  <path id="highwayShoulderMerge" d="M 11,4.83 l -0.16,1.12 -0.48,1.04 -3.22,5.02 -0.48,1.04 -0.16,1.12 0,7.83 -2,0 0,-8.03 0.05,-0.72 0.15,-0.69 0.25,-0.67 0.34,-0.63 3.39,-5.27 0.24,-0.51 0.08,-0.57 0,-2.91 2,0 0,2.83 Z M 21,22 l -2,0 0,-20 2,0 0,20 Z M 16,3.5 l 0,3 -0.15,0.35 -0.35,0.15 -1,0 -0.35,-0.15 -0.15,-0.35 0,-3 0.15,-0.35 0.35,-0.15 1,0 0.35,0.15 0.15,0.35 Z M 16,17.5 l 0,3 -0.15,0.35 -0.35,0.15 -1,0 -0.35,-0.15 -0.15,-0.35 0,-3 0.15,-0.35 0.35,-0.15 1,0 0.35,0.15 0.15,0.35 Z M 16,10.5 l 0,3 -0.15,0.35 -0.35,0.15 -1,0 -0.35,-0.15 -0.15,-0.35 0,-3 0.15,-0.35 0.35,-0.15 1,0 0.35,0.15 0.15,0.35 Z M 11,18.5 l 0,3.5 -1.5,0 0,-3.5 0.15,-0.35 0.35,-0.15 0.5,0 0.35,0.15 0.15,0.35 Z M 11,13.5 l 0,2 -0.15,0.35 -0.35,0.15 -0.5,0 -0.35,-0.15 -0.15,-0.35 0,-2 0.15,-0.35 0.35,-0.15 0.5,0 0.35,0.15 0.15,0.35 Z M 11,9.5 l 0,1 -0.15,0.35 -0.35,0.15 -0.5,0 -0.35,-0.15 -0.15,-0.35 0,-1 0.15,-0.35 0.35,-0.15 0.5,0 0.35,0.15 0.15,0.35 Z" fill-rule="evenodd" fill="#000000" />
</svg>