<svg xmlns="http://www.w3.org/2000/svg" viewBox="0 0 24 24">
  <path id="highwayToUrbanRoadTransition01" d="M 3,11 l -0.39,-0.08 -0.32,-0.21 -0.21,-0.32 -0.08,-0.39 0,-7 0.08,-0.39 0.21,-0.32 0.32,-0.21 0.39,-0.08 4.5,0 0,9.03 -0.08,0.96 -0.23,0.93 -1.38,4.16 -0.23,0.93 -0.08,0.96 0,3.03 -2,0 0,-4.03 0.08,-0.96 0.23,-0.93 1.38,-4.16 0.23,-0.92 -2.42,0 Z M 18.5,22 l 0,-3.03 -0.08,-0.96 -0.23,-0.93 -1.38,-4.16 -0.23,-0.93 -0.08,-0.96 0,-9.03 4.5,0 0.39,0.08 0.32,0.21 0.21,0.32 0.08,0.39 0,7 -0.08,0.39 -0.21,0.32 -0.32,0.21 -0.39,0.08 -2.42,0 0.23,0.92 1.38,4.16 0.23,0.93 0.08,0.96 0,4.03 -2,0 Z M 11,2 l 2,0 0,7.14 0.06,0.85 0.18,0.84 2.02,6.84 0.18,0.84 0.06,0.85 0,2.64 -1.5,0 0,-2.48 -0.14,-1.03 -1.86,-6.99 -1.86,6.99 -0.14,1.03 0,2.48 -1.5,0 0,-2.64 0.06,-0.85 0.18,-0.84 2.02,-6.84 0.18,-0.84 0.06,-0.85 0,-7.14 Z M 11.04,17.46 l 1.17,-1.17 0.24,-0.07 0.18,0.16 0.32,0.97 -0.06,0.26 -2.05,2.05 -0.22,0.04 -0.12,-0.18 0.16,-1.01 0.32,-0.95 0.06,-0.1 Z M 10.5,22 l 2.57,-2.57 0.28,-0.06 0.15,0.23 0,1.19 -0.15,0.36 -0.85,0.85 -2,0 Z" fill-rule="evenodd" fill="#000000" />
</svg>