<svg xmlns="http://www.w3.org/2000/svg" viewBox="0 0 24 24">
  <path id="highwayRoad3To2Merge02" d="M 20.5,22 l -2,0 0,-3.03 -0.08,-0.96 -0.23,-0.93 -1.38,-4.16 -0.23,-0.93 -0.08,-0.96 0,-9.03 2,0 0,8.03 0.08,0.96 0.23,0.93 1.38,4.16 0.23,0.93 0.08,0.96 0,4.03 Z M 3.5,22 l 0,-4.03 0.08,-0.96 0.23,-0.93 1.38,-4.16 0.23,-0.93 0.08,-0.96 0,-8.03 2,0 0,9.03 -0.08,0.96 -0.23,0.93 -1.38,4.16 -0.23,0.93 -0.08,0.96 0,3.03 -2,0 Z M 13,3.5 l 0,2 -0.15,0.35 -0.35,0.15 -1,0 -0.35,-0.15 -0.15,-0.35 0,-2 0.15,-0.35 0.35,-0.15 1,0 0.35,0.15 0.15,0.35 Z M 10.5,19.5 l 0,2 -0.15,0.35 -0.35,0.15 -1,0 -0.35,-0.15 -0.15,-0.35 0,-2 0.15,-0.35 0.35,-0.15 1,0 0.35,0.15 0.15,0.35 Z M 13,8.5 l 0,2 -0.15,0.35 -0.35,0.15 -1,0 -0.35,-0.15 -0.15,-0.35 0,-2 0.15,-0.35 0.35,-0.15 1,0 0.35,0.15 0.15,0.35 Z M 13,13.5 l 0,2 -0.15,0.35 -0.35,0.15 -1,0 -0.35,-0.15 -0.15,-0.35 0,-2 0.15,-0.35 0.35,-0.15 1,0 0.35,0.15 0.15,0.35 Z M 15.5,19.5 l 0,2 -0.15,0.35 -0.35,0.15 -1,0 -0.35,-0.15 -0.15,-0.35 0,-2 0.15,-0.35 0.35,-0.15 1,0 0.35,0.15 0.15,0.35 Z" fill-rule="evenodd" fill="#000000" />
</svg>