<svg xmlns="http://www.w3.org/2000/svg" viewBox="0 0 24 24">
  <path id="hingeBroken" d="M 19,6 l 0.78,0.16 0.63,0.43 0.43,0.63 0.16,0.78 0,8 -0.16,0.78 -0.43,0.63 -0.63,0.43 -0.78,0.16 -7,0 -0.35,-0.15 -0.15,-0.35 0,-2 0.15,-0.35 0.35,-0.15 3,0 0,-6 -3,0 -0.35,-0.15 -0.15,-0.35 0,-2 0.15,-0.35 0.35,-0.15 7,0 Z M 10.87,17.52 l -0.05,0.38 -0.3,0.23 -4.06,1.11 -0.39,0.02 -0.36,-0.12 -0.29,-0.25 -0.18,-0.35 -2.48,-9.08 -0.02,-0.39 0.12,-0.36 0.25,-0.29 0.35,-0.18 4.06,-1.11 0.38,0.05 0.23,0.3 0.86,3.15 2.02,-0.51 0.38,0.06 0.23,0.31 0.76,3.04 -0.05,0.37 -0.29,0.23 -1.94,0.56 0.77,2.83 Z M 10,6 l -0.5,0.5 -2.5,-3.5 2,-1 1,0 0,4 Z M 11.5,5 l 1,-2.5 2,1 -2,1.5 -1,0 Z M 12,19.5 l 1,-0.5 1.5,2 -1.5,0 -1,1 0,-2.5 Z M 18,16 l 0.39,-0.08 0.32,-0.21 0.21,-0.32 0.08,-0.39 -0.08,-0.39 -0.21,-0.32 -0.32,-0.21 -0.39,-0.08 -0.39,0.08 -0.32,0.21 -0.21,0.32 -0.08,0.39 0.08,0.39 0.21,0.32 0.32,0.21 0.39,0.08 Z M 7.5,17 l 0.39,-0.08 0.32,-0.21 0.21,-0.32 0.08,-0.39 -0.08,-0.39 -0.21,-0.32 -0.32,-0.21 -0.39,-0.08 -0.39,0.08 -0.32,0.21 -0.21,0.32 -0.08,0.39 0.08,0.39 0.21,0.32 0.32,0.21 0.39,0.08 Z M 19,9 l -0.08,-0.39 -0.21,-0.32 -0.32,-0.21 -0.39,-0.08 -0.39,0.08 -0.32,0.21 -0.21,0.32 -0.08,0.39 0.08,0.39 0.21,0.32 0.32,0.21 0.39,0.08 0.39,-0.08 0.32,-0.21 0.21,-0.32 0.08,-0.39 Z M 6,11.5 l 0.39,-0.08 0.32,-0.21 0.21,-0.32 0.08,-0.39 -0.08,-0.39 -0.21,-0.32 -0.32,-0.21 -0.39,-0.08 -0.39,0.08 -0.32,0.21 -0.21,0.32 -0.08,0.39 0.08,0.39 0.21,0.32 0.32,0.21 0.39,0.08 Z M 7,5.5 l -0.5,0.5 -2.5,0 1,-1.5 2,1 Z" fill-rule="evenodd" fill="#000000" />
</svg>