<svg xmlns="http://www.w3.org/2000/svg" viewBox="0 0 24 24">
  <path id="houseWrenchRoof" d="M 8.6,21 l -0.23,-0.15 0.06,-0.28 1.78,-1.78 0.32,-0.21 0.38,-0.08 1.82,0 0.8,-0.11 0.73,-0.3 0.62,-0.49 0.48,-0.64 1.27,-2.3 0.11,-0.31 0.01,-0.31 -0.09,-0.31 -0.19,-0.26 -0.29,-0.29 -0.18,-0.08 -0.18,0.08 -2.57,2.57 -0.27,0.14 -0.3,-0.05 -0.49,-0.24 -0.55,-0.34 -0.49,-0.41 -0.41,-0.49 -0.34,-0.55 -0.24,-0.49 -0.05,-0.3 0.14,-0.27 2.57,-2.57 0.08,-0.18 -0.08,-0.18 -0.29,-0.29 -0.26,-0.19 -0.31,-0.09 -0.31,0.01 -0.31,0.11 -2.3,1.27 -0.64,0.48 -0.49,0.62 -0.3,0.73 -0.11,0.8 0,1.82 -0.08,0.38 -0.21,0.32 -1.78,1.78 -0.28,0.06 -0.15,-0.23 0,-7.4 0,-0.65 0.09,-0.29 0.24,-0.18 6.5,-2.32 0.34,0 6.5,2.32 0.24,0.18 0.09,0.29 0,0.65 0,10.5 -0.15,0.35 -0.35,0.15 -9.9,0 Z M 11.83,5.06 l -8.69,3.35 -0.34,-0.01 -0.26,-0.22 -0.27,-0.48 -0.04,-0.4 0.27,-0.3 8.64,-4.05 0.86,-0.18 0.86,0.18 2.78,1.3 0.24,-0.01 0.12,-0.21 0,-0.78 0.07,-0.18 0.18,-0.07 2.5,0 0.18,0.07 0.07,0.18 0,2.42 0.14,0.23 2.36,1.1 0.27,0.3 -0.04,0.4 -0.27,0.48 -0.26,0.22 -0.34,0.01 -8.69,-3.35 -0.34,0 Z" fill-rule="evenodd" fill="#000000" />
</svg>