<svg xmlns="http://www.w3.org/2000/svg" viewBox="0 0 24 24">
  <path id="houseWrench" d="M 21.6,9.89 l -0.32,0.11 -2.03,0 -0.18,0.07 -0.07,0.18 0,9.25 -0.15,0.35 -0.35,0.15 -9.9,0 -0.23,-0.15 0.06,-0.28 1.78,-1.78 0.32,-0.21 0.38,-0.08 1.82,0 0.8,-0.11 0.73,-0.3 0.62,-0.49 0.48,-0.64 1.27,-2.3 0.11,-0.31 0.01,-0.31 -0.09,-0.31 -0.19,-0.26 -0.29,-0.29 -0.18,-0.08 -0.18,0.08 -2.57,2.57 -0.27,0.14 -0.3,-0.05 -0.49,-0.24 -0.55,-0.34 -0.49,-0.41 -0.41,-0.49 -0.34,-0.55 -0.24,-0.49 -0.05,-0.3 0.14,-0.27 2.57,-2.57 0.08,-0.18 -0.08,-0.18 -0.29,-0.29 -0.26,-0.19 -0.31,-0.09 -0.31,0.01 -0.31,0.11 -2.3,1.27 -0.64,0.48 -0.49,0.62 -0.3,0.73 -0.11,0.8 0,1.82 -0.08,0.38 -0.21,0.32 -1.78,1.78 -0.28,0.06 -0.15,-0.23 0,-6.15 -0.07,-0.18 -0.18,-0.07 -2.03,0 -0.32,-0.11 -0.16,-0.25 0,-0.3 0.21,-0.26 9.28,-5.91 0.27,-0.08 0.27,0.08 9.28,5.91 0.21,0.26 0,0.3 Z" fill-rule="evenodd" fill="#000000" />
</svg>