<svg xmlns="http://www.w3.org/2000/svg" viewBox="0 0 24 24">
  <path id="HUD" d="M 1,6 l 0.16,-0.78 0.43,-0.63 0.63,-0.43 0.78,-0.16 18,0 0.78,0.16 0.63,0.43 0.43,0.63 0.16,0.78 0,13 -0.16,0.78 -0.43,0.63 -0.63,0.43 -0.78,0.16 -18,0 -0.78,-0.16 -0.63,-0.43 -0.43,-0.63 -0.16,-0.78 0,-13 Z M 16,6 l -8,0 0,3 8,0 0,-3 Z M 18.92,13.57 l -0.67,0.13 -0.63,0.22 -0.59,0.33 -0.53,0.42 -0.45,0.5 -0.37,0.57 -0.26,0.61 -0.17,0.66 -0.06,0.67 0.06,0.67 0.16,0.66 0.26,0.62 0.85,-0.45 0.85,-0.45 -0.23,-0.68 0,-0.73 0.23,-0.68 0.44,-0.57 0.6,-0.4 0.7,-0.19 0.72,0.04 0.67,0.28 1,-1.63 -0.6,-0.31 -0.64,-0.2 -0.67,-0.1 -0.67,0.01 Z M 2.5,14.17 l 0.6,0.97 0.9,-0.37 0.97,-0.06 0.94,0.25 0.81,0.54 0.59,0.77 0.32,0.93 0,0.97 -0.31,0.93 1.01,0.53 0.26,-0.62 0.16,-0.66 0.06,-0.67 -0.06,-0.67 -0.17,-0.66 -0.26,-0.61 -0.37,-0.57 -0.45,-0.5 -0.53,-0.42 -0.59,-0.33 -0.63,-0.22 -0.67,-0.13 -0.67,-0.01 -0.67,0.1 -0.64,0.2 -0.6,0.31 Z M 2.5,6 l 0,2 2.5,0 0,-2 -2.5,0 Z M 19,6 l 0,2 2.5,0 0,-2 -2.5,0 Z M 4.84,16.04 l -0.54,0.04 -0.5,0.2 0.87,1.41 1.46,0.78 0.17,-0.51 0,-0.54 -0.17,-0.51 -0.33,-0.43 -0.44,-0.3 -0.52,-0.14 Z" fill-rule="evenodd" fill="#000000" />
</svg>