<svg xmlns="http://www.w3.org/2000/svg" viewBox="0 0 24 24">
  <path id="hydroPump5" d="M 16,2 l 0,3 1.41,0.14 1.31,0.41 1.19,0.65 1.04,0.85 0.85,1.04 0.65,1.19 0.41,1.31 0.14,1.41 -0.14,1.41 -0.41,1.31 -0.65,1.19 -0.85,1.04 -1.04,0.85 -1.19,0.65 -1.31,0.41 -1.41,0.14 0,3 -8,0 0,-3 -1.41,-0.14 -1.31,-0.41 -1.19,-0.65 -1.04,-0.85 -0.85,-1.04 -0.65,-1.19 -0.41,-1.31 -0.14,-1.41 0.14,-1.41 0.41,-1.31 0.65,-1.19 0.85,-1.04 1.04,-0.85 1.19,-0.65 1.31,-0.41 1.41,-0.14 0,-3 8,0 Z M 11.91,16 l 0.18,0 0.59,-0.06 0.54,-0.17 0.5,-0.27 0.43,-0.35 0.35,-0.43 0.27,-0.5 0.17,-0.54 0.06,-0.59 -0.12,-1.01 -0.35,-0.84 -0.52,-0.76 -0.64,-0.77 -0.67,-0.78 -0.7,-0.93 -0.7,0.93 -0.67,0.78 -0.64,0.77 -0.52,0.76 -0.35,0.84 -0.12,1.01 0.06,0.59 0.17,0.54 0.27,0.5 0.35,0.43 0.43,0.35 0.5,0.27 0.54,0.17 0.59,0.06 Z M 7.59,7 l -0.58,0.03 -0.3,2.1 -0.62,0.27 -0.54,0.4 -1.97,-0.78 -0.58,1 1.67,1.31 -0.08,0.67 0.08,0.67 -1.67,1.31 0.58,1 1.97,-0.78 0.54,0.4 0.62,0.27 0.3,2.1 0.58,0.03 0.41,-0.02 0,-4.07 -0.41,0.09 -0.39,-0.08 -0.32,-0.21 -0.21,-0.32 -0.08,-0.39 0.08,-0.39 0.21,-0.32 0.32,-0.21 0.39,-0.08 0.41,0.09 0,-4.07 -0.41,-0.02 Z M 17.15,14.92 l 1.31,1.67 1,-0.58 -0.79,-1.97 0.4,-0.54 0.28,-0.62 2.09,-0.3 0,-1.16 -2.1,-0.3 -0.26,-0.62 -0.41,-0.54 0.79,-1.97 -0.48,-0.32 -0.52,-0.26 -1.31,1.67 -0.58,-0.08 -0.57,0.04 0,2.08 0.48,-0.12 0.5,0.13 0.29,0.27 0.17,0.34 0.03,0.38 -0.13,0.38 -0.26,0.29 -0.33,0.17 -0.38,0.03 -0.37,-0.11 0,2.08 0.58,0.04 0.57,-0.08 Z M 12,4 l -2,2 4,0 -2,-2 Z M 12,20 l 2,-2 -4,0 2,2 Z" fill-rule="evenodd" fill="#000000" />
</svg>