<svg xmlns="http://www.w3.org/2000/svg" viewBox="0 0 24 24">
  <path id="hydroPump1" d="M 10.5,2 l 3,0 0.5,2.25 1.25,0.44 1.14,0.62 1.02,0.8 0.88,0.95 0.72,1.08 0.54,1.2 0.33,1.29 0.12,1.37 -0.12,1.37 -0.33,1.29 -0.54,1.2 -0.72,1.08 -0.88,0.95 -1.02,0.8 -1.14,0.62 -1.25,0.44 -0.5,2.25 -3,0 -0.5,-2.25 -1.25,-0.44 -1.14,-0.62 -1.02,-0.8 -0.88,-0.95 -0.72,-1.08 -0.54,-1.2 -0.33,-1.29 -0.12,-1.37 0.12,-1.37 0.33,-1.29 0.54,-1.2 0.72,-1.08 0.88,-0.95 1.02,-0.8 1.14,-0.62 1.25,-0.44 0.5,-2.25 Z M 14.31,16.99 l 0.67,-0.37 0.62,-0.46 0.55,-0.55 0.46,-0.61 0.38,-0.68 0.28,-0.73 0.17,-0.78 0.06,-0.81 -0.06,-0.81 -0.17,-0.78 -0.28,-0.73 -0.38,-0.68 -0.46,-0.61 -0.55,-0.55 -0.62,-0.46 -0.67,-0.37 -2.31,3.99 -2.31,-3.99 -0.67,0.37 -0.62,0.46 -0.55,0.55 -0.46,0.61 -0.38,0.68 -0.28,0.73 -0.17,0.78 -0.06,0.81 0.06,0.81 0.17,0.78 0.28,0.73 0.38,0.68 0.46,0.61 0.55,0.55 0.62,0.46 0.67,0.37 2.31,-3.99 2.31,3.99 Z" fill-rule="evenodd" fill="#000000" />
</svg>