<svg xmlns="http://www.w3.org/2000/svg" viewBox="0 0 24 24">
  <path id="hydroPump7" d="M 22,8 l 0,8 -3,0 -0.14,1.41 -0.41,1.31 -0.65,1.19 -0.85,1.04 -1.04,0.85 -1.19,0.65 -1.31,0.41 -1.41,0.14 -1.41,-0.14 -1.31,-0.41 -1.19,-0.65 -1.04,-0.85 -0.85,-1.04 -0.65,-1.19 -0.41,-1.31 -0.14,-1.41 -3,0 0,-8 3,0 0.14,-1.41 0.41,-1.31 0.65,-1.19 0.85,-1.04 1.04,-0.85 1.19,-0.65 1.31,-0.41 1.41,-0.14 1.41,0.14 1.31,0.41 1.19,0.65 1.04,0.85 0.85,1.04 0.65,1.19 0.41,1.31 0.14,1.41 3,0 Z M 10.41,13.83 l -0.76,0.9 -0.6,0.89 -0.4,0.98 -0.15,1.17 0.07,0.69 0.2,0.63 0.31,0.58 0.41,0.5 0.51,0.42 0.57,0.31 0.64,0.2 0.68,0.07 0.22,0 0.68,-0.07 0.64,-0.2 0.57,-0.31 0.51,-0.42 0.41,-0.5 0.31,-0.58 0.2,-0.63 0.07,-0.69 -0.15,-1.17 -0.4,-0.98 -0.6,-0.89 -0.76,-0.9 -0.64,-0.75 -0.95,-1.25 -0.95,1.25 -0.64,0.75 Z M 14.39,4.38 l -0.8,-0.46 -1.05,1.33 -0.54,-0.06 -0.54,0.06 -1.05,-1.33 -0.8,0.46 0.63,1.58 -0.32,0.43 -0.21,0.5 -1.68,0.24 -0.03,0.46 0.03,0.46 1.68,0.25 0.21,0.49 0.32,0.44 -0.63,1.57 0.8,0.46 1.05,-1.33 0.54,0.06 0.54,-0.06 1.05,1.33 0.8,-0.46 -0.63,-1.57 0.32,-0.44 0.22,-0.49 1.67,-0.25 0.03,-0.46 -0.03,-0.46 -1.67,-0.24 -0.22,-0.5 -0.32,-0.43 0.63,-1.58 Z M 11.51,14.85 l 0.34,-0.4 0.15,-0.17 0.15,0.17 0.34,0.4 0.73,0.87 0.34,0.49 0.25,0.48 0.14,0.5 0.05,0.58 -0.15,0.74 -0.4,0.6 -0.61,0.41 -0.73,0.15 -0.22,0 -0.73,-0.15 -0.61,-0.41 -0.4,-0.6 -0.15,-0.74 0.05,-0.58 0.14,-0.5 0.25,-0.48 0.34,-0.49 0.73,-0.87 Z M 21,12 l -2,-2 0,4 2,-2 Z M 3,14 l 2,-2 -2,-2 0,4 Z M 12,8.39 l -0.31,-0.06 -0.26,-0.17 -0.17,-0.26 -0.06,-0.31 0.06,-0.31 0.17,-0.25 0.26,-0.18 0.31,-0.06 0.31,0.06 0.26,0.18 0.17,0.25 0.06,0.31 -0.06,0.31 -0.17,0.26 -0.26,0.17 -0.31,0.06 Z" fill-rule="evenodd" fill="#000000" />
</svg>