<svg xmlns="http://www.w3.org/2000/svg" viewBox="0 0 24 24">
  <path id="hydroPump4" d="M 14,2 l 7,0 0,5 0.39,0.08 0.32,0.21 0.21,0.32 0.08,0.39 0,8 -0.08,0.39 -0.21,0.32 -0.32,0.21 -0.39,0.08 0,5 -7,0 0,-5 -0.39,-0.08 -0.32,-0.21 -0.21,-0.32 -0.08,-0.39 0,-2 -1,0 0,4 -9,0 0,-3 -1,0 0,-6 1,0 0,-3 3,0 0,-2 5,0 0,2 1,0 0,4 1,0 0,-2 0.08,-0.39 0.21,-0.32 0.32,-0.21 0.39,-0.08 0,-5 Z M 20,12.45 l -0.1,-0.88 -0.29,-0.73 -0.43,-0.67 -0.54,-0.67 -0.56,-0.69 -0.58,-0.81 -0.58,0.81 -0.56,0.69 -0.54,0.67 -0.43,0.67 -0.29,0.73 -0.1,0.88 0,0.05 0.05,0.5 0.15,0.47 0.53,0.8 0.8,0.53 0.47,0.15 0.5,0.05 0.5,-0.05 0.47,-0.15 0.8,-0.53 0.53,-0.8 0.15,-0.47 0.05,-0.5 0,-0.05 Z M 4,7 l 0,2 6,0 0,-2 -6,0 Z M 19,6 l -1.5,-3 -1.5,3 3,0 Z M 17.5,21 l 1.5,-3 -3,0 1.5,3 Z" fill-rule="evenodd" fill="#000000" />
</svg>