<svg xmlns="http://www.w3.org/2000/svg" viewBox="0 0 24 24">
  <path id="hydroPump2" d="M 8,2 l 2,0 0,3 2,2 2,-2 0,-3 2,0 0,4 1.41,0.14 1.31,0.41 1.19,0.65 1.04,0.85 0.85,1.04 0.65,1.19 0.41,1.31 0.14,1.41 -0.14,1.41 -0.41,1.31 -0.65,1.19 -0.85,1.04 -1.04,0.85 -1.19,0.65 -1.31,0.41 -1.41,0.14 0,2 -8,0 0,-2 -1.41,-0.14 -1.31,-0.41 -1.19,-0.65 -1.04,-0.85 -0.85,-1.04 -0.65,-1.19 -0.41,-1.31 -0.14,-1.41 0.14,-1.41 0.41,-1.31 0.65,-1.19 0.85,-1.04 1.04,-0.85 1.19,-0.65 1.31,-0.41 1.41,-0.14 0,-4 Z M 18.46,17.59 l 1,-0.58 -0.79,-1.97 0.4,-0.54 0.28,-0.62 2.09,-0.3 0,-1.16 -2.1,-0.3 -0.26,-0.62 -0.41,-0.54 0.79,-1.97 -0.48,-0.32 -0.52,-0.26 -1.31,1.67 -0.68,-0.08 -0.66,0.08 -1.32,-1.67 -1,0.58 0.79,1.97 -0.4,0.54 -0.27,0.62 -2.1,0.3 0,1.16 2.1,0.3 0.27,0.62 0.4,0.54 -0.79,1.97 0.49,0.32 0.51,0.26 1.31,-1.67 0.68,0.08 0.67,-0.08 1.31,1.67 Z M 3.58,10.02 l -0.58,1 1.67,1.31 -0.08,0.67 0.08,0.67 -1.67,1.31 0.58,1 1.97,-0.78 0.54,0.4 0.62,0.27 0.3,2.1 0.58,0.03 0.58,-0.03 0.3,-2.1 0.63,-0.27 0.53,-0.4 1.97,0.78 0.58,-1 -1.66,-1.31 0.07,-0.67 -0.07,-0.67 1.66,-1.31 -0.58,-1 -1.97,0.78 -0.53,-0.4 -0.63,-0.27 -0.3,-2.1 -0.58,-0.03 -0.58,0.03 -0.3,2.1 -0.62,0.27 -0.54,0.4 -1.97,-0.78 Z M 16.98,12.13 l 0.29,0.27 0.17,0.34 0.03,0.38 -0.13,0.38 -0.26,0.3 -0.34,0.17 -0.39,0.02 -0.37,-0.12 -0.3,-0.27 -0.17,-0.34 -0.03,-0.38 0.13,-0.38 0.26,-0.3 0.35,-0.17 0.38,-0.02 0.38,0.12 Z M 7.59,14 l -0.39,-0.08 -0.32,-0.21 -0.21,-0.32 -0.08,-0.39 0.08,-0.39 0.21,-0.32 0.32,-0.21 0.39,-0.08 0.39,0.08 0.32,0.21 0.21,0.32 0.08,0.39 -0.08,0.39 -0.21,0.32 -0.32,0.21 -0.39,0.08 Z" fill-rule="evenodd" fill="#000000" />
</svg>