<svg xmlns="http://www.w3.org/2000/svg" viewBox="0 0 24 24">
  <path id="hypermiling" d="M 5,10 l 6,0 0.33,0.06 0.29,0.15 0.22,0.24 0.13,0.3 -0.05,0.18 -0.17,0.07 -1.75,0 -0.39,0.08 -0.32,0.21 -0.21,0.32 -0.08,0.39 0,6 0.08,0.39 0.21,0.32 0.32,0.21 0.39,0.08 2.75,0 0.18,0.07 0.07,0.18 0,1.5 -0.07,0.18 -0.18,0.07 -9.5,0 -0.18,-0.07 -0.07,-0.18 0,-1.5 0.07,-0.18 0.18,-0.07 0.5,0 0.18,-0.07 0.07,-0.18 0,-7.75 0.08,-0.39 0.21,-0.32 0.32,-0.21 0.39,-0.08 Z M 5,2.5 l 6,0 0.39,0.08 0.32,0.21 0.21,0.32 0.08,0.39 0,4.5 -0.08,0.39 -0.21,0.32 -0.32,0.21 -0.39,0.08 -6,0 -0.39,-0.08 -0.32,-0.21 -0.21,-0.32 -0.08,-0.39 0,-4.5 0.08,-0.39 0.21,-0.32 0.32,-0.21 0.39,-0.08 Z M 6,4 l -0.39,0.08 -0.32,0.21 -0.21,0.32 -0.08,0.39 0,1 0.08,0.39 0.21,0.32 0.32,0.21 0.39,0.08 4,0 0.39,-0.08 0.32,-0.21 0.21,-0.32 0.08,-0.39 0,-1 -0.08,-0.39 -0.21,-0.32 -0.32,-0.21 -0.39,-0.08 -4,0 Z M 16,11 l -0.78,-0.16 -0.63,-0.43 -0.43,-0.63 -0.16,-0.78 0.09,-0.75 0.22,-0.72 0.32,-0.67 0.37,-0.61 0.37,-0.51 0.32,-0.4 0.22,-0.25 0.09,-0.09 0.09,0.09 0.22,0.25 0.32,0.4 0.37,0.51 0.37,0.61 0.32,0.67 0.22,0.72 0.09,0.75 -0.16,0.78 -0.43,0.63 -0.63,0.43 -0.78,0.16 Z M 19.53,12.47 l 2.53,2.53 -2.53,2.53 -1.06,-1.06 1.47,-1.47 -1.47,-1.47 1.06,-1.06 Z M 11.53,12.47 l 2.53,2.53 -2.53,2.53 -1.06,-1.06 1.47,-1.47 -1.47,-1.47 1.06,-1.06 Z M 15.53,12.47 l 2.53,2.53 -2.53,2.53 -1.06,-1.06 1.47,-1.47 -1.47,-1.47 1.06,-1.06 Z" fill-rule="evenodd" fill="#000000" />
</svg>