<svg xmlns="http://www.w3.org/2000/svg" viewBox="0 0 24 24">
  <path id="import" d="M 6,12 l 0,5 0.08,0.39 0.21,0.32 0.32,0.21 0.39,0.08 10,0 0.39,-0.08 0.32,-0.21 0.21,-0.32 0.08,-0.39 0,-5 -0.08,-0.39 -0.21,-0.32 -0.32,-0.21 -0.39,-0.08 -1,0 0,-2 1,0 0.6,0.06 0.57,0.18 0.51,0.27 0.44,0.37 0.37,0.44 0.27,0.51 0.18,0.57 0.06,0.6 0,5 -0.06,0.6 -0.18,0.57 -0.27,0.51 -0.37,0.44 -0.44,0.37 -0.51,0.27 -0.57,0.18 -0.6,0.06 -10,0 -0.6,-0.06 -0.57,-0.18 -0.51,-0.27 -0.44,-0.37 -0.37,-0.44 -0.27,-0.51 -0.18,-0.57 -0.06,-0.6 0,-5 0.06,-0.6 0.18,-0.57 0.27,-0.51 0.37,-0.44 0.44,-0.37 0.51,-0.27 0.57,-0.18 0.6,-0.06 1,0 0,2 -1,0 -0.39,0.08 -0.32,0.21 -0.21,0.32 -0.08,0.39 Z M 12,17 l -4,-4 0,-1 2.5,0.5 0,-7.5 3,0 0,7.5 2.5,-0.5 0,1 -4,4 Z" fill-rule="evenodd" fill="#000000" />
</svg>