<svg xmlns="http://www.w3.org/2000/svg" viewBox="0 0 24 24">
  <path id="infinity" d="M 21.88,13.03 l -0.32,0.95 -0.5,0.85 -0.64,0.72 -0.74,0.6 -0.83,0.45 -0.91,0.3 -0.94,0.1 -0.88,-0.08 -0.77,-0.2 -0.65,-0.28 -0.53,-0.32 -0.28,-0.29 -0.13,-0.36 0,-0.38 0.16,-0.37 0.28,-0.27 0.36,-0.14 0.38,0 0.37,0.16 0.71,0.36 0.45,0.12 0.53,0.05 0.52,-0.06 0.53,-0.17 0.51,-0.28 0.48,-0.38 0.4,-0.46 0.3,-0.51 0.19,-0.56 0.07,-0.58 -0.06,-0.6 -0.18,-0.57 -0.28,-0.51 -0.37,-0.44 -0.44,-0.37 -0.51,-0.27 -0.56,-0.18 -0.6,-0.06 -0.54,0.04 -0.46,0.09 -0.66,0.3 -0.37,0.3 -0.12,0.14 0,0 0,0 -0.06,0.09 -3.98,5.24 0,0 -0.13,0.18 -0.22,0.25 -0.3,0.29 -0.41,0.31 -0.51,0.29 -0.62,0.25 -0.74,0.17 -0.85,0.06 -1,-0.1 -0.93,-0.29 -0.84,-0.46 -0.75,-0.61 -0.61,-0.74 -0.47,-0.85 -0.3,-0.94 -0.1,-1.01 0.11,-1.02 0.31,-0.94 0.48,-0.85 0.63,-0.74 0.76,-0.6 0.84,-0.46 0.91,-0.29 0.96,-0.1 0.92,0.08 0.8,0.21 0.66,0.29 0.53,0.34 0.27,0.29 0.13,0.36 -0.02,0.38 -0.16,0.36 -0.3,0.27 -0.36,0.13 -0.38,-0.01 -0.36,-0.17 -0.68,-0.36 -0.48,-0.12 -0.57,-0.05 -0.57,0.06 -0.54,0.18 -0.51,0.28 -0.45,0.37 -0.38,0.44 -0.3,0.51 -0.19,0.56 -0.06,0.6 0.06,0.6 0.18,0.56 0.28,0.51 0.37,0.45 0.45,0.37 0.51,0.27 0.55,0.18 0.6,0.06 0.52,-0.04 0.45,-0.1 0.64,-0.3 0.37,-0.3 0.12,-0.15 0,0 0.08,-0.11 3.98,-5.24 0,0 0.13,-0.18 0.22,-0.24 0.31,-0.29 0.41,-0.3 0.51,-0.28 0.63,-0.24 0.74,-0.17 0.86,-0.06 1,0.1 0.94,0.29 0.84,0.46 0.75,0.61 0.61,0.74 0.46,0.85 0.3,0.94 0.1,1.01 Z" fill-rule="evenodd" fill="#000000" />
</svg>