<svg xmlns="http://www.w3.org/2000/svg" viewBox="0 0 24 24">
  <path id="info" d="M 12,21 l -1.81,-0.18 -1.69,-0.53 -1.53,-0.83 -1.33,-1.1 -1.1,-1.33 -0.83,-1.53 -0.53,-1.69 -0.18,-1.81 0.18,-1.81 0.53,-1.69 0.83,-1.53 1.1,-1.33 1.33,-1.1 1.53,-0.83 1.69,-0.53 1.81,-0.18 1.81,0.18 1.69,0.53 1.53,0.83 1.33,1.1 1.1,1.33 0.83,1.53 0.53,1.69 0.18,1.81 -0.18,1.81 -0.53,1.69 -0.83,1.53 -1.1,1.33 -1.33,1.1 -1.53,0.83 -1.69,0.53 -1.81,0.18 Z M 12,19.4 l 1.49,-0.15 1.39,-0.43 1.26,-0.68 1.09,-0.91 0.91,-1.09 0.68,-1.26 0.43,-1.39 0.15,-1.49 -0.15,-1.49 -0.43,-1.39 -0.68,-1.26 -0.91,-1.09 -1.09,-0.91 -1.26,-0.68 -1.39,-0.43 -1.49,-0.15 -1.49,0.15 -1.39,0.43 -1.26,0.68 -1.09,0.91 -0.91,1.09 -0.68,1.26 -0.43,1.39 -0.15,1.49 0.15,1.49 0.43,1.39 0.68,1.26 0.91,1.09 1.09,0.91 1.26,0.68 1.39,0.43 1.49,0.15 Z M 10.78,11.4 l 2.43,0 0,5.6 -2.43,0 0,-5.6 Z M 12,9.83 l -0.54,-0.11 -0.47,-0.31 -0.31,-0.46 -0.1,-0.55 0.1,-0.53 0.31,-0.46 0.46,-0.31 0.55,-0.1 0.55,0.1 0.46,0.31 0.31,0.45 0.1,0.54 -0.1,0.56 -0.31,0.45 -0.46,0.31 -0.55,0.11 Z" fill-rule="evenodd" fill="#000000" />
</svg>