<svg xmlns="http://www.w3.org/2000/svg" viewBox="0 0 24 24">
  <path id="intakeTrumpets" d="M 7,14 l 1.25,0 0.18,0.07 0.07,0.18 0,2.5 -0.07,0.18 -0.18,0.07 -1.25,0 0,0.5 -0.16,0.58 -0.43,0.48 -0.63,0.32 -0.78,0.12 -0.78,-0.12 -0.63,-0.32 -0.43,-0.48 -0.16,-0.58 0,-0.5 -0.5,0 -0.58,-0.12 -0.48,-0.32 -0.32,-0.48 -0.12,-0.58 0.12,-0.58 0.32,-0.48 0.48,-0.32 0.58,-0.12 0.5,0 0,-0.51 -0.42,-0.3 -0.31,-0.36 -0.2,-0.4 -0.07,-0.43 0.06,-0.4 0.18,-0.38 0.27,-0.34 0.37,-0.29 0.95,-0.43 1.17,-0.16 1.17,0.16 0.95,0.43 0.37,0.29 0.27,0.34 0.18,0.38 0.06,0.4 -0.07,0.43 -0.2,0.4 -0.31,0.36 -0.42,0.3 0,0.51 Z M 21,17.5 l -0.16,0.58 -0.43,0.48 -0.63,0.32 -0.78,0.12 -0.78,-0.12 -0.63,-0.32 -0.43,-0.48 -0.16,-0.58 0,-4.01 -0.42,-0.3 -0.31,-0.36 -0.2,-0.4 -0.07,-0.43 0.06,-0.4 0.18,-0.38 0.27,-0.34 0.37,-0.29 0.95,-0.43 1.17,-0.16 1.17,0.16 0.95,0.43 0.37,0.29 0.27,0.34 0.18,0.38 0.06,0.4 -0.07,0.43 -0.2,0.4 -0.31,0.36 -0.42,0.3 0,0.51 0.5,0 0.58,0.12 0.48,0.32 0.32,0.48 0.12,0.58 -0.12,0.58 -0.32,0.48 -0.48,0.32 -0.58,0.12 -0.5,0 0,0.5 Z M 9,12 l 0.06,-0.4 0.18,-0.38 0.27,-0.34 0.37,-0.29 0.95,-0.43 1.17,-0.16 1.17,0.16 0.95,0.43 0.37,0.29 0.27,0.34 0.18,0.38 0.06,0.4 -0.07,0.43 -0.2,0.4 -0.31,0.36 -0.42,0.3 0,0.51 1.25,0 0.18,0.07 0.07,0.18 0,2.5 -0.07,0.18 -0.18,0.07 -1.25,0 0,0.5 -0.16,0.58 -0.43,0.48 -0.63,0.32 -0.78,0.12 -0.78,-0.12 -0.63,-0.32 -0.43,-0.48 -0.16,-0.58 0,-4.01 -0.42,-0.3 -0.31,-0.36 -0.2,-0.4 -0.07,-0.43 Z M 14,8.46 l -0.11,0.19 -0.27,0.15 -0.31,0.06 -0.24,-0.05 -0.48,-0.22 -0.59,-0.09 -0.59,0.09 -0.48,0.22 -0.24,0.05 -0.31,-0.06 -0.27,-0.15 -0.11,-0.19 0,-0.97 -0.42,-0.3 -0.31,-0.36 -0.2,-0.4 -0.07,-0.43 0.06,-0.4 0.18,-0.38 0.27,-0.34 0.37,-0.29 0.95,-0.43 1.17,-0.16 1.17,0.16 0.95,0.43 0.37,0.29 0.27,0.34 0.18,0.38 0.06,0.4 -0.07,0.43 -0.2,0.4 -0.31,0.36 -0.42,0.3 0,0.97 Z M 21,8.46 l -0.11,0.19 -0.27,0.15 -0.31,0.06 -0.24,-0.05 -0.48,-0.22 -0.59,-0.09 -0.59,0.09 -0.48,0.22 -0.24,0.05 -0.31,-0.06 -0.27,-0.15 -0.11,-0.19 0,-0.97 -0.42,-0.3 -0.31,-0.36 -0.2,-0.4 -0.07,-0.43 0.06,-0.4 0.18,-0.38 0.27,-0.34 0.37,-0.29 0.95,-0.43 1.17,-0.16 1.17,0.16 0.95,0.43 0.37,0.29 0.27,0.34 0.18,0.38 0.06,0.4 -0.07,0.43 -0.2,0.4 -0.31,0.36 -0.42,0.3 0,0.97 Z M 7,8.46 l -0.11,0.19 -0.27,0.15 -0.31,0.06 -0.24,-0.05 -0.48,-0.22 -0.59,-0.09 -0.59,0.09 -0.48,0.22 -0.24,0.05 -0.31,-0.06 -0.27,-0.15 -0.11,-0.19 0,-0.97 -0.42,-0.3 -0.31,-0.36 -0.2,-0.4 -0.07,-0.43 0.06,-0.4 0.18,-0.38 0.27,-0.34 0.37,-0.29 0.95,-0.43 1.17,-0.16 1.17,0.16 0.95,0.43 0.37,0.29 0.27,0.34 0.18,0.38 0.06,0.4 -0.07,0.43 -0.2,0.4 -0.31,0.36 -0.42,0.3 0,0.97 Z M 3.5,6.5 l 0.12,0.39 0.32,0.32 0.48,0.21 0.58,0.08 0.58,-0.08 0.48,-0.21 0.32,-0.32 0.12,-0.39 -0.12,-0.39 -0.32,-0.32 -0.48,-0.21 -0.58,-0.08 -0.58,0.08 -0.48,0.21 -0.32,0.32 -0.12,0.39 Z M 10.5,6.5 l 0.12,0.39 0.32,0.32 0.48,0.21 0.58,0.08 0.58,-0.08 0.48,-0.21 0.32,-0.32 0.12,-0.39 -0.12,-0.39 -0.32,-0.32 -0.48,-0.21 -0.58,-0.08 -0.58,0.08 -0.48,0.21 -0.32,0.32 -0.12,0.39 Z M 17.5,6.5 l 0.12,0.39 0.32,0.32 0.48,0.21 0.58,0.08 0.58,-0.08 0.48,-0.21 0.32,-0.32 0.12,-0.39 -0.12,-0.39 -0.32,-0.32 -0.48,-0.21 -0.58,-0.08 -0.58,0.08 -0.48,0.21 -0.32,0.32 -0.12,0.39 Z M 3.7,12 l -0.15,0.24 -0.05,0.26 0.12,0.39 0.32,0.32 0.48,0.21 0.58,0.08 0.58,-0.08 0.48,-0.21 0.32,-0.32 0.12,-0.39 -0.05,-0.26 -0.15,-0.24 -0.54,-0.36 -0.76,-0.14 -0.76,0.14 -0.54,0.36 Z M 10.7,12 l -0.15,0.24 -0.05,0.26 0.12,0.39 0.32,0.32 0.48,0.21 0.58,0.08 0.58,-0.08 0.48,-0.21 0.32,-0.32 0.12,-0.39 -0.05,-0.26 -0.15,-0.24 -0.54,-0.36 -0.76,-0.14 -0.76,0.14 -0.54,0.36 Z M 17.7,12 l -0.15,0.24 -0.05,0.26 0.12,0.39 0.32,0.32 0.48,0.21 0.58,0.08 0.58,-0.08 0.48,-0.21 0.32,-0.32 0.12,-0.39 -0.05,-0.26 -0.15,-0.24 -0.54,-0.36 -0.76,-0.14 -0.76,0.14 -0.54,0.36 Z" fill-rule="evenodd" fill="#000000" />
</svg>