<svg xmlns="http://www.w3.org/2000/svg" viewBox="0 0 24 24">
  <path id="jointCycleMultiple" d="M 7,2 l 0.35,0.15 0.15,0.35 0,1.5 1.09,0.36 0.37,0.2 0.28,0.3 0.26,0.38 0.37,0.8 0.13,0.87 0,2.84 -0.06,0.29 -0.16,0.24 -0.24,0.16 -0.29,0.06 -0.29,-0.06 -0.24,-0.16 -0.16,-0.24 -0.06,-0.29 0,-2 -0.1,-0.49 -0.27,-0.39 -0.39,-0.27 -0.49,-0.1 -1.5,0 -0.49,0.1 -0.39,0.27 -0.27,0.39 -0.1,0.49 0,2 -0.06,0.29 -0.16,0.24 -0.24,0.16 -0.29,0.06 -0.29,-0.06 -0.24,-0.16 -0.16,-0.24 -0.06,-0.29 0,-2.84 0.13,-0.87 0.37,-0.8 0.26,-0.38 0.28,-0.3 0.37,-0.2 1.09,-0.36 0,-1.5 0.15,-0.35 0.35,-0.15 1,0 Z M 14.25,4 l 0.35,0.15 0.15,0.35 0,1 0.9,0.36 0.3,0.19 0.22,0.29 0.22,0.45 0.11,0.45 0,2.14 -0.05,0.24 -0.13,0.2 -0.2,0.13 -0.24,0.05 -0.25,-0.05 -0.2,-0.13 -0.13,-0.2 -0.05,-0.24 0,-1.13 -0.06,-0.29 -0.16,-0.24 -0.24,-0.16 -0.29,-0.06 -1,0 -0.29,0.06 -0.24,0.16 -0.16,0.24 -0.06,0.29 0,1.13 -0.05,0.24 -0.13,0.2 -0.2,0.13 -0.24,0.05 -0.25,-0.05 -0.2,-0.13 -0.13,-0.2 -0.05,-0.24 0,-2.14 0.11,-0.45 0.22,-0.45 0.22,-0.29 0.3,-0.19 0.9,-0.36 0,-1 0.15,-0.35 0.35,-0.15 0.5,0 Z M 15.92,17.92 l 0.07,0.14 -0.03,0.15 -0.11,0.11 -0.16,0.02 -0.93,-0.19 0.22,0.85 0.07,0.13 0.31,0.41 0.39,0.33 0.13,0.08 0.47,0.2 0.5,0.1 0.15,0 0.58,-0.08 0.55,-0.22 0.37,0.65 0.38,0.65 -0.91,0.37 -0.97,0.13 -0.25,-0.01 -0.84,-0.15 -0.78,-0.34 -0.21,-0.13 -0.66,-0.56 -0.51,-0.68 -0.11,-0.22 -0.27,-0.74 -0.12,-0.77 -0.94,0.19 -0.16,-0.02 -0.11,-0.11 -0.03,-0.15 0.07,-0.14 1.92,-1.92 1.92,1.92 Z M 17,14.25 l 0.85,0.1 0.81,0.29 0.22,0.11 0.68,0.51 0.56,0.66 0.13,0.21 0.35,0.83 0.15,0.89 0.94,-0.19 0.16,0.02 0.11,0.11 0.03,0.15 -0.07,0.14 -1.92,1.92 -1.92,-1.92 -0.07,-0.14 0.03,-0.15 0.11,-0.11 0.16,-0.02 0.93,0.19 -0.09,-0.5 -0.2,-0.47 -0.08,-0.13 -0.33,-0.39 -0.41,-0.31 -0.13,-0.07 -0.49,-0.17 -0.51,-0.06 -0.58,0.08 -0.54,0.22 -0.38,-0.65 -0.37,-0.65 0.9,-0.37 0.97,-0.13 Z M 7,7.5 l 0.35,0.15 0.15,0.35 0,5.5 -0.15,0.35 -0.35,0.15 -1,0 -0.35,-0.15 -0.15,-0.35 0,-5.5 0.15,-0.35 0.35,-0.15 1,0 Z M 14.25,11 l 0.35,0.15 0.15,0.35 0,2 -0.15,0.35 -0.35,0.15 -0.5,0 -0.35,-0.15 -0.15,-0.35 0,-2 0.15,-0.35 0.35,-0.15 0.5,0 Z" fill-rule="evenodd" fill="#000000" />
</svg>