<svg xmlns="http://www.w3.org/2000/svg" viewBox="0 0 24 24">
  <path id="jointUnlockedMultiple" d="M 8,2 l 1,0 0.39,0.08 0.32,0.21 0.21,0.32 0.08,0.39 0,2 1.17,0.29 0.72,0.35 0.53,0.6 1.18,2.07 0.3,0.72 0.1,0.77 0,3.95 -0.1,0.49 -0.27,0.39 -0.39,0.27 -0.49,0.1 -0.49,-0.1 -0.39,-0.27 -0.27,-0.39 -0.1,-0.49 0,-3.25 -0.16,-0.78 -0.43,-0.63 -0.63,-0.43 -0.78,-0.16 -2,0 -0.78,0.16 -0.63,0.43 -0.43,0.63 -0.16,0.78 0,3.25 -0.1,0.49 -0.27,0.39 -0.39,0.27 -0.49,0.1 -0.49,-0.1 -0.39,-0.27 -0.27,-0.39 -0.1,-0.49 0,-3.95 0.1,-0.77 0.3,-0.72 1.18,-2.07 0.53,-0.6 0.72,-0.35 1.17,-0.29 0,-2 0.08,-0.39 0.21,-0.32 0.32,-0.21 0.39,-0.08 Z M 19,10 l -1,0 -0.58,0.12 -0.48,0.32 -0.32,0.48 -0.12,0.58 0,2.25 -0.06,0.29 -0.16,0.24 -0.24,0.16 -0.29,0.06 -0.29,-0.06 -0.24,-0.16 -0.16,-0.24 -0.06,-0.29 0,-3.3 0.06,-0.43 0.19,-0.4 0.46,-0.69 0.34,-0.36 0.44,-0.23 0.33,-0.11 0.28,-0.15 0.21,-0.22 0.14,-0.27 0.05,-0.31 0,-1.78 0.15,-0.35 0.35,-0.15 1,0 0.35,0.15 0.15,0.35 0,1.78 0.05,0.31 0.14,0.27 0.21,0.22 0.28,0.15 0.33,0.11 0.44,0.23 0.34,0.36 0.46,0.69 0.19,0.4 0.06,0.43 0,3.3 -0.06,0.29 -0.16,0.24 -0.24,0.16 -0.29,0.06 -0.29,-0.06 -0.24,-0.16 -0.16,-0.24 -0.06,-0.29 0,-2.25 -0.12,-0.58 -0.32,-0.48 -0.48,-0.32 -0.58,-0.12 Z M 8,16 l 1,0 0.39,0.08 0.32,0.21 0.21,0.32 0.08,0.39 0,4 -0.08,0.39 -0.21,0.32 -0.32,0.21 -0.39,0.08 -1,0 -0.39,-0.08 -0.32,-0.21 -0.21,-0.32 -0.08,-0.39 0,-4 0.08,-0.39 0.21,-0.32 0.32,-0.21 0.39,-0.08 Z M 17.5,18.5 l 0,-3 0.15,-0.35 0.35,-0.15 1,0 0.35,0.15 0.15,0.35 0,3 -0.15,0.35 -0.35,0.15 -1,0 -0.35,-0.15 -0.15,-0.35 Z" fill-rule="evenodd" fill="#000000" />
</svg>