<svg xmlns="http://www.w3.org/2000/svg" viewBox="0 0 24 24">
  <path id="jointLocked" d="M 11.5,2 l 1,0 0.39,0.08 0.32,0.21 0.21,0.32 0.08,0.39 0,4 1.17,0.29 0.72,0.35 0.53,0.6 1.18,2.07 0.3,0.72 0.1,0.77 0,3.95 -0.1,0.49 -0.27,0.39 -0.39,0.27 -0.49,0.1 -0.49,-0.1 -0.39,-0.27 -0.27,-0.39 -0.1,-0.49 0,-3.25 -0.16,-0.78 -0.43,-0.63 -0.63,-0.43 -0.78,-0.16 -2,0 -0.78,0.16 -0.63,0.43 -0.43,0.63 -0.16,0.78 0,3.25 -0.1,0.49 -0.27,0.39 -0.39,0.27 -0.49,0.1 -0.49,-0.1 -0.39,-0.27 -0.27,-0.39 -0.1,-0.49 0,-3.95 0.1,-0.77 0.3,-0.72 1.18,-2.07 0.53,-0.6 0.72,-0.35 1.17,-0.29 0,-4 0.08,-0.39 0.21,-0.32 0.32,-0.21 0.39,-0.08 Z M 11.5,12 l 1,0 0.39,0.08 0.32,0.21 0.21,0.32 0.08,0.39 0,8 -0.08,0.39 -0.21,0.32 -0.32,0.21 -0.39,0.08 -1,0 -0.39,-0.08 -0.32,-0.21 -0.21,-0.32 -0.08,-0.39 0,-8 0.08,-0.39 0.21,-0.32 0.32,-0.21 0.39,-0.08 Z" fill-rule="evenodd" fill="#000000" />
</svg>