<svg xmlns="http://www.w3.org/2000/svg" viewBox="0 0 24 24">
  <path id="jump" d="M 21,10 l -0.84,1.39 -0.85,1.25 -0.88,1.11 -0.9,0.98 1.32,4.27 2.15,0 0,2 -19,0 -0.39,-0.08 -0.32,-0.21 -0.21,-0.32 -0.08,-0.39 0.08,-0.39 0.21,-0.32 0.32,-0.21 0.39,-0.08 1.96,0 2.51,-0.51 2.39,-0.78 2.25,-1.02 2.09,-1.23 1.9,-1.42 1.7,-1.56 1.47,-1.69 1.23,-1.79 1.5,1 Z M 14.58,6.18 l -1.58,-1.21 5.42,-2.14 -0.66,5.79 -1.52,-1.17 -1.02,1.43 -1.07,1.31 -1.16,1.21 -1.27,1.11 -1.41,1.01 -1.57,0.91 -1.76,0.83 -1.98,0.74 -1,-4 1.68,-0.39 1.57,-0.47 1.45,-0.57 1.36,-0.66 1.26,-0.77 1.17,-0.87 1.08,-0.99 1.01,-1.1 Z" fill-rule="evenodd" fill="#000000" />
</svg>