<svg xmlns="http://www.w3.org/2000/svg" viewBox="0 0 48 48">
  <path id="jumpOverBump" d="M 34.94,29.49 l 0.58,0.67 0.65,0.6 0.7,0.51 0.76,0.44 0.8,0.34 0.84,0.25 0.87,0.15 0.89,0.05 3.97,0 0,5 -3.97,0 -1.47,-0.09 -1.44,-0.25 -1.38,-0.41 -1.33,-0.56 -1.25,-0.72 -1.17,-0.85 -1.07,-0.99 -0.95,-1.11 -0.9,-0.98 -1.02,-0.8 -1.13,-0.61 -1.21,-0.4 -1.26,-0.2 -1.28,0.01 -1.27,0.23 -1.25,0.45 -0.06,0.03 -3.03,1.51 -3.62,1.7 -3.69,1.51 -3.77,1.32 -3.84,1.13 -1.28,-4.84 3.59,-1.05 3.52,-1.24 3.47,-1.41 3.38,-1.59 3.09,-1.54 0.12,-0.06 2.07,-0.75 2.11,-0.38 2.12,-0.02 2.08,0.33 1.99,0.67 1.87,1 1.7,1.32 1.47,1.63 Z M 39.51,12.43 l -7.71,6.96 -0.24,0.12 -0.25,-0.02 -0.21,-0.13 -0.12,-0.24 -0.55,-2.55 -2.55,0.65 -2.5,0.79 -2.45,0.93 -2.38,1.07 -2.32,1.21 -2.26,1.34 -2.17,1.46 -2.09,1.6 -1.64,1.32 -3.14,-3.88 1.63,-1.33 2.33,-1.77 2.42,-1.63 2.5,-1.49 2.58,-1.34 2.66,-1.19 2.72,-1.03 2.78,-0.88 2.83,-0.71 -0.58,-2.73 0.02,-0.26 0.13,-0.21 0.23,-0.12 0.26,0.01 9.89,3.2 0.22,0.14 0.12,0.23 -0.01,0.25 -0.15,0.23 Z" fill-rule="evenodd" fill="#000000" />
</svg>