<svg xmlns="http://www.w3.org/2000/svg" viewBox="0 0 24 24">
  <path id="kbArrowsUp" d="M 19,12 l 0.62,0 0.47,0.02 0.68,0.13 0.64,0.44 0.44,0.64 0.13,0.68 0.02,0.47 0,0.62 0,0.62 -0.02,0.47 -0.13,0.68 -0.09,0.17 -0.42,0.54 -0.57,0.37 -0.15,0.05 -0.63,0.09 -0.44,0.01 -0.55,0 -0.55,0 -0.44,-0.01 -0.63,-0.09 -0.15,-0.05 -0.57,-0.37 -0.42,-0.54 -0.09,-0.17 -0.13,-0.68 -0.02,-0.47 0,-0.62 0,-0.55 0.01,-0.44 0.09,-0.63 0.05,-0.15 0.37,-0.57 0.54,-0.42 0.17,-0.09 0.68,-0.13 0.47,-0.02 0.62,0 Z M 12,12 l 0.62,0 0.47,0.02 0.68,0.13 0.64,0.44 0.44,0.64 0.13,0.68 0.02,0.47 0,0.62 0,0.62 -0.02,0.47 -0.13,0.68 -0.09,0.17 -0.42,0.54 -0.57,0.37 -0.15,0.05 -0.63,0.09 -0.44,0.01 -0.55,0 -0.55,0 -0.44,-0.01 -0.63,-0.09 -0.15,-0.05 -0.57,-0.37 -0.42,-0.54 -0.09,-0.17 -0.13,-0.68 -0.02,-0.47 0,-0.62 0,-0.55 0.01,-0.44 0.09,-0.63 0.05,-0.15 0.37,-0.57 0.54,-0.42 0.17,-0.09 0.68,-0.13 0.47,-0.02 0.62,0 Z M 5,12 l 0.62,0 0.47,0.02 0.68,0.13 0.64,0.44 0.44,0.64 0.13,0.68 0.02,0.47 0,0.62 0,0.62 -0.02,0.47 -0.13,0.68 -0.09,0.17 -0.42,0.54 -0.57,0.37 -0.15,0.05 -0.63,0.09 -0.44,0.01 -0.55,0 -0.55,0 -0.44,-0.01 -0.63,-0.09 -0.15,-0.05 -0.57,-0.37 -0.42,-0.54 -0.09,-0.17 -0.13,-0.68 -0.02,-0.47 0,-0.62 0,-0.55 0.01,-0.44 0.09,-0.63 0.05,-0.15 0.37,-0.57 0.54,-0.42 0.17,-0.09 0.68,-0.13 0.47,-0.02 0.62,0 Z M 12,5 l 0.62,0 0.47,0.02 0.68,0.13 0.64,0.44 0.44,0.64 0.13,0.68 0.02,0.47 0,0.62 0,0.62 -0.02,0.47 -0.13,0.68 -0.44,0.64 -0.64,0.44 -0.68,0.13 -0.47,0.02 -0.62,0 -0.62,0 -0.47,-0.02 -0.68,-0.13 -0.64,-0.44 -0.44,-0.64 -0.13,-0.68 -0.02,-0.47 0,-0.62 0,-0.62 0.02,-0.47 0.13,-0.68 0.44,-0.64 0.64,-0.44 0.68,-0.13 0.47,-0.02 0.62,0 Z M 19,13.5 l -0.6,0 -0.39,0.02 -0.19,0.02 -0.01,0 -0.22,0.18 -0.05,0.09 0,0.01 -0.02,0.19 -0.02,0.39 0,0.6 0,0.6 0.02,0.39 0.02,0.19 0,0.01 0.05,0.09 0.22,0.18 0.01,0 0.19,0.02 0.39,0.02 0.6,0 0.6,0 0.39,-0.02 0.19,-0.02 0.01,0 0.09,-0.04 0.18,-0.23 0,-0.01 0.02,-0.19 0.02,-0.39 0,-0.6 0,-0.6 -0.02,-0.39 -0.02,-0.19 0,-0.01 -0.18,-0.22 -0.09,-0.05 -0.01,0 -0.19,-0.02 -0.39,-0.02 -0.6,0 Z M 12,13.5 l -0.6,0 -0.39,0.02 -0.19,0.02 -0.01,0 -0.22,0.18 -0.05,0.09 0,0.01 -0.02,0.19 -0.02,0.39 0,0.6 0,0.6 0.02,0.39 0.02,0.19 0,0.01 0.05,0.09 0.22,0.18 0.01,0 0.19,0.02 0.39,0.02 0.6,0 0.6,0 0.39,-0.02 0.19,-0.02 0.01,0 0.09,-0.04 0.18,-0.23 0,-0.01 0.02,-0.19 0.02,-0.39 0,-0.6 0,-0.6 -0.02,-0.39 -0.02,-0.19 0,-0.01 -0.18,-0.22 -0.09,-0.05 -0.01,0 -0.19,-0.02 -0.39,-0.02 -0.6,0 Z M 5,13.5 l -0.6,0 -0.39,0.02 -0.19,0.02 -0.01,0 -0.23,0.18 -0.04,0.09 0,0.01 -0.02,0.19 -0.02,0.39 0,0.6 0,0.6 0.02,0.39 0.02,0.19 0,0.01 0.04,0.09 0.23,0.18 0.01,0 0.19,0.02 0.39,0.02 0.6,0 0.6,0 0.39,-0.02 0.19,-0.02 0.01,0 0.09,-0.04 0.18,-0.23 0,-0.01 0.02,-0.19 0.02,-0.39 0,-0.6 0,-0.6 -0.02,-0.39 -0.02,-0.19 0,-0.01 -0.18,-0.22 -0.09,-0.05 -0.01,0 -0.19,-0.02 -0.39,-0.02 -0.6,0 Z" fill-rule="evenodd" fill="#000000" />
</svg>