<svg xmlns="http://www.w3.org/2000/svg" viewBox="0 0 24 24">
  <path id="kbArrowsSolid" d="M 19,12 l 0.62,0 0.47,0.02 0.68,0.13 0.64,0.44 0.44,0.64 0.13,0.68 0.02,0.47 0,0.62 0,0.62 -0.02,0.47 -0.13,0.68 -0.44,0.64 -0.64,0.44 -0.68,0.13 -0.47,0.02 -0.62,0 -0.62,0 -0.47,-0.02 -0.68,-0.13 -0.64,-0.44 -0.44,-0.64 -0.13,-0.68 -0.02,-0.47 0,-0.62 0,-0.62 0.02,-0.47 0.13,-0.68 0.44,-0.64 0.64,-0.44 0.68,-0.13 0.47,-0.02 0.62,0 Z M 12,12 l 0.62,0 0.47,0.02 0.68,0.13 0.64,0.44 0.44,0.64 0.13,0.68 0.02,0.47 0,0.62 0,0.62 -0.02,0.47 -0.13,0.68 -0.44,0.64 -0.64,0.44 -0.68,0.13 -0.47,0.02 -0.62,0 -0.62,0 -0.47,-0.02 -0.68,-0.13 -0.64,-0.44 -0.44,-0.64 -0.13,-0.68 -0.02,-0.47 0,-0.62 0,-0.62 0.02,-0.47 0.13,-0.68 0.44,-0.64 0.64,-0.44 0.68,-0.13 0.47,-0.02 0.62,0 Z M 12,5 l 0.62,0 0.47,0.02 0.68,0.13 0.64,0.44 0.44,0.64 0.13,0.68 0.02,0.47 0,0.62 0,0.62 -0.02,0.47 -0.13,0.68 -0.44,0.64 -0.64,0.44 -0.68,0.13 -0.47,0.02 -0.62,0 -0.62,0 -0.47,-0.02 -0.68,-0.13 -0.64,-0.44 -0.44,-0.64 -0.13,-0.68 -0.02,-0.47 0,-0.62 0,-0.62 0.02,-0.47 0.13,-0.68 0.44,-0.64 0.64,-0.44 0.68,-0.13 0.47,-0.02 0.62,0 Z M 5,12 l 0.62,0 0.47,0.02 0.68,0.13 0.64,0.44 0.44,0.64 0.13,0.68 0.02,0.47 0,0.62 0,0.62 -0.02,0.47 -0.13,0.68 -0.44,0.64 -0.64,0.44 -0.68,0.13 -0.47,0.02 -0.62,0 -0.62,0 -0.47,-0.02 -0.68,-0.13 -0.64,-0.44 -0.44,-0.64 -0.13,-0.68 -0.02,-0.47 0,-0.62 0,-0.62 0.02,-0.47 0.13,-0.68 0.44,-0.64 0.64,-0.44 0.68,-0.13 0.47,-0.02 0.62,0 Z" fill-rule="evenodd" fill="#000000" />
</svg>