<svg xmlns="http://www.w3.org/2000/svg" viewBox="0 0 24 24">
  <path id="keyboard" d="M 3,8 l 0.08,-0.39 0.21,-0.32 0.32,-0.21 0.39,-0.08 16,0 0.39,0.08 0.32,0.21 0.21,0.32 0.08,0.39 0,9 -0.08,0.39 -0.21,0.32 -0.32,0.21 -0.39,0.08 -16,0 -0.39,-0.08 -0.32,-0.21 -0.21,-0.32 -0.08,-0.39 0,-9 Z M 14,4 l -0.39,0.08 -0.32,0.21 -0.21,0.32 -0.08,0.39 0,0.5 -2,0 0,-0.5 0.06,-0.6 0.18,-0.57 0.27,-0.51 0.37,-0.44 0.44,-0.37 0.51,-0.27 0.57,-0.18 0.6,-0.06 3,0 0.39,0.08 0.32,0.21 0.21,0.32 0.08,0.39 -0.08,0.39 -0.21,0.32 -0.32,0.21 -0.39,0.08 -3,0 Z M 16,15 l -7.5,0 0,1.5 7.5,0 0,-1.5 Z M 5,15 l 0,1.5 2,0 0,-1.5 -2,0 Z M 7,12 l -2,0 0,1.5 2,0 0,-1.5 Z M 5,9 l 0,1.5 2,0 0,-1.5 -2,0 Z M 17.5,15 l 0,1.5 1.5,0 0,-1.5 -1.5,0 Z M 19,9 l -1.5,0 0,1.5 1.5,0 0,-1.5 Z M 19,12 l -1.5,0 0,1.5 1.5,0 0,-1.5 Z M 8.5,12 l 0,1.5 1.5,0 0,-1.5 -1.5,0 Z M 16,12 l -1.5,0 0,1.5 1.5,0 0,-1.5 Z M 11.5,12 l 0,1.5 1.5,0 0,-1.5 -1.5,0 Z M 10,9 l -1.5,0 0,1.5 1.5,0 0,-1.5 Z M 14.5,9 l 0,1.5 1.5,0 0,-1.5 -1.5,0 Z M 13,9 l -1.5,0 0,1.5 1.5,0 0,-1.5 Z" fill-rule="evenodd" fill="#000000" />
</svg>