<svg xmlns="http://www.w3.org/2000/svg" viewBox="0 0 24 24">
  <path id="keys2" d="M 12.12,12 l -0.22,0 0,6.59 -0.07,0.38 -0.22,0.32 -0.86,0.86 -0.26,0.14 -0.28,-0.04 -0.22,-0.17 -0.09,-0.29 0,-7.79 -1.5,0 0,8.07 -0.07,0.26 -0.19,0.18 -0.25,0.06 -0.27,-0.09 -0.27,-0.18 -0.33,-0.36 -0.12,-0.48 0,-7.46 -0.22,0 -0.33,-0.06 -0.28,-0.15 -0.22,-0.24 -0.14,-0.31 -0.59,-2.37 -0.12,-0.87 0.08,-0.88 0.5,-2.51 0.25,-0.65 0.44,-0.51 0.59,-0.33 0.68,-0.12 3.72,0 0.68,0.12 0.59,0.33 0.44,0.51 0.25,0.65 0.5,2.51 0.08,0.88 -0.12,0.87 -0.59,2.37 -0.13,0.31 -0.22,0.24 -0.29,0.15 -0.33,0.06 Z M 16.79,17.8 l -2.31,-4.39 -0.02,-0.94 0.09,-0.86 0.59,-2.37 0.14,-0.87 0.29,-0.29 0.12,-0.38 -0.05,-0.39 -0.24,-0.35 -0.22,-0.19 -0.49,-2.46 -0.07,-0.31 0.65,0.17 0.55,0.43 1.47,1.7 0.43,0.64 0.29,0.72 0.59,2.07 -0.03,0.57 -0.15,0.25 -0.22,0.19 -0.17,0.09 2.85,5.04 0.11,0.32 -0.02,0.35 -0.24,0.86 -0.3,0.44 -0.35,0.27 -0.42,0.32 -0.38,0.23 -0.4,0.13 -0.86,-0.02 -0.72,-0.35 -0.51,-0.62 Z M 10.51,8 l 0.47,-0.11 0.35,-0.31 0.17,-0.42 -0.04,-0.48 -0.33,-1 -0.15,-0.28 -0.21,-0.21 -0.28,-0.14 -0.31,-0.05 -1.56,0 -0.31,0.05 -0.27,0.14 -0.22,0.21 -0.15,0.28 -0.33,1 -0.04,0.48 0.18,0.42 0.34,0.31 0.47,0.11 2.22,0 Z" fill-rule="evenodd" fill="#000000" />
</svg>