<svg xmlns="http://www.w3.org/2000/svg" viewBox="0 0 24 24">
  <path id="keys1" d="M 17.21,2.86 l 0.02,0.06 0.05,0.18 0.17,0.65 0.25,0.92 0.29,1.09 0.3,1.12 0.28,1.03 0.22,0.83 0.08,0.29 0.05,0.2 0.05,0.51 -0.12,0.39 -0.29,0.27 -0.42,0.18 -0.44,0.11 -0.33,0.09 -0.21,0.06 -0.08,0.02 2.66,9.94 -0.05,0.38 -0.3,0.24 -0.84,0.22 -0.78,0.05 -0.74,-0.25 -1.26,-0.72 -0.58,-0.52 -0.35,-0.7 -0.56,-2.1 0.02,-0.2 0.14,-0.15 0.22,-0.23 0.2,-0.4 0.07,-0.61 -0.14,-0.87 -0.32,-0.83 -0.37,-0.49 -0.36,-0.25 -0.31,-0.08 -0.2,-0.08 -0.11,-0.16 -0.29,-1.05 -0.08,0.02 -0.22,0.06 -0.76,0.2 -0.42,0.07 -0.37,-0.07 -0.31,-0.27 -0.25,-0.5 -0.06,-0.21 -0.09,-0.31 -0.23,-0.84 -0.28,-1.03 -0.29,-1.12 -0.29,-1.07 -0.23,-0.92 -0.17,-0.64 -0.05,-0.17 -0.01,-0.06 -0.01,-0.14 0.04,-0.33 0.22,-0.43 0.52,-0.45 0.5,-0.24 0.72,-0.27 0.89,-0.28 0.96,-0.28 1.91,-0.46 0.8,-0.13 0.6,-0.05 0.41,0.04 0.33,0.09 0.4,0.27 0.17,0.26 0.03,0.12 Z M 8,3.97 l -0.32,0.58 -0.01,0.66 1.78,7.57 0.21,0.38 0.21,0.37 -0.02,0.43 -1.55,4.72 -0.11,0.14 -0.19,0.03 -0.69,-0.19 -0.7,-0.34 -0.52,-0.59 -0.43,-0.75 -0.25,-0.74 0.05,-0.78 1.35,-3.99 -0.93,-0.59 -0.51,-0.47 -0.32,-0.59 -0.1,-0.67 0.14,-0.68 1.52,-3.96 0.23,-0.35 0.33,-0.22 0.4,-0.08 0.4,0.1 0.03,0.01 Z M 15.46,6.74 l 0.3,-0.23 0.05,-0.38 -0.18,-0.67 -0.03,-0.09 -0.09,-0.22 -0.16,-0.29 -0.26,-0.33 -0.36,-0.29 -0.47,-0.22 -0.61,-0.08 -0.74,0.11 -0.66,0.27 -0.45,0.36 -0.28,0.42 -0.15,0.43 -0.05,0.4 0.01,0.34 0.04,0.24 0.01,0.08 0.19,0.68 0.23,0.3 0.38,0.05 3.28,-0.88 Z" fill-rule="evenodd" fill="#000000" />
</svg>