<svg xmlns="http://www.w3.org/2000/svg" viewBox="0 0 24 24">
  <path id="lampPost1" d="M 15.82,8.97 l -8.12,-3.65 -0.26,-0.18 -0.17,-0.26 -0.07,-0.3 0.04,-0.31 0.16,-0.29 0.25,-0.19 0.3,-0.1 0.33,0.03 8.07,2.26 1.17,0.49 0.98,0.75 0.98,-0.75 1.17,-0.49 1.35,-0.38 0,3 -0.82,0.37 -0.49,0.31 -0.37,0.43 -0.24,0.51 -0.08,0.57 0,0 0,11.21 -3,0 0,-11.21 -0.08,-0.57 -0.24,-0.51 -0.37,-0.43 -0.49,-0.31 Z M 10.5,11.5 l 1.25,7.89 -0.05,0.58 -0.28,0.48 -0.46,0.31 -0.58,0.07 -0.55,-0.06 -1.54,-0.3 -1.43,-0.56 -1.28,-0.79 -1.13,-0.99 -0.94,-1.17 -0.74,-1.32 -0.49,-1.45 -0.24,-1.55 0.11,-0.57 0.37,-0.44 2.98,-2.13 5,2 Z M 6.5,6 l 6,2.5 -1.03,1.03 -0.51,0.28 -0.57,-0.05 -3.58,-1.44 -0.31,-0.19 -0.21,-0.28 -0.1,-0.34 0.02,-0.36 0.29,-1.15 Z" fill-rule="evenodd" fill="#000000" />
</svg>