<svg xmlns="http://www.w3.org/2000/svg" viewBox="0 0 24 24">
  <path id="lampPost2" d="M 3,7.25 l 0.18,-0.88 0.48,-0.71 0.71,-0.48 0.88,-0.18 7.75,0 1.3,0.14 1.21,0.41 1.08,0.64 0.91,0.84 0.91,-0.84 1.08,-0.64 1.21,-0.41 1.3,-0.14 0,2.13 -0.62,0.21 -0.58,0.32 -0.51,0.39 -0.44,0.48 -0.35,0.54 -0.27,0.6 -0.17,0.64 -0.06,0.68 0,0.01 0,11 -3,0 0,-11 -0.08,-0.81 -0.23,-0.75 -0.37,-0.68 -0.49,-0.59 -0.59,-0.49 -0.68,-0.37 -0.75,-0.23 -0.81,-0.08 -0.08,0.39 -0.21,0.32 -0.32,0.21 -0.39,0.08 -7.25,0 -0.29,-0.06 -0.24,-0.16 -0.16,-0.24 -0.06,-0.29 Z M 4.5,9 l 6,0 0.35,0.15 0.15,0.35 -0.15,0.35 -0.35,0.15 -0.63,0.33 -0.73,0.23 -0.8,0.14 -0.84,0.05 -0.84,-0.05 -0.8,-0.14 -0.73,-0.23 -0.63,-0.33 -0.35,-0.15 -0.15,-0.35 0.15,-0.35 0.35,-0.15 Z M 7.24,13.13 l -0.26,1.25 -0.11,0.28 -0.21,0.2 -0.26,0.12 -0.3,0.01 -0.27,-0.11 -0.21,-0.2 -0.11,-0.27 -0.01,-0.3 0.26,-1.24 0.11,-0.28 0.2,-0.21 0.27,-0.11 0.29,-0.01 0.28,0.11 0.21,0.2 0.11,0.27 0.01,0.29 Z M 8.87,12.26 l 0.29,0.01 0.27,0.11 0.2,0.21 0.11,0.28 0.24,1.24 -0.01,0.3 -0.12,0.27 -0.2,0.2 -0.28,0.11 -0.3,-0.01 -0.26,-0.12 -0.2,-0.2 -0.11,-0.28 -0.24,-1.25 0.01,-0.29 0.11,-0.27 0.21,-0.2 0.28,-0.11 Z M 5.14,12.39 l -0.5,0.77 -0.2,0.22 -0.26,0.12 -0.29,0.01 -0.28,-0.1 -0.22,-0.2 -0.12,-0.26 -0.02,-0.28 0.1,-0.28 0.51,-0.78 0.2,-0.22 0.26,-0.12 0.29,-0.01 0.28,0.1 0.22,0.2 0.12,0.26 0.01,0.29 -0.1,0.28 Z M 10.61,11.36 l 0.28,-0.1 0.29,0.01 0.26,0.12 0.2,0.22 0.5,0.78 0.1,0.28 -0.02,0.28 -0.12,0.26 -0.22,0.2 -0.28,0.1 -0.29,-0.01 -0.26,-0.12 -0.2,-0.22 -0.49,-0.77 -0.1,-0.28 0.01,-0.29 0.12,-0.26 0.22,-0.2 Z" fill-rule="evenodd" fill="#000000" />
</svg>