<svg xmlns="http://www.w3.org/2000/svg" viewBox="0 0 24 24">
  <path id="laneProperties" d="M 8.71,3.25 l 4.29,0 0,1.5 -1.5,0 0,1.25 -1.19,0 0.12,-1.25 -1.72,0 -0.15,0.05 -0.09,0.12 -4.79,13.5 0.03,0.22 0.21,0.11 5.15,0 0.37,-3.75 2.06,0 0,3.75 1.5,0 0,1.5 -9.08,0 -0.44,-0.05 -0.39,-0.15 -0.33,-0.24 -0.27,-0.3 -0.31,-0.75 -0.01,-0.42 0.1,-0.43 4.79,-13.5 0.26,-0.47 0.38,-0.37 0.47,-0.24 0.54,-0.08 Z M 22,14.5 l -8,0 0,-2 8,0 0,2 Z M 15,3 l 2,0 0.39,0.08 0.32,0.21 0.21,0.32 0.08,0.39 0,2 -0.08,0.39 -0.21,0.32 -0.32,0.21 -0.39,0.08 -2,0 -0.39,-0.08 -0.32,-0.21 -0.21,-0.32 -0.08,-0.39 0,-2 0.08,-0.39 0.21,-0.32 0.32,-0.21 0.39,-0.08 Z M 14,9 l 7,0 0,2 -7,0 0,-2 Z M 14,16 l 5,0 0,2 -5,0 0,-2 Z M 9.73,12 l 0.38,-4 1.39,0 0,4 -1.77,0 Z" fill-rule="evenodd" fill="#000000" />
</svg>