<svg xmlns="http://www.w3.org/2000/svg" viewBox="0 0 24 24">
  <path id="language" d="M 12.74,15.31 l -0.02,0.4 -0.16,0.36 -0.3,0.28 -0.38,0.14 -0.4,-0.02 -0.37,-0.17 -0.15,-0.12 -0.38,-0.31 -0.57,-0.52 -0.72,-0.74 -0.92,0.96 -0.86,0.82 -0.79,0.69 -0.71,0.55 -0.59,0.43 -0.46,0.3 -0.3,0.19 -0.14,0.07 -0.38,0.12 -0.4,-0.03 -0.36,-0.19 -0.25,-0.31 -0.12,-0.38 0.03,-0.4 0.19,-0.36 0.31,-0.26 0.33,-0.19 0.41,-0.28 0.5,-0.36 0.55,-0.44 1.25,-1.1 1.36,-1.41 -0.13,-0.17 -0.62,-0.83 -0.52,-0.76 -0.43,-0.66 -0.33,-0.56 -0.26,-0.46 -0.17,-0.35 -0.11,-0.22 -0.04,-0.09 -0.08,-0.39 0.08,-0.39 0.23,-0.34 0.33,-0.22 0.39,-0.08 0.39,0.08 0.34,0.21 0.22,0.33 0.03,0.06 0.08,0.18 0.15,0.27 0.2,0.38 0.28,0.46 0.35,0.55 0.43,0.63 0.51,0.7 0.71,-1.17 0.55,-1.17 0.44,-1.12 0.34,-1 0.22,-0.62 -8.99,0 -0.39,-0.08 -0.34,-0.22 -0.22,-0.34 -0.08,-0.39 0.08,-0.39 0.22,-0.34 0.34,-0.22 0.39,-0.08 5.44,0 0,-0.94 0.08,-0.39 0.22,-0.34 0.34,-0.22 0.39,-0.08 0.39,0.08 0.34,0.22 0.22,0.34 0.08,0.39 0,0.94 5.44,0 0.39,0.08 0.34,0.22 0.22,0.34 0.08,0.39 -0.08,0.39 -0.22,0.34 -0.34,0.22 -0.39,0.08 -0.96,0 -0.22,0.57 -0.31,0.7 -0.4,0.79 -0.48,0.87 -1.15,1.87 -1.33,1.93 0.68,0.71 0.54,0.51 0.35,0.3 0.14,0.11 0,0 0.27,0.29 0.14,0.38 Z M 18.2,10.11 l 4.22,10.22 0,0 0.07,0.49 -0.16,0.47 -0.38,0.34 -0.48,0.12 -0.57,-0.17 -0.38,-0.47 -0.86,-2.08 -4.82,0 -0.86,2.08 -0.22,0.34 -0.33,0.22 -0.4,0.08 -0.39,-0.07 -0.34,-0.23 -0.22,-0.33 -0.08,-0.4 0.08,-0.39 4.22,-10.22 0.38,-0.47 0.57,-0.17 0.57,0.17 0.38,0.47 Z M 17.25,13.2 l -1.55,3.77 3.11,0 -1.56,-3.77 Z" fill-rule="evenodd" fill="#000000" />
</svg>