<svg xmlns="http://www.w3.org/2000/svg" viewBox="0 0 24 24">
  <path id="laptop" d="M 5,4 l 14,0 0.39,0.08 0.32,0.21 0.21,0.32 0.08,0.39 0,8 -0.08,0.39 -0.21,0.32 -0.32,0.21 -0.39,0.08 -14,0 -0.39,-0.08 -0.32,-0.21 -0.21,-0.32 -0.08,-0.39 0,-8 0.08,-0.39 0.21,-0.32 0.32,-0.21 0.39,-0.08 Z M 3.72,16.02 l 0.36,-0.38 0.51,-0.14 14.82,0 0.51,0.14 0.36,0.38 1.91,3.5 0.13,0.51 -0.14,0.48 -0.36,0.35 -0.5,0.14 -18.64,0 -0.5,-0.14 -0.36,-0.35 -0.14,-0.48 0.13,-0.51 1.91,-3.5 Z M 5.5,5.5 l 0,7 13,0 0,-7 -13,0 Z M 9.34,17 l -0.28,0.09 -0.19,0.22 -0.6,1.5 -0.03,0.25 0.08,0.22 0.18,0.16 0.24,0.06 6.52,0 0.24,-0.06 0.18,-0.16 0.08,-0.22 -0.03,-0.25 -0.6,-1.5 -0.19,-0.22 -0.28,-0.09 -5.32,0 Z" fill-rule="evenodd" fill="#000000" />
</svg>