<svg xmlns="http://www.w3.org/2000/svg" viewBox="0 0 24 24">
  <path id="lasso" d="M 15,16 l -5.27,0 -1.36,-0.14 -1.26,-0.39 -1.14,-0.62 -1,-0.82 -0.82,-1 -0.62,-1.14 -0.39,-1.26 -0.14,-1.36 0.15,-1.44 0.44,-1.32 0.69,-1.19 0.91,-1.02 1.09,-0.81 1.25,-0.58 1.36,-0.32 1.45,-0.02 0.9,0.08 2,0.33 1.92,0.62 1.81,0.89 1.68,1.15 0.99,1 0.74,1.18 0.46,1.31 0.16,1.4 0,0.72 -0.08,0.86 -0.23,0.82 -0.36,0.75 -0.48,0.67 -0.59,0.57 -0.68,0.47 -0.76,0.34 -0.82,0.21 0,1.56 -0.05,0.5 -0.15,0.47 -0.53,0.8 -0.8,0.53 -0.47,0.15 -0.5,0.05 -0.5,-0.05 -0.47,-0.15 -0.8,-0.53 -0.53,-0.8 -0.15,-0.47 -0.05,-0.5 0.08,-0.39 0.21,-0.32 0.32,-0.21 0.39,-0.08 0.39,0.08 0.32,0.21 0.21,0.32 0.08,0.39 0.15,0.35 0.35,0.15 0.35,-0.15 0.15,-0.35 0,-1.5 Z M 5,9.27 l 0.1,0.95 0.27,0.89 0.44,0.81 0.57,0.7 0.7,0.57 0.81,0.44 0.89,0.27 0.95,0.1 0.78,0 0.11,-0.61 0.21,-0.57 0.31,-0.51 0.4,-0.44 0.47,-0.36 0.53,-0.28 0.58,-0.17 0.63,-0.06 0.61,0.06 0.58,0.16 0.52,0.27 0.47,0.35 0.39,0.43 0.32,0.49 0.22,0.55 0.12,0.59 0.81,-0.37 0.64,-0.6 0.42,-0.78 0.15,-0.9 0,-0.72 -0.11,-0.95 -0.31,-0.9 -0.5,-0.8 -0.68,-0.68 -1.43,-0.98 -1.56,-0.76 -1.64,-0.53 -1.72,-0.28 -0.89,-0.09 -1.02,0.02 -0.96,0.22 -0.87,0.41 -0.77,0.57 -0.64,0.71 -0.48,0.84 -0.31,0.93 -0.11,1.01 Z M 19.05,16.67 l 0.17,0.11 0.75,0.64 0.56,0.8 0.35,0.91 0.12,0.98 0,0.89 -0.08,0.39 -0.21,0.32 -0.32,0.21 -0.39,0.08 -0.39,-0.08 -0.32,-0.21 -0.21,-0.32 -0.08,-0.39 0,-0.89 -0.06,-0.49 -0.18,-0.46 -0.28,-0.4 -0.37,-0.32 -0.16,-0.11 -0.28,-0.28 -0.15,-0.35 0,-0.39 0.15,-0.36 0.28,-0.29 0.35,-0.14 0.39,0 0.36,0.15 Z M 12.53,14 l 2.45,0 -0.16,-0.4 -0.27,-0.31 -0.37,-0.21 -0.43,-0.08 -0.43,0.08 -0.37,0.21 -0.27,0.31 -0.15,0.4 Z" fill-rule="evenodd" fill="#000000" />
</svg>