<svg xmlns="http://www.w3.org/2000/svg" viewBox="0 0 24 24">
  <path id="leverSideOperate" d="M 6,5 l 1,0 0.39,0.08 0.32,0.21 0.21,0.32 0.08,0.39 0,0.59 0.08,0.38 0.21,0.32 0.92,0.92 0.21,0.32 0.08,0.38 0,2.08 0.78,-0.01 2.3,-0.01 0.33,-0.37 0.49,-0.17 4.5,-0.35 0.41,0.06 0.35,0.2 0.23,0.33 0.09,0.4 0.01,1.85 -0.09,0.4 -0.23,0.33 -0.35,0.21 -0.41,0.06 -4.5,-0.35 -0.51,-0.19 -0.33,-0.41 -2.28,0.01 -0.79,0.01 0,2.1 -0.08,0.38 -0.21,0.32 -0.92,0.92 -0.21,0.32 -0.08,0.38 0,0.59 -0.08,0.39 -0.21,0.32 -0.32,0.21 -0.39,0.08 -1,0 -0.39,-0.08 -0.32,-0.21 -0.21,-0.32 -0.08,-0.39 0,-12 0.08,-0.39 0.21,-0.32 0.32,-0.21 0.39,-0.08 Z M 17,17 l -3,3 -3,-3 0,-1 3,1 3,-1 0,1 Z M 14,4 l 3,3 0,1 -3,-1 -3,1 0,-1 3,-3 Z" fill-rule="evenodd" fill="#000000" />
</svg>