<svg xmlns="http://www.w3.org/2000/svg" viewBox="0 0 24 24">
  <path id="leverSideUp" d="M 5,18 l 0,-12 0.08,-0.39 0.21,-0.32 0.32,-0.21 0.39,-0.08 1,0 0.39,0.08 0.32,0.21 0.21,0.32 0.08,0.39 0,0.59 0.08,0.38 0.21,0.32 0.92,0.92 0.21,0.32 0.08,0.38 0,4.56 2,1.17 2.18,1.26 0.38,-0.07 0.39,0.09 4.03,1.78 0.35,0.25 0.2,0.35 0.05,0.41 -0.14,0.4 -0.89,1.54 -0.29,0.31 -0.37,0.17 -0.4,0 -0.39,-0.17 -3.47,-2.5 -0.3,-0.36 -0.11,-0.44 -2.22,-1.3 -1.19,-0.69 -0.1,0.12 -0.92,0.92 -0.21,0.32 -0.08,0.38 0,0.59 -0.08,0.39 -0.21,0.32 -0.32,0.21 -0.39,0.08 -1,0 -0.39,-0.08 -0.32,-0.21 -0.21,-0.32 -0.08,-0.39 Z M 19,11 l 0,1 -3,-1 -3,1 0,-1 3,-3 3,3 Z" fill-rule="evenodd" fill="#000000" />
</svg>