<svg xmlns="http://www.w3.org/2000/svg" viewBox="0 0 24 24">
  <path id="leverFrontOperate" d="M 8.67,11.34 l -0.57,0.16 -0.57,-0.08 -0.51,-0.28 -0.36,-0.47 -0.16,-0.57 0.08,-0.57 0.28,-0.51 0.47,-0.36 2.19,-1.1 -0.29,-0.88 -0.15,-0.28 -0.22,-0.21 -0.27,-0.14 -0.31,-0.05 -1.28,0 -0.39,0.08 -0.32,0.21 -0.21,0.32 -0.08,0.39 0,10 0.08,0.39 0.21,0.32 0.32,0.21 0.39,0.08 2,0 0.39,-0.08 0.32,-0.21 0.21,-0.32 0.08,-0.39 0,-3.62 0.07,-0.36 0.18,-0.3 0.28,-0.22 0.34,-0.11 0.57,-0.07 0.39,0.12 0.17,0.37 0,4.19 -0.06,0.6 -0.18,0.57 -0.27,0.51 -0.37,0.44 -0.44,0.37 -0.51,0.27 -0.57,0.18 -0.6,0.06 -2,0 -0.6,-0.06 -0.57,-0.18 -0.51,-0.27 -0.44,-0.37 -0.37,-0.44 -0.27,-0.51 -0.18,-0.57 -0.06,-0.6 0,-10 0.06,-0.6 0.18,-0.57 0.27,-0.51 0.37,-0.44 0.44,-0.37 0.51,-0.27 0.57,-0.18 0.6,-0.06 2,0 1.02,0.18 0.87,0.49 0.66,0.75 0.38,0.94 1.08,-0.54 0.09,-0.57 0.19,-0.53 0.28,-0.48 0.37,-0.42 0.44,-0.34 0.49,-0.26 0.55,-0.16 0.58,-0.06 0.6,0.06 0.57,0.18 0.51,0.27 0.44,0.37 0.37,0.44 0.27,0.51 0.18,0.57 0.06,0.6 -0.06,0.6 -0.18,0.57 -0.27,0.51 -0.37,0.44 -0.44,0.37 -0.51,0.27 -0.57,0.18 -0.6,0.06 -0.88,-0.13 -0.77,-0.37 -5.68,2.84 Z M 5,17 l 0,-10 -2,0 0,10 2,0 Z M 5,7 l 0,10 2,0 0,-10 -2,0 Z M 13.9,7.61 l -5.68,2.84 0.9,1.79 5.67,-2.84 -0.89,-1.79 Z M 17,11 l 3,3 0,1 -3,-1 -3,1 0,-1 3,-3 Z M 17,20 l -3,-3 0,-1 3,1 3,-1 0,1 -3,3 Z M 5,7 l 0.16,-0.78 0.43,-0.63 0.63,-0.43 0.78,-0.16 0,-2 -0.81,0.08 -0.75,0.23 -0.68,0.37 -0.59,0.49 -0.49,0.59 -0.37,0.68 -0.23,0.75 -0.08,0.81 2,0 Z M 16,4 l 0.78,0.16 0.63,0.43 0.43,0.63 0.16,0.78 2,0 -0.08,-0.81 -0.23,-0.75 -0.37,-0.68 -0.49,-0.59 -0.59,-0.49 -0.68,-0.37 -0.75,-0.23 -0.81,-0.08 0,2 Z M 18,6 l -0.16,0.78 -0.43,0.63 -0.63,0.43 -0.78,0.16 0,2 0.81,-0.08 0.75,-0.23 0.68,-0.37 0.59,-0.49 0.49,-0.59 0.37,-0.68 0.23,-0.75 0.08,-0.81 -2,0 Z M 7,19 l -0.78,-0.16 -0.63,-0.43 -0.43,-0.63 -0.16,-0.78 -2,0 0.08,0.81 0.23,0.75 0.37,0.68 0.49,0.59 0.59,0.49 0.68,0.37 0.75,0.23 0.81,0.08 0,-2 Z M 11,17 l -0.16,0.78 -0.43,0.63 -0.63,0.43 -0.78,0.16 0,2 0.81,-0.08 0.75,-0.23 0.68,-0.37 0.59,-0.49 0.49,-0.59 0.37,-0.68 0.23,-0.75 0.08,-0.81 -2,0 Z M 14,5.88 l 0.19,-0.74 0.44,-0.59 0.62,-0.4 0.75,-0.15 0,-2 -0.78,0.08 -0.72,0.21 -0.67,0.35 -0.58,0.45 -0.49,0.56 -0.38,0.64 -0.25,0.71 -0.12,0.76 1.99,0.12 Z M 19.29,16.29 l -3,3 1.42,1.42 3,-3 -1.42,-1.42 Z M 17.71,19.29 l -1.42,1.42 -3,-3 1.42,-1.42 3,3 Z M 20.71,13.29 l -3,-3 -1.42,1.42 3,3 1.42,-1.42 Z M 16.29,10.29 l 1.42,1.42 -3,3 -1.42,-1.42 3,-3 Z M 11,12.81 l 0,4.19 2,0 0,-4.19 -2,0 Z M 9,5 l 0,-2 0.7,0.06 0.66,0.18 0.62,0.28 0.55,0.38 0.47,0.46 0.4,0.53 0.31,0.6 0.2,0.65 -1.96,0.43 -0.25,-0.62 -0.44,-0.5 -0.58,-0.33 -0.68,-0.12 Z M 11,17 l 0,-3.62 -2,0 0,3.62 2,0 Z M 14.32,15.95 l -0.64,-1.9 3,-1 0.64,1.9 -3,1 Z M 16.68,14.95 l 3,1 0.64,-1.9 -3,-1 -0.64,1.9 Z M 17.32,17.95 l 3,-1 -0.64,-1.9 -3,1 0.64,1.9 Z M 13.68,16.95 l 0.64,-1.9 3,1 -0.64,1.9 -3,-1 Z M 7.78,9.55 l -0.9,-1.79 2.19,-1.09 0.9,1.79 -2.19,1.09 Z M 8.22,10.45 l 0.9,1.79 -0.48,0.18 -0.48,0.08 -0.95,-0.13 -0.84,-0.47 -0.34,-0.35 -0.27,-0.43 1.79,-0.9 0.29,0.25 0.38,-0.02 Z M 7.55,10.22 l -1.79,0.9 -0.18,-0.48 -0.08,-0.48 0.13,-0.95 0.47,-0.84 0.35,-0.34 0.43,-0.27 0.9,1.79 -0.25,0.29 0.02,0.38 Z M 7,5 l 2,0 0,-2 -2,0 0,2 Z M 9,19 l -2,0 0,2 2,0 0,-2 Z M 7,19 l 2,0 0,-2 -2,0 0,2 Z M 16,8 l 0,2 -1.17,-0.17 -1.04,-0.49 1.11,-1.67 0.51,0.24 0.59,0.09 Z M 9,19 l 0.78,-0.16 0.63,-0.43 0.43,-0.63 0.16,-0.78 -2,0 0,2 Z M 5,17 l 0.16,0.78 0.43,0.63 0.63,0.43 0.78,0.16 0,-2 -2,0 Z M 7,5 l -0.78,0.16 -0.63,0.43 -0.43,0.63 -0.16,0.78 2,0 0,0 0,-2 Z M 11,13.38 l -2,0 0.13,-0.72 0.37,-0.6 0.55,-0.44 0.7,-0.22 0.25,1.98 0,0 Z M 8.28,5 l -1.28,0 0,2 1.28,0 0,-2 Z M 10.18,6.37 l -1.9,0.63 0,0 0,-2 0.62,0.1 0.55,0.28 0.44,0.43 0.29,0.56 Z M 12.38,7.25 l 1.07,-0.54 -0.89,-1.78 -1.08,0.53 0.9,1.79 Z M 21,15 l 0,-1 -2,0 0,1 2,0 Z M 13,14 l 0,1 2,0 0,-1 -2,0 Z M 19,16 l 0,1 2,0 0,-1 -2,0 Z M 15,17 l 0,-1 -2,0 0,1 2,0 Z M 10.47,7.25 l -1.9,0.63 -0.29,-0.88 1.9,-0.63 0.29,0.88 Z M 11.56,13.31 l -0.25,-1.99 0.64,0.06 0.54,0.31 0.37,0.49 0.14,0.63 -2,0 0.17,0.38 0.39,0.12 Z M 20,16 l 1,0 0,-1.39 -1.32,0.44 0.32,0.95 Z M 20,15 l 1,0 0,1.39 -1.32,-0.44 0.32,-0.95 Z M 14,15 l -1,0 0,1.39 1.32,-0.44 -0.32,-0.95 Z M 14,16 l -1,0 0,-1.39 1.32,0.44 -0.32,0.95 Z M 11.93,6.36 l -0.98,0.21 0.28,1.26 1.15,-0.58 -0.45,-0.89 Z M 11,13.38 l -0.25,-1.98 0.56,-0.08 0.25,1.99 -0.56,0.07 Z M 17,20 l 0.71,0.71 -0.71,0.7 -0.71,-0.7 0.71,-0.71 Z M 17,11 l 0.71,-0.71 -0.71,-0.7 -0.71,0.7 0.71,0.71 Z M 9.52,7.56 l 0.95,-0.31 0.27,0.82 -0.77,0.39 -0.45,-0.9 Z M 13.01,5.82 l 0.99,0.06 -0.03,0.58 -0.52,0.25 -0.44,-0.89 Z M 14.35,8.5 l 0.55,-0.83 -0.48,-0.32 -0.52,0.26 0.45,0.89 Z M 20,17 l 0.71,0.71 0.29,-0.3 0,-0.41 -1,0 Z M 20,14 l 1,0 0,-0.41 -0.29,-0.3 -0.71,0.71 Z M 14,14 l -0.71,-0.71 -0.29,0.3 0,0.41 1,0 Z M 14,17 l -1,0 0,0.41 0.29,0.3 0.71,-0.71 Z M 17,14 l 0.32,-0.95 -0.32,-0.1 -0.32,0.1 0.32,0.95 Z M 17,17 l -0.32,0.95 0.32,0.1 0.32,-0.1 -0.32,-0.95 Z" fill-rule="evenodd" fill="#000000" />
</svg>