<svg xmlns="http://www.w3.org/2000/svg" viewBox="0 0 24 24">
  <path id="leverSideDown" d="M 18.48,6.3 l -4.03,1.78 -0.39,0.09 -0.38,-0.07 -2.18,1.26 -2,1.17 0,4.56 -0.08,0.38 -0.21,0.32 -0.92,0.92 -0.21,0.32 -0.08,0.38 0,0.59 -0.08,0.39 -0.21,0.32 -0.32,0.21 -0.39,0.08 -1,0 -0.39,-0.08 -0.32,-0.21 -0.21,-0.32 -0.08,-0.39 0,-12 0.08,-0.39 0.21,-0.32 0.32,-0.21 0.39,-0.08 1,0 0.39,0.08 0.32,0.21 0.21,0.32 0.08,0.39 0,0.59 0.08,0.38 0.21,0.32 0.92,0.92 0.1,0.12 1.19,-0.69 2.22,-1.3 0.11,-0.44 0.3,-0.36 3.47,-2.5 0.39,-0.17 0.4,0 0.37,0.17 0.29,0.31 0.89,1.54 0.14,0.4 -0.05,0.41 -0.2,0.35 -0.35,0.25 Z M 19,13 l -3,3 -3,-3 0,-1 3,1 3,-1 0,1 Z" fill-rule="evenodd" fill="#000000" />
</svg>