<svg xmlns="http://www.w3.org/2000/svg" viewBox="0 0 24 24">
  <path id="lidarPatternFullArcHighFreq" d="M 16,12 l -0.08,0.81 -0.23,0.75 -0.37,0.68 -0.49,0.59 -0.59,0.49 -0.68,0.37 -0.75,0.23 -0.81,0.08 -0.81,-0.08 -0.75,-0.23 -0.68,-0.37 -0.59,-0.49 -0.49,-0.59 -0.37,-0.68 -0.23,-0.75 -0.08,-0.81 0.08,-0.81 0.23,-0.75 0.37,-0.68 0.49,-0.59 0.59,-0.49 0.68,-0.37 0.75,-0.23 0.81,-0.08 0.81,0.08 0.75,0.23 0.68,0.37 0.59,0.49 0.49,0.59 0.37,0.68 0.23,0.75 0.08,0.81 Z M 10.65,5.57 l -1.13,0.34 -1.05,0.53 -0.94,0.7 -0.81,0.87 -0.51,0.78 -0.39,0.83 1.85,1.85 -1.06,1.06 -1.77,-1.77 -1.77,1.77 -1.06,-1.06 2.42,-2.43 0.48,-1 0.62,-0.94 0.99,-1.07 1.15,-0.87 1.29,-0.65 1.4,-0.41 1.45,-0.15 1.44,0.1 1.4,0.37 1.32,0.61 0.65,0.37 -1.33,2.3 -0.62,-0.42 -0.68,-0.33 0.56,-0.96 -0.94,-0.33 -0.98,-0.18 -0.99,-0.03 -0.99,0.12 Z M 10.23,18.35 l 1.27,0.21 1.19,-0.03 1.15,-0.23 1.09,-0.45 1,-0.63 0.87,-0.8 0.71,-0.94 0.53,-1.05 0.33,-1.14 0.12,-0.99 -0.03,-0.99 -0.18,-0.97 -0.32,-0.94 -0.01,0 -0.75,-1.3 1.34,-0.77 0.38,0.65 0.61,1.32 0.36,1.4 0.11,1.44 -0.16,1.45 -0.41,1.39 -0.65,1.29 -0.87,1.15 -1.07,0.99 -1.23,0.78 -1.34,0.54 -1.41,0.29 -1.45,0.04 -1.56,-0.26 0.38,-1.45 Z M 4.84,14.35 l -1.77,1.77 -1.06,-1.06 2.83,-2.83 2.83,2.83 -1.06,1.06 -1.77,-1.77 Z M 3.07,19.81 l -1.06,-1.06 2.83,-2.83 2.83,2.83 -1.06,1.06 -1.77,-1.77 -1.77,1.77 Z" fill-rule="evenodd" fill="#000000" />
</svg>