<svg xmlns="http://www.w3.org/2000/svg" viewBox="0 0 24 24">
  <path id="lidar" d="M 9.5,5.5 l 0.12,-0.58 0.32,-0.48 0.48,-0.32 0.58,-0.12 2,0 0.58,0.12 0.48,0.32 0.32,0.48 0.12,0.58 0,3.5 -0.12,0.58 -0.32,0.48 -0.48,0.32 -0.58,0.12 -2,0 -0.58,-0.12 -0.48,-0.32 -0.32,-0.48 -0.12,-0.58 0,-3.5 Z M 15.24,18.2 l 0.01,-0.45 0.2,-0.38 0.33,-0.27 0.44,-0.1 4.56,0 0.44,0.1 0.33,0.27 0.2,0.38 0.01,0.45 -0.6,3 -0.12,0.32 -0.23,0.25 -0.29,0.17 -0.34,0.06 -3.36,0 -0.34,-0.06 -0.29,-0.17 -0.23,-0.25 -0.12,-0.32 -0.6,-3 Z M 9.57,11.64 l 0.68,0.27 0.75,0.09 0.03,0 -3.53,10 -1.59,0 3.66,-10.36 Z M 8.27,10.25 l 0.41,0.65 0.56,0.53 -7.24,8.55 0,-2.32 6.27,-7.41 Z M 11.25,12 l 1.5,0 0,10 -1.5,0 0,-10 Z M 3.5,8.5 l 0.58,0.12 0.48,0.32 0.32,0.48 0.12,0.58 0,1.5 -0.12,0.58 -0.32,0.48 -0.48,0.32 -0.58,0.12 -0.58,-0.12 -0.48,-0.32 -0.32,-0.48 -0.12,-0.58 0,-1.5 0.12,-0.58 0.32,-0.48 0.48,-0.32 0.58,-0.12 Z M 15.84,9.96 l 5.25,5.54 -2.07,0 -4.03,-4.25 0.51,-0.59 0.34,-0.7 Z M 15.97,9.43 l 0.03,-0.43 0,-1.17 6,2.45 0,1.62 -6.03,-2.47 Z M 16,7.21 l 0,-1.51 6,-0.82 0,1.51 -6,0.82 Z M 8,7.39 l -6,-0.55 0,-1.5 6,0.54 0,1.51 Z M 16,5.47 l 0,-0.47 -0.06,-0.59 -0.16,-0.55 3.1,-1.86 2.91,0 -5.79,3.47 Z M 8.22,3.86 l -0.16,0.55 -0.06,0.59 0,0.47 -5.79,-3.47 2.91,0 3.1,1.86 Z M 17.23,20.5 l 2.54,0 0.4,-2 -3.34,0 0.4,2 Z M 13.04,12 l 0.77,-0.11 0.68,-0.29 1.44,3.9 -1.6,0 -1.29,-3.5 Z M 8,8.02 l 0,0.98 0.07,0.64 -1.57,0.72 0,-1.65 1.5,-0.69 Z" fill-rule="evenodd" fill="#000000" />
</svg>