<svg xmlns="http://www.w3.org/2000/svg" viewBox="0 0 24 24">
  <path id="lidarPatternNarrowArc" d="M 12,16 l -0.81,-0.08 -0.75,-0.23 -0.68,-0.37 -0.59,-0.49 -0.49,-0.59 -0.37,-0.68 -0.23,-0.75 -0.08,-0.81 0.08,-0.81 0.23,-0.75 0.37,-0.68 0.49,-0.59 0.59,-0.49 0.68,-0.37 0.75,-0.23 0.81,-0.08 0.81,0.08 0.75,0.23 0.68,0.37 0.59,0.49 0.49,0.59 0.37,0.68 0.23,0.75 0.08,0.81 -0.08,0.81 -0.23,0.75 -0.37,0.68 -0.49,0.59 -0.59,0.49 -0.68,0.37 -0.75,0.23 -0.81,0.08 Z M 7.85,6.87 l 0.79,0.79 -0.57,0.49 -0.49,0.57 -1.88,-1.88 0.53,-0.53 1.23,-1.01 1.39,-0.74 1.5,-0.46 1.58,-0.15 1.58,0.15 1.51,0.46 1.39,0.74 1.23,1.01 0.53,0.53 -1.88,1.88 -0.5,-0.57 -0.56,-0.49 0.79,-0.79 -0.92,-0.61 -1,-0.45 -1.06,-0.27 -1.11,-0.09 -1.1,0.09 -1.06,0.27 -1,0.45 -0.92,0.61 Z" fill-rule="evenodd" fill="#000000" />
</svg>