<svg xmlns="http://www.w3.org/2000/svg" viewBox="0 0 24 24">
  <path id="lightrunner" d="M 19.6,8.76 l -0.15,0.36 -0.23,0.31 -0.3,0.25 -0.37,0.17 -0.41,0.06 -2.03,0.1 -1.99,0.24 -1.88,0.37 -1.7,0.51 -1.44,0.64 -1.12,0.78 -0.42,0.43 -0.3,0.48 -0.19,0.5 -0.07,0.54 0.07,0.67 0.19,0.62 0.31,0.57 0.43,0.52 0,-2.62 0.43,-0.49 0.62,-0.44 0.85,-0.39 1.1,-0.36 0,6.03 2,0.57 0,-7.04 1.4,-0.22 1.6,-0.21 0,7.99 2.52,0.26 0.34,0.17 0.14,0.35 -0.15,0.37 -0.37,0.15 -2.48,-0.09 0,1.09 -3,0 0,-1.41 -2,-0.39 0,1.8 -3,0 0,-2.92 -1.26,-0.85 -0.94,-1.04 -0.34,-0.59 -0.25,-0.65 -0.16,-0.7 -0.05,-0.75 0.05,-0.74 0.16,-0.71 0.25,-0.66 0.35,-0.63 0.94,-1.14 1.25,-0.98 0,-6.64 3,-2 0,7.22 2,-0.57 0,-4.65 3,2 0,2.16 2.26,-0.15 0.65,0.15 0.5,0.46 0.18,0.37 0.06,0.39 Z" fill-rule="evenodd" fill="#000000" />
</svg>