<svg xmlns="http://www.w3.org/2000/svg" viewBox="0 0 24 24">
  <path id="lightGarageG13" d="M 19.53,11.71 l 0.34,0.36 0.13,0.49 0,7.44 -0.16,0.78 -0.43,0.63 -0.63,0.43 -0.78,0.16 -0.5,0 -0.45,-0.11 -0.35,-0.29 -2.4,-3.2 -0.35,-0.29 -0.45,-0.11 -4.5,0 -0.39,0.08 -0.32,0.21 -0.21,0.32 -0.08,0.39 0,0.03 -0.08,0.27 -0.19,0.17 -0.25,0.03 -0.25,-0.12 -0.57,-0.61 -0.19,-0.35 -0.04,-0.38 0.11,-0.36 0.26,-0.31 9.12,-7.12 0.56,-0.21 0.58,0.14 2.47,1.53 Z M 20,3.5 l 0.15,0.35 0.35,0.15 0.35,0.15 0.15,0.35 0,1 -0.15,0.35 -0.35,0.15 -1,0 -0.35,-0.15 -0.15,-0.35 0,-0.5 -0.15,-0.35 -0.35,-0.15 -5.25,0 -0.18,0.07 -0.07,0.18 -0.07,0.18 -0.18,0.07 -1.5,0 -0.18,-0.07 -0.07,-0.18 -0.07,-0.18 -0.18,-0.07 -5.25,0 -0.35,0.15 -0.15,0.35 0,0.5 -0.15,0.35 -0.35,0.15 -1,0 -0.35,-0.15 -0.15,-0.35 0,-1 0.15,-0.35 0.35,-0.15 0.35,-0.15 0.15,-0.35 0.15,-0.35 0.35,-0.15 15,0 0.35,0.15 0.15,0.35 Z M 21.08,8.31 l -0.11,1.8 -0.06,0.22 -0.2,0.34 -0.3,0.23 -0.38,-0.05 -2.6,-1.5 -0.23,-0.31 0.05,-0.37 0.19,-0.34 0.16,-0.16 1.51,-1 0.26,-0.08 0.26,0.06 1.2,0.7 0.19,0.19 0.06,0.27 Z M 3.02,8.31 l 0.06,-0.27 0.19,-0.19 1.19,-0.7 0.27,-0.06 0.26,0.08 1.51,1 0.16,0.16 0.19,0.34 0.05,0.37 -0.23,0.31 -2.6,1.5 -0.38,0.05 -0.31,-0.23 -0.19,-0.34 -0.06,-0.22 -0.11,-1.8 Z M 10.86,6.28 l 0.19,-0.21 0.26,-0.07 1.38,0 0.26,0.07 0.19,0.21 0.81,1.61 0.05,0.23 0,0.38 -0.15,0.35 -0.35,0.15 -3,0 -0.35,-0.15 -0.15,-0.35 0,-0.38 0.05,-0.23 0.81,-1.61 Z" fill-rule="evenodd" fill="#000000" />
</svg>