<svg xmlns="http://www.w3.org/2000/svg" viewBox="0 0 24 24">
  <path id="lightGarageG34" d="M 4,11.56 l 0.13,-0.49 0.34,-0.36 2.45,-1.52 0.6,-0.14 0.56,0.22 11.28,9.21 0.16,0.22 0.03,0.25 -0.08,0.24 -0.21,0.18 -0.26,0.05 -0.25,-0.07 -7.11,-4.27 -0.3,-0.12 -3.99,-0.88 -0.34,-0.02 -0.33,0.1 -0.2,0.1 -0.37,0.32 -0.17,0.46 -0.88,7.49 -0.18,0.34 -0.35,0.13 -0.37,-0.16 -0.16,-0.37 0,-10.91 Z M 20,2.5 l 0.15,0.35 0.35,0.15 0.35,0.15 0.15,0.35 0,1 -0.15,0.35 -0.35,0.15 -1,0 -0.35,-0.15 -0.15,-0.35 0,-0.5 -0.15,-0.35 -0.35,-0.15 -5.25,0 -0.18,0.07 -0.07,0.18 -0.07,0.18 -0.18,0.07 -1.5,0 -0.18,-0.07 -0.07,-0.18 -0.07,-0.18 -0.18,-0.07 -5.25,0 -0.35,0.15 -0.15,0.35 0,0.5 -0.15,0.35 -0.35,0.15 -1,0 -0.35,-0.15 -0.15,-0.35 0,-1 0.15,-0.35 0.35,-0.15 0.35,-0.15 0.15,-0.35 0.15,-0.35 0.35,-0.15 15,0 0.35,0.15 0.15,0.35 Z M 21.08,7.31 l -0.11,1.8 -0.06,0.22 -0.2,0.34 -0.3,0.23 -0.38,-0.05 -2.6,-1.5 -0.23,-0.31 0.05,-0.37 0.19,-0.34 0.16,-0.16 1.51,-1 0.26,-0.08 0.26,0.06 1.2,0.7 0.19,0.19 0.06,0.27 Z M 3.02,7.31 l 0.06,-0.27 0.19,-0.19 1.19,-0.7 0.27,-0.06 0.26,0.08 1.51,1 0.16,0.16 0.19,0.34 0.05,0.37 -0.23,0.31 -2.6,1.5 -0.38,0.05 -0.31,-0.23 -0.19,-0.34 -0.06,-0.22 -0.11,-1.8 Z M 10.86,5.28 l 0.19,-0.21 0.26,-0.07 1.38,0 0.26,0.07 0.19,0.21 0.81,1.61 0.05,0.23 0,0.38 -0.15,0.35 -0.35,0.15 -3,0 -0.35,-0.15 -0.15,-0.35 0,-0.38 0.05,-0.23 0.81,-1.61 Z" fill-rule="evenodd" fill="#000000" />
</svg>