<svg xmlns="http://www.w3.org/2000/svg" viewBox="0 0 24 24">
  <path id="lightGarageG21" d="M 15.55,16.84 l -0.4,0.44 -0.15,0.58 -0.09,0.44 -0.24,0.37 -0.37,0.24 -0.44,0.09 -3.72,0 -0.44,-0.09 -0.37,-0.24 -0.24,-0.37 -0.09,-0.44 -0.15,-0.58 -0.4,-0.44 -1.01,-0.94 -0.77,-1.15 -0.5,-1.31 -0.17,-1.44 0.12,-1.21 0.35,-1.13 0.55,-1.01 0.74,-0.89 0.89,-0.74 1.01,-0.55 1.13,-0.35 1.21,-0.12 1.21,0.12 1.13,0.35 1.01,0.55 0.89,0.74 0.74,0.89 0.55,1.01 0.35,1.13 0.12,1.21 -0.17,1.44 -0.5,1.31 -0.77,1.15 -1.01,0.94 Z M 15,11 l -0.08,-0.39 -0.21,-0.32 -0.32,-0.21 -0.39,-0.08 -0.39,0.08 -0.32,0.21 -0.21,0.32 -0.08,0.39 0,2 0.08,0.39 0.21,0.32 0.32,0.21 0.39,0.08 0.39,-0.08 0.32,-0.21 0.21,-0.32 0.08,-0.39 0,-2 Z M 11,11 l -0.08,-0.39 -0.21,-0.32 -0.32,-0.21 -0.39,-0.08 -0.39,0.08 -0.32,0.21 -0.21,0.32 -0.08,0.39 0,2 0.08,0.39 0.21,0.32 0.32,0.21 0.39,0.08 0.39,-0.08 0.32,-0.21 0.21,-0.32 0.08,-0.39 0,-2 Z M 14,20.5 l 0.35,0.15 0.15,0.35 0,0.14 -0.09,0.29 -0.25,0.18 -1.08,0.36 -0.16,0.03 -1.84,0 -0.16,-0.03 -1.08,-0.36 -0.25,-0.18 -0.09,-0.29 0,-0.14 0.15,-0.35 0.35,-0.15 4,0 Z M 11,2 l 0.08,-0.39 0.21,-0.32 0.32,-0.21 0.39,-0.08 0.39,0.08 0.32,0.21 0.21,0.32 0.08,0.39 0,1.5 -0.08,0.39 -0.21,0.32 -0.32,0.21 -0.39,0.08 -0.39,-0.08 -0.32,-0.21 -0.21,-0.32 -0.08,-0.39 0,-1.5 Z M 5.12,3.71 l 1.06,1.06 0.22,0.33 0.07,0.37 -0.07,0.38 -0.22,0.33 -0.33,0.22 -0.38,0.07 -0.37,-0.07 -0.33,-0.22 -1.06,-1.06 -0.22,-0.33 -0.08,-0.38 0.08,-0.37 0.22,-0.33 0.33,-0.22 0.37,-0.08 0.38,0.08 0.33,0.22 Z M 20.18,3.71 l 0.22,0.33 0.07,0.37 -0.07,0.38 -0.22,0.33 -1.06,1.06 -0.33,0.22 -0.38,0.07 -0.37,-0.07 -0.33,-0.22 -0.22,-0.33 -0.08,-0.38 0.08,-0.37 0.22,-0.33 1.06,-1.06 0.33,-0.22 0.37,-0.08 0.38,0.08 0.33,0.22 Z" fill-rule="evenodd" fill="#000000" />
</svg>