<svg xmlns="http://www.w3.org/2000/svg" viewBox="0 0 24 24">
  <path id="limiterEnable" d="M 7,6.5 l 1.11,-0.62 0.93,-0.38 0.96,-0.28 0.99,-0.16 1.01,-0.06 1.32,0.1 1.29,0.29 1.23,0.47 1.16,0.66 1.05,0.81 0.91,0.96 0.76,1.08 0.59,1.19 0.42,1.26 0.23,1.3 0.03,1.32 -0.16,1.32 -0.36,1.28 -0.53,1.2 -0.71,1.12 -0.87,1 -0.32,0.22 -0.38,0.08 -0.39,-0.08 -0.32,-0.22 -2.16,-2.15 -0.22,-0.33 -0.07,-0.38 0.07,-0.38 0.22,-0.33 0.33,-0.22 0.38,-0.07 0.38,0.07 0.33,0.22 1.4,1.4 0.78,-1.34 0.48,-1.48 0.06,-0.37 -1.02,0 -0.36,-0.08 -0.29,-0.22 -0.19,-0.32 -0.07,-0.38 0.07,-0.38 0.19,-0.32 0.29,-0.22 0.36,-0.08 1.02,0 -0.18,-0.85 -0.28,-0.83 -0.39,-0.78 -0.47,-0.73 -0.73,0.72 -0.31,0.2 -0.36,0.04 -0.36,-0.09 -0.31,-0.22 -0.22,-0.31 -0.09,-0.36 0.04,-0.36 0.2,-0.31 0.72,-0.73 -0.3,-0.21 -1.39,-0.72 -1.5,-0.39 0,1.02 -0.08,0.36 -0.22,0.29 -0.32,0.19 -0.38,0.07 -0.38,-0.07 -0.32,-0.19 -0.22,-0.29 -0.08,-0.36 0,-1.02 -1.09,0.25 -1.03,0.41 -0.98,0.6 -0.25,0.1 -0.26,-0.02 -0.22,-0.14 -0.13,-0.23 -0.25,-0.99 0.02,-0.31 0.19,-0.24 Z M 7.53,9.53 l 0.33,-0.22 0.37,-0.08 0.38,0.08 0.33,0.22 1.77,1.76 0.62,-0.21 0.67,-0.08 0.6,0.06 0.57,0.18 0.51,0.27 0.44,0.37 0.37,0.44 0.27,0.51 0.18,0.57 0.06,0.6 -0.06,0.6 -0.18,0.57 -0.27,0.51 -0.37,0.44 -0.44,0.37 -0.51,0.27 -0.57,0.18 -0.6,0.06 -0.6,-0.06 -0.57,-0.18 -0.51,-0.27 -0.44,-0.37 -0.37,-0.44 -0.27,-0.51 -0.18,-0.57 -0.06,-0.6 0.08,-0.67 0.21,-0.62 -1.76,-1.77 -0.22,-0.33 -0.08,-0.38 0.08,-0.37 0.22,-0.33 Z M 6.04,9.04 l 0.23,0.13 0.14,0.22 0.02,0.26 -0.1,0.25 -0.8,1.42 -0.28,0.83 -0.18,0.85 1.02,0 0.36,0.08 0.29,0.22 0.19,0.32 0.07,0.38 -0.07,0.38 -0.19,0.32 -0.29,0.22 -0.36,0.08 -1.02,0 0.06,0.37 0.48,1.48 0.78,1.34 1.4,-1.4 0.33,-0.22 0.38,-0.07 0.38,0.07 0.33,0.22 0.22,0.33 0.07,0.38 -0.07,0.38 -0.22,0.33 -2.16,2.15 -0.33,0.22 -0.38,0.08 -0.37,-0.08 -0.33,-0.22 -0.87,-1 -0.71,-1.12 -0.53,-1.2 -0.36,-1.28 -0.16,-1.32 0.03,-1.32 0.23,-1.3 0.42,-1.26 0.84,-1.57 0.22,-0.18 0.3,-0.02 0.99,0.25 Z M 5,5.73 l 0,1.27 -0.08,0.39 -0.21,0.32 -0.32,0.21 -0.39,0.08 -0.39,-0.08 -0.32,-0.21 -0.21,-0.32 -0.08,-0.39 0,-1.27 -0.41,-0.31 -0.31,-0.41 -0.21,-0.48 -0.07,-0.53 0.16,-0.78 0.43,-0.63 0.63,-0.43 0.78,-0.16 0.78,0.16 0.63,0.43 0.43,0.63 0.16,0.78 -0.07,0.53 -0.21,0.48 -0.31,0.41 -0.41,0.31 Z M 11,14 l 0.08,0.39 0.21,0.32 0.32,0.21 0.39,0.08 0.39,-0.08 0.32,-0.21 0.21,-0.32 0.08,-0.39 -0.08,-0.39 -0.21,-0.32 -0.32,-0.21 -0.39,-0.08 -0.39,0.08 -0.32,0.21 -0.21,0.32 -0.08,0.39 Z M 5,4 l -0.08,-0.39 -0.21,-0.32 -0.32,-0.21 -0.39,-0.08 -0.39,0.08 -0.32,0.21 -0.21,0.32 -0.08,0.39 0.08,0.39 0.21,0.32 0.32,0.21 0.39,0.08 0.39,-0.08 0.32,-0.21 0.21,-0.32 0.08,-0.39 Z" fill-rule="evenodd" fill="#000000" />
</svg>