<svg xmlns="http://www.w3.org/2000/svg" viewBox="0 0 24 24">
  <path id="link2" d="M 4.87,15.05 l -0.37,0.45 -0.26,0.5 -0.16,0.54 -0.06,0.55 0.06,0.55 0.16,0.53 0.26,0.51 0.37,0.45 0.45,0.37 0.51,0.26 0.53,0.16 0.55,0.06 0.55,-0.06 0.54,-0.16 0.5,-0.26 0.45,-0.37 2.09,-2.09 1.42,1.41 -2.09,2.09 -0.77,0.63 -0.85,0.45 -0.9,0.27 -0.94,0.09 -0.93,-0.09 -0.91,-0.27 -0.85,-0.45 -0.76,-0.63 -0.63,-0.76 -0.45,-0.85 -0.27,-0.91 -0.09,-0.93 0.09,-0.94 0.27,-0.9 0.45,-0.85 0.63,-0.77 3.61,-3.61 0.76,-0.62 0.85,-0.45 0.91,-0.27 0.93,-0.09 0.93,0.09 0.91,0.27 0.85,0.45 0.77,0.62 -1.42,1.42 -0.45,-0.37 -0.5,-0.27 -0.54,-0.16 -0.55,-0.05 -0.55,0.05 -0.54,0.16 -0.5,0.27 -0.45,0.37 -3.61,3.61 Z M 12.96,6.96 l -1.42,-1.42 2.09,-2.08 0.77,-0.63 0.85,-0.45 0.9,-0.27 0.94,-0.09 0.93,0.09 0.91,0.27 0.85,0.45 0.76,0.63 0.63,0.76 0.45,0.85 0.27,0.91 0.09,0.93 -0.09,0.94 -0.27,0.9 -0.45,0.85 -0.63,0.77 -3.61,3.61 -0.76,0.62 -0.85,0.45 -0.9,0.27 -0.94,0.09 -0.93,-0.09 -0.9,-0.27 -0.85,-0.44 -0.77,-0.63 1.41,-1.41 0.45,0.37 0.51,0.26 0.53,0.16 0.55,0.05 0.55,-0.05 0.54,-0.16 0.5,-0.27 0.45,-0.37 3.61,-3.61 0.37,-0.45 0.26,-0.5 0.16,-0.54 0.06,-0.55 -0.06,-0.55 -0.16,-0.53 -0.26,-0.51 -0.37,-0.45 -0.45,-0.37 -0.51,-0.26 -0.53,-0.16 -0.55,-0.06 -0.55,0.06 -0.54,0.16 -0.5,0.26 -0.45,0.37 -2.09,2.09 Z" fill-rule="evenodd" fill="#000000" />
</svg>