<svg xmlns="http://www.w3.org/2000/svg" viewBox="0 0 24 24">
  <path id="link" d="M 12.25,6.25 l -0.99,0.99 -0.37,0.25 -0.42,0.11 -0.43,-0.04 -0.4,-0.2 -0.35,-0.41 -0.14,-0.5 0.07,-0.51 0.29,-0.45 1.04,-1.04 0.98,-0.8 1.1,-0.58 1.17,-0.35 1.2,-0.11 1.2,0.11 1.17,0.35 1.1,0.58 0.98,0.8 0.1,0.1 0.8,0.98 0.58,1.1 0.35,1.17 0.11,1.2 -0.11,1.2 -0.35,1.17 -0.58,1.1 -0.8,0.98 -1.04,1.04 -0.45,0.29 -0.51,0.07 -0.5,-0.14 -0.41,-0.35 -0.2,-0.4 -0.04,-0.43 0.11,-0.42 0.25,-0.37 0.99,-0.99 0.5,-0.61 0.35,-0.68 0.22,-0.72 0.07,-0.74 -0.07,-0.74 -0.22,-0.72 -0.35,-0.68 -0.5,-0.61 -0.61,-0.5 -0.68,-0.35 -0.72,-0.22 -0.74,-0.07 -0.74,0.07 -0.72,0.22 -0.68,0.35 -0.61,0.5 Z M 11.75,17.75 l 0.99,-0.99 0.37,-0.25 0.42,-0.11 0.43,0.04 0.4,0.2 0.35,0.41 0.14,0.5 -0.07,0.51 -0.29,0.45 -1.04,1.04 -0.98,0.8 -1.1,0.58 -1.17,0.35 -1.2,0.11 -1.2,-0.11 -1.17,-0.35 -1.1,-0.58 -0.98,-0.8 -0.1,-0.1 -0.8,-0.98 -0.58,-1.1 -0.35,-1.17 -0.11,-1.2 0.11,-1.2 0.35,-1.17 0.58,-1.1 0.8,-0.98 1.04,-1.04 0.45,-0.29 0.51,-0.07 0.5,0.14 0.41,0.35 0.2,0.4 0.04,0.43 -0.11,0.42 -0.25,0.37 -0.99,0.99 -0.5,0.61 -0.35,0.68 -0.22,0.72 -0.07,0.74 0.07,0.74 0.22,0.72 0.35,0.68 0.5,0.61 0.61,0.5 0.68,0.35 0.72,0.22 0.74,0.07 0.74,-0.07 0.72,-0.22 0.68,-0.35 0.61,-0.5 Z M 15.56,10.56 l -5,5 -0.5,0.33 -0.56,0.11 -0.56,-0.11 -0.5,-0.33 -0.33,-0.5 -0.11,-0.56 0.11,-0.56 0.33,-0.5 5,-5 0.5,-0.33 0.56,-0.11 0.56,0.11 0.5,0.33 0.33,0.5 0.11,0.56 -0.11,0.56 -0.33,0.5 Z" fill-rule="evenodd" fill="#000000" />
</svg>