<svg xmlns="http://www.w3.org/2000/svg" viewBox="0 0 24 24">
  <path id="listSmall" d="M 4,17 l 0.08,-0.39 0.21,-0.32 0.32,-0.21 0.39,-0.08 2,0 0.39,0.08 0.32,0.21 0.21,0.32 0.08,0.39 0,2 -0.08,0.39 -0.21,0.32 -0.32,0.21 -0.39,0.08 -2,0 -0.39,-0.08 -0.32,-0.21 -0.21,-0.32 -0.08,-0.39 0,-2 Z M 4,11 l 0.08,-0.39 0.21,-0.32 0.32,-0.21 0.39,-0.08 2,0 0.39,0.08 0.32,0.21 0.21,0.32 0.08,0.39 0,2 -0.08,0.39 -0.21,0.32 -0.32,0.21 -0.39,0.08 -2,0 -0.39,-0.08 -0.32,-0.21 -0.21,-0.32 -0.08,-0.39 0,-2 Z M 4,5 l 0.08,-0.39 0.21,-0.32 0.32,-0.21 0.39,-0.08 2,0 0.39,0.08 0.32,0.21 0.21,0.32 0.08,0.39 0,2 -0.08,0.39 -0.21,0.32 -0.32,0.21 -0.39,0.08 -2,0 -0.39,-0.08 -0.32,-0.21 -0.21,-0.32 -0.08,-0.39 0,-2 Z M 10,17.25 l 0.07,-0.18 0.18,-0.07 5.5,0 0.18,0.07 0.07,0.18 0,1.5 -0.07,0.18 -0.18,0.07 -5.5,0 -0.18,-0.07 -0.07,-0.18 0,-1.5 Z M 15,11.25 l 0.07,-0.18 0.18,-0.07 5.5,0 0.18,0.07 0.07,0.18 0,1.5 -0.07,0.18 -0.18,0.07 -5.5,0 -0.18,-0.07 -0.07,-0.18 0,-1.5 Z M 10,5.25 l 0.07,-0.18 0.18,-0.07 5.5,0 0.18,0.07 0.07,0.18 0,1.5 -0.07,0.18 -0.18,0.07 -5.5,0 -0.18,-0.07 -0.07,-0.18 0,-1.5 Z M 18,17.25 l 0.07,-0.18 0.18,-0.07 2.5,0 0.18,0.07 0.07,0.18 0,1.5 -0.07,0.18 -0.18,0.07 -2.5,0 -0.18,-0.07 -0.07,-0.18 0,-1.5 Z M 10,11.25 l 0.07,-0.18 0.18,-0.07 2.5,0 0.18,0.07 0.07,0.18 0,1.5 -0.07,0.18 -0.18,0.07 -2.5,0 -0.18,-0.07 -0.07,-0.18 0,-1.5 Z M 18,5.25 l 0.07,-0.18 0.18,-0.07 2.5,0 0.18,0.07 0.07,0.18 0,1.5 -0.07,0.18 -0.18,0.07 -2.5,0 -0.18,-0.07 -0.07,-0.18 0,-1.5 Z" fill-rule="evenodd" fill="#000000" />
</svg>