<svg xmlns="http://www.w3.org/2000/svg" viewBox="0 0 24 24">
  <path id="listIndented" d="M 3,3 l 0.08,-0.39 0.21,-0.32 0.32,-0.21 0.39,-0.08 11,0 0.39,0.08 0.32,0.21 0.21,0.32 0.08,0.39 0,2 -0.08,0.39 -0.21,0.32 -0.32,0.21 -0.39,0.08 -11,0 -0.39,-0.08 -0.32,-0.21 -0.21,-0.32 -0.08,-0.39 0,-2 Z M 8,19 l 0.08,-0.39 0.21,-0.32 0.32,-0.21 0.39,-0.08 11,0 0.39,0.08 0.32,0.21 0.21,0.32 0.08,0.39 0,1 -0.08,0.39 -0.21,0.32 -0.32,0.21 -0.39,0.08 -11,0 -0.39,-0.08 -0.32,-0.21 -0.21,-0.32 -0.08,-0.39 0,-1 Z M 8,14 l 0.08,-0.39 0.21,-0.32 0.32,-0.21 0.39,-0.08 11,0 0.39,0.08 0.32,0.21 0.21,0.32 0.08,0.39 0,1 -0.08,0.39 -0.21,0.32 -0.32,0.21 -0.39,0.08 -11,0 -0.39,-0.08 -0.32,-0.21 -0.21,-0.32 -0.08,-0.39 0,-1 Z M 8,9 l 0.08,-0.39 0.21,-0.32 0.32,-0.21 0.39,-0.08 11,0 0.39,0.08 0.32,0.21 0.21,0.32 0.08,0.39 0,1 -0.08,0.39 -0.21,0.32 -0.32,0.21 -0.39,0.08 -11,0 -0.39,-0.08 -0.32,-0.21 -0.21,-0.32 -0.08,-0.39 0,-1 Z" fill-rule="evenodd" fill="#000000" />
</svg>