<svg xmlns="http://www.w3.org/2000/svg" viewBox="0 0 24 24">
  <path id="location2" d="M 3,8 l 0.12,-1.21 0.35,-1.13 0.55,-1.01 0.74,-0.89 0.89,-0.74 1.01,-0.55 1.13,-0.35 1.21,-0.12 1.21,0.12 1.13,0.35 1.01,0.55 0.89,0.74 0.74,0.89 0.55,1.01 0.35,1.13 0.12,1.21 0,0.33 -0.09,1.08 -0.27,1.03 -0.44,0.98 -0.61,0.89 -4.59,5.69 -4.59,-5.69 -0.61,-0.89 -0.44,-0.98 -0.27,-1.03 -0.09,-1.08 0,-0.33 Z M 5,18.35 l 0.05,-0.33 0.15,-0.27 0.47,-0.35 0.59,-0.02 0.28,0.12 0.24,0.23 0.06,0.07 0.16,0.46 0.06,0.29 0.16,0.23 0.23,0.16 0.29,0.06 9.26,0 0.39,-0.08 0.32,-0.21 0.21,-0.32 0.08,-0.39 0,-5.09 -0.07,-0.36 -0.2,-0.28 -0.28,-0.2 -0.36,-0.07 -0.06,0 -0.44,-0.12 -0.32,-0.31 -0.16,-0.43 0.03,-0.47 0.33,-0.48 0.26,-0.14 0.29,-0.05 0.98,0 0.78,0.16 0.63,0.43 0.43,0.63 0.16,0.78 0,7 -0.16,0.78 -0.43,0.63 -0.63,0.43 -0.78,0.16 -11,0 -0.78,-0.16 -0.63,-0.43 -0.43,-0.63 -0.16,-0.78 0,-0.65 Z M 12,8 l -0.06,-0.6 -0.18,-0.57 -0.27,-0.51 -0.37,-0.44 -0.44,-0.37 -0.51,-0.27 -0.57,-0.18 -0.6,-0.06 -0.6,0.06 -0.57,0.18 -0.51,0.27 -0.44,0.37 -0.37,0.44 -0.27,0.51 -0.18,0.57 -0.06,0.6 0.06,0.6 0.18,0.57 0.27,0.51 0.37,0.44 0.44,0.37 0.51,0.27 0.57,0.18 0.6,0.06 0.6,-0.06 0.57,-0.18 0.51,-0.27 0.44,-0.37 0.37,-0.44 0.27,-0.51 0.18,-0.57 0.06,-0.6 Z" fill-rule="evenodd" fill="#000000" />
</svg>