<svg xmlns="http://www.w3.org/2000/svg" viewBox="0 0 24 24">
  <path id="location1" d="M 14.78,10 l 4.22,0 0.39,0.08 0.32,0.21 0.21,0.32 0.08,0.39 0,9 -0.08,0.39 -0.21,0.32 -0.32,0.21 -0.39,0.08 -14,0 -0.39,-0.08 -0.32,-0.21 -0.21,-0.32 -0.08,-0.39 0,-8.25 -0.43,-0.79 -0.31,-0.84 -0.2,-0.88 -0.06,-0.91 0,-0.33 0.12,-1.21 0.35,-1.13 0.55,-1.01 0.74,-0.89 0.89,-0.74 1.01,-0.55 1.13,-0.35 1.21,-0.12 1.21,0.12 1.13,0.35 1.01,0.55 0.89,0.74 0.74,0.89 0.55,1.01 0.35,1.13 0.12,1.21 0,0.33 -0.06,0.85 -0.16,0.82 Z M 13.5,8.33 l 0,-0.33 -0.09,-0.91 -0.26,-0.84 -0.42,-0.77 -0.55,-0.66 -0.66,-0.55 -0.77,-0.42 -0.84,-0.26 -0.91,-0.09 -0.91,0.09 -0.84,0.26 -0.77,0.42 -0.66,0.55 -0.55,0.66 -0.42,0.77 -0.26,0.84 -0.09,0.91 0,0.33 0.07,0.82 0.21,0.79 0.33,0.75 0.46,0.68 3.43,4.24 3.43,-4.24 0.46,-0.68 0.33,-0.75 0.21,-0.79 0.07,-0.82 Z M 11,8 l -0.16,0.78 -0.43,0.63 -0.63,0.43 -0.78,0.16 -0.78,-0.16 -0.63,-0.43 -0.43,-0.63 -0.16,-0.78 0.16,-0.78 0.43,-0.63 0.63,-0.43 0.78,-0.16 0.78,0.16 0.63,0.43 0.43,0.63 0.16,0.78 Z" fill-rule="evenodd" fill="#000000" />
</svg>