<svg xmlns="http://www.w3.org/2000/svg" viewBox="0 0 24 24">
  <path id="locationDestination" d="M 9,9 l 0.12,-1.21 0.35,-1.13 0.55,-1.01 0.74,-0.89 0.89,-0.74 1.01,-0.55 1.13,-0.35 1.21,-0.12 1.21,0.12 1.13,0.35 1.01,0.55 0.89,0.74 0.74,0.89 0.55,1.01 0.35,1.13 0.12,1.21 0,0.33 -0.09,1.08 -0.27,1.03 -0.44,0.98 -0.61,0.89 -4.59,5.69 -4.59,-5.69 -0.61,-0.89 -0.44,-0.98 -0.27,-1.03 -0.09,-1.08 0,-0.33 Z M 18,9 l -0.06,-0.6 -0.18,-0.57 -0.27,-0.51 -0.37,-0.44 -0.44,-0.37 -0.51,-0.27 -0.57,-0.18 -0.6,-0.06 -0.6,0.06 -0.57,0.18 -0.51,0.27 -0.44,0.37 -0.37,0.44 -0.27,0.51 -0.18,0.57 -0.06,0.6 0.06,0.6 0.18,0.57 0.27,0.51 0.37,0.44 0.44,0.37 0.51,0.27 0.57,0.18 0.6,0.06 0.6,-0.06 0.57,-0.18 0.51,-0.27 0.44,-0.37 0.37,-0.44 0.27,-0.51 0.18,-0.57 0.06,-0.6 Z M 5,8 l 3,5 -3,5 -2,0 0,-0.5 1.5,-2.5 1.5,-2 -1.5,-2 -1.5,-2.5 0,-0.5 2,0 Z" fill-rule="evenodd" fill="#000000" />
</svg>