<svg xmlns="http://www.w3.org/2000/svg" viewBox="0 0 24 24">
  <path id="lockClosed" d="M 6,9.5 l 0,-1.5 0.12,-1.21 0.35,-1.13 0.55,-1.01 0.74,-0.89 0.89,-0.74 1.01,-0.55 1.13,-0.35 1.21,-0.12 1.21,0.12 1.13,0.35 1.01,0.55 0.89,0.74 0.74,0.89 0.55,1.01 0.35,1.13 0.12,1.21 0,1.5 1,0 0.39,0.08 0.32,0.21 0.21,0.32 0.08,0.39 0,8 -0.08,0.39 -0.21,0.32 -0.32,0.21 -0.39,0.08 -14,0 -0.39,-0.08 -0.32,-0.21 -0.21,-0.32 -0.08,-0.39 0,-8 0.08,-0.39 0.21,-0.32 0.32,-0.21 0.39,-0.08 1,0 Z M 8,9.5 l 8,0 0,-1.5 -0.08,-0.81 -0.23,-0.75 -0.37,-0.68 -0.49,-0.59 -0.59,-0.49 -0.68,-0.37 -0.75,-0.23 -0.81,-0.08 -0.81,0.08 -0.75,0.23 -0.68,0.37 -0.59,0.49 -0.49,0.59 -0.37,0.68 -0.23,0.75 -0.08,0.81 0,1.5 Z" fill-rule="evenodd" fill="#000000" />
</svg>