<svg xmlns="http://www.w3.org/2000/svg" viewBox="0 0 24 24">
  <path id="longRangeBeam1" d="M 5,13 l -0.6,-0.06 -0.57,-0.18 -0.51,-0.27 -0.44,-0.37 -0.37,-0.44 -0.27,-0.51 -0.18,-0.57 -0.06,-0.6 0.06,-0.6 0.18,-0.57 0.27,-0.51 0.37,-0.44 0.44,-0.37 0.51,-0.27 0.57,-0.18 0.6,-0.06 0.62,0.06 0.57,0.19 0.52,0.29 0.45,0.38 3.83,-1.91 0.97,-0.42 1,-0.31 1.03,-0.2 1.04,-0.09 1.04,0.03 1.04,0.13 1.02,0.25 1,0.37 0.11,0.05 0.6,0.31 0.54,0.39 0.87,0.98 0.55,1.18 0.15,0.65 0.05,0.67 -0.05,0.67 -0.15,0.65 -0.55,1.18 -0.87,0.98 -0.54,0.39 -0.6,0.31 -0.11,0.05 -1,0.37 -1.02,0.25 -1.04,0.13 -1.04,0.03 -1.04,-0.09 -1.03,-0.2 -1,-0.31 -0.97,-0.42 -3.83,-1.91 -0.45,0.38 -0.52,0.29 -0.57,0.19 -0.62,0.06 Z M 13,18 l 0,1.5 3.5,0 0,-3 1.5,0 0,3 2.5,0 0,-4.5 1.5,0 0,6 -12,0 0,-1.5 1.5,0 0,-1.5 1.5,0 Z M 5,11.5 l 0.58,-0.12 0.48,-0.32 0.32,-0.48 0.12,-0.58 -0.12,-0.58 -0.32,-0.48 -0.48,-0.32 -0.58,-0.12 -0.58,0.12 -0.48,0.32 -0.32,0.48 -0.12,0.58 0.12,0.58 0.32,0.48 0.48,0.32 0.58,0.12 Z M 4,18 l 1.5,0 0,3 -1.5,0 0,-3 Z" fill-rule="evenodd" fill="#000000" />
</svg>