<svg xmlns="http://www.w3.org/2000/svg" viewBox="0 0 24 24">
  <path id="lowBeam" d="M 9.2,6.73 l 0,2.07 0.06,0.27 0.15,0.22 0.22,0.15 0.27,0.06 0.27,-0.06 0.22,-0.15 0.15,-0.22 0.06,-0.27 0,-3.1 0.06,-0.27 0.15,-0.22 0.22,-0.15 0.27,-0.06 0.27,0.06 0.22,0.15 0.15,0.22 0.06,0.27 0,10.3 -0.08,0.39 -0.21,0.32 -0.32,0.21 -0.39,0.08 -1.53,0 -0.5,-0.13 -3.47,-2 -0.63,-0.49 -0.47,-0.61 -0.3,-0.72 -0.1,-0.78 0,-2.54 0.1,-0.78 0.3,-0.72 0.47,-0.61 0.63,-0.49 2.2,-1.26 0.52,-0.14 0.48,0.14 0.36,0.35 0.14,0.51 Z M 20.24,11.05 l -6.5,-3.9 -0.18,-0.19 -0.06,-0.24 0,-0.39 0.07,-0.25 0.17,-0.18 0.24,-0.07 0.26,0.06 6.5,3.47 0.19,0.18 0.07,0.26 0,0.82 -0.07,0.26 -0.18,0.17 -0.25,0.07 -0.26,-0.07 Z M 20.24,19.05 l -6.5,-3.9 -0.18,-0.19 -0.06,-0.24 0,-0.39 0.07,-0.25 0.17,-0.18 0.24,-0.07 0.26,0.06 6.5,3.47 0.19,0.18 0.07,0.26 0,0.82 -0.07,0.26 -0.18,0.17 -0.25,0.07 -0.26,-0.07 Z M 20.24,15.05 l -6.5,-3.9 -0.18,-0.19 -0.06,-0.24 0,-0.39 0.07,-0.25 0.17,-0.18 0.24,-0.07 0.26,0.06 6.5,3.47 0.19,0.18 0.07,0.26 0,0.82 -0.07,0.26 -0.18,0.17 -0.25,0.07 -0.26,-0.07 Z" fill-rule="evenodd" fill="#000000" />
</svg>