<svg xmlns="http://www.w3.org/2000/svg" viewBox="0 0 24 24">
  <path id="magicWand" d="M 12,14 l -6.83,6.83 -0.41,0.17 -0.69,-0.14 -0.56,-0.37 -0.37,-0.56 -0.14,-0.69 0.17,-0.41 6.83,-6.83 2,2 Z M 9.5,2 l 0.28,0.09 0.17,0.22 0.46,1.39 0.19,0.42 0.28,0.36 0.35,0.31 0.43,0.23 0.94,0.41 0.29,0.23 0.11,0.34 -0.11,0.34 -0.29,0.23 -0.94,0.41 -0.43,0.23 -0.35,0.31 -0.28,0.36 -0.19,0.42 -0.46,1.39 -0.17,0.22 -0.28,0.09 -0.28,-0.09 -0.17,-0.22 -0.46,-1.39 -0.19,-0.42 -0.28,-0.36 -0.35,-0.31 -0.43,-0.23 -0.94,-0.41 -0.29,-0.23 -0.11,-0.34 0.11,-0.34 0.29,-0.23 0.94,-0.41 0.43,-0.23 0.35,-0.31 0.28,-0.36 0.19,-0.42 0.46,-1.39 0.17,-0.22 0.28,-0.09 Z M 13.79,8.21 l 0.33,-0.22 0.38,-0.08 0.38,0.08 0.33,0.22 0.58,0.58 0.22,0.33 0.08,0.38 -0.08,0.38 -0.22,0.33 -2.79,2.79 -2,-2 2.79,-2.79 Z M 18,3 l 0.16,0.05 0.1,0.14 0.26,0.87 0.27,0.49 0.44,0.34 0.54,0.25 0.17,0.15 0.06,0.21 -0.06,0.21 -0.17,0.15 -0.54,0.25 -0.44,0.34 -0.27,0.49 -0.26,0.87 -0.1,0.14 -0.16,0.05 -0.16,-0.05 -0.1,-0.14 -0.26,-0.87 -0.27,-0.49 -0.44,-0.34 -0.54,-0.25 -0.17,-0.15 -0.06,-0.21 0.06,-0.21 0.17,-0.15 0.54,-0.25 0.44,-0.34 0.27,-0.49 0.26,-0.87 0.1,-0.14 0.16,-0.05 Z M 18,15 l 0.16,0.05 0.1,0.14 0.26,0.87 0.27,0.49 0.44,0.34 0.54,0.25 0.17,0.15 0.06,0.21 -0.06,0.21 -0.17,0.15 -0.54,0.25 -0.44,0.34 -0.27,0.49 -0.26,0.87 -0.1,0.14 -0.16,0.05 -0.16,-0.05 -0.1,-0.14 -0.26,-0.87 -0.27,-0.49 -0.44,-0.34 -0.54,-0.25 -0.17,-0.15 -0.06,-0.21 0.06,-0.21 0.17,-0.15 0.54,-0.25 0.44,-0.34 0.27,-0.49 0.26,-0.87 0.1,-0.14 0.16,-0.05 Z" fill-rule="evenodd" fill="#000000" />
</svg>