<svg xmlns="http://www.w3.org/2000/svg" viewBox="0 0 24 24">
  <path id="magnetOnSurface" d="M 3,15 l 3,0 0,1.5 0.12,0.58 0.32,0.48 0.48,0.32 0.58,0.12 0.58,-0.12 0.48,-0.32 0.32,-0.48 0.12,-0.58 0,-1.5 3,0 0,1.5 -0.09,0.91 -0.26,0.84 -0.42,0.77 -0.55,0.66 -0.66,0.55 -0.77,0.42 -0.84,0.26 -0.91,0.09 -0.91,-0.09 -0.84,-0.26 -0.77,-0.42 -0.66,-0.55 -0.55,-0.66 -0.42,-0.77 -0.26,-0.84 -0.09,-0.91 0,-1.5 Z M 6,3 l 2,0 0,2 2,0 0,2 -2,0 0,2 -2,0 0,-2 -2,0 0,-2 2,0 0,-2 Z M 16,3 l 2,0 0,2 2,0 0,2 -2,0 0,2 -2,0 0,-2 -2,0 0,-2 2,0 0,-2 Z M 18,13 l 0,2 2,0 0,2 -2,0 0,2 -2,0 0,-2 -2,0 0,-2 2,0 0,-2 2,0 Z M 3,11 l 3,0 0,3 -3,0 0,-3 Z M 12,11 l 0,3 -3,0 0,-3 3,0 Z" fill-rule="evenodd" fill="#000000" />
</svg>