<svg xmlns="http://www.w3.org/2000/svg" viewBox="0 0 24 24">
  <path id="mapPoint" d="M 11.28,21.6 l -0.94,-1.46 -0.85,-1.3 -0.76,-1.16 -0.67,-1.02 -0.58,-0.91 -0.51,-0.8 -0.44,-0.71 -0.38,-0.64 -0.56,-1.11 -0.35,-0.98 -0.19,-0.96 -0.05,-1.05 0.14,-1.51 0.41,-1.41 0.65,-1.27 0.85,-1.11 1.04,-0.92 1.19,-0.69 1.31,-0.44 1.41,-0.15 1.41,0.15 1.31,0.44 1.19,0.69 1.04,0.92 0.85,1.11 0.65,1.27 0.41,1.41 0.14,1.51 -0.05,1.05 -0.19,0.96 -0.35,0.98 -0.56,1.11 -0.38,0.64 -0.44,0.71 -0.51,0.8 -0.58,0.91 -0.67,1.02 -0.76,1.16 -0.85,1.3 -0.94,1.46 -0.32,0.3 -0.4,0.1 -0.4,-0.1 -0.32,-0.3 Z M 12,12.63 l 0.59,-0.07 0.55,-0.18 0.49,-0.29 0.43,-0.38 0.36,-0.46 0.27,-0.53 0.17,-0.59 0.06,-0.63 -0.06,-0.63 -0.17,-0.59 -0.27,-0.53 -0.36,-0.46 -0.43,-0.38 -0.49,-0.29 -0.55,-0.18 -0.59,-0.06 -0.59,0.06 -0.55,0.18 -0.49,0.29 -0.43,0.38 -0.36,0.46 -0.27,0.53 -0.17,0.59 -0.06,0.63 0.06,0.63 0.17,0.59 0.27,0.53 0.36,0.46 0.43,0.38 0.49,0.29 0.55,0.18 0.59,0.07 Z" fill-rule="evenodd" fill="#000000" />
</svg>