<svg xmlns="http://www.w3.org/2000/svg" viewBox="0 0 24 24">
  <path id="mapWithEmitter" d="M 14.94,2.46 l 0.53,-0.17 0.54,-0.08 0.55,0.03 0.53,0.12 3.54,1.18 0.56,0.29 0.43,0.44 0.28,0.55 0.1,0.62 0,13.17 -0.11,0.47 -0.31,0.34 -0.42,0.18 -0.48,-0.04 -3.59,-1.2 -0.53,-0.12 -0.55,-0.03 -0.54,0.08 -0.53,0.17 -6,2.63 -0.95,0.24 -0.98,-0.08 -3.5,-0.87 -0.61,-0.27 -0.48,-0.44 -0.31,-0.57 -0.11,-0.66 0,-13.16 0.11,-0.45 0.27,-0.34 0.4,-0.19 0.46,0.01 3.77,0.94 0.98,0.08 0.95,-0.24 6,-2.63 Z M 17.5,16.92 l 3,1 0,-12.48 -0.09,-0.29 -0.25,-0.18 -2.66,-0.89 0,12.84 Z M 3.5,5.92 l 0,12.52 0.11,0.31 0.27,0.17 2.62,0.66 0,-3.88 -0.85,-0.98 -0.63,-1.13 -0.39,-1.23 -0.13,-1.29 0.12,-1.24 0.35,-1.17 0.57,-1.08 0.76,-0.96 -2.8,-0.7 Z M 9.25,7.97 l -0.75,-1.3 -1.04,0.79 -0.79,1.04 -0.5,1.21 -0.17,1.29 0.17,1.29 0.5,1.21 0.79,1.04 1.04,0.79 0.75,-1.3 -0.72,-0.56 -0.56,-0.72 -0.35,-0.84 -0.12,-0.91 0.12,-0.91 0.35,-0.84 0.56,-0.72 0.72,-0.56 Z M 12.75,7.97 l 0.72,0.56 0.56,0.72 0.35,0.84 0.12,0.91 -0.12,0.91 -0.35,0.84 -0.56,0.72 -0.72,0.56 0.75,1.3 1.04,-0.79 0.79,-1.04 0.5,-1.21 0.17,-1.29 -0.17,-1.29 -0.5,-1.21 -0.79,-1.04 -1.04,-0.79 -0.75,1.3 Z M 11,13 l 0.78,-0.16 0.63,-0.43 0.43,-0.63 0.16,-0.78 -0.16,-0.78 -0.43,-0.63 -0.63,-0.43 -0.78,-0.16 -0.78,0.16 -0.63,0.43 -0.43,0.63 -0.16,0.78 0.16,0.78 0.43,0.63 0.63,0.43 0.78,0.16 Z" fill-rule="evenodd" fill="#000000" />
</svg>