<svg xmlns="http://www.w3.org/2000/svg" viewBox="0 0 56 56">
  <path id="markerTriangleFront" d="M 48.23,10.39 l -1.88,5.26 -2.06,5.11 -2.22,4.92 -2.36,4.67 -2.48,4.37 -2.56,4.03 -1.31,1.86 -1.32,1.76 -1.33,1.65 -1.33,1.53 -0.64,0.46 -0.74,0.16 -0.74,-0.16 -0.64,-0.46 -1.33,-1.53 -1.33,-1.65 -1.32,-1.76 -1.31,-1.86 -2.56,-4.03 -2.48,-4.37 -2.36,-4.67 -2.22,-4.92 -2.06,-5.11 -1.88,-5.26 -0.09,-0.46 0.01,-0.44 0.11,-0.43 0.21,-0.38 0.28,-0.33 0.35,-0.26 0.41,-0.18 0.46,-0.09 4.46,-0.25 4.6,-0.18 9.43,-0.14 9.43,0.14 4.6,0.18 4.46,0.25 0.46,0.09 0.41,0.18 0.35,0.26 0.28,0.33 0.21,0.38 0.11,0.43 0.01,0.44 Z" fill-rule="evenodd" fill="#000000" />
</svg>