<svg xmlns="http://www.w3.org/2000/svg" viewBox="0 0 56 56">
  <path id="markerRectanglePinFront" d="M 45.75,41.5 l 0,-29.83 -0.1,-0.94 -0.27,-0.86 -0.43,-0.77 -0.57,-0.67 -0.69,-0.55 -0.79,-0.42 -0.86,-0.26 -0.92,-0.09 -26.25,0 -0.91,0.09 -0.86,0.26 -0.79,0.42 -0.69,0.55 -0.57,0.67 -0.43,0.77 -0.27,0.86 -0.1,0.94 0,29.83 0.1,0.93 0.27,0.86 0.43,0.78 0.57,0.67 0.69,0.55 0.79,0.41 0.86,0.27 0.92,0.09 26.25,0 0.91,-0.1 0.86,-0.26 0.79,-0.41 0.69,-0.55 0.57,-0.67 0.43,-0.78 0.27,-0.86 Z" fill-rule="evenodd" fill="#000000" />
</svg>