<svg xmlns="http://www.w3.org/2000/svg" viewBox="0 0 56 56">
  <path id="markerTriangleBack" d="M 46.69,4.83 l 1.16,0.21 1.03,0.46 0.89,0.66 0.71,0.84 0.51,0.97 0.29,1.07 0.03,1.14 -0.24,1.16 -1.9,5.36 -2.11,5.22 -2.28,5.04 -2.43,4.8 -2.56,4.52 -2.66,4.17 -1.36,1.95 -1.38,1.84 -1.39,1.72 -1.4,1.61 -0.79,0.7 -0.88,0.5 -0.95,0.3 -0.98,0.1 -0.98,-0.1 -0.95,-0.3 -0.88,-0.5 -0.79,-0.7 -1.4,-1.61 -1.39,-1.72 -1.38,-1.84 -1.36,-1.95 -2.66,-4.17 -2.56,-4.52 -2.43,-4.8 -2.28,-5.04 -2.11,-5.22 -1.9,-5.36 -0.24,-1.16 0.03,-1.14 0.29,-1.07 0.51,-0.97 0.71,-0.84 0.89,-0.66 1.03,-0.46 1.16,-0.21 4.51,-0.25 4.65,-0.19 9.53,-0.14 9.53,0.14 4.65,0.19 4.51,0.25 Z M 9.69,9.81 l 1.84,5.17 2.02,5 2.17,4.81 2.3,4.55 2.41,4.26 2.48,3.91 1.26,1.81 1.27,1.7 1.28,1.6 1.28,1.48 1.28,-1.48 1.28,-1.6 1.27,-1.7 1.26,-1.81 2.48,-3.91 2.41,-4.26 2.3,-4.55 2.17,-4.81 2.02,-5 1.84,-5.17 -4.41,-0.24 -4.56,-0.18 -9.34,-0.14 -9.34,0.14 -4.56,0.18 -4.41,0.24 Z" fill-rule="evenodd" fill="#000000" />
</svg>