<svg xmlns="http://www.w3.org/2000/svg" viewBox="0 0 56 56">
  <path id="markerRectanglePinBack" d="M 14.87,4 l 26.25,0 1.59,0.16 1.48,0.44 1.34,0.71 1.16,0.94 0.97,1.13 0.72,1.3 0.46,1.44 0.16,1.55 0,29.83 -0.16,1.54 -0.46,1.44 -0.72,1.31 -0.97,1.13 -1.16,0.94 -1.34,0.7 -1.48,0.45 -1.58,0.16 -5.35,0 -7.78,5.83 -7.78,-5.83 -5.34,0 -1.59,-0.16 -1.48,-0.45 -1.34,-0.7 -1.16,-0.94 -0.97,-1.13 -0.72,-1.31 -0.46,-1.43 -0.16,-1.55 0,-29.83 0.16,-1.55 0.46,-1.44 0.72,-1.3 0.97,-1.13 1.16,-0.94 1.34,-0.71 1.48,-0.44 1.58,-0.16 Z M 41.13,9.11 l -26.25,0 -0.53,0.05 -0.5,0.15 -0.44,0.24 -0.39,0.31 -0.32,0.38 -0.24,0.43 -0.16,0.48 -0.05,0.52 0,29.83 0.05,0.52 0.16,0.47 0.24,0.44 0.32,0.38 0.39,0.31 0.44,0.23 0.5,0.15 0.53,0.06 26.25,0 0.52,-0.06 0.5,-0.15 0.44,-0.23 0.39,-0.31 0.32,-0.38 0.24,-0.44 0.16,-0.48 0.05,-0.51 0,-29.83 -0.05,-0.52 -0.16,-0.48 -0.24,-0.43 -0.32,-0.38 -0.39,-0.31 -0.44,-0.24 -0.5,-0.15 -0.52,-0.05 Z" fill-rule="evenodd" fill="#000000" />
</svg>