<svg xmlns="http://www.w3.org/2000/svg" viewBox="0 0 24 24">
  <path id="materialTransparency01" d="M 4,7 l 2,0 0,-2 2,0 0,-2 2,0 0,2 2,0 0,-2 2,0 0,2 2,0 0,-2 1.41,0 3.59,3.59 0,0.41 -2.41,0 -1,-1 0,0 -0.98,-1 -0.61,0 0,2 1,0 0,2 -1,0 0,2 1,0 0,2 -1,0 0,2 1,0 0,1 -1,0 0,-1 -2,0 0,1 -2,0 0,-1 -2,0 0,1 -2,0 0,-1 -2,0 0,0.58 0.42,0.42 -0.01,0 1.59,1.59 0,2.41 -0.41,0 -3.59,-3.59 0,-1.41 2,0 0,-2 -2,0 0,-2 2,0 0,-2 -2,0 0,-2 Z M 8,7 l -2,0 0,2 2,0 0,2 -2,0 0,2 2,0 0,2 2,0 0,-2 2,0 0,2 2,0 0,-2 2,0 0,-2 -2,0 0,-2 2,0 0,-2 -2,0 0,-2 -2,0 0,2 -2,0 0,-2 -2,0 0,2 Z M 12,11 l -2,0 0,2 -2,0 0,-2 2,0 0,-2 2,0 0,2 Z M 21,17 l 0,3 -3,0 0,-2 1,0 0,-1 2,0 Z M 4,3 l 2,0 0,2 -2,0 0,-2 Z M 10,9 l -2,0 0,-2 2,0 0,2 Z M 12,9 l 0,-2 2,0 0,2 -2,0 Z M 12,11 l 2,0 0,2 -2,0 0,-2 Z M 21,9 l 0,2 -2,0 0,-2 2,0 Z M 21,13 l 0,2 -2,0 0,-2 2,0 Z M 16,20 l -2,0 0,-2 2,0 0,2 Z M 12,20 l -2,0 0,-2 2,0 0,2 Z" fill-rule="evenodd" fill="#000000" />
</svg>