<svg xmlns="http://www.w3.org/2000/svg" viewBox="0 0 24 24">
  <path id="materialTransparency02" d="M 2,12 l 0.05,-1.02 0.15,-1 0.25,-0.95 0.34,-0.92 0.92,-1.7 1.22,-1.48 1.48,-1.22 1.7,-0.92 0.92,-0.34 0.95,-0.25 1,-0.15 1.02,-0.05 1.02,0.05 1,0.15 0.95,0.25 0.92,0.34 1.7,0.92 1.48,1.22 1.22,1.48 0.92,1.7 0.34,0.92 0.25,0.95 0.15,1 0.05,1.02 -0.05,1.02 -0.15,1 -0.25,0.95 -0.34,0.92 -0.92,1.7 -1.22,1.48 -1.48,1.22 -1.7,0.92 -0.92,0.34 -0.95,0.25 -1,0.15 -1.02,0.05 -1.02,-0.05 -1,-0.15 -0.95,-0.25 -0.92,-0.34 -1.7,-0.92 -1.48,-1.22 -1.22,-1.48 -0.92,-1.7 -0.34,-0.92 -0.25,-0.95 -0.15,-1 -0.05,-1.02 Z M 12,20.5 l 1.71,-0.17 1.6,-0.5 1.44,-0.78 1.26,-1.04 1.04,-1.26 0.78,-1.44 0.5,-1.6 0.17,-1.71 -0.17,-1.71 -0.5,-1.6 -0.78,-1.44 -1.04,-1.26 -1.26,-1.04 -1.44,-0.78 -1.6,-0.5 -1.71,-0.17 -1.71,0.17 -1.6,0.5 -1.44,0.78 -1.26,1.04 -1.04,1.26 -0.78,1.44 -0.5,1.6 -0.17,1.71 0.17,1.71 0.5,1.6 0.78,1.44 1.04,1.26 1.26,1.04 1.44,0.78 1.6,0.5 1.71,0.17 Z M 12,15 l 0,-3 -3,0 0,-3 3,0 0,3 3,0 0,-3 3.33,0 0.5,1.44 0.17,1.56 -0.14,1.41 -0.41,1.31 -0.65,1.19 -0.85,1.04 -1.04,0.85 -1.19,0.65 -1.31,0.41 -1.41,0.14 -1.56,-0.17 -1.44,-0.5 0,-3.33 3,0 Z M 5,12 l 0.14,-1.41 0.41,-1.31 0.65,-1.19 0.85,-1.04 1.04,-0.85 1.19,-0.65 1.31,-0.41 1.41,-0.14 1.56,0.17 1.44,0.5 0,3.33 -3,0 0,-3 -3,0 0,3 -3,0 0,3 3,0 0,3 -3.33,0 -0.5,-1.44 -0.17,-1.56 Z M 15,15 l -3,0 0,3 3,0 0,-3 Z M 15,15 l 3,0 0,-3 -3,0 0,3 Z" fill-rule="evenodd" fill="#000000" />
</svg>