<svg xmlns="http://www.w3.org/2000/svg" viewBox="0 0 24 24">
  <path id="medalEmpty" d="M 12,21 l -1.21,-0.12 -1.13,-0.35 -1.01,-0.55 -0.89,-0.74 -0.74,-0.89 -0.55,-1.01 -0.35,-1.13 -0.12,-1.21 0.12,-1.21 0.35,-1.13 0.55,-1.01 0.74,-0.89 0.89,-0.74 1.01,-0.55 1.13,-0.35 1.21,-0.12 1.21,0.12 1.13,0.35 1.01,0.55 0.89,0.74 0.74,0.89 0.55,1.01 0.35,1.13 0.12,1.21 -0.12,1.21 -0.35,1.13 -0.55,1.01 -0.74,0.89 -0.89,0.74 -1.01,0.55 -1.13,0.35 -1.21,0.12 Z M 13.6,7.67 l -0.48,-0.22 -0.31,-0.42 -0.32,-0.82 -0.06,-0.43 0.14,-0.39 0.31,-0.28 0.43,-0.11 0.29,-0.05 0.25,-0.14 0.2,-0.21 0.12,-0.27 0.14,-0.57 0.13,-0.31 0.23,-0.24 0.28,-0.15 0.33,-0.06 3.1,0 0.5,0.13 0.35,0.34 0.15,0.47 -0.1,0.51 -1.85,3.69 -0.3,0.36 -0.41,0.19 -0.45,0.01 -0.45,-0.16 -1.07,-0.52 -1.15,-0.35 Z M 8.18,8.54 l -0.45,0.16 -0.45,-0.01 -0.41,-0.19 -0.3,-0.36 -1.85,-3.69 -0.1,-0.51 0.15,-0.47 0.35,-0.34 0.5,-0.13 3.22,0 0.55,0.17 0.37,0.44 1.13,2.62 0.07,0.48 -0.14,0.45 -0.31,0.37 -0.45,0.22 -0.97,0.34 -0.91,0.45 Z" fill-rule="evenodd" fill="#000000" />
</svg>