<svg xmlns="http://www.w3.org/2000/svg" viewBox="0 0 48 48">
  <path id="medalStarOutline" d="M 8,19 l 0.08,-1.64 0.25,-1.58 0.39,-1.54 0.54,-1.47 0.67,-1.4 0.8,-1.32 0.92,-1.23 1.04,-1.13 1.13,-1.04 1.23,-0.92 1.32,-0.8 1.4,-0.67 1.47,-0.54 1.54,-0.39 1.58,-0.25 1.64,-0.08 1.64,0.08 1.58,0.25 1.54,0.39 1.47,0.54 1.4,0.67 1.32,0.8 1.23,0.92 1.13,1.04 1.04,1.13 0.92,1.23 0.8,1.32 0.67,1.4 0.54,1.47 0.39,1.54 0.25,1.58 0.08,1.64 -0.11,1.88 -0.32,1.82 -0.52,1.74 -0.7,1.65 -0.88,1.54 -1.04,1.44 -1.18,1.31 -1.33,1.17 2.99,11.16 -6.12,-3.53 -3.54,6.12 -2.76,-10.31 -0.49,0.01 -0.49,-0.01 -2.76,10.31 -3.54,-6.12 -6.12,3.53 2.99,-11.16 -1.33,-1.17 -1.18,-1.31 -1.04,-1.44 -0.88,-1.54 -0.7,-1.66 -0.52,-1.73 -0.32,-1.82 -0.11,-1.88 Z M 24,5 l -1.43,0.07 -1.39,0.21 -1.34,0.35 -1.29,0.47 -1.22,0.59 -1.16,0.7 -1.08,0.81 -0.99,0.9 -0.9,0.99 -0.81,1.08 -0.7,1.16 -0.59,1.22 -0.47,1.29 -0.35,1.34 -0.21,1.39 -0.07,1.43 0.07,1.43 0.21,1.39 0.35,1.34 0.47,1.29 0.59,1.22 0.7,1.16 0.81,1.08 0.9,0.99 0.99,0.9 1.08,0.81 1.16,0.7 1.22,0.59 1.29,0.47 1.34,0.35 1.39,0.21 1.43,0.07 1.43,-0.07 1.39,-0.21 1.34,-0.35 1.29,-0.47 1.22,-0.59 1.16,-0.7 1.08,-0.81 0.99,-0.9 0.9,-0.99 0.81,-1.08 0.7,-1.16 0.59,-1.22 0.47,-1.29 0.35,-1.34 0.21,-1.39 0.07,-1.43 -0.07,-1.43 -0.21,-1.39 -0.35,-1.34 -0.47,-1.29 -0.59,-1.22 -0.7,-1.16 -0.81,-1.08 -0.9,-0.99 -0.99,-0.9 -1.08,-0.81 -1.16,-0.7 -1.22,-0.59 -1.29,-0.47 -1.34,-0.35 -1.39,-0.21 -1.43,-0.07 Z M 24,7 l 1.23,0.06 1.19,0.18 1.15,0.3 1.1,0.4 1.05,0.51 0.99,0.6 0.92,0.69 0.86,0.77 0.77,0.86 0.69,0.92 0.6,0.99 0.51,1.05 0.4,1.1 0.3,1.15 0.18,1.19 0.06,1.23 -0.06,1.23 -0.18,1.19 -0.3,1.15 -0.4,1.1 -0.51,1.05 -0.6,0.99 -0.69,0.92 -0.77,0.86 -0.86,0.77 -0.92,0.69 -0.99,0.6 -1.05,0.51 -1.1,0.4 -1.15,0.3 -1.19,0.18 -1.23,0.06 -1.23,-0.06 -1.19,-0.18 -1.15,-0.3 -1.1,-0.4 -1.05,-0.51 -0.99,-0.6 -0.92,-0.69 -0.86,-0.77 -0.77,-0.86 -0.69,-0.92 -0.6,-0.99 -0.51,-1.05 -0.4,-1.1 -0.3,-1.15 -0.18,-1.19 -0.06,-1.23 0.06,-1.23 0.18,-1.19 0.3,-1.15 0.4,-1.1 0.51,-1.05 0.6,-0.99 0.69,-0.92 0.77,-0.86 0.86,-0.77 0.92,-0.69 0.99,-0.6 1.05,-0.51 1.1,-0.4 1.15,-0.3 1.19,-0.18 1.23,-0.06 Z M 14,19 l 0.05,1.02 0.15,1 0.25,0.95 0.34,0.92 0.92,1.7 1.22,1.48 1.48,1.22 1.7,0.92 0.92,0.34 0.95,0.25 1,0.15 1.02,0.05 1.02,-0.05 1,-0.15 0.95,-0.25 0.92,-0.34 1.7,-0.92 1.48,-1.22 1.22,-1.48 0.92,-1.7 0.34,-0.92 0.25,-0.95 0.15,-1 0.05,-1.02 -0.05,-1.02 -0.15,-1 -0.25,-0.95 -0.34,-0.92 -0.92,-1.7 -1.22,-1.48 -1.48,-1.22 -1.7,-0.92 -0.92,-0.34 -0.95,-0.25 -1,-0.15 -1.02,-0.05 -1.02,0.05 -1,0.15 -0.95,0.25 -0.92,0.34 -1.7,0.92 -1.48,1.22 -1.22,1.48 -0.92,1.7 -0.34,0.92 -0.25,0.95 -0.15,1 -0.05,1.02 Z M 26.89,15.02 l 3.71,0.4 0.44,0.11 0.37,0.23 0.28,0.31 0.18,0.37 0.07,0.41 -0.04,0.42 -0.16,0.4 -0.3,0.35 -2.77,2.5 0.78,3.65 0.03,0.46 -0.11,0.42 -0.21,0.36 -0.3,0.28 -0.36,0.2 -0.41,0.09 -0.43,-0.03 -0.43,-0.17 -3.23,-1.87 -3.23,1.87 -0.43,0.17 -0.43,0.03 -0.41,-0.09 -0.36,-0.2 -0.3,-0.28 -0.21,-0.36 -0.11,-0.42 0.03,-0.46 0.78,-3.65 -2.77,-2.5 -0.3,-0.35 -0.16,-0.4 -0.04,-0.42 0.07,-0.41 0.18,-0.37 0.28,-0.31 0.37,-0.23 0.44,-0.11 3.71,-0.4 1.52,-3.4 0.25,-0.39 0.33,-0.28 0.38,-0.17 0.41,-0.05 0.41,0.05 0.38,0.17 0.33,0.28 0.25,0.39 1.52,3.4 Z M 22.82,16.1 l -0.21,0.34 -0.28,0.26 -0.34,0.19 -0.38,0.09 -2.88,0.31 2.15,1.94 0.26,0.3 0.16,0.35 0.07,0.38 -0.03,0.39 -0.6,2.84 2.51,-1.45 0.37,-0.15 0.38,-0.05 0.38,0.05 0.37,0.15 2.51,1.45 -0.6,-2.84 -0.03,-0.39 0.07,-0.38 0.16,-0.35 0.26,-0.3 2.15,-1.94 -2.88,-0.31 -0.38,-0.09 -0.34,-0.19 -0.28,-0.26 -0.21,-0.34 -1.18,-2.64 -1.18,2.64 Z M 15.82,32.76 l -1.55,5.81 3.67,-2.12 2.12,3.67 1.43,-5.32 -1.51,-0.31 -1.45,-0.45 -1.39,-0.58 -1.32,-0.7 Z M 26.51,34.8 l 1.43,5.32 2.12,-3.67 3.67,2.12 -1.56,-5.81 -1.31,0.7 -1.39,0.58 -1.45,0.45 -1.51,0.31 Z" fill-rule="evenodd" fill="#000000" />
</svg>