<svg xmlns="http://www.w3.org/2000/svg" viewBox="0 0 48 48">
  <path id="megaphoneOutline" d="M 33.27,8.23 l 1.71,-0.45 0.6,-0.1 0.59,0.02 0.56,0.14 0.52,0.24 0.47,0.33 0.4,0.42 0.32,0.5 0.21,0.57 3.37,12.55 0.09,0.6 -0.02,0.59 -0.13,0.57 -0.24,0.52 -0.34,0.47 -0.42,0.4 -0.5,0.31 -0.56,0.22 -1.76,0.47 -0.55,0.09 -18.59,1.4 -0.15,-2 18.59,-1.39 0.19,-0.03 1.75,-0.47 0.35,-0.18 0.25,-0.29 0.13,-0.36 -0.03,-0.4 -3.36,-12.55 -0.18,-0.36 -0.29,-0.25 -0.36,-0.13 -0.39,0.03 -1.71,0.46 -0.22,0.08 -18.81,10.17 -4.03,1.83 -0.29,0.2 -0.2,0.29 -0.09,0.33 0.03,0.35 0.68,2.52 0.15,0.32 0.24,0.25 0.32,0.14 0.35,0.03 2.02,-0.2 0.42,-0.13 0.3,-0.29 0.17,-0.39 -0.02,-0.44 -0.43,-1.58 1.94,-0.52 0.42,1.58 0.1,0.67 -0.05,0.65 -0.18,0.61 -0.3,0.56 -0.42,0.48 -0.51,0.38 -0.59,0.28 -0.66,0.14 -2.02,0.19 -1.06,-0.09 -0.94,-0.43 -0.73,-0.73 -0.27,-0.45 -0.18,-0.51 -0.68,-2.52 -0.09,-1.06 0.28,-1 0.59,-0.84 0.41,-0.34 0.47,-0.27 3.96,-1.8 18.75,-10.14 0.65,-0.26 Z M 18.27,37.88 l 0.12,0.41 1.03,1.86 0.21,0.26 0.27,0.17 0.32,0.08 0.33,-0.03 1.56,-0.42 0.35,-0.17 0.26,-0.29 0.08,-0.15 0.1,-0.31 -0.02,-0.32 -0.14,-0.29 -0.24,-0.21 -0.57,-0.43 -0.43,-0.55 -0.29,-0.64 -0.13,-0.69 -0.31,-6.16 2,-0.1 0.31,6.16 0.12,0.39 0.3,0.28 0.46,0.34 0.38,0.41 0.28,0.46 0.19,0.51 0.09,0.54 -0.01,0.55 -0.12,0.54 -0.24,0.52 -0.08,0.15 -0.35,0.48 -0.42,0.4 -0.5,0.31 -0.55,0.21 -1.56,0.41 -1,0.1 -0.95,-0.23 -0.82,-0.53 -0.63,-0.78 -1.03,-1.86 -0.25,-0.59 -0.12,-0.63 -0.59,-7.68 2,-0.16 0.59,7.68 Z M 35,23.3 l -2.85,-10.62 1.93,-0.52 2.85,10.62 -1.93,0.52 Z M 26.7,33.08 l -2,0.09 -0.15,-3.38 2,-0.09 0.15,3.38 Z" fill-rule="evenodd" fill="#000000" />
</svg>