<svg xmlns="http://www.w3.org/2000/svg" viewBox="0 0 24 24">
  <path id="mesh9Cells" d="M 3.57,5.95 l -0.63,-0.25 -0.49,-0.44 -0.33,-0.58 -0.12,-0.68 0.16,-0.78 0.43,-0.63 0.63,-0.43 0.78,-0.16 0.68,0.12 0.58,0.33 0.44,0.49 0.25,0.63 4.11,0.68 3.88,0 4.11,-0.68 0.25,-0.63 0.44,-0.49 0.58,-0.33 0.68,-0.12 0.78,0.16 0.63,0.43 0.43,0.63 0.16,0.78 -0.12,0.68 -0.33,0.58 -0.49,0.44 -0.63,0.25 -0.68,4.11 0,3.88 0.68,4.11 0.63,0.25 0.49,0.44 0.33,0.58 0.12,0.68 -0.16,0.78 -0.43,0.63 -0.63,0.43 -0.78,0.16 -0.68,-0.12 -0.58,-0.33 -0.44,-0.49 -0.25,-0.63 -4.11,-0.68 -3.88,0 -4.11,0.68 -0.25,0.63 -0.44,0.49 -0.58,0.33 -0.68,0.12 -0.78,-0.16 -0.63,-0.43 -0.43,-0.63 -0.16,-0.78 0.12,-0.68 0.33,-0.58 0.49,-0.44 0.63,-0.25 0.68,-4.11 0,-3.88 -0.68,-4.11 Z M 18.96,18.29 l -0.58,-3.47 -3.2,0.36 -0.36,3.2 3.47,0.58 0.3,-0.37 0.37,-0.3 Z M 9.18,18.38 l -0.36,-3.2 -3.2,-0.36 -0.58,3.47 0.37,0.3 0.3,0.37 3.47,-0.58 Z M 18.96,5.71 l -0.37,-0.3 -0.3,-0.37 -3.47,0.58 0.36,3.2 3.2,0.36 0.58,-3.47 Z M 5.04,5.71 l 0.58,3.47 3.2,-0.36 0.36,-3.2 -3.47,-0.58 -0.3,0.37 -0.37,0.3 Z M 10.25,13.75 l 3.5,0 0,-3.5 -3.5,0 0,3.5 Z M 5.75,10.67 l 0,2.66 3,0.33 0,-3.32 -3,0.33 Z M 10.67,5.75 l -0.33,3 3.32,0 -0.33,-3 -2.66,0 Z M 18.25,10.67 l -3,-0.33 0,3.32 3,-0.33 0,-2.66 Z M 13.33,18.25 l 0.33,-3 -3.32,0 0.33,3 2.66,0 Z" fill-rule="evenodd" fill="#000000" />
</svg>