<svg xmlns="http://www.w3.org/2000/svg" viewBox="0 0 24 24">
  <path id="meshRoad" d="M 19,13.5 l 1,2.89 0,2.61 -0.57,0 -1.39,0.16 -1.32,0.48 -0.72,0.36 -0.98,0.35 -1.02,0.12 -1.02,-0.12 -0.98,-0.35 -0.98,-0.35 -1.02,-0.12 -1.02,0.12 -0.98,0.35 -0.72,0.36 -0.87,0.35 -0.91,0.22 -0.93,0.07 -0.57,0 0,-4.5 1,-3 3.88,-11.16 0.19,-0.25 0.29,-0.09 1.86,0 0.19,0.08 0.06,0.2 -0.08,0.72 1.22,0 -0.08,-0.72 0.06,-0.2 0.19,-0.08 1.86,0 0.29,0.09 0.19,0.25 3.88,11.16 Z M 6.5,13.5 l -1,3 0,2.9 1.11,-0.38 0.72,-0.36 1.31,-0.47 1.36,-0.16 1.36,0.16 1.31,0.47 0.65,0.23 0.68,0.08 0.68,-0.08 0.65,-0.23 0.72,-0.36 1.2,-0.49 1.25,-0.31 0,-1 -11.5,0 0.5,-1.5 10.5,0 -0.5,-1.5 -11,0 Z M 10.83,8 l -0.33,3 3,0 -0.33,-3 -2.34,0 Z M 11,6.5 l 2,0 -0.28,-2.5 -1.44,0 -0.28,2.5 Z" fill-rule="evenodd" fill="#000000" />
</svg>