<svg xmlns="http://www.w3.org/2000/svg" viewBox="0 0 24 24">
  <path id="meshFence" d="M 2,13.94 l 0.25,-0.25 0,-0.38 -0.25,-0.25 0,-2.12 1,1 2.25,-2.25 0,-0.38 -2.25,-2.25 -1,1 0,-4.06 19,0 0,3.06 -2.25,2.25 0,0.38 2.25,2.25 0,3.12 -2.25,2.25 0,0.38 2.25,2.25 0,1.06 -1.06,0 -1.94,-1.94 -1.94,1.94 -2.12,0 -1.94,-1.94 -1.94,1.94 -2.12,0 -1.94,-1.94 -1.94,1.94 -2.06,0 0,0.06 0,-2.12 1,1 2.25,-2.25 0,-0.38 -2.25,-2.25 -1,1 0,-2.12 Z M 11.25,9.69 l 0,-0.38 -2.25,-2.25 -2.25,2.25 0,0.38 2.25,2.25 2.25,-2.25 Z M 15,7.06 l -2.25,2.25 0,0.38 2.25,2.25 2.25,-2.25 0,-0.38 -2.25,-2.25 Z M 15,15.06 l -2.25,2.25 0,0.38 2.25,2.25 2.25,-2.25 0,-0.38 -2.25,-2.25 Z M 11.25,17.69 l 0,-0.38 -2.25,-2.25 -2.25,2.25 0,0.38 2.25,2.25 2.25,-2.25 Z M 15.75,13.31 l 0,0.38 2.25,2.25 2.25,-2.25 0,-0.38 -2.25,-2.25 -2.25,2.25 Z M 6,15.94 l 2.25,-2.25 0,-0.38 -2.25,-2.25 -2.25,2.25 0,0.38 2.25,2.25 Z M 14.25,13.69 l 0,-0.38 -2.25,-2.25 -2.25,2.25 0,0.38 2.25,2.25 2.25,-2.25 Z M 7.94,6 l -3.88,0 1.94,1.94 1.94,-1.94 Z M 12,7.94 l 1.94,-1.94 -3.88,0 1.94,1.94 Z M 18,7.94 l 1.94,-1.94 -3.88,0 1.94,1.94 Z" fill-rule="evenodd" fill="#000000" />
</svg>