<svg xmlns="http://www.w3.org/2000/svg" viewBox="0 0 24 24">
  <path id="mesh4Cells" d="M 13.94,3.49 l 3.38,0.43 0.31,-0.38 0.4,-0.29 0.46,-0.18 0.51,-0.07 0.78,0.16 0.63,0.43 0.43,0.63 0.16,0.78 -0.14,0.74 -0.39,0.61 -0.58,0.44 -0.71,0.2 -0.75,2.61 0.42,0.63 0.15,0.77 -0.06,0.49 -0.17,0.44 -0.26,0.38 -0.35,0.32 0.5,4.48 0.54,0.29 0.42,0.43 0.28,0.55 0.1,0.62 -0.16,0.78 -0.43,0.63 -0.63,0.43 -0.78,0.16 -0.6,-0.09 -0.53,-0.26 -0.43,-0.4 -0.29,-0.5 -3.3,0 -0.29,0.5 -0.43,0.4 -0.53,0.26 -0.6,0.09 -0.67,-0.12 -0.58,-0.32 -0.43,-0.48 -0.26,-0.61 -2.41,-0.34 -0.31,0.36 -0.39,0.27 -0.45,0.18 -0.5,0.06 -0.78,-0.16 -0.63,-0.43 -0.43,-0.63 -0.16,-0.78 0.06,-0.51 0.19,-0.45 0.28,-0.4 0.37,-0.31 -0.42,-3.4 -0.59,-0.27 -0.47,-0.43 -0.31,-0.57 -0.11,-0.66 0.16,-0.78 0.43,-0.63 0.63,-0.43 0.78,-0.16 0.07,0 0.96,-2.25 -0.42,-0.31 -0.33,-0.41 -0.21,-0.49 -0.07,-0.54 0.16,-0.78 0.43,-0.63 0.63,-0.43 0.78,-0.16 0.52,0.07 0.47,0.19 0.4,0.3 0.31,0.39 2.35,-0.4 0.26,-0.61 0.43,-0.5 0.58,-0.32 0.68,-0.12 0.66,0.11 0.57,0.31 0.44,0.48 0.27,0.59 Z M 11.9,11.64 l -0.31,0.57 -0.46,0.44 0.48,4.44 0.4,0.18 0.35,0.26 0.29,0.33 0.2,0.39 3.3,0 0.4,-0.63 0.61,-0.44 -0.47,-4.2 -0.5,-0.15 -0.44,-0.27 -0.36,-0.37 -0.25,-0.45 -3.24,-0.1 Z M 12.2,5.99 l -0.9,3.49 0.5,0.66 3.35,0.1 0.3,-0.5 0.42,-0.39 0.53,-0.26 0.6,-0.09 0.04,0 0.7,-2.45 -0.45,-0.51 -0.25,-0.65 -3.3,-0.41 -0.28,0.38 -0.36,0.31 -0.42,0.21 -0.48,0.11 Z M 6.97,17.66 l 2.3,0.33 0.37,-0.45 0.47,-0.33 -0.46,-4.24 -0.51,-0.16 -0.44,-0.29 -0.35,-0.39 -0.24,-0.47 -2.25,0.08 -0.36,0.58 -0.53,0.43 0.41,3.29 0.57,0.2 0.48,0.36 0.35,0.48 0.19,0.58 Z M 8.19,10.16 l 0.28,-0.45 0.39,-0.35 0.48,-0.25 0.53,-0.11 0.89,-3.43 -0.47,-0.53 -2.34,0.38 -0.18,0.51 -0.3,0.42 -0.4,0.34 -0.48,0.22 -1.15,2.7 0.41,0.63 2.34,-0.08 Z" fill-rule="evenodd" fill="#000000" />
</svg>