<svg xmlns="http://www.w3.org/2000/svg" viewBox="0 0 24 24">
  <path id="metal01" d="M 12,2 l 1.02,0.05 1,0.15 0.95,0.25 0.92,0.34 1.7,0.92 1.48,1.22 1.22,1.48 0.92,1.7 0.34,0.92 0.25,0.95 0.15,1 0.05,1.02 -0.05,1.02 -0.15,1 -0.25,0.95 -0.34,0.92 -0.92,1.7 -1.22,1.48 -1.48,1.22 -1.7,0.92 -0.92,0.34 -0.95,0.25 -1,0.15 -1.02,0.05 -1.02,-0.05 -1,-0.15 -0.95,-0.25 -0.92,-0.34 -1.7,-0.92 -1.48,-1.22 -1.22,-1.48 -0.92,-1.7 -0.34,-0.92 -0.25,-0.95 -0.15,-1 -0.05,-1.02 0.05,-1.02 0.15,-1 0.25,-0.95 0.34,-0.92 0.92,-1.7 1.22,-1.48 1.48,-1.22 1.7,-0.92 0.92,-0.34 0.95,-0.25 1,-0.15 1.02,-0.05 Z M 7,16 l 0,-4.5 2,4.5 2,-4.5 0,4.5 1.5,0 0,-7.5 -1.5,0 -2,4.5 -2,-4.5 -1.5,0 0,7.5 1.5,0 Z M 14,8.5 l 0,7.5 4.5,0 0,-1.5 -3,0 0,-1.5 1.5,0 0,-1.5 -1.5,0 0,-1.5 3,0 0,-1.5 -4.5,0 Z M 18.19,17.13 l -0.25,-0.17 -0.28,-0.05 -0.29,0.05 -0.24,0.17 -1.1,0.9 -1.26,0.67 -1.36,0.41 -1.41,0.14 -0.29,0.06 -0.24,0.16 -0.16,0.24 -0.06,0.29 0.06,0.29 0.16,0.24 0.24,0.16 0.29,0.06 1.71,-0.17 1.64,-0.5 1.51,-0.8 1.33,-1.09 0.16,-0.25 0.06,-0.28 -0.06,-0.29 -0.16,-0.24 Z M 10.38,5.96 l 0.27,-0.13 0.19,-0.22 0.09,-0.27 -0.02,-0.3 -0.13,-0.26 -0.22,-0.19 -0.27,-0.09 -0.3,0.01 -0.96,0.33 -0.9,0.45 -0.85,0.56 -0.76,0.67 -0.16,0.25 -0.06,0.28 0.06,0.28 0.16,0.25 0.25,0.17 0.28,0.05 0.28,-0.05 0.25,-0.17 0.62,-0.54 0.68,-0.45 0.73,-0.36 0.77,-0.27 Z" fill-rule="evenodd" fill="#000000" />
</svg>