<svg xmlns="http://www.w3.org/2000/svg" viewBox="0 0 24 24">
  <path id="midRangeBeam2" d="M 11.84,5.03 l 0.69,-0.1 0.7,0.04 0.69,0.15 0.67,0.29 1.03,0.72 0.83,0.92 1.36,0.26 1.32,0.46 0.11,0.05 0.6,0.31 0.54,0.39 0.87,0.98 0.55,1.18 0.15,0.65 0.05,0.67 -0.05,0.67 -0.15,0.65 -0.55,1.18 -0.87,0.98 -0.54,0.39 -0.6,0.31 -0.11,0.05 -1.32,0.46 -1.36,0.26 -0.83,0.92 -1.03,0.72 -0.67,0.29 -0.69,0.15 -0.7,0.04 -0.69,-0.1 -0.4,0.76 -0.44,0.56 -0.54,0.38 -0.61,0.21 -0.64,0.04 -0.62,-0.12 -0.58,-0.3 -0.48,-0.45 -0.35,-0.61 -1.79,-4.47 -0.39,0.03 -0.6,-0.06 -0.57,-0.18 -0.51,-0.27 -0.44,-0.37 -0.37,-0.44 -0.27,-0.51 -0.18,-0.57 -0.06,-0.6 0.06,-0.6 0.18,-0.57 0.27,-0.51 0.37,-0.44 0.44,-0.37 0.51,-0.27 0.57,-0.18 0.6,-0.06 0.39,0.03 1.79,-4.47 0.35,-0.61 0.48,-0.45 0.58,-0.3 0.62,-0.12 0.64,0.04 0.61,0.21 0.54,0.38 0.44,0.56 0.4,0.76 Z M 17.07,15.83 l 1.66,-0.52 0.12,-0.05 0.89,-0.54 0.67,-0.77 0.44,-0.92 0.15,-1.03 -0.15,-1.03 -0.44,-0.92 -0.67,-0.77 -0.89,-0.54 -0.12,-0.05 -1.66,-0.53 0.32,1.05 0.11,1.11 0,3.36 -0.11,1.11 -0.32,1.04 Z M 6.56,9.44 l 3.36,-3.36 0.97,-0.71 -0.32,-0.61 -0.25,-0.32 -0.32,-0.22 -0.35,-0.12 -0.37,-0.03 -0.36,0.08 -0.33,0.17 -0.28,0.26 -0.21,0.35 -1.75,4.39 0.21,0.12 Z M 6.35,14.68 l 1.75,4.39 0.21,0.35 0.28,0.26 0.33,0.17 0.36,0.08 0.37,-0.03 0.35,-0.12 0.32,-0.22 0.25,-0.32 0.32,-0.61 -0.97,-0.71 -3.36,-3.36 -0.21,0.12 Z M 6.5,12 l -0.12,-0.58 -0.32,-0.48 -0.48,-0.32 -0.58,-0.12 -0.58,0.12 -0.48,0.32 -0.32,0.48 -0.12,0.58 0.12,0.58 0.32,0.48 0.48,0.32 0.58,0.12 0.58,-0.12 0.48,-0.32 0.32,-0.48 0.12,-0.58 Z" fill-rule="evenodd" fill="#000000" />
</svg>