<svg xmlns="http://www.w3.org/2000/svg" viewBox="0 0 24 24">
  <path id="midRangeBeam1" d="M 5,13 l -0.6,-0.06 -0.57,-0.18 -0.51,-0.27 -0.44,-0.37 -0.37,-0.44 -0.27,-0.51 -0.18,-0.57 -0.06,-0.6 0.06,-0.6 0.18,-0.57 0.27,-0.51 0.37,-0.44 0.44,-0.37 0.51,-0.27 0.57,-0.18 0.6,-0.06 0.82,0.11 0.74,0.33 3.36,-3.36 0.49,-0.41 0.54,-0.33 0.58,-0.23 0.61,-0.14 1.24,0.02 0.62,0.16 0.59,0.26 0.64,0.41 0.57,0.48 0.5,0.55 0.42,0.61 0.33,0.66 0.25,0.71 0.15,0.73 0.05,0.76 0,3.36 -0.05,0.76 -0.15,0.73 -0.25,0.71 -0.33,0.66 -0.42,0.61 -0.5,0.55 -0.57,0.48 -0.64,0.41 -0.59,0.26 -0.62,0.16 -1.24,0.02 -0.61,-0.14 -0.58,-0.23 -0.54,-0.33 -0.49,-0.41 -3.36,-3.36 -0.74,0.33 -0.82,0.11 Z M 13,18 l 0,1.5 3.5,0 0,-3 1.5,0 0,4.5 -10,0 0,-1.5 3.5,0 0,-1.5 1.5,0 Z M 22,15 l 0,6 -1.5,0 0,-6 1.5,0 Z M 5,11.5 l 0.58,-0.12 0.48,-0.32 0.32,-0.48 0.12,-0.58 -0.12,-0.58 -0.32,-0.48 -0.48,-0.32 -0.58,-0.12 -0.58,0.12 -0.48,0.32 -0.32,0.48 -0.12,0.58 0.12,0.58 0.32,0.48 0.48,0.32 0.58,0.12 Z M 4,18 l 1.5,0 0,3 -1.5,0 0,-3 Z" fill-rule="evenodd" fill="#000000" />
</svg>