<svg xmlns="http://www.w3.org/2000/svg" viewBox="0 0 24 24">
  <path id="minusRes" d="M 6,11 l 12,0 0.78,0.16 0.63,0.43 0.43,0.63 0.16,0.78 0,6 -0.16,0.78 -0.43,0.63 -0.63,0.43 -0.78,0.16 -12,0 -0.78,-0.16 -0.63,-0.43 -0.43,-0.63 -0.16,-0.78 0,-6 0.16,-0.78 0.43,-0.63 0.63,-0.43 0.78,-0.16 Z M 9,2.25 l 0.07,-0.18 0.18,-0.07 5,0 0.18,0.07 0.07,0.18 0,1 -0.07,0.18 -0.18,0.07 -3.75,0 0,1.5 3,0 0,1.5 -3,0 0,1.5 3.75,0 0.18,0.07 0.07,0.18 0,1 -0.07,0.18 -0.18,0.07 -5,0 -0.18,-0.07 -0.07,-0.18 0,-7 Z M 6.11,3.54 l -0.22,-0.04 -0.59,0 -0.31,0.06 -0.25,0.18 -0.18,0.25 -0.06,0.31 0.05,0.29 0.15,0.24 0.21,0.18 0.28,0.09 1.09,0.15 0.69,0.23 0.54,0.44 0.36,0.61 0.13,0.7 0,0.27 -0.16,0.78 -0.43,0.63 -0.63,0.43 -0.78,0.16 -1.23,0 -0.75,-0.09 -0.71,-0.25 -0.23,-0.21 -0.08,-0.3 0,-0.61 0.16,-0.32 0.35,-0.05 0.99,0.33 1.2,0 0.31,-0.06 0.25,-0.18 0.18,-0.25 0.06,-0.31 -0.05,-0.29 -0.15,-0.24 -0.21,-0.18 -0.28,-0.09 -1.09,-0.15 -0.69,-0.23 -0.54,-0.44 -0.36,-0.61 -0.13,-0.7 0,-0.27 0.16,-0.78 0.43,-0.63 0.63,-0.43 0.78,-0.16 0.73,0 0.75,0.09 0.71,0.25 0.23,0.21 0.08,0.3 0,0.61 -0.16,0.32 -0.35,0.05 -0.88,-0.29 Z M 15.5,2.25 l 0.07,-0.18 0.18,-0.07 5,0 0.18,0.07 0.07,0.18 0,1 -0.07,0.18 -0.18,0.07 -1.75,0 0,5.75 -0.07,0.18 -0.18,0.07 -1,0 -0.18,-0.07 -0.07,-0.18 0,-5.75 -1.75,0 -0.18,-0.07 -0.07,-0.18 0,-1 Z M 16,17 l 0,-2 -8,0 0,2 8,0 Z" fill-rule="evenodd" fill="#000000" />
</svg>