<svg xmlns="http://www.w3.org/2000/svg" viewBox="0 0 24 24">
  <path id="mirrorLeftBig" d="M 7,7 l 0.16,-0.78 0.43,-0.63 0.63,-0.43 0.78,-0.16 6,0 0.78,0.16 0.63,0.43 0.43,0.63 0.16,0.78 0,10 -0.16,0.78 -0.43,0.63 -0.63,0.43 -0.78,0.16 -6,0 -0.78,-0.16 -0.63,-0.43 -0.43,-0.63 -0.16,-0.78 0,-10 Z M 9,6.5 l -0.35,0.15 -0.15,0.35 0,10 0.15,0.35 0.35,0.15 6,0 0.35,-0.15 0.15,-0.35 0,-10 -0.15,-0.35 -0.35,-0.15 -6,0 Z M 21,10 l 0,4 -3,0 0,-4 3,0 Z M 14.35,12.35 l -3,3 -0.35,0.15 -0.35,-0.15 -0.15,-0.35 0.15,-0.35 3,-3 0.35,-0.15 0.35,0.15 0.15,0.35 -0.15,0.35 Z M 14.35,15.35 l -1,1 -0.35,0.15 -0.35,-0.15 -0.15,-0.35 0.15,-0.35 1,-1 0.35,-0.15 0.35,0.15 0.15,0.35 -0.15,0.35 Z M 11.35,7.65 l 0.15,0.35 -0.15,0.35 -1,1 -0.35,0.15 -0.35,-0.15 -0.15,-0.35 0.15,-0.35 1,-1 0.35,-0.15 0.35,0.15 Z" fill-rule="evenodd" fill="#000000" />
</svg>