<svg xmlns="http://www.w3.org/2000/svg" viewBox="0 0 24 24">
  <path id="mirrorRoundWideAngle" d="M 19,12 l -0.14,1.41 -0.41,1.31 -0.65,1.19 -0.85,1.04 -1.04,0.85 -1.19,0.65 -1.31,0.41 -1.41,0.14 -1.41,-0.14 -1.31,-0.41 -1.19,-0.65 -1.04,-0.85 -0.85,-1.04 -0.65,-1.19 -0.41,-1.31 -0.14,-1.41 0.14,-1.41 0.41,-1.31 0.65,-1.19 0.85,-1.04 1.04,-0.85 1.19,-0.65 1.31,-0.41 1.41,-0.14 1.41,0.14 1.31,0.41 1.19,0.65 1.04,0.85 0.85,1.04 0.65,1.19 0.41,1.31 0.14,1.41 Z M 17.5,12 l -0.11,-1.11 -0.32,-1.03 -0.51,-0.94 -0.67,-0.81 -0.81,-0.67 -0.94,-0.51 -1.03,-0.32 -1.11,-0.11 -1.11,0.11 -1.03,0.32 -0.94,0.51 -0.81,0.67 -0.67,0.81 -0.51,0.94 -0.32,1.03 -0.11,1.11 0.11,1.11 0.32,1.03 0.51,0.94 0.67,0.81 0.81,0.67 0.94,0.51 1.03,0.32 1.11,0.11 1.11,-0.11 1.03,-0.32 0.94,-0.51 0.81,-0.67 0.67,-0.81 0.51,-0.94 0.32,-1.03 0.11,-1.11 Z M 16,12 l -0.08,0.78 -0.22,0.75 -0.37,0.69 -0.5,0.61 -0.61,0.5 -0.69,0.37 -0.75,0.22 -0.78,0.08 -0.29,-0.06 -0.24,-0.16 -0.16,-0.24 -0.06,-0.29 0.06,-0.29 0.16,-0.24 0.24,-0.16 0.29,-0.06 0.96,-0.19 0.43,-0.23 0.38,-0.31 0.31,-0.38 0.23,-0.43 0.19,-0.96 0.06,-0.29 0.16,-0.24 0.24,-0.16 0.29,-0.06 0.29,0.06 0.24,0.16 0.16,0.24 0.06,0.29 Z" fill-rule="evenodd" fill="#000000" />
</svg>