<svg xmlns="http://www.w3.org/2000/svg" viewBox="0 0 24 24">
  <path id="mirrorInteriorMiddle" d="M 7.06,4.88 l -0.17,-0.26 0.02,-0.29 0.17,-0.23 0.3,-0.1 9.24,0 0.3,0.1 0.17,0.23 0.02,0.29 -0.17,0.26 -1.66,1.39 -0.3,0.17 -0.34,0.06 -1.51,0 0.37,1.5 1.5,1 4.69,0 0.45,0.05 0.4,0.14 0.66,0.5 0.41,0.73 0.08,0.42 -0.02,0.44 -0.47,3.32 -0.18,0.59 -0.35,0.5 -0.48,0.37 -0.58,0.22 -2.44,0.49 -1.18,0.17 -1.18,0.06 -5.62,0 -1.18,-0.06 -1.18,-0.17 -2.44,-0.49 -0.58,-0.22 -0.48,-0.37 -0.35,-0.5 -0.18,-0.59 -0.47,-3.32 -0.02,-0.44 0.08,-0.42 0.41,-0.73 0.66,-0.5 0.4,-0.14 0.45,-0.05 4.69,0 1.5,-1 0.38,-1.5 -1.52,0 -0.34,-0.06 -0.3,-0.17 -1.66,-1.39 Z M 3.81,11.07 l 0.47,3.32 0.14,0.27 0.26,0.15 2.45,0.49 1.02,0.15 1.04,0.05 5.62,0 1.04,-0.05 1.02,-0.15 2.45,-0.49 0.26,-0.15 0.14,-0.27 0.47,-3.32 -0.12,-0.4 -0.16,-0.12 -0.22,-0.05 -15.38,0 -0.22,0.05 -0.16,0.12 -0.12,0.4 Z M 16.35,11.65 l 0.15,0.35 -0.15,0.35 -2,2 -0.35,0.15 -0.35,-0.15 -0.15,-0.35 0.15,-0.35 2,-2 0.35,-0.15 0.35,0.15 Z M 7.35,12.35 l -1,1 -0.35,0.15 -0.35,-0.15 -0.15,-0.35 0.15,-0.35 1,-1 0.35,-0.15 0.35,0.15 0.15,0.35 -0.15,0.35 Z M 17.85,13.15 l 0.15,0.35 -0.15,0.35 -0.5,0.5 -0.35,0.15 -0.35,-0.15 -0.15,-0.35 0.15,-0.35 0.5,-0.5 0.35,-0.15 0.35,0.15 Z" fill-rule="evenodd" fill="#000000" />
</svg>