<svg xmlns="http://www.w3.org/2000/svg" viewBox="0 0 24 24">
  <path id="mirrorLeftBigBottomWideAngle" d="M 7,13 l 0.16,-0.78 0.43,-0.63 0.63,-0.43 0.78,-0.16 6,0 0.78,0.16 0.63,0.43 0.43,0.63 0.16,0.78 0,4 -0.16,0.78 -0.43,0.63 -0.63,0.43 -0.78,0.16 -6,0 -0.78,-0.16 -0.63,-0.43 -0.43,-0.63 -0.16,-0.78 0,-4 Z M 7.68,3.77 l 1.21,-0.4 1.12,-0.2 1.12,0.11 1.74,0.44 1.12,0.11 1.12,-0.2 0.57,-0.19 0.48,-0.04 0.42,0.18 0.31,0.34 0.11,0.47 0,3.61 -0.16,0.78 -0.43,0.63 -0.63,0.43 -0.78,0.16 -6,0 -0.78,-0.16 -0.63,-0.43 -0.43,-0.63 -0.16,-0.78 0,-3.28 0.05,-0.31 0.14,-0.27 0.21,-0.22 0.28,-0.15 Z M 9,12.5 l -0.35,0.15 -0.15,0.35 0,4 0.15,0.35 0.35,0.15 6,0 0.35,-0.15 0.15,-0.35 0,-4 -0.15,-0.35 -0.35,-0.15 -6,0 Z M 18,13 l 3,0 0,3 -3,0 0,-3 Z M 14.5,14.5 l -0.12,0.59 -0.27,0.55 -0.4,0.49 -0.55,0.34 -0.38,-0.02 -0.25,-0.29 0.02,-0.38 0.29,-0.25 0.19,-0.13 0.24,-0.3 0.17,-0.35 0.06,-0.25 0.15,-0.35 0.35,-0.15 0.35,0.15 0.15,0.35 Z" fill-rule="evenodd" fill="#000000" />
</svg>