<svg xmlns="http://www.w3.org/2000/svg" viewBox="0 0 24 24">
  <path id="mirrorTopWideAngle" d="M 18.02,16.25 l -0.31,0.04 -2.85,0.26 -2.86,0.09 -2.86,-0.09 -2.85,-0.26 -0.31,-0.04 -0.75,-0.25 -0.58,-0.51 -0.34,-0.68 -0.06,-0.79 0.53,-4.27 0.22,-0.69 0.44,-0.56 0.61,-0.37 0.72,-0.13 10.46,0 0.72,0.13 0.61,0.37 0.44,0.56 0.22,0.69 0.53,4.27 -0.06,0.79 -0.34,0.68 -0.58,0.51 -0.75,0.25 Z M 6.27,9.94 l -0.53,4.26 0.1,0.37 0.33,0.19 0.31,0.04 2.76,0.26 2.76,0.08 2.76,-0.08 2.76,-0.26 0.31,-0.04 0.33,-0.19 0.1,-0.37 -0.53,-4.26 -0.16,-0.31 -0.34,-0.13 -10.46,0 -0.34,0.13 -0.16,0.31 Z M 10,7 l 0,-3 4,0 0,3 -4,0 Z M 17,11.5 l -0.1,0.83 -0.28,0.7 -0.4,0.55 -0.51,0.37 -0.38,0.02 -0.28,-0.26 -0.02,-0.38 0.26,-0.28 0.21,-0.17 0.24,-0.33 0.19,-0.47 0.07,-0.58 0.15,-0.35 0.35,-0.15 0.35,0.15 0.15,0.35 Z" fill-rule="evenodd" fill="#000000" />
</svg>