<svg xmlns="http://www.w3.org/2000/svg" viewBox="0 0 24 24">
  <path id="mirrorLeftDefault" d="M 9.27,5.88 l 6.46,-0.59 0.65,0.02 0.6,0.14 0.56,0.26 0.48,0.36 0.41,0.45 0.31,0.53 0.19,0.59 0.07,0.64 0,1.22 3,1.5 0,1.81 -0.07,1.18 -0.22,1.17 -0.49,1.25 -0.77,1.08 -1.02,0.85 -1.21,0.59 -0.22,0.07 -3,-3 -8.77,0 -0.74,-0.09 -0.67,-0.26 -0.57,-0.4 -0.47,-0.51 -0.33,-0.61 -0.19,-0.68 -0.02,-0.71 0.16,-0.73 0.75,-2.14 0.35,-0.8 0.45,-0.73 0.55,-0.66 0.63,-0.56 0.7,-0.47 0.77,-0.37 0.81,-0.26 0.86,-0.14 Z M 15.87,6.79 l -6.46,0.58 -1.26,0.3 -1.1,0.63 -0.88,0.92 -0.6,1.14 -0.75,2.14 -0.07,0.73 0.26,0.64 0.52,0.46 0.7,0.17 10.77,0 0.35,-0.15 0.15,-0.35 0,-5.72 -0.13,-0.61 -0.36,-0.49 -0.52,-0.32 -0.62,-0.07 Z M 15.35,10.35 l -3,3 -0.35,0.15 -0.35,-0.15 -0.15,-0.35 0.15,-0.35 3,-3 0.35,-0.15 0.35,0.15 0.15,0.35 -0.15,0.35 Z M 16.35,12.35 l -1,1 -0.35,0.15 -0.35,-0.15 -0.15,-0.35 0.15,-0.35 1,-1 0.35,-0.15 0.35,0.15 0.15,0.35 -0.15,0.35 Z" fill-rule="evenodd" fill="#000000" />
</svg>