<svg xmlns="http://www.w3.org/2000/svg" viewBox="0 0 24 24">
  <path id="mirrorLeftBigTop" d="M 7,5 l 0.16,-0.78 0.43,-0.63 0.63,-0.43 0.78,-0.16 6,0 0.78,0.16 0.63,0.43 0.43,0.63 0.16,0.78 0,10 -0.16,0.78 -0.43,0.63 -0.63,0.43 -0.78,0.16 -6,0 -0.78,-0.16 -0.63,-0.43 -0.43,-0.63 -0.16,-0.78 0,-10 Z M 9,4.5 l -0.35,0.15 -0.15,0.35 0,10 0.15,0.35 0.35,0.15 6,0 0.35,-0.15 0.15,-0.35 0,-10 -0.15,-0.35 -0.35,-0.15 -6,0 Z M 12,20.5 l 0.99,-0.17 1,-0.04 0.99,0.11 0.98,0.25 0.32,0.11 0.26,0.02 0.23,-0.1 0.17,-0.19 0.06,-0.25 0,-0.47 -0.14,-0.69 -0.38,-0.56 -0.56,-0.38 -0.69,-0.14 -6.76,0 -0.57,0.12 -0.47,0.31 -0.31,0.47 -0.12,0.57 Z M 21,8 l 0,4 -3,0 0,-4 3,0 Z M 14.35,9.65 l 0.15,0.35 -0.15,0.35 -3,3 -0.35,0.15 -0.35,-0.15 -0.15,-0.35 0.15,-0.35 3,-3 0.35,-0.15 0.35,0.15 Z M 14.35,12.65 l 0.15,0.35 -0.15,0.35 -1,1 -0.35,0.15 -0.35,-0.15 -0.15,-0.35 0.15,-0.35 1,-1 0.35,-0.15 0.35,0.15 Z M 11.35,5.65 l 0.15,0.35 -0.15,0.35 -1,1 -0.35,0.15 -0.35,-0.15 -0.15,-0.35 0.15,-0.35 1,-1 0.35,-0.15 0.35,0.15 Z" fill-rule="evenodd" fill="#000000" />
</svg>