<svg xmlns="http://www.w3.org/2000/svg" viewBox="0 0 24 24">
  <path id="mirrorLeftBonnet" d="M 5,6 l 0.16,-0.78 0.43,-0.63 0.63,-0.43 0.78,-0.16 8,0 0.78,0.16 0.63,0.43 0.43,0.63 0.16,0.78 0,5 -0.16,0.78 -0.43,0.63 -0.63,0.43 -0.78,0.16 -0.8,0 2.1,3 4.7,0 0,4 -11.79,0 -0.29,-0.09 -0.17,-0.22 -0.04,-0.28 0.14,-0.26 1.98,-1.98 0.47,-0.4 0.53,-0.33 -1.03,-3.44 -3.8,0 -0.78,-0.16 -0.63,-0.43 -0.43,-0.63 -0.16,-0.78 0,-5 Z M 7,5.5 l -0.35,0.15 -0.15,0.35 0,5 0.15,0.35 0.35,0.15 8,0 0.35,-0.15 0.15,-0.35 0,-5 -0.15,-0.35 -0.35,-0.15 -8,0 Z M 13.35,7.35 l -3,3 -0.35,0.15 -0.35,-0.15 -0.15,-0.35 0.15,-0.35 3,-3 0.35,-0.15 0.35,0.15 0.15,0.35 -0.15,0.35 Z M 14.35,9.35 l -1,1 -0.35,0.15 -0.35,-0.15 -0.15,-0.35 0.15,-0.35 1,-1 0.35,-0.15 0.35,0.15 0.15,0.35 -0.15,0.35 Z" fill-rule="evenodd" fill="#000000" />
</svg>