<svg xmlns="http://www.w3.org/2000/svg" viewBox="0 0 24 24">
  <path id="missionCheckboxCross" d="M 16.07,4.6 l 1.3,3.14 1.65,-1.64 0.14,0.79 -0.09,0.84 -2.5,10 -0.4,0.92 -0.67,0.71 -0.85,0.47 -0.99,0.17 -6.66,0 -0.6,-0.06 -0.57,-0.18 -0.51,-0.27 -0.44,-0.37 -0.37,-0.44 -0.27,-0.51 -0.18,-0.57 -0.06,-0.6 0,-10 0.06,-0.6 0.18,-0.57 0.27,-0.51 0.37,-0.44 0.44,-0.37 0.51,-0.27 0.57,-0.18 0.6,-0.06 9.16,0 0.48,0.04 -0.57,0.56 Z M 15.23,5.46 l -4.28,4.37 -2.89,-2.89 -2.12,2.12 2.91,2.91 -3.49,3.53 1.3,3.14 4.4,-4.46 2.88,2.88 2.12,-2.12 -2.9,-2.9 3.37,-3.44 -1.3,-3.14 Z" fill-rule="evenodd" fill="#000000" />
</svg>