<svg xmlns="http://www.w3.org/2000/svg" viewBox="0 0 24 24">
  <path id="mouseYAxis" d="M 7,8 l 0.06,-0.6 0.18,-0.57 0.27,-0.51 0.37,-0.44 0.44,-0.37 0.51,-0.27 0.57,-0.18 0.6,-0.06 4,0 0.6,0.06 0.57,0.18 0.51,0.27 0.44,0.37 0.37,0.44 0.27,0.51 0.18,0.57 0.06,0.6 0,6 -0.1,1.01 -0.29,0.94 -0.46,0.85 -0.61,0.74 -0.74,0.61 -0.85,0.46 -0.94,0.29 -1.01,0.1 -1.01,-0.1 -0.94,-0.29 -0.85,-0.46 -0.74,-0.61 -0.61,-0.74 -0.46,-0.85 -0.29,-0.94 -0.1,-1.01 0,-6 Z M 9,4 l 3,-3 3,3 -6,0 Z M 12,23 l -3,-3 6,0 -3,3 Z M 12,7 l -0.39,0.08 -0.32,0.21 -0.21,0.32 -0.08,0.39 0,2 0.08,0.39 0.21,0.32 0.32,0.21 0.39,0.08 0.39,-0.08 0.32,-0.21 0.21,-0.32 0.08,-0.39 0,-2 -0.08,-0.39 -0.21,-0.32 -0.32,-0.21 -0.39,-0.08 Z" fill-rule="evenodd" fill="#000000" />
</svg>