<svg xmlns="http://www.w3.org/2000/svg" viewBox="0 0 24 24">
  <path id="move02" d="M 10,14 l -0.36,-0.44 -0.26,-0.5 -0.16,-0.52 -0.05,-0.54 0.05,-0.54 0.16,-0.52 0.26,-0.5 0.36,-0.44 0.44,-0.36 0.5,-0.26 0.52,-0.16 0.54,-0.05 0.54,0.05 0.52,0.16 0.5,0.26 0.44,0.36 0.36,0.44 0.26,0.5 0.16,0.52 0.05,0.54 -0.05,0.54 -0.16,0.52 -0.26,0.5 -0.36,0.44 -0.44,0.36 -0.5,0.26 -0.52,0.16 -0.54,0.05 -0.54,-0.05 -0.52,-0.16 -0.5,-0.26 -0.44,-0.36 Z M 6.03,7.97 l 0.97,0.98 0,1.59 -1.46,1.46 1.46,1.46 0,1.66 -0.94,0.94 -4.06,-4.06 4.03,-4.03 Z M 12,5.54 l -1.46,1.46 -1.59,0 -0.98,-0.97 4.03,-4.03 4.06,4.06 -0.94,0.94 -1.66,0 -1.46,-1.46 Z M 18.46,12 l -1.46,-1.46 0,-1.66 0.94,-0.94 4.06,4.06 -4.03,4.03 -0.97,-0.98 0,-1.59 1.46,-1.46 Z M 12,18.46 l 1.46,-1.46 1.59,0 0.98,0.97 -4.03,4.03 -4.06,-4.06 0.94,-0.94 1.66,0 1.46,1.46 Z" fill-rule="evenodd" fill="#000000" />
</svg>