<svg xmlns="http://www.w3.org/2000/svg" viewBox="0 0 24 24">
  <path id="movieCamera" d="M 15,13 l -9,0 -0.81,-0.08 -0.75,-0.23 -0.68,-0.37 -0.59,-0.49 -0.49,-0.59 -0.37,-0.68 -0.23,-0.75 -0.08,-0.81 0.08,-0.81 0.23,-0.75 0.37,-0.68 0.49,-0.59 0.59,-0.49 0.68,-0.37 0.75,-0.23 0.81,-0.08 1,0.13 0.91,0.36 0.79,0.56 0.63,0.73 0.17,0.16 0.23,0.06 0.29,-0.1 0.17,-0.26 0.28,-0.76 0.4,-0.7 0.5,-0.62 0.59,-0.53 0.67,-0.43 0.74,-0.33 0.79,-0.2 0.84,-0.07 1.01,0.1 0.94,0.29 0.85,0.46 0.74,0.61 0.61,0.74 0.46,0.85 0.29,0.94 0.1,1.01 -0.1,1.01 -0.29,0.94 -0.46,0.85 -0.61,0.74 -0.74,0.61 -0.85,0.46 -0.94,0.29 -1.01,0.1 Z M 6.5,14.5 l 5.5,0 0.39,0.08 0.32,0.21 0.21,0.32 0.08,0.39 0,2.5 -0.16,0.78 -0.43,0.63 -0.63,0.43 -0.78,0.16 -3.5,0 -0.66,-0.11 -0.57,-0.32 -0.44,-0.47 -0.27,-0.6 -1.06,0 -0.35,-0.15 -0.15,-0.35 0,-2 0.15,-0.35 0.35,-0.15 1,0 0.08,-0.39 0.21,-0.32 0.32,-0.21 0.39,-0.08 Z M 15,14.5 l 1.59,-0.1 0.8,-0.16 0.79,-0.29 0.28,-0.05 0.27,0.08 0.19,0.19 0.08,0.26 0,6.64 -0.07,0.26 -0.19,0.18 -0.26,0.06 -0.26,-0.09 -3.5,-2.33 -0.16,-0.18 -0.06,-0.24 0,-3.73 0.15,-0.35 0.35,-0.15 Z M 17,8 l -0.16,-0.78 -0.43,-0.63 -0.63,-0.43 -0.78,-0.16 -0.78,0.16 -0.63,0.43 -0.43,0.63 -0.16,0.78 0.16,0.78 0.43,0.63 0.63,0.43 0.78,0.16 0.78,-0.16 0.63,-0.43 0.43,-0.63 0.16,-0.78 Z M 6,10 l 0.39,-0.08 0.32,-0.21 0.21,-0.32 0.08,-0.39 -0.08,-0.39 -0.21,-0.32 -0.32,-0.21 -0.39,-0.08 -0.39,0.08 -0.32,0.21 -0.21,0.32 -0.08,0.39 0.08,0.39 0.21,0.32 0.32,0.21 0.39,0.08 Z" fill-rule="evenodd" fill="#000000" />
</svg>