<svg xmlns="http://www.w3.org/2000/svg" viewBox="0 0 48 48">
  <path id="multiseatL" d="M 16,19 l 0,10 -6,0 0,-10 0.08,-0.39 0.21,-0.32 0.32,-0.21 0.39,-0.08 4,0 0.39,0.08 0.32,0.21 0.21,0.32 0.08,0.39 Z M 38,19 l 0,10 -6,0 0,-10 0.08,-0.39 0.21,-0.32 0.32,-0.21 0.39,-0.08 4,0 0.39,0.08 0.32,0.21 0.21,0.32 0.08,0.39 Z M 9,31 l 8,0 0,5 -8,0 0,-5 Z M 31,31 l 8,0 0,5 -8,0 0,-5 Z M 31.4,14.2 l 1.05,-2.09 0.31,-0.46 0.42,-0.35 0.5,-0.22 0.56,-0.08 1.52,0 0.56,0.08 0.5,0.22 0.42,0.35 0.31,0.46 1.05,2.09 0.12,0.37 -0.01,0.38 -0.11,0.37 -0.23,0.32 -0.41,0.27 -0.48,0.09 -0.48,0 0,1 -1,0 0,-1 -2,0 0,1 -1,0 0,-1 -0.48,0 -0.48,-0.09 -0.4,-0.27 -0.24,-0.32 -0.11,-0.37 -0.01,-0.38 0.12,-0.37 Z M 9.4,14.2 l 1.05,-2.09 0.31,-0.46 0.42,-0.35 0.5,-0.22 0.56,-0.08 1.52,0 0.56,0.08 0.5,0.22 0.42,0.35 0.31,0.46 1.05,2.09 0.12,0.37 -0.01,0.38 -0.11,0.37 -0.24,0.32 -0.4,0.27 -0.48,0.09 -0.48,0 0,1 -1,0 0,-1 -2,0 0,1 -1,0 0,-1 -0.48,0 -0.48,-0.09 -0.4,-0.27 -0.24,-0.32 -0.11,-0.37 -0.01,-0.38 0.12,-0.37 Z M 9,19.39 l 0,9.61 -3,-1 0,-8.28 0.05,-0.31 0.14,-0.27 0.21,-0.22 0.28,-0.15 1,-0.33 0.48,-0.04 0.42,0.18 0.31,0.34 0.11,0.47 Z M 17,19.39 l 0.11,-0.47 0.31,-0.34 0.42,-0.18 0.48,0.04 1,0.33 0.28,0.15 0.21,0.22 0.14,0.27 0.05,0.31 0,8.28 -3,1 0,-9.61 Z M 39,19.39 l 0.11,-0.47 0.31,-0.34 0.42,-0.18 0.48,0.04 1,0.33 0.28,0.15 0.21,0.22 0.14,0.27 0.05,0.31 0,8.28 -3,1 0,-9.61 Z M 31,19.39 l 0,9.61 -3,-1 0,-8.28 0.05,-0.31 0.14,-0.27 0.21,-0.22 0.28,-0.15 1,-0.33 0.48,-0.04 0.42,0.18 0.31,0.34 0.11,0.47 Z M 8,30.78 l 0,5.22 -2,0 -0.78,-0.16 -0.63,-0.43 -0.43,-0.63 -0.16,-0.78 0,-3.72 0.11,-0.45 0.27,-0.34 0.4,-0.19 0.46,0.01 2,0.5 0.31,0.13 0.24,0.23 0.15,0.28 0.06,0.33 Z M 44,30.28 l 0,3.72 -0.16,0.78 -0.43,0.63 -0.63,0.43 -0.78,0.16 -2,0 0,-5.22 0.06,-0.33 0.15,-0.28 0.24,-0.23 0.31,-0.13 2,-0.5 0.46,-0.01 0.4,0.19 0.27,0.34 0.11,0.45 Z M 30,30.78 l 0,5.22 -2,0 -0.78,-0.16 -0.63,-0.43 -0.43,-0.63 -0.16,-0.78 0,-3.72 0.11,-0.45 0.27,-0.34 0.4,-0.19 0.46,0.01 2,0.5 0.31,0.13 0.24,0.23 0.15,0.28 0.06,0.33 Z M 22,30.28 l 0,3.72 -0.16,0.78 -0.43,0.63 -0.63,0.43 -0.78,0.16 -2,0 0,-5.22 0.06,-0.33 0.15,-0.28 0.24,-0.23 0.31,-0.13 2,-0.5 0.46,-0.01 0.4,0.19 0.27,0.34 0.11,0.45 Z" fill-rule="evenodd" fill="#000000" />
</svg>