<svg xmlns="http://www.w3.org/2000/svg" viewBox="0 0 24 24">
  <path id="N2OButton" d="M 19.67,18.42 l -0.73,0.78 -0.81,0.7 -0.88,0.61 -0.95,0.52 -1,0.41 -1.06,0.31 -1.1,0.19 -1.14,0.06 -1.14,-0.06 -1.1,-0.19 -1.06,-0.31 -1,-0.41 -0.95,-0.52 -0.88,-0.61 -0.81,-0.7 -0.73,-0.78 -0.2,-0.47 0.1,-0.46 0.33,-0.35 0.51,-0.14 13.86,0 0.51,0.14 0.33,0.35 0.1,0.46 -0.2,0.47 Z M 19.67,5.58 l 0.2,0.47 -0.1,0.46 -0.33,0.35 -0.51,0.14 -13.86,0 -0.51,-0.14 -0.33,-0.35 -0.1,-0.46 0.2,-0.47 0.73,-0.78 0.81,-0.7 0.88,-0.61 0.95,-0.52 1,-0.41 1.06,-0.31 1.1,-0.19 1.14,-0.06 1.14,0.06 1.1,0.19 1.06,0.31 1,0.41 0.95,0.52 0.88,0.61 0.81,0.7 0.73,0.78 Z M 21,11.26 l 0,1.48 -0.06,0.6 -0.18,0.56 -0.27,0.51 -0.37,0.45 -0.44,0.36 -0.51,0.28 -0.57,0.18 -0.6,0.06 -0.6,-0.06 -0.57,-0.18 -0.51,-0.28 -0.44,-0.36 -0.37,-0.45 -0.27,-0.51 -0.18,-0.56 -0.06,-0.6 0,-1.48 0.06,-0.6 0.18,-0.56 0.27,-0.51 0.37,-0.45 0.44,-0.36 0.51,-0.28 0.57,-0.18 0.6,-0.06 0.6,0.06 0.57,0.18 0.51,0.28 0.44,0.36 0.37,0.45 0.27,0.51 0.18,0.56 0.06,0.6 Z M 9,8.48 l 0,7 -2,0 -2.01,-4.72 0,4.72 -1.5,0 0,-7 2.01,0 2,4.77 0,-4.77 1.5,0 Z M 19.5,12.74 l 0,-1.48 -0.12,-0.58 -0.32,-0.48 -0.48,-0.32 -0.58,-0.12 -0.58,0.12 -0.48,0.32 -0.32,0.48 -0.12,0.58 0,1.48 0.12,0.58 0.32,0.48 0.48,0.32 0.58,0.12 0.58,-0.12 0.48,-0.32 0.32,-0.48 0.12,-0.58 Z M 11.93,8.45 l 0.61,0.12 0.53,0.34 0.35,0.51 0.13,0.64 -0.11,0.57 -0.29,0.47 -0.41,0.35 -0.48,0.23 -0.47,0.2 -0.25,0.21 -0.18,0.39 2.14,0 0,1 -2.5,0 -0.29,-0.06 -0.24,-0.17 -0.14,-0.25 -0.03,-0.31 0.15,-0.66 0.32,-0.57 0.51,-0.44 0.67,-0.29 0.44,-0.29 0.16,-0.39 -0.04,-0.22 -0.14,-0.2 -0.2,-0.13 -0.26,-0.05 -0.02,0 -0.33,0.07 -0.34,0.22 -0.12,0.11 -0.67,-0.74 0.12,-0.11 0.6,-0.4 0.75,-0.15 0.03,0 Z" fill-rule="evenodd" fill="#000000" />
</svg>