<svg xmlns="http://www.w3.org/2000/svg" viewBox="0 0 24 24">
  <path id="NA" d="M 3.5,5 l 17,0 0.39,0.08 0.32,0.21 0.21,0.32 0.08,0.39 0,8.42 -3,-6.62 -2,0 -3.74,8.2 1.94,0 1.12,-2.5 3.36,0 1.14,2.5 1.18,0 0,2 -0.08,0.39 -0.21,0.32 -0.32,0.21 -0.39,0.08 -17,0 -0.39,-0.08 -0.32,-0.21 -0.21,-0.32 -0.08,-0.39 0,-2 1.5,0 0,-5.92 0,0 1.25,2.17 0.73,1.22 0.73,1.22 0.31,0.52 0.25,0.41 0.17,0.28 0.06,0.1 0,0 2,0 0,-8 -2,0 0,5.08 -0.75,-1.33 -0.7,-1.17 -0.73,-1.22 -0.32,-0.54 -0.26,-0.43 -0.18,-0.29 -0.06,-0.1 -0.5,0 0,0 -1.5,0 0,-2 0.08,-0.39 0.21,-0.32 0.32,-0.21 0.39,-0.08 Z M 14.5,6 l -2,0 -3,12 2,0 3,-12 Z M 16.5,12 l 1,-2.5 1,2.5 -2,0 Z" fill-rule="evenodd" fill="#000000" />
</svg>