<svg xmlns="http://www.w3.org/2000/svg" viewBox="0 0 48 48">
  <path id="narrows" d="M 38.5,39 l -5,0 0,-9.5 -0.1,-0.52 -0.27,-0.46 -5.02,-5.74 -0.69,-0.95 -0.5,-1.05 -0.31,-1.12 -0.11,-1.16 0,-8.5 5,0 0,8.5 0.1,0.52 0.27,0.46 5.02,5.74 0.69,0.95 0.5,1.05 0.31,1.12 0.11,1.16 0,9.5 Z M 14.5,39 l -5,0 0,-9.5 0.11,-1.16 0.31,-1.12 0.5,-1.05 0.69,-0.95 5.02,-5.74 0.27,-0.46 0.1,-0.52 0,-8.5 5,0 0,8.5 -0.11,1.16 -0.31,1.12 -0.5,1.05 -0.69,0.95 -5.02,5.74 -0.27,0.46 -0.1,0.52 0,9.5 Z" fill-rule="evenodd" fill="#000000" />
</svg>