<svg xmlns="http://www.w3.org/2000/svg" viewBox="0 0 24 24">
  <path id="night" d="M 18.61,13.41 l -0.41,1.31 -0.65,1.19 -0.85,1.04 -1.04,0.85 -1.19,0.65 -1.31,0.41 -1.41,0.14 -0.87,-0.05 -0.83,-0.16 -0.8,-0.25 -0.75,-0.34 -1.35,-0.92 -1.1,-1.21 -0.11,-0.37 0.11,-0.34 0.3,-0.26 0.4,-0.1 1.41,-0.14 1.31,-0.41 1.19,-0.65 1.04,-0.85 0.85,-1.04 0.65,-1.19 0.41,-1.31 0.14,-1.41 -0.07,-1 0.05,-0.58 0.28,-0.47 0.43,-0.25 0.26,-0.01 0.27,0.09 0.8,0.49 0.74,0.59 0.64,0.69 0.55,0.76 0.44,0.84 0.33,0.9 0.21,0.95 0.07,1 Z" fill-rule="evenodd" fill="#000000" />
</svg>