<svg xmlns="http://www.w3.org/2000/svg" viewBox="0 0 24 24">
  <path id="nodeAddMiddle02" d="M 12,18 l -1.21,-0.12 -1.13,-0.35 -1.01,-0.55 -0.89,-0.74 -0.74,-0.89 -0.55,-1.01 -0.35,-1.13 -0.12,-1.21 0.12,-1.21 0.35,-1.13 0.55,-1.01 0.74,-0.89 0.89,-0.74 1.01,-0.55 1.13,-0.35 1.21,-0.12 1.21,0.12 1.13,0.35 1.01,0.55 0.89,0.74 0.74,0.89 0.55,1.01 0.35,1.13 0.12,1.21 -0.12,1.21 -0.35,1.13 -0.55,1.01 -0.74,0.89 -0.89,0.74 -1.01,0.55 -1.13,0.35 -1.21,0.12 Z M 11,11 l -2.5,0 -0.35,0.15 -0.15,0.35 0,1 0.15,0.35 0.35,0.15 2.5,0 0,2.5 0.15,0.35 0.35,0.15 1,0 0.35,-0.15 0.15,-0.35 0,-2.5 2.5,0 0.35,-0.15 0.15,-0.35 0,-1 -0.15,-0.35 -0.35,-0.15 -2.5,0 0,-2.5 -0.15,-0.35 -0.35,-0.15 -1,0 -0.35,0.15 -0.15,0.35 0,2.5 Z M 2,10 l 3,0 0,4 -3,0 0,-4 Z M 19,10 l 2,0 1,2 -1,2 -2,0 0,-4 Z" fill-rule="evenodd" fill="#000000" />
</svg>