<svg xmlns="http://www.w3.org/2000/svg" viewBox="0 0 24 24">
  <path id="nodeRemove" d="M 21,12 l -0.18,1.81 -0.53,1.69 -0.83,1.53 -1.1,1.33 -1.33,1.1 -1.53,0.83 -1.69,0.53 -1.81,0.18 -1.81,-0.18 -1.69,-0.53 -1.53,-0.83 -1.33,-1.1 -1.1,-1.33 -0.83,-1.53 -0.53,-1.69 -0.18,-1.81 0.18,-1.81 0.53,-1.69 0.83,-1.53 1.1,-1.33 1.33,-1.1 1.53,-0.83 1.69,-0.53 1.81,-0.18 1.81,0.18 1.69,0.53 1.53,0.83 1.33,1.1 1.1,1.33 0.83,1.53 0.53,1.69 0.18,1.81 Z M 19.5,12 l -0.15,-1.51 -0.44,-1.41 -0.69,-1.27 -0.92,-1.11 -1.11,-0.92 -1.27,-0.69 -1.41,-0.44 -1.51,-0.15 -1.51,0.15 -1.41,0.44 -1.27,0.69 -1.11,0.92 -0.92,1.11 -0.69,1.27 -0.44,1.41 -0.15,1.51 0.15,1.51 0.44,1.41 0.69,1.27 0.92,1.11 1.11,0.92 1.27,0.69 1.41,0.44 1.51,0.15 1.51,-0.15 1.41,-0.44 1.27,-0.69 1.11,-0.92 0.92,-1.11 0.69,-1.27 0.44,-1.41 0.15,-1.51 Z M 12,18 l -1.21,-0.12 -1.13,-0.35 -1.01,-0.55 -0.89,-0.74 -0.74,-0.89 -0.55,-1.01 -0.35,-1.13 -0.12,-1.21 0.12,-1.21 0.35,-1.13 0.55,-1.01 0.74,-0.89 0.89,-0.74 1.01,-0.55 1.13,-0.35 1.21,-0.12 1.21,0.12 1.13,0.35 1.01,0.55 0.89,0.74 0.74,0.89 0.55,1.01 0.35,1.13 0.12,1.21 -0.12,1.21 -0.35,1.13 -0.55,1.01 -0.74,0.89 -0.89,0.74 -1.01,0.55 -1.13,0.35 -1.21,0.12 Z M 9.15,8.35 l -0.8,0.8 -0.14,0.35 0.14,0.35 2.15,2.15 -2.15,2.15 -0.14,0.35 0.14,0.35 0.8,0.8 0.35,0.14 0.35,-0.14 2.15,-2.15 2.15,2.15 0.35,0.14 0.35,-0.14 0.8,-0.8 0.14,-0.35 -0.14,-0.35 -2.15,-2.15 2.15,-2.15 0.14,-0.35 -0.14,-0.35 -0.8,-0.8 -0.35,-0.14 -0.35,0.14 -2.15,2.15 -2.15,-2.15 -0.35,-0.14 -0.35,0.14 Z" fill-rule="evenodd" fill="#000000" />
</svg>