<svg xmlns="http://www.w3.org/2000/svg" viewBox="0 0 24 24">
  <path id="nodeAddFirst02" d="M 16,12 l -0.12,1.21 -0.35,1.13 -0.55,1.01 -0.74,0.89 -0.89,0.74 -1.01,0.55 -1.13,0.35 -1.21,0.12 -5,0 -0.39,-0.08 -0.32,-0.21 -0.21,-0.32 -0.08,-0.39 0,-10 0.08,-0.39 0.21,-0.32 0.32,-0.21 0.39,-0.08 5,0 1.21,0.12 1.13,0.35 1.01,0.55 0.89,0.74 0.74,0.89 0.55,1.01 0.35,1.13 0.12,1.21 Z M 6,11.5 l 0,1 0.15,0.35 0.35,0.15 2.5,0 0,2.5 0.15,0.35 0.35,0.15 1,0 0.35,-0.15 0.15,-0.35 0,-2.5 2.5,0 0.35,-0.15 0.15,-0.35 0,-1 -0.15,-0.35 -0.35,-0.15 -2.5,0 0,-2.5 -0.15,-0.35 -0.35,-0.15 -1,0 -0.35,0.15 -0.15,0.35 0,2.5 -2.5,0 -0.35,0.15 -0.15,0.35 Z M 17.5,10 l 3.5,0 1,2 -1,2 -3.5,0 0,-4 Z" fill-rule="evenodd" fill="#000000" />
</svg>