<svg xmlns="http://www.w3.org/2000/svg" viewBox="0 0 24 24">
  <path id="noNameControllerButton" d="M 12,23 l -1.12,-0.06 -1.1,-0.16 -1.05,-0.27 -1.01,-0.37 -0.96,-0.47 -0.91,-0.55 -0.85,-0.63 -0.78,-0.71 -0.71,-0.78 -0.63,-0.85 -0.55,-0.91 -0.47,-0.96 -0.37,-1.01 -0.27,-1.05 -0.16,-1.1 -0.06,-1.12 0.06,-1.12 0.16,-1.1 0.27,-1.05 0.37,-1.01 0.47,-0.96 0.55,-0.91 0.63,-0.85 0.71,-0.78 0.78,-0.71 0.85,-0.63 0.91,-0.55 0.96,-0.47 1.01,-0.37 1.05,-0.27 1.1,-0.16 1.12,-0.06 1.12,0.06 1.1,0.16 1.05,0.27 1.01,0.37 0.96,0.47 0.91,0.55 0.85,0.63 0.78,0.71 0.71,0.78 0.63,0.85 0.55,0.91 0.47,0.96 0.37,1.01 0.27,1.05 0.16,1.1 0.06,1.12 -0.06,1.12 -0.16,1.1 -0.27,1.05 -0.37,1.01 -0.47,0.96 -0.55,0.91 -0.63,0.85 -0.71,0.78 -0.78,0.71 -0.85,0.63 -0.91,0.55 -0.96,0.47 -1.01,0.37 -1.05,0.27 -1.1,0.16 -1.12,0.06 Z M 7.25,9 l 2.5,0 0.17,-0.9 0.46,-0.72 0.72,-0.46 0.9,-0.17 0.9,0.17 0.72,0.46 0.46,0.72 0.17,0.9 -0.08,0.58 -0.21,0.38 -0.36,0.36 -0.57,0.43 -0.06,0.03 -0.69,0.52 -0.72,0.73 -0.34,0.51 -0.25,0.58 -0.16,0.65 -0.06,0.73 2.5,0 0.08,-0.57 0.2,-0.36 0.37,-0.36 0.57,-0.42 0.04,-0.03 0.7,-0.53 0.73,-0.74 0.34,-0.52 0.25,-0.58 0.16,-0.66 0.06,-0.73 -0.09,-0.98 -0.27,-0.9 -0.43,-0.81 -0.58,-0.69 -0.69,-0.58 -0.81,-0.43 -0.9,-0.27 -0.98,-0.09 -0.98,0.09 -0.9,0.27 -0.81,0.43 -0.69,0.58 -0.58,0.69 -0.43,0.81 -0.27,0.9 -0.09,0.98 Z M 14,18 l -0.16,-0.78 -0.43,-0.63 -0.63,-0.43 -0.78,-0.16 -0.78,0.16 -0.63,0.43 -0.43,0.63 -0.16,0.78 0.16,0.78 0.43,0.63 0.63,0.43 0.78,0.16 0.78,-0.16 0.63,-0.43 0.43,-0.63 0.16,-0.78 Z" fill-rule="evenodd" fill="#000000" />
</svg>