<svg xmlns="http://www.w3.org/2000/svg" viewBox="0 0 24 24">
  <path id="odometerKM" d="M 14,5.77 l -1.51,-0.25 -1.54,0.05 -1.49,0.37 -1.38,0.67 -1.22,0.93 -1.01,1.16 -0.74,1.35 -0.46,1.46 -0.15,1.53 0.17,1.53 0.47,1.46 0.76,1.34 -2.03,1.45 -0.55,-0.86 -0.47,-0.92 -0.36,-0.95 -0.27,-1 -0.16,-1.01 -0.06,-1.02 0.05,-1.03 0.15,-1.01 0.25,-1 0.36,-0.96 0.45,-0.92 0.54,-0.87 0.63,-0.81 0.71,-0.74 0.78,-0.66 0.85,-0.58 0.9,-0.49 0.95,-0.4 0.98,-0.3 1,-0.19 1.03,-0.09 1.02,0.01 1.02,0.12 1,0.22 0.98,0.33 0.93,0.42 0.88,0.52 0.83,0.6 0.77,0.69 0.69,0.76 0.6,0.82 0.52,0.89 -2.22,1.15 -0.84,-1.28 -1.09,-1.09 -1.29,-0.84 -1.43,-0.56 Z M 13.18,19 l 1.02,-6.37 1.58,0 -0.09,0.57 0.31,-0.31 0.36,-0.22 0.82,-0.19 0.38,0.06 0.36,0.2 0.29,0.29 0.2,0.37 0.38,-0.4 0.43,-0.29 0.48,-0.17 0.55,-0.06 0.56,0.08 0.47,0.26 0.37,0.39 0.24,0.52 0.11,0.62 -0.05,0.7 -0.63,3.95 -1.66,0 0.59,-3.7 0.02,-0.47 -0.09,-0.34 -0.21,-0.22 -0.32,-0.07 -0.33,0.07 -0.3,0.19 -0.23,0.34 -0.13,0.49 -0.59,3.71 -1.67,0 0.6,-3.7 0.02,-0.45 -0.11,-0.35 -0.2,-0.22 -0.31,-0.08 -0.34,0.07 -0.31,0.21 -0.24,0.33 -0.14,0.48 -0.58,3.71 -1.61,0 Z M 7,19 l 1.33,-8.43 1.73,-0.57 -0.65,4.04 1.46,-1.41 2.13,0 -2.13,1.99 1.26,4.38 -1.68,0 -0.9,-3.13 -0.52,0.49 -0.43,2.64 -1.6,0 Z" fill-rule="evenodd" fill="#000000" />
</svg>