<svg xmlns="http://www.w3.org/2000/svg" viewBox="0 0 24 24">
  <path id="odometerMI" d="M 14,5.77 l -1.51,-0.25 -1.54,0.05 -1.49,0.37 -1.38,0.67 -1.22,0.93 -1.01,1.16 -0.74,1.35 -0.46,1.46 -0.15,1.53 0.17,1.53 0.47,1.46 0.76,1.34 -2.03,1.45 -0.55,-0.86 -0.47,-0.92 -0.36,-0.95 -0.27,-1 -0.16,-1.01 -0.06,-1.02 0.05,-1.03 0.15,-1.01 0.25,-1 0.36,-0.96 0.45,-0.92 0.54,-0.87 0.63,-0.81 0.71,-0.74 0.78,-0.66 0.85,-0.58 0.9,-0.49 0.95,-0.4 0.98,-0.3 1,-0.19 1.03,-0.09 1.02,0.01 1.02,0.12 1,0.22 0.98,0.33 0.93,0.42 0.88,0.52 0.83,0.6 0.77,0.69 0.69,0.76 0.6,0.82 0.52,0.89 -2.22,1.15 -0.84,-1.28 -1.09,-1.09 -1.29,-0.84 -1.43,-0.56 Z M 7,19 l 1.13,-6.37 1.76,0 -0.1,0.57 0.34,-0.31 0.4,-0.22 0.91,-0.19 0.43,0.06 0.39,0.2 0.33,0.29 0.22,0.37 0.42,-0.4 0.48,-0.29 0.54,-0.17 0.6,-0.06 0.63,0.08 0.52,0.26 0.41,0.39 0.27,0.52 0.12,0.62 -0.05,0.7 -0.7,3.95 -1.85,0 0.65,-3.7 0.03,-0.47 -0.11,-0.34 -0.23,-0.22 -0.35,-0.07 -0.37,0.07 -0.33,0.19 -0.25,0.34 -0.15,0.49 -0.66,3.71 -1.85,0 0.66,-3.7 0.02,-0.45 -0.11,-0.35 -0.23,-0.22 -0.34,-0.08 -0.39,0.07 -0.34,0.21 -0.27,0.33 -0.15,0.48 -0.65,3.71 -1.78,0 Z M 17.71,19 l 1.13,-6.37 1.81,0 -1.13,6.37 -1.81,0 Z M 19.83,11.98 l -0.31,-0.06 -0.26,-0.17 -0.17,-0.27 -0.06,-0.32 0.09,-0.44 0.26,-0.37 0.38,-0.26 0.44,-0.09 0.32,0.06 0.25,0.18 0.17,0.26 0.06,0.32 -0.09,0.44 -0.26,0.38 -0.38,0.26 -0.44,0.08 Z" fill-rule="evenodd" fill="#000000" />
</svg>