<svg xmlns="http://www.w3.org/2000/svg" viewBox="0 0 24 24">
  <path id="odometer" d="M 10.11,6 l 3.78,0 0.42,0.09 0.35,0.23 0.23,0.35 0.08,0.43 0,8.8 -0.08,0.43 -0.23,0.35 -0.35,0.23 -0.42,0.09 -3.78,0 -0.42,-0.09 -0.35,-0.23 -0.23,-0.35 -0.08,-0.43 0,-8.8 0.08,-0.43 0.23,-0.35 0.35,-0.23 0.42,-0.09 Z M 3.08,6 l 3.78,0 0.43,0.09 0.34,0.23 0.23,0.35 0.09,0.43 0,8.8 -0.09,0.43 -0.23,0.35 -0.34,0.23 -0.43,0.09 -3.78,0 -0.42,-0.09 -0.34,-0.23 -0.24,-0.35 -0.08,-0.43 0,-8.8 0.08,-0.43 0.24,-0.35 0.34,-0.23 0.42,-0.09 Z M 18.8,10.51 l 0.63,-0.07 0.56,-0.19 0.47,-0.32 0.36,-0.43 0.23,-0.53 0.08,-0.64 -0.06,-0.55 -0.17,-0.5 -0.28,-0.43 -0.39,-0.32 -0.5,-0.21 -0.61,-0.06 -0.35,0.03 -0.35,0.07 0.02,-0.36 2.48,0 0.42,0.09 0.34,0.23 0.24,0.35 0.08,0.43 0,8.8 -0.05,0.33 -0.13,0.28 -0.48,0.4 0.01,-0.09 -0.07,-0.56 -0.2,-0.49 -0.32,-0.41 -0.42,-0.3 -0.49,-0.2 -0.56,-0.06 -0.46,0.06 -0.36,0.15 0.23,-0.36 0.3,-0.28 0.75,-0.39 0.82,-0.21 0,-1.31 -1.21,0.3 -0.95,0.49 -0.7,0.64 -0.49,0.77 -0.28,0.87 -0.09,0.94 0.04,0.5 -0.33,-0.14 -0.27,-0.24 -0.17,-0.32 -0.07,-0.37 0,-8.8 0.09,-0.43 0.23,-0.34 0.34,-0.24 0.41,-0.09 -0.05,1.37 1.16,0.64 0.38,-0.33 0.51,-0.11 0.37,0.09 0.22,0.27 0.07,0.38 -0.12,0.5 -0.35,0.29 -0.51,0.09 -0.46,-0.05 -0.4,-0.15 -0.34,-0.18 -0.7,1.09 0.47,0.29 0.63,0.22 0.8,0.1 Z M 11.12,14.26 l 0.79,0.1 0.63,-0.07 0.57,-0.19 0.47,-0.32 0.36,-0.43 0.23,-0.53 0.08,-0.64 -0.06,-0.55 -0.17,-0.5 -0.28,-0.43 -0.4,-0.32 -0.5,-0.21 -0.61,-0.06 -0.34,0.03 -0.35,0.07 0.03,-0.78 2.3,0 0,-1.34 -3.57,0 -0.11,3.13 1.16,0.64 0.38,-0.33 0.51,-0.11 0.37,0.09 0.21,0.27 0.08,0.38 -0.13,0.5 -0.34,0.29 -0.52,0.09 -0.46,-0.05 -0.39,-0.15 -0.34,-0.18 -0.7,1.09 0.46,0.29 0.64,0.22 Z M 3.01,12.98 l -0.12,0.59 -0.03,0.68 4.2,0 0,-1.33 -2.61,0 0.25,-0.39 0.4,-0.34 0.66,-0.43 0.65,-0.47 0.44,-0.6 0.12,-0.4 0.04,-0.48 -0.06,-0.48 -0.18,-0.43 -0.28,-0.38 -0.39,-0.28 -0.49,-0.19 -0.58,-0.07 -0.63,0.09 -0.59,0.27 -0.5,0.43 -0.36,0.56 1.21,0.56 0.39,-0.44 0.51,-0.15 0.44,0.14 0.13,0.18 0.04,0.24 -0.11,0.36 -0.28,0.27 -0.36,0.23 -0.83,0.57 -0.65,0.73 -0.43,0.96 Z M 19.98,17 l -1.71,0 -0.02,-0.18 0.11,-0.37 0.32,-0.25 0.45,-0.09 0.34,0.05 0.28,0.14 0.18,0.23 0.07,0.29 -0.02,0.18 Z" fill-rule="evenodd" fill="#000000" />
</svg>