<svg xmlns="http://www.w3.org/2000/svg" viewBox="0 0 24 24">
  <path id="oilPressureIndicator" d="M 8,7 l 4,0 0,2 -1,0 0,1 2,0 1,1 5.5,-1.5 2,1.5 -0.5,1 -1.5,-0.5 -3.5,5.5 -10,0 0,-3.85 -5,-1.15 1,-4 3.5,1 2,1 1.5,0 0,-1 -1,0 0,-2 Z M 7.5,11.5 l 0,4 7.68,0 2.51,-3.95 -4.14,1.13 -1.17,-1.18 -4.88,0 Z M 21,13 l 0.81,1.21 0.14,0.3 0.05,0.34 0,0.15 -0.08,0.39 -0.21,0.32 -0.32,0.21 -0.39,0.08 -0.39,-0.08 -0.32,-0.21 -0.21,-0.32 -0.08,-0.39 0,-0.17 0.05,-0.35 0.15,-0.32 0.8,-1.16 Z M 6,11.61 l 0,-0.68 -1.05,-0.53 -1.87,-0.53 -0.25,1.01 3.17,0.73 Z" fill-rule="evenodd" fill="#000000" />
</svg>