<svg xmlns="http://www.w3.org/2000/svg" viewBox="0 0 24 24">
  <path id="order" d="M 12.22,3.11 l 6.89,3.44 0.2,0.19 0.07,0.26 -0.07,0.26 -0.2,0.19 -6.89,3.44 -0.22,0.05 -0.22,-0.05 -6.89,-3.44 -0.2,-0.19 -0.07,-0.26 0.07,-0.26 0.2,-0.19 6.89,-3.44 0.22,-0.05 0.22,0.05 Z M 8.55,10.95 l 3.23,1.62 0.22,0.05 0.22,-0.05 3.23,-1.62 0.23,-0.05 0.22,0.05 3.21,1.6 0.2,0.19 0.07,0.26 -0.07,0.26 -0.2,0.19 -6.89,3.44 -0.22,0.05 -0.22,-0.05 -6.89,-3.44 -0.2,-0.19 -0.07,-0.26 0.07,-0.26 0.2,-0.19 3.21,-1.6 0.22,-0.05 0.23,0.05 Z M 6.32,16 l 1.68,0.84 -0.65,0.32 4.65,2.32 4.65,-2.32 -0.65,-0.32 1.68,-0.84 1.43,0.71 0.2,0.2 0.07,0.25 -0.07,0.26 -0.2,0.19 -6.89,3.44 -0.22,0.05 -0.22,-0.05 -6.89,-3.44 -0.2,-0.19 -0.07,-0.26 0.07,-0.25 0.2,-0.2 1.43,-0.71 Z M 12,4.68 l -4.65,2.32 4.65,2.32 4.65,-2.32 -4.65,-2.32 Z" fill-rule="evenodd" fill="#000000" />
</svg>