<svg xmlns="http://www.w3.org/2000/svg" viewBox="0 0 24 24">
  <path id="organization" d="M 20,10 l -0.09,1.12 -0.25,1.12 -0.4,1.1 -0.51,1.07 -1.28,2.02 -1.47,1.82 -1.47,1.54 -0.67,0.64 -0.61,0.54 -0.51,0.44 -0.4,0.32 -0.25,0.2 -0.09,0.07 -0.09,-0.07 -0.25,-0.2 -0.4,-0.32 -0.51,-0.44 -0.61,-0.54 -0.67,-0.64 -1.47,-1.54 -1.47,-1.82 -1.28,-2.02 -0.51,-1.07 -0.4,-1.1 -0.25,-1.12 -0.09,-1.12 0.16,-1.61 0.47,-1.5 0.74,-1.36 0.97,-1.19 1.19,-0.97 1.36,-0.74 1.5,-0.47 1.61,-0.16 1.61,0.16 1.5,0.47 1.36,0.74 1.19,0.97 0.97,1.19 0.74,1.36 0.47,1.5 0.16,1.61 Z M 18.4,10 l -0.13,-1.29 -0.37,-1.2 -0.59,-1.09 -0.78,-0.95 -0.95,-0.78 -1.09,-0.59 -1.2,-0.37 -1.29,-0.13 -1.29,0.13 -1.2,0.37 -1.09,0.59 -0.95,0.78 -0.78,0.95 -0.59,1.09 -0.37,1.2 -0.13,1.29 0.07,0.9 0.22,0.91 0.33,0.92 0.44,0.92 1.15,1.82 1.39,1.72 1.39,1.45 0.64,0.61 0.57,0.51 0.2,0.17 0.2,-0.17 0.57,-0.51 0.64,-0.61 1.39,-1.45 1.39,-1.72 1.15,-1.82 0.44,-0.92 0.33,-0.92 0.22,-0.91 0.07,-0.9 Z M 12,5.16 l 4.34,2.17 -0.34,1.42 -8,0 -0.34,-1.42 4.34,-2.17 Z M 9.75,14 l -1.5,0 0,-4 1.5,0 0,4 Z M 12.75,14 l -1.5,0 0,-4 1.5,0 0,4 Z M 15.75,14 l -1.5,0 0,-4 1.5,0 0,4 Z M 12,6.84 l -0.82,0.41 1.64,0 -0.82,-0.41 Z" fill-rule="evenodd" fill="#000000" />
</svg>