<svg xmlns="http://www.w3.org/2000/svg" viewBox="0 0 24 24">
  <path id="palmCrossed" d="M 13,13 l 5.99,5.99 1.16,1.16 0.14,0.35 -0.14,0.35 -0.8,0.8 -0.35,0.14 -0.35,-0.14 -0.72,-0.72 -0.28,-0.15 -0.31,0.05 -0.04,0.02 -0.19,0.1 -0.23,0.05 -7.88,0 -0.81,-0.07 -0.87,-0.28 -0.84,-0.58 -0.39,-0.43 -0.34,-0.53 -2.5,-4.65 -0.02,-0.36 0.28,-0.23 0.69,-0.07 0.66,0.12 0.61,0.3 0.51,0.46 1.16,1.39 0.31,0.46 0.23,0.51 0.18,0.11 0.14,-0.17 0,-5.77 -0.15,-0.36 -4.5,-4.5 -0.14,-0.35 0.14,-0.35 0.8,-0.8 0.35,-0.14 0.35,0.14 3.15,3.15 2,2 1,1 2,2 Z M 19,7.5 l 0,7.29 -0.09,0.29 -0.22,0.17 -0.28,0.04 -0.26,-0.14 -1,-1 -0.15,-0.36 0,-6.29 0.08,-0.39 0.21,-0.32 0.32,-0.21 0.39,-0.08 0.39,0.08 0.32,0.21 0.21,0.32 0.08,0.39 Z M 16,5.5 l 0,6.29 -0.09,0.29 -0.22,0.17 -0.28,0.04 -0.26,-0.14 -1,-1 -0.15,-0.36 0,-5.29 0.08,-0.39 0.21,-0.32 0.32,-0.21 0.39,-0.08 0.39,0.08 0.32,0.21 0.21,0.32 0.08,0.39 Z M 13,4.5 l 0,4.29 -0.09,0.29 -0.22,0.17 -0.28,0.04 -0.26,-0.14 -1,-1 -0.15,-0.36 0,-3.29 0.08,-0.39 0.21,-0.32 0.32,-0.21 0.39,-0.08 0.39,0.08 0.32,0.21 0.21,0.32 0.08,0.39 Z M 10,6 l -0.07,0.24 -0.19,0.14 -0.23,0.03 -0.22,-0.12 -0.64,-0.64 -0.14,-0.35 0.06,-0.16 0.15,-0.1 0.28,-0.04 0.39,0.08 0.32,0.21 0.21,0.32 0.08,0.39 Z" fill-rule="evenodd" fill="#000000" />
</svg>