<svg xmlns="http://www.w3.org/2000/svg" viewBox="0 0 24 24">
  <path id="paperKnife" d="M 12.52,15.48 l -0.01,0.01 -0.25,0.19 -0.3,0.09 -0.6,-0.09 -1.06,-0.53 -0.26,-0.19 -0.19,-0.26 -0.85,-1.7 -4.36,-4.36 -0.52,-0.7 -0.3,-0.83 -0.34,-1.72 -0.04,-0.46 0.06,-0.43 0.39,-0.77 0.68,-0.53 0.41,-0.15 0.46,-0.05 4.32,0 0.59,0.06 0.56,0.17 0.51,0.27 0.46,0.38 5.41,5.41 0.2,0.28 0.09,0.31 -0.02,0.33 -0.12,0.31 2.56,2.98 -1.5,7.5 -5.98,-5.52 Z M 16.92,12.21 l -2.76,2.75 3.39,3.12 0.84,-4.16 -1.47,-1.71 Z" fill-rule="evenodd" fill="#000000" />
</svg>