<svg xmlns="http://www.w3.org/2000/svg" viewBox="0 0 24 24">
  <path id="parking" d="M 17,3 l 0.6,0.06 0.57,0.18 0.51,0.27 0.44,0.37 0.37,0.44 0.27,0.51 0.18,0.57 0.06,0.6 0,12 -0.06,0.6 -0.18,0.57 -0.27,0.51 -0.37,0.44 -0.44,0.37 -0.51,0.27 -0.57,0.18 -0.6,0.06 -10,0 -0.6,-0.06 -0.57,-0.18 -0.51,-0.27 -0.44,-0.37 -0.37,-0.44 -0.27,-0.51 -0.18,-0.57 -0.06,-0.6 0,-12 0.06,-0.6 0.18,-0.57 0.27,-0.51 0.37,-0.44 0.44,-0.37 0.51,-0.27 0.57,-0.18 0.6,-0.06 10,0 Z M 7,5 l -0.39,0.08 -0.32,0.21 -0.21,0.32 -0.08,0.39 0,12 0.08,0.39 0.21,0.32 0.32,0.21 0.39,0.08 10,0 0.39,-0.08 0.32,-0.21 0.21,-0.32 0.08,-0.39 0,-12 -0.08,-0.39 -0.21,-0.32 -0.32,-0.21 -0.39,-0.08 -10,0 Z M 10.4,16.59 l -1.82,0 0,-9.45 4.05,0 0.82,0.07 0.69,0.19 0.56,0.3 0.44,0.38 0.33,0.46 0.22,0.5 0.17,1.09 -0.18,1.04 -0.24,0.51 -0.33,0.46 -0.44,0.39 -0.56,0.31 -0.68,0.2 -0.8,0.07 -2.23,0 0,3.48 Z M 10.4,11.38 l 2.31,0 0.58,-0.11 0.39,-0.29 0.22,-0.41 0.07,-0.44 -0.06,-0.43 -0.21,-0.4 -0.38,-0.31 -0.61,-0.12 -2.31,0 0,2.51 Z" fill-rule="evenodd" fill="#000000" />
</svg>