<svg xmlns="http://www.w3.org/2000/svg" viewBox="0 0 24 24">
  <path id="parkingIndicator" d="M 12,4 l 1.56,0.15 1.5,0.46 1.38,0.74 1.22,0.99 0.99,1.22 0.74,1.38 0.46,1.5 0.15,1.56 -0.15,1.56 -0.46,1.5 -0.74,1.38 -0.99,1.22 -1.22,0.99 -1.38,0.74 -1.5,0.46 -1.56,0.15 -1.56,-0.15 -1.5,-0.46 -1.38,-0.74 -1.22,-0.99 -0.99,-1.22 -0.74,-1.38 -0.46,-1.5 -0.15,-1.56 0.15,-1.56 0.46,-1.5 0.74,-1.38 0.99,-1.22 1.22,-0.99 1.38,-0.74 1.5,-0.46 1.56,-0.15 Z M 9.51,5.99 l -1.12,0.61 -0.99,0.8 -0.8,0.99 -0.61,1.12 -0.37,1.22 -0.12,1.27 0.12,1.27 0.37,1.22 0.61,1.12 0.8,0.99 0.99,0.8 1.12,0.61 1.22,0.37 1.27,0.12 1.27,-0.12 1.22,-0.37 1.12,-0.61 0.99,-0.8 0.8,-0.99 0.61,-1.12 0.37,-1.22 0.12,-1.27 -0.12,-1.27 -0.37,-1.22 -0.61,-1.12 -0.8,-0.99 -0.99,-0.8 -1.12,-0.61 -1.22,-0.37 -1.27,-0.12 -1.27,0.12 -1.22,0.37 Z M 9.5,16 l 0,-8.5 3.25,0 0.55,0.06 0.52,0.16 0.47,0.25 0.4,0.34 0.34,0.4 0.25,0.47 0.16,0.52 0.06,0.55 -0.06,0.55 -0.16,0.52 -0.25,0.47 -0.34,0.4 -0.4,0.34 -0.47,0.25 -0.52,0.16 -0.55,0.06 -1.75,0 0,3 -1.5,0 Z M 20.31,8.56 l -0.83,-1.56 -1.12,-1.36 0.71,-0.71 1.24,1.51 0.93,1.73 0.57,1.88 0.19,1.95 -0.19,1.95 -0.57,1.88 -0.93,1.73 -1.24,1.51 -0.71,-0.71 1.12,-1.36 0.83,-1.56 0.52,-1.68 0.17,-1.76 -0.17,-1.76 -0.52,-1.68 Z M 5.64,5.64 l -1.12,1.36 -0.83,1.56 -0.52,1.68 -0.17,1.76 0.17,1.76 0.52,1.68 0.83,1.56 1.12,1.36 -0.71,0.71 -1.24,-1.51 -0.93,-1.73 -0.57,-1.88 -0.19,-1.95 0.19,-1.95 0.57,-1.88 0.93,-1.73 1.24,-1.51 0.71,0.71 Z M 11,11.5 l 1.75,0 0.49,-0.1 0.39,-0.27 0.27,-0.39 0.1,-0.49 -0.1,-0.49 -0.27,-0.39 -0.39,-0.27 -0.49,-0.1 -1.75,0 0,2.5 Z" fill-rule="evenodd" fill="#000000" />
</svg>