<svg xmlns="http://www.w3.org/2000/svg" viewBox="0 0 24 24">
  <path id="pathAroundObstacle" d="M 12,13 l 3,-2 4,0 2,2 -1,5 -1,0.5 0,-1 -0.5,-5 -3,0 1.5,2.5 1,3 0,1 -6,-0.5 -2,-2.5 2,-3 Z M 6,10 l -3,-1 0,-0.5 1,-1 7,-3 0,0.5 -1,6 -1,1 -3,-2 Z M 4.28,11.59 l 1.22,0.41 1.5,1.12 -0.55,0.56 -0.43,0.58 -0.21,0.69 0,0.62 0.16,0.59 0.31,0.52 0.45,0.43 0.42,0.3 0.61,0.52 0.5,0.63 0.38,0.69 0.25,0.76 -0.01,0.38 -0.18,0.32 -0.31,0.21 -0.39,0.08 -1,0 -0.39,-0.08 -0.35,-0.22 -0.6,-0.62 -0.25,-0.23 -0.42,-0.3 -0.57,-0.47 -0.48,-0.52 -0.73,-1.22 -0.38,-1.37 -0.04,-0.72 0.05,-0.72 0.18,-0.82 0.31,-0.76 0.42,-0.72 0.53,-0.64 Z M 11.98,8.3 l 0.52,-2.8 0,-0.46 0.66,-0.04 2.28,0 0.64,-0.08 0.6,-0.25 1.71,-0.98 0.78,-0.36 0.84,-0.24 0.38,0.02 0.32,0.19 0.21,0.31 0.08,0.39 0,1 -0.08,0.39 -0.22,0.34 -0.67,0.49 -0.15,0.08 -1.71,0.98 -1.32,0.54 -1.41,0.18 -2.28,0 -0.61,0.08 -0.57,0.22 Z" fill-rule="evenodd" fill="#000000" />
</svg>