<svg xmlns="http://www.w3.org/2000/svg" viewBox="0 0 24 24">
  <path id="pathArc" d="M 16.14,6.73 l -1.73,0.48 -1.61,0.72 -1.47,0.95 -1.32,1.13 -1.13,1.32 -0.95,1.47 -0.72,1.61 -0.48,1.73 0.51,0.29 0.4,0.43 0.27,0.53 0.09,0.61 0,1 -0.16,0.78 -0.43,0.63 -0.63,0.43 -0.78,0.16 -1,0 -0.78,-0.16 -0.63,-0.43 -0.43,-0.63 -0.16,-0.78 0,-1 0.13,-0.72 0.37,-0.6 0.54,-0.44 0.68,-0.22 0.54,-2.09 0.85,-1.95 1.12,-1.79 1.37,-1.59 1.59,-1.37 1.79,-1.12 1.95,-0.85 2.09,-0.54 0.22,-0.68 0.44,-0.54 0.6,-0.37 0.72,-0.13 1,0 0.78,0.16 0.63,0.43 0.43,0.63 0.16,0.78 0,1 -0.16,0.78 -0.43,0.63 -0.63,0.43 -0.78,0.16 -1,0 -0.61,-0.09 -0.53,-0.27 -0.43,-0.4 -0.29,-0.51 Z M 17.7,17.7 l 0,-0.47 1.6,0 0,2.07 -9.6,0 0,-1.6 8,0 Z M 19.3,15.52 l -1.6,0 0,-2.55 1.6,0 0,2.55 Z M 19.3,9.2 l 0,2.07 -1.6,0 0,-2.07 1.6,0 Z" fill-rule="evenodd" fill="#000000" />
</svg>