<svg xmlns="http://www.w3.org/2000/svg" viewBox="0 0 24 24">
  <path id="pathSpiral" d="M 20.91,12.43 l -0.12,0.88 -0.53,1.63 -0.83,1.45 -1.11,1.25 -1.33,1.02 -1.53,0.76 -1.68,0.47 -1.78,0.17 -1.38,-0.16 -1.26,-0.44 -1.13,-0.69 -0.98,-0.89 -0.79,-1.07 -0.6,-1.19 -0.37,-1.29 -0.13,-1.34 0.14,-1.35 0.41,-1.22 0.62,-1.07 0.81,-0.9 0.95,-0.73 1.06,-0.54 1.12,-0.32 1.14,-0.1 1.08,0.1 0.97,0.28 0.87,0.45 0.74,0.59 0.59,0.72 0.42,0.82 0.26,0.88 0.09,0.94 -0.05,0.71 -0.15,0.66 -0.24,0.61 -0.33,0.56 -0.86,0.92 -1.1,0.64 -0.29,0.55 -0.43,0.43 -0.55,0.28 -0.63,0.1 -0.78,-0.16 -0.63,-0.43 -0.43,-0.63 -0.16,-0.78 0.16,-0.78 0.43,-0.63 0.63,-0.43 0.78,-0.16 0.81,0.17 0.65,0.46 0.49,-0.37 0.37,-0.49 0.23,-0.58 0.08,-0.65 -0.05,-0.57 -0.15,-0.51 -0.24,-0.46 -0.33,-0.4 -0.41,-0.33 -0.52,-0.27 -0.62,-0.17 -0.73,-0.07 -0.77,0.07 -0.75,0.22 -0.71,0.36 -0.65,0.5 -0.54,0.62 -0.43,0.72 -0.27,0.83 -0.1,0.91 0.1,0.99 0.27,0.94 0.44,0.86 0.57,0.76 0.69,0.63 0.78,0.48 0.87,0.3 0.92,0.11 1.43,-0.13 1.32,-0.37 1.18,-0.6 1.03,-0.78 0.85,-0.96 0.63,-1.11 0.39,-1.23 0.12,-1.33 -0.13,-1.35 -0.32,-1.2 -0.51,-1.06 -0.67,-0.92 -0.82,-0.78 -0.93,-0.64 -1.04,-0.49 -1.13,-0.34 -1.16,-0.19 -1.22,-0.03 -1.23,0.12 -1.19,0.26 0,0.67 -0.16,0.78 -0.42,0.64 -0.64,0.42 -0.78,0.16 -1.2,0 -0.78,-0.16 -0.64,-0.42 -0.42,-0.64 -0.16,-0.78 0,-1.2 0.16,-0.78 0.42,-0.64 0.64,-0.42 0.78,-0.16 1.2,0 0.8,0.16 0.64,0.45 1.47,-0.32 1.48,-0.14 1.47,0.05 1.4,0.22 1.4,0.43 1.31,0.63 1.2,0.81 1.05,1 0.87,1.19 0.66,1.37 0.43,1.55 0.17,1.72 Z" fill-rule="evenodd" fill="#000000" />
</svg>