<svg xmlns="http://www.w3.org/2000/svg" viewBox="0 0 24 24">
  <path id="pause" d="M 14,6 l 0.08,-0.39 0.21,-0.32 0.32,-0.21 0.39,-0.08 3,0 0.39,0.08 0.32,0.21 0.21,0.32 0.08,0.39 0,12 -0.08,0.39 -0.21,0.32 -0.32,0.21 -0.39,0.08 -3,0 -0.39,-0.08 -0.32,-0.21 -0.21,-0.32 -0.08,-0.39 0,-12 Z M 5,6 l 0.08,-0.39 0.21,-0.32 0.32,-0.21 0.39,-0.08 3,0 0.39,0.08 0.32,0.21 0.21,0.32 0.08,0.39 0,12 -0.08,0.39 -0.21,0.32 -0.32,0.21 -0.39,0.08 -3,0 -0.39,-0.08 -0.32,-0.21 -0.21,-0.32 -0.08,-0.39 0,-12 Z" fill-rule="evenodd" fill="#000000" />
</svg>