<svg xmlns="http://www.w3.org/2000/svg" viewBox="0 0 24 24">
  <path id="pedestrianStanding" d="M 12.88,6.25 l 0.48,0.07 0.44,0.19 0.37,0.31 0.28,0.4 1.12,2.23 0.18,0.79 0,2.26 -0.06,0.29 -0.16,0.24 -0.24,0.16 -0.29,0.06 -0.29,-0.06 -0.24,-0.16 -0.16,-0.24 -0.06,-0.29 0,-2.26 -0.03,-0.12 -0.72,-1.44 0,3.22 1.48,7.4 0,0.4 -0.15,0.35 -0.27,0.28 -0.36,0.15 -0.4,0 -0.36,-0.15 -0.27,-0.27 -0.15,-0.36 -1.02,-5.1 -1.02,5.1 -0.15,0.36 -0.28,0.27 -0.35,0.15 -0.4,0 -0.36,-0.15 -0.27,-0.28 -0.15,-0.35 0,-0.4 1.48,-7.4 0,-3.22 -0.72,1.44 -0.03,0.12 0,2.26 -0.06,0.29 -0.16,0.24 -0.24,0.16 -0.29,0.06 -0.29,-0.06 -0.24,-0.16 -0.16,-0.24 -0.06,-0.29 0,-2.26 0.18,-0.79 1.12,-2.23 0.28,-0.4 0.37,-0.31 0.44,-0.19 0.48,-0.07 1.76,0 Z M 12,6 l -0.58,-0.12 -0.48,-0.32 -0.32,-0.48 -0.12,-0.58 0.12,-0.58 0.32,-0.48 0.48,-0.32 0.58,-0.12 0.58,0.12 0.48,0.32 0.32,0.48 0.12,0.58 -0.12,0.58 -0.32,0.48 -0.48,0.32 -0.58,0.12 Z" fill-rule="evenodd" fill="#000000" />
</svg>