<svg xmlns="http://www.w3.org/2000/svg" viewBox="0 0 24 24">
  <path id="pedestrianCrossing01" d="M 3.51,20 l -0.24,-0.06 -0.17,-0.16 -0.09,-0.22 0.03,-0.24 0.78,-2 0.18,-0.23 0.29,-0.09 15.42,0 0.29,0.09 0.18,0.23 0.78,2 0.03,0.24 -0.09,0.22 -0.17,0.16 -0.24,0.06 -16.98,0 Z M 5.65,14.5 l -0.24,-0.06 -0.18,-0.16 -0.08,-0.22 0.03,-0.24 0.58,-1.5 0.19,-0.23 0.28,-0.09 11.54,0 0.28,0.09 0.19,0.23 0.58,1.5 0.03,0.24 -0.08,0.22 -0.18,0.16 -0.24,0.06 -12.7,0 Z M 7.4,10 l -0.24,-0.06 -0.18,-0.16 -0.08,-0.22 0.03,-0.24 0.39,-1 0.18,-0.23 0.29,-0.09 8.42,0 0.29,0.09 0.18,0.23 0.39,1 0.03,0.24 -0.08,0.22 -0.18,0.16 -0.24,0.06 -9.2,0 Z M 8.76,6.5 l -0.24,-0.06 -0.17,-0.16 -0.09,-0.22 0.03,-0.24 0.2,-0.5 0.18,-0.23 0.28,-0.09 6.1,0 0.28,0.09 0.18,0.23 0.2,0.5 0.03,0.24 -0.09,0.22 -0.17,0.16 -0.24,0.06 -6.48,0 Z" fill-rule="evenodd" fill="#000000" />
</svg>