<svg xmlns="http://www.w3.org/2000/svg" viewBox="0 0 24 24">
  <path id="pedestrianRunning" d="M 12.96,6.25 l 0.43,0.05 0.4,0.16 0.35,0.24 0.28,0.33 1.41,2.11 0.21,0.11 1.96,0 0.29,0.06 0.24,0.16 0.16,0.24 0.06,0.29 -0.06,0.29 -0.16,0.24 -0.24,0.16 -0.29,0.06 -1.96,0 -0.43,-0.05 -0.4,-0.16 -0.35,-0.24 -0.28,-0.33 -1.08,-1.62 0,3.29 2.04,2.44 0.34,0.6 0.12,0.68 0,3.64 -0.08,0.39 -0.21,0.32 -0.32,0.21 -0.39,0.08 -0.39,-0.08 -0.32,-0.21 -0.21,-0.32 -0.08,-0.39 0,-3.64 -1.88,-2.26 -1.06,2.46 -0.38,0.58 -0.56,0.42 -2.67,1.33 -0.39,0.11 -0.38,-0.05 -0.33,-0.19 -0.24,-0.31 -0.11,-0.39 0.05,-0.38 0.19,-0.33 0.31,-0.24 2.68,-1.34 1.27,-2.98 0,-3.83 -1.66,1.33 -0.09,0.19 0,2.02 -0.06,0.29 -0.16,0.24 -0.24,0.16 -0.29,0.06 -0.29,-0.06 -0.24,-0.16 -0.16,-0.24 -0.06,-0.29 0,-2.02 0.17,-0.76 0.49,-0.61 1.85,-1.48 0.51,-0.28 0.58,-0.1 2.11,0 Z M 12,6 l -0.58,-0.12 -0.48,-0.32 -0.32,-0.48 -0.12,-0.58 0.12,-0.58 0.32,-0.48 0.48,-0.32 0.58,-0.12 0.58,0.12 0.48,0.32 0.32,0.48 0.12,0.58 -0.12,0.58 -0.32,0.48 -0.48,0.32 -0.58,0.12 Z" fill-rule="evenodd" fill="#000000" />
</svg>