<svg xmlns="http://www.w3.org/2000/svg" viewBox="0 0 48 48">
  <path id="peopleOutline" d="M 19,16 l 0.1,-1.01 0.29,-0.94 0.46,-0.85 0.61,-0.74 0.74,-0.61 0.85,-0.46 0.94,-0.29 1.01,-0.1 1.01,0.1 0.94,0.29 0.85,0.46 0.74,0.61 0.61,0.74 0.46,0.85 0.29,0.94 0.1,1.01 0,2 -0.1,1.01 -0.29,0.94 -0.46,0.85 -0.61,0.74 -0.74,0.61 -0.85,0.46 -0.94,0.29 -1.01,0.1 -1.01,-0.1 -0.94,-0.29 -0.85,-0.46 -0.74,-0.61 -0.61,-0.74 -0.46,-0.85 -0.29,-0.94 -0.1,-1.01 0,-2 Z M 23.56,26 l 0.88,0 1.17,0 1.05,0.01 0.93,0.03 0.83,0.05 1.48,0.21 1.28,0.46 0.94,0.58 0.83,0.71 0.71,0.83 0.58,0.94 0.46,1.28 0.21,1.48 0.05,0.83 0.03,0.93 0.01,1.05 0,1.17 0,1.44 -2,0 0,-1.4 0,-1.19 -0.01,-1.02 -0.02,-0.88 -0.05,-0.77 -0.07,-0.64 -0.1,-0.54 -0.29,-0.83 -0.42,-0.67 -0.5,-0.6 -0.6,-0.5 -0.67,-0.41 -0.83,-0.3 -0.54,-0.1 -0.64,-0.07 -0.77,-0.05 -0.88,-0.02 -1.02,-0.01 -1.19,0 -0.8,0 -1.19,0 -1.02,0.01 -0.88,0.02 -0.77,0.05 -0.64,0.07 -0.54,0.1 -0.83,0.3 -0.67,0.41 -0.6,0.5 -0.5,0.6 -0.41,0.67 -0.3,0.83 -0.1,0.54 -0.07,0.64 -0.05,0.77 -0.02,0.88 -0.01,1.02 0,1.19 0,1.4 -2,0 0,-1.44 0,-1.17 0.01,-1.05 0.03,-0.93 0.05,-0.83 0.21,-1.48 0.46,-1.28 0.58,-0.94 0.71,-0.83 0.83,-0.71 0.94,-0.58 1.28,-0.46 1.48,-0.21 0.83,-0.05 0.93,-0.03 1.05,-0.01 1.17,0 Z M 8,18 l 0.08,-0.81 0.23,-0.75 0.37,-0.68 0.49,-0.59 0.59,-0.49 0.68,-0.37 0.75,-0.23 0.81,-0.08 0.81,0.08 0.75,0.23 0.68,0.37 0.59,0.49 0.49,0.59 0.37,0.68 0.23,0.75 0.08,0.81 0,1 -0.08,0.81 -0.23,0.75 -0.37,0.68 -0.49,0.59 -0.59,0.49 -0.68,0.37 -0.75,0.23 -0.81,0.08 -0.81,-0.08 -0.75,-0.23 -0.68,-0.37 -0.59,-0.49 -0.49,-0.59 -0.37,-0.68 -0.23,-0.75 -0.08,-0.81 0,-1 Z M 32,18 l 0.08,-0.81 0.23,-0.75 0.37,-0.68 0.49,-0.59 0.59,-0.49 0.68,-0.37 0.75,-0.23 0.81,-0.08 0.81,0.08 0.75,0.23 0.68,0.37 0.59,0.49 0.49,0.59 0.37,0.68 0.23,0.75 0.08,0.81 0,1 -0.08,0.81 -0.23,0.75 -0.37,0.68 -0.49,0.59 -0.59,0.49 -0.68,0.37 -0.75,0.23 -0.81,0.08 -0.81,-0.08 -0.75,-0.23 -0.68,-0.37 -0.59,-0.49 -0.49,-0.59 -0.37,-0.68 -0.23,-0.75 -0.08,-0.81 0,-1 Z M 24,13 l -0.6,0.06 -0.57,0.18 -0.51,0.27 -0.44,0.37 -0.37,0.44 -0.27,0.51 -0.18,0.57 -0.06,0.6 0,2 0.06,0.6 0.18,0.57 0.27,0.51 0.37,0.44 0.44,0.37 0.51,0.27 0.57,0.18 0.6,0.06 0.6,-0.06 0.57,-0.18 0.51,-0.27 0.44,-0.37 0.37,-0.44 0.27,-0.51 0.18,-0.57 0.06,-0.6 0,-2 -0.06,-0.6 -0.18,-0.57 -0.27,-0.51 -0.37,-0.44 -0.44,-0.37 -0.51,-0.27 -0.57,-0.18 -0.6,-0.06 Z M 11.96,24 l 0.08,0 1.22,0.01 1,0.03 0.86,0.11 0.79,0.23 -0.76,1.85 -0.41,-0.12 -0.62,-0.07 -0.9,-0.04 -1.22,0 -1.22,0 -0.9,0.04 -0.62,0.07 -0.41,0.12 -0.52,0.28 -0.45,0.37 -0.37,0.45 -0.28,0.52 -0.12,0.41 -0.07,0.62 -0.04,0.9 0,1.22 0,4 -2,0 0,-4.04 0.01,-1.22 0.03,-1 0.11,-0.86 0.23,-0.79 0.47,-0.87 0.61,-0.76 0.76,-0.61 0.87,-0.47 0.79,-0.23 0.86,-0.11 1,-0.03 1.22,-0.01 Z M 35.96,24 l 0.08,0 1.22,0.01 1,0.03 0.86,0.11 0.79,0.23 0.87,0.47 0.76,0.61 0.61,0.76 0.47,0.87 0.23,0.79 0.11,0.86 0.03,1 0.01,1.22 0,4.04 -2,0 0,-4 0,-1.22 -0.04,-0.9 -0.07,-0.62 -0.12,-0.41 -0.28,-0.52 -0.37,-0.45 -0.45,-0.37 -0.52,-0.28 -0.41,-0.12 -0.62,-0.07 -0.9,-0.04 -1.22,0 -1.22,0 -0.9,0.04 -0.62,0.07 -0.41,0.12 -0.76,-1.85 0.79,-0.23 0.86,-0.11 1,-0.03 1.22,-0.01 Z M 12,16 l -0.78,0.16 -0.63,0.43 -0.43,0.63 -0.16,0.78 0,1 0.16,0.78 0.43,0.63 0.63,0.43 0.78,0.16 0.78,-0.16 0.63,-0.43 0.43,-0.63 0.16,-0.78 0,-1 -0.16,-0.78 -0.43,-0.63 -0.63,-0.43 -0.78,-0.16 Z M 36,16 l -0.78,0.16 -0.63,0.43 -0.43,0.63 -0.16,0.78 0,1 0.16,0.78 0.43,0.63 0.63,0.43 0.78,0.16 0.78,-0.16 0.63,-0.43 0.43,-0.63 0.16,-0.78 0,-1 -0.16,-0.78 -0.43,-0.63 -0.63,-0.43 -0.78,-0.16 Z M 19,33 l 0,5 -2,0 0,-5 2,0 Z M 29,38 l 0,-5 2,0 0,5 -2,0 Z" fill-rule="evenodd" fill="#000000" />
</svg>