<svg xmlns="http://www.w3.org/2000/svg" viewBox="0 0 48 48">
  <path id="personOutline" d="M 13.19,27.94 l 2.66,-0.63 2.7,-0.45 2.72,-0.27 2.73,-0.09 2.73,0.09 2.72,0.27 2.7,0.45 2.66,0.63 1.1,0.4 1,0.56 0.88,0.71 0.76,0.84 0.61,0.94 0.46,1.04 0.28,1.11 0.1,1.16 0,1.73 -0.12,0.68 -0.33,0.58 -0.5,0.44 -0.64,0.25 -2.01,0.38 -1.93,0.33 -3.64,0.51 -3.46,0.3 -3.36,0.1 -3.36,-0.1 -3.46,-0.31 -3.65,-0.51 -1.93,-0.33 -2.01,-0.37 -0.64,-0.25 -0.51,-0.44 -0.33,-0.59 -0.12,-0.68 0,-1.72 0.1,-1.16 0.28,-1.11 0.46,-1.04 0.61,-0.94 0.76,-0.84 0.88,-0.71 1,-0.56 1.1,-0.4 Z M 38,36.42 l 0,-1.72 -0.07,-0.83 -0.2,-0.79 -0.33,-0.74 -0.44,-0.67 -0.54,-0.6 -0.63,-0.51 -0.72,-0.4 -0.78,-0.29 -2.54,-0.6 -2.56,-0.43 -2.59,-0.25 -2.6,-0.09 -2.6,0.09 -2.59,0.25 -2.56,0.43 -2.54,0.6 -0.78,0.29 -0.72,0.4 -0.63,0.51 -0.54,0.6 -0.44,0.67 -0.33,0.74 -0.2,0.79 -0.07,0.83 0,1.72 1.96,0.37 1.88,0.32 3.55,0.49 3.36,0.3 3.26,0.1 3.26,-0.1 3.36,-0.29 3.54,-0.5 1.87,-0.32 1.96,-0.37 Z M 24,24 l -1.61,-0.16 -1.5,-0.47 -1.36,-0.74 -1.19,-0.97 -0.97,-1.19 -0.74,-1.36 -0.47,-1.5 -0.16,-1.61 0.16,-1.61 0.47,-1.5 0.74,-1.36 0.97,-1.19 1.19,-0.97 1.36,-0.74 1.5,-0.47 1.61,-0.16 1.61,0.16 1.5,0.47 1.36,0.74 1.19,0.97 0.97,1.19 0.74,1.36 0.47,1.5 0.16,1.61 -0.16,1.61 -0.47,1.5 -0.74,1.36 -0.97,1.19 -1.19,0.97 -1.36,0.74 -1.5,0.47 -1.61,0.16 Z M 24,22 l 1.21,-0.12 1.13,-0.35 1.01,-0.55 0.89,-0.74 0.74,-0.89 0.55,-1.01 0.35,-1.13 0.12,-1.21 -0.12,-1.21 -0.35,-1.13 -0.55,-1.01 -0.74,-0.89 -0.89,-0.74 -1.01,-0.55 -1.13,-0.35 -1.21,-0.12 -1.21,0.12 -1.13,0.35 -1.01,0.55 -0.89,0.74 -0.74,0.89 -0.55,1.01 -0.35,1.13 -0.12,1.21 0.12,1.21 0.35,1.13 0.55,1.01 0.74,0.89 0.89,0.74 1.01,0.55 1.13,0.35 1.21,0.12 Z" fill-rule="evenodd" fill="#000000" />
</svg>