<svg xmlns="http://www.w3.org/2000/svg" viewBox="0 0 24 24">
  <path id="personSolid" d="M 4,18.64 l 0.11,-1.14 0.33,-1.06 0.52,-0.95 0.69,-0.84 0.84,-0.69 0.95,-0.52 1.06,-0.33 1.14,-0.11 4.72,0 1.14,0.11 1.06,0.33 0.95,0.52 0.84,0.69 0.69,0.84 0.52,0.95 0.33,1.06 0.11,1.14 -0.09,0.54 -0.26,0.46 -0.4,0.35 -0.5,0.21 -1.83,0.35 -1.71,0.25 -1.63,0.15 -1.58,0.05 -1.58,-0.05 -1.63,-0.15 -1.71,-0.25 -1.83,-0.35 -0.5,-0.21 -0.4,-0.35 -0.26,-0.46 -0.09,-0.54 Z M 16,7 l -0.08,0.81 -0.23,0.75 -0.37,0.68 -0.49,0.59 -0.59,0.49 -0.68,0.37 -0.75,0.23 -0.81,0.08 -0.81,-0.08 -0.75,-0.23 -0.68,-0.37 -0.59,-0.49 -0.49,-0.59 -0.37,-0.68 -0.23,-0.75 -0.08,-0.81 0.08,-0.81 0.23,-0.75 0.37,-0.68 0.49,-0.59 0.59,-0.49 0.68,-0.37 0.75,-0.23 0.81,-0.08 0.81,0.08 0.75,0.23 0.68,0.37 0.59,0.49 0.49,0.59 0.37,0.68 0.23,0.75 0.08,0.81 Z" fill-rule="evenodd" fill="#000000" />
</svg>