<svg xmlns="http://www.w3.org/2000/svg" viewBox="0 0 24 24">
  <path id="person" d="M 4,18.52 l 0.13,-1.31 0.38,-1.23 0.6,-1.1 0.8,-0.97 0.97,-0.8 1.1,-0.6 1.23,-0.38 1.31,-0.13 2.96,0 1.31,0.13 1.23,0.38 1.1,0.6 0.97,0.8 0.8,0.97 0.6,1.1 0.38,1.23 0.13,1.31 -0.09,0.54 -0.25,0.46 -0.39,0.36 -0.5,0.21 -1.84,0.4 -1.71,0.28 -1.63,0.17 -1.59,0.06 -1.59,-0.06 -1.63,-0.17 -1.72,-0.28 -1.84,-0.4 -0.49,-0.21 -0.39,-0.36 -0.25,-0.46 -0.09,-0.54 Z M 12,11 l -0.81,-0.08 -0.75,-0.23 -0.68,-0.37 -0.59,-0.49 -0.49,-0.59 -0.37,-0.68 -0.23,-0.75 -0.08,-0.81 0.08,-0.81 0.23,-0.75 0.37,-0.68 0.49,-0.59 0.59,-0.49 0.68,-0.37 0.75,-0.23 0.81,-0.08 0.81,0.08 0.75,0.23 0.68,0.37 0.59,0.49 0.49,0.59 0.37,0.68 0.23,0.75 0.08,0.81 -0.08,0.81 -0.23,0.75 -0.37,0.68 -0.49,0.59 -0.59,0.49 -0.68,0.37 -0.75,0.23 -0.81,0.08 Z M 10.52,14 l -0.87,0.08 -0.82,0.25 -0.75,0.38 -0.65,0.52 -0.56,0.62 -0.43,0.72 -0.29,0.79 -0.14,0.86 1.62,0.34 1.52,0.25 1.44,0.14 1.41,0.05 1.4,-0.05 1.45,-0.15 1.51,-0.24 1.63,-0.34 -0.14,-0.86 -0.29,-0.79 -0.43,-0.72 -0.56,-0.62 -0.65,-0.52 -0.75,-0.38 -0.82,-0.25 -0.87,-0.08 -2.96,0 Z" fill-rule="evenodd" fill="#000000" />
</svg>