<svg xmlns="http://www.w3.org/2000/svg" viewBox="0 0 24 24">
  <path id="photo" d="M 20,5 l 0.79,0.16 0.63,0.44 0.43,0.64 0.15,0.76 0,10 -0.15,0.76 -0.43,0.64 -0.63,0.44 -0.79,0.16 -16,0 -0.79,-0.16 -0.63,-0.44 -0.43,-0.64 -0.15,-0.76 0,-10 0.15,-0.76 0.43,-0.64 0.63,-0.44 0.79,-0.16 3,0 0.91,-0.91 0.65,-0.44 0.77,-0.15 5.34,0 0.77,0.15 0.65,0.44 0.91,0.91 3,0 Z M 16,12 l -0.08,-0.81 -0.23,-0.75 -0.37,-0.68 -0.49,-0.59 -0.59,-0.49 -0.68,-0.37 -0.75,-0.23 -0.81,-0.08 -0.81,0.08 -0.75,0.23 -0.68,0.37 -0.59,0.49 -0.49,0.59 -0.37,0.68 -0.23,0.75 -0.08,0.81 0.08,0.81 0.23,0.75 0.37,0.68 0.49,0.59 0.59,0.49 0.68,0.37 0.75,0.23 0.81,0.08 0.81,-0.08 0.75,-0.23 0.68,-0.37 0.59,-0.49 0.49,-0.59 0.37,-0.68 0.23,-0.75 0.08,-0.81 Z M 17,9 l 0.39,-0.08 0.32,-0.21 0.21,-0.32 0.08,-0.39 -0.08,-0.39 -0.21,-0.32 -0.32,-0.21 -0.39,-0.08 -0.39,0.08 -0.32,0.21 -0.21,0.32 -0.08,0.39 0.08,0.39 0.21,0.32 0.32,0.21 0.39,0.08 Z" fill-rule="evenodd" fill="#000000" />
</svg>