<svg xmlns="http://www.w3.org/2000/svg" viewBox="0 0 24 24">
  <path id="picture" d="M 18,4 l 0.78,0.16 0.63,0.43 0.43,0.63 0.16,0.78 0,12 -0.16,0.78 -0.43,0.63 -0.63,0.43 -0.78,0.16 -12,0 -0.78,-0.16 -0.63,-0.43 -0.43,-0.63 -0.16,-0.78 0,-12 0.16,-0.78 0.43,-0.63 0.63,-0.43 0.78,-0.16 12,0 Z M 6,5.5 l -0.35,0.15 -0.15,0.35 0,9.32 0.11,0.31 0.25,0.17 0.3,-0.01 0.26,-0.2 2.57,-3.95 0.17,-0.08 0.16,0.08 2.77,3.9 0.18,0.08 0.16,-0.1 0.21,-0.39 0.01,-0.13 -1.12,-3.51 0.03,-0.16 2.13,-2.67 0.16,-0.07 0.15,0.07 3.61,4.46 0.27,0.17 0.29,-0.02 0.23,-0.17 0.1,-0.3 0,-6.8 -0.15,-0.35 -0.35,-0.15 -12,0 Z M 11.21,16.99 l -1.45,-0.09 -1.43,0.11 -1.39,0.32 -1.33,0.5 -0.11,0.17 0.15,0.35 0.35,0.15 12,0 0.35,-0.15 0.15,-0.35 0,-0.42 -0.05,-0.21 -0.14,-0.14 -0.19,-0.07 -0.21,0.04 -0.09,0.03 -1.97,0.22 -1.97,-0.1 -2.67,-0.36 Z M 8.5,7 l 0.58,0.12 0.48,0.32 0.32,0.48 0.12,0.58 -0.12,0.58 -0.32,0.48 -0.48,0.32 -0.58,0.12 -0.58,-0.12 -0.48,-0.32 -0.32,-0.48 -0.12,-0.58 0.12,-0.58 0.32,-0.48 0.48,-0.32 0.58,-0.12 Z" fill-rule="evenodd" fill="#000000" />
</svg>