<svg xmlns="http://www.w3.org/2000/svg" viewBox="0 0 24 24">
  <path id="placeholder" d="M 3,12 l 0,-1.32 0.01,-1.16 0.04,-1.02 0.07,-0.88 0.11,-0.77 0.17,-0.68 0.24,-0.59 0.31,-0.52 0.51,-0.6 0.6,-0.51 0.52,-0.31 0.59,-0.24 0.68,-0.17 0.77,-0.11 0.88,-0.07 1.02,-0.04 1.16,-0.01 1.32,0 1.32,0 1.16,0.01 1.02,0.04 0.88,0.07 0.77,0.11 0.68,0.17 0.59,0.24 0.52,0.31 0.6,0.51 0.51,0.6 0.31,0.52 0.24,0.59 0.17,0.68 0.11,0.77 0.07,0.88 0.04,1.02 0.01,1.16 0,1.32 0,1.32 -0.01,1.16 -0.04,1.02 -0.07,0.88 -0.11,0.77 -0.17,0.68 -0.24,0.59 -0.31,0.52 -0.51,0.6 -0.6,0.51 -0.52,0.31 -0.59,0.24 -0.68,0.17 -0.77,0.11 -0.88,0.07 -1.02,0.04 -1.16,0.01 -1.32,0 -1.32,0 -1.16,-0.01 -1.02,-0.04 -0.88,-0.07 -0.77,-0.11 -0.68,-0.17 -0.59,-0.24 -0.52,-0.31 -0.6,-0.51 -0.51,-0.6 -0.31,-0.52 -0.24,-0.59 -0.17,-0.68 -0.11,-0.77 -0.07,-0.88 -0.04,-1.02 -0.01,-1.16 0,-1.32 Z M 12,19.5 l 1.32,0 1.13,-0.01 0.96,-0.04 0.81,-0.06 0.65,-0.1 0.5,-0.12 0.69,-0.34 0.77,-0.77 0.25,-0.44 0.19,-0.62 -0.43,0 -1.81,-2.51 -0.11,-0.17 -0.1,-0.21 0.01,0.2 0.01,0.18 0,2.51 -1.1,0 0,-4.91 1.01,0 1.77,2.49 0.1,0.16 0.11,0.2 -0.02,-0.19 -0.01,-0.18 0,-2.48 0.8,0 0,-0.09 0,-1.32 -0.01,-1.13 -0.04,-0.96 -0.06,-0.81 -0.1,-0.65 -0.12,-0.5 -0.34,-0.69 -0.77,-0.77 -0.69,-0.34 -0.5,-0.12 -0.65,-0.1 -0.81,-0.06 -0.96,-0.04 -1.13,-0.01 -1.32,0 -1.32,0 -1.13,0.01 -0.96,0.04 -0.81,0.06 -0.65,0.1 -0.5,0.12 -0.69,0.34 -0.77,0.77 -0.34,0.69 -0.12,0.5 -0.1,0.65 -0.06,0.81 -0.04,0.96 -0.01,1.13 0,1.32 0,0.09 1.07,0 0,4.91 -0.84,0 0.19,0.62 0.25,0.44 0.77,0.77 0.69,0.34 0.5,0.12 0.65,0.1 0.81,0.06 0.96,0.04 1.13,0.01 1.32,0 Z M 12.67,17.08 l -0.55,-0.05 -0.46,-0.17 -0.38,-0.26 -0.3,-0.33 -0.37,-0.82 -0.12,-0.91 0.12,-0.9 0.37,-0.82 0.3,-0.33 0.38,-0.26 0.46,-0.17 0.55,-0.06 0.55,0.06 0.46,0.17 0.38,0.26 0.29,0.33 0.38,0.82 0.12,0.9 -0.12,0.91 -0.38,0.82 -0.29,0.33 -0.38,0.26 -0.46,0.17 -0.55,0.05 Z M 13.5,10.86 l -0.38,-0.26 -0.3,-0.33 -0.37,-0.82 -0.12,-0.91 0.12,-0.9 0.37,-0.82 0.3,-0.33 0.38,-0.26 0.46,-0.17 0.55,-0.06 0.55,0.06 0.46,0.17 0.38,0.26 0.29,0.33 0.38,0.82 0.12,0.9 -0.12,0.91 -0.38,0.82 -0.29,0.33 -0.38,0.26 -0.46,0.17 -0.55,0.05 -0.55,-0.05 -0.46,-0.17 Z M 7.37,6.09 l 1,0 1.78,2.49 0.1,0.16 0.1,0.2 -0.02,-0.19 0,-0.18 0,-2.48 1.1,0 0,4.91 -0.96,0 -1.82,-2.51 -0.1,-0.17 -0.11,-0.21 0.02,0.2 0,0.18 0,2.51 -1.09,0 0,-4.91 Z M 7.2,16.85 l -0.36,-0.26 -0.28,-0.33 -0.35,-0.81 -0.11,-0.91 0.11,-0.86 0.35,-0.82 0.28,-0.35 0.36,-0.27 0.45,-0.18 0.53,-0.06 0.44,0.05 0.39,0.13 0.61,0.45 0.38,0.58 -0.99,0.44 -0.25,-0.31 -0.26,-0.2 -0.32,-0.07 -0.44,0.14 -0.29,0.35 -0.15,0.48 -0.05,0.5 0.05,0.52 0.17,0.47 0.29,0.34 0.42,0.13 0.45,-0.17 0.36,-0.46 1.01,0.38 -0.43,0.69 -0.6,0.46 -0.37,0.13 -0.42,0.04 -0.54,-0.06 -0.44,-0.16 Z M 12.67,16.01 l 0.48,-0.14 0.31,-0.35 0.18,-0.48 0.06,-0.5 -0.06,-0.51 -0.17,-0.48 -0.31,-0.35 -0.49,-0.13 -0.49,0.14 -0.32,0.36 -0.17,0.48 -0.05,0.49 0.05,0.51 0.17,0.48 0.32,0.35 0.49,0.13 Z M 14.99,9.87 l 0.31,-0.35 0.18,-0.48 0.06,-0.5 -0.06,-0.51 -0.17,-0.48 -0.31,-0.35 -0.49,-0.13 -0.49,0.14 -0.32,0.36 -0.17,0.48 -0.05,0.49 0.05,0.51 0.17,0.48 0.32,0.35 0.49,0.13 0.48,-0.14 Z" fill-rule="evenodd" fill="#000000" />
</svg>