<svg xmlns="http://www.w3.org/2000/svg" viewBox="0 0 24 24">
  <path id="playlist" d="M 3,11 l 18,0 0,3 -18,0 0,-3 Z M 3,17 l 18,0 0,3 -18,0 0,-3 Z M 11,5 l 0.08,-0.39 0.21,-0.32 0.32,-0.21 0.39,-0.08 8,0 0.39,0.08 0.32,0.21 0.21,0.32 0.08,0.39 0,2 -0.08,0.39 -0.21,0.32 -0.32,0.21 -0.39,0.08 -8,0 -0.39,-0.08 -0.32,-0.21 -0.21,-0.32 -0.08,-0.39 0,-2 Z M 3,8.24 l 0,-4.48 0.06,-0.24 0.16,-0.18 0.23,-0.08 0.25,0.04 5.23,2.24 0.22,0.19 0.08,0.27 -0.08,0.27 -0.22,0.19 -5.23,2.24 -0.25,0.04 -0.23,-0.08 -0.16,-0.18 -0.06,-0.24 Z" fill-rule="evenodd" fill="#000000" />
</svg>