<svg xmlns="http://www.w3.org/2000/svg" viewBox="0 0 24 24">
  <path id="playRound" d="M 12,22 l -1.02,-0.05 -1,-0.15 -0.95,-0.25 -0.92,-0.34 -1.7,-0.92 -1.48,-1.22 -1.22,-1.48 -0.92,-1.7 -0.34,-0.92 -0.25,-0.95 -0.15,-1 -0.05,-1.02 0.05,-1.02 0.15,-1 0.25,-0.95 0.34,-0.92 0.92,-1.7 1.22,-1.48 1.48,-1.22 1.7,-0.92 0.92,-0.34 0.95,-0.25 1,-0.15 1.02,-0.05 1.02,0.05 1,0.15 0.95,0.25 0.92,0.34 1.7,0.92 1.48,1.22 1.22,1.48 0.92,1.7 0.34,0.92 0.25,0.95 0.15,1 0.05,1.02 -0.05,1.02 -0.15,1 -0.25,0.95 -0.34,0.92 -0.92,1.7 -1.22,1.48 -1.48,1.22 -1.7,0.92 -0.92,0.34 -0.95,0.25 -1,0.15 -1.02,0.05 Z M 9.48,6.81 l -0.51,-0.13 -0.48,0.14 -0.35,0.36 -0.14,0.5 0,8.64 0.14,0.5 0.35,0.36 0.48,0.14 0.51,-0.13 7.91,-4.31 0.39,-0.38 0.13,-0.5 -0.13,-0.5 -0.39,-0.38 -7.91,-4.31 Z" fill-rule="evenodd" fill="#000000" />
</svg>