<svg xmlns="http://www.w3.org/2000/svg" viewBox="0 0 24 24">
  <path id="playPause" d="M 10,6.74 l 0.14,-0.51 0.36,-0.36 0.49,-0.13 0.51,0.14 9.02,5.26 0.37,0.37 0.13,0.49 -0.13,0.49 -0.37,0.37 -9.02,5.26 -0.51,0.14 -0.49,-0.13 -0.36,-0.36 -0.14,-0.51 0,-10.52 Z M 4,7 l 0.08,-0.39 0.21,-0.32 0.32,-0.21 0.39,-0.08 1.5,0 0.39,0.08 0.32,0.21 0.21,0.32 0.08,0.39 0,10 -0.08,0.39 -0.21,0.32 -0.32,0.21 -0.39,0.08 -1.5,0 -0.39,-0.08 -0.32,-0.21 -0.21,-0.32 -0.08,-0.39 0,-10 Z" fill-rule="evenodd" fill="#000000" />
</svg>