<svg xmlns="http://www.w3.org/2000/svg" viewBox="0 0 48 48">
  <path id="playChainOutline" d="M 19.87,25.99 l 0.14,0.66 0.02,0.65 -0.08,0.65 -0.19,0.62 -0.28,0.59 -0.39,0.54 -0.47,0.47 -0.57,0.4 -4.87,2.81 -0.74,0.33 -0.76,0.17 -0.76,0.02 -0.75,-0.12 -0.72,-0.27 -0.65,-0.4 -0.57,-0.53 -0.47,-0.65 -0.14,-0.24 -0.33,-0.74 -0.18,-0.76 -0.02,-0.76 0.13,-0.75 0.27,-0.72 0.4,-0.65 0.53,-0.57 0.65,-0.47 2.18,-1.26 -0.14,-0.66 -0.02,-0.65 0.08,-0.65 0.19,-0.62 0.28,-0.59 0.39,-0.54 0.47,-0.47 0.57,-0.4 4.87,-2.81 0.74,-0.33 0.76,-0.17 0.76,-0.02 0.75,0.12 0.72,0.27 0.65,0.4 0.57,0.53 0.47,0.65 0.14,0.24 0.33,0.74 0.18,0.76 0.02,0.76 -0.13,0.75 -0.27,0.72 -0.4,0.65 -0.53,0.57 -0.65,0.47 -2.18,1.26 Z M 19.57,9.02 l 20.19,12.43 0.62,0.5 0.45,0.62 0.26,0.7 0.09,0.73 -0.09,0.73 -0.26,0.7 -0.45,0.62 -0.62,0.51 -20.19,12.42 -0.77,0.34 -0.79,0.11 -0.76,-0.1 -0.71,-0.29 -0.62,-0.45 -0.49,-0.61 -0.32,-0.73 -0.11,-0.83 0,-2.34 2,-1.21 0,3.55 0.14,0.52 0.37,0.35 0.49,0.13 0.52,-0.15 20.19,-12.42 0.35,-0.37 0.12,-0.48 -0.12,-0.48 -0.35,-0.37 -20.19,-12.42 -0.52,-0.15 -0.49,0.13 -0.37,0.35 -0.14,0.52 0,4.84 -2,1.16 0,-6 0.11,-0.83 0.32,-0.73 0.49,-0.6 0.62,-0.46 0.71,-0.29 0.76,-0.1 0.79,0.11 0.77,0.34 Z M 13.09,23.95 l 0.85,-0.5 0.64,-0.3 0.66,-0.17 0.68,-0.06 0.66,0.05 0.64,0.17 0.61,0.27 0.56,0.37 0.5,0.47 2.16,-1.25 0.59,-0.52 0.33,-0.67 0.05,-0.76 -0.25,-0.74 -0.14,-0.24 -0.52,-0.59 -0.67,-0.33 -0.76,-0.05 -0.74,0.25 -4.87,2.81 -0.44,0.34 -0.31,0.43 -0.18,0.49 -0.05,0.53 Z M 12.23,26.75 l -2.16,1.25 -0.59,0.52 -0.33,0.67 -0.05,0.76 0.25,0.74 0.14,0.24 0.52,0.59 0.67,0.33 0.76,0.05 0.74,-0.25 4.87,-2.81 0.44,-0.34 0.31,-0.43 0.18,-0.49 0.05,-0.53 -0.85,0.5 -0.64,0.3 -0.66,0.17 -0.67,0.06 -0.67,-0.05 -0.64,-0.17 -0.61,-0.27 -0.56,-0.37 -0.5,-0.47 Z M 14.04,25.71 l 0.49,0.26 0.55,0.11 0.56,-0.05 0.54,-0.21 0.9,-0.53 -0.49,-0.26 -0.55,-0.11 -0.56,0.05 -0.54,0.21 -0.9,0.53 Z" fill-rule="evenodd" fill="#000000" />
</svg>