<svg xmlns="http://www.w3.org/2000/svg" viewBox="0 0 24 24">
  <path id="plusGarage2" d="M 4.39,17.12 l -0.23,0.12 -0.11,0.09 -0.05,0.17 0.16,0.2 0.47,0.19 0.74,0.17 0.97,0.15 1.19,0.12 1.36,0.09 1.5,0.06 1.61,0.02 1.61,-0.02 1.5,-0.06 1.36,-0.09 1.19,-0.12 0.97,-0.15 0.74,-0.17 0.47,-0.19 0.16,-0.2 -0.05,-0.17 -0.11,-0.09 -0.23,-0.12 -0.04,-0.09 0.08,-0.06 0.57,0.12 0.43,0.13 0.26,0.14 0.09,0.14 0,3 -0.18,0.2 -0.53,0.19 -0.83,0.17 -1.1,0.15 -1.33,0.12 -1.53,0.09 -1.69,0.06 -1.81,0.02 -1.81,-0.02 -1.69,-0.06 -1.53,-0.09 -1.33,-0.12 -1.1,-0.15 -0.83,-0.17 -0.53,-0.19 -0.18,-0.2 0,-3 0.09,-0.14 0.26,-0.14 0.43,-0.13 0.57,-0.12 0.08,0.06 -0.04,0.09 Z M 16,8.5 l 0,2.5 2.5,0 0.35,0.15 0.15,0.35 0,2 -0.15,0.35 -0.35,0.15 -2.5,0 0,2.5 -0.15,0.35 -0.35,0.15 -2,0 -0.35,-0.15 -0.15,-0.35 0,-2.5 -2.5,0 -0.35,-0.15 -0.15,-0.35 0,-2 0.15,-0.35 0.35,-0.15 2.5,0 0,-2.5 0.15,-0.35 0.35,-0.15 2,0 0.35,0.15 0.15,0.35 Z M 11.83,5.06 l -7.94,2.8 -0.34,0 -0.26,-0.22 -0.27,-0.48 -0.04,-0.4 0.27,-0.31 7.89,-3.5 0.86,-0.18 0.86,0.18 7.89,3.5 0.27,0.31 -0.04,0.4 -0.27,0.48 -0.26,0.22 -0.34,0 -7.94,-2.8 -0.34,0 Z M 5,9.78 l 0.06,-0.33 0.15,-0.28 0.24,-0.23 0.31,-0.13 2.62,-0.65 0.23,-0.01 0.2,0.1 0.14,0.17 0.05,0.22 0,0.56 -0.07,0.26 -0.2,0.18 -0.46,0.25 -0.2,0.18 -0.07,0.26 0,4.36 0.07,0.26 0.21,0.19 0.44,0.22 0.21,0.19 0.07,0.26 0,0.67 -0.15,0.36 -0.37,0.14 -1.01,-0.05 -0.85,-0.07 -0.68,-0.08 -0.51,-0.1 -0.32,-0.24 -0.11,-0.41 0,-6.25 Z" fill-rule="evenodd" fill="#000000" />
</svg>