<svg xmlns="http://www.w3.org/2000/svg" viewBox="0 0 24 24">
  <path id="plusGarage1" d="M 5,9.87 l 0.06,-0.36 0.18,-0.3 0.28,-0.22 0.34,-0.11 6,-0.86 0.28,0 6,0.86 0.34,0.11 0.28,0.22 0.18,0.3 0.06,0.36 -0.05,0.2 -0.14,0.15 -0.19,0.08 -0.21,-0.02 -0.93,-0.21 -0.98,-0.07 -1.29,0.13 -1.2,0.37 -1.1,0.58 -0.95,0.77 -0.36,0.15 -3.1,0 -0.35,0.15 -0.15,0.35 0,6 -0.15,0.35 -0.35,0.15 -1.5,0 -0.39,-0.08 -0.32,-0.21 -0.21,-0.32 -0.08,-0.39 0,-8.13 Z M 18,12.5 l 0,2.5 2.5,0 0.35,0.15 0.15,0.35 0,2 -0.15,0.35 -0.35,0.15 -2.5,0 0,2.5 -0.15,0.35 -0.35,0.15 -2,0 -0.35,-0.15 -0.15,-0.35 0,-2.5 -2.5,0 -0.35,-0.15 -0.15,-0.35 0,-2 0.15,-0.35 0.35,-0.15 2.5,0 0,-2.5 0.15,-0.35 0.35,-0.15 2,0 0.35,0.15 0.15,0.35 Z M 11.88,5.06 l -7.94,2.8 -0.34,0 -0.26,-0.22 -0.27,-0.48 -0.04,-0.4 0.27,-0.31 7.88,-3.5 0.87,-0.18 0.86,0.18 7.88,3.5 0.28,0.31 -0.04,0.4 -0.28,0.48 -0.26,0.22 -0.34,0 -7.94,-2.8 -0.33,0 Z" fill-rule="evenodd" fill="#000000" />
</svg>