<svg xmlns="http://www.w3.org/2000/svg" viewBox="0 0 24 24">
  <path id="plusSet" d="M 6,3 l 12,0 0.78,0.16 0.63,0.43 0.43,0.63 0.16,0.78 0,6 -0.16,0.78 -0.43,0.63 -0.63,0.43 -0.78,0.16 -12,0 -0.78,-0.16 -0.63,-0.43 -0.43,-0.63 -0.16,-0.78 0,-6 0.16,-0.78 0.43,-0.63 0.63,-0.43 0.78,-0.16 Z M 8,16.47 l 0,0.41 -0.07,0.5 -0.2,0.45 -0.32,0.38 -0.41,0.29 1.5,3 -2,0 -1,-2.68 -1,0.18 0,2.5 -1.5,0 0,-7.5 2.53,0 0.5,0.05 0.46,0.14 0.79,0.53 0.53,0.79 0.14,0.46 0.05,0.5 Z M 11,4 l 0,3 -3,0 0,2 3,0 0,3 2,0 0,-3 3,0 0,-2 -3,0 0,-3 -2,0 Z M 9,14.25 l 0.07,-0.18 0.18,-0.07 5,0 0.18,0.07 0.07,0.18 0,1 -0.07,0.18 -0.18,0.07 -3.75,0 0,1.5 3,0 0,1.5 -3,0 0,1.5 3.75,0 0.18,0.07 0.07,0.18 0,1 -0.07,0.18 -0.18,0.07 -5,0 -0.18,-0.07 -0.07,-0.18 0,-7 Z M 18.61,15.54 l -0.22,-0.04 -0.59,0 -0.31,0.06 -0.25,0.18 -0.18,0.25 -0.06,0.31 0.05,0.29 0.15,0.24 0.21,0.18 0.28,0.09 1.09,0.15 0.69,0.23 0.54,0.44 0.36,0.61 0.13,0.7 0,0.27 -0.16,0.78 -0.43,0.63 -0.63,0.43 -0.78,0.16 -1.23,0 -0.75,-0.09 -0.71,-0.25 -0.23,-0.21 -0.08,-0.3 0,-0.61 0.16,-0.32 0.35,-0.05 0.99,0.33 1.2,0 0.31,-0.06 0.25,-0.18 0.18,-0.25 0.06,-0.31 -0.05,-0.29 -0.15,-0.24 -0.21,-0.18 -0.28,-0.09 -1.09,-0.15 -0.69,-0.23 -0.54,-0.44 -0.36,-0.61 -0.13,-0.7 0,-0.27 0.16,-0.78 0.43,-0.63 0.63,-0.43 0.78,-0.16 0.73,0 0.75,0.09 0.71,0.25 0.23,0.21 0.08,0.3 0,0.61 -0.16,0.32 -0.35,0.05 -0.88,-0.29 Z M 4.5,17.5 l 0.48,0 0.51,-0.06 0.47,-0.17 0.03,-0.01 0.37,-0.35 0.14,-0.48 -0.07,-0.36 -0.2,-0.3 -0.3,-0.2 -0.36,-0.07 -1.07,0 0,2 Z" fill-rule="evenodd" fill="#000000" />
</svg>