<svg xmlns="http://www.w3.org/2000/svg" viewBox="0 0 24 24">
  <path id="plusGarage4" d="M 13.83,8.25 l 0.12,0.09 0.05,0.16 0,2.3 -0.06,0.14 -0.14,0.06 -1.3,0 -0.35,0.15 -0.15,0.35 0,1 0.15,0.35 0.35,0.15 1.3,0 0.14,0.06 0.06,0.14 0,1.3 0.15,0.35 0.35,0.15 1,0 0.35,-0.15 0.15,-0.35 0,-1.3 0.06,-0.14 0.14,-0.06 1.3,0 0.35,-0.15 0.15,-0.35 0,-1 -0.15,-0.35 -0.35,-0.15 -1.3,0 -0.14,-0.06 -0.06,-0.14 0,-2.01 0.07,-0.15 0.16,-0.05 1.91,0.28 0.34,0.11 0.28,0.22 0.18,0.3 0.06,0.36 0,6.14 -0.13,0.33 -0.37,0.25 -0.55,0.18 -0.7,0.12 -1.62,0.1 -1.63,0.02 -4,0 -1.62,-0.02 -1.63,-0.1 -0.7,-0.12 -0.55,-0.18 -0.37,-0.25 -0.13,-0.33 0,-6.14 0.06,-0.36 0.18,-0.3 0.28,-0.22 0.34,-0.11 6,-0.86 0.28,0 1.69,0.24 Z M 4.39,17.12 l -0.23,0.12 -0.11,0.09 -0.05,0.17 0.16,0.2 0.47,0.19 0.74,0.17 0.97,0.15 1.19,0.12 1.36,0.09 1.5,0.06 1.61,0.02 1.61,-0.02 1.5,-0.06 1.36,-0.09 1.19,-0.12 0.97,-0.15 0.74,-0.17 0.47,-0.19 0.16,-0.2 -0.05,-0.17 -0.11,-0.09 -0.23,-0.12 -0.04,-0.09 0.08,-0.06 0.57,0.12 0.43,0.13 0.26,0.14 0.09,0.14 0,3 -0.18,0.2 -0.53,0.19 -0.83,0.17 -1.1,0.15 -1.33,0.12 -1.53,0.09 -1.69,0.06 -1.81,0.02 -1.81,-0.02 -1.69,-0.06 -1.53,-0.09 -1.33,-0.12 -1.1,-0.15 -0.83,-0.17 -0.53,-0.19 -0.18,-0.2 0,-3 0.09,-0.14 0.26,-0.14 0.43,-0.13 0.57,-0.12 0.08,0.06 -0.04,0.09 Z M 11.83,5.06 l -7.94,2.8 -0.34,0 -0.26,-0.22 -0.27,-0.48 -0.04,-0.4 0.27,-0.31 7.89,-3.5 0.86,-0.18 0.86,0.18 7.89,3.5 0.27,0.31 -0.04,0.4 -0.27,0.48 -0.26,0.22 -0.34,0 -7.94,-2.8 -0.34,0 Z" fill-rule="evenodd" fill="#000000" />
</svg>