<svg xmlns="http://www.w3.org/2000/svg" viewBox="0 0 48 48">
  <path id="POITimeL" d="M 24,10 l 2.35,0.17 2.29,0.52 2.2,0.84 2.05,1.17 1.86,1.45 1.62,1.7 1.35,1.92 1.06,2.11 0.74,2.24 0.4,2.31 0.06,2.35 -0.29,2.34 -0.63,2.28 -0.95,2.14 -1.25,1.99 -1.55,1.78 -1.78,1.55 -1.99,1.25 -2.14,0.95 -2.28,0.63 -2.34,0.29 -2.35,-0.06 -2.31,-0.4 -2.24,-0.74 -2.11,-1.06 -1.92,-1.35 -1.7,-1.62 -1.45,-1.86 -1.16,-2.01 -0.85,-2.14 -0.51,-2.28 -0.14,-1.21 -0.04,-1.25 0.11,-2.39 0.41,-2.3 0.35,-1.16 0.46,-1.17 0.6,-1.22 0.73,-1.27 0.55,-0.58 0.7,-0.31 0.76,-0.03 0.75,0.28 0.57,0.54 0.32,0.7 0.03,0.77 -0.28,0.74 -0.58,0.99 -0.46,0.94 -0.63,1.78 -0.31,1.78 -0.08,1.91 0.13,1.85 0.38,1.71 0.64,1.59 0.87,1.52 1.09,1.39 1.28,1.22 1.44,1.01 1.58,0.8 1.68,0.55 1.73,0.3 1.76,0.05 1.76,-0.22 1.71,-0.47 1.61,-0.72 1.48,-0.94 1.35,-1.15 1.15,-1.35 0.94,-1.48 0.72,-1.61 0.47,-1.71 0.22,-1.76 -0.05,-1.76 -0.3,-1.73 -0.55,-1.68 -0.8,-1.58 -1.01,-1.44 -1.22,-1.28 -1.39,-1.09 -1.1,-0.65 -1.14,-0.52 -1.2,-0.41 -1.23,-0.27 0,1.83 -0.16,0.78 -0.43,0.63 -0.63,0.43 -0.78,0.16 -0.78,-0.16 -0.63,-0.43 -0.43,-0.63 -0.16,-0.78 0,-4 0.15,-0.77 0.44,-0.64 0.64,-0.44 0.77,-0.15 Z M 19,5 l 0.16,-0.78 0.43,-0.63 0.63,-0.43 0.78,-0.16 6,0 0.78,0.16 0.63,0.43 0.43,0.63 0.16,0.78 0,1 -0.16,0.78 -0.43,0.63 -0.63,0.43 -0.78,0.16 -6,0 -0.78,-0.16 -0.63,-0.43 -0.43,-0.63 -0.16,-0.78 0,-1 Z M 19.41,18.59 l 6,6 0.44,0.66 0.15,0.75 -0.15,0.75 -0.44,0.66 -0.66,0.44 -0.75,0.15 -0.75,-0.15 -0.66,-0.44 -6,-6 -0.44,-0.66 -0.15,-0.75 0.15,-0.75 0.44,-0.66 0.66,-0.44 0.75,-0.15 0.75,0.15 0.66,0.44 Z M 37.15,9.27 l 2.03,1.65 0.5,0.61 0.22,0.74 -0.07,0.76 -0.37,0.7 -0.07,0.09 -0.62,0.51 -0.73,0.22 -0.77,-0.07 -0.7,-0.37 -2.02,-1.66 -0.5,-0.61 -0.23,-0.73 0.07,-0.77 0.38,-0.7 0.07,-0.09 0.61,-0.5 0.74,-0.23 0.76,0.07 0.7,0.38 Z" fill-rule="evenodd" fill="#000000" />
</svg>