<svg xmlns="http://www.w3.org/2000/svg" viewBox="0 0 24 24">
  <path id="positionLights" d="M 13,10.54 l 0.12,-0.48 0.33,-0.36 1.46,-0.97 0.37,-0.12 0.35,0.08 0.27,0.25 0.1,0.37 0,0.21 0.16,0.37 0.36,0.13 0.34,-0.15 0.14,-0.35 0,-1.02 0.15,-0.35 0.35,-0.15 0.35,0.15 0.15,0.35 0,6.5 -0.08,0.39 -0.21,0.32 -0.32,0.21 -0.39,0.08 -0.7,0 -0.55,-0.17 -2.3,-1.53 -0.33,-0.36 -0.12,-0.48 0,-2.92 Z M 8,9.87 l 0.15,-0.53 0.38,-0.35 0.5,-0.12 0.52,0.17 1,0.66 0.33,0.36 0.12,0.48 0,2.92 -0.12,0.48 -0.33,0.36 -2.3,1.53 -0.55,0.17 -0.7,0 -0.39,-0.08 -0.32,-0.21 -0.21,-0.32 -0.08,-0.39 0,-6.5 0.15,-0.35 0.35,-0.15 0.35,0.15 0.15,0.35 0,2 0.15,0.35 0.35,0.15 0.35,-0.15 0.15,-0.35 0,-0.63 Z M 21.4,12.88 l -1.5,-0.3 -0.29,-0.17 -0.11,-0.32 0,-0.18 0.11,-0.32 0.29,-0.17 1.5,-0.3 0.23,0.01 0.19,0.09 0.13,0.17 0.05,0.22 0,0.78 -0.05,0.22 -0.13,0.17 -0.19,0.09 -0.23,0.01 Z M 2.6,12.88 l -0.23,-0.01 -0.19,-0.09 -0.13,-0.17 -0.05,-0.22 0,-0.78 0.05,-0.22 0.13,-0.17 0.19,-0.09 0.23,-0.01 1.5,0.3 0.29,0.17 0.11,0.32 0,0.18 -0.11,0.32 -0.29,0.17 -1.5,0.3 Z M 2.76,16.55 l -0.26,0.07 -0.25,-0.07 -0.18,-0.17 -0.07,-0.26 0,-0.34 0.06,-0.24 0.18,-0.19 1.5,-0.9 0.26,-0.07 0.25,0.07 0.18,0.17 0.07,0.26 0,0.34 -0.06,0.24 -0.18,0.19 -1.5,0.9 Z M 2.24,8.65 l -0.18,-0.19 -0.06,-0.24 0,-0.34 0.07,-0.26 0.18,-0.17 0.25,-0.07 0.26,0.07 1.5,0.9 0.18,0.19 0.06,0.24 0,0.34 -0.07,0.26 -0.18,0.17 -0.25,0.07 -0.26,-0.07 -1.5,-0.9 Z M 21.24,16.55 l -1.5,-0.9 -0.18,-0.19 -0.06,-0.24 0,-0.34 0.07,-0.26 0.18,-0.17 0.25,-0.07 0.26,0.07 1.5,0.9 0.18,0.19 0.06,0.24 0,0.34 -0.07,0.26 -0.18,0.17 -0.25,0.07 -0.26,-0.07 Z M 21.76,8.65 l -1.5,0.9 -0.26,0.07 -0.25,-0.07 -0.18,-0.17 -0.07,-0.26 0,-0.34 0.06,-0.24 0.18,-0.19 1.5,-0.9 0.26,-0.07 0.25,0.07 0.18,0.17 0.07,0.26 0,0.34 -0.06,0.24 -0.18,0.19 Z" fill-rule="evenodd" fill="#000000" />
</svg>