<svg xmlns="http://www.w3.org/2000/svg" viewBox="0 0 24 24">
  <path id="powerGauge04" d="M 12.88,15.88 l -0.48,-7.55 0.98,-0.21 2.67,7.07 0.65,0.34 0.55,0.49 0.42,0.62 0.26,0.73 0.07,0.6 -0.05,0.59 -0.16,0.55 -0.27,0.52 -0.35,0.45 -0.44,0.38 -0.52,0.28 -0.58,0.19 -0.6,0.07 -0.59,-0.05 -0.55,-0.16 -0.52,-0.27 -0.45,-0.35 -0.38,-0.44 -0.28,-0.52 -0.19,-0.58 -0.07,-0.77 0.13,-0.73 0.3,-0.68 0.45,-0.57 Z M 9.62,8.65 l -1.22,0.73 -1.09,0.84 -0.96,0.94 -0.81,1.03 -0.66,1.11 -0.48,1.18 -0.3,1.23 -0.1,1.29 0.06,1.01 0.19,0.99 -2.07,0 -0.18,-2 0.12,-1.62 0.33,-1.56 0.55,-1.49 0.74,-1.41 0.92,-1.31 1.09,-1.2 1.23,-1.09 1.38,-0.95 1.26,2.28 Z M 15.86,4.04 l 1.14,-0.04 2.1,0.13 2.01,0.37 -1.03,2.92 -1.75,-0.31 -1.83,-0.11 -0.53,0.01 -0.11,-2.97 Z M 10.98,8.02 l -1.3,-2.37 2.25,-0.89 2.44,-0.56 0.11,2.93 -1.81,0.35 -1.69,0.54 Z" fill-rule="evenodd" fill="#000000" />
</svg>