<svg xmlns="http://www.w3.org/2000/svg" viewBox="0 0 24 24">
  <path id="powerGauge05" d="M 14.37,4.2 l 0.11,2.93 -2.16,0.44 -1.99,0.73 -1.78,0.98 -1.54,1.21 -1.26,1.41 -0.95,1.57 -0.59,1.71 -0.16,0.9 -0.05,0.92 0.06,1.01 0.19,0.99 -2.07,0 -0.18,-2 0.06,-1.19 0.18,-1.15 0.3,-1.13 0.4,-1.08 0.51,-1.04 0.61,-0.99 0.7,-0.94 0.79,-0.88 0.87,-0.81 0.95,-0.75 1.01,-0.68 1.09,-0.61 1.15,-0.52 1.2,-0.43 1.25,-0.35 1.3,-0.25 Z M 14.15,15.12 l 3.18,-6.86 0.96,0.28 -1.03,7.49 0.42,0.61 0.25,0.69 0.07,0.75 -0.12,0.76 -0.23,0.57 -0.32,0.49 -0.41,0.41 -0.48,0.32 -0.53,0.23 -0.56,0.12 -0.59,0.01 -0.6,-0.11 -0.57,-0.23 -0.49,-0.32 -0.41,-0.41 -0.32,-0.48 -0.23,-0.53 -0.12,-0.57 -0.01,-0.58 0.11,-0.6 0.31,-0.71 0.46,-0.59 0.59,-0.45 0.67,-0.29 Z M 15.97,7.01 l -0.11,-2.97 1.14,-0.04 2.1,0.13 2.01,0.37 -1.03,2.92 -1.75,-0.31 -1.83,-0.11 -0.53,0.01 Z" fill-rule="evenodd" fill="#000000" />
</svg>