<svg xmlns="http://www.w3.org/2000/svg" viewBox="0 0 24 24">
  <path id="powerGauge03" d="M 12.14,17.09 l -3.89,-6.48 0.77,-0.64 5.62,5.05 0.74,0 0.71,0.19 0.66,0.35 0.56,0.53 0.34,0.5 0.22,0.55 0.12,0.57 0,0.58 -0.11,0.56 -0.22,0.54 -0.32,0.49 -0.43,0.43 -0.5,0.34 -0.55,0.23 -0.57,0.11 -0.58,0 -0.56,-0.11 -0.54,-0.22 -0.49,-0.32 -0.43,-0.43 -0.42,-0.65 -0.22,-0.72 -0.04,-0.73 0.13,-0.72 Z M 9.68,5.65 l 1.68,-0.7 1.79,-0.52 1.89,-0.32 1.96,-0.11 2.1,0.13 2.01,0.37 -1.03,2.92 -1.75,-0.31 -1.83,-0.11 -1.46,0.07 -1.42,0.2 -1.35,0.32 -1.29,0.43 -1.3,-2.37 Z M 5.85,11.76 l -0.78,1.19 -0.59,1.28 -0.36,1.36 -0.12,1.41 0.06,1.01 0.19,0.99 -2.07,0 -0.18,-2 0.14,-1.78 0.41,-1.71 0.65,-1.62 0.89,-1.51 1.76,1.38 Z M 5.01,9.19 l 1.55,-1.52 1.8,-1.3 1.26,2.28 -1.48,0.92 -1.29,1.07 -1.84,-1.45 Z" fill-rule="evenodd" fill="#000000" />
</svg>