<svg xmlns="http://www.w3.org/2000/svg" viewBox="0 0 24 24">
  <path id="powerGauge01" d="M 20.08,7.42 l -1.75,-0.31 -1.83,-0.11 -2.13,0.14 -2.01,0.42 -1.87,0.67 -1.69,0.89 -1.48,1.09 -1.25,1.28 -0.98,1.42 -0.68,1.55 -2.02,-0.43 0.34,-1.06 0.44,-1.02 0.54,-0.98 0.62,-0.93 1.49,-1.71 1.79,-1.47 2.05,-1.2 2.28,-0.9 2.46,-0.56 1.28,-0.15 1.32,-0.05 2.1,0.13 2.01,0.37 -1.03,2.92 Z M 18,18.14 l -0.09,0.6 -0.2,0.56 -0.3,0.49 -0.39,0.43 -0.46,0.34 -0.52,0.26 -0.57,0.14 -0.61,0.04 -0.76,-0.14 -0.68,-0.31 -0.57,-0.46 -0.45,-0.59 -7.41,-1.47 0.04,-1 7.52,-0.77 0.5,-0.54 0.61,-0.41 0.71,-0.24 0.77,-0.07 0.6,0.09 0.56,0.2 0.49,0.3 0.43,0.39 0.34,0.46 0.26,0.52 0.14,0.57 0.04,0.61 Z M 4.07,15.93 l -0.07,1.07 0.06,1.01 0.19,0.99 -2.07,0 -0.18,-2 0.1,-1.5 1.97,0.43 Z" fill-rule="evenodd" fill="#000000" />
</svg>