<svg xmlns="http://www.w3.org/2000/svg" viewBox="0 0 24 24">
  <path id="powerOnOff" d="M 5,12 l 0.07,-1.03 0.22,-0.98 0.35,-0.92 0.47,-0.86 0.59,-0.78 0.68,-0.69 0.77,-0.59 0.85,-0.48 0,2.33 -0.82,0.78 -0.64,0.95 -0.4,1.08 -0.14,1.19 0.1,1.01 0.29,0.94 0.46,0.85 0.61,0.74 0.74,0.61 0.85,0.46 0.94,0.29 1.01,0.1 1.01,-0.1 0.94,-0.29 0.85,-0.46 0.74,-0.61 0.61,-0.74 0.46,-0.85 0.29,-0.94 0.1,-1.01 -0.14,-1.19 -0.4,-1.08 -0.64,-0.95 -0.82,-0.78 0,-2.33 0.85,0.48 0.77,0.59 0.68,0.69 0.59,0.78 0.47,0.86 0.35,0.92 0.22,0.98 0.07,1.03 -0.14,1.41 -0.41,1.31 -0.65,1.19 -0.85,1.04 -1.04,0.85 -1.19,0.65 -1.31,0.41 -1.41,0.14 -1.41,-0.14 -1.31,-0.41 -1.19,-0.65 -1.04,-0.85 -0.85,-1.04 -0.65,-1.19 -0.41,-1.31 -0.14,-1.41 Z M 13,4 l 0,7 -2,0 0,-7 2,0 Z" fill-rule="evenodd" fill="#000000" />
</svg>