<svg xmlns="http://www.w3.org/2000/svg" viewBox="0 0 24 24">
  <path id="powerGauge02" d="M 20.08,7.42 l -1.75,-0.31 -1.83,-0.11 -1.44,0.07 -1.38,0.19 -1.34,0.31 -1.26,0.42 -1.19,0.52 -1.11,0.63 -1.02,0.71 -0.91,0.79 -1.84,-1.45 1.1,-1.13 1.23,-1.01 1.37,-0.89 1.48,-0.75 1.58,-0.6 1.67,-0.44 1.75,-0.28 1.81,-0.09 2.1,0.13 2.01,0.37 -1.03,2.92 Z M 12.02,18.33 l -6.19,-4.34 0.44,-0.89 7.19,2.32 0.68,-0.29 0.72,-0.13 0.75,0.06 0.73,0.25 0.51,0.33 0.43,0.41 0.33,0.47 0.23,0.53 0.13,0.56 0.02,0.58 -0.09,0.58 -0.21,0.57 -0.33,0.51 -0.41,0.43 -0.47,0.33 -0.53,0.23 -0.56,0.13 -0.58,0.02 -0.58,-0.09 -0.57,-0.21 -0.64,-0.43 -0.5,-0.56 -0.33,-0.66 -0.17,-0.71 Z M 5.85,11.76 l -0.84,1.3 -0.6,1.4 -2.02,-0.43 0.69,-1.89 1.01,-1.76 1.76,1.38 Z M 2.1,15.5 l 1.97,0.43 -0.07,1.07 0.06,1.01 0.19,0.99 -2.07,0 -0.18,-2 0.1,-1.5 Z" fill-rule="evenodd" fill="#000000" />
</svg>