<svg xmlns="http://www.w3.org/2000/svg" viewBox="0 0 24 24">
  <path id="prevTrack" d="M 21,7.62 l 0,8.76 -0.13,0.5 -0.34,0.35 -0.47,0.15 -0.51,-0.1 -8.76,-4.39 -0.42,-0.38 -0.13,-0.51 0.13,-0.51 0.42,-0.38 8.76,-4.39 0.51,-0.1 0.47,0.15 0.34,0.35 0.13,0.5 Z M 8,7 l 0,10 -0.08,0.39 -0.21,0.32 -0.32,0.21 -0.39,0.08 -2,0 -0.39,-0.08 -0.32,-0.21 -0.21,-0.32 -0.08,-0.39 0,-10 0.08,-0.39 0.21,-0.32 0.32,-0.21 0.39,-0.08 2,0 0.39,0.08 0.32,0.21 0.21,0.32 0.08,0.39 Z" fill-rule="evenodd" fill="#000000" />
</svg>