<svg xmlns="http://www.w3.org/2000/svg" viewBox="0 0 48 48">
  <path id="proximitySensorsOutline" d="M 28,34 l 12,0 0,9 -12,0 0,-9 Z M 17,26 l 0,10 -9,0 0,-10 9,0 Z M 15,7 l 2,0 0,4 2.35,0 0.27,0.22 0.01,0 0.01,0.01 0.07,0.05 0.29,0.21 0.45,0.29 0.58,0.34 1.44,0.62 0.76,0.19 0.77,0.07 0.77,-0.07 0.76,-0.19 1.44,-0.62 0.58,-0.34 0.45,-0.29 0.29,-0.21 0.07,-0.05 0.02,-0.01 0.27,-0.22 2.35,0 0,-4 2,0 0,6 -3.67,0 -0.19,0.14 -0.54,0.34 -0.69,0.4 -0.82,0.4 -0.95,0.36 -1.04,0.26 -1.1,0.1 -1.1,-0.1 -1.04,-0.26 -0.95,-0.36 -0.82,-0.4 -0.69,-0.4 -0.54,-0.34 -0.19,-0.14 -3.67,0 0,-6 Z M 38,36 l -8,0 0,5 8,0 0,-5 Z M 24,23 l 2.09,-0.14 2.05,-0.41 1.98,-0.67 1.88,-0.92 1,1.73 -2.12,1.04 -2.22,0.76 -2.31,0.46 -2.35,0.15 -2.35,-0.15 -2.31,-0.46 -2.22,-0.76 -2.12,-1.04 1,-1.73 1.88,0.92 1.98,0.67 2.05,0.41 2.09,0.14 Z M 20.17,27.65 l 1.85,0.26 1.85,0.09 1.85,-0.07 1.83,-0.23 1.81,-0.39 1.76,-0.56 1.72,-0.7 1.66,-0.86 1,1.73 -1.82,0.94 -1.88,0.78 -1.93,0.6 -1.98,0.43 -2.01,0.25 -2.02,0.08 -2.03,-0.1 -2.03,-0.29 0.37,-1.96 Z M 24,18 l 1.44,-0.09 1.41,-0.28 1.36,-0.47 1.29,-0.63 1,1.73 -1.53,0.75 -1.61,0.55 -1.66,0.33 -1.7,0.11 -1.7,-0.11 -1.66,-0.33 -1.61,-0.55 -1.53,-0.75 1,-1.73 1.29,0.63 1.36,0.47 1.41,0.28 1.44,0.09 Z M 20,9 l 0,-2 8,0 0,2 -8,0 Z M 25.98,37.94 l 0.12,1.99 -2.01,0.07 -2.02,-0.06 -2.01,-0.18 -1.99,-0.3 0.36,-1.97 1.87,0.29 1.89,0.17 1.89,0.05 1.9,-0.06 Z M 19.3,32.57 l 3.09,0.38 3.12,0.01 0.12,1.99 -1.68,0.05 -1.68,-0.05 -1.67,-0.16 -1.67,-0.25 0.37,-1.97 Z M 37,29.52 l 1,1.73 -1.99,1.04 -0.85,-1.8 1.84,-0.97 Z" fill-rule="evenodd" fill="#000000" />
</svg>