<svg xmlns="http://www.w3.org/2000/svg" viewBox="0 0 24 24">
  <path id="psCircle" d="M 12,22 l -1.02,-0.05 -1,-0.15 -0.95,-0.25 -0.92,-0.34 -1.7,-0.92 -1.48,-1.22 -1.22,-1.48 -0.92,-1.7 -0.34,-0.92 -0.25,-0.95 -0.15,-1 -0.05,-1.02 0.05,-1.02 0.15,-1 0.25,-0.95 0.34,-0.92 0.92,-1.7 1.22,-1.48 1.48,-1.22 1.7,-0.92 0.92,-0.34 0.95,-0.25 1,-0.15 1.02,-0.05 1.02,0.05 1,0.15 0.95,0.25 0.92,0.34 1.7,0.92 1.48,1.22 1.22,1.48 0.92,1.7 0.34,0.92 0.25,0.95 0.15,1 0.05,1.02 -0.05,1.02 -0.15,1 -0.25,0.95 -0.34,0.92 -0.92,1.7 -1.22,1.48 -1.48,1.22 -1.7,0.92 -0.92,0.34 -0.95,0.25 -1,0.15 -1.02,0.05 Z M 18,12 l -0.12,-1.21 -0.35,-1.13 -0.55,-1.01 -0.74,-0.89 -0.89,-0.74 -1.01,-0.55 -1.13,-0.35 -1.21,-0.12 -1.21,0.12 -1.13,0.35 -1.01,0.55 -0.89,0.74 -0.74,0.89 -0.55,1.01 -0.35,1.13 -0.12,1.21 0.12,1.21 0.35,1.13 0.55,1.01 0.74,0.89 0.89,0.74 1.01,0.55 1.13,0.35 1.21,0.12 1.21,-0.12 1.13,-0.35 1.01,-0.55 0.89,-0.74 0.74,-0.89 0.55,-1.01 0.35,-1.13 0.12,-1.21 Z M 16,12 l -0.08,0.81 -0.23,0.75 -0.37,0.68 -0.49,0.59 -0.59,0.49 -0.68,0.37 -0.75,0.23 -0.81,0.08 -0.81,-0.08 -0.75,-0.23 -0.68,-0.37 -0.59,-0.49 -0.49,-0.59 -0.37,-0.68 -0.23,-0.75 -0.08,-0.81 0.08,-0.81 0.23,-0.75 0.37,-0.68 0.49,-0.59 0.59,-0.49 0.68,-0.37 0.75,-0.23 0.81,-0.08 0.81,0.08 0.75,0.23 0.68,0.37 0.59,0.49 0.49,0.59 0.37,0.68 0.23,0.75 0.08,0.81 Z" fill-rule="evenodd" fill="#000000" />
</svg>