<svg xmlns="http://www.w3.org/2000/svg" viewBox="0 0 24 24">
  <path id="psCreate2" d="M 12,12 l 0.6,0.06 0.57,0.18 0.51,0.27 0.44,0.37 0.37,0.44 0.27,0.51 0.18,0.57 0.06,0.6 0,2 -0.06,0.6 -0.18,0.57 -0.27,0.51 -0.37,0.44 -0.44,0.37 -0.51,0.27 -0.57,0.18 -0.6,0.06 -0.6,-0.06 -0.57,-0.18 -0.51,-0.27 -0.44,-0.37 -0.37,-0.44 -0.27,-0.51 -0.18,-0.57 -0.06,-0.6 0,-2 0.06,-0.6 0.18,-0.57 0.27,-0.51 0.37,-0.44 0.44,-0.37 0.51,-0.27 0.57,-0.18 0.6,-0.06 Z M 13,3 l 0,6.5 -2,0 0,-6.5 2,0 Z M 4.77,6.28 l 1.73,-1 2.73,4.72 -1.73,1 -2.73,-4.72 Z M 17.5,5.28 l 1.73,1 -2.73,4.72 -1.73,-1 2.73,-4.72 Z" fill-rule="evenodd" fill="#000000" />
</svg>