<svg xmlns="http://www.w3.org/2000/svg" viewBox="0 0 24 24">
  <path id="psCross" d="M 12,22 l -1.02,-0.05 -1,-0.15 -0.95,-0.25 -0.92,-0.34 -1.7,-0.92 -1.48,-1.22 -1.22,-1.48 -0.92,-1.7 -0.34,-0.92 -0.25,-0.95 -0.15,-1 -0.05,-1.02 0.05,-1.02 0.15,-1 0.25,-0.95 0.34,-0.92 0.92,-1.7 1.22,-1.48 1.48,-1.22 1.7,-0.92 0.92,-0.34 0.95,-0.25 1,-0.15 1.02,-0.05 1.02,0.05 1,0.15 0.95,0.25 0.92,0.34 1.7,0.92 1.48,1.22 1.22,1.48 0.92,1.7 0.34,0.92 0.25,0.95 0.15,1 0.05,1.02 -0.05,1.02 -0.15,1 -0.25,0.95 -0.34,0.92 -0.92,1.7 -1.22,1.48 -1.48,1.22 -1.7,0.92 -0.92,0.34 -0.95,0.25 -1,0.15 -1.02,0.05 Z M 15.79,17.21 l 1.42,-1.42 -3.8,-3.79 3.8,-3.79 -1.42,-1.42 -3.79,3.8 -3.79,-3.8 -1.42,1.42 3.8,3.79 -3.8,3.79 1.42,1.42 3.79,-3.8 3.79,3.8 Z" fill-rule="evenodd" fill="#000000" />
</svg>