<svg xmlns="http://www.w3.org/2000/svg" viewBox="0 0 24 24">
  <path id="psDLeftRight" d="M 9.22,2.69 l 1.38,-0.25 1.4,-0.09 1.4,0.09 1.38,0.25 0.29,0.13 0.23,0.21 0.15,0.28 0.05,0.31 0,2.53 -0.01,0.18 -0.14,0.58 -0.31,0.52 -2.22,2.69 -0.08,0.08 -0.34,0.22 -0.4,0.08 -0.12,-0.01 -0.33,-0.09 -0.29,-0.2 -0.08,-0.08 -2.22,-2.69 -0.31,-0.52 -0.14,-0.58 -0.01,-0.18 0,-2.53 0.05,-0.31 0.15,-0.28 0.23,-0.21 0.29,-0.13 Z M 12,13.38 l 0.4,0.07 0.34,0.22 0.08,0.09 2.22,2.69 0.31,0.51 0.14,0.59 0.01,0.17 0,2.53 -0.05,0.32 -0.15,0.27 -0.23,0.21 -0.29,0.13 -1.38,0.26 -1.4,0.08 -1.4,-0.08 -1.38,-0.26 -0.29,-0.13 -0.23,-0.21 -0.15,-0.27 -0.05,-0.32 0,-2.53 0.01,-0.17 0.14,-0.59 0.31,-0.51 2.22,-2.69 0.08,-0.09 0.29,-0.19 0.33,-0.1 0.12,0 Z M 6.22,8.44 l 0.67,0.12 0.6,0.34 2.69,2.22 0.28,0.37 0.1,0.45 -0.1,0.45 -0.28,0.37 -2.69,2.22 -0.6,0.34 -0.67,0.12 -2.54,0 -0.31,-0.06 -0.27,-0.14 -0.22,-0.23 -0.12,-0.3 -0.26,-1.38 -0.09,-1.39 0.09,-1.4 0.26,-1.38 0.12,-0.29 0.22,-0.23 0.27,-0.15 0.31,-0.05 2.54,0 Z M 20.32,8.44 l 0.31,0.05 0.27,0.15 0.22,0.23 0.12,0.29 0.26,1.38 0.09,1.4 -0.09,1.39 -0.26,1.38 -0.12,0.3 -0.22,0.23 -0.27,0.14 -0.31,0.06 -2.54,0 -0.67,-0.12 -0.6,-0.34 -2.69,-2.22 -0.28,-0.37 -0.1,-0.45 0.1,-0.45 0.28,-0.37 2.69,-2.22 0.6,-0.34 0.67,-0.12 2.54,0 Z M 14,4.06 l -1,-0.16 -1,-0.05 -1,0.05 -1,0.16 0,2.09 0.12,0.32 1.88,2.28 1.88,-2.28 0.05,-0.07 0.07,-0.25 0,-2.09 Z M 10.12,17.4 l -0.12,0.32 0,2.1 1,0.15 1,0.05 1,-0.05 1,-0.15 0,-2.1 -0.07,-0.25 -0.05,-0.07 -1.88,-2.28 -1.88,2.28 Z" fill-rule="evenodd" fill="#000000" />
</svg>