<svg xmlns="http://www.w3.org/2000/svg" viewBox="0 0 24 24">
  <path id="psDUpDown" d="M 6.22,8.44 l 0.17,0.01 0.58,0.14 0.52,0.31 2.69,2.22 0.08,0.08 0.2,0.29 0.1,0.33 0,0.12 -0.08,0.4 -0.22,0.34 -0.08,0.08 -2.69,2.22 -0.52,0.31 -0.58,0.14 -0.17,0.01 -2.54,0 -0.31,-0.06 -0.27,-0.14 -0.22,-0.23 -0.12,-0.3 -0.26,-1.38 -0.09,-1.39 0.09,-1.4 0.26,-1.38 0.12,-0.29 0.22,-0.23 0.27,-0.15 0.31,-0.05 2.54,0 Z M 20.32,8.44 l 0.31,0.05 0.27,0.15 0.22,0.23 0.12,0.29 0.26,1.38 0.08,1.4 -0.08,1.39 -0.26,1.38 -0.12,0.3 -0.22,0.23 -0.27,0.14 -0.31,0.06 -2.54,0 -0.17,-0.01 -0.58,-0.14 -0.52,-0.31 -2.69,-2.22 -0.08,-0.08 -0.22,-0.34 -0.08,-0.4 0,-0.12 0.1,-0.33 0.2,-0.29 0.08,-0.08 2.69,-2.22 0.52,-0.31 0.58,-0.14 0.17,-0.01 2.54,0 Z M 9.22,2.69 l 1.38,-0.25 1.4,-0.09 1.4,0.09 1.38,0.25 0.29,0.13 0.23,0.21 0.15,0.28 0.05,0.31 0,2.54 -0.12,0.67 -0.34,0.6 -2.22,2.69 -0.37,0.28 -0.45,0.1 -0.45,-0.1 -0.37,-0.28 -2.22,-2.69 -0.34,-0.6 -0.12,-0.67 0,-2.54 0.05,-0.31 0.15,-0.28 0.23,-0.21 0.29,-0.13 Z M 12,13.38 l 0.45,0.1 0.37,0.28 2.22,2.69 0.34,0.59 0.12,0.68 0,2.53 -0.05,0.32 -0.15,0.27 -0.23,0.21 -0.29,0.13 -1.38,0.26 -1.4,0.08 -1.4,-0.08 -1.38,-0.26 -0.29,-0.13 -0.23,-0.21 -0.15,-0.27 -0.05,-0.32 0,-2.53 0.12,-0.68 0.34,-0.59 2.22,-2.69 0.37,-0.28 0.45,-0.1 Z M 4.12,9.94 l -0.15,0.99 -0.05,1.01 0.05,1 0.15,1 2.1,0 0.24,-0.07 0.08,-0.05 2.27,-1.88 -2.27,-1.89 -0.32,-0.11 -2.1,0 Z M 17.78,9.94 l -0.32,0.11 -2.27,1.89 2.27,1.88 0.08,0.05 0.24,0.07 2.1,0 0.15,-1 0.05,-1 -0.05,-1.01 -0.15,-0.99 -2.1,0 Z" fill-rule="evenodd" fill="#000000" />
</svg>