<svg xmlns="http://www.w3.org/2000/svg" viewBox="0 0 24 24">
  <path id="psDUp" d="M 20.32,15.44 l -2.54,0 -0.67,-0.12 -0.6,-0.34 -2.69,-2.22 -0.28,-0.37 -0.1,-0.45 0.1,-0.45 0.28,-0.37 2.69,-2.22 0.6,-0.34 0.67,-0.12 2.54,0 0.31,0.05 0.27,0.15 0.22,0.23 0.12,0.29 0.26,1.38 0.09,1.4 -0.09,1.39 -0.26,1.38 -0.12,0.3 -0.22,0.23 -0.27,0.14 -0.31,0.06 Z M 14.78,21.18 l -1.38,0.26 -1.4,0.08 -1.4,-0.08 -1.38,-0.26 -0.29,-0.13 -0.23,-0.21 -0.15,-0.27 -0.05,-0.31 0,-2.54 0.12,-0.68 0.34,-0.59 2.22,-2.69 0.37,-0.28 0.45,-0.1 0.45,0.1 0.37,0.28 2.22,2.69 0.34,0.59 0.12,0.68 0,2.54 -0.05,0.31 -0.15,0.27 -0.23,0.21 -0.29,0.13 Z M 3.68,15.44 l -0.31,-0.06 -0.27,-0.14 -0.22,-0.23 -0.12,-0.3 -0.26,-1.38 -0.09,-1.39 0.09,-1.4 0.26,-1.38 0.12,-0.29 0.22,-0.23 0.27,-0.15 0.31,-0.05 2.54,0 0.67,0.12 0.6,0.34 2.69,2.22 0.28,0.37 0.1,0.45 -0.1,0.45 -0.28,0.37 -2.69,2.22 -0.6,0.34 -0.67,0.12 -2.54,0 Z M 14.78,2.69 l 0.29,0.13 0.23,0.21 0.15,0.28 0.05,0.31 0,2.53 -0.12,0.68 -0.34,0.6 -2.22,2.68 -0.37,0.29 -0.45,0.1 -0.45,-0.1 -0.37,-0.29 -2.22,-2.68 -0.34,-0.6 -0.12,-0.68 0,-2.53 0.05,-0.31 0.15,-0.28 0.23,-0.21 0.29,-0.13 1.38,-0.25 1.4,-0.09 1.4,0.09 1.38,0.25 Z M 6.22,9.94 l -2.1,0 -0.15,0.99 -0.06,1.01 0.06,1 0.15,1 2.1,0 0.32,-0.12 2.27,-1.88 -2.27,-1.89 -0.32,-0.11 Z M 10,19.82 l 1,0.15 1,0.05 1,-0.05 1,-0.15 0,-2.1 -0.11,-0.32 -1.89,-2.28 -1.89,2.28 -0.11,0.32 0,2.1 Z M 17.78,9.94 l -0.32,0.11 -2.27,1.89 2.27,1.88 0.32,0.12 2.1,0 0.15,-1 0.06,-1 -0.06,-1.01 -0.15,-0.99 -2.1,0 Z" fill-rule="evenodd" fill="#000000" />
</svg>