<svg xmlns="http://www.w3.org/2000/svg" viewBox="0 0 24 24">
  <path id="psL2" d="M 4.33,13.98 l -1.03,-7.72 0.07,-0.86 0.41,-0.72 0.66,-0.49 0.41,-0.14 0.43,-0.05 13.44,0 0.43,0.05 0.41,0.14 0.66,0.49 0.41,0.72 0.07,0.86 -1.03,7.72 -0.23,1.11 -0.39,1.06 -0.53,0.97 -0.66,0.89 -0.79,0.79 -0.89,0.66 -0.98,0.54 -1.07,0.39 -1.06,0.23 -1.07,0.07 -1.07,-0.07 -1.06,-0.23 -1.07,-0.39 -0.98,-0.54 -0.89,-0.66 -0.78,-0.79 -0.67,-0.89 -0.53,-0.97 -0.39,-1.06 -0.23,-1.11 Z M 12.35,13.58 l -0.13,0.66 -0.04,0.77 4.82,0 0,-1.5 -2.99,0 0.28,-0.44 0.46,-0.39 0.76,-0.48 0.74,-0.53 0.51,-0.67 0.14,-0.45 0.04,-0.55 -0.07,-0.54 -0.2,-0.49 -0.32,-0.42 -0.45,-0.32 -0.56,-0.21 -0.67,-0.07 -0.72,0.1 -0.68,0.3 -0.57,0.48 -0.41,0.63 1.39,0.64 0.44,-0.5 0.59,-0.18 0.28,0.04 0.22,0.13 0.15,0.19 0.04,0.28 -0.12,0.4 -0.32,0.31 -0.42,0.26 -0.94,0.64 -0.75,0.82 -0.28,0.51 -0.22,0.58 Z M 7.01,8 l 0,7 4.52,0 0,-1.5 -3.02,0 0,-5.5 -1.5,0 Z" fill-rule="evenodd" fill="#000000" />
</svg>