<svg xmlns="http://www.w3.org/2000/svg" viewBox="0 0 24 24">
  <path id="psL3ButtonArrowDown" d="M 3,11.35 l 0.07,-0.65 0.2,-0.6 0.32,-0.53 0.41,-0.45 0.5,-0.36 0.56,-0.26 0.62,-0.13 0.65,0 2.25,0.25 3.42,0.19 3.42,-0.19 2.25,-0.25 0.65,0 0.62,0.13 0.56,0.26 0.5,0.36 0.41,0.45 0.32,0.53 0.2,0.6 0.07,0.65 0,5.24 -0.07,0.37 -0.19,0.31 -0.28,0.22 -0.36,0.1 -4.1,0.41 0,3 -8,0 0,-3 -4.1,-0.41 -0.36,-0.1 -0.28,-0.22 -0.19,-0.31 -0.07,-0.37 0,-5.24 Z M 11.84,7.36 l -3.34,-2.92 -0.07,-0.28 0.09,-0.11 0.15,-0.05 1.33,0 0,-2 4,0 0,2 1.33,0 0.15,0.05 0.09,0.11 -0.07,0.28 -3.34,2.92 -0.16,0.06 -0.16,-0.06 Z M 15.42,17.13 l 0.66,-0.06 0.58,-0.19 0.53,-0.31 0.42,-0.41 0.23,-0.49 0.08,-0.55 -0.08,-0.56 -0.21,-0.5 -0.39,-0.4 -0.49,-0.26 0.38,-0.3 0.28,-0.36 0.16,-0.43 0.06,-0.46 -0.07,-0.56 -0.22,-0.48 -0.35,-0.41 -0.46,-0.3 -0.54,-0.19 -0.61,-0.06 -0.71,0.1 -0.63,0.29 -0.53,0.46 -0.41,0.62 1.3,0.51 0.42,-0.46 0.55,-0.16 0.31,0.06 0.25,0.16 0.17,0.24 0.06,0.3 -0.06,0.34 -0.16,0.25 -0.45,0.22 -0.55,0.06 -0.29,0.02 0,1.2 0.35,0.03 0.59,0.07 0.52,0.21 0.21,0.25 0.07,0.31 -0.07,0.35 -0.19,0.26 -0.31,0.17 -0.4,0.05 -0.38,-0.05 -0.33,-0.15 -0.29,-0.26 -0.24,-0.36 -1.29,0.53 0.4,0.7 0.57,0.53 0.72,0.32 0.84,0.11 Z M 7.03,10 l 0,6.99 4.52,0 0,-1.5 -3.02,0 0,-5.49 -1.5,0 Z" fill-rule="evenodd" fill="#000000" />
</svg>