<svg xmlns="http://www.w3.org/2000/svg" viewBox="0 0 24 24">
  <path id="psLS" d="M 18,12 l -0.12,1.21 -0.35,1.13 -0.55,1.01 -0.74,0.89 -0.89,0.74 -1.01,0.55 -1.13,0.35 -1.21,0.12 -1.21,-0.12 -1.13,-0.35 -1.01,-0.55 -0.89,-0.74 -0.74,-0.89 -0.55,-1.01 -0.35,-1.13 -0.12,-1.21 0.12,-1.21 0.35,-1.13 0.55,-1.01 0.74,-0.89 0.89,-0.74 1.01,-0.55 1.13,-0.35 1.21,-0.12 1.21,0.12 1.13,0.35 1.01,0.55 0.89,0.74 0.74,0.89 0.55,1.01 0.35,1.13 0.12,1.21 Z M 10,8.51 l 0,6.99 4.52,0 0,-1.5 -3.02,0 0,-5.49 -1.5,0 Z M 22.28,12.19 l -2.87,2.46 -0.26,0.03 -0.15,-0.22 0,-4.92 0.15,-0.22 0.26,0.03 2.87,2.46 0.09,0.19 -0.09,0.19 Z M 1.72,12.19 l -0.09,-0.19 0.09,-0.19 2.87,-2.46 0.26,-0.03 0.15,0.22 0,4.92 -0.15,0.22 -0.26,-0.03 -2.87,-2.46 Z M 14.65,4.59 l 0.03,0.26 -0.22,0.15 -4.92,0 -0.22,-0.15 0.03,-0.26 2.46,-2.87 0.19,-0.09 0.19,0.09 2.46,2.87 Z M 14.65,19.41 l -2.46,2.87 -0.19,0.09 -0.19,-0.09 -2.46,-2.87 -0.03,-0.26 0.22,-0.15 4.92,0 0.22,0.15 -0.03,0.26 Z M 8,18.93 l -0.5,0.86 -0.98,-0.65 -0.88,-0.78 -0.78,-0.88 -0.65,-0.98 0.86,-0.5 0.58,0.87 0.69,0.79 0.79,0.69 0.87,0.58 Z M 16,18.93 l 0.87,-0.58 0.79,-0.69 0.69,-0.79 0.58,-0.87 0.86,0.5 -0.65,0.98 -0.78,0.88 -0.88,0.78 -0.98,0.65 -0.5,-0.86 Z M 8,5.07 l -0.87,0.58 -0.79,0.69 -0.69,0.79 -0.58,0.87 -0.86,-0.5 0.65,-0.98 0.78,-0.88 0.88,-0.78 0.98,-0.65 0.5,0.86 Z M 18.93,8 l -0.58,-0.87 -0.69,-0.79 -0.79,-0.69 -0.87,-0.58 0.5,-0.86 0.98,0.65 0.88,0.78 0.78,0.88 0.65,0.98 -0.86,0.5 Z" fill-rule="evenodd" fill="#000000" />
</svg>