<svg xmlns="http://www.w3.org/2000/svg" viewBox="0 0 24 24">
  <path id="psMenu2" d="M 12,12 l 0.6,0.06 0.57,0.18 0.51,0.27 0.44,0.37 0.37,0.44 0.27,0.51 0.18,0.57 0.06,0.6 0,2 -0.06,0.6 -0.18,0.57 -0.27,0.51 -0.37,0.44 -0.44,0.37 -0.51,0.27 -0.57,0.18 -0.6,0.06 -0.6,-0.06 -0.57,-0.18 -0.51,-0.27 -0.44,-0.37 -0.37,-0.44 -0.27,-0.51 -0.18,-0.57 -0.06,-0.6 0,-2 0.06,-0.6 0.18,-0.57 0.27,-0.51 0.37,-0.44 0.44,-0.37 0.51,-0.27 0.57,-0.18 0.6,-0.06 Z M 8,3 l 8,0 0,1.5 -8,0 0,-1.5 Z M 8,6 l 8,0 0,1.5 -8,0 0,-1.5 Z M 16,9 l 0,1.5 -8,0 0,-1.5 8,0 Z" fill-rule="evenodd" fill="#000000" />
</svg>