<svg xmlns="http://www.w3.org/2000/svg" viewBox="0 0 24 24">
  <path id="psR1" d="M 3.21,11.33 l 0.25,-0.93 0.39,-0.87 0.51,-0.79 0.63,-0.69 0.73,-0.59 0.81,-0.47 0.89,-0.34 0.95,-0.2 0.65,-0.08 2.98,-0.18 2.98,0.18 0.65,0.08 0.95,0.2 0.89,0.34 0.81,0.47 0.73,0.59 0.63,0.69 0.51,0.79 0.39,0.87 0.25,0.93 0.78,4.31 0.03,0.46 -0.07,0.43 -0.39,0.75 -0.67,0.52 -0.41,0.15 -0.46,0.05 -15.2,0 -0.46,-0.05 -0.41,-0.15 -0.67,-0.52 -0.39,-0.75 -0.07,-0.43 0.03,-0.46 0.78,-4.31 Z M 7.02,12.76 l 0,3.24 1.5,0 0,-2.49 0.62,0 1.88,2.49 1.88,0 -1.96,-2.6 0.63,-0.32 0.5,-0.49 0.33,-0.63 0.11,-0.72 -0.15,-0.82 -0.43,-0.69 -0.63,-0.49 -0.78,-0.24 -3.52,0 0.02,3.76 Z M 14.5,16 l 1.5,0 0,-6.99 -1.21,0 -0.27,0.43 -0.44,0.22 -0.58,0.06 0,1.3 1,0 0,4.98 Z M 8.51,12.01 l 0,-1.53 1.74,0 0.3,0.06 0.24,0.17 0.16,0.24 0.06,0.29 -0.06,0.3 -0.16,0.24 -0.24,0.17 -0.3,0.06 -1.74,0 Z" fill-rule="evenodd" fill="#000000" />
</svg>