<svg xmlns="http://www.w3.org/2000/svg" viewBox="0 0 24 24">
  <path id="psR3Button" d="M 6.33,6.37 l 2.25,0.25 3.42,0.19 3.42,-0.19 2.25,-0.25 0.65,-0.01 0.62,0.14 0.56,0.25 0.5,0.36 0.41,0.46 0.32,0.53 0.2,0.6 0.07,0.65 0,5.24 -0.07,0.37 -0.19,0.3 -0.28,0.22 -0.36,0.11 -4.1,0.41 0,3 -8,0 0,-3 -4.1,-0.41 -0.36,-0.11 -0.28,-0.22 -0.19,-0.3 -0.07,-0.37 0,-5.24 0.07,-0.65 0.2,-0.6 0.32,-0.53 0.41,-0.46 0.5,-0.36 0.56,-0.25 0.62,-0.14 0.65,0.01 Z M 6.51,15 l 1.5,0 0,-2.5 0.63,0 1.88,2.5 1.88,0 -1.97,-2.6 0.64,-0.32 0.5,-0.49 0.32,-0.63 0.12,-0.73 -0.16,-0.82 -0.42,-0.68 -0.63,-0.49 -0.79,-0.24 -3.51,0 0.01,3.75 0,3.25 Z M 13.96,14.7 l 0.72,0.32 0.83,0.11 0.66,-0.07 0.58,-0.19 0.54,-0.31 0.42,-0.4 0.23,-0.49 0.07,-0.55 -0.07,-0.56 -0.22,-0.5 -0.39,-0.4 -0.49,-0.26 0.38,-0.3 0.28,-0.37 0.17,-0.42 0.05,-0.46 -0.07,-0.56 -0.21,-0.49 -0.35,-0.4 -0.47,-0.3 -0.53,-0.19 -0.61,-0.06 -0.71,0.09 -0.64,0.29 -0.53,0.47 -0.4,0.62 1.3,0.51 0.41,-0.46 0.55,-0.16 0.32,0.05 0.25,0.17 0.17,0.24 0.05,0.3 -0.05,0.33 -0.16,0.26 -0.45,0.22 -0.55,0.06 -0.3,0.02 0,1.2 0.35,0.03 0.6,0.06 0.52,0.22 0.2,0.25 0.07,0.31 -0.06,0.35 -0.2,0.26 -0.31,0.17 -0.4,0.05 -0.37,-0.05 -0.34,-0.15 -0.28,-0.26 -0.25,-0.36 -1.28,0.52 0.4,0.71 0.57,0.53 Z M 8.01,11 l -0.01,-1.52 1.75,0 0.29,0.06 0.25,0.16 0.16,0.24 0.06,0.3 -0.06,0.3 -0.16,0.24 -0.24,0.16 -0.3,0.06 -1.74,0 Z" fill-rule="evenodd" fill="#000000" />
</svg>