<svg xmlns="http://www.w3.org/2000/svg" viewBox="0 0 24 24">
  <path id="psRSY" d="M 18,12 l -0.12,1.21 -0.35,1.13 -0.55,1.01 -0.74,0.89 -0.89,0.74 -1.01,0.55 -1.13,0.35 -1.21,0.12 -1.21,-0.12 -1.13,-0.35 -1.01,-0.55 -0.89,-0.74 -0.74,-0.89 -0.55,-1.01 -0.35,-1.13 -0.12,-1.21 0.12,-1.21 0.35,-1.13 0.55,-1.01 0.74,-0.89 0.89,-0.74 1.01,-0.55 1.13,-0.35 1.21,-0.12 1.21,0.12 1.13,0.35 1.01,0.55 0.89,0.74 0.74,0.89 0.55,1.01 0.35,1.13 0.12,1.21 Z M 9.5,15.5 l 1.5,0 0,-2.49 0.63,0 1.88,2.49 1.88,0 -1.96,-2.6 0.63,-0.32 0.5,-0.49 0.33,-0.63 0.11,-0.72 -0.16,-0.82 -0.42,-0.69 -0.63,-0.49 -0.78,-0.24 -3.52,0 0.01,3.76 0,3.24 Z M 4,12 l 0.07,1.05 0.2,1.02 0.34,0.99 0.46,0.94 0.58,0.87 0.69,0.79 0.79,0.69 0.87,0.58 -0.5,0.86 -0.98,-0.65 -0.88,-0.78 -0.78,-0.88 -0.65,-0.98 -0.53,-1.06 -0.37,-1.11 -0.23,-1.15 -0.08,-1.18 0.08,-1.18 0.23,-1.15 0.37,-1.11 0.53,-1.06 0.65,-0.98 0.78,-0.88 0.88,-0.78 0.98,-0.65 0.5,0.86 -0.87,0.58 -0.79,0.69 -0.69,0.79 -0.58,0.87 -0.46,0.94 -0.34,0.99 -0.2,1.02 -0.07,1.05 Z M 16,18.93 l 0.87,-0.58 0.79,-0.69 0.69,-0.79 0.58,-0.87 0.46,-0.94 0.34,-0.99 0.2,-1.02 0.07,-1.05 -0.07,-1.05 -0.2,-1.02 -0.34,-0.99 -0.46,-0.94 -0.58,-0.87 -0.69,-0.79 -0.79,-0.69 -0.87,-0.58 0.5,-0.86 0.98,0.65 0.88,0.78 0.78,0.88 0.65,0.98 0.53,1.06 0.37,1.11 0.23,1.15 0.08,1.18 -0.08,1.18 -0.23,1.15 -0.37,1.11 -0.53,1.06 -0.65,0.98 -0.78,0.88 -0.88,0.78 -0.98,0.65 -0.5,-0.86 Z M 14.65,4.59 l 0.03,0.26 -0.22,0.15 -4.92,0 -0.22,-0.15 0.03,-0.26 2.46,-2.87 0.19,-0.09 0.19,0.09 2.46,2.87 Z M 12.19,22.28 l -0.19,0.09 -0.19,-0.09 -2.46,-2.87 -0.03,-0.26 0.22,-0.15 4.92,0 0.22,0.15 -0.03,0.26 -2.46,2.87 Z M 11,11.51 l 0,-1.53 1.74,0 0.3,0.06 0.24,0.17 0.16,0.24 0.06,0.29 -0.06,0.3 -0.16,0.24 -0.24,0.17 -0.3,0.06 -1.74,0 Z" fill-rule="evenodd" fill="#000000" />
</svg>