<svg xmlns="http://www.w3.org/2000/svg" viewBox="0 0 24 24">
  <path id="psRSXRight" d="M 18,12 l -0.12,1.21 -0.35,1.13 -0.55,1.01 -0.74,0.89 -0.89,0.74 -1.01,0.55 -1.13,0.35 -1.21,0.12 -1.21,-0.12 -1.13,-0.35 -1.01,-0.55 -0.89,-0.74 -0.74,-0.89 -0.55,-1.01 -0.35,-1.13 -0.12,-1.21 0.12,-1.21 0.35,-1.13 0.55,-1.01 0.74,-0.89 0.89,-0.74 1.01,-0.55 1.13,-0.35 1.21,-0.12 1.21,0.12 1.13,0.35 1.01,0.55 0.89,0.74 0.74,0.89 0.55,1.01 0.35,1.13 0.12,1.21 Z M 9.93,19.73 l 1.29,0.23 1.3,0.02 1.29,-0.19 1.25,-0.4 1.17,-0.6 1.04,-0.78 0.91,-0.93 0.75,-1.08 0.86,0.5 -0.84,1.21 -1.02,1.06 -1.17,0.87 -1.32,0.67 -1.4,0.46 -1.45,0.21 -1.47,-0.02 -1.45,-0.27 -1.39,-0.49 -1.28,-0.72 -1.15,-0.91 -0.99,-1.09 -0.8,-1.24 -0.58,-1.35 -0.36,-1.42 -0.12,-1.47 0.12,-1.47 0.36,-1.42 0.58,-1.35 0.8,-1.24 0.99,-1.09 1.15,-0.91 1.28,-0.72 1.39,-0.49 1.45,-0.27 1.47,-0.02 1.45,0.21 1.4,0.46 1.32,0.67 1.17,0.87 1.02,1.06 0.84,1.21 -0.86,0.5 -0.75,-1.08 -0.91,-0.93 -1.04,-0.78 -1.17,-0.6 -1.25,-0.4 -1.29,-0.19 -1.3,0.02 -1.29,0.23 -1.24,0.44 -1.13,0.64 -1.03,0.81 -0.88,0.97 -0.71,1.1 -0.52,1.2 -0.31,1.26 -0.11,1.31 0.11,1.31 0.31,1.26 0.52,1.2 0.71,1.1 0.88,0.97 1.03,0.81 1.13,0.64 1.24,0.44 Z M 9.5,15.5 l 1.5,0 0,-2.49 0.63,0 1.88,2.49 1.88,0 -1.96,-2.6 0.63,-0.32 0.5,-0.49 0.33,-0.63 0.11,-0.72 -0.16,-0.82 -0.42,-0.69 -0.63,-0.49 -0.78,-0.24 -3.52,0 0.01,3.76 0,3.24 Z M 22.28,11.81 l 0.09,0.19 -0.09,0.19 -2.87,2.46 -0.26,0.03 -0.15,-0.22 0,-4.92 0.15,-0.22 0.26,0.03 2.87,2.46 Z M 11,11.51 l 0,-1.53 1.74,0 0.3,0.06 0.24,0.17 0.16,0.24 0.06,0.29 -0.06,0.3 -0.16,0.24 -0.24,0.17 -0.3,0.06 -1.74,0 Z" fill-rule="evenodd" fill="#000000" />
</svg>