<svg xmlns="http://www.w3.org/2000/svg" viewBox="0 0 24 24">
  <path id="psSquareOutline" d="M 22,12 l -0.05,1.02 -0.15,1 -0.25,0.95 -0.34,0.92 -0.92,1.7 -1.22,1.48 -1.48,1.22 -1.7,0.92 -0.92,0.34 -0.95,0.25 -1,0.15 -1.02,0.05 -1.02,-0.05 -1,-0.15 -0.95,-0.25 -0.92,-0.34 -1.7,-0.92 -1.48,-1.22 -1.22,-1.48 -0.92,-1.7 -0.34,-0.92 -0.25,-0.95 -0.15,-1 -0.05,-1.02 0.05,-1.02 0.15,-1 0.25,-0.95 0.34,-0.92 0.92,-1.7 1.22,-1.48 1.48,-1.22 1.7,-0.92 0.92,-0.34 0.95,-0.25 1,-0.15 1.02,-0.05 1.02,0.05 1,0.15 0.95,0.25 0.92,0.34 1.7,0.92 1.48,1.22 1.22,1.48 0.92,1.7 0.34,0.92 0.25,0.95 0.15,1 0.05,1.02 Z M 20.5,12 l -0.17,-1.71 -0.5,-1.6 -0.78,-1.44 -1.04,-1.26 -1.26,-1.04 -1.44,-0.78 -1.6,-0.5 -1.71,-0.17 -1.71,0.17 -1.6,0.5 -1.44,0.78 -1.26,1.04 -1.04,1.26 -0.78,1.44 -0.5,1.6 -0.17,1.71 0.17,1.71 0.5,1.6 0.78,1.44 1.04,1.26 1.26,1.04 1.44,0.78 1.6,0.5 1.71,0.17 1.71,-0.17 1.6,-0.5 1.44,-0.78 1.26,-1.04 1.04,-1.26 0.78,-1.44 0.5,-1.6 0.17,-1.71 Z M 17,7 l 0,10 -10,0 0,-10 10,0 Z M 15,9 l -6,0 0,6 6,0 0,-6 Z" fill-rule="evenodd" fill="#000000" />
</svg>