<svg xmlns="http://www.w3.org/2000/svg" viewBox="0 0 24 24">
  <path id="psTrackpadPressCenter" d="M 7.51,6.57 l 3.34,2.91 0.54,0.33 0.61,0.11 0.61,-0.11 0.54,-0.33 3.34,-2.91 0.36,-0.44 1.83,0.09 1.66,0.12 1.14,0.17 0.48,0.15 0.41,0.22 0.31,0.3 0.21,0.39 0.09,0.5 -0.05,0.63 -0.97,4.69 -0.52,2.32 -0.39,0.94 -0.66,0.71 -0.87,0.45 -1,0.15 -13.04,0 -1,-0.15 -0.87,-0.45 -0.66,-0.71 -0.39,-0.94 -0.51,-2.32 -0.98,-4.69 -0.05,-0.63 0.09,-0.5 0.21,-0.39 0.31,-0.3 0.41,-0.22 0.48,-0.15 1.14,-0.17 1.66,-0.12 1.83,-0.09 0.36,0.44 Z M 11.84,8.36 l -3.34,-2.92 -0.07,-0.28 0.09,-0.11 0.15,-0.05 1.33,0 0,-2 4,0 0,2 1.33,0 0.15,0.05 0.09,0.11 -0.07,0.28 -3.34,2.92 -0.16,0.06 -0.16,-0.06 Z M 10.41,13.59 l -0.49,-0.73 -0.17,-0.86 0.17,-0.86 0.49,-0.73 -1.06,-1.06 -0.47,0.57 -0.34,0.64 -0.22,0.71 -0.07,0.73 0.07,0.73 0.22,0.71 0.34,0.64 0.47,0.57 1.06,-1.06 Z M 14.08,11.14 l 0.17,0.86 -0.17,0.86 -0.49,0.73 1.06,1.06 0.47,-0.57 0.34,-0.64 0.22,-0.71 0.07,-0.73 -0.07,-0.73 -0.22,-0.71 -0.34,-0.64 -0.47,-0.57 -1.06,1.06 0.49,0.73 Z" fill-rule="evenodd" fill="#000000" />
</svg>