<svg xmlns="http://www.w3.org/2000/svg" viewBox="0 0 24 24">
  <path id="psTrackpadSwipeUp" d="M 12,6.03 l 0.88,0 0.99,0.02 2.19,0.05 2.24,0.1 2.04,0.14 1.14,0.17 0.48,0.15 0.41,0.22 0.31,0.3 0.21,0.39 0.09,0.51 -0.05,0.62 -0.97,4.69 -0.52,2.32 -0.39,0.94 -0.66,0.71 -0.87,0.45 -1,0.15 -13.04,0 -1,-0.15 -0.87,-0.45 -0.66,-0.71 -0.39,-0.94 -0.51,-2.32 -0.98,-4.69 -0.05,-0.62 0.09,-0.51 0.21,-0.39 0.31,-0.3 0.41,-0.22 0.48,-0.15 1.14,-0.17 2.04,-0.14 2.24,-0.1 2.19,-0.05 0.99,-0.02 0.88,0 Z M 12,7 l -3,3 0,0.5 2,-0.33 0,1.83 0.08,0.39 0.21,0.32 0.32,0.21 0.39,0.08 0.39,-0.08 0.32,-0.21 0.21,-0.32 0.08,-0.39 0,-1.83 2,0.33 0,-0.5 -3,-3 Z M 11.97,16 l 0.06,0 0.37,-0.08 0.31,-0.21 0.21,-0.31 0.08,-0.37 0,-0.03 -0.08,-0.39 -0.21,-0.32 -0.32,-0.21 -0.39,-0.08 -0.39,0.08 -0.32,0.21 -0.21,0.32 -0.08,0.39 0,0.03 0.08,0.37 0.21,0.31 0.31,0.21 0.37,0.08 Z" fill-rule="evenodd" fill="#000000" />
</svg>