<svg xmlns="http://www.w3.org/2000/svg" viewBox="0 0 24 24">
  <path id="psTrackpadPressRight" d="M 22.93,8.7 l -0.97,4.69 -0.52,2.32 -0.39,0.94 -0.66,0.71 -0.87,0.45 -1,0.15 -13.04,0 -1,-0.15 -0.87,-0.45 -0.66,-0.71 -0.39,-0.94 -0.51,-2.32 -0.98,-4.69 -0.05,-0.62 0.09,-0.51 0.21,-0.39 0.31,-0.3 0.41,-0.22 0.48,-0.15 1.14,-0.17 2.04,-0.14 2.24,-0.1 2.19,-0.05 0.99,-0.02 0.88,0 0.18,0 0.42,0.54 1.54,1.35 0.1,0.3 -0.22,5.38 -0.18,0.49 -0.44,0.29 -0.33,0.19 -0.23,0.32 -0.04,0.1 -0.07,0.53 0.18,0.47 0.38,0.34 0.51,0.13 4.72,0 0.53,-0.08 0.43,-0.22 0.32,-0.34 0.18,-0.43 0.51,-2.32 0,-0.01 0.96,-4.62 -0.06,-0.3 -0.25,-0.17 -0.01,0 -0.22,-0.12 -0.12,-0.2 -0.01,-0.22 0.12,-0.2 0.75,-0.68 0.63,0.27 0.44,0.42 0.23,0.61 -0.02,0.85 Z M 16.92,8.36 l -3.33,-2.92 -0.07,-0.28 0.09,-0.11 0.14,-0.05 1.34,0 0,-2 4,0 0,2 1.33,0 0.15,0.05 0.09,0.11 -0.07,0.28 -3.34,2.92 -0.16,0.06 -0.17,-0.06 Z" fill-rule="evenodd" fill="#000000" />
</svg>