<svg xmlns="http://www.w3.org/2000/svg" viewBox="0 0 24 24">
  <path id="pushDown" d="M 19.07,18.11 l 0.27,0.07 0.17,0.19 0.06,0.25 -0.08,0.26 -1.34,2.01 -0.18,0.17 -0.24,0.05 -11.46,0 -0.24,-0.06 -0.18,-0.17 -1.35,-2.1 -0.08,-0.27 0.06,-0.24 0.18,-0.19 0.26,-0.07 14.15,0.1 Z M 18,12 l -6,5 -6,-5 0,-1.57 6,2.57 6,-2.57 0,1.57 Z M 15,9 l -3,2 -3,-2 0,-1.57 3,1.07 3,-1.07 0,1.57 Z M 17,6.5 l -2,0 0,-3 2,0 0,3 Z M 9,6 l -2,0 0,-3 2,0 0,3 Z M 13,7 l -2,0 0,-2.5 2,0 0,2.5 Z" fill-rule="evenodd" fill="#000000" />
</svg>