<svg xmlns="http://www.w3.org/2000/svg" viewBox="0 0 24 24">
  <path id="puzzleModule" d="M 23,13 l -0.06,-0.6 -0.18,-0.57 -0.27,-0.51 -0.37,-0.44 -0.44,-0.37 -0.51,-0.27 -0.57,-0.18 -0.6,-0.06 -1,0 0,-3 -0.16,-0.78 -0.43,-0.63 -0.63,-0.43 -0.78,-0.16 -3,0 0,-1 -0.06,-0.6 -0.18,-0.57 -0.27,-0.51 -0.37,-0.44 -0.44,-0.37 -0.51,-0.27 -0.57,-0.18 -0.6,-0.06 -0.6,0.06 -0.57,0.18 -0.51,0.27 -0.44,0.37 -0.37,0.44 -0.27,0.51 -0.18,0.57 -0.06,0.6 0,1 -3,0 -0.78,0.16 -0.63,0.43 -0.43,0.63 -0.16,0.78 0,3.5 1.5,0 0.5,0.05 0.47,0.15 0.8,0.53 0.53,0.8 0.15,0.47 0.05,0.5 -0.05,0.5 -0.15,0.47 -0.53,0.8 -0.8,0.53 -0.47,0.15 -0.5,0.05 -1.5,0 0,3.5 0.16,0.78 0.43,0.63 0.63,0.43 0.78,0.16 3.5,0 0,-1.5 0.05,-0.5 0.15,-0.47 0.53,-0.8 0.8,-0.53 0.47,-0.15 0.5,-0.05 0.5,0.05 0.47,0.15 0.8,0.53 0.53,0.8 0.15,0.47 0.05,0.5 0,1.5 3.5,0 0.78,-0.16 0.63,-0.43 0.43,-0.63 0.16,-0.78 0,-3 1,0 0.6,-0.06 0.57,-0.18 0.51,-0.27 0.44,-0.37 0.37,-0.44 0.27,-0.51 0.18,-0.57 Z" fill-rule="evenodd" fill="#000000" />
</svg>