<svg xmlns="http://www.w3.org/2000/svg" viewBox="0 0 16 16">
  <path id="puzzlePieceBold" d="M 15.51,9.78 l -0.43,0.63 -0.63,0.43 -0.78,0.16 -1.34,0 0.24,2.09 -0.03,0.37 -0.16,0.33 -0.27,0.25 -0.34,0.14 -2.1,0.42 0,-0.6 -0.16,-0.78 -0.43,-0.63 -0.63,-0.43 -0.78,-0.16 -0.78,0.16 -0.64,0.43 -0.43,0.63 -0.15,0.78 0,0.6 -2.36,-0.47 -0.51,-0.27 -0.27,-0.5 -0.53,-2.36 0.67,0 0.78,-0.16 0.63,-0.43 0.43,-0.63 0.16,-0.78 -0.16,-0.78 -0.43,-0.63 -0.63,-0.43 -0.78,-0.16 -0.55,0 0.38,-2.09 0.14,-0.35 0.24,-0.27 0.33,-0.16 0.37,-0.04 2.09,0.21 0,-1.3 0.15,-0.78 0.43,-0.63 0.64,-0.43 0.78,-0.16 0.78,0.16 0.63,0.43 0.43,0.63 0.16,0.78 0,1.3 1.79,-0.18 0.44,0.06 0.37,0.23 0.23,0.35 0.06,0.45 -0.17,1.79 1.28,0 0.78,0.16 0.63,0.43 0.43,0.63 0.16,0.78 Z" fill-rule="evenodd" fill="#000000" />
</svg>