<svg xmlns="http://www.w3.org/2000/svg" viewBox="0 0 24 24">
  <path id="raceFlag" d="M 5,4 l 4,0 0,2 2,0 0,-2 2,0 0.39,0.08 0.32,0.21 0.21,0.32 0.08,0.39 0,2 1,0 0,-2 2,0 0,2 1,0 0,-2 0.08,-0.39 0.21,-0.32 0.32,-0.21 0.39,-0.08 0,10 -0.08,0.39 -0.21,0.32 -0.32,0.21 -0.39,0.08 0,-2 -1,0 0,2 -2,0 0,-2 -1,0 0,2 -0.39,-0.08 -0.32,-0.21 -0.21,-0.32 -0.08,-0.39 -2,0 0,-2 -2,0 0,2 -2,0 0,6 -2,0 0,-16 Z M 7,6 l 0,2 2,0 0,2 -2,0 0,2 2,0 0,-2 2,0 0,2 2,0 0,-2 -2,0 0,-2 2,0 0,-2 -2,0 0,2 -2,0 0,-2 -2,0 Z M 15,9 l 2,0 0,-2 -2,0 0,2 Z M 17,11 l -2,0 0,2 2,0 0,-2 Z M 15,11 l 0,-2 -1,0 0,2 1,0 Z M 17,11 l 1,0 0,-2 -1,0 0,2 Z" fill-rule="evenodd" fill="#000000" />
</svg>