<svg xmlns="http://www.w3.org/2000/svg" viewBox="0 0 24 24">
  <path id="radarRound" d="M 10.17,3.7 l 1.99,6.31 0.72,0.19 0.59,0.44 0.39,0.62 0.14,0.74 -0.16,0.78 -0.43,0.63 -0.63,0.43 -0.78,0.16 -0.78,-0.16 -0.63,-0.43 -0.43,-0.63 -0.16,-0.78 0.05,-0.45 0.15,-0.42 0.53,-0.67 -0.78,-2.47 -0.57,0.35 -0.52,0.43 -0.69,0.87 0.34,0.38 0.27,0.44 0.16,0.5 0.06,0.54 -0.05,0.5 -0.15,0.47 -0.53,0.8 -0.8,0.53 -0.47,0.15 -0.5,0.05 -0.5,-0.05 -0.47,-0.15 -0.8,-0.53 -0.53,-0.8 -0.15,-0.47 -0.05,-0.5 0.05,-0.5 0.15,-0.47 0.53,-0.8 0.8,-0.53 0.47,-0.15 0.5,-0.05 0.29,0.02 0.47,-0.7 0.56,-0.62 0.79,-0.65 0.88,-0.5 -0.75,-2.4 -1.08,0.54 -0.99,0.69 -1.2,1.18 -0.95,1.41 -1.32,-0.71 0.51,-0.86 0.6,-0.79 0.68,-0.74 0.74,-0.66 0.81,-0.59 0.87,-0.5 0.9,-0.42 0.95,-0.32 0.98,-0.22 0.99,-0.13 0.99,-0.03 1,0.07 0.99,0.18 0.96,0.26 0.93,0.37 0.89,0.45 -0.75,1.3 -1.55,-0.69 -1.65,-0.38 -1.45,-0.05 -1.42,0.19 Z M 20.24,14.1 l 0.2,-1.07 0.06,-1.08 -0.08,-1.08 -0.21,-1.07 1.45,-0.39 0.25,1.26 0.09,1.27 -0.07,1.27 -0.24,1.26 -0.39,1.22 -0.55,1.15 -0.68,1.07 -0.83,0.98 -0.93,0.87 -1.04,0.74 -1.13,0.6 -1.19,0.46 -1.25,0.29 -1.26,0.14 -1.28,-0.03 -1.26,-0.18 0.31,-1.47 1.08,0.16 1.08,0.02 1.08,-0.11 1.05,-0.26 1.02,-0.38 0.96,-0.51 0.88,-0.63 0.8,-0.74 0.7,-0.84 0.58,-0.91 0.46,-0.98 0.34,-1.03 Z M 16.5,12 l 1.5,0 -0.07,0.92 -0.21,0.89 -0.34,0.85 -0.47,0.79 -0.59,0.71 -0.68,0.61 -0.77,0.5 -0.84,0.37 -0.88,0.25 -0.91,0.11 -0.92,-0.04 -0.9,-0.17 -0.87,-0.31 -0.8,-0.44 -0.73,-0.55 -0.64,-0.66 1.15,-0.96 0.48,0.5 0.55,0.41 0.6,0.33 0.65,0.23 0.68,0.13 0.69,0.03 0.68,-0.08 0.67,-0.19 0.63,-0.28 0.57,-0.37 0.51,-0.46 0.44,-0.53 0.35,-0.6 0.26,-0.63 0.16,-0.67 0.05,-0.69 Z M 7.5,21 l -0.58,-0.12 -0.48,-0.32 -0.32,-0.48 -0.12,-0.58 0.12,-0.58 0.32,-0.48 0.48,-0.32 0.58,-0.12 0.58,0.12 0.48,0.32 0.32,0.48 0.12,0.58 -0.12,0.58 -0.32,0.48 -0.48,0.32 -0.58,0.12 Z M 3.83,14.34 l 0.3,0.87 0.39,0.83 0.48,0.79 0.57,0.73 -1.14,0.98 -0.66,-0.86 -0.57,-0.92 -0.46,-0.98 -0.35,-1.03 1.44,-0.41 Z" fill-rule="evenodd" fill="#000000" />
</svg>