<svg xmlns="http://www.w3.org/2000/svg" viewBox="0 0 24 24">
  <path id="radarRoundIdeal" d="M 5.92,6.06 l -0.68,0.79 -0.59,0.88 -0.73,1.62 -0.37,1.73 -0.01,1.78 0.37,1.74 0.71,1.63 1.04,1.44 -1.11,1 -0.66,-0.82 -0.57,-0.88 -0.47,-0.93 -0.37,-0.98 -0.27,-1.01 -0.16,-1.04 -0.05,-1.04 0.06,-1.05 0.17,-1.03 0.27,-1.01 0.38,-0.98 0.48,-0.93 0.57,-0.88 0.66,-0.81 0.74,-0.73 0.82,-0.66 0.59,0.82 4.62,5.39 0.64,-0.1 0.78,0.16 0.63,0.43 0.43,0.63 0.16,0.78 -0.16,0.78 -0.43,0.63 -0.63,0.43 -0.78,0.16 -0.78,-0.16 -0.63,-0.43 -0.43,-0.63 -0.16,-0.78 0.06,-0.48 0.16,-0.44 -1.68,-1.96 -0.59,0.91 -0.35,1.04 -0.1,0.75 0.04,0.76 0.16,0.74 0.28,0.7 0.4,0.65 0.5,0.57 0.58,0.48 0.66,0.37 0.72,0.26 0.74,0.13 0.76,0.01 0.75,-0.12 0.36,1.45 -1,0.16 -1.01,-0.01 -0.99,-0.17 -0.95,-0.35 -0.89,-0.5 -0.78,-0.63 -0.66,-0.76 -0.53,-0.86 -0.38,-0.94 -0.21,-0.99 -0.05,-1 0.13,-1.01 0.22,-0.77 0.31,-0.72 0.4,-0.68 0.5,-0.62 -1.64,-1.91 Z M 15.54,10.22 l -1.09,-0.51 -0.33,-0.29 -0.12,-0.42 0.12,-0.42 0.33,-0.29 1.09,-0.51 0.48,-0.29 0.41,-0.38 0.31,-0.46 0.22,-0.52 0.53,-1.75 0.19,-0.27 0.32,-0.11 0.32,0.11 0.19,0.27 0.53,1.75 0.22,0.52 0.31,0.46 0.41,0.38 0.48,0.29 1.09,0.51 0.33,0.29 0.12,0.42 -0.12,0.42 -0.33,0.29 -1.09,0.51 -0.48,0.29 -0.41,0.38 -0.31,0.46 -0.22,0.52 -0.53,1.75 -0.19,0.27 -0.32,0.11 -0.32,-0.11 -0.19,-0.27 -0.53,-1.75 -0.22,-0.52 -0.31,-0.46 -0.41,-0.38 -0.48,-0.29 Z M 15.59,19.71 l 1.22,-0.7 1.09,-0.89 0.92,-1.05 0.75,-1.2 1.33,0.69 -0.87,1.41 -1.09,1.23 -1.28,1.04 -1.44,0.83 -1.56,0.57 -1.62,0.31 -1.65,0.03 -1.64,-0.24 0.34,-1.46 1.39,0.2 1.4,-0.03 1.38,-0.26 1.33,-0.48 Z M 11.91,6.75 l -0.35,-0.61 -0.56,-0.4 -0.73,-0.32 -0.2,-0.17 -0.07,-0.25 0.07,-0.25 0.2,-0.17 0.73,-0.32 0.56,-0.4 0.35,-0.61 0.33,-1.01 0.12,-0.17 0.21,-0.07 0.21,0.07 0.13,0.17 0.32,1.01 0.35,0.61 0.57,0.4 0.72,0.32 0.2,0.17 0.07,0.25 -0.07,0.25 -0.2,0.17 -0.72,0.32 -0.57,0.4 -0.35,0.61 -0.32,1.01 -0.13,0.17 -0.21,0.07 -0.21,-0.07 -0.12,-0.17 -0.33,-1.01 Z M 9,19.5 l -0.12,0.58 -0.32,0.48 -0.48,0.32 -0.58,0.12 -0.58,-0.12 -0.48,-0.32 -0.32,-0.48 -0.12,-0.58 0.12,-0.58 0.32,-0.48 0.48,-0.32 0.58,-0.12 0.58,0.12 0.48,0.32 0.32,0.48 0.12,0.58 Z" fill-rule="evenodd" fill="#000000" />
</svg>