<svg xmlns="http://www.w3.org/2000/svg" viewBox="0 0 24 24">
  <path id="radar" d="M 15,14 l 6,0 0,7 -6,0 0,-7 Z M 11.52,8.38 l 1.93,-0.52 0.39,1.85 0.15,1.88 -0.06,1.88 -0.28,1.87 -0.5,1.82 -0.71,1.74 -0.92,1.65 -1.1,1.53 -1.55,-1.26 0.96,-1.34 0.8,-1.44 0.62,-1.53 0.44,-1.59 0.25,-1.64 0.06,-1.64 -0.14,-1.64 -0.34,-1.62 Z M 7.66,14.59 l 0.25,-1.29 0.09,-1.3 -0.09,-1.3 -0.25,-1.29 1.93,-0.52 0.31,1.55 0.1,1.56 -0.1,1.56 -0.31,1.55 -0.5,1.49 -0.7,1.4 -0.87,1.3 -1.03,1.19 -1.42,-1.42 0.87,-0.98 0.72,-1.09 0.58,-1.17 0.42,-1.24 Z M 3.54,9.7 l -0.55,-1.03 -0.75,-0.91 1.42,-1.42 0.99,1.22 0.74,1.38 0.46,1.5 0.15,1.56 -0.15,1.56 -0.46,1.5 -0.74,1.38 -0.99,1.22 -1.42,-1.42 0.75,-0.91 0.55,-1.03 0.34,-1.13 0.12,-1.17 -0.12,-1.17 -0.34,-1.13 Z M 5.5,4.5 l 4.5,-2.5 2,4 -4.5,2 -2,-3.5 Z M 19.25,6.31 l 1.93,-0.52 0.39,1.68 0.26,1.69 0.14,1.72 0.02,1.72 -2,-0.05 -0.01,-1.58 -0.13,-1.57 -0.25,-1.56 -0.35,-1.53 Z M 16.5,15.5 l 0,4 3,0 0,-4 -3,0 Z M 15.99,12.56 l -0.11,-2.63 -0.49,-2.59 1.93,-0.52 0.33,1.43 0.22,1.45 0.11,1.46 0.01,1.46 -2,-0.06 Z" fill-rule="evenodd" fill="#000000" />
</svg>