<svg xmlns="http://www.w3.org/2000/svg" viewBox="0 0 24 24">
  <path id="radarIdeal" d="M 5.07,4.93 l 1.42,-1.42 0.79,0.88 0.7,0.94 0.6,1.01 0.51,1.07 0.39,1.11 0.29,1.14 0.17,1.16 0.06,1.18 -0.06,1.18 -0.17,1.16 -0.29,1.14 -0.39,1.11 -0.51,1.07 -0.6,1.01 -0.7,0.94 -0.79,0.88 -1.42,-1.42 1.24,-1.51 0.93,-1.73 0.57,-1.88 0.19,-1.95 -0.19,-1.95 -0.57,-1.88 -0.93,-1.73 -1.24,-1.51 Z M 16.96,11.87 l -0.22,-0.52 -0.31,-0.46 -0.41,-0.38 -0.48,-0.29 -1.09,-0.51 -0.33,-0.29 -0.12,-0.42 0.12,-0.42 0.33,-0.29 1.09,-0.51 0.48,-0.29 0.41,-0.38 0.31,-0.46 0.22,-0.52 0.53,-1.75 0.19,-0.27 0.32,-0.11 0.32,0.11 0.19,0.27 0.53,1.75 0.22,0.52 0.31,0.46 0.41,0.38 0.48,0.29 1.09,0.51 0.33,0.29 0.12,0.42 -0.12,0.42 -0.33,0.29 -1.09,0.51 -0.48,0.29 -0.41,0.38 -0.31,0.46 -0.22,0.52 -0.53,1.75 -0.19,0.27 -0.32,0.11 -0.32,-0.11 -0.19,-0.27 -0.53,-1.75 Z M 15,16 l 6,0 0,5 -6,0 0,-5 Z M 2.24,7.76 l 1.42,-1.42 0.99,1.22 0.74,1.38 0.46,1.5 0.15,1.56 -0.15,1.56 -0.46,1.5 -0.74,1.38 -0.99,1.22 -1.42,-1.42 0.75,-0.91 0.55,-1.03 0.34,-1.13 0.12,-1.17 -0.12,-1.17 -0.34,-1.13 -0.55,-1.03 -0.75,-0.91 Z M 9.12,20.51 l 1.24,-1.93 0.9,-2.09 0.55,-2.21 0.19,-2.28 2,0 -0.05,1.31 -0.16,1.3 -0.27,1.27 -0.37,1.25 -0.46,1.22 -0.57,1.17 -0.66,1.13 -0.75,1.07 -1.59,-1.21 Z M 11,5.74 l -0.73,-0.32 -0.2,-0.17 -0.07,-0.25 0.07,-0.25 0.2,-0.17 0.73,-0.32 0.56,-0.4 0.35,-0.61 0.33,-1.01 0.12,-0.17 0.21,-0.07 0.21,0.07 0.13,0.17 0.32,1.01 0.35,0.61 0.57,0.4 0.72,0.32 0.2,0.17 0.07,0.25 -0.07,0.25 -0.2,0.17 -0.72,0.32 -0.57,0.4 -0.35,0.61 -0.32,1.01 -0.13,0.17 -0.21,0.07 -0.21,-0.07 -0.12,-0.17 -0.33,-1.01 -0.35,-0.61 -0.56,-0.4 Z M 19.5,17.5 l -3,0 0,2 3,0 0,-2 Z" fill-rule="evenodd" fill="#000000" />
</svg>