<svg xmlns="http://www.w3.org/2000/svg" viewBox="0 0 24 24">
  <path id="radialMenu" d="M 14.04,17.11 l 0.73,-0.36 0.33,-0.07 0.31,0.15 1.81,1.81 0.15,0.38 -0.2,0.35 -0.88,0.54 -0.94,0.45 -1.7,0.49 -1.76,0.15 -1.75,-0.19 -1.68,-0.54 -1.63,-0.9 -0.2,-0.35 0.15,-0.38 1.81,-1.81 0.31,-0.15 0.33,0.07 0.61,0.31 1.02,0.32 1.07,0.12 1.08,-0.09 1.03,-0.3 Z M 7.02,9.66 l -0.08,0.18 -0.32,1.02 -0.12,1.07 0.09,1.08 0.3,1.03 0.36,0.73 0.07,0.33 -0.15,0.31 -1.81,1.81 -0.38,0.15 -0.35,-0.2 -0.54,-0.88 -0.45,-0.94 -0.49,-1.7 -0.15,-1.76 0.19,-1.75 0.54,-1.68 0.61,-1.18 0.15,-0.15 0.2,-0.07 0.39,0.14 1.85,1.85 0.14,0.29 -0.05,0.32 Z M 17.07,9.05 l 1.85,-1.85 0.39,-0.14 0.2,0.07 0.15,0.15 0.7,1.37 0.49,1.7 0.15,1.76 -0.19,1.75 -0.54,1.68 -0.9,1.63 -0.35,0.2 -0.38,-0.15 -1.81,-1.81 -0.15,-0.31 0.07,-0.33 0.31,-0.61 0.32,-1.02 0.12,-1.07 -0.09,-1.08 -0.3,-1.03 -0.13,-0.3 -0.05,-0.32 0.14,-0.29 Z M 16.8,5.08 l -1.85,1.85 -0.29,0.14 -0.32,-0.05 -0.18,-0.08 -1.02,-0.32 -1.07,-0.12 -1.08,0.09 -1.03,0.3 -0.3,0.13 -0.32,0.05 -0.29,-0.14 -1.85,-1.85 -0.14,-0.39 0.07,-0.2 0.15,-0.15 1.37,-0.7 1.7,-0.49 1.76,-0.15 1.75,0.19 1.68,0.54 1.18,0.61 0.15,0.15 0.07,0.2 -0.14,0.39 Z M 11,9 l 2,0 0.39,0.08 0.32,0.21 0.21,0.32 0.08,0.39 0,1 -0.08,0.39 -0.21,0.32 -0.32,0.21 -0.39,0.08 -2,0 -0.39,-0.08 -0.32,-0.21 -0.21,-0.32 -0.08,-0.39 0,-1 0.08,-0.39 0.21,-0.32 0.32,-0.21 0.39,-0.08 Z M 10,13 l 4,0 0.39,0.08 0.32,0.21 0.21,0.32 0.08,0.39 0,0 -0.08,0.39 -0.21,0.32 -0.32,0.21 -0.39,0.08 -4,0 -0.39,-0.08 -0.32,-0.21 -0.21,-0.32 -0.08,-0.39 0,0 0.08,-0.39 0.21,-0.32 0.32,-0.21 0.39,-0.08 Z" fill-rule="evenodd" fill="#000000" />
</svg>