<svg xmlns="http://www.w3.org/2000/svg" viewBox="0 0 24 24">
  <path id="rallyHelmet3To4" d="M 12.23,19.96 l -0.25,0.81 -0.5,0.64 -0.7,0.43 -0.84,0.16 -0.18,0 -1.49,-0.18 -1.74,-0.44 -0.67,-0.26 -0.58,-0.42 -0.47,-0.55 -0.31,-0.65 -0.45,-0.15 -0.46,-0.22 -0.38,-0.32 -0.29,-0.41 -0.18,-0.47 -0.36,-1.47 -0.06,-0.46 0.06,-0.46 0.12,-0.54 -0.06,-0.37 -0.15,-1.31 -0.02,-1.31 0.12,-1.31 0.26,-1.29 0.56,-1.57 0.86,-1.41 1.13,-1.21 1.35,-0.97 0.27,-0.15 0.39,-0.15 2.14,-0.36 2.15,-0.13 2.17,0.09 2.14,0.31 0.69,0.14 0.31,0.16 1.38,0.87 1.17,1.13 -3.36,0.34 -3.5,0 -0.19,0.13 0.04,0.22 0.13,0.13 0.04,0.04 1.08,0.71 0.42,0.18 0.45,0 2.04,-0.26 2.05,0.04 2.59,0.23 0.72,0.57 0.23,0.26 0.12,0.31 0.02,0.33 -0.1,0.33 -0.14,0.28 -8.01,0.84 -0.68,0.16 -0.62,0.3 -0.53,0.43 -0.43,0.55 -0.47,0.79 -0.25,0.27 -0.33,0.14 -0.78,-0.13 -1.13,-0.28 -0.47,-0.27 -0.09,-0.09 -0.22,-0.33 -0.08,-0.38 0.08,-0.38 0.22,-0.33 2.03,-2.03 0.11,-0.26 -0.11,-0.26 -0.24,-0.11 -0.26,0.1 -3.16,2.76 -0.21,0.26 -0.11,0.3 -0.01,0.32 0.1,0.32 0.15,0.31 0.63,0.87 0.87,0.63 3.22,1.21 0.39,0.6 0.41,0.56 0.33,0.67 0.06,0.75 -0.18,1.67 Z M 17.49,18.17 l -0.51,0.28 -0.56,0.17 -1.32,0.26 -0.23,-0.01 -0.19,-0.09 -0.13,-0.17 -0.05,-0.22 0,-0.78 -0.05,-0.53 -0.15,-0.5 -0.25,-0.46 -0.33,-0.4 -0.29,-0.37 -0.17,-0.42 -0.07,-0.45 0.06,-0.46 0.1,-0.42 0.27,-0.47 0.48,-0.26 2.95,-0.66 0,0 0.22,-0.05 0.31,-0.01 0.28,0.1 0.23,0.19 0.15,0.27 0.12,0.37 0.07,0.46 0.33,0.59 0.47,0.49 1.72,1.48 0.45,0.3 0.44,0.66 0.16,0.79 0,0.04 0,0.02 0,0.01 -0.14,1.14 -0.01,0.03 0,0.01 -0.3,1.21 -0.21,0.3 -0.84,0.55 -0.53,0.25 -0.58,0.09 -0.31,-0.11 -0.17,-0.27 -0.37,-1.48 0.01,-0.28 0.23,-0.7 0.02,-0.24 -0.09,-0.21 -0.17,-0.15 -0.23,-0.06 -0.19,0 -0.23,-0.05 -0.03,-0.02 -0.37,0.24 Z" fill-rule="evenodd" fill="#000000" />
</svg>