<svg xmlns="http://www.w3.org/2000/svg" viewBox="0 0 24 24">
  <path id="rallyHelmet" d="M 3,11.35 l 0.08,-1.24 0.22,-1.21 0.38,-1.16 0.5,-1.11 0.64,-1.03 0.76,-0.96 0.88,-0.86 0.99,-0.75 0.05,-0.03 2.24,-0.37 2.26,-0.12 2.26,0.12 2.24,0.37 0.05,0.03 0.99,0.75 0.88,0.86 0.76,0.96 0.64,1.03 0.5,1.11 0.38,1.16 0.22,1.21 0.08,1.24 0,0.15 -0.5,3.5 -0.5,2.5 -0.57,1.98 -0.28,0.67 -0.43,0.58 -0.56,0.46 -0.66,0.31 -4.35,1.45 -0.31,0.05 -1.34,0 -0.45,-0.11 -0.35,-0.29 -0.46,-0.61 -0.27,-0.49 -0.12,-0.53 0.03,-0.55 0.17,-0.53 0.67,-1.34 0.37,-0.4 0.53,-0.15 0.84,0 0.48,0.12 0.36,0.33 0.44,0.65 0.3,0.21 0.37,-0.06 2.09,-1.25 0.86,-0.57 0.68,-0.75 0.48,-0.9 0.26,-1 0.08,-0.62 0.06,-1.16 -0.11,-1.15 -0.25,-1.47 -0.14,-0.19 -0.24,0.02 -0.56,0.38 -0.65,0.32 -0.71,0.16 -1.08,0.11 -3.18,0.16 -3.18,-0.16 -1.08,-0.11 -0.71,-0.16 -0.65,-0.32 -0.56,-0.38 -0.24,-0.02 -0.14,0.19 -0.4,2.36 -0.04,0.53 0,1.78 0.08,1.45 0.25,1.42 0.42,1.39 0.57,1.33 -0.01,0.24 -0.21,0.12 -0.45,0 -0.6,-0.12 -0.51,-0.34 -0.4,-0.4 -0.48,-0.59 -0.36,-0.67 -0.22,-0.73 -0.08,-0.77 0,-0.73 0.05,-0.64 0.16,-0.63 0.29,-0.88 -0.5,-3 0,-0.15 Z M 7.15,6.26 l -0.3,0 -0.27,0.12 -0.2,0.2 -0.12,0.27 0.01,0.3 0.11,0.27 0.2,0.2 0.27,0.12 2.57,0.38 2.58,0.12 2.58,-0.12 2.57,-0.38 0.27,-0.12 0.2,-0.2 0.11,-0.27 0.01,-0.3 -0.12,-0.27 -0.2,-0.2 -0.27,-0.12 -0.3,0 -2.41,0.36 -2.44,0.12 -2.44,-0.12 -2.41,-0.36 Z M 7.92,18.38 l -0.32,0.22 -0.25,0.1 -0.27,-0.02 -0.23,-0.11 -0.17,-0.22 -0.51,-1.39 -0.17,-1.47 0,-2.49 0.11,-0.36 0.27,-0.21 0.35,-0.04 0.33,0.17 0.26,0.26 0.22,0.43 0.46,2.75 0.33,1.33 -0.03,0.59 -0.38,0.46 Z M 16.46,13.25 l 0.22,-0.43 0.26,-0.26 0.33,-0.17 0.35,0.04 0.27,0.21 0.11,0.36 0,0.96 -0.15,1 -0.43,0.91 -0.08,0.12 -0.4,0.29 -0.48,-0.05 -0.31,-0.31 -0.07,-0.42 0.38,-2.25 Z" fill-rule="evenodd" fill="#000000" />
</svg>