<svg xmlns="http://www.w3.org/2000/svg" viewBox="0 0 24 24">
  <path id="rangeboxLoA" d="M 7,21 l -0.78,-0.16 -0.63,-0.43 -0.43,-0.63 -0.16,-0.78 0,-5 0.16,-0.78 0.43,-0.63 0.63,-0.43 0.78,-0.16 6,0 0.78,0.16 0.63,0.43 0.43,0.63 0.16,0.78 0,5 -0.16,0.78 -0.43,0.63 -0.63,0.43 -0.78,0.16 -6,0 Z M 18,8 l 3,0 1.84,7.38 0.01,0.23 -0.1,0.2 -0.17,0.14 -0.22,0.05 -0.86,0 -0.45,-1.5 -3.1,0 -0.45,1.5 -0.86,0 -0.22,-0.05 -0.17,-0.14 -0.1,-0.2 0.01,-0.23 1.84,-7.38 Z M 7,10.5 l 0,-3.5 0.16,-0.78 0.43,-0.63 0.63,-0.43 0.78,-0.16 2,0 0.78,0.16 0.63,0.43 0.43,0.63 0.16,0.78 0,3.5 -6,0 Z M 9.5,13.5 l -2,0 0,6 5,0 0,-2 -3,0 0,-4 Z M 20,11 l -0.5,-2 -0.5,2 -0.6,2 2.2,0 -0.6,-2 Z" fill-rule="evenodd" fill="#000000" />
</svg>