<svg xmlns="http://www.w3.org/2000/svg" viewBox="0 0 24 24">
  <path id="rangeboxLo" d="M 9,21 l -0.78,-0.16 -0.63,-0.43 -0.43,-0.63 -0.16,-0.78 0,-5 0.16,-0.78 0.43,-0.63 0.63,-0.43 0.78,-0.16 6,0 0.78,0.16 0.63,0.43 0.43,0.63 0.16,0.78 0,5 -0.16,0.78 -0.43,0.63 -0.63,0.43 -0.78,0.16 -6,0 Z M 9,10.5 l 0,-3.5 0.16,-0.78 0.43,-0.63 0.63,-0.43 0.78,-0.16 2,0 0.78,0.16 0.63,0.43 0.43,0.63 0.16,0.78 0,3.5 -6,0 Z M 11.5,13.5 l -2,0 0,6 5,0 0,-2 -3,0 0,-4 Z" fill-rule="evenodd" fill="#000000" />
</svg>