<svg xmlns="http://www.w3.org/2000/svg" viewBox="0 0 24 24">
  <path id="rangeboxLo2" d="M 5,19 l 0,-5 0.16,-0.78 0.43,-0.63 0.63,-0.43 0.78,-0.16 6,0 0.78,0.16 0.63,0.43 0.43,0.63 0.16,0.78 0,5 -0.16,0.78 -0.43,0.63 -0.63,0.43 -0.78,0.16 -6,0 -0.78,-0.16 -0.63,-0.43 -0.43,-0.63 -0.16,-0.78 Z M 7,7 l 0.16,-0.78 0.43,-0.63 0.63,-0.43 0.78,-0.16 2,0 0.78,0.16 0.63,0.43 0.43,0.63 0.16,0.78 0,3.5 -6,0 0,-3.5 Z M 16.5,10.25 l 0.18,-0.88 0.48,-0.71 0.71,-0.48 0.88,-0.18 1.02,0 0.87,0.18 0.71,0.47 0.47,0.71 0.18,0.87 -0.12,0.84 -0.36,0.72 -0.56,0.59 -0.74,0.47 -1.53,0.77 -0.4,0.3 -0.14,0.25 -0.05,0.33 3.65,0 0,1.5 -5.25,0 0,-1.01 0.11,-0.94 0.3,-0.76 0.48,-0.59 0.63,-0.42 1.53,-0.77 0.4,-0.23 0.29,-0.28 0.19,-0.34 0.07,-0.43 -0.06,-0.29 -0.15,-0.23 -0.23,-0.15 -0.29,-0.06 -1.02,0 -0.29,0.06 -0.24,0.16 -0.16,0.24 -0.06,0.29 -1.5,0 Z M 12.5,17.5 l -3,0 0,-4 -2,0 0,6 5,0 0,-2 Z" fill-rule="evenodd" fill="#000000" />
</svg>