<svg xmlns="http://www.w3.org/2000/svg" viewBox="0 0 24 24">
  <path id="rangeboxLo4" d="M 7,21 l -0.78,-0.16 -0.63,-0.43 -0.43,-0.63 -0.16,-0.78 0,-5 0.16,-0.78 0.43,-0.63 0.63,-0.43 0.78,-0.16 6,0 0.78,0.16 0.63,0.43 0.43,0.63 0.16,0.78 0,5 -0.16,0.78 -0.43,0.63 -0.63,0.43 -0.78,0.16 -6,0 Z M 7,10.5 l 0,-3.5 0.16,-0.78 0.43,-0.63 0.63,-0.43 0.78,-0.16 2,0 0.78,0.16 0.63,0.43 0.43,0.63 0.16,0.78 0,3.5 -6,0 Z M 19.5,12.5 l 0,-4.5 1.5,0 0,4.5 1,0 0,1.5 -1,0 0,2 -1.5,0 0,-2 -3.35,0 0.36,-5.19 1.49,0.19 -0.15,3.5 1.65,0 Z M 9.5,13.5 l -2,0 0,6 5,0 0,-2 -3,0 0,-4 Z" fill-rule="evenodd" fill="#000000" />
</svg>