<svg xmlns="http://www.w3.org/2000/svg" viewBox="0 0 24 24">
  <path id="rangeboxHi" d="M 7,5 l 0.16,-0.78 0.43,-0.63 0.63,-0.43 0.78,-0.16 6,0 0.78,0.16 0.63,0.43 0.43,0.63 0.16,0.78 0,5 -0.16,0.78 -0.43,0.63 -0.63,0.43 -0.78,0.16 -6,0 -0.78,-0.16 -0.63,-0.43 -0.43,-0.63 -0.16,-0.78 0,-5 Z M 9,13.5 l 6,0 0,3.5 -0.16,0.78 -0.43,0.63 -0.63,0.43 -0.78,0.16 -2,0 -0.78,-0.16 -0.63,-0.43 -0.43,-0.63 -0.16,-0.78 0,-3.5 Z M 11,4.5 l -2,0 0,6 2,0 0,-2.5 2,0 0,2.5 2,0 0,-6 -2,0 0,2 -2,0 0,-2 Z" fill-rule="evenodd" fill="#000000" />
</svg>