<svg xmlns="http://www.w3.org/2000/svg" viewBox="0 0 24 24">
  <path id="rearBumperMidpoint" d="M 11.98,21 l -0.39,-0.08 -0.31,-0.21 -0.22,-0.32 -0.08,-0.39 0,-2 0.08,-0.39 0.22,-0.32 0.31,-0.21 0.39,-0.08 2,0 0,-1.5 -1,0 0,-7 1,0 0,-1.5 -2,0 -0.39,-0.08 -0.31,-0.21 -0.22,-0.32 -0.08,-0.39 0,-2 0.08,-0.39 0.22,-0.32 0.31,-0.21 0.39,-0.08 6,0 0.39,0.08 0.32,0.21 0.22,0.32 0.07,0.39 0,2 -0.07,0.39 -0.22,0.32 -0.32,0.21 -0.39,0.08 -2,0 0,1.5 1.5,0 0,0.02 1.5,-0.5 1,-1.02 1,0 0,10 -1,0 -1,-0.98 -1.5,-0.5 0,-0.02 -1.5,0 0,1.5 2,0 0.39,0.08 0.32,0.21 0.22,0.32 0.07,0.39 0,2 -0.07,0.39 -0.22,0.32 -0.32,0.21 -0.39,0.08 -6,0 Z M 11.5,15.83 l -0.52,0.17 -1.5,1 0,3 -2.5,0 0,-5.17 -0.8,-0.43 -0.63,-0.65 -0.42,-0.81 -0.15,-0.94 0.15,-0.94 0.42,-0.81 0.63,-0.65 0.8,-0.43 0,-5.17 2.5,0 0,3 1.5,1 0.52,0.17 0,7.66 Z M 9.48,12 l -0.11,-0.58 -0.33,-0.48 -0.47,-0.32 -0.59,-0.12 -0.58,0.12 -0.48,0.32 -0.32,0.48 -0.12,0.58 0.12,0.58 0.32,0.48 0.48,0.32 0.58,0.12 0.59,-0.12 0.47,-0.32 0.33,-0.48 0.11,-0.58 Z M 15.98,14 l 0.97,0 2.03,-2.02 -2.03,-1.98 -0.97,0 0.97,1.98 -0.97,2.02 Z" fill-rule="evenodd" fill="#000000" />
</svg>