<svg xmlns="http://www.w3.org/2000/svg" viewBox="0 0 24 24">
  <path id="rearAxleMidpoint" d="M 7.98,19.98 l 0,-2 0.08,-0.39 0.22,-0.31 0.31,-0.22 0.39,-0.08 2,0 0,-1.12 -0.62,-0.22 -0.57,-0.31 -0.51,-0.4 -0.44,-0.48 -0.36,-0.54 -0.27,-0.6 -0.17,-0.64 -0.06,-0.69 0.06,-0.68 0.17,-0.65 0.27,-0.59 0.36,-0.55 0.44,-0.47 0.51,-0.4 0.57,-0.31 0.62,-0.22 0,-1.13 -2,0 -0.39,-0.07 -0.31,-0.22 -0.22,-0.32 -0.08,-0.39 0,-2 0.08,-0.39 0.22,-0.31 0.31,-0.22 0.39,-0.08 6,0 0.39,0.08 0.32,0.22 0.22,0.31 0.07,0.39 0,2 -0.07,0.39 -0.22,0.32 -0.32,0.22 -0.39,0.07 -2,0 0,1.13 0.99,0.4 0.84,0.65 0.64,0.83 0.41,0.99 1.12,0 0,-2.48 1,-0.52 1.02,-1 1.98,0 0.02,10.02 -2,0 -1,-1 -1.02,-0.5 0,-2.52 -1.12,0 -0.41,0.99 -0.64,0.84 -0.84,0.64 -0.99,0.41 0,1.12 2,0 0.39,0.08 0.32,0.22 0.22,0.31 0.07,0.39 0,2 -0.07,0.39 -0.22,0.32 -0.32,0.22 -0.39,0.07 -6,0 -0.39,-0.07 -0.31,-0.22 -0.22,-0.32 -0.08,-0.39 Z M 9.48,11.98 l 0.05,0.51 0.15,0.47 0.54,0.79 0.79,0.54 0.47,0.14 0.5,0.05 0.51,-0.05 0.47,-0.14 0.79,-0.54 0.54,-0.79 0.14,-0.47 0.05,-0.51 -0.05,-0.5 -0.14,-0.47 -0.54,-0.79 -0.79,-0.54 -0.47,-0.15 -0.51,-0.05 -0.5,0.05 -0.47,0.15 -0.79,0.54 -0.54,0.79 -0.15,0.47 -0.05,0.5 Z M 3.02,14.98 l 0.96,-3 -0.96,-3 0.96,0 2.02,3 -2.02,3 -0.96,0 Z" fill-rule="evenodd" fill="#000000" />
</svg>