<svg xmlns="http://www.w3.org/2000/svg" viewBox="0 0 24 24">
  <path id="reconfigure" d="M 11.25,9.57 l -5.49,-3.14 -0.19,-0.19 -0.06,-0.24 0.06,-0.24 0.19,-0.19 5.49,-3.14 0.26,-0.07 0.24,0.07 0.18,0.18 0.07,0.25 0,1.64 1.36,0.12 1.28,0.36 1.18,0.56 1.05,0.76 0.91,0.92 0.74,1.06 0.54,1.19 0.34,1.29 -0.04,0.26 -0.16,0.2 -0.25,0.09 -0.28,-0.03 -0.81,-0.21 -0.86,-0.07 -0.15,0 -0.35,-0.11 -0.22,-0.29 -0.27,-0.65 -0.37,-0.6 -0.45,-0.52 -0.52,-0.46 -0.6,-0.36 -0.64,-0.28 -0.7,-0.17 -0.73,-0.06 0,1.64 -0.07,0.25 -0.18,0.18 -0.24,0.07 -0.26,-0.07 Z M 12,16.5 l 0.03,0.02 0.25,1.13 0.49,1.01 0.09,0.27 -0.04,0.26 -0.16,0.21 -0.25,0.09 -0.41,0.01 -1.35,-0.12 -1.28,-0.35 -1.17,-0.56 -1.05,-0.75 -0.9,-0.91 -0.74,-1.05 -0.55,-1.18 -0.35,-1.27 0.02,-0.24 0.14,-0.19 0.2,-0.1 0.25,0.01 2.3,0.66 0.2,0.12 0.14,0.19 0.67,1.11 0.96,0.86 1.17,0.57 0.66,0.15 0.68,0.05 Z M 16,15 l 0,-2 2,0 0,2 2,0 0,2 -2,0 0,2 -2,0 0,-2 -2,0 0,-2 2,0 Z M 7.67,10.76 l -0.17,1.24 0,0.06 -2.96,-0.85 0.15,-0.91 0.26,-0.87 0.28,-0.28 0.39,0.03 1.8,0.94 0.24,0.27 0.01,0.37 Z" fill-rule="evenodd" fill="#000000" />
</svg>