<svg xmlns="http://www.w3.org/2000/svg" viewBox="0 0 24 24">
  <path id="redo" d="M 15,14 l -1,0 0.6,-3 -4.6,0 -0.71,0.05 -0.65,0.14 -0.6,0.23 -0.51,0.33 -0.43,0.42 -0.32,0.52 -0.21,0.61 -0.07,0.7 0.05,0.7 0.15,0.61 0.24,0.52 0.34,0.42 0.42,0.33 0.52,0.23 0.6,0.14 0.68,0.05 2.5,0 0,2 -2.5,0 -1.31,-0.09 -1.22,-0.26 -1.1,-0.44 -0.97,-0.61 -0.79,-0.78 -0.6,-0.95 -0.38,-1.1 -0.13,-1.27 0.13,-1.31 0.38,-1.22 0.6,-1.1 0.79,-0.97 0.97,-0.79 1.1,-0.6 1.22,-0.38 1.31,-0.13 5.1,0 -0.6,-3 1,0 6,5 Z" fill-rule="evenodd" fill="#000000" />
</svg>