<svg xmlns="http://www.w3.org/2000/svg" viewBox="0 0 24 24">
  <path id="removeListItem" d="M 16,21 l -1.01,-0.1 -0.94,-0.29 -0.85,-0.46 -0.74,-0.61 -0.61,-0.74 -0.46,-0.85 -0.29,-0.94 -0.1,-1.01 0.1,-1.01 0.29,-0.94 0.46,-0.85 0.61,-0.74 0.74,-0.61 0.85,-0.46 0.94,-0.29 1.01,-0.1 1.01,0.1 0.94,0.29 0.85,0.46 0.74,0.61 0.61,0.74 0.46,0.85 0.29,0.94 0.1,1.01 -0.1,1.01 -0.29,0.94 -0.46,0.85 -0.61,0.74 -0.74,0.61 -0.85,0.46 -0.94,0.29 -1.01,0.1 Z M 10.23,13 l -0.54,1.43 -0.14,0.77 -0.05,0.8 0.05,0.8 0.14,0.77 0.54,1.43 -6.23,0 -0.39,-0.08 -0.32,-0.21 -0.21,-0.32 -0.08,-0.39 0,-4 0.08,-0.39 0.21,-0.32 0.32,-0.21 0.39,-0.08 6.23,0 Z M 4,3 l 11,0 0.39,0.08 0.32,0.21 0.21,0.32 0.08,0.39 0,1 -0.08,0.39 -0.21,0.32 -0.32,0.21 -0.39,0.08 -11,0 -0.39,-0.08 -0.32,-0.21 -0.21,-0.32 -0.08,-0.39 0,-1 0.08,-0.39 0.21,-0.32 0.32,-0.21 0.39,-0.08 Z M 4,8 l 11,0 0.39,0.08 0.32,0.21 0.21,0.32 0.08,0.39 0,0.5 -1.16,0.1 -1.09,0.3 -1,0.47 -0.9,0.63 -7.85,0 -0.39,-0.08 -0.32,-0.21 -0.21,-0.32 -0.08,-0.39 0,-1 0.08,-0.39 0.21,-0.32 0.32,-0.21 0.39,-0.08 Z M 17.77,12.84 l -1.77,1.76 -1.77,-1.76 -1.41,1.41 1.77,1.77 -1.77,1.76 1.41,1.42 1.77,-1.77 1.77,1.77 1.41,-1.42 -1.76,-1.76 1.76,-1.77 -1.41,-1.41 Z" fill-rule="evenodd" fill="#000000" />
</svg>