<svg xmlns="http://www.w3.org/2000/svg" viewBox="0 0 24 24">
  <path id="rename" d="M 12.66,2.22 l 2.34,0.78 2.34,-0.78 0.24,-0.02 0.21,0.09 0.15,0.17 0.06,0.23 0,1.31 -2,0.67 0,14.66 2,0.67 0,1.31 -0.06,0.23 -0.15,0.17 -0.21,0.09 -0.24,-0.02 -2.34,-0.78 -2.34,0.78 -0.24,0.02 -0.21,-0.09 -0.15,-0.17 -0.06,-0.23 0,-1.31 2,-0.67 0,-14.66 -2,-0.67 0,-1.31 0.06,-0.23 0.15,-0.17 0.21,-0.09 0.24,0.02 Z M 3,6 l 9.5,0 0,1.5 -9,0 0,9 9,0 0,1.5 -9.5,0 -0.39,-0.08 -0.32,-0.21 -0.21,-0.32 -0.08,-0.39 0,-10 0.08,-0.39 0.21,-0.32 0.32,-0.21 0.39,-0.08 Z M 5,9 l 7,0 0,6 -7,0 0,-6 Z M 20.5,16.5 l 0,-9 -3,0 0,-1.5 3.5,0 0.39,0.08 0.32,0.21 0.21,0.32 0.08,0.39 0,10 -0.08,0.39 -0.21,0.32 -0.32,0.21 -0.39,0.08 -3.5,0 0,-1.5 3,0 Z" fill-rule="evenodd" fill="#000000" />
</svg>