<svg xmlns="http://www.w3.org/2000/svg" viewBox="0 0 24 24">
  <path id="replay" d="M 21.58,11.24 l -0.17,0.71 -0.27,0.7 -0.39,0.68 -2.5,-1.66 0.29,-0.61 0.11,-0.63 -0.06,-0.61 -0.22,-0.57 -0.36,-0.5 -0.47,-0.4 -0.58,-0.26 -0.67,-0.09 -8.79,0 -0.5,0.05 -0.47,0.15 -0.8,0.53 -0.53,0.8 -0.15,0.47 -0.05,0.5 0,1 0.05,0.5 0.15,0.47 0.53,0.8 0.8,0.53 0.47,0.15 0.5,0.05 4,0 0,-1.96 0.14,-0.52 0.36,-0.35 0.48,-0.14 0.52,0.14 6,3.46 0.37,0.38 0.13,0.49 -0.13,0.49 -0.37,0.38 -6,3.46 -0.52,0.14 -0.48,-0.14 -0.36,-0.35 -0.14,-0.52 0,-1.96 -4,0 -1.11,-0.11 -1.03,-0.32 -0.94,-0.51 -0.81,-0.67 -0.67,-0.81 -0.51,-0.94 -0.32,-1.03 -0.11,-1.11 0,-1 0.11,-1.11 0.32,-1.03 0.51,-0.94 0.67,-0.81 0.81,-0.67 0.94,-0.51 1.03,-0.32 1.11,-0.11 8.79,0 0.78,0.05 0.74,0.16 0.68,0.25 0.64,0.34 1.08,0.9 0.8,1.13 0.5,1.3 0.14,1.4 Z" fill-rule="evenodd" fill="#000000" />
</svg>