<svg xmlns="http://www.w3.org/2000/svg" viewBox="0 0 48 48">
  <path id="replayL" d="M 42,21.97 l -0.05,-1.27 -0.22,-1.25 -0.38,-1.2 -0.53,-1.14 -0.67,-1.07 -0.81,-0.98 -0.93,-0.87 -1.05,-0.74 -1.15,-0.61 -1.26,-0.46 -1.35,-0.28 -1.43,-0.1 -16.1,0 -1.03,0.05 -1,0.15 -1.89,0.58 -1.71,0.91 -1.49,1.22 -1.23,1.46 -0.93,1.69 -0.34,0.91 -0.25,0.95 -0.15,0.99 -0.05,1.01 0,1.81 0.05,1.01 0.15,0.99 0.25,0.95 0.34,0.91 0.93,1.68 1.23,1.47 1.49,1.22 1.71,0.91 1.89,0.58 1,0.15 1.03,0.05 7.33,0 0,3.54 0.07,0.5 0.19,0.43 0.29,0.36 0.36,0.28 0.43,0.17 0.46,0.07 0.48,-0.06 0.47,-0.18 10.98,-6.25 0.4,-0.31 0.29,-0.38 0.17,-0.42 0.06,-0.46 -0.06,-0.45 -0.17,-0.43 -0.29,-0.37 -0.4,-0.31 -10.98,-6.25 -0.47,-0.19 -0.48,-0.05 -0.46,0.06 -0.43,0.18 -0.36,0.28 -0.29,0.36 -0.19,0.43 -0.07,0.49 0,3.55 -7.33,0 -0.92,-0.09 -0.86,-0.27 -0.78,-0.41 -0.67,-0.55 -0.56,-0.67 -0.43,-0.77 -0.26,-0.84 -0.1,-0.91 0,-1.81 0.1,-0.91 0.26,-0.84 0.43,-0.77 0.56,-0.67 0.67,-0.55 0.78,-0.41 0.86,-0.27 0.92,-0.09 16.1,0 1.22,0.17 1.07,0.47 0.87,0.71 0.65,0.9 0.4,1.03 0.11,1.11 -0.19,1.13 -0.54,1.1 4.58,3 0.71,-1.23 0.5,-1.26 0.32,-1.28 Z" fill-rule="evenodd" fill="#000000" />
</svg>