<svg xmlns="http://www.w3.org/2000/svg" viewBox="0 0 24 24">
  <path id="restart" d="M 11.25,9.57 l -5.49,-3.14 -0.19,-0.19 -0.06,-0.24 0.06,-0.24 0.19,-0.19 5.49,-3.14 0.26,-0.07 0.24,0.07 0.18,0.18 0.07,0.25 0,1.64 1.51,0.15 1.41,0.44 1.27,0.69 1.11,0.92 0.92,1.11 0.69,1.27 0.44,1.41 0.15,1.51 -0.15,1.51 -0.44,1.41 -0.69,1.27 -0.92,1.11 -1.11,0.92 -1.27,0.69 -1.41,0.44 -1.51,0.15 -1.35,-0.12 -1.28,-0.35 -1.17,-0.56 -1.05,-0.75 -0.9,-0.91 -0.74,-1.05 -0.55,-1.18 -0.35,-1.27 0.02,-0.24 0.14,-0.19 0.2,-0.1 0.25,0.01 2.3,0.66 0.2,0.12 0.14,0.19 0.67,1.11 0.96,0.86 1.17,0.57 0.66,0.15 0.68,0.05 0.91,-0.09 0.84,-0.26 0.77,-0.42 0.66,-0.55 0.55,-0.66 0.42,-0.77 0.26,-0.84 0.09,-0.91 -0.09,-0.91 -0.26,-0.84 -0.42,-0.77 -0.55,-0.66 -0.66,-0.55 -0.77,-0.42 -0.84,-0.26 -0.91,-0.09 0,1.64 -0.07,0.25 -0.18,0.18 -0.24,0.07 -0.26,-0.07 Z M 7.67,10.76 l -0.17,1.24 0,0.06 -2.96,-0.85 0.15,-0.91 0.26,-0.87 0.28,-0.28 0.39,0.03 1.8,0.94 0.24,0.27 0.01,0.37 Z" fill-rule="evenodd" fill="#000000" />
</svg>