<svg xmlns="http://www.w3.org/2000/svg" viewBox="0 0 24 24">
  <path id="roadEndLineDecal" d="M 7.11,7 l 1.04,0 -3.79,12 7.76,0 0,0 0.49,0 0.47,-0.11 0.34,-0.3 0.18,-0.43 -0.04,-0.47 -1.12,-3.37 -0.04,-0.48 0.18,-0.42 0.34,-0.31 0.47,-0.11 3.95,0 0.2,-0.1 0.04,-0.22 -0.8,-2.72 -0.93,-2.96 1.04,0 0.89,2.81 -0.01,0.01 1.02,3.26 0.09,0.44 -0.02,0.45 -0.11,0.43 -0.21,0.4 -2.35,3.45 -0.64,0.74 -0.8,0.55 -0.9,0.34 -0.97,0.12 -8.52,0 -0.46,-0.11 -0.34,-0.3 -0.18,-0.42 0.03,-0.47 3.7,-11.7 Z M 18.52,5.5 l -13.04,0 -0.48,-0.12 -0.35,-0.32 -0.17,-0.44 0.07,-0.49 0.2,-0.5 0.37,-0.46 0.56,-0.17 12.64,0 0.56,0.17 0.37,0.46 0.2,0.5 0.07,0.49 -0.17,0.44 -0.35,0.32 -0.48,0.12 Z M 8.27,10.5 l 3.73,-3.5 3.71,3.5 0.29,1 -4,-1.5 -4,1.5 0.27,-1 Z" fill-rule="evenodd" fill="#000000" />
</svg>