<svg xmlns="http://www.w3.org/2000/svg" viewBox="0 0 24 24">
  <path id="roadStartLineDecal" d="M 15.48,3 l 0.31,0.05 0.28,0.14 0.22,0.22 0.14,0.29 0.57,1.8 0.8,2.58 0.08,0.44 -0.01,0.45 -0.12,0.43 -0.21,0.4 -2.35,3.45 -0.61,0.7 -0.75,0.54 -0.84,0.35 -0.92,0.16 0,0 -8.55,0 -0.49,-0.13 -0.35,-0.32 -0.16,-0.45 0.08,-0.49 0.64,-1.5 0.37,-0.44 0.55,-0.17 1.01,0 2.6,-7.82 0.15,-0.28 0.22,-0.21 0.27,-0.14 0.31,-0.05 6.76,0 Z M 10.64,11.5 l 0.86,2 0.49,-0.12 0.36,-0.33 0.18,-0.45 -0.06,-0.5 -0.97,-2.6 -0.06,-0.18 -0.04,-0.48 0.18,-0.42 0.34,-0.31 0.47,-0.11 3.95,0 0.2,-0.1 0.04,-0.22 -0.8,-2.72 -0.3,-0.96 -6.76,0 -2.5,7.5 4.42,0 Z M 8.27,20.5 l 3.73,-3.5 3.71,3.5 0.29,1 -4,-1.5 -4,1.5 0.27,-1 Z M 17.38,14.07 l 1.58,-2.57 0.88,0 0.55,0.17 0.37,0.44 0.64,1.5 0.08,0.49 -0.16,0.45 -0.35,0.32 -0.49,0.13 -4,0 0.5,-0.41 0.4,-0.52 Z" fill-rule="evenodd" fill="#000000" />
</svg>