<svg xmlns="http://www.w3.org/2000/svg" viewBox="0 0 24 24">
  <path id="roadGuideArrowSolid" d="M 7,9 l 1.5,0 0.05,0.58 0.14,0.56 0.52,0.98 0.8,0.76 1.01,0.48 -0.02,0.14 0,2 0.15,0.35 0.35,0.15 1,0 0.35,-0.15 0.15,-0.35 0,-2 -0.02,-0.14 1.01,-0.48 0.8,-0.76 0.52,-0.98 0.14,-0.56 0.05,-0.58 1.5,0 0.39,0.08 0.32,0.21 0.21,0.32 0.08,0.39 0,9 -0.08,0.39 -0.21,0.32 -0.32,0.21 -0.39,0.08 -4,0 0,-2.5 -0.15,-0.35 -0.35,-0.15 -1,0 -0.35,0.15 -0.15,0.35 0,2.5 -4,0 -0.39,-0.08 -0.32,-0.21 -0.21,-0.32 -0.08,-0.39 0,-9 0.08,-0.39 0.21,-0.32 0.32,-0.21 0.39,-0.08 Z M 9.6,4.7 l 2,-2.67 0.18,-0.15 0.22,-0.05 0.22,0.05 0.18,0.15 2,2.67 0.1,0.26 -0.05,0.26 -0.18,0.2 -0.27,0.08 -1,0 0,1.77 0.41,0.31 0.31,0.41 0.21,0.48 0.07,0.53 -0.16,0.78 -0.43,0.63 -0.63,0.43 -0.78,0.16 -0.78,-0.16 -0.63,-0.43 -0.43,-0.63 -0.16,-0.78 0.07,-0.53 0.21,-0.48 0.31,-0.41 0.41,-0.31 0,-1.77 -1,0 -0.27,-0.08 -0.18,-0.2 -0.05,-0.26 0.1,-0.26 Z" fill-rule="evenodd" fill="#000000" />
</svg>