<svg xmlns="http://www.w3.org/2000/svg" viewBox="0 0 24 24">
  <path id="roadRefPathDecal" d="M 13.08,3 l 1.19,0 0.31,0.05 0.28,0.14 0.22,0.22 0.14,0.29 2.56,8.11 -0.01,0.01 1.02,3.26 0.09,0.44 -0.02,0.45 -0.11,0.43 -0.21,0.4 -2.35,3.45 -0.64,0.74 -0.8,0.55 -0.9,0.34 -0.97,0.12 -8.52,0 -0.46,-0.11 -0.34,-0.3 -0.18,-0.42 0.03,-0.47 5.37,-17 0.14,-0.29 0.22,-0.22 0.28,-0.14 0.31,-0.05 1.19,0 0,0 0.11,-0.4 0.24,-0.31 0.33,-0.21 0.4,-0.08 0.4,0.08 0.33,0.21 0.24,0.31 0.11,0.4 0,0 Z M 11.81,20 l -2.19,0 1.23,-16 -1.12,0 -5.37,17 7.76,0 0,0 0.49,0 0.47,-0.11 0.34,-0.3 0.18,-0.43 -0.04,-0.47 -1.12,-3.37 -0.04,-0.48 0.18,-0.42 0.34,-0.31 0.47,-0.11 3.95,0 0.2,-0.1 0.04,-0.22 -0.8,-2.72 -2.51,-7.96 -1.12,0 0.77,10 -0.65,0 -0.49,0.06 -0.44,0.17 -0.38,0.26 -0.31,0.34 -0.22,0.4 -0.13,0.44 -0.02,0.48 0.1,0.48 0.9,2.71 0.02,0.24 -0.09,0.21 -0.17,0.15 -0.23,0.06 Z" fill-rule="evenodd" fill="#000000" />
</svg>