<svg xmlns="http://www.w3.org/2000/svg" viewBox="0 0 24 24">
  <path id="roadFolderPlus" d="M 7,22 l -1.01,-0.1 -0.94,-0.29 -0.85,-0.46 -0.74,-0.61 -0.61,-0.74 -0.46,-0.85 -0.29,-0.94 -0.1,-1.01 0.1,-1.01 0.29,-0.94 0.46,-0.85 0.61,-0.74 0.74,-0.61 0.85,-0.46 0.94,-0.29 1.01,-0.1 1.01,0.1 0.94,0.29 0.85,0.46 0.74,0.61 0.61,0.74 0.46,0.85 0.29,0.94 0.1,1.01 -0.1,1.01 -0.29,0.94 -0.46,0.85 -0.61,0.74 -0.74,0.61 -0.85,0.46 -0.94,0.29 -1.01,0.1 Z M 10,3 l 8,0 0.39,0.08 0.32,0.21 0.21,0.32 0.08,0.39 0,6.25 -0.07,0.18 -0.18,0.07 -3.5,0 -0.18,-0.07 -0.07,-0.18 0,-0.75 -0.15,-0.35 -0.35,-0.15 -1,0 -0.35,0.15 -0.15,0.35 0,0.75 -0.07,0.18 -0.18,0.07 -3.5,0 -0.18,-0.07 -0.07,-0.18 0,-6.25 0.08,-0.39 0.21,-0.32 0.32,-0.21 0.39,-0.08 Z M 13.01,19 l -0.2,-0.11 -0.04,-0.23 0.17,-0.81 0.06,-0.85 -0.14,-1.3 -0.41,-1.21 -0.64,-1.07 -0.84,-0.92 -0.08,-0.14 0.01,-0.17 0.09,-0.13 0.16,-0.06 9.33,0 0.49,0.13 0.35,0.32 0.16,0.45 -0.08,0.49 -2.14,5 -0.37,0.44 -0.55,0.17 -5.33,0 Z M 6,15.75 l -0.07,0.18 -0.18,0.07 -2,0 -0.18,0.07 -0.07,0.18 0,1.5 0.07,0.18 0.18,0.07 2,0 0.18,0.07 0.07,0.18 0,2 0.07,0.18 0.18,0.07 1.5,0 0.18,-0.07 0.07,-0.18 0,-2 0.07,-0.18 0.18,-0.07 2,0 0.18,-0.07 0.07,-0.18 0,-1.5 -0.07,-0.18 -0.18,-0.07 -2,0 -0.18,-0.07 -0.07,-0.18 0,-2 -0.07,-0.18 -0.18,-0.07 -1.5,0 -0.18,0.07 -0.07,0.18 0,2 Z M 2.5,12.37 l 0,-5.37 0.08,-0.39 0.21,-0.32 0.32,-0.21 0.39,-0.08 1.25,0 0.18,0.07 0.07,0.18 0,4.75 -0.02,0.2 -0.16,0.21 -0.99,0.49 -0.87,0.66 -0.29,0.05 -0.12,-0.09 -0.05,-0.15 Z M 6.49,10.95 l -0.17,0.09 -0.03,0 -0.2,-0.06 -0.09,-0.19 0,-5.79 0.08,-0.39 0.21,-0.32 0.32,-0.21 0.39,-0.08 0.75,0 0.18,0.07 0.07,0.18 0,6 -0.07,0.18 -0.18,0.07 -0.41,0 -0.41,0.09 -0.33,0.24 -0.11,0.12 Z M 15,6.5 l 0,-2 -0.15,-0.35 -0.35,-0.15 -1,0 -0.35,0.15 -0.15,0.35 0,2 0.15,0.35 0.35,0.15 1,0 0.35,-0.15 0.15,-0.35 Z" fill-rule="evenodd" fill="#000000" />
</svg>