<svg xmlns="http://www.w3.org/2000/svg" viewBox="0 0 48 48">
  <path id="roadblockL" d="M 17.54,26 l 0.63,6 1.83,0 -1,4 -0.42,0 0.42,4 -3,0 -1,-1 -3,-23 7,0 -3,10 1.54,0 Z M 9.5,16 l 1,8 -2.5,15 -1,1 -3,0 3,-24 2.5,0 Z M 42,16 l 1.25,10 -2.21,0 0.63,6 -3.67,0 -1,4 -5,0 1,-4 4.59,0 -0.79,-6 1.2,0 3,-10 1,0 Z M 37,16 l -3,10 -5,0 3,-10 5,0 Z M 25,26 l -5,0 3,-10 5,0 -3,10 Z M 14.5,14 l -0.5,-0.06 -0.47,-0.18 -0.43,-0.27 -0.37,-0.37 -0.3,-0.44 -0.23,-0.51 -0.15,-0.57 -0.05,-0.6 0.05,-0.6 0.15,-0.57 0.23,-0.51 0.3,-0.44 0.37,-0.37 0.43,-0.27 0.47,-0.18 0.5,-0.06 2,0 0.5,0.06 0.47,0.18 0.43,0.27 0.37,0.37 0.3,0.44 0.23,0.51 0.15,0.57 0.05,0.6 -0.05,0.6 -0.15,0.57 -0.23,0.51 -0.3,0.44 -0.37,0.37 -0.43,0.27 -0.47,0.18 -0.5,0.06 -2,0 Z M 37.5,14 l -2,0 -0.5,-0.06 -0.47,-0.18 -0.43,-0.27 -0.37,-0.37 -0.3,-0.44 -0.23,-0.51 -0.15,-0.57 -0.05,-0.6 0.05,-0.6 0.15,-0.57 0.23,-0.51 0.3,-0.44 0.37,-0.37 0.43,-0.27 0.47,-0.18 0.5,-0.06 2,0 0.5,0.06 0.47,0.18 0.43,0.27 0.37,0.37 0.3,0.44 0.23,0.51 0.15,0.57 0.05,0.6 -0.05,0.6 -0.15,0.57 -0.23,0.51 -0.3,0.44 -0.37,0.37 -0.43,0.27 -0.47,0.18 -0.5,0.06 Z M 38.11,36 l 2.89,0 1,-4 2,0 0.5,4 -2.42,0 0.42,4 -3,0 -1,-1 -0.39,-3 Z M 24,32 l 5,0 -1,4 -5,0 1,-4 Z" fill-rule="evenodd" fill="#000000" />
</svg>