<svg xmlns="http://www.w3.org/2000/svg" viewBox="0 0 24 24">
  <path id="roadGuideArrowOutline" d="M 8.64,8 l -0.14,1 0.14,1 -1.64,0 0,8 4,0 0,-1.5 0.15,-0.35 0.35,-0.15 1,0 0.35,0.15 0.15,0.35 0,1.5 4,0 0,-8 -1.64,0 0.14,-1 -0.14,-1 2.64,0 0.39,0.08 0.32,0.21 0.21,0.32 0.08,0.39 0,10 -0.08,0.39 -0.21,0.32 -0.32,0.21 -0.39,0.08 -12,0 -0.39,-0.08 -0.32,-0.21 -0.21,-0.32 -0.08,-0.39 0,-10 0.08,-0.39 0.21,-0.32 0.32,-0.21 0.39,-0.08 2.64,0 Z M 11.58,2.2 l 0.18,-0.15 0.22,-0.05 0.22,0.05 0.18,0.15 2,2.67 0.1,0.26 -0.05,0.26 -0.18,0.2 -0.27,0.08 -1,0 0.02,1.6 0.41,0.31 0.31,0.41 0.21,0.48 0.07,0.53 -0.16,0.78 -0.43,0.63 -0.63,0.43 -0.78,0.16 -0.78,-0.16 -0.63,-0.43 -0.43,-0.63 -0.16,-0.78 0.07,-0.53 0.21,-0.48 0.31,-0.41 0.41,-0.31 -0.02,-1.6 -1,0 -0.27,-0.08 -0.18,-0.2 -0.05,-0.26 0.1,-0.26 2,-2.67 Z M 11.02,12.36 l 0.98,0.14 0.98,-0.14 0.02,0.14 0,1 -0.15,0.35 -0.35,0.15 -1,0 -0.35,-0.15 -0.15,-0.35 0,-1 0.02,-0.14 Z" fill-rule="evenodd" fill="#000000" />
</svg>