<svg xmlns="http://www.w3.org/2000/svg" viewBox="0 0 24 24">
  <path id="roadSidewalkTransition" d="M 5.92,2 l 2.08,0 0,20 -4,0 -0.39,-0.08 -0.32,-0.21 -0.21,-0.32 -0.08,-0.39 0,-8 0.08,-0.39 0.21,-0.32 0.32,-0.21 0.39,-0.08 1.92,0 0,-10 Z M 16,2 l 2,0 0,10 2,0 0.39,0.08 0.32,0.21 0.21,0.32 0.08,0.39 0,8 -0.08,0.39 -0.21,0.32 -0.32,0.21 -0.39,0.08 -4,0 0,-20 Z M 13,5.5 l -0.15,0.35 -0.35,0.15 -1,0 -0.35,-0.15 -0.15,-0.35 0,-2.5 0.15,-0.35 0.35,-0.15 1,0 0.35,0.15 0.15,0.35 0,2.5 Z M 13,11.5 l -0.15,0.35 -0.35,0.15 -1,0 -0.35,-0.15 -0.15,-0.35 0,-2.5 0.15,-0.35 0.35,-0.15 1,0 0.35,0.15 0.15,0.35 0,2.5 Z M 13,15 l 0,2.5 -0.15,0.35 -0.35,0.15 -1,0 -0.35,-0.15 -0.15,-0.35 0,-2.5 0.15,-0.35 0.35,-0.15 1,0 0.35,0.15 0.15,0.35 Z M 13,21.5 l -0.15,0.35 -0.35,0.15 -1,0 -0.35,-0.15 -0.15,-0.35 0,-0.5 0.15,-0.35 0.35,-0.15 1,0 0.35,0.15 0.15,0.35 0,0.5 Z" fill-rule="evenodd" fill="#000000" />
</svg>