<svg xmlns="http://www.w3.org/2000/svg" viewBox="0 0 24 24">
  <path id="roadRoundaboutJunction" d="M 11,2 l 0,2 2,0 0,-2 2,0 0,6 0.54,0.46 0.46,0.54 6,0 0,2 -2,0 0,2 2,0 0,2 -6,0 -0.46,0.54 -0.54,0.46 0,6 -2,0 0,-2 -2,0 0,2 -2,0 0,-6 -0.54,-0.46 -0.46,-0.54 -6,0 0,-2 2,0 0,-2 -2,0 0,-2 6,0 0.46,-0.54 0.54,-0.46 0,-6 2,0 Z M 12,15 l 0.6,-0.06 0.57,-0.18 0.51,-0.27 0.44,-0.37 0.37,-0.44 0.27,-0.51 0.18,-0.57 0.06,-0.6 -0.06,-0.6 -0.18,-0.57 -0.27,-0.51 -0.37,-0.44 -0.44,-0.37 -0.51,-0.27 -0.57,-0.18 -0.6,-0.06 -0.6,0.06 -0.57,0.18 -0.51,0.27 -0.44,0.37 -0.37,0.44 -0.27,0.51 -0.18,0.57 -0.06,0.6 0.06,0.6 0.18,0.57 0.27,0.51 0.37,0.44 0.44,0.37 0.51,0.27 0.57,0.18 0.6,0.06 Z M 17,11 l 0,2 1.5,0 0,-2 -1.5,0 Z M 11,5.5 l 0,1.5 2,0 0,-1.5 -2,0 Z M 13,17 l -2,0 0,1.5 2,0 0,-1.5 Z M 5.5,13 l 1.5,0 0,-2 -1.5,0 0,2 Z" fill-rule="evenodd" fill="#000000" />
</svg>