<svg xmlns="http://www.w3.org/2000/svg" viewBox="0 0 24 24">
  <path id="roadEditSolid" d="M 6,6 l 0.08,-0.39 0.21,-0.32 0.32,-0.21 0.39,-0.08 10,0 0.39,0.08 0.32,0.21 0.21,0.32 0.08,0.39 0,3.86 -0.13,0.23 -0.08,0.07 -4.37,4.06 -0.27,0.04 -0.15,-0.23 0,-1.53 -0.15,-0.35 -0.35,-0.15 -1,0 -0.35,0.15 -0.15,0.35 0,2 0.15,0.35 0.35,0.15 0.44,0 0.15,0.05 0.08,0.11 -0.06,0.27 -0.39,0.36 -0.29,0.51 -0.58,2.51 -0.09,0.14 -0.15,0.05 -3.61,0 -0.39,-0.08 -0.32,-0.21 -0.21,-0.32 -0.08,-0.39 0,-12 Z M 12.38,21.07 l -0.26,0 -0.21,-0.13 -0.12,-0.21 -0.01,-0.26 0.82,-3.53 0.26,-0.49 4.75,-4.74 0.33,-0.22 0.38,-0.08 0.37,0.08 0.34,0.22 2.12,2.12 0.22,0.33 0.07,0.38 -0.07,0.37 -0.22,0.33 -4.75,4.75 -0.48,0.27 -3.54,0.81 Z M 13,7.5 l -0.15,-0.35 -0.35,-0.15 -1,0 -0.35,0.15 -0.15,0.35 0,2 0.15,0.35 0.35,0.15 1,0 0.35,-0.15 0.15,-0.35 0,-2 Z" fill-rule="evenodd" fill="#000000" />
</svg>