<svg xmlns="http://www.w3.org/2000/svg" viewBox="0 0 24 24">
  <path id="roadOutlineMesh" d="M 8.8,3.74 l 0.14,-0.3 0.22,-0.23 0.28,-0.16 0.33,-0.05 4.46,0 0.33,0.05 0.28,0.16 0.22,0.23 0.14,0.3 2.96,11 0.01,0.46 -0.18,0.41 -0.34,0.28 -0.45,0.11 -10.4,0 -0.45,-0.11 -0.34,-0.28 -0.18,-0.41 0.01,-0.46 2.96,-11 Z M 4.72,17.54 l 0.27,-0.39 0.45,-0.15 0.22,0 0.27,0.06 0.2,0.17 0.11,0.24 -0.01,0.28 -0.02,0.28 0.11,0.24 0.2,0.17 0.27,0.06 10.42,0 0.27,-0.06 0.2,-0.17 0.11,-0.24 -0.02,-0.28 -0.01,-0.28 0.11,-0.24 0.2,-0.17 0.27,-0.06 0.22,0 0.45,0.15 0.27,0.39 0.34,1.18 0.03,0.47 -0.19,0.41 -0.34,0.29 -0.46,0.11 -13.32,0 -0.46,-0.11 -0.34,-0.29 -0.19,-0.41 0.03,-0.47 0.34,-1.18 Z M 7.46,14.5 l 4.04,0 0,-1.5 1,0 0,1.5 4.04,0 -0.67,-2.5 -7.74,0 -0.67,2.5 Z M 12.5,8 l 2.29,0 -0.4,-1.5 -4.78,0 -0.4,1.5 2.29,0 0,-0.5 1,0 0,0.5 Z M 12.5,11 l 3.1,0 -0.54,-2 -2.56,0 0,2 Z M 11.5,11 l 0,-2 -2.56,0 -0.54,2 3.1,0 Z M 14.12,5.5 l -0.27,-1 -3.7,0 -0.27,1 4.24,0 Z" fill-rule="evenodd" fill="#000000" />
</svg>