<svg xmlns="http://www.w3.org/2000/svg" viewBox="0 0 24 24">
  <path id="roadFolder" d="M 2.5,19 l 0,-11 0.08,-0.39 0.21,-0.32 0.32,-0.21 0.39,-0.08 1.5,0 0,5 -0.5,5 0.5,0 1.72,-3.45 0.37,-0.4 0.53,-0.15 12.86,0 0.49,0.13 0.35,0.32 0.16,0.45 -0.08,0.49 -2.14,5 -0.37,0.44 -0.55,0.17 -14.84,0 -0.39,-0.08 -0.32,-0.21 -0.21,-0.32 -0.08,-0.39 Z M 9,5 l 0.08,-0.39 0.21,-0.32 0.32,-0.21 0.39,-0.08 8,0 0.39,0.08 0.32,0.21 0.21,0.32 0.08,0.39 0,6.5 -4,0 0,-1 -0.15,-0.35 -0.35,-0.15 -1,0 -0.35,0.15 -0.15,0.35 0,1 -4,0 0,-6.5 Z M 7.1,5 l 0.9,0 0,6.5 -0.62,0 -0.44,0.1 -0.35,0.28 -0.49,0.62 0,-6.5 0.08,-0.39 0.21,-0.32 0.32,-0.21 0.39,-0.08 Z M 15,5.5 l -0.15,-0.35 -0.35,-0.15 -1,0 -0.35,0.15 -0.15,0.35 0,2 0.15,0.35 0.35,0.15 1,0 0.35,-0.15 0.15,-0.35 0,-2 Z" fill-rule="evenodd" fill="#000000" />
</svg>