<svg xmlns="http://www.w3.org/2000/svg" viewBox="0 0 24 24">
  <path id="roadStack" d="M 3.5,3 l 10,0 0.39,0.08 0.32,0.21 0.21,0.32 0.08,0.39 0,16 -0.08,0.39 -0.21,0.32 -0.32,0.21 -0.39,0.08 -4,0 0,-4.5 -0.15,-0.35 -0.35,-0.15 -1,0 -0.35,0.15 -0.15,0.35 0,4.5 -4,0 -0.39,-0.08 -0.32,-0.21 -0.21,-0.32 -0.08,-0.39 0,-16 0.08,-0.39 0.21,-0.32 0.32,-0.21 0.39,-0.08 Z M 16,20 l 0,-16 0.5,0 0.39,0.08 0.32,0.21 0.21,0.32 0.08,0.39 0.04,14 -0.08,0.39 -0.21,0.32 -0.32,0.21 -0.39,0.08 -0.54,0 Z M 19,19 l 0,-14 0.5,0 0.39,0.08 0.32,0.21 0.21,0.32 0.08,0.39 0.04,12 -0.08,0.39 -0.21,0.32 -0.32,0.21 -0.39,0.08 -0.54,0 Z M 9.5,9.5 l -0.15,-0.35 -0.35,-0.15 -1,0 -0.35,0.15 -0.15,0.35 0,2.5 0.15,0.36 0.35,0.14 1,0 0.35,-0.14 0.15,-0.36 0,-2.5 Z M 9.5,5.5 l -0.15,-0.35 -0.35,-0.15 -1,0 -0.35,0.15 -0.15,0.35 0,0.5 0.15,0.36 0.35,0.14 1,0 0.35,-0.14 0.15,-0.36 0,-0.5 Z" fill-rule="evenodd" fill="#000000" />
</svg>