<svg xmlns="http://www.w3.org/2000/svg" viewBox="0 0 24 24">
  <path id="roadMarkingSolid" d="M 9.75,5.12 l 0.19,-1.02 0.06,-1.1 2.5,0 0.35,0.15 0.14,0.35 -0.11,1.21 -0.24,1.21 -0.36,1.17 -0.47,1.11 -2.46,4.93 -0.59,1.36 -0.42,1.41 -0.25,1.46 -0.09,1.47 0,1.67 -0.15,0.35 -0.35,0.15 -2.5,0 -0.39,-0.08 -0.32,-0.21 -0.21,-0.32 -0.08,-0.39 0,-11.38 0.05,-0.23 0.64,-1.16 0.86,-1.7 0.29,-0.93 0.15,-1.1 0.16,-0.35 0.35,-0.15 2.5,0 -0.06,0.98 -0.16,0.9 0.97,0.24 Z M 15,3 l 0.36,0.15 0.15,0.35 0.13,1.28 0.21,1.49 0.59,3.31 0.07,0.37 0.37,2.01 0.32,1.91 0.22,1.71 0.08,1.42 0,4 -1,0 0,-0.56 -5.34,-5.34 -0.47,1.65 4.25,4.25 -1.88,0 -2.56,-2.56 0,0.27 0,1.85 0.44,0.44 -1.44,0 0,-2.17 0.08,-1.3 0.22,-1.28 0.37,-1.25 0.52,-1.2 2.46,-4.93 0.54,-1.27 0.41,-1.34 0.27,-1.38 0.12,-1.38 0.16,-0.35 0.35,-0.15 Z M 19,20.5 l 0,-3.5 -0.09,-1.55 -0.23,-1.8 -0.33,-1.97 -0.36,-2 -0.05,-0.24 -0.31,-1.72 -0.28,-1.6 -0.21,-1.42 -0.12,-1.2 0.13,-0.35 0.35,-0.15 1.5,0 0.39,0.08 0.32,0.21 0.21,0.32 0.08,0.39 0,16 -0.14,0.52 -0.38,0.36 -0.18,0.03 -0.15,-0.07 -0.15,-0.34 Z M 16.49,16.43 l -4.04,-4.04 -0.71,1.41 4.76,4.76 0,-1.68 -0.01,-0.45 Z M 15.86,11.8 l -2.08,-2.08 -0.7,1.42 3.19,3.19 -0.19,-1.22 -0.22,-1.31 Z M 7.94,9.27 l 0.56,-1.04 -0.89,-0.46 -0.53,0.98 -0.77,1.44 -0.77,1.61 0.92,0.4 0.73,-1.54 0.75,-1.39 Z M 14.96,6.9 l -0.01,-0.01 -0.56,1.56 1.04,1.04 -0.47,-2.59 Z" fill-rule="evenodd" fill="#000000" />
</svg>