<svg xmlns="http://www.w3.org/2000/svg" viewBox="0 0 24 24">
  <path id="roadEdgeLineDecal" d="M 6.18,22.23 l -0.13,0.31 -0.22,0.24 -0.29,0.16 -0.33,0.06 -1.82,0 -0.47,-0.11 -0.34,-0.31 -0.18,-0.42 0.04,-0.48 6.33,-18.99 0.15,-0.28 0.22,-0.22 0.27,-0.14 0.32,-0.05 0.44,0.1 0.35,0.28 0.19,0.4 -0.01,0.46 -4.52,18.99 Z M 17.78,11.81 l -0.01,0.01 1.02,3.26 0.09,0.44 -0.02,0.45 -0.11,0.43 -0.21,0.4 -2.35,3.45 -0.64,0.74 -0.8,0.55 -0.9,0.34 -0.97,0.12 -5.17,0 0.22,-1 4.19,0 0,0 0.49,0 0.47,-0.11 0.34,-0.3 0.18,-0.43 -0.04,-0.47 -1.12,-3.37 -0.04,-0.48 0.18,-0.42 0.34,-0.31 0.47,-0.11 3.95,0 0.2,-0.1 0.04,-0.22 -0.8,-2.72 -2.51,-7.96 -2.7,0 0.22,-1 2.48,0 0.31,0.05 0.28,0.14 0.22,0.22 0.14,0.29 2.56,8.11 Z" fill-rule="evenodd" fill="#000000" />
</svg>