<svg xmlns="http://www.w3.org/2000/svg" viewBox="0 0 24 24">
  <path id="roadRefPath" d="M 13.05,3 l 0.93,16.95 -0.12,0.79 -0.41,0.65 -0.63,0.45 -0.78,0.16 -0.78,-0.16 -0.63,-0.44 -0.4,-0.65 -0.13,-0.79 0.85,-16.96 0.1,-0.39 0.23,-0.32 0.32,-0.21 0.4,-0.08 0.4,0.08 0.33,0.21 0.23,0.31 0.09,0.4 Z M 16.54,14.5 l -2.69,-10 -0.09,0 -0.15,-1.5 0.62,0 0.33,0.05 0.28,0.16 0.22,0.23 0.14,0.3 2.96,11 0.01,0.46 -0.18,0.41 -0.34,0.28 -0.45,0.11 -2.23,0 -0.15,-1.5 1.72,0 Z M 9.77,3 l 0.62,0 -0.15,1.5 -0.09,0 -2.69,10 1.72,0 -0.15,1.5 -2.23,0 -0.45,-0.11 -0.34,-0.28 -0.18,-0.41 0.01,-0.46 2.96,-11 0.14,-0.3 0.22,-0.23 0.28,-0.16 0.33,-0.05 Z M 15.24,18.5 l 1.97,0 0.27,-0.06 0.2,-0.17 0.11,-0.24 -0.02,-0.28 -0.01,-0.28 0.11,-0.24 0.2,-0.17 0.27,-0.06 0.22,0 0.45,0.15 0.27,0.39 0.34,1.18 0.03,0.47 -0.19,0.41 -0.34,0.29 -0.46,0.11 -3.27,0 -0.15,-1.5 Z M 6.79,18.5 l 1.97,0 -0.15,1.5 -3.27,0 -0.46,-0.11 -0.34,-0.29 -0.19,-0.41 0.03,-0.47 0.34,-1.18 0.27,-0.39 0.45,-0.15 0.22,0 0.27,0.06 0.2,0.17 0.11,0.24 -0.01,0.28 -0.02,0.28 0.11,0.24 0.2,0.17 0.27,0.06 Z" fill-rule="evenodd" fill="#000000" />
</svg>