<svg xmlns="http://www.w3.org/2000/svg" viewBox="0 0 24 24">
  <path id="roadStackPlus" d="M 14.5,12.62 l 0,7.38 -0.08,0.39 -0.21,0.32 -0.32,0.21 -0.39,0.08 -3.75,0 -0.18,-0.07 -0.07,-0.18 0,-4.25 -0.15,-0.35 -0.35,-0.15 -1,0 -0.35,0.15 -0.15,0.35 0,4.25 -0.07,0.18 -0.18,0.07 -3.75,0 -0.39,-0.08 -0.32,-0.21 -0.21,-0.32 -0.08,-0.39 0,-16 0.08,-0.39 0.21,-0.32 0.32,-0.21 0.39,-0.08 8.47,0 0.23,0.15 -0.03,0.28 -0.49,0.79 -0.37,0.87 -0.23,0.93 -0.08,0.98 0.06,0.87 0.18,0.83 0.3,0.79 0.39,0.72 0.49,0.67 0.57,0.59 0.65,0.5 0.72,0.42 0.14,0.23 Z M 22,7 l -0.1,1.01 -0.29,0.94 -0.46,0.85 -0.61,0.74 -0.74,0.61 -0.85,0.46 -0.94,0.29 -1.01,0.1 -1.01,-0.1 -0.94,-0.29 -0.85,-0.46 -0.74,-0.61 -0.61,-0.74 -0.46,-0.85 -0.29,-0.94 -0.1,-1.01 0.1,-1.01 0.29,-0.94 0.46,-0.85 0.61,-0.74 0.74,-0.61 0.85,-0.46 0.94,-0.29 1.01,-0.1 1.01,0.1 0.94,0.29 0.85,0.46 0.74,0.61 0.61,0.74 0.46,0.85 0.29,0.94 0.1,1.01 Z M 15.75,6 l -2,0 -0.18,0.07 -0.07,0.18 0,1.5 0.07,0.18 0.18,0.07 2,0 0.18,0.07 0.07,0.18 0,2 0.07,0.18 0.18,0.07 1.5,0 0.18,-0.07 0.07,-0.18 0,-2 0.07,-0.18 0.18,-0.07 2,0 0.18,-0.07 0.07,-0.18 0,-1.5 -0.07,-0.18 -0.18,-0.07 -2,0 -0.18,-0.07 -0.07,-0.18 0,-2 -0.07,-0.18 -0.18,-0.07 -1.5,0 -0.18,0.07 -0.07,0.18 0,2 -0.07,0.18 -0.18,0.07 Z M 17.52,13.25 l 0.02,5.75 -0.08,0.39 -0.21,0.32 -0.32,0.21 -0.39,0.08 -0.29,0 -0.18,-0.07 -0.07,-0.18 0,-6.54 0.09,-0.19 0.2,-0.06 0.71,0.04 0.25,-0.01 0.19,0.07 0.08,0.19 Z M 19,12.84 l 0.05,-0.15 0.12,-0.09 0.94,-0.47 0.27,-0.01 0.14,0.23 0.02,5.65 -0.08,0.39 -0.21,0.32 -0.32,0.21 -0.39,0.08 -0.29,0 -0.18,-0.07 -0.07,-0.18 0,-5.91 Z M 9.5,9.5 l -0.15,-0.35 -0.35,-0.15 -1,0 -0.35,0.15 -0.15,0.35 0,2.5 0.15,0.36 0.35,0.14 1,0 0.35,-0.14 0.15,-0.36 0,-2.5 Z M 9.5,5.5 l -0.15,-0.35 -0.35,-0.15 -1,0 -0.35,0.15 -0.15,0.35 0,0.5 0.15,0.36 0.35,0.14 1,0 0.35,-0.14 0.15,-0.36 0,-0.5 Z" fill-rule="evenodd" fill="#000000" />
</svg>