<svg xmlns="http://www.w3.org/2000/svg" viewBox="0 0 24 24">
  <path id="roadDividerLinesDecal" d="M 2.36,22 l -0.46,-0.11 -0.34,-0.3 -0.18,-0.42 0.03,-0.47 5.37,-17 0.14,-0.29 0.22,-0.22 0.28,-0.14 0.31,-0.05 1.67,0 0.03,-0.3 0.08,-0.28 0.17,-0.22 0.24,-0.15 0.29,-0.05 0.3,0.06 0.25,0.17 0.17,0.26 0.05,0.3 -0.46,19.23 -0.08,0.39 -0.22,0.31 -0.31,0.2 -0.39,0.08 -0.92,0 -0.39,-0.08 -0.32,-0.22 -0.21,-0.31 -0.08,-0.39 -5.24,0 Z M 19.78,11.81 l -0.01,0.01 1.02,3.26 0.09,0.44 -0.02,0.45 -0.11,0.43 -0.21,0.4 -2.35,3.45 -0.64,0.74 -0.8,0.55 -0.9,0.34 -0.97,0.12 -1.88,0 0,-1 1.61,0 0.47,-0.11 0.34,-0.3 0.18,-0.43 -0.04,-0.47 -1.12,-3.37 -0.04,-0.48 0.18,-0.42 0.34,-0.31 0.47,-0.11 3.95,0 0.2,-0.1 0.04,-0.22 -0.8,-2.72 -2.51,-7.96 -1.58,0 0.91,9.5 -0.83,0 -0.83,0.18 -0.65,0.48 -0.27,-11.37 0.05,-0.3 0.17,-0.26 0.25,-0.17 0.3,-0.06 0.29,0.05 0.24,0.15 0.17,0.22 0.08,0.28 0.03,0.3 1.67,0 0.31,0.05 0.28,0.14 0.22,0.22 0.14,0.29 2.56,8.11 Z M 9.31,4 l -1.58,0 -5.37,17 5.33,0 1.62,-17 Z M 13.61,19.69 l -0.19,0.1 -0.05,-2.17 0.49,1.47 -0.01,0.35 -0.24,0.25 Z" fill-rule="evenodd" fill="#000000" />
</svg>