<svg xmlns="http://www.w3.org/2000/svg" viewBox="0 0 24 24">
  <path id="road" d="M 11.46,2 l -0.14,2 1.36,0 -0.14,-2 2.07,0 0.31,0.1 0.18,0.27 4.73,18 0.01,0.23 -0.09,0.21 -0.17,0.14 -0.23,0.05 -5.42,0 -0.19,-2.5 -3.48,0 -0.19,2.5 -5.42,0 -0.23,-0.05 -0.17,-0.14 -0.09,-0.21 0.01,-0.23 4.73,-18 0.18,-0.27 0.31,-0.1 2.07,0 Z M 4.53,13.17 l -0.25,0.38 -0.4,0.15 -0.41,-0.08 -0.32,-0.33 -0.08,-0.29 0.05,-0.31 3.7,-9.71 0.24,-0.21 0.3,0.09 0.09,0.33 -2.92,9.98 Z M 19.47,13.17 l -2.92,-9.98 0.09,-0.33 0.3,-0.09 0.24,0.21 3.7,9.71 0.05,0.31 -0.08,0.29 -0.32,0.33 -0.41,0.08 -0.4,-0.15 -0.25,-0.38 Z M 13.49,15 l -0.29,-4 -2.4,0 -0.29,4 2.98,0 Z M 12.98,8 l -0.15,-2 -1.66,0 -0.15,2 1.96,0 Z" fill-rule="evenodd" fill="#000000" />
</svg>