<svg xmlns="http://www.w3.org/2000/svg" viewBox="0 0 24 24">
  <path id="roadEditOutline" d="M 6,4 l 12,0 0.39,0.08 0.32,0.21 0.21,0.32 0.08,0.39 0,4.59 -0.14,0.23 -0.28,0.07 -0.42,0.05 -0.37,0.22 -0.37,0.34 -0.27,0.05 -0.15,-0.23 0,-4.07 -0.07,-0.18 -0.18,-0.07 -9.5,0 -0.18,0.07 -0.07,0.18 0,11.5 0.07,0.18 0.18,0.07 3.47,0 0.2,0.09 0.05,0.22 -0.35,1.5 -0.09,0.14 -0.15,0.05 -4.38,0 -0.39,-0.08 -0.32,-0.21 -0.21,-0.32 -0.08,-0.39 0,-14 0.08,-0.39 0.21,-0.32 0.32,-0.21 0.39,-0.08 Z M 12.38,21.07 l -0.26,0 -0.21,-0.13 -0.12,-0.21 -0.01,-0.26 0.82,-3.53 0.26,-0.49 4.75,-4.74 0.33,-0.22 0.38,-0.08 0.37,0.08 0.34,0.22 2.12,2.12 0.22,0.33 0.07,0.38 -0.07,0.37 -0.22,0.33 -4.75,4.75 -0.48,0.27 -3.54,0.81 Z M 13,7.5 l 0,2 -0.15,0.35 -0.35,0.15 -1,0 -0.35,-0.15 -0.15,-0.35 0,-2 0.15,-0.35 0.35,-0.15 1,0 0.35,0.15 0.15,0.35 Z M 13,14.5 l 0,0.05 -0.07,0.12 -0.29,0.27 -0.13,0.06 -0.01,0 -1,0 -0.35,-0.15 -0.15,-0.35 0,-2 0.15,-0.35 0.35,-0.15 1,0 0.35,0.15 0.15,0.35 0,2 Z" fill-rule="evenodd" fill="#000000" />
</svg>