<svg xmlns="http://www.w3.org/2000/svg" viewBox="0 0 24 24">
  <path id="roadInfo" d="M 9.32,2.98 l -0.24,1.65 -0.46,0.88 -0.34,0.95 -0.21,1 -0.07,1.04 0.16,1.56 0.47,1.45 -0.27,4.99 2.98,0 -0.1,-1.82 0.96,0.55 1.03,0.42 1.11,0.26 1.16,0.09 0.99,-0.06 1.2,4.43 0,0.23 -0.09,0.21 -0.17,0.14 -0.23,0.05 -5.42,0 -0.18,-2.5 -3.49,0 -0.19,2.5 -5.42,0 -0.23,-0.05 -0.17,-0.14 -0.09,-0.21 0.01,-0.23 4.33,-16.87 0.19,-0.34 0.31,-0.18 2.47,0 Z M 15.5,14 l -1.11,-0.11 -1.03,-0.32 -0.94,-0.51 -0.81,-0.67 -0.67,-0.81 -0.51,-0.94 -0.32,-1.03 -0.11,-1.11 0.11,-1.11 0.32,-1.03 0.51,-0.94 0.67,-0.81 0.81,-0.67 0.94,-0.51 1.03,-0.32 1.11,-0.11 1.11,0.11 1.03,0.32 0.94,0.51 0.81,0.67 0.67,0.81 0.51,0.94 0.32,1.03 0.11,1.11 -0.11,1.11 -0.32,1.03 -0.51,0.94 -0.67,0.81 -0.81,0.67 -0.94,0.51 -1.03,0.32 -1.11,0.11 Z M 14.5,7.5 l 0,5 2,0 0,-5 -2,0 Z M 15.5,4.5 l -0.39,0.08 -0.32,0.21 -0.21,0.32 -0.08,0.39 0.08,0.39 0.21,0.32 0.32,0.21 0.39,0.08 0.39,-0.08 0.32,-0.21 0.21,-0.32 0.08,-0.39 -0.08,-0.39 -0.21,-0.32 -0.32,-0.21 -0.39,-0.08 Z" fill-rule="evenodd" fill="#000000" />
</svg>