<svg xmlns="http://www.w3.org/2000/svg" viewBox="0 0 24 24">
  <path id="roadMarkingOutline" d="M 9.5,20.5 l -0.15,0.35 -0.35,0.15 -0.5,0 -0.35,-0.15 -0.15,-0.35 0,-1.67 0.09,-1.47 0.25,-1.46 0.42,-1.41 0.59,-1.36 2.46,-4.93 0.47,-1.11 0.36,-1.17 0.24,-1.21 0.11,-1.21 0.16,-0.35 0.35,-0.15 0.5,0 0.35,0.15 0.14,0.35 -0.12,1.38 -0.27,1.38 -0.41,1.34 -0.54,1.27 -2.46,4.93 -0.52,1.2 -0.37,1.25 -0.22,1.28 -0.08,1.3 0,1.67 Z M 18,21 l -0.35,-0.15 -0.15,-0.35 0,-3.5 -0.08,-1.42 -0.22,-1.71 -0.32,-1.91 -0.37,-2.01 -0.07,-0.37 -0.59,-3.31 -0.21,-1.49 -0.13,-1.28 0.14,-0.35 0.35,-0.15 0.5,0 0.36,0.15 0.16,0.35 0.12,1.2 0.21,1.42 0.28,1.6 0.31,1.72 0.05,0.24 0.36,2 0.33,1.97 0.23,1.8 0.09,1.55 0,3.5 -0.15,0.35 -0.35,0.15 -0.5,0 Z M 16.5,21 l -1.56,0 -4.25,-4.25 0.47,-1.65 5.34,5.34 0,0.56 Z M 16.49,16.43 l 0.01,0.45 0,1.68 -4.76,-4.76 0.71,-1.41 4.04,4.04 Z M 4.69,7.23 l -0.18,0.15 -0.23,0.01 -0.2,-0.12 -0.08,-0.22 0,-3.05 0.08,-0.39 0.21,-0.32 0.32,-0.21 0.39,-0.08 0.5,0 0.35,0.15 0.14,0.35 -0.15,1.1 -0.29,0.93 -0.86,1.7 Z M 15.86,11.8 l 0.22,1.31 0.19,1.22 -3.19,-3.19 0.7,-1.42 2.08,2.08 Z M 7.94,9.27 l -0.75,1.39 -0.73,1.54 -0.92,-0.4 0.77,-1.61 0.77,-1.44 0.53,-0.98 0.89,0.46 -0.56,1.04 Z M 13.06,21 l -2.12,0 -0.44,-0.44 0,-1.85 0,-0.27 2.56,2.56 Z M 9,3 l 1,0 -0.06,1.1 -0.19,1.02 -0.97,-0.24 0.16,-0.9 0.06,-0.98 Z" fill-rule="evenodd" fill="#000000" />
</svg>