<svg xmlns="http://www.w3.org/2000/svg" viewBox="0 0 24 24">
  <path id="rockCrawling01" d="M 13.19,3.25 l 1.4,0 0.67,0.13 0.56,0.38 0.41,0.41 0.37,0.54 0.14,0.62 -0.09,0.62 -0.31,0.57 0.48,0.65 0.18,0.83 -0.16,0.78 -0.43,0.63 -0.63,0.43 -0.78,0.16 -0.55,-0.08 -0.48,-0.21 -0.41,-0.32 -0.31,-0.43 -3.66,2.83 0.3,0.56 0.11,0.65 -0.16,0.78 -0.43,0.63 -0.63,0.43 -0.78,0.16 -0.48,-0.06 -0.43,-0.16 -0.38,-0.26 -0.32,-0.33 -0.56,0.14 -0.57,-0.05 -0.53,-0.23 -0.44,-0.41 -0.73,-0.98 -0.22,-0.39 -0.12,-0.44 -0.39,-3.17 0,-0.46 0.12,-0.43 0.22,-0.39 0.32,-0.32 3.69,-2.87 0.67,-0.32 0.75,-0.02 1.76,0.36 0.14,-0.02 2.04,-0.81 0.65,-0.13 Z M 15,20 l 0,-3 -2,-2 2,-4 4,-2 2,1 1,5 -2,5 -2,1 -1,0 -2,-1 Z M 14.57,6.05 l 0.57,-0.45 0.1,-0.18 -0.07,-0.19 -0.41,-0.41 -0.17,-0.07 -1.4,0 -0.09,0.02 -2.05,0.82 -0.49,0.11 -0.5,-0.02 -1.76,-0.35 -0.2,0.04 -3.69,2.87 -0.1,0.23 0.4,3.17 0.05,0.12 0.73,0.98 0.17,0.1 0.18,-0.05 0.19,-0.15 0.24,-0.65 0.44,-0.52 0.59,-0.34 0.7,-0.13 0.15,0.01 5.07,-3.92 0.55,-0.67 0.37,-0.23 0.43,-0.14 Z M 5,20 l -1,-2 3.18,-2 3.82,0 2,2 -1,2 -3,1 -2,0 -2,-1 Z" fill-rule="evenodd" fill="#000000" />
</svg>