<svg xmlns="http://www.w3.org/2000/svg" viewBox="0 0 48 48">
  <path id="rotationL" d="M 41,24 l -4.53,0 -0.19,2.14 -0.54,2.06 -0.89,1.94 -1.21,1.77 -1.5,1.53 -1.73,1.25 -1.92,0.94 -2.06,0.6 -2.13,0.23 -2.13,-0.13 -2.07,-0.49 -1.98,-0.85 -1.8,-1.17 -1.56,-1.45 -1.29,-1.69 -0.99,-1.91 -0.65,-2.05 -0.28,-2.11 0.08,-2.13 0.44,-2.1 0.8,-1.99 1.12,-1.82 1.41,-1.59 1.67,-1.35 1.89,-1.03 2.01,-0.69 2.11,-0.34 2.14,0.02 1.36,0.21 1.31,0.36 1.27,0.49 1.2,0.63 -2.51,1.88 -0.26,0.28 -0.15,0.31 -0.04,0.34 0.06,0.34 0.15,0.3 0.23,0.24 0.31,0.17 0.38,0.06 9.5,0 0.57,-0.15 0.39,-0.39 0.16,-0.52 -0.15,-0.56 -0.8,-1.26 -0.85,-1.07 -0.95,-0.98 -1.13,-1 -1.03,-0.84 -1.09,-0.76 -1.15,-0.67 -1.19,-0.58 -1.24,-0.48 -1.27,-0.39 -1.31,-0.28 -1.32,-0.19 -1.47,-0.08 -1.46,0.05 -1.45,0.17 -1.42,0.29 -1.39,0.41 -1.36,0.53 -1.31,0.65 -1.25,0.77 -1.19,0.86 -1.1,0.97 -1.01,1.04 -0.91,1.13 -0.82,1.21 -0.71,1.27 -0.6,1.33 -0.49,1.39 -0.36,1.42 -0.24,1.44 -0.12,1.45 0.01,1.45 0.13,1.45 0.26,1.43 0.38,1.42 0.5,1.38 0.62,1.33 0.73,1.26 0.83,1.2 0.93,1.12 1.02,1.03 1.11,0.95 1.19,0.84 1.27,0.75 1.32,0.64 1.37,0.52 1.4,0.39 1.43,0.28 1.44,0.15 1.46,0.03 1.45,-0.1 1.46,-0.23 1.42,-0.35 1.39,-0.46 1.33,-0.59 1.28,-0.69 1.21,-0.8 1.15,-0.9 1.06,-1 0.98,-1.1 0.88,-1.17 0.78,-1.24 0.66,-1.3 0.55,-1.34 0.43,-1.39 0.31,-1.42 0.19,-1.45 Z" fill-rule="evenodd" fill="#000000" />
</svg>