<svg xmlns="http://www.w3.org/2000/svg" viewBox="0 0 24 24">
  <path id="routeSimpleFlag" d="M 14.5,2 l 1.5,1.5 1.5,-1.5 1.5,1.5 -1.5,1.5 1.5,1.5 1.5,-1.5 1.5,1.5 -1.5,1.5 -1.5,-1.5 -0.75,0.75 1.5,1.5 -0.25,0.25 -0.23,0.16 -0.27,0.05 -0.27,-0.05 -0.23,-0.16 -1.5,1.5 -1.5,-1.5 -1.29,1.29 7,7 -1.42,1.42 -10.79,-10.71 1,-2.5 1,-1 1.5,1.5 1.5,-1.5 -1.5,-1.5 0.03,-0.05 0.23,-0.28 0.33,-0.13 0.35,0.02 0.31,0.19 0.75,-0.75 Z M 9,5 l -3,5 -0.63,-1.9 -0.55,0.29 -0.43,0.43 -0.29,0.55 -0.1,0.63 0.16,0.78 0.43,0.63 0.63,0.43 0.78,0.16 5.5,0 0.11,0 3.89,3.85 0,0.15 -0.08,0.81 -0.23,0.75 -0.37,0.68 -0.49,0.59 -0.59,0.49 -0.68,0.37 -0.75,0.23 -0.81,0.08 -3.27,0 -0.31,0.41 -0.41,0.31 -0.48,0.21 -0.53,0.07 -0.78,-0.16 -0.63,-0.43 -0.43,-0.63 -0.16,-0.78 0.16,-0.78 0.43,-0.63 0.63,-0.43 0.78,-0.16 0.53,0.07 0.48,0.21 0.41,0.31 0.31,0.41 3.27,0 0.78,-0.16 0.63,-0.43 0.43,-0.63 0.16,-0.78 -0.16,-0.78 -0.43,-0.63 -0.63,-0.43 -0.78,-0.16 -5.5,0 -0.81,-0.08 -0.75,-0.23 -0.68,-0.37 -0.59,-0.49 -0.49,-0.59 -0.37,-0.68 -0.23,-0.75 -0.08,-0.81 0.17,-1.17 0.49,-1.03 0.74,-0.84 0.95,-0.61 -1.35,-1.35 6,0 Z M 14,7.5 l 1.5,1.5 1.5,-1.5 -1.5,-1.5 -1.5,1.5 Z M 14,7.5 l -1.5,-1.5 -1.29,1.29 1.5,1.5 1.29,-1.29 Z M 16,3.5 l -0.75,0.75 1.5,1.5 0.75,-0.75 -1.5,-1.5 Z" fill-rule="evenodd" fill="#000000" />
</svg>