<svg xmlns="http://www.w3.org/2000/svg" viewBox="0 0 24 24">
  <path id="routeSimple" d="M 15,6 l -5,3 0,-2 -2,0 -0.78,0.16 -0.63,0.43 -0.43,0.63 -0.16,0.78 0.16,0.78 0.43,0.63 0.63,0.43 0.78,0.16 7,0 0.81,0.08 0.75,0.23 0.68,0.37 0.59,0.49 0.49,0.59 0.37,0.68 0.23,0.75 0.08,0.81 -0.08,0.81 -0.23,0.75 -0.37,0.68 -0.49,0.59 -0.59,0.49 -0.68,0.37 -0.75,0.23 -0.81,0.08 -3.27,0 -0.31,0.41 -0.41,0.31 -0.48,0.21 -0.53,0.07 -0.78,-0.16 -0.63,-0.43 -0.43,-0.63 -0.16,-0.78 0.16,-0.78 0.43,-0.63 0.63,-0.43 0.78,-0.16 0.53,0.07 0.48,0.21 0.41,0.31 0.31,0.41 3.27,0 0.78,-0.16 0.63,-0.43 0.43,-0.63 0.16,-0.78 -0.16,-0.78 -0.43,-0.63 -0.63,-0.43 -0.78,-0.16 -7,0 -0.81,-0.08 -0.75,-0.23 -0.68,-0.37 -0.59,-0.49 -0.49,-0.59 -0.37,-0.68 -0.23,-0.75 -0.08,-0.81 0.08,-0.81 0.23,-0.75 0.37,-0.68 0.49,-0.59 0.59,-0.49 0.68,-0.37 0.75,-0.23 0.81,-0.08 2,0 0,-2 5,3 Z M 18,8 l -0.78,-0.16 -0.63,-0.43 -0.43,-0.63 -0.16,-0.78 0.16,-0.78 0.43,-0.63 0.63,-0.43 0.78,-0.16 0.78,0.16 0.63,0.43 0.43,0.63 0.16,0.78 -0.16,0.78 -0.43,0.63 -0.63,0.43 -0.78,0.16 Z" fill-rule="evenodd" fill="#000000" />
</svg>