<svg xmlns="http://www.w3.org/2000/svg" viewBox="0 0 24 24">
  <path id="routeComplex" d="M 13.93,14.68 l 0.37,-0.16 0.38,0 0.36,0.14 0.28,0.27 0.19,0.27 0.33,0.57 0.23,0.59 0.16,1.17 -0.18,1.14 -0.5,1.03 -0.76,0.85 -0.98,0.61 -1.15,0.3 -0.62,0.02 -0.66,-0.09 -4.9,-1.05 -0.65,0.48 -0.83,0.18 -0.78,-0.16 -0.63,-0.43 -0.43,-0.63 -0.16,-0.78 0.16,-0.78 0.43,-0.63 0.63,-0.43 0.78,-0.16 0.64,0.1 0.55,0.29 0.43,0.44 0.28,0.56 4.9,1.04 0.64,0.04 0.58,-0.15 0.49,-0.3 0.38,-0.43 0.24,-0.52 0.1,-0.56 -0.08,-0.59 -0.28,-0.58 -0.19,-0.27 -0.16,-0.37 0,-0.38 0.14,-0.36 0.27,-0.28 Z M 16.27,4.29 l -4.27,1.53 0.27,-1.34 -0.52,-0.1 -0.63,-0.03 -0.56,0.14 -0.48,0.3 -0.38,0.42 -0.25,0.5 -0.1,0.56 0.07,0.58 0.25,0.57 0.67,1.04 0.15,0.37 -0.01,0.38 -0.15,0.35 -0.29,0.28 -0.37,0.15 -0.38,-0.01 -0.35,-0.15 -0.28,-0.29 -0.67,-1.04 -0.31,-0.57 -0.2,-0.57 -0.14,-1.16 0.21,-1.12 0.5,-1 0.75,-0.83 0.96,-0.6 1.13,-0.3 0.61,-0.01 0.64,0.07 0.52,0.11 0.25,-1.28 3.36,3.05 Z M 21,5 l -0.16,0.78 -0.43,0.63 -0.63,0.43 -0.78,0.16 -0.78,-0.16 -0.63,-0.43 -0.43,-0.63 -0.16,-0.78 0.16,-0.78 0.43,-0.63 0.63,-0.43 0.78,-0.16 0.78,0.16 0.63,0.43 0.43,0.63 0.16,0.78 Z M 12,14 l -0.78,-0.16 -0.63,-0.43 -0.43,-0.63 -0.16,-0.78 0.16,-0.78 0.43,-0.63 0.63,-0.43 0.78,-0.16 0.78,0.16 0.63,0.43 0.43,0.63 0.16,0.78 -0.16,0.78 -0.43,0.63 -0.63,0.43 -0.78,0.16 Z" fill-rule="evenodd" fill="#000000" />
</svg>