<svg xmlns="http://www.w3.org/2000/svg" viewBox="0 0 24 24">
  <path id="RWD" d="M 16.22,3 l 1.97,0 0.63,0.05 0.53,0.17 0.44,0.26 0.35,0.33 0.44,0.83 0.14,0.95 -0.13,0.9 -0.44,0.84 -0.34,0.35 -0.45,0.27 -0.54,0.17 -0.66,0.06 -1.94,0 0,-5.18 Z M 10.68,8.18 l -1.11,-5.18 1.2,0 0.51,2.61 0.03,0.15 0.02,0.17 0.02,-0.17 0.03,-0.15 0.61,-2.61 1.03,0 0.63,2.6 0.02,0.16 0.03,0.19 0.02,-0.17 0.03,-0.14 0.51,-2.64 1.21,0 -1.12,5.18 -1.11,0 -0.71,-2.82 -0.01,-0.1 -0.02,-0.16 -0.02,0.17 -0.02,0.08 -0.67,2.83 -1.11,0 Z M 4.47,8.18 l 0,-5.18 2.56,0 0.6,0.06 0.46,0.17 0.33,0.27 0.22,0.35 0.17,0.84 -0.11,0.59 -0.31,0.55 -0.5,0.38 0.97,1.97 -1.31,0 -0.93,-1.79 -0.98,0 0,1.79 -1.17,0 Z M 5,11 l 1,0 -1,4 1,4 -1,0 -3,-4 3,-4 Z M 20.5,9.98 l 0.35,0.14 0.15,0.36 0,1 -0.15,0.35 -0.35,0.15 -0.5,0 0,1 -2,0 0,-1 -0.5,0 -0.35,-0.15 -0.15,-0.35 0,-1 0.15,-0.36 0.35,-0.14 3,0 Z M 21,18.48 l 0,1 -0.15,0.35 -0.35,0.15 -3,0 -0.35,-0.15 -0.15,-0.35 0,-1 0.15,-0.36 0.35,-0.14 0.5,0 0,-1 2,0 0,1 0.5,0 0.35,0.14 0.15,0.36 Z M 17,13.98 l 0,2 -4,0 0,-2 4,0 Z M 11,10.48 l 0,1 -0.15,0.35 -0.35,0.15 -3,0 -0.35,-0.15 -0.15,-0.35 0,-1 0.15,-0.36 0.35,-0.14 3,0 0.35,0.14 0.15,0.36 Z M 10.5,17.98 l 0.35,0.14 0.15,0.36 0,1 -0.15,0.35 -0.35,0.15 -3,0 -0.35,-0.15 -0.15,-0.35 0,-1 0.15,-0.36 0.35,-0.14 3,0 Z M 18.27,7.06 l 0.57,-0.13 0.38,-0.35 0.22,-0.47 0.07,-0.52 -0.07,-0.53 -0.21,-0.48 -0.36,-0.34 -0.52,-0.13 -0.96,0 0,2.95 0.88,0 Z M 19,13.98 l 0.39,0.07 0.32,0.22 0.21,0.32 0.08,0.39 -0.08,0.38 -0.21,0.32 -0.32,0.22 -0.39,0.08 -0.39,-0.08 -0.32,-0.22 -0.21,-0.32 -0.08,-0.38 0.08,-0.39 0.21,-0.32 0.32,-0.22 0.39,-0.07 Z M 5.64,5.29 l 1.41,0 0.33,-0.08 0.17,-0.23 0.05,-0.29 -0.05,-0.28 -0.17,-0.22 -0.33,-0.09 -1.41,0 0,1.19 Z" fill-rule="evenodd" fill="#000000" />
</svg>