<svg xmlns="http://www.w3.org/2000/svg" viewBox="0 0 24 24">
  <path id="saveAs1" d="M 4.18,4.97 l 3.37,0.21 -0.1,1.5 -2.43,-0.15 -1.26,2.15 1.49,2.35 0,1.85 -1.49,2.39 1.24,2.15 2.67,-0.18 1.85,1.02 1.24,2.49 2.48,0 1.24,-2.49 1.85,-1.02 2.67,0.18 1.25,-2.15 -1.5,-2.39 0,-1.85 1.49,-2.35 -1.25,-2.15 -2.44,0.15 -0.1,-1.5 3.37,-0.21 2.18,3.75 -1.75,2.75 0,0.98 1.75,2.78 -2.16,3.75 -3.17,-0.22 -1.05,0.58 -1.46,2.91 -4.32,0 -1.46,-2.91 -1.05,-0.58 -3.17,0.22 -2.15,-3.75 1.74,-2.78 0,-0.98 -1.75,-2.75 2.18,-3.75 Z M 14,2 l 0,9 1.35,0 0.27,0.08 0.18,0.19 0.05,0.26 -0.09,0.26 -3.35,4.65 -0.19,0.15 -0.22,0.06 -0.22,-0.06 -0.19,-0.15 -3.35,-4.65 -0.09,-0.26 0.05,-0.26 0.18,-0.19 0.27,-0.08 1.35,0 0,-9 4,0 Z" fill-rule="evenodd" fill="#000000" />
</svg>