<svg xmlns="http://www.w3.org/2000/svg" viewBox="0 0 24 24">
  <path id="scan" d="M 18,20 l 0,-7.5 2,0 0,7.5 -0.16,0.78 -0.43,0.63 -0.63,0.43 -0.78,0.16 -14,0 0,-9.5 2,0 0,7.5 12,0 Z M 6,4 l 0,3.5 -2,0 0,-5.5 14,0 0.78,0.16 0.63,0.43 0.43,0.63 0.16,0.78 0,3.5 -2,0 0,-3.5 -12,0 Z M 8,13 l 8,0 0,2 -8,0 0,-2 Z M 7.5,5.5 l 9,0 0,1.5 -9,0 0,-1.5 Z M 15,9 l 0,2 -6,0 0,-2 6,0 Z M 2,9 l 5.5,0 0,2 -5.5,0 0,-2 Z M 16.5,9 l 5.5,0 0,2 -5.5,0 0,-2 Z M 8,16.5 l 5,0 0,1 -5,0 0,-1 Z" fill-rule="evenodd" fill="#000000" />
</svg>