<svg xmlns="http://www.w3.org/2000/svg" viewBox="0 0 24 24">
  <path id="scissors" d="M 7,11 l -0.6,-0.06 -0.57,-0.18 -0.51,-0.27 -0.44,-0.37 -0.37,-0.44 -0.27,-0.51 -0.18,-0.57 -0.06,-0.6 0.06,-0.6 0.18,-0.57 0.27,-0.51 0.37,-0.44 0.44,-0.37 0.51,-0.27 0.57,-0.18 0.6,-0.06 0.6,0.06 0.57,0.18 0.51,0.27 0.44,0.37 0.37,0.44 0.27,0.51 0.18,0.57 0.06,0.6 -0.11,0.82 -0.33,0.74 0.44,0.44 1.09,0 0.81,0.11 0.75,0.33 0.35,-0.44 5.19,-3.46 0.4,-0.21 0.44,-0.11 0.45,0 0.45,0.09 2.07,0.69 -7,5 -2.24,1.5 -0.8,0.37 -0.87,0.13 -1.09,0 -0.44,0.44 0.33,0.74 0.11,0.82 -0.06,0.6 -0.18,0.57 -0.27,0.51 -0.37,0.44 -0.44,0.37 -0.51,0.27 -0.57,0.18 -0.6,0.06 -0.6,-0.06 -0.57,-0.18 -0.51,-0.27 -0.44,-0.37 -0.37,-0.44 -0.27,-0.51 -0.18,-0.57 -0.06,-0.6 0.06,-0.6 0.18,-0.57 0.27,-0.51 0.37,-0.44 0.44,-0.37 0.51,-0.27 0.57,-0.18 0.6,-0.06 2.79,-0.35 0.81,-0.22 0.71,-0.43 -0.71,-0.43 -0.81,-0.22 -2.79,-0.35 Z M 18.19,17.46 l -4.56,-3.04 1.37,-0.92 1.05,-0.75 5.95,4.25 -2.07,0.69 -0.45,0.09 -0.45,0 -0.44,-0.11 -0.4,-0.21 Z M 8.5,8 l -0.12,-0.58 -0.32,-0.48 -0.48,-0.32 -0.58,-0.12 -0.58,0.12 -0.48,0.32 -0.32,0.48 -0.12,0.58 0.12,0.58 0.32,0.48 0.48,0.32 0.58,0.12 0.58,-0.12 0.48,-0.32 0.32,-0.48 0.12,-0.58 Z M 8.5,16 l -0.12,-0.58 -0.32,-0.48 -0.48,-0.32 -0.58,-0.12 -0.58,0.12 -0.48,0.32 -0.32,0.48 -0.12,0.58 0.12,0.58 0.32,0.48 0.48,0.32 0.58,0.12 0.58,-0.12 0.48,-0.32 0.32,-0.48 0.12,-0.58 Z" fill-rule="evenodd" fill="#000000" />
</svg>