<svg xmlns="http://www.w3.org/2000/svg" viewBox="0 0 24 24">
  <path id="scissorsSlashed" d="M 15.09,2.59 l 1.82,0.82 -8,18 -1.82,-0.82 8,-18 Z M 18.19,17.46 l -3.84,-2.56 -0.25,-0.24 -0.15,-0.31 -0.04,-0.34 0.09,-0.34 2.26,-5.1 0.6,-0.95 0.84,-0.75 0.49,-0.33 0.4,-0.21 0.44,-0.11 0.45,0 0.45,0.09 2.07,0.69 -7,5 7,5 -2.07,0.69 -0.45,0.09 -0.45,0 -0.44,-0.11 -0.4,-0.21 Z M 10,10 l -0.31,0.93 -0.2,0.27 -0.33,0.07 -2.16,-0.27 -0.6,-0.06 -0.57,-0.18 -0.51,-0.27 -0.44,-0.37 -0.37,-0.44 -0.27,-0.51 -0.18,-0.57 -0.06,-0.6 0.06,-0.6 0.18,-0.57 0.27,-0.51 0.37,-0.44 0.44,-0.37 0.51,-0.27 0.57,-0.18 0.6,-0.06 0.6,0.06 0.57,0.18 0.51,0.27 0.44,0.37 0.37,0.44 0.27,0.51 0.18,0.57 0.06,0.6 -0.11,0.82 -0.33,0.74 0.44,0.44 Z M 7,13 l 1.93,-0.24 -0.67,1.49 -0.14,0.19 -0.22,0.11 -0.5,0 -0.4,-0.05 -0.58,0.12 -0.48,0.32 -0.32,0.48 -0.12,0.58 0.05,0.38 0.14,0.35 0.5,0.53 0.34,0.38 0.06,0.23 -0.04,0.24 -0.2,0.29 -0.28,0.2 -0.33,0.05 -0.32,-0.1 -0.58,-0.47 -0.45,-0.6 -0.29,-0.7 -0.1,-0.78 0.06,-0.6 0.18,-0.57 0.27,-0.51 0.37,-0.44 0.44,-0.37 0.51,-0.27 0.57,-0.18 0.6,-0.06 Z M 8.5,8 l -0.12,-0.58 -0.32,-0.48 -0.48,-0.32 -0.58,-0.12 -0.58,0.12 -0.48,0.32 -0.32,0.48 -0.12,0.58 0.12,0.58 0.32,0.48 0.48,0.32 0.58,0.12 0.58,-0.12 0.48,-0.32 0.32,-0.48 0.12,-0.58 Z" fill-rule="evenodd" fill="#000000" />
</svg>