<svg xmlns="http://www.w3.org/2000/svg" viewBox="0 0 24 24">
  <path id="search" d="M 15.46,14.08 l -0.65,0.73 -0.73,0.65 -0.01,-0.01 -1.03,0.67 -1.12,0.48 -1.18,0.3 -1.24,0.1 -1.48,-0.14 -1.39,-0.43 -1.29,-0.69 -1.14,-0.94 -0.94,-1.14 -0.69,-1.29 -0.43,-1.4 -0.14,-1.47 0.14,-1.48 0.43,-1.39 0.69,-1.29 0.94,-1.14 1.14,-0.94 1.29,-0.69 1.4,-0.43 1.47,-0.14 1.47,0.14 1.4,0.43 1.29,0.69 1.14,0.94 0.94,1.14 0.69,1.29 0.43,1.39 0.14,1.48 -0.1,1.24 -0.3,1.18 -0.48,1.12 -0.67,1.03 0.01,0.01 Z M 9.5,15.1 l 1.1,-0.11 1.04,-0.31 0.96,-0.52 0.86,-0.7 0.7,-0.85 0.52,-0.97 0.31,-1.04 0.11,-1.1 -0.11,-1.1 -0.31,-1.04 -0.52,-0.96 -0.7,-0.86 -0.85,-0.7 -0.97,-0.52 -1.04,-0.31 -1.1,-0.11 -1.1,0.11 -1.04,0.31 -0.96,0.52 -0.86,0.7 -0.7,0.85 -0.52,0.97 -0.31,1.04 -0.11,1.1 0.11,1.1 0.31,1.04 0.52,0.96 0.7,0.86 0.86,0.7 0.96,0.52 1.04,0.31 1.1,0.11 Z M 18.25,16.87 l 3.69,3.69 0.04,0.07 0.02,0.08 -0.02,0.08 -0.04,0.06 -1.09,1.09 -0.07,0.04 -0.08,0.02 -0.07,-0.02 -0.07,-0.04 -2.31,-2.31 0,-2.76 Z M 17.42,18.8 l -2.75,-2.75 1.38,-1.38 1.37,1.37 0,2.76 Z" fill-rule="evenodd" fill="#000000" />
</svg>