<svg xmlns="http://www.w3.org/2000/svg" viewBox="0 0 24 24">
  <path id="seatArrowIn" d="M 4,18 l -0.94,-12.18 0.05,-0.31 0.15,-0.27 0.25,-0.17 0.31,-0.07 0.72,0.12 0.64,0.32 0.5,0.51 0.33,0.65 0.79,2.51 0.13,0.62 -0.01,0.64 -0.82,6.79 4.12,-1.09 0.51,-0.07 1.27,0 0.78,0.16 0.63,0.43 0.43,0.63 0.16,0.78 0,1 -0.08,0.39 -0.21,0.32 -0.32,0.21 -0.39,0.08 -8,0 -0.39,-0.08 -0.32,-0.21 -0.21,-0.32 -0.08,-0.39 0,-1 Z M 9.83,13.01 l -0.36,-5.3 0.71,-0.71 1.42,2.12 0.08,0.08 0.92,-0.92 1.44,-1.18 1.64,-0.88 1.77,-0.54 1.86,-0.18 1.69,0 0,3 -1.69,0 -1.27,0.13 -1.21,0.36 -1.12,0.6 -0.99,0.81 -0.91,0.91 2.03,1.35 -0.71,0.7 -5.3,-0.35 Z" fill-rule="evenodd" fill="#000000" />
</svg>