<svg xmlns="http://www.w3.org/2000/svg" viewBox="0 0 24 24">
  <path id="seatArrowOut" d="M 4,18 l -0.94,-12.18 0.05,-0.31 0.15,-0.27 0.25,-0.17 0.31,-0.07 0.72,0.12 0.64,0.32 0.5,0.51 0.33,0.65 0.79,2.51 0.13,0.62 -0.01,0.64 -0.82,6.79 4.12,-1.09 0.51,-0.07 1.27,0 0.78,0.16 0.63,0.43 0.43,0.63 0.16,0.78 0,1 -0.08,0.39 -0.21,0.32 -0.32,0.21 -0.39,0.08 -8,0 -0.39,-0.08 -0.32,-0.21 -0.21,-0.32 -0.08,-0.39 0,-1 Z M 19.5,8 l -3.5,4 -1,0 0.5,-2.5 -0.5,0 -0.71,0.07 -0.65,0.21 -0.6,0.32 -0.51,0.43 -0.43,0.51 -0.32,0.6 -0.21,0.65 -0.07,0.71 0,1 -3,0 0,-1 0.13,-1.31 0.38,-1.22 0.6,-1.1 0.79,-0.97 0.97,-0.79 1.1,-0.6 1.22,-0.38 1.31,-0.13 0.5,0 -0.5,-2.5 1,0 3.5,4 Z" fill-rule="evenodd" fill="#000000" />
</svg>