<svg xmlns="http://www.w3.org/2000/svg" viewBox="0 0 24 24">
  <path id="seatVArrowOutLeft" d="M 18.88,18.6 l 0,1.2 -0.09,0.47 -0.25,0.38 -0.38,0.26 -0.46,0.09 -9.51,0 -0.46,-0.09 -0.38,-0.26 -0.26,-0.38 -0.09,-0.47 0,-1.2 0.05,-0.48 0.14,-0.45 0.51,-0.77 0.75,-0.51 0.45,-0.14 0.48,-0.05 1.5,0 0.61,0.08 4.9,1.31 -0.98,-8.14 -0.01,-0.77 0.15,-0.75 0.95,-3.01 0.39,-0.78 0.6,-0.61 0.75,-0.39 0.85,-0.14 0.37,0.08 0.3,0.21 0.19,0.32 0.05,0.38 -1.12,14.61 Z M 5,5 l 6,0 1.5,1.5 -4.5,1.5 -1.5,4.5 -1.5,-1.5 0,-6 Z" fill-rule="evenodd" fill="#000000" />
</svg>