<svg xmlns="http://www.w3.org/2000/svg" viewBox="0 0 24 24">
  <path id="semiTruck" d="M 1.27,5.34 l -0.02,-0.22 0.19,-0.12 12.56,0 0,7.5 -3,0 0,1.5 5,0 0,-6 0.08,-0.39 0.21,-0.32 0.32,-0.21 0.39,-0.08 3.03,0 0.54,0.16 0.37,0.42 1.97,4.22 0.09,0.42 0,2.78 -0.08,0.39 -0.21,0.32 -0.32,0.21 -0.39,0.08 -1.05,0 0.05,0.5 -0.05,0.5 -0.15,0.47 -0.53,0.8 -0.8,0.53 -0.47,0.15 -0.5,0.05 -0.5,-0.05 -0.47,-0.15 -0.8,-0.53 -0.53,-0.8 -0.15,-0.47 -0.05,-0.5 0.05,-0.5 -1.05,0 0,1 -2,0 0,-1 -1.05,0 0.05,0.5 -0.05,0.5 -0.15,0.47 -0.53,0.8 -0.8,0.53 -0.47,0.15 -0.5,0.05 -0.5,-0.05 -0.47,-0.15 -0.8,-0.53 -0.53,-0.8 -0.15,-0.47 -0.05,-0.5 0.05,-0.5 -1.05,0 0,-2 2,0 0,-1.5 -5,0 -0.52,-0.4 -0.38,-0.44 -0.26,-0.47 -0.15,-0.48 0,-0.93 0.31,-0.78 0.33,-0.71 0.08,-0.76 -0.15,-0.76 -0.39,-0.68 -0.6,-0.75 Z M 18.49,17.86 l 0.52,-0.1 0.44,-0.29 0.29,-0.44 0.1,-0.52 -0.1,-0.53 -0.29,-0.43 -0.44,-0.29 -0.52,-0.11 -0.53,0.11 -0.43,0.29 -0.29,0.43 -0.11,0.53 0.11,0.52 0.29,0.44 0.43,0.29 0.53,0.1 Z M 9.5,17.5 l 0.39,-0.08 0.32,-0.21 0.21,-0.32 0.08,-0.39 -0.08,-0.39 -0.21,-0.32 -0.32,-0.21 -0.39,-0.08 -0.39,0.08 -0.32,0.21 -0.21,0.32 -0.08,0.39 0.08,0.39 0.21,0.32 0.32,0.21 0.39,0.08 Z" fill-rule="evenodd" fill="#000000" />
</svg>