<svg xmlns="http://www.w3.org/2000/svg" viewBox="0 0 24 24">
  <path id="semiTruckUS" d="M 4,12.5 l 3,0 0,1.5 4,0 0,-5 0.08,-0.39 0.21,-0.32 0.32,-0.21 0.39,-0.08 3.03,0 0.54,0.16 0.37,0.42 1.06,2.42 3.41,0.43 0.49,0.2 0.32,0.42 0.78,1.95 0,3 -1,0 -0.16,0.78 -0.43,0.63 -0.63,0.43 -0.78,0.16 -0.78,-0.16 -0.63,-0.43 -0.43,-0.63 -0.16,-0.78 -5,0 0,-1 -1.27,0 0.2,0.47 0.07,0.53 -0.16,0.78 -0.43,0.63 -0.63,0.43 -0.78,0.16 -0.78,-0.16 -0.63,-0.43 -0.43,-0.63 -0.16,-0.78 0.07,-0.53 0.2,-0.47 -1.54,0 0.2,0.47 0.07,0.53 -0.16,0.78 -0.43,0.63 -0.63,0.43 -0.78,0.16 -0.78,-0.16 -0.63,-0.43 -0.43,-0.63 -0.16,-0.78 0.13,-0.72 0.37,-0.6 0,-1.68 1.5,0 0,-1.5 Z M 15.19,7.5 l -3.19,0 -0.39,-0.08 -0.32,-0.21 -0.21,-0.32 -0.08,-0.39 0,-1.22 0.06,-0.3 0.17,-0.25 0.25,-0.17 0.3,-0.06 0.41,0.11 3.26,1.96 0.22,0.26 0.01,0.3 -0.17,0.26 -0.32,0.11 Z M 19,18 l 0.39,-0.08 0.32,-0.21 0.21,-0.32 0.08,-0.39 -0.08,-0.39 -0.21,-0.32 -0.32,-0.21 -0.39,-0.08 -0.39,0.08 -0.32,0.21 -0.21,0.32 -0.08,0.39 0.08,0.39 0.21,0.32 0.32,0.21 0.39,0.08 Z M 10,17 l -0.08,-0.39 -0.21,-0.32 -0.32,-0.21 -0.39,-0.08 -0.39,0.08 -0.32,0.21 -0.21,0.32 -0.08,0.39 0.08,0.39 0.21,0.32 0.32,0.21 0.39,0.08 0.39,-0.08 0.32,-0.21 0.21,-0.32 0.08,-0.39 Z M 5,17 l -0.08,-0.39 -0.21,-0.32 -0.32,-0.21 -0.39,-0.08 -0.39,0.08 -0.32,0.21 -0.21,0.32 -0.08,0.39 0.08,0.39 0.21,0.32 0.32,0.21 0.39,0.08 0.39,-0.08 0.32,-0.21 0.21,-0.32 0.08,-0.39 Z" fill-rule="evenodd" fill="#000000" />
</svg>