<svg xmlns="http://www.w3.org/2000/svg" viewBox="0 0 48 48">
  <path id="sensorsL" d="M 17,15.21 l 0.16,-1.07 0.44,-0.95 0.69,-0.8 0.91,-0.58 0.92,-0.35 0.95,-0.26 0.96,-0.15 0.97,-0.05 0.97,0.05 0.96,0.15 0.95,0.26 0.92,0.35 0.91,0.58 0.69,0.8 0.44,0.95 0.16,1.07 0,16.65 -0.07,0.52 -0.2,0.48 -0.32,0.41 -0.41,0.32 0,2.41 -2,0 0,-1.78 -1.49,0.24 -1.51,0.08 -1.51,-0.08 -1.49,-0.24 0,1.78 -2,0 0,-2.41 -0.41,-0.32 -0.32,-0.41 -0.2,-0.48 -0.07,-0.52 0,-16.65 Z M 37.85,9.15 l 1.39,1.54 1.23,1.66 1.06,1.76 0.87,1.85 0.69,1.93 0.5,1.99 0.31,2.04 0.1,2.08 -0.1,2.08 -0.31,2.04 -0.5,1.99 -0.69,1.93 -0.87,1.85 -1.06,1.76 -1.23,1.66 -1.39,1.54 -1.41,-1.41 1.26,-1.4 1.11,-1.5 0.95,-1.59 0.79,-1.68 0.63,-1.74 0.45,-1.81 0.28,-1.84 0.09,-1.88 -0.09,-1.88 -0.28,-1.84 -0.45,-1.81 -0.63,-1.74 -0.79,-1.68 -0.95,-1.59 -1.11,-1.5 -1.26,-1.39 1.41,-1.42 Z M 8.15,9.15 l 1.41,1.42 -1.26,1.39 -1.11,1.5 -0.95,1.59 -0.79,1.68 -0.63,1.74 -0.45,1.81 -0.28,1.84 -0.09,1.88 0.09,1.88 0.28,1.84 0.45,1.81 0.63,1.74 0.79,1.68 0.95,1.59 1.11,1.5 1.26,1.4 -1.41,1.41 -1.39,-1.54 -1.23,-1.66 -1.06,-1.76 -0.87,-1.85 -0.69,-1.93 -0.5,-1.99 -0.31,-2.04 -0.1,-2.08 0.1,-2.08 0.31,-2.04 0.5,-1.99 0.69,-1.93 0.87,-1.85 1.06,-1.76 1.23,-1.66 1.39,-1.54 Z M 35.02,11.98 l 1.13,1.25 0.99,1.34 0.86,1.42 0.71,1.5 0.56,1.57 0.4,1.61 0.25,1.65 0.08,1.68 -0.08,1.68 -0.25,1.65 -0.4,1.61 -0.56,1.57 -0.71,1.5 -0.86,1.42 -0.99,1.34 -1.13,1.25 -1.41,-1.41 0.99,-1.1 0.88,-1.19 0.75,-1.26 0.63,-1.32 0.49,-1.38 0.36,-1.42 0.22,-1.46 0.07,-1.48 -0.07,-1.48 -0.22,-1.46 -0.36,-1.42 -0.49,-1.38 -0.63,-1.32 -0.75,-1.26 -0.88,-1.19 -0.99,-1.1 1.41,-1.41 Z M 6,24 l 0.08,-1.68 0.25,-1.65 0.4,-1.61 0.56,-1.57 0.71,-1.5 0.86,-1.42 0.99,-1.34 1.13,-1.25 1.41,1.41 -0.99,1.1 -0.88,1.19 -0.75,1.26 -0.63,1.32 -0.49,1.38 -0.36,1.42 -0.22,1.46 -0.07,1.48 0.07,1.48 0.22,1.46 0.36,1.42 0.49,1.38 0.63,1.32 0.75,1.26 0.88,1.19 0.99,1.1 -1.41,1.41 -1.13,-1.25 -0.99,-1.34 -0.86,-1.42 -0.71,-1.5 -0.56,-1.57 -0.4,-1.61 -0.25,-1.65 -0.08,-1.68 Z M 23,3 l 2.75,0.18 2.69,0.54 2.59,0.88 2.47,1.21 -1,1.74 -2.23,-1.11 -2.35,-0.79 -2.43,-0.49 -2.49,-0.16 -2.49,0.16 -2.43,0.49 -2.35,0.79 -2.23,1.11 -1,-1.74 2.47,-1.21 2.59,-0.88 2.69,-0.54 2.75,-0.18 Z M 33.5,42.19 l -2.47,1.21 -2.59,0.88 -2.69,0.54 -2.75,0.18 -2.75,-0.18 -2.69,-0.54 -2.59,-0.88 -2.47,-1.21 1,-1.74 2.23,1.11 2.35,0.79 2.43,0.49 2.49,0.16 2.49,-0.16 2.43,-0.49 2.35,-0.79 2.23,-1.11 1,1.74 Z M 23,7 l 2.22,0.15 2.18,0.43 2.1,0.71 2,0.99 -1,1.73 -1.76,-0.87 -1.86,-0.63 -1.92,-0.38 -1.96,-0.13 -1.96,0.13 -1.92,0.38 -1.86,0.63 -1.76,0.87 -1,-1.73 2,-0.99 2.1,-0.71 2.18,-0.43 2.22,-0.15 Z M 10,24 l 0.11,-1.7 0.33,-1.66 0.55,-1.61 0.75,-1.53 1.73,1 -0.63,1.29 -0.47,1.36 -0.28,1.41 -0.09,1.44 0.09,1.44 0.28,1.41 0.47,1.36 0.63,1.29 -1.73,1 -0.75,-1.53 -0.55,-1.61 -0.33,-1.66 -0.11,-1.7 Z M 34.26,17.5 l 0.75,1.53 0.55,1.61 0.33,1.66 0.11,1.7 -0.11,1.7 -0.33,1.66 -0.55,1.61 -0.75,1.53 -1.73,-1 0.63,-1.29 0.47,-1.36 0.28,-1.41 0.09,-1.44 -0.09,-1.44 -0.28,-1.41 -0.47,-1.36 -0.63,-1.29 1.73,-1 Z M 26.75,19.36 l 0.04,-0.32 -0.06,-0.32 -0.18,-0.27 -0.26,-0.2 -0.79,-0.34 -0.82,-0.24 -1.68,-0.2 -1.68,0.2 -0.82,0.24 -0.79,0.34 -0.26,0.2 -0.18,0.27 -0.06,0.32 0.04,0.32 0.52,1.56 0.14,0.25 0.23,0.17 0.26,0.07 0.29,-0.03 1.14,-0.28 1.17,-0.1 1.17,0.1 1.14,0.28 0.29,0.03 0.26,-0.07 0.23,-0.17 0.14,-0.25 0.52,-1.56 Z M 27.4,40.42 l -2.19,0.44 -2.21,0.14 -2.21,-0.14 -2.19,-0.44 0.52,-1.93 1.93,0.38 1.95,0.13 1.95,-0.13 1.93,-0.38 0.52,1.93 Z M 19.38,29.84 l -0.07,0.3 0.06,0.3 0.18,0.23 0.28,0.15 1.58,0.29 1.59,0.1 1.59,-0.1 1.58,-0.29 0.28,-0.15 0.18,-0.23 0.06,-0.3 -0.07,-0.3 -0.36,-0.72 -0.35,-0.34 -0.48,-0.08 -1.21,0.15 -1.22,0.05 -1.22,-0.05 -1.21,-0.15 -0.48,0.08 -0.35,0.34 -0.36,0.72 Z M 27,23.11 l -0.15,-0.36 -0.35,-0.14 -0.35,0.14 -0.15,0.36 0,4 0.15,0.35 0.35,0.15 0.35,-0.15 0.15,-0.35 0,-4 Z M 20,23.11 l -0.15,-0.36 -0.35,-0.14 -0.35,0.14 -0.15,0.36 0,4 0.15,0.35 0.35,0.15 0.35,-0.15 0.15,-0.35 0,-4 Z M 25.16,13.13 l -0.38,0.03 -0.25,0.29 0.02,0.38 0.29,0.25 1.5,0.5 0.38,-0.03 0.25,-0.28 -0.02,-0.39 -0.29,-0.25 -1.5,-0.5 Z M 21.16,14.08 l 0.29,-0.25 0.02,-0.38 -0.25,-0.29 -0.38,-0.03 -1.5,0.5 -0.29,0.25 -0.02,0.39 0.25,0.28 0.38,0.03 1.5,-0.5 Z" fill-rule="evenodd" fill="#000000" />
</svg>