<svg xmlns="http://www.w3.org/2000/svg" viewBox="0 0 24 24">
  <path id="shieldCheckmark" d="M 5.24,6.75 l 0.69,-0.23 1.49,-0.57 1.43,-0.71 1.36,-0.85 1.28,-0.96 0.51,-0.19 0.51,0.19 1.28,0.96 1.36,0.85 1.43,0.71 1.49,0.57 0.69,0.23 0.3,0.16 0.22,0.24 0.13,0.29 0.03,0.33 -0.22,2.6 -0.18,1.29 -0.31,1.26 -0.44,1.22 -0.57,1.17 -0.66,1.05 -0.75,0.98 -0.85,0.89 -0.94,0.81 -1.18,0.92 -0.64,0.34 -0.7,0.12 -0.7,-0.12 -0.64,-0.34 -1.18,-0.92 -0.94,-0.81 -0.85,-0.89 -0.75,-0.98 -0.66,-1.05 -0.57,-1.17 -0.44,-1.22 -0.31,-1.26 -0.18,-1.29 -0.22,-2.6 0.03,-0.33 0.13,-0.29 0.22,-0.24 0.3,-0.16 Z M 13,16 l 3,-7.5 -2,-1 -1.5,4 -0.5,2.5 -0.5,-1.5 -1.5,-2.6 -1.5,1.6 2.5,4.5 2,0 Z" fill-rule="evenodd" fill="#000000" />
</svg>