<svg xmlns="http://www.w3.org/2000/svg" viewBox="0 0 24 24">
  <path id="shieldCheckmarkProgressbar" d="M 19,16 l 0.78,0.16 0.63,0.43 0.43,0.63 0.16,0.78 0,1 -0.14,0.73 -0.38,0.61 -0.57,0.44 -0.71,0.21 -0.2,0.01 -14,0 -0.29,-0.02 -0.1,-0.02 -0.08,-0.02 -0.1,-0.02 -0.08,-0.03 -0.1,-0.04 -0.07,-0.03 -0.1,-0.04 -0.06,-0.04 -0.1,-0.06 -0.06,-0.04 -0.07,-0.05 -0.38,-0.38 -0.04,-0.05 -0.03,-0.04 -0.02,-0.04 -0.06,-0.1 -0.04,-0.07 -0.05,-0.09 -0.02,-0.07 -0.04,-0.1 -0.03,-0.08 -0.02,-0.11 -0.02,-0.07 -0.03,-0.19 -0.01,-0.2 0,-1 0.16,-0.78 0.43,-0.63 0.63,-0.43 0.78,-0.16 14,0 Z M 11.51,2.4 l 0.49,-0.18 0.49,0.18 0.15,0.12 1.6,1.13 -1.74,4.35 -0.5,2 -0.5,-1.5 -1.5,-2.5 -1,1.5 2,4 2,0 2.8,-7.01 0.69,0.3 0.35,0.3 0.09,0.45 -0.3,2.41 -0.2,1.03 -0.35,0.99 -0.62,1.17 -0.81,1.03 -0.98,0.87 -1.13,0.69 -0.14,0.07 -0.4,0.1 -0.4,-0.1 -0.14,-0.07 -1.13,-0.69 -0.98,-0.87 -0.81,-1.03 -0.62,-1.17 -0.35,-0.99 -0.2,-1.03 -0.3,-2.41 0.09,-0.45 0.35,-0.3 2.01,-0.99 1.84,-1.28 0.15,-0.12 Z M 15,19.5 l 4,0 0.35,-0.15 0.15,-0.35 0,-1 -0.15,-0.35 -0.35,-0.15 -4,0 0,2 Z" fill-rule="evenodd" fill="#000000" />
</svg>