<svg xmlns="http://www.w3.org/2000/svg" viewBox="0 0 24 24">
  <path id="shieldHandPlus" d="M 7.07,5.54 l 0.09,-0.45 0.35,-0.3 2.01,-0.99 1.84,-1.28 0.15,-0.12 0.49,-0.18 0.49,0.18 0.15,0.12 1.84,1.28 2.01,0.99 0.35,0.3 0.09,0.45 -0.3,2.41 -0.2,1.03 -0.35,0.99 -0.62,1.17 -0.81,1.03 -0.98,0.87 -1.13,0.69 -0.14,0.07 -0.4,0.1 -0.4,-0.1 -0.14,-0.07 -1.13,-0.69 -0.98,-0.87 -0.81,-1.03 -0.62,-1.17 -0.35,-0.99 -0.2,-1.03 -0.3,-2.41 Z M 8.55,15.36 l 1.54,0.51 0.84,0.09 1.83,-0.2 0.32,0.02 0.28,0.12 0.23,0.21 0.14,0.28 0.05,0.34 -0.08,0.32 -0.19,0.28 -0.28,0.19 -2.23,0.98 0.5,0.68 3.56,-1.05 0.82,-0.38 1.7,-1.13 0.43,-0.19 0.45,-0.04 0.44,0.12 0.39,0.27 0.1,0.23 -0.08,0.23 -1.45,1.73 -0.96,0.88 -1.16,0.61 -3.02,1.1 -0.84,0.2 -0.85,0.03 -0.83,-0.16 -0.8,-0.33 -1.61,-0.9 -0.65,-0.29 -0.68,-0.17 -0.7,-0.05 -0.7,0.08 -0.46,0.09 -0.23,0 -0.19,-0.1 -0.13,-0.17 -0.05,-0.22 0,-3.39 0.15,-0.35 0.35,-0.15 1.01,0 0.97,-0.12 0.96,-0.24 0.56,-0.06 0.55,0.1 Z M 13,5 l -2,0 0,2 -2,0 0,2 2,0 0,2 2,0 0,-2 2,0 0,-2 -2,0 0,-2 Z" fill-rule="evenodd" fill="#000000" />
</svg>