<svg xmlns="http://www.w3.org/2000/svg" viewBox="0 0 24 24">
  <path id="shoppingCart" d="M 4,3 l 3,0 0.38,0.08 0.33,0.21 0.21,0.33 0.08,0.38 0,1.07 13.07,0.93 0.44,0.14 0.33,0.32 0.15,0.43 -0.05,0.45 -2,5.5 -0.35,0.46 -0.54,0.2 -9.5,0.47 -0.68,1.03 9.13,0 0.39,0.08 0.32,0.21 0.21,0.32 0.08,0.39 -0.08,0.39 -0.21,0.32 -0.32,0.21 -0.39,0.08 -11,0 -0.51,-0.14 -0.37,-0.39 -0.12,-0.52 0.17,-0.5 0.65,-0.98 0.69,-1.15 0.19,-0.41 0.09,-0.43 -0.12,-0.88 -1.16,-3.19 -0.32,-1.19 -0.19,-1.22 0,-1 -1,0 -0.08,0.39 -0.21,0.32 -0.32,0.21 -0.39,0.08 -0.39,-0.08 -0.32,-0.21 -0.21,-0.32 -0.08,-0.39 0,-1 0.08,-0.39 0.21,-0.32 0.32,-0.21 0.39,-0.08 Z M 17.07,8.4 l -7.15,-0.75 -0.48,0.07 -0.38,0.27 -0.21,0.41 0,0.49 0.44,1.76 0.15,0.33 0.25,0.25 0.32,0.14 0.36,0.03 6.11,-0.72 0.38,-0.07 0.51,-0.25 0.29,-0.49 0.07,-0.28 0.02,-0.38 -0.12,-0.35 -0.23,-0.28 -0.33,-0.18 Z M 8,19.5 l -0.12,0.58 -0.32,0.48 -0.48,0.32 -0.58,0.12 -0.58,-0.12 -0.48,-0.32 -0.32,-0.48 -0.12,-0.58 0.12,-0.58 0.32,-0.48 0.48,-0.32 0.58,-0.12 0.58,0.12 0.48,0.32 0.32,0.48 0.12,0.58 Z M 17.5,21 l -0.58,-0.12 -0.48,-0.32 -0.32,-0.48 -0.12,-0.58 0.12,-0.58 0.32,-0.48 0.48,-0.32 0.58,-0.12 0.58,0.12 0.48,0.32 0.32,0.48 0.12,0.58 -0.12,0.58 -0.32,0.48 -0.48,0.32 -0.58,0.12 Z" fill-rule="evenodd" fill="#000000" />
</svg>