<svg xmlns="http://www.w3.org/2000/svg" viewBox="0 0 24 24">
  <path id="shortRangeBeam2" d="M 5.39,14.97 l -0.39,0.03 -0.6,-0.06 -0.57,-0.18 -0.51,-0.27 -0.44,-0.37 -0.37,-0.44 -0.27,-0.51 -0.18,-0.57 -0.06,-0.6 0.06,-0.6 0.18,-0.57 0.27,-0.51 0.37,-0.44 0.44,-0.37 0.51,-0.27 0.57,-0.18 0.6,-0.06 0.39,0.03 1.79,-4.47 0.35,-0.61 0.48,-0.45 0.58,-0.3 0.62,-0.12 0.64,0.04 0.61,0.21 0.54,0.38 0.44,0.56 0.4,0.76 0.69,-0.1 0.7,0.04 0.69,0.15 0.67,0.29 1.04,0.74 0.84,0.93 1.41,0.27 1.36,0.47 0.6,0.31 0.54,0.39 0.87,0.98 0.55,1.18 0.15,0.65 0.05,0.67 -0.05,0.67 -0.15,0.65 -0.55,1.18 -0.87,0.98 -0.54,0.39 -0.6,0.31 -1.36,0.47 -1.41,0.27 -0.84,0.93 -1.04,0.74 -0.67,0.29 -0.69,0.15 -0.7,0.04 -0.69,-0.1 -0.4,0.76 -0.44,0.56 -0.54,0.38 -0.61,0.21 -0.64,0.04 -0.62,-0.12 -0.58,-0.3 -0.48,-0.45 -0.35,-0.61 -1.79,-4.47 Z M 12.67,7.36 l 0.19,0.99 0.13,1.36 0.01,0.44 0,3.7 0,0.27 -0.22,1.99 -0.54,1.92 0.95,0 0.92,-0.32 0.99,-0.72 0.79,-1.02 0.45,-1.1 0.16,-1.19 0,-3.36 0,-0.16 -0.11,-0.84 -0.31,-0.92 -0.49,-0.83 -0.67,-0.72 -0.81,-0.56 -0.92,-0.32 -0.95,0 0.43,1.39 Z M 17.08,15.81 l 1.77,-0.55 0.89,-0.54 0.67,-0.77 0.44,-0.92 0.15,-1.03 -0.15,-1.03 -0.44,-0.92 -0.67,-0.77 -0.89,-0.54 -1.77,-0.55 0.31,1.03 0.11,1.1 0,3.36 -0.11,1.1 -0.31,1.03 Z M 6.5,12 l -0.12,-0.58 -0.32,-0.48 -0.48,-0.32 -0.58,-0.12 -0.58,0.12 -0.48,0.32 -0.32,0.48 -0.12,0.58 0.12,0.58 0.32,0.48 0.48,0.32 0.58,0.12 0.58,-0.12 0.48,-0.32 0.32,-0.48 0.12,-0.58 Z" fill-rule="evenodd" fill="#000000" />
</svg>