<svg xmlns="http://www.w3.org/2000/svg" viewBox="0 0 24 24">
  <path id="shortRangeBeam1" d="M 5,7 l 0.54,0.05 2.37,-4.15 0.54,-0.57 0.69,-0.26 0.75,0.07 0.66,0.41 1.04,1.27 0.77,1.44 0.48,1.57 0.16,1.64 0,3.06 -0.16,1.64 -0.48,1.57 -0.77,1.44 -1.04,1.27 -0.66,0.41 -0.75,0.07 -0.69,-0.26 -0.54,-0.57 -2.37,-4.15 -0.54,0.05 -0.6,-0.06 -0.57,-0.18 -0.51,-0.27 -0.44,-0.37 -0.37,-0.44 -0.27,-0.51 -0.18,-0.57 -0.06,-0.6 0.06,-0.6 0.18,-0.57 0.27,-0.51 0.37,-0.44 0.44,-0.37 0.51,-0.27 0.57,-0.18 0.6,-0.06 Z M 13,18 l 0,3 -9,0 0,-3 1.5,0 0,1.5 6,0 0,-1.5 1.5,0 Z M 22,15 l 0,6 -1.5,0 0,-6 1.5,0 Z M 5,11.5 l 0.58,-0.12 0.48,-0.32 0.32,-0.48 0.12,-0.58 -0.12,-0.58 -0.32,-0.48 -0.48,-0.32 -0.58,-0.12 -0.58,0.12 -0.48,0.32 -0.32,0.48 -0.12,0.58 0.12,0.58 0.32,0.48 0.48,0.32 0.58,0.12 Z M 16.5,16.5 l 1.5,0 0,4.5 -1.5,0 0,-4.5 Z" fill-rule="evenodd" fill="#000000" />
</svg>