<svg xmlns="http://www.w3.org/2000/svg" viewBox="0 0 48 48">
  <path id="simRigOutline" d="M 31,18 l -0.07,1.33 -0.19,1.29 -0.32,1.25 -0.44,1.19 -0.55,1.14 -0.65,1.07 -0.75,1 -0.84,0.92 -0.92,0.84 -1,0.75 -1.07,0.65 -1.14,0.55 -1.19,0.44 -1.25,0.32 -1.29,0.19 -1.33,0.07 -1.33,-0.07 -1.29,-0.19 -1.25,-0.32 -1.19,-0.44 -1.14,-0.55 -1.07,-0.65 -1,-0.75 -0.92,-0.84 -0.84,-0.92 -0.75,-1 -0.65,-1.07 -0.55,-1.14 -0.44,-1.19 -0.32,-1.25 -0.19,-1.29 -0.07,-1.33 0.07,-1.33 0.19,-1.29 0.32,-1.25 0.44,-1.19 0.55,-1.14 0.65,-1.07 0.75,-1 0.84,-0.92 0.92,-0.84 1,-0.75 1.07,-0.65 1.14,-0.55 1.19,-0.44 1.25,-0.32 1.29,-0.19 1.33,-0.07 1.33,0.07 1.29,0.19 1.25,0.32 1.19,0.44 1.14,0.55 1.07,0.65 1,0.75 0.92,0.84 0.84,0.92 0.75,1 0.65,1.07 0.55,1.14 0.44,1.19 0.32,1.25 0.19,1.29 0.07,1.33 Z M 19.12,28.94 l 0.94,-7.49 0.34,-0.25 0.52,-0.47 0.39,-0.52 0.48,-1.07 0.12,-0.47 0.07,-0.38 0.02,-0.23 0,-0.06 0,0 0,-0.66 6.46,-2.77 -0.6,-1.46 -6.76,2.42 -0.24,-0.04 -1.49,-0.18 -1.33,-0.05 -1.35,0.06 -1.56,0.17 -0.24,0.03 -6.75,-2.41 -0.6,1.46 6.46,2.77 0,0.66 0,0 0,0.06 0.02,0.23 0.07,0.38 0.12,0.47 0.48,1.07 0.39,0.52 0.52,0.47 0.34,0.25 0.3,2.43 -1.98,0.24 -0.2,-1.6 -0.66,-0.68 -0.5,-0.72 -0.36,-0.72 -0.25,-0.67 -0.14,-0.56 -0.09,-0.49 -4.97,-2.12 -0.09,1.44 0.15,1.82 0.43,1.73 0.7,1.6 0.93,1.46 1.14,1.3 1.33,1.1 1.5,0.88 1.63,0.64 -0.05,-0.41 1.98,-0.24 0.14,1.06 1.12,0.06 1.12,-0.06 Z M 34.58,23.05 l 0.09,-0.86 0.26,-0.8 0.41,-0.72 0.54,-0.63 0.65,-0.52 0.75,-0.39 0.83,-0.24 0.89,-0.09 0.89,0.09 0.83,0.24 0.75,0.39 0.65,0.52 0.54,0.63 0.41,0.72 0.26,0.8 0.09,0.86 -0.07,0.74 -0.19,0.7 -0.31,0.65 -0.41,0.58 -0.51,0.51 -0.58,0.42 -0.66,0.33 -0.71,0.21 0,6.25 2.25,0 0,-3.91 0.08,-0.37 0.21,-0.31 0.32,-0.2 0.38,-0.07 0.38,0.07 0.31,0.2 0.21,0.31 0.08,0.37 0,9.72 -0.08,0.37 -0.21,0.3 -0.31,0.21 -0.38,0.07 -0.38,-0.07 -0.32,-0.21 -0.21,-0.3 -0.08,-0.37 0,-3.91 -2.25,0 0,3.91 -0.08,0.37 -0.21,0.3 -0.31,0.21 -0.38,0.07 -0.38,-0.07 -0.31,-0.21 -0.21,-0.3 -0.08,-0.37 0,-3.91 -1.67,0 -0.42,0.17 -0.16,0.38 0,3.36 -0.08,0.37 -0.21,0.3 -0.32,0.21 -0.38,0.07 -0.38,-0.07 -0.31,-0.21 -0.21,-0.3 -0.08,-0.37 0,-3.36 0.05,-0.49 0.15,-0.47 0.55,-0.78 0.81,-0.52 0.48,-0.14 0.51,-0.05 1.67,0 0,-6.25 -0.71,-0.21 -0.66,-0.33 -0.58,-0.42 -0.51,-0.51 -0.41,-0.58 -0.31,-0.65 -0.19,-0.7 -0.07,-0.74 Z M 26.78,11.37 l -0.81,-0.95 -0.9,-0.85 -1,-0.75 -1.09,-0.63 -1.15,-0.51 -1.23,-0.37 -1.28,-0.23 -1.32,-0.08 -1.32,0.08 -1.28,0.23 -1.23,0.37 -1.15,0.51 -1.09,0.63 -1,0.75 -0.9,0.85 -0.81,0.95 5.89,2.11 1.54,-0.16 1.39,-0.06 1.36,0.05 1.5,0.17 5.88,-2.11 Z M 8.26,37.39 l -0.04,-0.46 0.06,-0.43 0.39,-0.77 0.68,-0.53 0.41,-0.15 0.46,-0.05 5.56,0 0.46,0.05 0.41,0.15 0.68,0.53 0.39,0.77 0.06,0.43 -0.04,0.46 -0.6,3 -0.25,0.65 -0.44,0.51 -0.59,0.33 -0.68,0.12 -1.18,0 0,2 -2,0 0,-2 -1.18,0 -0.68,-0.12 -0.59,-0.33 -0.44,-0.51 -0.25,-0.65 -0.6,-3 Z M 21.19,28.53 l 1.63,-0.64 1.5,-0.88 1.33,-1.1 1.14,-1.3 0.93,-1.46 0.7,-1.6 0.43,-1.73 0.15,-1.82 -0.09,-1.44 -4.97,2.12 -0.09,0.49 -0.14,0.56 -0.25,0.67 -0.36,0.72 -0.5,0.72 -0.66,0.68 -0.75,6.01 Z M 22.22,35 l 3.56,0 0.46,0.05 0.41,0.15 0.68,0.53 0.39,0.77 0.06,0.43 -0.04,0.46 -0.6,3 -0.25,0.65 -0.44,0.51 -0.59,0.33 -0.68,0.12 -0.18,0 0,2 -2,0 0,-2 -0.18,0 -0.68,-0.12 -0.59,-0.33 -0.44,-0.51 -0.25,-0.65 -0.6,-3 -0.04,-0.46 0.06,-0.43 0.39,-0.77 0.68,-0.53 0.41,-0.15 0.46,-0.05 Z M 39,20.7 l -0.5,0.05 -0.46,0.14 -0.78,0.5 -0.52,0.75 -0.14,0.44 -0.05,0.47 0.05,0.47 0.14,0.44 0.52,0.75 0.78,0.5 0.46,0.14 0.5,0.05 0.5,-0.05 0.46,-0.14 0.78,-0.5 0.52,-0.75 0.14,-0.44 0.05,-0.47 -0.05,-0.47 -0.14,-0.44 -0.52,-0.75 -0.78,-0.5 -0.46,-0.14 -0.5,-0.05 Z M 10.22,37 l 0.6,3 4.36,0 0.6,-3 -5.56,0 Z M 18,20 l -0.78,-0.16 -0.63,-0.43 -0.43,-0.63 -0.16,-0.78 0.16,-0.78 0.43,-0.63 0.63,-0.43 0.78,-0.16 0.78,0.16 0.63,0.43 0.43,0.63 0.16,0.78 -0.16,0.78 -0.43,0.63 -0.63,0.43 -0.78,0.16 Z M 22.82,40 l 2.36,0 0.6,-3 -3.56,0 0.6,3 Z M 33.8,29.53 l 0.08,-0.37 0.21,-0.31 0.31,-0.2 0.38,-0.07 0.38,0.07 0.32,0.2 0.21,0.31 0.08,0.37 0,1.47 -0.08,0.37 -0.21,0.31 -0.32,0.2 -0.38,0.07 -0.38,-0.07 -0.31,-0.2 -0.21,-0.31 -0.08,-0.37 0,-1.47 Z" fill-rule="evenodd" fill="#000000" />
</svg>