<svg xmlns="http://www.w3.org/2000/svg" viewBox="0 0 24 24">
  <path id="smallTrailer" d="M 4,12 l 13,0 0,2 3,0 0,2 -7.05,0 0.05,0.5 -0.05,0.5 -0.15,0.47 -0.53,0.8 -0.8,0.53 -0.47,0.15 -0.5,0.05 -0.5,-0.05 -0.47,-0.15 -0.8,-0.53 -0.53,-0.8 -0.15,-0.47 -0.05,-0.5 0.05,-0.5 -4.05,0 0,-4 Z M 15,5 l 0,6 -9,0 0,-6 9,0 Z M 9,16.5 l 0.12,0.58 0.32,0.48 0.48,0.32 0.58,0.12 0.58,-0.12 0.48,-0.32 0.32,-0.48 0.12,-0.58 -0.12,-0.58 -0.32,-0.48 -0.48,-0.32 -0.58,-0.12 -0.58,0.12 -0.48,0.32 -0.32,0.48 -0.12,0.58 Z" fill-rule="evenodd" fill="#000000" />
</svg>