<svg xmlns="http://www.w3.org/2000/svg" viewBox="0 0 24 24">
  <path id="smartphone1" d="M 6,5 l 0.16,-0.78 0.43,-0.63 0.63,-0.43 0.78,-0.16 8,0 0.78,0.16 0.63,0.43 0.43,0.63 0.16,0.78 0,14 -0.16,0.78 -0.43,0.63 -0.63,0.43 -0.78,0.16 -8,0 -0.78,-0.16 -0.63,-0.43 -0.43,-0.63 -0.16,-0.78 0,-14 Z M 7.5,5 l 0,11 0.15,0.35 0.35,0.15 8,0 0.35,-0.15 0.15,-0.35 0,-11 -0.15,-0.35 -0.35,-0.15 -8,0 -0.35,0.15 -0.15,0.35 Z M 12,17.5 l -0.39,0.08 -0.32,0.21 -0.21,0.32 -0.08,0.39 0.08,0.39 0.21,0.32 0.32,0.21 0.39,0.08 0.39,-0.08 0.32,-0.21 0.21,-0.32 0.08,-0.39 -0.08,-0.39 -0.21,-0.32 -0.32,-0.21 -0.39,-0.08 Z" fill-rule="evenodd" fill="#000000" />
</svg>