<svg xmlns="http://www.w3.org/2000/svg" viewBox="0 0 24 24">
  <path id="snowflake" d="M 20.53,16.15 l -2.24,-1.4 1.32,-0.36 0.27,-0.13 0.18,-0.22 0.1,-0.27 -0.02,-0.29 -0.13,-0.27 -0.22,-0.19 -0.27,-0.09 -0.3,0.02 -2.67,0.71 -0.57,-0.35 -2.49,-1.31 2.49,-1.31 0.57,-0.35 2.67,0.71 0.3,0.02 0.27,-0.09 0.22,-0.19 0.13,-0.27 0.02,-0.29 -0.1,-0.27 -0.18,-0.22 -0.27,-0.13 -1.32,-0.36 2.24,-1.4 -1.06,-1.7 -2.19,1.37 0.36,-1.33 0.02,-0.29 -0.1,-0.28 -0.18,-0.21 -0.27,-0.13 -0.3,-0.02 -0.27,0.09 -0.22,0.19 -0.13,0.27 -0.77,2.87 -0.44,0.28 -2.2,1.64 0.22,-2.7 0,-0.84 2.03,-2.03 0.17,-0.25 0.05,-0.28 -0.05,-0.28 -0.17,-0.25 -0.25,-0.17 -0.28,-0.05 -0.28,0.05 -0.25,0.17 -0.97,0.97 0,-1.94 -2,0 0,1.94 -0.97,-0.97 -0.25,-0.17 -0.28,-0.05 -0.28,0.05 -0.25,0.17 -0.17,0.25 -0.05,0.28 0.05,0.28 0.17,0.25 2.03,2.03 0,0.84 0.18,2.65 -2.16,-1.59 -0.44,-0.28 -0.77,-2.87 -0.13,-0.27 -0.22,-0.19 -0.27,-0.09 -0.3,0.02 -0.27,0.13 -0.18,0.21 -0.1,0.28 0.02,0.29 0.36,1.33 -2.19,-1.37 -1.06,1.7 2.24,1.4 -1.32,0.36 -0.27,0.13 -0.18,0.22 -0.1,0.27 0.02,0.29 0.13,0.27 0.22,0.19 0.27,0.09 0.3,-0.02 2.67,-0.71 0.57,0.35 2.49,1.31 -2.47,1.34 -0.53,0.34 -2.73,-0.73 -0.3,-0.02 -0.27,0.09 -0.22,0.19 -0.13,0.27 -0.02,0.29 0.1,0.27 0.18,0.22 0.27,0.13 1.4,0.38 -2.33,1.48 1.08,1.69 2.15,-1.37 -0.33,1.24 -0.02,0.29 0.1,0.27 0.18,0.22 0.27,0.13 0.3,0.02 0.27,-0.09 0.22,-0.19 0.13,-0.27 0.76,-2.82 0.47,-0.3 2.14,-1.76 -0.18,2.79 0,0.84 -2.03,2.03 -0.17,0.25 -0.05,0.28 0.05,0.28 0.17,0.25 0.25,0.17 0.28,0.05 0.28,-0.05 0.25,-0.17 0.97,-0.97 0,1.94 2,0 0,-1.94 0.97,0.97 0.25,0.17 0.28,0.05 0.28,-0.05 0.25,-0.17 0.17,-0.25 0.05,-0.28 -0.05,-0.28 -0.17,-0.25 -2.03,-2.03 0,-0.84 -0.22,-2.76 2.2,1.7 0.44,0.28 0.77,2.87 0.13,0.27 0.22,0.19 0.27,0.09 0.3,-0.02 0.27,-0.13 0.18,-0.22 0.1,-0.27 -0.02,-0.29 -0.36,-1.33 2.19,1.37 Z" fill-rule="evenodd" fill="#000000" />
</svg>