<svg xmlns="http://www.w3.org/2000/svg" viewBox="0 0 24 24">
  <path id="soundWave02" d="M 13,3.5 l 0.15,-0.35 0.35,-0.15 1,0 0.35,0.15 0.15,0.35 0,17 -0.15,0.35 -0.35,0.15 -1,0 -0.35,-0.15 -0.15,-0.35 0,-17 Z M 9,4.5 l 0.15,-0.35 0.35,-0.15 1,0 0.35,0.15 0.15,0.35 0,15 -0.15,0.35 -0.35,0.15 -1,0 -0.35,-0.15 -0.15,-0.35 0,-15 Z M 5,8.75 l 0.06,-0.29 0.16,-0.24 0.24,-0.16 0.29,-0.06 0.5,0 0.29,0.06 0.24,0.16 0.16,0.24 0.06,0.29 0,6.5 -0.06,0.29 -0.16,0.24 -0.24,0.16 -0.29,0.06 -0.5,0 -0.29,-0.06 -0.24,-0.16 -0.16,-0.24 -0.06,-0.29 0,-6.5 Z M 17,8.75 l 0.06,-0.29 0.16,-0.24 0.24,-0.16 0.29,-0.06 0.5,0 0.29,0.06 0.24,0.16 0.16,0.24 0.06,0.29 0,6.5 -0.06,0.29 -0.16,0.24 -0.24,0.16 -0.29,0.06 -0.5,0 -0.29,-0.06 -0.24,-0.16 -0.16,-0.24 -0.06,-0.29 0,-6.5 Z M 20.5,10.75 l 0.06,-0.29 0.16,-0.24 0.24,-0.16 0.29,-0.06 0.29,0.06 0.24,0.16 0.16,0.24 0.06,0.29 0,2.5 -0.06,0.29 -0.16,0.24 -0.24,0.16 -0.29,0.06 -0.29,-0.06 -0.24,-0.16 -0.16,-0.24 -0.06,-0.29 0,-2.5 Z M 2,11.75 l 0.06,-0.29 0.16,-0.24 0.24,-0.16 0.29,-0.06 0.29,0.06 0.24,0.16 0.16,0.24 0.06,0.29 0,0.5 -0.06,0.29 -0.16,0.24 -0.24,0.16 -0.29,0.06 -0.29,-0.06 -0.24,-0.16 -0.16,-0.24 -0.06,-0.29 0,-0.5 Z" fill-rule="evenodd" fill="#000000" />
</svg>