<svg xmlns="http://www.w3.org/2000/svg" viewBox="0 0 24 24">
  <path id="soundLimit" d="M 2.75,5 l 18.5,0 0.29,0.06 0.24,0.16 0.16,0.24 0.06,0.29 -0.06,0.29 -0.16,0.24 -0.24,0.16 -0.29,0.06 -18.5,0 -0.29,-0.06 -0.24,-0.16 -0.16,-0.24 -0.06,-0.29 0.06,-0.29 0.16,-0.24 0.24,-0.16 0.29,-0.06 Z M 9.5,8 l 1,0 0.35,0.15 0.15,0.35 0,11 -0.15,0.35 -0.35,0.15 -1,0 -0.35,-0.15 -0.15,-0.35 0,-11 0.15,-0.35 0.35,-0.15 Z M 13.5,8 l 1,0 0.35,0.15 0.15,0.35 0,11 -0.15,0.35 -0.35,0.15 -1,0 -0.35,-0.15 -0.15,-0.35 0,-11 0.15,-0.35 0.35,-0.15 Z M 5.75,12 l 0.5,0 0.29,0.06 0.24,0.16 0.16,0.24 0.06,0.29 0,6.5 -0.06,0.29 -0.16,0.24 -0.24,0.16 -0.29,0.06 -0.5,0 -0.29,-0.06 -0.24,-0.16 -0.16,-0.24 -0.06,-0.29 0,-6.5 0.06,-0.29 0.16,-0.24 0.24,-0.16 0.29,-0.06 Z M 17.75,12 l 0.5,0 0.29,0.06 0.24,0.16 0.16,0.24 0.06,0.29 0,6.5 -0.06,0.29 -0.16,0.24 -0.24,0.16 -0.29,0.06 -0.5,0 -0.29,-0.06 -0.24,-0.16 -0.16,-0.24 -0.06,-0.29 0,-6.5 0.06,-0.29 0.16,-0.24 0.24,-0.16 0.29,-0.06 Z M 22,16.75 l 0,2.5 -0.06,0.29 -0.16,0.24 -0.24,0.16 -0.29,0.06 -0.29,-0.06 -0.24,-0.16 -0.16,-0.24 -0.06,-0.29 0,-2.5 0.06,-0.29 0.16,-0.24 0.24,-0.16 0.29,-0.06 0.29,0.06 0.24,0.16 0.16,0.24 0.06,0.29 Z M 3.5,18.75 l 0,0.5 -0.06,0.29 -0.16,0.24 -0.24,0.16 -0.29,0.06 -0.29,-0.06 -0.24,-0.16 -0.16,-0.24 -0.06,-0.29 0,-0.5 0.06,-0.29 0.16,-0.24 0.24,-0.16 0.29,-0.06 0.29,0.06 0.24,0.16 0.16,0.24 0.06,0.29 Z" fill-rule="evenodd" fill="#000000" />
</svg>