<svg xmlns="http://www.w3.org/2000/svg" viewBox="0 0 24 24">
  <path id="soundWave01" d="M 5,5.75 l 0.06,-0.29 0.16,-0.24 0.24,-0.16 0.29,-0.06 0.5,0 0.29,0.06 0.24,0.16 0.16,0.24 0.06,0.29 0,6.5 -0.06,0.29 -0.16,0.24 -0.24,0.16 -0.29,0.06 -0.5,0 -0.29,-0.06 -0.24,-0.16 -0.16,-0.24 -0.06,-0.29 0,-6.5 Z M 19,18.25 l -0.06,0.29 -0.16,0.24 -0.24,0.16 -0.29,0.06 -0.5,0 -0.29,-0.06 -0.24,-0.16 -0.16,-0.24 -0.06,-0.29 0,-6.5 0.06,-0.29 0.16,-0.24 0.24,-0.16 0.29,-0.06 0.5,0 0.29,0.06 0.24,0.16 0.16,0.24 0.06,0.29 0,6.5 Z M 9,9 l 0.15,-0.35 0.35,-0.15 1,0 0.35,0.15 0.15,0.35 0,3.5 -0.15,0.35 -0.35,0.15 -1,0 -0.35,-0.15 -0.15,-0.35 0,-3.5 Z M 15,15 l -0.15,0.35 -0.35,0.15 -1,0 -0.35,-0.15 -0.15,-0.35 0,-3.5 0.15,-0.35 0.35,-0.15 1,0 0.35,0.15 0.15,0.35 0,3.5 Z M 2,8.75 l 0.06,-0.29 0.16,-0.24 0.24,-0.16 0.29,-0.06 0.29,0.06 0.24,0.16 0.16,0.24 0.06,0.29 0,3.5 -0.06,0.29 -0.16,0.24 -0.24,0.16 -0.29,0.06 -0.29,-0.06 -0.24,-0.16 -0.16,-0.24 -0.06,-0.29 0,-3.5 Z M 22,15.25 l -0.06,0.29 -0.16,0.24 -0.24,0.16 -0.29,0.06 -0.29,-0.06 -0.24,-0.16 -0.16,-0.24 -0.06,-0.29 0,-3.5 0.06,-0.29 0.16,-0.24 0.24,-0.16 0.29,-0.06 0.29,0.06 0.24,0.16 0.16,0.24 0.06,0.29 0,3.5 Z" fill-rule="evenodd" fill="#000000" />
</svg>