<svg xmlns="http://www.w3.org/2000/svg" viewBox="0 0 24 24">
  <path id="soundLoud" d="M 12,7 l 0,10 -1,0 -3,-2 -2,0 0,-6 2,0 3,-2 1,0 Z M 18.83,5.75 l 1.29,-0.75 0.82,1.65 0.58,1.73 0.36,1.79 0.12,1.83 -0.12,1.83 -0.36,1.79 -0.58,1.73 -0.82,1.65 -1.29,-0.75 0.72,-1.47 0.52,-1.54 0.32,-1.6 0.11,-1.64 -0.11,-1.64 -0.32,-1.6 -0.52,-1.54 -0.72,-1.47 Z M 16.23,7.25 l 1.3,-0.75 0.63,1.29 0.47,1.36 0.28,1.41 0.09,1.44 -0.09,1.44 -0.28,1.41 -0.47,1.36 -0.63,1.29 -1.3,-0.75 0.55,-1.12 0.4,-1.17 0.24,-1.22 0.08,-1.24 -0.08,-1.24 -0.24,-1.22 -0.4,-1.17 -0.55,-1.12 Z M 13.63,8.75 l 1.3,-0.75 0.46,0.94 0.34,0.99 0.2,1.02 0.07,1.05 -0.07,1.05 -0.2,1.02 -0.34,0.99 -0.46,0.94 -1.3,-0.75 0.38,-0.76 0.27,-0.81 0.16,-0.83 0.06,-0.85 -0.06,-0.85 -0.16,-0.83 -0.27,-0.81 -0.38,-0.76 Z" fill-rule="evenodd" fill="#000000" />
</svg>