<svg xmlns="http://www.w3.org/2000/svg" viewBox="0 0 24 24">
  <path id="soundFadeOut" d="M 3,3.25 l 1.85,0.11 1.62,0.31 1.43,0.49 1.26,0.65 1.1,0.78 0.98,0.88 1.72,1.93 0.66,0.83 1.46,1.78 1.63,1.67 0.94,0.77 1.06,0.69 1.18,0.62 1.35,0.53 0.26,0.15 0.17,0.22 0.08,0.28 -0.04,0.3 -0.15,0.26 -0.22,0.17 -0.28,0.08 -0.3,-0.04 -1.5,-0.59 -1.33,-0.69 -1.17,-0.78 -1.04,-0.84 -0.93,-0.89 -0.84,-0.92 -1.51,-1.84 -0.65,-0.81 -1.6,-1.81 -0.87,-0.78 -0.95,-0.67 -1.06,-0.55 -1.23,-0.42 -1.42,-0.27 -1.66,-0.1 -0.29,-0.06 -0.24,-0.16 -0.16,-0.24 -0.06,-0.29 0.06,-0.29 0.16,-0.24 0.24,-0.16 0.29,-0.06 Z M 3.5,7 l 1,0 0.35,0.15 0.15,0.35 0,12 -0.15,0.35 -0.35,0.15 -1,0 -0.35,-0.15 -0.15,-0.35 0,-12 0.15,-0.35 0.35,-0.15 Z M 7.5,8 l 1,0 0.35,0.15 0.15,0.35 0,11 -0.15,0.35 -0.35,0.15 -1,0 -0.35,-0.15 -0.15,-0.35 0,-11 0.15,-0.35 0.35,-0.15 Z M 11.5,12 l 1,0 0.35,0.15 0.15,0.35 0,7 -0.15,0.35 -0.35,0.15 -1,0 -0.35,-0.15 -0.15,-0.35 0,-7 0.15,-0.35 0.35,-0.15 Z M 15.5,16 l 1,0 0.35,0.15 0.15,0.35 0,3 -0.15,0.35 -0.35,0.15 -1,0 -0.35,-0.15 -0.15,-0.35 0,-3 0.15,-0.35 0.35,-0.15 Z M 19.5,18 l 1,0 0.35,0.15 0.15,0.35 0,1 -0.15,0.35 -0.35,0.15 -1,0 -0.35,-0.15 -0.15,-0.35 0,-1 0.15,-0.35 0.35,-0.15 Z" fill-rule="evenodd" fill="#000000" />
</svg>