<svg xmlns="http://www.w3.org/2000/svg" viewBox="0 0 24 24">
  <path id="sphereOnMesh" d="M 13,4 l 0,4.13 0.62,0.21 0.58,0.32 0.51,0.4 0.44,0.47 0.36,0.54 0.26,0.6 0.17,0.65 0.06,0.68 -0.06,0.68 -0.17,0.65 -0.26,0.6 -0.36,0.54 -0.44,0.47 -0.51,0.4 -0.58,0.32 -0.62,0.21 0,4.13 -2,0 0,-4.13 -0.62,-0.21 -0.58,-0.32 -0.51,-0.4 -0.44,-0.47 -0.36,-0.54 -0.26,-0.6 -0.17,-0.65 -0.06,-0.68 0.06,-0.68 0.17,-0.65 0.26,-0.6 0.36,-0.54 0.44,-0.47 0.51,-0.4 0.58,-0.32 0.62,-0.21 0,-4.13 2,0 Z M 6,11 l 1,0 0,2 -1,0 0,6 -2,0 0,-14 2,0 0,6 Z M 17,11 l 1,0 0,-6 2,0 0,14 -2,0 0,-6 -1,0 0,-2 Z M 11.26,9.09 l -0.41,0.14 -0.52,0.28 -0.45,0.37 -0.37,0.45 -0.28,0.52 -0.14,0.41 0,0.28 0.14,0.24 0.23,0.16 0.29,0.06 0.16,0 0.43,-0.17 0.27,-0.4 0.33,-0.49 0.49,-0.33 0.4,-0.27 0.17,-0.43 0,-0.16 -0.06,-0.29 -0.16,-0.23 -0.24,-0.14 -0.28,0 Z" fill-rule="evenodd" fill="#000000" />
</svg>