<svg xmlns="http://www.w3.org/2000/svg" viewBox="0 0 24 24">
  <path id="sphericalBeam" d="M 5.48,9.04 l 0.47,-0.94 0.53,-0.9 0.64,-0.8 0.74,-0.7 0.82,-0.59 0.9,-0.48 0.96,-0.34 1,-0.22 1.04,-0.07 1.5,0.15 1.39,0.43 1.26,0.69 1.1,0.9 0.9,1.1 0.69,1.26 0.43,1.39 0.15,1.5 0,1.16 -0.15,1.5 -0.43,1.39 -0.69,1.26 -0.9,1.1 -1.1,0.9 -1.26,0.69 -1.39,0.43 -1.5,0.15 -1.04,-0.07 -1,-0.22 -0.96,-0.34 -0.9,-0.48 -0.82,-0.59 -0.74,-0.7 -0.64,-0.8 -0.53,-0.9 -0.47,-0.94 -0.48,0.04 -0.6,-0.06 -0.57,-0.18 -0.51,-0.27 -0.44,-0.37 -0.37,-0.44 -0.27,-0.51 -0.18,-0.57 -0.06,-0.6 0.06,-0.6 0.18,-0.57 0.27,-0.51 0.37,-0.44 0.44,-0.37 0.51,-0.27 0.57,-0.18 0.6,-0.06 0.48,0.04 Z M 6.5,12 l -0.12,-0.58 -0.32,-0.48 -0.48,-0.32 -0.58,-0.12 -0.58,0.12 -0.48,0.32 -0.32,0.48 -0.12,0.58 0.12,0.58 0.32,0.48 0.48,0.32 0.58,0.12 0.58,-0.12 0.48,-0.32 0.32,-0.48 0.12,-0.58 Z" fill-rule="evenodd" fill="#000000" />
</svg>