<svg xmlns="http://www.w3.org/2000/svg" viewBox="0 0 24 24">
  <path id="sphereOnPathNumber" d="M 10,16 l -1.01,-0.1 -0.94,-0.29 -0.85,-0.46 -0.74,-0.61 -0.61,-0.74 -0.46,-0.85 -0.29,-0.94 -0.1,-1.01 0.1,-1.01 0.29,-0.94 0.46,-0.85 0.61,-0.74 0.74,-0.61 0.85,-0.46 0.94,-0.29 1.01,-0.1 1.01,0.1 0.94,0.29 0.85,0.46 0.74,0.61 0.61,0.74 0.46,0.85 0.29,0.94 0.1,1.01 -0.1,1.01 -0.29,0.94 -0.46,0.85 -0.61,0.74 -0.74,0.61 -0.85,0.46 -0.94,0.29 -1.01,0.1 Z M 15.75,15.89 l 1.5,0 0,0.47 0.6,-0.44 0.8,-0.15 0.73,0.13 0.55,0.37 0.36,0.6 0.12,0.78 0,3.35 -1.5,0 0,-2.61 -0.04,-0.55 -0.14,-0.35 -0.24,-0.2 -0.37,-0.07 -0.39,0.07 -0.28,0.21 -0.15,0.35 -0.05,0.52 0,2.63 -1.5,0 0,-5.11 Z M 7.5,11.03 l 0.06,-0.42 0.18,-0.44 0.61,-0.82 0.82,-0.61 0.44,-0.18 0.42,-0.06 0.38,-0.06 0.29,-0.17 0.2,-0.24 0.1,-0.28 -0.03,-0.28 -0.16,-0.24 -0.31,-0.17 -0.47,-0.06 -0.8,0.08 -0.76,0.24 -0.68,0.38 -0.6,0.49 -0.49,0.6 -0.38,0.68 -0.24,0.76 -0.08,0.8 0.06,0.47 0.17,0.31 0.24,0.16 0.28,0.03 0.28,-0.1 0.24,-0.2 0.17,-0.29 0.06,-0.38 Z M 9.88,2 l 0.24,0 0.36,0.07 0.3,0.18 0.22,0.27 0.11,0.35 0.31,2.3 -1.42,-0.17 -1.42,0.17 0.31,-2.3 0.11,-0.35 0.22,-0.27 0.3,-0.18 0.36,-0.07 Z" fill-rule="evenodd" fill="#000000" />
</svg>