<svg xmlns="http://www.w3.org/2000/svg" viewBox="0 0 24 24">
  <path id="sphereOnPath" d="M 8.47,13.54 l -0.61,-0.74 -0.46,-0.85 -0.3,-0.94 -0.1,-1.01 0.1,-1.01 0.29,-0.94 0.46,-0.85 0.61,-0.74 0.74,-0.61 0.85,-0.46 0.94,-0.29 1.01,-0.1 1.01,0.1 0.94,0.29 0.85,0.46 0.74,0.61 0.61,0.74 0.46,0.85 0.29,0.94 0.1,1.01 -0.1,1.01 -0.3,0.94 -0.46,0.85 -0.61,0.74 -0.06,-0.42 -0.11,-0.46 -0.21,-0.4 -0.62,-0.59 -0.79,-0.31 -0.85,0.02 -0.89,0.12 -0.89,-0.12 -0.85,-0.02 -0.79,0.31 -0.62,0.59 -0.21,0.4 -0.11,0.46 -0.06,0.42 Z M 8.65,19.87 l 0.87,-6.62 0.16,-0.43 0.32,-0.31 0.43,-0.16 0.47,0.01 1.1,0.14 1.1,-0.14 0.47,-0.01 0.43,0.16 0.32,0.31 0.16,0.43 0.87,6.62 0.01,0.22 -0.04,0.19 -0.14,0.29 -0.21,0.22 -0.28,0.16 -0.33,0.05 -4.72,0 -0.42,-0.09 -0.33,-0.25 -0.22,-0.43 -0.01,-0.01 -0.01,-0.35 Z M 9.5,10.03 l 0.06,-0.42 0.18,-0.44 0.61,-0.82 0.82,-0.61 0.44,-0.18 0.42,-0.06 0.38,-0.06 0.29,-0.17 0.2,-0.24 0.1,-0.28 -0.03,-0.28 -0.16,-0.24 -0.31,-0.17 -0.47,-0.06 -0.8,0.08 -0.76,0.24 -0.68,0.38 -0.6,0.49 -0.49,0.6 -0.38,0.68 -0.24,0.76 -0.08,0.8 0.06,0.47 0.17,0.31 0.24,0.16 0.28,0.03 0.28,-0.1 0.24,-0.2 0.17,-0.29 0.06,-0.38 Z M 11.88,2 l 0.24,0 0.36,0.07 0.3,0.18 0.22,0.27 0.11,0.35 0.17,1.27 -1.28,-0.14 -1.28,0.14 0.17,-1.27 0.11,-0.35 0.22,-0.27 0.3,-0.18 0.36,-0.07 Z" fill-rule="evenodd" fill="#000000" />
</svg>