<svg xmlns="http://www.w3.org/2000/svg" viewBox="0 0 24 24">
  <path id="spoilerLift" d="M 20.1,11.45 l -0.37,0.4 -0.53,0.15 -5.2,0 1,5 -2,0 -1,-5 -2.1,0 -0.31,-0.05 -0.27,-0.14 -0.22,-0.21 -0.13,-0.29 -0.25,-0.94 -0.25,-1.14 -0.23,-1.27 -0.16,-1.35 0.09,-0.5 0.32,-0.36 0.46,-0.15 0.51,0.08 2.83,1.19 2.8,1.02 1.32,0.44 1.24,0.39 1.13,0.34 1.01,0.29 0.4,0.21 0.26,0.36 0.09,0.43 -0.11,0.44 -0.33,0.66 Z M 16,13 l 2,0 1,4 -2,0 -1,-4 Z M 5.07,16.32 l -0.07,-0.24 0,-0.18 0.07,-0.22 0.17,-0.14 0.22,-0.03 0.21,0.1 1.06,0.96 0.27,0.11 0.27,-0.11 1.06,-0.96 0.21,-0.1 0.22,0.03 0.17,0.14 0.07,0.22 0,0.18 -0.07,0.24 -1.6,2.23 -0.33,0.16 -0.32,-0.16 -1.61,-2.23 Z M 6.93,13.68 l 0.07,0.24 0,0.18 -0.07,0.22 -0.17,0.14 -0.22,0.03 -0.21,-0.1 -1.06,-0.96 -0.27,-0.11 -0.27,0.11 -1.06,0.96 -0.21,0.1 -0.22,-0.03 -0.17,-0.14 -0.07,-0.22 0,-0.18 0.07,-0.24 1.6,-2.23 0.33,-0.16 0.32,0.16 1.61,2.23 Z" fill-rule="evenodd" fill="#000000" />
</svg>