<svg xmlns="http://www.w3.org/2000/svg" viewBox="0 0 24 24">
  <path id="sprayCan" d="M 3,11.56 l 0.16,-0.4 0.4,-0.16 6.88,0 0.4,0.16 0.16,0.4 0,8.44 -0.08,0.39 -0.21,0.32 -0.32,0.21 -0.39,0.08 -6,0 -0.39,-0.08 -0.32,-0.21 -0.21,-0.32 -0.08,-0.39 0,-8.44 Z M 6,5 l 2,0 0.39,0.08 0.32,0.21 0.21,0.32 0.08,0.39 0,2 1.57,1.57 0.06,0.28 -0.23,0.15 -6.8,0 -0.23,-0.15 0.06,-0.28 1.57,-1.57 0,-2 0.08,-0.39 0.21,-0.32 0.32,-0.21 0.39,-0.08 Z M 12.26,6.33 l 1.2,-0.74 0.42,-0.19 0.44,-0.07 0.43,0.06 0.39,0.16 0.35,0.25 0.27,0.33 0.18,0.41 0.06,0.46 -0.06,0.46 -0.18,0.41 -0.27,0.33 -0.35,0.25 -0.39,0.16 -0.43,0.06 -0.44,-0.07 -0.42,-0.19 -1.2,-0.74 -0.19,-0.21 -0.07,-0.27 0,-0.38 0.07,-0.27 0.19,-0.21 Z M 18.5,6 l -0.58,-0.12 -0.48,-0.32 -0.32,-0.48 -0.12,-0.58 0.12,-0.58 0.32,-0.48 0.48,-0.32 0.58,-0.12 0.58,0.12 0.48,0.32 0.32,0.48 0.12,0.58 -0.12,0.58 -0.32,0.48 -0.48,0.32 -0.58,0.12 Z M 20,9.5 l -0.12,0.58 -0.32,0.48 -0.48,0.32 -0.58,0.12 -0.58,-0.12 -0.48,-0.32 -0.32,-0.48 -0.12,-0.58 0.12,-0.58 0.32,-0.48 0.48,-0.32 0.58,-0.12 0.58,0.12 0.48,0.32 0.32,0.48 0.12,0.58 Z" fill-rule="evenodd" fill="#000000" />
</svg>