<svg xmlns="http://www.w3.org/2000/svg" viewBox="0 0 24 24">
  <path id="stack3" d="M 12.14,13.14 l -1.15,-0.15 -0.99,-0.45 -0.78,-0.73 -0.55,-0.98 1.63,-0.66 0.35,0.55 0.42,0.39 0.5,0.23 0.57,0.08 0.64,-0.09 0.48,-0.26 0.31,-0.41 0.11,-0.55 -0.11,-0.51 -0.31,-0.4 -0.49,-0.26 -0.64,-0.08 -0.94,0 0,-1.73 0.91,0 0.51,-0.08 0.4,-0.25 0.25,-0.39 0.08,-0.5 -0.08,-0.49 -0.26,-0.38 -0.4,-0.25 -0.5,-0.08 -0.45,0.06 -0.41,0.19 -0.35,0.3 -0.29,0.42 -1.63,-0.64 0.54,-0.86 0.73,-0.64 0.88,-0.41 1,-0.13 0.84,0.09 0.74,0.26 0.61,0.41 0.46,0.56 0.29,0.66 0.09,0.76 -0.07,0.65 -0.24,0.59 -0.37,0.51 -0.5,0.4 0.63,0.37 0.48,0.56 0.31,0.69 0.1,0.79 -0.11,0.78 -0.32,0.69 -0.51,0.57 -0.68,0.43 -0.81,0.28 -0.92,0.09 Z M 3.5,14.5 l 17,0 0,2 -17,0 0,-2 Z M 3.5,18 l 17,0 0,2 -17,0 0,-2 Z" fill-rule="evenodd" fill="#000000" />
</svg>