<svg xmlns="http://www.w3.org/2000/svg" viewBox="0 0 24 24">
  <path id="starSecondary" d="M 12.45,2.98 l 2.25,4.88 0.16,0.2 0.24,0.09 5.33,0.63 0.27,0.12 0.15,0.22 0.01,0.28 -0.15,0.25 -3.94,3.64 -0.14,0.22 -0.01,0.25 1.05,5.27 -0.03,0.29 -0.17,0.21 -0.25,0.09 -0.29,-0.06 -4.69,-2.62 -0.24,-0.07 -0.24,0.07 -4.69,2.62 -0.29,0.06 -0.25,-0.09 -0.17,-0.21 -0.03,-0.29 1.05,-5.27 -0.01,-0.25 -0.14,-0.22 -3.94,-3.64 -0.15,-0.25 0.01,-0.28 0.15,-0.22 0.27,-0.12 5.33,-0.63 0.24,-0.09 0.16,-0.2 2.25,-4.88 0.19,-0.21 0.26,-0.08 0.26,0.08 0.19,0.21 Z M 12.2,8.26 l -0.2,-0.1 -0.2,0.1 -1.24,1.64 -0.11,0.09 -1.94,0.67 -0.16,0.15 0.04,0.23 1.17,1.68 0.04,0.13 0.04,2.06 0.11,0.19 0.22,0.04 1.96,-0.6 0.14,0 1.96,0.6 0.22,-0.04 0.11,-0.19 0.04,-2.06 0.04,-0.13 1.17,-1.68 0.04,-0.23 -0.16,-0.15 -1.94,-0.67 -0.11,-0.09 -1.24,-1.64 Z" fill-rule="evenodd" fill="#000000" />
</svg>