<svg xmlns="http://www.w3.org/2000/svg" viewBox="0 0 24 24">
  <path id="steeringWheelSporty" d="M 12,21 l -1.81,-0.18 -1.69,-0.53 -1.53,-0.83 -1.33,-1.1 -1.1,-1.33 -0.83,-1.53 -0.53,-1.69 -0.18,-1.81 0.18,-1.81 0.53,-1.69 0.83,-1.53 1.1,-1.33 1.33,-1.1 1.53,-0.83 1.69,-0.53 1.81,-0.18 1.81,0.18 1.69,0.53 1.53,0.83 1.33,1.1 1.1,1.33 0.83,1.53 0.53,1.69 0.18,1.81 -0.18,1.81 -0.53,1.69 -0.83,1.53 -1.1,1.33 -1.33,1.1 -1.53,0.83 -1.69,0.53 -1.81,0.18 Z M 12,5 l -0.97,0.07 -0.93,0.19 -0.88,0.31 -0.82,0.42 -0.75,0.53 -0.68,0.61 -0.59,0.69 -0.5,0.78 4.12,0.9 0.5,-0.5 3,0 0.5,0.5 4.12,-0.9 -0.5,-0.78 -0.59,-0.69 -0.68,-0.61 -0.75,-0.53 -0.82,-0.42 -0.88,-0.31 -0.93,-0.19 -0.97,-0.07 Z M 10.58,14.89 l -0.27,0 -0.26,-0.08 -0.19,-0.2 -0.76,-1.51 -0.09,-0.3 -0.01,-0.3 -3.79,-2.21 -0.16,0.84 -0.05,0.87 0.12,1.28 0.33,1.2 0.54,1.11 0.71,0.99 0.87,0.84 1.01,0.69 1.12,0.5 1.22,0.31 -0.34,-4.03 Z M 15,12.5 l -0.01,0.3 -0.09,0.3 -0.76,1.51 -0.19,0.2 -0.26,0.08 -0.27,0 -0.34,4.03 1.22,-0.31 1.12,-0.5 1.01,-0.69 0.87,-0.84 0.71,-0.99 0.54,-1.11 0.33,-1.2 0.12,-1.28 -0.05,-0.87 -0.16,-0.84 -3.79,2.21 Z M 12,13.5 l 0.58,-0.12 0.48,-0.32 0.32,-0.48 0.12,-0.58 -0.12,-0.58 -0.32,-0.48 -0.48,-0.32 -0.58,-0.12 -0.58,0.12 -0.48,0.32 -0.32,0.48 -0.12,0.58 0.12,0.58 0.32,0.48 0.48,0.32 0.58,0.12 Z" fill-rule="evenodd" fill="#000000" />
</svg>