<svg xmlns="http://www.w3.org/2000/svg" viewBox="0 0 24 24">
  <path id="steeringWheelCommon" d="M 21,12 l -0.18,1.81 -0.53,1.69 -0.83,1.53 -1.1,1.33 -1.33,1.1 -1.53,0.83 -1.69,0.53 -1.81,0.18 -1.81,-0.18 -1.69,-0.53 -1.53,-0.83 -1.33,-1.1 -1.1,-1.33 -0.83,-1.53 -0.53,-1.69 -0.18,-1.81 0.18,-1.81 0.53,-1.69 0.83,-1.53 1.1,-1.33 1.33,-1.1 1.53,-0.83 1.69,-0.53 1.81,-0.18 1.81,0.18 1.69,0.53 1.53,0.83 1.33,1.1 1.1,1.33 0.83,1.53 0.53,1.69 0.18,1.81 Z M 15.46,9.71 l 2.42,-0.49 -0.45,-0.79 -0.54,-0.72 -0.64,-0.63 -0.73,-0.54 -0.79,-0.44 -0.86,-0.33 -0.91,-0.2 -0.96,-0.07 -0.96,0.07 -0.91,0.2 -0.86,0.33 -0.79,0.44 -0.73,0.54 -0.64,0.63 -0.54,0.72 -0.45,0.79 2.42,0.49 0.22,-0.24 0.29,-0.15 0.8,-0.27 0.31,-0.05 3.68,0 0.31,0.05 0.8,0.27 0.29,0.15 0.22,0.24 Z M 10.94,18.41 l -0.29,-2.96 -0.17,-0.32 -0.33,-0.13 -0.03,0 -0.53,-0.15 -0.37,-0.4 -1.07,-2.14 -0.09,-0.32 0.01,-0.33 0.04,-0.23 -2.48,-0.74 -0.13,1.31 0.11,1.18 0.31,1.11 0.49,1.03 0.65,0.91 0.8,0.78 0.93,0.64 1.03,0.48 1.12,0.28 Z M 13.06,18.41 l 1.12,-0.28 1.03,-0.48 0.93,-0.64 0.8,-0.78 0.65,-0.91 0.49,-1.03 0.31,-1.11 0.11,-1.18 -0.13,-1.31 -2.48,0.74 0.04,0.23 0.01,0.33 -0.09,0.32 -1.07,2.14 -0.37,0.4 -0.53,0.15 -0.03,0 -0.33,0.13 -0.16,0.32 -0.3,2.96 Z M 13.5,11 l -3,0 0,1 3,0 0,-1 Z" fill-rule="evenodd" fill="#000000" />
</svg>