<svg xmlns="http://www.w3.org/2000/svg" viewBox="0 0 24 24">
  <path id="stopwatchArrows01" d="M 16.62,11.09 l -0.55,-1 -0.76,-0.84 -0.26,-0.31 -0.15,-0.37 -0.03,-0.39 0.13,-0.38 0.26,-0.29 0.34,-0.17 0.38,-0.01 0.35,0.17 0.66,0.59 0.59,0.68 0.49,0.74 0.4,0.81 0.35,1.09 0.17,1.13 -0.02,1.14 -0.21,1.13 -0.39,1.08 -0.55,1 -0.71,0.89 -0.85,0.77 -0.96,0.63 -1.05,0.45 -1.11,0.28 -1.14,0.09 -1.14,-0.09 -1.11,-0.28 -1.05,-0.45 -0.96,-0.63 -0.85,-0.77 -0.71,-0.89 -0.55,-1 -0.39,-1.08 -0.21,-1.13 -0.02,-1.14 0.17,-1.13 0.35,-1.09 0.4,-0.81 0.49,-0.74 0.59,-0.68 0.66,-0.59 0.35,-0.17 0.38,0.01 0.34,0.17 0.26,0.29 0.13,0.38 -0.03,0.39 -0.15,0.37 -0.26,0.31 -0.76,0.84 -0.55,1 -0.25,0.78 -0.12,0.8 0.01,0.82 0.15,0.8 0.28,0.78 0.39,0.71 0.51,0.64 0.61,0.55 0.69,0.44 0.74,0.32 0.79,0.2 0.82,0.07 0.82,-0.07 0.79,-0.2 0.74,-0.32 0.69,-0.44 0.61,-0.55 0.51,-0.64 0.39,-0.71 0.28,-0.78 0.15,-0.8 0.01,-0.82 -0.12,-0.8 -0.25,-0.78 Z M 12.47,14.43 l -0.47,0.07 -0.58,-0.12 -0.48,-0.32 -0.32,-0.48 -0.12,-0.58 0.13,-0.62 0.37,-0.5 0,-3.88 0.08,-0.39 0.21,-0.32 0.32,-0.21 0.39,-0.08 0.39,0.08 0.32,0.21 0.21,0.32 0.08,0.39 0,3.88 0.3,0.37 0.17,0.44 1.67,0.97 0.29,0.26 0.17,0.34 0.03,0.39 -0.13,0.37 -0.26,0.3 -0.34,0.17 -0.39,0.03 -0.37,-0.13 -1.67,-0.96 Z M 14.5,2 l 0,1.5 -1.5,0 0,1.56 -1,-0.06 -1,0.06 0,-1.56 -1.5,0 0,-1.5 5,0 Z M 18.57,8.43 l -0.91,-1.09 -1.09,-0.91 0.93,-0.93 2,2 -0.93,0.93 Z" fill-rule="evenodd" fill="#000000" />
</svg>