<svg xmlns="http://www.w3.org/2000/svg" viewBox="0 0 24 24">
  <path id="stopwatchSectionOutlinedEnd" d="M 12,20 l -1.41,-0.14 -1.31,-0.41 -1.19,-0.65 -1.04,-0.85 -0.85,-1.04 -0.65,-1.19 -0.41,-1.31 -0.14,-1.41 0.14,-1.41 0.41,-1.31 0.65,-1.19 0.85,-1.04 1.04,-0.85 1.19,-0.65 1.31,-0.41 1.41,-0.14 1.41,0.14 1.31,0.41 1.19,0.65 1.04,0.85 0.85,1.04 0.65,1.19 0.41,1.31 0.14,1.41 -0.14,1.41 -0.41,1.31 -0.65,1.19 -0.85,1.04 -1.04,0.85 -1.19,0.65 -1.31,0.41 -1.41,0.14 Z M 12,18 l 1.01,-0.1 0.94,-0.29 0.85,-0.46 0.74,-0.61 0.61,-0.74 0.46,-0.85 0.29,-0.94 0.1,-1.01 -0.1,-1.01 -0.29,-0.94 -0.46,-0.85 -0.61,-0.74 -0.74,-0.61 -0.85,-0.46 -0.94,-0.29 -1.01,-0.1 0,4.5 -0.15,0.35 -0.35,0.15 -4.5,0 0.1,1.01 0.29,0.94 0.46,0.85 0.61,0.74 0.74,0.61 0.85,0.46 0.94,0.29 1.01,0.1 Z M 9.5,2 l 5,0 0,1.5 -1.5,0 0,1.56 -1,-0.06 -1,0.06 0,-1.56 -1.5,0 0,-1.5 Z M 16.57,6.43 l 0.93,-0.93 2,2 -0.93,0.93 -0.91,-1.09 -1.09,-0.91 Z" fill-rule="evenodd" fill="#000000" />
</svg>