<svg xmlns="http://www.w3.org/2000/svg" viewBox="0 0 24 24">
  <path id="stopwatchArrows02" d="M 12,20 l -1.41,-0.14 -1.31,-0.41 -1.19,-0.65 -1.04,-0.85 -0.85,-1.04 -0.65,-1.19 -0.41,-1.31 -0.14,-1.41 0.14,-1.41 0.41,-1.31 0.65,-1.19 0.85,-1.04 1.04,-0.85 1.19,-0.65 1.31,-0.41 1.41,-0.14 1.41,0.14 1.31,0.41 1.19,0.65 1.04,0.85 0.85,1.04 0.65,1.19 0.41,1.31 0.14,1.41 -0.14,1.41 -0.41,1.31 -0.65,1.19 -0.85,1.04 -1.04,0.85 -1.19,0.65 -1.31,0.41 -1.41,0.14 Z M 12,18 l 1.01,-0.1 0.94,-0.29 0.85,-0.46 0.74,-0.61 0.61,-0.74 0.46,-0.85 0.29,-0.94 0.1,-1.01 -0.1,-1.01 -0.29,-0.94 -0.46,-0.85 -0.61,-0.74 -0.74,-0.61 -0.85,-0.46 -0.94,-0.29 -1.01,-0.1 -1.01,0.1 -0.94,0.29 -0.85,0.46 -0.74,0.61 -0.61,0.74 -0.46,0.85 -0.29,0.94 -0.1,1.01 0.1,1.01 0.29,0.94 0.46,0.85 0.61,0.74 0.74,0.61 0.85,0.46 0.94,0.29 1.01,0.1 Z M 13,9.5 l 0,3.09 1.21,1.2 0.22,0.33 0.07,0.38 -0.07,0.38 -0.22,0.33 -0.33,0.22 -0.38,0.07 -0.38,-0.07 -0.33,-0.22 -1.79,-1.8 0,-3.91 0.08,-0.39 0.21,-0.32 0.32,-0.21 0.39,-0.08 0.39,0.08 0.32,0.21 0.21,0.32 0.08,0.39 Z M 14.5,2 l 0,1.5 -1.5,0 0,1.56 -1,-0.06 -1,0.06 0,-1.56 -1.5,0 0,-1.5 5,0 Z M 18.57,8.43 l -0.91,-1.09 -1.09,-0.91 0.93,-0.93 2,2 -0.93,0.93 Z" fill-rule="evenodd" fill="#000000" />
</svg>