<svg xmlns="http://www.w3.org/2000/svg" viewBox="0 0 24 24">
  <path id="strapHook" d="M 16,3 l 0,5.25 0.88,0.21 0.71,0.51 0.48,0.73 0.18,0.9 -0.08,0.6 -0.22,0.55 -0.36,0.48 -0.48,0.38 -5.93,3.56 -0.13,0.12 -0.05,0.17 0,2.04 0,0.1 0.11,0.36 0.22,0.28 0.3,0.19 0.37,0.07 0.39,-0.08 0.32,-0.21 0.21,-0.32 0.08,-0.39 0,-0.5 0.08,-0.39 0.21,-0.32 0.32,-0.21 0.39,-0.08 0.39,0.08 0.32,0.21 0.21,0.32 0.08,0.39 0,0.5 -0.06,0.6 -0.18,0.57 -0.27,0.51 -0.37,0.44 -0.44,0.37 -0.51,0.27 -0.57,0.18 -0.6,0.06 -0.59,-0.06 -0.54,-0.16 -0.5,-0.26 -0.44,-0.35 -0.37,-0.42 -0.28,-0.48 -0.19,-0.54 -0.09,-0.58 0,-0.15 0,-2.41 -0.15,-0.41 -2.77,-3.87 -0.3,-0.58 -0.12,-0.61 0.05,-0.59 0.2,-0.56 0.34,-0.49 0.46,-0.38 0.56,-0.26 0.65,-0.09 0.08,0 0,-6.25 2.5,1 0.5,-0.2 0,7.2 2,0 0,-8 3,1 Z M 7.92,9.75 l -0.41,0.12 -0.26,0.29 -0.09,0.38 0.14,0.4 2.77,3.87 0.16,0.1 0.18,-0.03 5.93,-3.56 0.3,-0.31 0.11,-0.41 -0.06,-0.31 -0.16,-0.26 -0.23,-0.18 -0.3,-0.1 0,0.25 -0.08,0.39 -0.21,0.32 -0.32,0.21 -0.39,0.08 -6,0 -0.39,-0.08 -0.32,-0.21 -0.21,-0.32 -0.08,-0.39 0,-0.25 -0.08,0 Z" fill-rule="evenodd" fill="#000000" />
</svg>