<svg xmlns="http://www.w3.org/2000/svg" viewBox="0 0 24 24">
  <path id="strapRatchet" d="M 13.92,9.85 l 0.1,0.15 4.25,0 0.31,-0.41 0.41,-0.31 0.48,-0.21 0.53,-0.07 0.78,0.16 0.63,0.43 0.43,0.63 0.16,0.78 -0.16,0.78 -0.43,0.63 -0.63,0.43 -0.78,0.16 -0.53,-0.07 -0.48,-0.21 -0.41,-0.31 -0.31,-0.41 -2.99,0 0.09,0.54 -0.06,0.54 -0.21,0.5 -0.35,0.45 -1.49,1.41 -0.45,0.25 -1.84,0.45 -0.33,0.02 -0.31,-0.08 -1.33,-0.58 0,-3.5 -1.43,-3.34 0.05,-0.28 0.38,-0.38 -3.5,-4 1,-1 8.42,6.85 Z M 4,12 l 0.53,0.07 0.48,0.21 0.41,0.31 0.31,0.41 2.27,0 0,2 -2.27,0 -0.31,0.41 -0.41,0.31 -0.48,0.21 -0.53,0.07 -0.78,-0.16 -0.63,-0.43 -0.43,-0.63 -0.16,-0.78 0.16,-0.78 0.43,-0.63 0.63,-0.43 0.78,-0.16 Z M 15.67,14.5 l 0.81,0.68 0.71,0.78 0.61,0.88 0.49,0.96 0.13,0.31 -1.84,0.78 -0.13,-0.3 -0.41,-0.8 -0.52,-0.71 -0.62,-0.63 -0.7,-0.53 1.24,-1.17 0.19,-0.2 0.04,-0.05 Z" fill-rule="evenodd" fill="#000000" />
</svg>