<svg xmlns="http://www.w3.org/2000/svg" viewBox="0 0 24 24">
  <path id="strobeLights" d="M 8.97,13 l -0.22,-0.13 0.01,-0.26 3.15,-4.73 0.14,-0.1 0.16,0.01 0.12,0.1 0.04,0.16 -0.34,2.67 0.06,0.2 0.19,0.08 2.75,0 0.22,0.13 -0.01,0.26 -3.15,4.73 -0.14,0.1 -0.16,-0.01 -0.12,-0.09 -0.04,-0.17 0.33,-2.67 -0.06,-0.2 -0.18,-0.08 -2.75,0 Z M 4,10 l 5,0 -2,3 0,1 -3,0 -0.5,-1 0,-2 0.5,-1 Z M 17,10 l 3,0 0.5,1 0,2 -0.5,1 -5,0 2,-3 0,-1 Z M 15.98,20.82 l 0,0.4 -0.15,0.35 -0.27,0.28 -0.36,0.15 -0.4,0 -0.35,-0.15 -0.28,-0.27 -0.15,-0.36 -0.5,-2.5 0,-0.4 0.15,-0.36 0.27,-0.27 0.36,-0.15 0.4,0 0.35,0.15 0.28,0.27 0.15,0.36 0.5,2.5 Z M 15.98,3.18 l -0.5,2.5 -0.15,0.36 -0.28,0.27 -0.35,0.15 -0.4,0 -0.36,-0.15 -0.27,-0.27 -0.15,-0.36 0,-0.4 0.5,-2.5 0.15,-0.36 0.28,-0.27 0.35,-0.15 0.4,0 0.36,0.15 0.27,0.28 0.15,0.35 0,0.4 Z M 9.98,21.22 l -0.15,0.36 -0.28,0.27 -0.35,0.15 -0.4,0 -0.36,-0.15 -0.27,-0.28 -0.15,-0.35 0,-0.4 0.5,-2.5 0.15,-0.36 0.28,-0.27 0.35,-0.15 0.4,0 0.36,0.15 0.27,0.27 0.15,0.36 0,0.4 -0.5,2.5 Z M 9.98,2.78 l 0.5,2.5 0,0.4 -0.15,0.36 -0.27,0.27 -0.36,0.15 -0.4,0 -0.35,-0.15 -0.28,-0.27 -0.15,-0.36 -0.5,-2.5 0,-0.4 0.15,-0.35 0.27,-0.28 0.36,-0.15 0.4,0 0.35,0.15 0.28,0.27 0.15,0.36 Z M 4.71,4.77 l 1,1 0.22,0.33 0.07,0.38 -0.07,0.38 -0.22,0.33 -0.33,0.22 -0.38,0.07 -0.38,-0.07 -0.33,-0.22 -1,-1 -0.22,-0.33 -0.07,-0.38 0.07,-0.38 0.22,-0.33 0.33,-0.22 0.38,-0.07 0.38,0.07 0.33,0.22 Z M 4.71,19.23 l -0.33,0.22 -0.38,0.07 -0.38,-0.07 -0.33,-0.22 -0.22,-0.33 -0.07,-0.38 0.07,-0.38 0.22,-0.33 1,-1 0.33,-0.22 0.38,-0.07 0.38,0.07 0.33,0.22 0.22,0.33 0.07,0.38 -0.07,0.38 -0.22,0.33 -1,1 Z M 20.71,6.19 l -1,1 -0.33,0.22 -0.38,0.07 -0.38,-0.07 -0.33,-0.22 -0.22,-0.33 -0.07,-0.38 0.07,-0.38 0.22,-0.33 1,-1 0.33,-0.22 0.38,-0.07 0.38,0.07 0.33,0.22 0.22,0.33 0.07,0.38 -0.07,0.38 -0.22,0.33 Z M 20.71,17.81 l 0.22,0.33 0.07,0.38 -0.07,0.38 -0.22,0.33 -0.33,0.22 -0.38,0.07 -0.38,-0.07 -0.33,-0.22 -1,-1 -0.22,-0.33 -0.07,-0.38 0.07,-0.38 0.22,-0.33 0.33,-0.22 0.38,-0.07 0.38,0.07 0.33,0.22 1,1 Z" fill-rule="evenodd" fill="#000000" />
</svg>