<svg xmlns="http://www.w3.org/2000/svg" viewBox="0 0 24 24">
  <path id="sunRise" d="M 12,8.07 l 1.01,0.1 0.94,0.3 0.85,0.46 0.74,0.61 0.61,0.74 0.46,0.85 0.29,0.94 0.1,1 -0.17,1.3 -0.49,1.18 -0.21,0.34 -0.08,0.11 4.45,0 0.58,0.12 0.48,0.32 0.32,0.48 0.12,0.58 -0.12,0.58 -0.32,0.48 -0.48,0.32 -0.58,0.12 -17,0 -0.58,-0.12 -0.48,-0.32 -0.32,-0.48 -0.12,-0.58 0.12,-0.58 0.32,-0.48 0.48,-0.32 0.58,-0.12 4.45,0 -0.08,-0.11 -0.21,-0.34 -0.49,-1.18 -0.17,-1.3 0.1,-1 0.29,-0.94 0.46,-0.85 0.61,-0.74 0.74,-0.61 0.85,-0.46 0.94,-0.3 1.01,-0.1 Z M 12.55,11.37 l -0.55,-0.17 -0.55,0.17 -1.95,1.3 -0.31,0.4 0,0.5 0.19,0.3 0.28,0.19 0.34,0.05 0.34,-0.11 1.15,-0.69 0.51,-0.14 0.51,0.14 1.15,0.69 0.34,0.11 0.34,-0.05 0.28,-0.19 0.19,-0.3 0,-0.5 -0.31,-0.4 -1.95,-1.3 Z M 4.91,11.62 l 0.38,-0.08 0.35,0.11 0.26,0.26 0.1,0.38 0,1.57 -0.1,0.37 -0.26,0.27 -0.35,0.11 -0.38,-0.08 -1.57,-0.79 -0.31,-0.28 -0.1,-0.39 0.1,-0.38 0.31,-0.29 1.57,-0.78 Z M 18,12.29 l 0.1,-0.38 0.26,-0.26 0.35,-0.11 0.38,0.08 1.57,0.78 0.31,0.29 0.1,0.38 -0.1,0.39 -0.31,0.28 -1.57,0.79 -0.38,0.08 -0.35,-0.11 -0.26,-0.27 -0.1,-0.37 0,-1.57 Z M 11.33,4.41 l 0.29,-0.31 0.38,-0.1 0.38,0.1 0.29,0.31 0.79,1.58 0.08,0.38 -0.12,0.35 -0.26,0.25 -0.37,0.1 -1.58,0 -0.37,-0.1 -0.26,-0.25 -0.12,-0.35 0.08,-0.38 0.79,-1.58 Z M 5.4,7.43 l -0.01,-0.43 0.19,-0.34 0.35,-0.2 0.42,0.02 1.67,0.55 0.32,0.22 0.17,0.32 0,0.37 -0.2,0.33 -1.11,1.12 -0.33,0.19 -0.37,0.01 -0.33,-0.17 -0.21,-0.33 -0.56,-1.66 Z M 17.65,6.48 l 0.42,-0.02 0.35,0.2 0.19,0.34 -0.01,0.43 -0.56,1.66 -0.21,0.33 -0.33,0.17 -0.37,-0.01 -0.33,-0.19 -1.11,-1.12 -0.2,-0.33 0,-0.37 0.17,-0.32 0.32,-0.22 1.67,-0.55 Z" fill-rule="evenodd" fill="#000000" />
</svg>