<svg xmlns="http://www.w3.org/2000/svg" viewBox="0 0 24 24">
  <path id="surfaceRoughness02" d="M 3.87,13.24 l 0.88,-0.13 3.62,-0.42 3.63,-0.13 3.63,0.13 3.62,0.42 0.88,0.13 0.31,0.12 0.23,0.23 0.11,0.3 -0.01,0.33 -0.14,0.5 -0.43,0.87 -0.69,0.63 -0.87,0.34 -0.96,0 -2.83,-0.39 -2.85,-0.13 -2.85,0.13 -2.83,0.39 -0.96,0 -0.87,-0.34 -0.69,-0.63 -0.43,-0.87 -0.14,-0.5 -0.01,-0.33 0.11,-0.3 0.23,-0.23 0.31,-0.12 Z M 13.67,5.66 l 1.48,2.96 1.26,-1.59 0.32,-0.23 0.38,-0.04 0.35,0.15 0.24,0.31 0.5,1.25 0.51,-0.68 0.33,-0.25 0.42,-0.04 0.37,0.19 0.21,0.36 0.69,2.77 0.01,0.3 -0.1,0.27 -0.19,0.21 -0.27,0.13 -0.3,0.01 -0.27,-0.1 -0.21,-0.19 -0.13,-0.27 -0.3,-1.22 -0.37,0.49 -0.31,0.24 -0.39,0.05 -0.36,-0.15 -0.24,-0.31 -0.52,-1.31 -1.19,1.5 -0.3,0.22 -0.37,0.06 -0.35,-0.13 -0.24,-0.28 -1.33,-2.66 -1.33,2.66 -0.23,0.26 -0.32,0.14 -0.35,-0.03 -0.3,-0.18 -1.82,-1.82 -1.01,1.68 -0.19,0.21 -0.24,0.12 -0.27,0.03 -0.28,-0.08 -1.32,-0.66 -0.67,1.33 -0.18,0.23 -0.25,0.14 -0.29,0.04 -0.29,-0.08 -0.23,-0.18 -0.14,-0.25 -0.04,-0.29 0.08,-0.29 1,-2 0.18,-0.23 0.25,-0.14 0.29,-0.04 0.29,0.08 1.37,0.69 1.15,-1.91 0.23,-0.24 0.32,-0.11 0.33,0.03 0.29,0.18 1.76,1.76 1.54,-3.07 0.28,-0.3 0.39,-0.11 0.39,0.11 0.28,0.3 Z" fill-rule="evenodd" fill="#000000" />
</svg>