<svg xmlns="http://www.w3.org/2000/svg" viewBox="0 0 24 24">
  <path id="suspension01" d="M 13,7.53 l 0,-1.6 0.08,-0.39 0.21,-0.32 0.32,-0.22 0.39,-0.07 4,0 0,14 -4,0 -0.39,-0.08 -0.32,-0.22 -0.21,-0.32 -0.08,-0.38 0,-2.67 -8.4,-3.05 -0.34,-0.21 -0.23,-0.31 -0.09,-0.37 0.06,-0.39 0.21,-0.34 0.31,-0.23 0.37,-0.09 0.39,0.06 7.72,2.8 0,-3.44 -8.45,-3.46 -0.33,-0.22 -0.22,-0.32 -0.07,-0.37 0.07,-0.39 0.22,-0.33 0.32,-0.22 0.37,-0.08 0.39,0.08 7.7,3.15 Z M 20,18.93 l -1,0 0,-14 1,0 0.39,0.07 0.32,0.22 0.21,0.32 0.08,0.39 0,12 -0.08,0.38 -0.21,0.32 -0.32,0.22 -0.39,0.08 Z" fill-rule="evenodd" fill="#000000" />
</svg>