<svg xmlns="http://www.w3.org/2000/svg" viewBox="0 0 24 24">
  <path id="suspension02" d="M 5,5.07 l 6.53,4.08 0.29,0.27 0.15,0.36 0.02,0.38 -0.14,0.37 -0.27,0.29 -0.36,0.15 -0.38,0.02 -0.37,-0.14 -5.47,-3.42 0,8.04 6.24,1.56 0.36,0.17 0.26,0.29 0.13,0.36 -0.02,0.39 -0.17,0.36 -0.29,0.26 -0.36,0.13 -0.39,-0.02 -5.76,-1.44 0,0.47 -3,0 0,-1.98 0,-0.04 0,-10.96 0,-0.04 0,-0.98 0.98,0 0.04,0 1.98,0 0,1.07 Z M 16,6 l 0,16 -2,0 -0.39,-0.08 -0.32,-0.21 -0.21,-0.32 -0.08,-0.39 0,-14 0.08,-0.39 0.21,-0.32 0.32,-0.21 0.39,-0.08 2,0 Z M 17,22 l 0,-16 2,0 0,16 -2,0 Z M 21,22 l -1,0 0,-16 1,0 0.39,0.08 0.32,0.21 0.21,0.32 0.08,0.39 0,14 -0.08,0.39 -0.21,0.32 -0.32,0.21 -0.39,0.08 Z M 6.03,12.76 l 0.17,-0.36 0.29,-0.26 0.36,-0.13 0.39,0.02 4,1 0.36,0.17 0.26,0.29 0.13,0.36 -0.02,0.39 -0.17,0.36 -0.29,0.26 -0.36,0.13 -0.39,-0.02 -4,-1 -0.36,-0.17 -0.26,-0.29 -0.13,-0.36 0.02,-0.39 Z" fill-rule="evenodd" fill="#000000" />
</svg>