<svg xmlns="http://www.w3.org/2000/svg" viewBox="0 0 48 48">
  <path id="suspensionOutline" d="M 6,22 l 0.08,-0.81 0.23,-0.75 0.37,-0.68 0.49,-0.59 0.59,-0.49 0.68,-0.37 0.75,-0.23 0.81,-0.08 5,0 0.81,0.08 0.75,0.23 0.68,0.37 0.59,0.49 0.49,0.59 0.37,0.68 0.23,0.75 0.08,0.81 0,18 -0.08,0.81 -0.23,0.75 -0.37,0.68 -0.49,0.59 -0.59,0.49 -0.68,0.37 -0.75,0.23 -0.81,0.08 -5,0 -0.81,-0.08 -0.75,-0.23 -0.68,-0.37 -0.59,-0.49 -0.49,-0.59 -0.37,-0.68 -0.23,-0.75 -0.08,-0.81 0,-18 Z M 10,20 l -0.78,0.16 -0.63,0.43 -0.43,0.63 -0.16,0.78 0,18 0.16,0.78 0.43,0.63 0.63,0.43 0.78,0.16 5,0 0.78,-0.16 0.63,-0.43 0.43,-0.63 0.16,-0.78 0,-18 -0.16,-0.78 -0.43,-0.63 -0.63,-0.43 -0.78,-0.16 -5,0 Z M 22.41,4 l 1,1 12.59,0 0,4.2 -2,-0.8 0,-1.4 -2,0 0,0.6 -1.5,-0.6 -7.09,0 -3,3 -8.41,0 0,-6 10.41,0 Z M 32,25.6 l 0,2.4 2,0 0,-1.6 2,0.8 0,0.8 2,0 0,6 -10,0 0,-6 2,0 0,-3.2 2,0.8 Z M 21,26 l 6,0 0,10 -6,0 0,-10 Z M 38.37,20.07 l -0.74,1.86 -10,-4 0.74,-1.86 10,4 Z M 28.37,12.07 l 10,4 -0.74,1.86 -10,-4 0.74,-1.86 Z M 28.37,20.07 l 10,4 -0.74,1.86 -10,-4 0.74,-1.86 Z M 38.37,12.07 l -0.74,1.86 -10,-4 0.74,-1.86 10,4 Z M 14,6 l 0,2 5.59,0 2,-2 -7.59,0 Z M 36,30 l -6,0 0,2 6,0 0,-2 Z M 25,28 l -2,0 0,6 2,0 0,-6 Z" fill-rule="evenodd" fill="#000000" />
</svg>