<svg xmlns="http://www.w3.org/2000/svg" viewBox="0 0 24 24">
  <path id="switchBlock" d="M 15.5,11.5 l 0,3 5.48,0 -0.06,1.47 -0.15,1.19 -0.28,0.97 -0.44,0.81 -0.51,0.6 -0.6,0.51 -0.52,0.31 -0.59,0.24 -0.68,0.17 -0.77,0.11 -0.88,0.07 -1.02,0.04 -1.16,0.01 -1.32,0 -1.32,0 -1.16,-0.01 -1.02,-0.04 -0.88,-0.07 -0.77,-0.11 -0.68,-0.17 -0.59,-0.24 -0.52,-0.31 -0.6,-0.51 -0.51,-0.6 -0.44,-0.81 -0.28,-0.97 -0.15,-1.19 -0.06,-1.47 5.56,0 5.93,-5.39 -2.02,-2.22 -5.07,4.61 -4.42,0 0,-1.21 0.02,-1.06 0.04,-0.94 0.08,-0.82 0.11,-0.72 0.17,-0.63 0.53,-1.06 0.51,-0.6 0.6,-0.51 0.52,-0.31 0.59,-0.24 0.68,-0.17 0.77,-0.11 0.88,-0.07 1.02,-0.04 1.16,-0.01 1.32,0 1.32,0 1.16,0.01 1.02,0.04 0.88,0.07 0.77,0.11 0.68,0.17 0.59,0.24 0.52,0.31 0.6,0.51 0.51,0.6 0.53,1.06 0.17,0.63 0.11,0.72 0.08,0.82 0.04,0.94 0.02,1.06 0,1.21 Z" fill-rule="evenodd" fill="#000000" />
</svg>