<svg xmlns="http://www.w3.org/2000/svg" viewBox="0 0 24 24">
  <path id="synchro02" d="M 17.92,9.32 l -0.41,-0.78 -0.52,-0.71 -0.61,-0.63 -0.69,-0.55 -0.76,-0.45 -0.82,-0.35 -0.85,-0.23 -0.87,-0.11 -0.89,0.01 -0.87,0.13 -0.85,0.24 -0.8,0.36 -0.76,0.46 -0.68,0.56 -0.6,0.64 -0.5,0.73 -0.41,0.79 -0.29,0.83 -0.18,0.86 -0.06,0.88 -2.5,0 0.08,-1.22 0.25,-1.2 0.41,-1.14 0.56,-1.09 0.7,-1.01 0.83,-0.89 0.94,-0.77 1.04,-0.65 1.12,-0.49 1.17,-0.34 1.21,-0.17 1.23,-0.01 1.21,0.15 1.18,0.32 1.12,0.47 1.05,0.63 0.96,0.76 0.85,0.88 0.71,0.98 0.58,1.08 0.43,1.15 0.27,1.19 0.1,1.22 -0.06,1.22 -0.23,1.2 -0.39,1.16 -0.54,1.09 -0.68,1.02 -1.11,1.17 -1.28,0.96 1.29,2.33 -8,-2 5.36,-2.44 0.95,-0.7 0.82,-0.86 0.49,-0.73 0.39,-0.79 0.28,-0.84 0.16,-0.87 0.05,-0.88 -0.08,-0.88 -0.19,-0.86 -0.31,-0.83 Z M 11.56,13.44 l 0.73,0.03 0.66,-0.31 0.44,-0.59 0.1,-0.72 -0.24,-0.68 -0.54,-0.49 -0.71,-0.18 0,-2.5 0.97,0.12 0.92,0.35 0.8,0.57 0.64,0.74 0.44,0.87 0.21,0.96 -0.02,0.98 -0.26,0.94 -0.49,0.85 -0.67,0.71 -0.83,0.53 -0.93,0.3 -0.98,0.08 -0.96,-0.17 -0.66,-0.27 -1.49,1.47 -0.13,-0.48 0.02,-5.71 0.08,0.08 0.22,0.21 0.31,0.3 0.37,0.35 0.78,0.74 0.34,0.32 0.25,0.23 0.01,-0.01 0.62,0.38 Z" fill-rule="evenodd" fill="#000000" />
</svg>