<svg xmlns="http://www.w3.org/2000/svg" viewBox="0 0 24 24">
  <path id="synchro01" d="M 11.64,4.1 l 0.22,-0.05 0.26,-2.04 0.06,0 0.32,-0.01 0.19,0 0.19,0.01 0.26,2.04 0.22,0.05 0.6,-1.85 0.01,0.01 0,-0.01 0.1,0 0.72,0.3 -0.15,2.08 0.2,0.13 0.9,-1.43 0.01,0.01 0.01,-0.01 0.23,0 0.58,0.54 -0.56,1.98 0.26,0.32 1.07,-0.84 0.01,0.01 0.01,-0.01 0.35,0 0.39,0.67 -0.96,1.7 0.28,0.72 1.05,-0.21 0.04,-0.01 0.47,0 0.18,0.71 -1.31,1.2 0.12,1.03 1.53,0.5 0,0.36 0,0.36 -1.53,0.5 -0.12,1.03 1.31,1.2 -0.16,0.62 -0.01,0.05 -0.01,0.04 -0.47,0 -0.04,-0.01 -1.05,-0.21 -0.28,0.72 0.96,1.7 -0.34,0.59 -0.05,0.08 -0.35,0 -0.01,-0.01 -0.01,0.01 -1.07,-0.84 -0.26,0.32 0.56,1.98 -0.54,0.51 -0.04,0.03 -0.23,0 -0.01,-0.01 -0.01,0.01 -0.9,-1.43 -0.2,0.13 0.15,2.08 -0.67,0.28 -0.05,0.02 -0.1,0 0,-0.01 -0.01,0.01 -0.6,-1.85 -0.22,0.05 -0.26,2.04 -0.36,0.01 -0.02,0 -0.33,-0.01 -0.05,0 -0.26,-2.04 -0.22,-0.05 -0.6,1.85 -0.67,-0.3 0.1,-1.45 -0.74,-0.08 -0.47,0.75 -0.54,-0.54 0.13,-0.5 -0.81,-0.47 -0.73,-0.65 -0.66,-0.8 -0.56,-0.93 -0.46,-1.06 -0.34,-1.16 -0.22,-1.25 -0.07,-1.31 0.07,-1.31 0.22,-1.25 0.34,-1.16 0.46,-1.06 0.56,-0.93 0.66,-0.8 0.73,-0.65 0.81,-0.47 -0.13,-0.5 0.54,-0.54 0.47,0.75 0.74,-0.08 -0.1,-1.45 0.67,-0.3 0.6,1.85 Z M 10,18 l 0.81,-0.12 0.75,-0.35 0.68,-0.55 0.59,-0.74 0.49,-0.89 0.37,-1.01 0.23,-1.13 0.08,-1.21 -0.08,-1.21 -0.23,-1.13 -0.37,-1.01 -0.49,-0.89 -0.59,-0.74 -0.68,-0.55 -0.75,-0.35 -0.81,-0.12 -0.81,0.12 -0.75,0.35 -0.68,0.55 -0.59,0.74 -0.49,0.89 -0.37,1.01 -0.23,1.13 -0.08,1.21 0.08,1.21 0.23,1.13 0.37,1.01 0.49,0.89 0.59,0.74 0.68,0.55 0.75,0.35 0.81,0.12 Z M 13,12 l -0.05,0.81 -0.15,0.75 -0.23,0.68 -0.3,0.59 -0.37,0.49 -0.43,0.37 -0.47,0.23 -0.5,0.08 -0.5,-0.08 -0.47,-0.23 -0.43,-0.37 -0.37,-0.49 -0.3,-0.59 -0.23,-0.68 -0.15,-0.75 -0.05,-0.81 0.05,-0.81 0.15,-0.75 0.23,-0.68 0.3,-0.59 0.37,-0.49 0.43,-0.37 0.47,-0.23 0.5,-0.08 0.5,0.08 0.47,0.23 0.43,0.37 0.37,0.49 0.3,0.59 0.23,0.68 0.15,0.75 0.05,0.81 Z" fill-rule="evenodd" fill="#000000" />
</svg>