<svg xmlns="http://www.w3.org/2000/svg" viewBox="0 0 24 24">
  <path id="sync" d="M 16.36,9.51 l 2.13,-1.32 0.62,1.36 0.35,1.47 0.06,1.23 -0.14,1.22 -0.34,1.18 -0.52,1.11 -0.71,1.02 -0.85,0.88 -0.98,0.73 -1.1,0.56 -1.42,0.43 -1.46,0.14 0,2.22 -0.13,0.22 -0.25,0 -5.58,-3.44 -0.12,-0.21 0.12,-0.21 5.58,-3.44 0.25,0 0.13,0.21 0,2.15 0.98,-0.09 0.94,-0.29 0.73,-0.38 0.66,-0.48 0.57,-0.59 0.47,-0.68 0.35,-0.74 0.23,-0.79 0.09,-0.81 -0.04,-0.83 -0.22,-0.94 -0.4,-0.89 Z M 17.96,5.48 l 0.12,0.21 -0.12,0.21 -5.58,3.44 -0.25,0 -0.13,-0.21 0,-2.15 -0.98,0.09 -0.94,0.29 -0.73,0.38 -0.66,0.48 -0.57,0.59 -0.47,0.68 -0.35,0.74 -0.23,0.79 -0.09,0.81 0.04,0.83 0.22,0.94 0.4,0.89 -2.13,1.32 -0.62,-1.36 -0.35,-1.47 -0.06,-1.23 0.14,-1.22 0.34,-1.18 0.52,-1.11 0.71,-1.02 0.85,-0.88 0.98,-0.73 1.1,-0.56 1.42,-0.43 1.46,-0.14 0,-2.22 0.13,-0.22 0.25,0 5.58,3.44 Z" fill-rule="evenodd" fill="#000000" />
</svg>