<svg xmlns="http://www.w3.org/2000/svg" viewBox="0 0 24 24">
  <path id="tankerTrailer" d="M 8,5 l 0,1 3,0 0,-1 2,0 0,1 3,0 0,-1 2,0 0,1 2,0 0.66,0.91 0.47,0.98 0.28,1.04 0.09,1.07 -0.09,1.07 -0.28,1.04 -0.47,0.98 -0.66,0.91 0,2 -2,0 0,-2 -14,0 -0.66,-0.91 -0.47,-0.98 -0.28,-1.04 -0.09,-1.07 0.09,-1.07 0.28,-1.04 0.47,-0.98 0.66,-0.91 2,0 0,-1 2,0 Z M 4.77,7.57 l -0.13,0.44 -0.01,0.38 0.18,0.32 0.3,0.21 0.38,0.08 13.02,0 0.38,-0.08 0.3,-0.21 0.18,-0.32 -0.01,-0.38 -0.13,-0.44 -0.33,-0.42 -0.52,-0.15 -12.76,0 -0.52,0.15 -0.33,0.42 Z M 12,17 l -0.16,0.78 -0.43,0.63 -0.63,0.43 -0.78,0.16 -0.78,-0.16 -0.63,-0.43 -0.43,-0.63 -0.16,-0.78 0.16,-0.78 0.43,-0.63 0.63,-0.43 0.78,-0.16 0.78,0.16 0.63,0.43 0.43,0.63 0.16,0.78 Z M 7,17 l -0.16,0.78 -0.43,0.63 -0.63,0.43 -0.78,0.16 -0.78,-0.16 -0.63,-0.43 -0.43,-0.63 -0.16,-0.78 0.16,-0.78 0.43,-0.63 0.63,-0.43 0.78,-0.16 0.78,0.16 0.63,0.43 0.43,0.63 0.16,0.78 Z" fill-rule="evenodd" fill="#000000" />
</svg>