<svg xmlns="http://www.w3.org/2000/svg" viewBox="0 0 24 24">
  <path id="targetJump" d="M 4.03,12.75 l 0.04,-0.29 0.15,-0.24 0.24,-0.16 0.29,-0.06 0.29,0.06 0.24,0.16 0.18,0.24 0.08,0.29 0.25,1.18 0.45,1.08 0.63,0.98 0.79,0.85 0.93,0.69 1.05,0.53 1.14,0.33 1.22,0.11 1.31,-0.13 1.22,-0.38 1.1,-0.6 0.97,-0.79 0.79,-0.97 0.6,-1.1 0.38,-1.22 0.13,-1.31 -0.11,-1.22 -0.33,-1.14 -0.53,-1.05 -0.69,-0.93 -0.85,-0.79 -0.98,-0.63 -1.08,-0.45 -1.18,-0.25 -0.29,-0.08 -0.24,-0.18 -0.16,-0.24 -0.06,-0.29 0.06,-0.29 0.16,-0.24 0.24,-0.15 0.29,-0.04 1.48,0.28 1.37,0.54 1.23,0.77 1.07,0.98 0.88,1.15 0.66,1.3 0.42,1.43 0.14,1.52 -0.16,1.61 -0.47,1.5 -0.74,1.36 -0.97,1.19 -1.19,0.97 -1.36,0.74 -1.5,0.47 -1.61,0.16 -1.52,-0.14 -1.43,-0.42 -1.3,-0.66 -1.15,-0.88 -0.98,-1.07 -0.77,-1.23 -0.54,-1.37 -0.28,-1.48 Z M 7.26,12.75 l 0.02,-0.29 0.14,-0.24 0.24,-0.16 0.29,-0.06 0.29,0.06 0.25,0.16 0.29,0.52 0.43,1.02 0.72,0.81 0.95,0.54 0.55,0.14 0.57,0.05 0.67,-0.07 0.61,-0.19 0.57,-0.3 0.48,-0.41 0.41,-0.48 0.3,-0.57 0.19,-0.61 0.07,-0.67 -0.05,-0.57 -0.14,-0.55 -0.54,-0.95 -0.81,-0.72 -1.02,-0.43 -0.52,-0.29 -0.16,-0.25 -0.06,-0.29 0.06,-0.29 0.16,-0.24 0.24,-0.14 0.29,-0.02 0.83,0.21 0.77,0.34 0.69,0.47 0.59,0.58 0.49,0.68 0.37,0.76 0.23,0.82 0.08,0.88 -0.1,0.97 -0.28,0.9 -0.44,0.81 -0.59,0.71 -0.71,0.59 -0.81,0.44 -0.9,0.28 -0.97,0.1 -0.88,-0.08 -0.82,-0.23 -0.76,-0.37 -0.68,-0.49 -0.58,-0.59 -0.47,-0.69 -0.34,-0.77 -0.21,-0.83 Z M 9,8 l 1,-1 1,4 -4,-1 1,-1 -5,-4 2,-2 4,5 Z M 10.6,12.77 l -0.06,-0.29 0.11,-0.24 0.24,-0.17 0.31,-0.07 0.31,-0.06 0.26,-0.17 0.17,-0.26 0.06,-0.31 0.07,-0.31 0.17,-0.24 0.24,-0.11 0.29,0.06 0.34,0.24 0.26,0.33 0.17,0.39 0.06,0.44 -0.13,0.62 -0.34,0.51 -0.51,0.34 -0.62,0.13 -0.44,-0.06 -0.39,-0.17 -0.33,-0.26 -0.24,-0.34 Z" fill-rule="evenodd" fill="#000000" />
</svg>