<svg xmlns="http://www.w3.org/2000/svg" viewBox="0 0 24 24">
  <path id="taxiCar1" d="M 7.04,8.37 l 0.29,-0.56 0.44,-0.43 0.55,-0.28 0.62,-0.1 2.12,0 0.62,0.1 0.55,0.28 0.44,0.43 0.29,0.56 0.54,1.64 0.56,0.15 0.5,0.3 2.44,2.04 2.98,0.43 0.44,0.17 0.31,0.37 0.77,1.53 0.35,0.15 0.15,0.35 0,0.69 -0.07,0.26 -0.21,0.19 -0.25,0.05 -0.25,-0.07 -0.2,-0.18 -0.13,-0.24 -0.4,-0.88 -0.66,-0.7 -0.85,-0.45 -0.98,-0.17 -0.6,0.06 -0.57,0.18 -0.51,0.27 -0.44,0.37 -0.37,0.44 -0.27,0.51 -0.18,0.57 -0.06,0.6 -6,0 -0.06,-0.6 -0.18,-0.57 -0.27,-0.51 -0.37,-0.44 -0.44,-0.37 -0.51,-0.27 -0.57,-0.18 -0.6,-0.06 -0.98,0.17 -0.85,0.45 -0.66,0.7 -0.4,0.88 -0.13,0.24 -0.2,0.18 -0.25,0.07 -0.25,-0.05 -0.21,-0.19 -0.07,-0.26 0,-2.41 0.06,-0.33 0.15,-0.28 0.24,-0.23 0.31,-0.13 1.24,-0.31 1.4,-1.75 0.49,-0.44 0.59,-0.25 0.56,-1.69 Z M 18,19 l -0.78,-0.16 -0.63,-0.43 -0.43,-0.63 -0.16,-0.78 0.16,-0.78 0.43,-0.63 0.63,-0.43 0.78,-0.16 0.78,0.16 0.63,0.43 0.43,0.63 0.16,0.78 -0.16,0.78 -0.43,0.63 -0.63,0.43 -0.78,0.16 Z M 6,19 l -0.78,-0.16 -0.63,-0.43 -0.43,-0.63 -0.16,-0.78 0.16,-0.78 0.43,-0.63 0.63,-0.43 0.78,-0.16 0.78,0.16 0.63,0.43 0.43,0.63 0.16,0.78 -0.16,0.78 -0.43,0.63 -0.63,0.43 -0.78,0.16 Z M 11.06,8.5 l -2.12,0 -0.29,0.09 -0.18,0.25 -0.39,1.16 3.84,0 -0.39,-1.16 -0.18,-0.25 -0.29,-0.09 Z" fill-rule="evenodd" fill="#000000" />
</svg>