<svg xmlns="http://www.w3.org/2000/svg" viewBox="0 0 24 24">
  <path id="taxiCarT" d="M 7.32,10 l 4.68,0 0.73,0.05 0.64,0.17 0.57,0.31 0.56,0.47 2,2 2.96,0.86 1,0.45 0.47,0.37 0.38,0.45 0.29,0.52 0.2,0.56 0.08,0.31 0.12,0.98 -0.15,0.35 -0.35,0.15 -1.5,0 -0.06,-0.6 -0.18,-0.57 -0.27,-0.51 -0.37,-0.44 -0.44,-0.37 -0.51,-0.27 -0.57,-0.18 -0.6,-0.06 -0.6,0.06 -0.57,0.18 -0.51,0.27 -0.44,0.37 -0.37,0.44 -0.27,0.51 -0.18,0.57 -0.06,0.6 -5,0 -0.06,-0.6 -0.18,-0.57 -0.27,-0.51 -0.37,-0.44 -0.44,-0.37 -0.51,-0.27 -0.57,-0.18 -0.6,-0.06 -0.6,0.06 -0.57,0.18 -0.51,0.27 -0.44,0.37 -0.37,0.44 -0.27,0.51 -0.18,0.57 -0.06,0.6 -0.5,0 -0.35,-0.15 -0.15,-0.35 0,-2 0.06,-0.71 0.2,-0.69 0.31,-0.65 0.42,-0.58 1.31,-1.5 0.63,-0.58 0.73,-0.43 0.8,-0.27 0.86,-0.09 Z M 8,3 l 6,0 0,1.5 -2,0 0,4 -2,0 0,-4 -2,0 0,-1.5 Z M 19,18 l -0.16,0.78 -0.43,0.63 -0.63,0.43 -0.78,0.16 -0.78,-0.16 -0.63,-0.43 -0.43,-0.63 -0.16,-0.78 0.16,-0.78 0.43,-0.63 0.63,-0.43 0.78,-0.16 0.78,0.16 0.63,0.43 0.43,0.63 0.16,0.78 Z M 6,16 l 0.78,0.16 0.63,0.43 0.43,0.63 0.16,0.78 -0.16,0.78 -0.43,0.63 -0.63,0.43 -0.78,0.16 -0.78,-0.16 -0.63,-0.43 -0.43,-0.63 -0.16,-0.78 0.16,-0.78 0.43,-0.63 0.63,-0.43 0.78,-0.16 Z" fill-rule="evenodd" fill="#000000" />
</svg>