<svg xmlns="http://www.w3.org/2000/svg" viewBox="0 0 24 24">
  <path id="taxiCar3" d="M 14.72,6.16 l 1.37,0.24 0.6,0.31 0.39,0.56 1.14,2.81 0.24,0.41 0.35,0.32 0.28,0.18 0.42,0.4 0.24,0.53 0.2,0.79 0.05,0.39 0,2.04 -0.02,0.26 -0.16,0.92 -0.21,0.57 -0.41,0.43 0,1.89 -0.06,0.31 -0.17,0.25 -0.26,0.17 -0.31,0.06 -0.8,0 -0.31,-0.06 -0.26,-0.17 -0.17,-0.25 -0.06,-0.31 0,-1.58 -1.6,0 -0.8,-0.39 -4.8,0 -0.8,0.39 -1.6,0 0,1.58 -0.06,0.31 -0.17,0.25 -0.26,0.17 -0.31,0.06 -0.8,0 -0.31,-0.06 -0.26,-0.17 -0.17,-0.25 -0.06,-0.31 0,-1.89 -0.41,-0.43 -0.21,-0.57 -0.16,-0.92 -0.02,-0.26 0,-2.04 0.05,-0.39 0.2,-0.79 0.24,-0.53 0.42,-0.4 0.28,-0.18 0.35,-0.32 0.24,-0.41 1.14,-2.81 0.39,-0.56 0.6,-0.31 1.37,-0.24 0.61,-1.82 0.18,-0.25 0.29,-0.09 3.28,0 0.29,0.09 0.18,0.25 0.61,1.82 Z M 17.2,10.54 l -1.03,-2.71 -0.26,-0.34 -0.4,-0.16 -1.77,-0.14 -1.74,-0.04 -1.74,0.04 -1.77,0.14 -0.4,0.16 -0.26,0.34 -1.03,2.71 1.45,-0.08 1.33,-0.04 2.42,-0.03 2.42,0.03 1.33,0.04 1.45,0.08 Z M 18.72,13.06 l -0.2,-0.35 -0.31,-0.25 -0.38,-0.13 -0.41,0.02 -1.54,0.38 -0.27,0.12 -0.22,0.2 -0.14,0.25 -0.05,0.29 0.07,0.35 0.19,0.28 0.29,0.19 0.35,0.07 1.58,0 0.51,-0.12 0.38,-0.33 0.19,-0.45 -0.04,-0.52 Z M 5.28,13.06 l -0.04,0.52 0.19,0.45 0.38,0.33 0.51,0.12 1.58,0 0.35,-0.07 0.29,-0.19 0.19,-0.28 0.07,-0.35 -0.05,-0.29 -0.14,-0.25 -0.22,-0.2 -0.27,-0.12 -1.54,-0.38 -0.41,-0.02 -0.38,0.13 -0.31,0.25 -0.2,0.35 Z" fill-rule="evenodd" fill="#000000" />
</svg>