<svg xmlns="http://www.w3.org/2000/svg" viewBox="0 0 48 48">
  <path id="techLightBulbOutline02" d="M 8,19 l 0.05,-1.02 0.15,-1 0.25,-0.95 0.34,-0.92 0.92,-1.7 1.22,-1.48 1.48,-1.22 1.7,-0.92 0.92,-0.34 0.95,-0.25 1,-0.15 1.02,-0.05 1.02,0.05 1,0.15 0.95,0.25 0.92,0.34 1.7,0.92 1.48,1.22 1.22,1.48 0.92,1.7 0.34,0.92 0.25,0.95 0.15,1 0.05,1.02 -0.06,1.09 -0.17,1.05 -0.28,1.02 -0.38,0.96 -0.47,0.92 -0.56,0.86 -0.65,0.79 -0.72,0.72 -0.7,0.73 -0.54,0.77 -0.35,0.81 -0.12,0.82 0,1.46 -0.06,0.6 -0.18,0.57 -0.27,0.51 -0.37,0.44 -0.44,0.37 -0.51,0.27 -0.57,0.18 -0.6,0.06 -4,0 -0.6,-0.06 -0.57,-0.18 -0.51,-0.27 -0.44,-0.37 -0.37,-0.44 -0.27,-0.51 -0.18,-0.57 -0.06,-0.6 0,-1.46 -0.12,-0.82 -0.35,-0.81 -0.54,-0.77 -0.7,-0.73 -0.72,-0.72 -0.65,-0.79 -0.56,-0.86 -0.47,-0.92 -0.38,-0.96 -0.28,-1.02 -0.17,-1.05 -0.06,-1.09 Z M 18,11 l -1.61,0.16 -1.5,0.47 -1.36,0.74 -1.19,0.97 -0.97,1.19 -0.74,1.36 -0.47,1.5 -0.16,1.61 0.18,1.71 0.53,1.59 0.83,1.42 1.09,1.21 0.88,0.91 0.76,1.09 0.53,1.23 0.15,0.68 0.05,0.7 0,1.46 0.08,0.39 0.21,0.32 0.32,0.21 0.39,0.08 4,0 0.39,-0.08 0.32,-0.21 0.21,-0.32 0.08,-0.39 0,-1.46 0.05,-0.7 0.15,-0.68 0.53,-1.23 0.76,-1.09 0.88,-0.91 1.09,-1.21 0.83,-1.42 0.53,-1.59 0.18,-1.71 -0.16,-1.61 -0.47,-1.5 -0.74,-1.36 -0.97,-1.19 -1.19,-0.97 -1.36,-0.74 -1.5,-0.47 -1.61,-0.16 Z M 31,20 l 0,-2 12,0 0,2 -12,0 Z M 19,22.41 l -3,-3 -1.29,1.3 -1.42,-1.42 2.71,-2.7 3,3 2.29,-2.3 1.42,1.42 -3.71,3.7 Z M 30,22 l 9,0 0,3 -2,0 0,-1 -7,0 0,-2 Z M 30,16 l 0,-2 5,0 0,-3 2,0 0,5 -7,0 Z M 28,26 l 5,0 0,6 -2,0 0,-4 -3,0 0,-2 Z M 34,35 l -0.16,0.78 -0.43,0.63 -0.63,0.43 -0.78,0.16 -0.78,-0.16 -0.63,-0.43 -0.43,-0.63 -0.16,-0.78 0.16,-0.78 0.43,-0.63 0.63,-0.43 0.78,-0.16 0.78,0.16 0.63,0.43 0.43,0.63 0.16,0.78 Z M 42,17 l -0.78,-0.16 -0.63,-0.43 -0.43,-0.63 -0.16,-0.78 0.16,-0.78 0.43,-0.63 0.63,-0.43 0.78,-0.16 0.78,0.16 0.63,0.43 0.43,0.63 0.16,0.78 -0.16,0.78 -0.43,0.63 -0.63,0.43 -0.78,0.16 Z M 40,28 l -0.16,0.78 -0.43,0.63 -0.63,0.43 -0.78,0.16 -0.78,-0.16 -0.63,-0.43 -0.43,-0.63 -0.16,-0.78 0.16,-0.78 0.43,-0.63 0.63,-0.43 0.78,-0.16 0.78,0.16 0.63,0.43 0.43,0.63 0.16,0.78 Z M 36,10 l -0.78,-0.16 -0.63,-0.43 -0.43,-0.63 -0.16,-0.78 0.16,-0.78 0.43,-0.63 0.63,-0.43 0.78,-0.16 0.78,0.16 0.63,0.43 0.43,0.63 0.16,0.78 -0.16,0.78 -0.43,0.63 -0.63,0.43 -0.78,0.16 Z M 15,37 l 0,-2 6,0 0,2 -6,0 Z" fill-rule="evenodd" fill="#000000" />
</svg>