<svg xmlns="http://www.w3.org/2000/svg" viewBox="0 0 48 48">
  <path id="temperatureL" d="M 11,27.27 l 0,-20.27 0.06,-0.6 0.18,-0.57 0.27,-0.51 0.37,-0.44 0.44,-0.37 0.51,-0.27 0.57,-0.18 0.6,-0.06 4,0 0.6,0.06 0.57,0.18 0.51,0.27 0.44,0.37 0.37,0.44 0.27,0.51 0.18,0.57 0.06,0.6 21,0 0,4 -21,0 0,16.27 0.1,0.44 0.27,0.36 1.09,1.21 0.83,1.42 0.53,1.59 0.18,1.71 -0.16,1.61 -0.47,1.5 -0.74,1.36 -0.97,1.19 -1.19,0.97 -1.36,0.74 -1.5,0.47 -1.61,0.16 -1.61,-0.16 -1.5,-0.47 -1.36,-0.74 -1.19,-0.97 -0.97,-1.19 -0.74,-1.36 -0.47,-1.5 -0.16,-1.61 0.18,-1.71 0.53,-1.59 0.83,-1.42 1.09,-1.21 0.27,-0.36 0.1,-0.44 Z M 15,7 l -0.39,0.08 -0.32,0.21 -0.21,0.32 -0.08,0.39 0,20.76 -0.16,0.55 -0.42,0.41 -0.99,0.78 -0.76,1.01 -0.5,1.18 -0.17,1.31 0.1,1.01 0.29,0.94 0.46,0.85 0.61,0.74 0.74,0.61 0.85,0.46 0.94,0.29 1.01,0.1 1.01,-0.1 0.94,-0.29 0.85,-0.46 0.74,-0.61 0.61,-0.74 0.46,-0.85 0.29,-0.94 0.1,-1.01 -0.17,-1.31 -0.5,-1.18 -0.76,-1.01 -0.99,-0.78 -0.42,-0.41 -0.16,-0.55 0,-20.76 -0.08,-0.39 -0.21,-0.32 -0.32,-0.21 -0.39,-0.08 -2,0 Z M 15,15 l 2,0 0,16.17 0.8,0.43 0.64,0.65 0.41,0.81 0.15,0.94 -0.06,0.6 -0.18,0.57 -0.27,0.51 -0.37,0.44 -0.44,0.37 -0.51,0.27 -0.57,0.18 -0.6,0.06 -0.6,-0.06 -0.57,-0.18 -0.51,-0.27 -0.44,-0.37 -0.37,-0.44 -0.27,-0.51 -0.18,-0.57 -0.06,-0.6 0.15,-0.94 0.41,-0.81 0.64,-0.65 0.8,-0.43 0,-16.17 Z M 30,23 l 12,0 0,4 -12,0 0,-4 Z M 30,15 l 8,0 0,4 -8,0 0,-4 Z M 38,31 l 0,4 -8,0 0,-4 8,0 Z" fill-rule="evenodd" fill="#000000" />
</svg>