<svg xmlns="http://www.w3.org/2000/svg" viewBox="0 0 48 48">
  <path id="terrainOutlineLarge" d="M 25.03,11.02 l 0.51,-0.42 0.61,-0.14 0.61,0.14 0.51,0.42 12.78,17.02 0.27,0.66 -0.08,0.67 -0.38,0.56 -0.64,0.32 -4.65,1 -2.11,0.35 -2.12,0.17 -2.14,-0.02 -2.12,-0.21 -5.47,-0.78 -1.48,-0.15 -1.49,-0.03 -1.47,0.08 -1.46,0.2 -1.44,0.32 -1.41,0.43 -1.37,0.54 -1.33,0.65 -0.67,0.17 -0.03,0 -0.38,-0.05 -0.34,-0.15 -0.5,-0.51 -0.18,-0.69 0.05,-0.37 0.16,-0.36 8.1,-13.24 0.51,-0.49 0.66,-0.18 0.66,0.15 0.53,0.47 4.67,6.99 -1.95,-6.47 -0.04,-0.65 0.26,-0.59 4.36,-5.81 Z M 8.63,35.09 l 1.37,-0.73 1.42,-0.6 1.47,-0.46 1.5,-0.34 1.52,-0.2 1.54,-0.06 1.55,0.08 1.55,0.22 4.5,0.86 2.65,0.36 2.65,0.07 2.65,-0.22 2.62,-0.51 1.65,-0.41 0.71,-0.09 0.67,0.07 0.63,0.22 0.57,0.35 0.47,0.46 0.36,0.56 0.24,0.64 0.08,0.7 0,1.47 -0.17,0.99 -0.47,0.86 -0.71,0.66 -0.92,0.4 -1.43,0.36 -1.71,0.36 -1.72,0.24 -1.74,0.12 -1.73,-0.01 -1.73,-0.13 -1.72,-0.25 -1.7,-0.37 -1.68,-0.49 -5.86,-1.95 -1.73,-0.4 -1.76,-0.05 -1.74,0.28 -1.65,0.62 -0.65,0.2 -0.68,0.01 -0.66,-0.2 -0.58,-0.41 -0.3,-0.38 -0.21,-0.42 -0.1,-0.45 -0.01,-0.46 0.09,-0.45 0.2,-0.43 0.3,-0.38 0.4,-0.31 Z M 26.15,12.86 l -3.7,4.92 2.21,7.36 0.06,0.52 -0.15,0.51 -0.42,0.84 -0.21,0.32 -0.28,0.23 -0.67,0.22 -0.69,-0.13 -0.31,-0.2 -0.25,-0.29 -5.15,-7.72 -6.57,10.73 2.62,-0.89 2.7,-0.54 2.77,-0.17 2.78,0.21 5.47,0.78 1.95,0.19 1.96,0.02 1.95,-0.15 1.93,-0.33 3.74,-0.8 -11.74,-15.63 Z M 20.17,34.97 l -1.36,-0.2 -1.37,-0.07 -1.36,0.06 -1.35,0.17 -1.32,0.3 -1.3,0.41 -1.25,0.53 -1.21,0.64 -0.01,0.02 0,0 -0.01,0.02 0.04,0.1 0.1,0.05 0.18,-0.03 1,-0.43 1.02,-0.32 1.05,-0.22 1.07,-0.13 1.07,-0.01 1.07,0.08 1.06,0.19 1.05,0.29 5.86,1.95 1.54,0.46 1.57,0.34 1.58,0.23 1.59,0.11 1.59,0.01 1.59,-0.11 1.59,-0.22 1.57,-0.33 1.42,-0.36 0.31,-0.13 0.24,-0.22 0.15,-0.29 0.06,-0.33 0,-1.47 -0.11,-0.45 -0.27,-0.34 -0.4,-0.19 -0.46,0.01 -1.65,0.41 -2.83,0.55 -2.87,0.24 -2.87,-0.08 -2.86,-0.38 -4.51,-0.86 Z M 11.8,11.2 l 0.09,-0.85 0.24,-0.79 0.39,-0.71 0.51,-0.62 0.62,-0.51 0.72,-0.39 0.78,-0.24 0.85,-0.09 0.85,0.09 0.78,0.24 0.72,0.39 0.62,0.51 0.51,0.62 0.39,0.71 0.24,0.79 0.09,0.85 -0.09,0.84 -0.24,0.79 -0.39,0.71 -0.51,0.62 -0.62,0.52 -0.72,0.38 -0.78,0.25 -0.85,0.08 -0.85,-0.08 -0.78,-0.25 -0.72,-0.38 -0.62,-0.52 -0.51,-0.62 -0.39,-0.71 -0.24,-0.79 -0.09,-0.84 Z M 16,9 l -0.86,0.17 -0.7,0.47 -0.47,0.7 -0.17,0.86 0.17,0.85 0.47,0.7 0.7,0.47 0.86,0.17 0.86,-0.17 0.7,-0.47 0.47,-0.7 0.17,-0.85 -0.17,-0.86 -0.47,-0.7 -0.7,-0.47 -0.86,-0.17 Z" fill-rule="evenodd" fill="#000000" />
</svg>