<svg xmlns="http://www.w3.org/2000/svg" viewBox="0 0 24 24">
  <path id="terrain" d="M 13.54,4.27 l 7.99,10.65 0.04,0.24 -0.19,0.15 -2.9,0.63 -1.27,0.21 -1.27,0.1 -1.28,-0.01 -1.27,-0.13 -3.42,-0.49 -1.96,-0.12 -1.93,0.19 -1.87,0.49 -1.78,0.79 -0.12,0.03 -0.02,0 -0.22,-0.13 0.01,-0.25 5.06,-8.29 0.21,-0.12 0.21,0.12 3.55,5.31 0.22,0.11 0.21,-0.14 0.26,-0.52 0.02,-0.18 -1.44,-4.79 0.04,-0.22 2.72,-3.63 0.2,-0.1 0.2,0.1 Z M 19.42,17.65 l 2.58,-0.65 0,3.5 -1.84,0.46 -2.06,0.36 -2.08,0.07 -2.06,-0.23 -2.03,-0.52 -3.66,-1.22 -1.21,-0.27 -1.22,-0.04 -1.2,0.2 -1.14,0.42 -0.48,0.08 -0.42,-0.21 -0.17,-0.27 -0.03,-0.29 0.09,-0.29 0.22,-0.21 1.64,-0.79 1.75,-0.47 1.8,-0.15 1.83,0.17 2.81,0.54 1.72,0.23 1.73,0.05 1.72,-0.15 1.71,-0.32 Z M 9,4 l -0.16,0.78 -0.43,0.63 -0.63,0.43 -0.78,0.16 -0.78,-0.16 -0.63,-0.43 -0.43,-0.63 -0.16,-0.78 0.16,-0.78 0.43,-0.63 0.63,-0.43 0.78,-0.16 0.78,0.16 0.63,0.43 0.43,0.63 0.16,0.78 Z" fill-rule="evenodd" fill="#000000" />
</svg>