<svg xmlns="http://www.w3.org/2000/svg" viewBox="0 0 24 24">
  <path id="thinBulbBeam" d="M 6.43,9.36 l 4.25,-1.89 1.66,-0.59 1.72,-0.33 1.76,-0.07 1.75,0.19 0.93,0.26 0.84,0.41 0.76,0.54 0.65,0.66 0.53,0.76 0.39,0.84 0.24,0.91 0.09,0.96 0,0.48 -0.06,0.78 -0.18,0.75 -0.28,0.7 -0.38,0.65 -0.48,0.59 -0.56,0.52 -0.64,0.42 -0.71,0.33 -1.13,0.36 -1.16,0.23 -1.17,0.1 -1.17,-0.02 -1.16,-0.15 -1.14,-0.28 -1.11,-0.39 -1.07,-0.52 -3.32,-1.85 -0.61,0.22 -0.67,0.07 -0.6,-0.06 -0.57,-0.18 -0.51,-0.27 -0.44,-0.37 -0.37,-0.44 -0.27,-0.51 -0.18,-0.57 -0.06,-0.6 0.06,-0.6 0.18,-0.57 0.27,-0.51 0.37,-0.44 0.44,-0.37 0.51,-0.27 0.57,-0.18 0.6,-0.06 0.75,0.09 0.68,0.27 Z M 6.5,12 l -0.12,-0.58 -0.32,-0.48 -0.48,-0.32 -0.58,-0.12 -0.58,0.12 -0.48,0.32 -0.32,0.48 -0.12,0.58 0.12,0.58 0.32,0.48 0.48,0.32 0.58,0.12 0.58,-0.12 0.48,-0.32 0.32,-0.48 0.12,-0.58 Z" fill-rule="evenodd" fill="#000000" />
</svg>