<svg xmlns="http://www.w3.org/2000/svg" viewBox="0 0 24 24">
  <path id="thinnerBulbBeam" d="M 6.84,9.63 l 0.85,-0.37 1.53,-0.57 1.56,-0.4 1.59,-0.23 1.6,-0.05 1.6,0.11 1.58,0.29 1.55,0.45 1.5,0.63 0.48,0.23 0.56,0.41 0.03,0.03 0.31,0.41 0.23,0.45 0.17,0.96 -0.2,0.96 -0.24,0.45 -0.33,0.4 -0.48,0.35 -0.42,0.21 -1.53,0.66 -1.58,0.48 -1.61,0.31 -1.63,0.13 -1.64,-0.05 -1.62,-0.22 -1.6,-0.4 -1.56,-0.59 -0.7,-0.3 -0.85,0.46 -0.99,0.17 -0.6,-0.06 -0.57,-0.18 -0.51,-0.27 -0.44,-0.37 -0.37,-0.44 -0.27,-0.51 -0.18,-0.57 -0.06,-0.6 0.06,-0.6 0.18,-0.57 0.27,-0.51 0.37,-0.44 0.44,-0.37 0.51,-0.27 0.57,-0.18 0.6,-0.06 0.99,0.17 0.85,0.46 Z M 6.5,12 l -0.12,-0.58 -0.32,-0.48 -0.48,-0.32 -0.58,-0.12 -0.58,0.12 -0.48,0.32 -0.32,0.48 -0.12,0.58 0.12,0.58 0.32,0.48 0.48,0.32 0.58,0.12 0.58,-0.12 0.48,-0.32 0.32,-0.48 0.12,-0.58 Z" fill-rule="evenodd" fill="#000000" />
</svg>