<svg xmlns="http://www.w3.org/2000/svg" viewBox="0 0 24 24">
  <path id="tiles" d="M 13,14 l 0.08,-0.39 0.21,-0.32 0.32,-0.21 0.39,-0.08 5,0 0.39,0.08 0.32,0.21 0.21,0.32 0.08,0.39 0,5 -0.08,0.39 -0.21,0.32 -0.32,0.21 -0.39,0.08 -5,0 -0.39,-0.08 -0.32,-0.21 -0.21,-0.32 -0.08,-0.39 0,-5 Z M 4,14 l 0.08,-0.39 0.21,-0.32 0.32,-0.21 0.39,-0.08 5,0 0.39,0.08 0.32,0.21 0.21,0.32 0.08,0.39 0,5 -0.08,0.39 -0.21,0.32 -0.32,0.21 -0.39,0.08 -5,0 -0.39,-0.08 -0.32,-0.21 -0.21,-0.32 -0.08,-0.39 0,-5 Z M 14,4 l 5,0 0.39,0.08 0.32,0.21 0.21,0.32 0.08,0.39 0,5 -0.08,0.39 -0.21,0.32 -0.32,0.21 -0.39,0.08 -5,0 -0.39,-0.08 -0.32,-0.21 -0.21,-0.32 -0.08,-0.39 0,-5 0.08,-0.39 0.21,-0.32 0.32,-0.21 0.39,-0.08 Z M 5,4 l 5,0 0.39,0.08 0.32,0.21 0.21,0.32 0.08,0.39 0,5 -0.08,0.39 -0.21,0.32 -0.32,0.21 -0.39,0.08 -5,0 -0.39,-0.08 -0.32,-0.21 -0.21,-0.32 -0.08,-0.39 0,-5 0.08,-0.39 0.21,-0.32 0.32,-0.21 0.39,-0.08 Z M 14.75,5.5 l -0.18,0.07 -0.07,0.18 0,3.5 0.07,0.18 0.18,0.07 3.5,0 0.18,-0.07 0.07,-0.18 0,-3.5 -0.07,-0.18 -0.18,-0.07 -3.5,0 Z M 5.75,5.5 l -0.18,0.07 -0.07,0.18 0,1 0.07,0.18 0.18,0.07 3.5,0 0.18,-0.07 0.07,-0.18 0,-1 -0.07,-0.18 -0.18,-0.07 -3.5,0 Z M 5.75,8 l -0.18,0.07 -0.07,0.18 0,1 0.07,0.18 0.18,0.07 2.5,0 0.18,-0.07 0.07,-0.18 0,-1 -0.07,-0.18 -0.18,-0.07 -2.5,0 Z" fill-rule="evenodd" fill="#000000" />
</svg>