<svg xmlns="http://www.w3.org/2000/svg" viewBox="0 0 24 24">
  <path id="timer" d="M 12,4 l 1.18,0.09 1.14,0.25 1.1,0.43 1.02,0.58 0.93,0.72 0.81,0.85 0.68,0.96 0.53,1.06 0.37,1.12 0.2,1.16 0.03,1.17 -0.14,1.17 -0.32,1.14 -0.47,1.07 -0.63,0.99 -0.77,0.9 -0.9,0.77 -0.99,0.63 -1.07,0.47 -1.14,0.32 -1.17,0.14 -1.17,-0.03 -1.16,-0.2 -1.12,-0.37 -1.06,-0.53 -0.96,-0.68 -0.85,-0.81 -0.72,-0.93 -0.58,-1 -0.42,-1.07 -0.26,-1.14 -0.09,-1.23 0.06,-1.19 0.2,-1.16 0.41,-1.16 0.66,-1.24 0.27,-0.29 0.35,-0.16 0.39,-0.01 0.37,0.13 0.29,0.28 0.15,0.35 0.02,0.38 -0.14,0.37 -0.52,0.96 -0.31,0.89 -0.16,0.89 -0.04,0.96 0.06,0.93 0.2,0.85 0.31,0.8 0.44,0.75 0.55,0.7 0.63,0.61 0.72,0.51 0.79,0.39 0.84,0.28 0.87,0.15 0.88,0.02 0.88,-0.11 0.85,-0.23 0.81,-0.36 0.74,-0.47 0.67,-0.58 0.58,-0.67 0.47,-0.74 0.36,-0.81 0.23,-0.85 0.11,-0.88 -0.02,-0.88 -0.15,-0.87 -0.28,-0.84 -0.39,-0.79 -0.51,-0.72 -0.61,-0.63 -0.7,-0.55 -1.12,-0.59 -1.21,-0.34 0,0.92 -0.08,0.39 -0.21,0.32 -0.32,0.21 -0.39,0.08 -0.39,-0.08 -0.32,-0.21 -0.21,-0.32 -0.08,-0.39 0,-2 0.08,-0.38 0.21,-0.33 0.33,-0.21 0.38,-0.08 Z M 9.71,8.29 l 3,3 0.22,0.33 0.07,0.38 -0.07,0.38 -0.22,0.33 -0.33,0.22 -0.38,0.07 -0.38,-0.07 -0.33,-0.22 -3,-3 -0.22,-0.33 -0.07,-0.38 0.07,-0.38 0.22,-0.33 0.33,-0.22 0.38,-0.07 0.38,0.07 0.33,0.22 Z" fill-rule="evenodd" fill="#000000" />
</svg>