<svg xmlns="http://www.w3.org/2000/svg" viewBox="0 0 48 48">
  <path id="timedLockOutline" d="M 29,6 l 1.41,0.14 1.31,0.41 1.19,0.65 1.04,0.85 0.85,1.04 0.65,1.19 0.41,1.31 0.14,1.41 0,7 2,0 0.78,0.16 0.63,0.43 0.43,0.63 0.16,0.78 0,15 -0.16,0.78 -0.43,0.63 -0.63,0.43 -0.78,0.16 -18,0 -0.78,-0.16 -0.63,-0.43 -0.43,-0.63 -0.16,-0.78 0,-2 -5,0 0,-2 5,0 0,-8 -7,0 0,-2 7,0 0,-1 0.16,-0.78 0.43,-0.63 0.63,-0.43 0.78,-0.16 14,0 0,-7 -0.1,-1.01 -0.29,-0.94 -0.46,-0.85 -0.61,-0.74 -0.74,-0.61 -0.85,-0.46 -0.94,-0.29 -1.01,-0.1 -1.01,0.1 -0.94,0.29 -0.85,0.46 -0.74,0.61 -0.61,0.74 -0.46,0.85 -0.29,0.94 -0.1,1.01 -2,0 0.14,-1.41 0.41,-1.31 0.65,-1.19 0.85,-1.04 1.04,-0.85 1.19,-0.65 1.31,-0.41 1.41,-0.14 Z M 20,37 l 18,0 0,-15 -18,0 0,15 Z M 6,28 l 10,0 0,2 -10,0 0,-2 Z M 28,30 l 0,-6 2,0 0,5.46 2.55,1.71 -1.1,1.66 -3,-2 -0.33,-0.36 -0.12,-0.47 Z" fill-rule="evenodd" fill="#000000" />
</svg>