<svg xmlns="http://www.w3.org/2000/svg" viewBox="0 0 48 48">
  <path id="timeUnlockOutline" d="M 15.59,24 l -5.59,-5.59 0,-4.41 -3,0 0,-6 20,0 0,6 -3,0 0,4.41 -5.59,5.59 5.59,5.59 0,4.41 3,0 0,6 -20,0 0,-6 3,0 0,-4.41 5.59,-5.59 Z M 26,22 l 9,0 0,-2.5 -0.05,-0.5 -0.15,-0.47 -0.53,-0.8 -0.8,-0.53 -0.47,-0.15 -0.5,-0.05 -0.5,0.05 -0.47,0.15 -0.8,0.53 -0.53,0.8 -0.15,0.47 -0.05,0.5 -2,0 0.09,-0.91 0.26,-0.84 0.42,-0.77 0.55,-0.66 0.66,-0.55 0.77,-0.42 0.84,-0.26 0.91,-0.09 0.91,0.09 0.84,0.26 0.77,0.42 0.66,0.55 0.55,0.66 0.42,0.77 0.26,0.84 0.09,0.91 0,2.5 2,0 0,10 -13,0 0,-10 Z M 12,30.41 l 0,3.59 10,0 0,-3.59 -5,-5 -5,5 Z M 12,17.59 l 5,5 5,-5 0,-3.59 -10,0 0,3.59 Z M 37,30 l 0,-6 -9,0 0,6 9,0 Z M 25,12 l 0,-2 -16,0 0,2 16,0 Z M 9,36 l 0,2 16,0 0,-2 -16,0 Z M 15.29,29.29 l 1.42,1.42 -0.3,0.29 3.59,0 0,2 -6,0 0,-2.41 1.29,-1.3 Z" fill-rule="evenodd" fill="#000000" />
</svg>