<svg xmlns="http://www.w3.org/2000/svg" viewBox="0 0 24 24">
  <path id="tireDirection3Fourth2" d="M 6.44,4 l 3.56,0 0.72,0.16 0.66,0.47 0.61,0.74 0.52,0.97 0.44,1.19 0.33,1.36 0.2,1.5 0.08,1.61 -0.08,1.61 -0.2,1.5 -0.33,1.36 -0.44,1.19 -0.52,0.97 -0.61,0.74 -0.66,0.47 -0.72,0.16 -3.56,0 -0.96,-0.12 -0.87,-0.35 -0.73,-0.56 -0.56,-0.75 -0.55,-1.24 -0.41,-1.48 -0.27,-1.67 -0.09,-1.83 0.09,-1.83 0.27,-1.67 0.41,-1.48 0.55,-1.24 0.56,-0.75 0.73,-0.56 0.87,-0.35 0.96,-0.12 Z M 12.44,4.08 l 0.03,-0.08 0.09,0 0.26,0 1.62,0 0,0 0.01,0 0,0 0.74,0.31 0.68,0.53 0.61,0.75 0.52,0.95 0.42,1.12 0.31,1.3 0.2,1.45 0.07,1.59 -0.07,1.59 -0.2,1.45 -0.31,1.3 -0.42,1.12 -0.52,0.95 -0.61,0.75 -0.68,0.53 -0.74,0.31 0,0 -0.01,0 0,0 0,0 -1.62,0 -0.26,0 -0.09,0 -0.03,-0.08 0.08,-0.06 0.23,-0.14 0.01,0 0.54,-0.46 0.49,-0.64 0.44,-0.8 0.38,-0.95 0.31,-1.07 0.23,-1.18 0.14,-1.27 0.05,-1.35 -0.05,-1.35 -0.14,-1.27 -0.23,-1.18 -0.31,-1.07 -0.38,-0.95 -0.44,-0.8 -0.49,-0.64 -0.54,-0.46 -0.24,-0.14 -0.08,-0.06 Z M 3.33,12 l 0.05,1.06 0.13,0.95 0.2,0.83 0.27,0.71 0.33,0.57 0.38,0.42 0.42,0.26 0.45,0.09 0.33,-0.05 0.33,-0.15 0.58,-0.57 0.47,-0.92 0.34,-1.21 -0.09,-0.12 -0.17,0.01 -0.35,0.12 -0.04,0.02 -0.45,0.65 -0.55,0.55 -0.12,0.04 -0.11,-0.06 -0.05,-0.12 0.03,-0.14 0.34,-0.69 0.25,-0.76 0,-0.07 -0.22,-0.64 -0.07,-0.07 -1.27,-0.38 -0.17,-0.12 -0.07,-0.2 0.07,-0.2 0.17,-0.12 1.27,-0.39 0.07,-0.07 0.22,-0.65 0,-0.07 -0.25,-0.76 -0.34,-0.69 -0.03,-0.14 0.05,-0.12 0.11,-0.06 0.12,0.04 0.55,0.55 0.45,0.65 0.04,0.02 0.36,0.13 0.17,0.01 0.09,-0.12 -0.33,-1.35 -0.47,-1.06 -0.29,-0.4 -0.3,-0.3 -0.33,-0.18 -0.34,-0.06 -0.45,0.11 -0.42,0.31 -0.38,0.49 -0.33,0.65 -0.27,0.79 -0.2,0.9 -0.13,1.01 -0.05,1.07 Z M 19.87,14.67 l 2.01,3.61 0.01,0.18 -0.13,0.11 -4,1.2 -0.14,0 -0.09,-0.09 0.03,-0.24 1.88,-1.88 0.06,-0.14 0,-2.65 0.15,-0.19 0.22,0.09 Z" fill-rule="evenodd" fill="#000000" />
</svg>