<svg xmlns="http://www.w3.org/2000/svg" viewBox="0 0 24 24">
  <path id="tirePressureGaugeAlt03" d="M 16,3 l 0.81,0.18 0.75,0.53 0.68,0.83 0.59,1.1 0.49,1.33 0.37,1.53 0.23,1.69 0.08,1.81 -0.08,1.81 -0.23,1.69 -0.37,1.53 -0.49,1.33 -0.59,1.1 -0.68,0.83 -0.75,0.53 -0.81,0.18 -9,0 -1.09,-0.14 -0.97,-0.39 -0.83,-0.63 -0.62,-0.84 -0.62,-1.39 -0.47,-1.67 -0.3,-1.89 -0.1,-2.05 0.1,-2.05 0.3,-1.89 0.47,-1.67 0.62,-1.39 0.62,-0.84 0.83,-0.63 0.97,-0.39 1.09,-0.14 9,0 Z M 11,7 l 0,9.5 0.16,0.78 0.43,0.63 0.63,0.43 0.78,0.16 1,0 0.78,-0.16 0.63,-0.43 0.43,-0.63 0.16,-0.78 0,-9.5 -0.16,-0.78 -0.43,-0.63 -0.63,-0.43 -0.78,-0.16 -1,0 -0.78,0.16 -0.63,0.43 -0.43,0.63 -0.16,0.78 Z M 6,17.5 l 0.38,-0.06 0.36,-0.16 0.35,-0.28 0.31,-0.37 0.53,-1.02 0.38,-1.37 -0.1,-0.14 -0.19,0.01 -0.39,0.14 -0.05,0.03 -0.51,0.73 -0.61,0.61 -0.15,0.05 -0.11,-0.07 -0.06,-0.14 0.03,-0.16 0.39,-0.77 0.28,-0.85 -0.01,-0.08 -0.24,-0.72 -0.08,-0.08 -1.43,-0.43 -0.19,-0.13 -0.08,-0.23 0.08,-0.22 0.19,-0.14 1.43,-0.44 0.08,-0.08 0.24,-0.73 0.01,-0.08 -0.28,-0.85 -0.39,-0.77 -0.03,-0.16 0.06,-0.14 0.11,-0.07 0.15,0.05 0.61,0.61 0.51,0.73 0.05,0.03 0.4,0.15 0.19,0.01 0.1,-0.14 -0.37,-1.52 -0.25,-0.64 -0.28,-0.55 -0.32,-0.45 -0.34,-0.33 -0.37,-0.21 -0.39,-0.07 -0.5,0.12 -0.47,0.35 -0.43,0.55 -0.37,0.74 -0.3,0.89 -0.23,1.01 -0.15,1.13 -0.05,1.21 0.05,1.19 0.15,1.07 0.23,0.94 0.3,0.79 0.37,0.64 0.43,0.48 0.47,0.29 0.5,0.1 Z M 12.5,11 l 0.08,-0.39 0.21,-0.32 0.32,-0.21 0.39,-0.08 0.39,0.08 0.32,0.21 0.21,0.32 0.08,0.39 0,5 -0.08,0.39 -0.21,0.32 -0.32,0.21 -0.39,0.08 -0.39,-0.08 -0.32,-0.21 -0.21,-0.32 -0.08,-0.39 0,-5 Z" fill-rule="evenodd" fill="#000000" />
</svg>