<svg xmlns="http://www.w3.org/2000/svg" viewBox="0 0 24 24">
  <path id="tireDeflated" d="M 19.48,18 l 0,0 0.02,0 0.19,0.76 0.01,0.46 -0.19,0.4 -0.34,0.27 -0.45,0.11 -13.44,0 -0.45,-0.11 -0.34,-0.27 -0.19,-0.4 0.01,-0.46 0.19,-0.76 0.02,0 0,0 -0.65,-1.12 -0.47,-1.22 -0.3,-1.3 -0.1,-1.36 0.18,-1.81 0.53,-1.69 0.83,-1.53 1.1,-1.33 1.33,-1.1 1.53,-0.83 1.69,-0.53 1.81,-0.18 1.81,0.18 1.69,0.53 1.53,0.83 1.33,1.1 1.1,1.33 0.83,1.53 0.53,1.69 0.18,1.81 -0.1,1.36 -0.3,1.3 -0.47,1.22 -0.65,1.12 Z M 12,18 l 1.01,-0.1 0.94,-0.29 0.85,-0.46 0.74,-0.61 0.61,-0.74 0.46,-0.85 0.29,-0.94 0.1,-1.01 -0.1,-1.01 -0.29,-0.94 -0.46,-0.85 -0.61,-0.74 -0.74,-0.61 -0.85,-0.46 -0.94,-0.29 -1.01,-0.1 -1.01,0.1 -0.94,0.29 -0.85,0.46 -0.74,0.61 -0.61,0.74 -0.46,0.85 -0.29,0.94 -0.1,1.01 0.1,1.01 0.29,0.94 0.46,0.85 0.61,0.74 0.74,0.61 0.85,0.46 0.94,0.29 1.01,0.1 Z M 14.33,10.34 l 0.16,-0.03 0.13,0.07 0.07,0.13 -0.03,0.16 -0.8,1.6 0.14,0.73 -0.14,0.73 0.8,1.6 0.03,0.16 -0.07,0.13 -0.13,0.07 -0.16,-0.03 -1.6,-0.8 -0.73,0.14 -0.73,-0.14 -1.6,0.8 -0.16,0.03 -0.13,-0.07 -0.07,-0.13 0.03,-0.16 0.8,-1.6 -0.14,-0.73 0.14,-0.73 -0.8,-1.6 -0.03,-0.16 0.07,-0.13 0.13,-0.07 0.16,0.03 1.6,0.8 0.73,-0.14 0.73,0.14 1.6,-0.8 Z" fill-rule="evenodd" fill="#000000" />
</svg>