<svg xmlns="http://www.w3.org/2000/svg" viewBox="0 0 24 24">
  <path id="tireAirPuff" d="M 7.69,12.41 l 0.53,-0.05 0.5,0.06 0.92,0.4 0.72,0.71 0.45,0.94 0.45,1.64 0.16,0.39 0.26,0.32 0.33,0.25 0.39,0.15 0.49,0.05 0.47,-0.11 0.42,-0.25 0.33,-0.37 1.47,-2.31 0.6,-0.69 0.76,-0.46 0.86,-0.19 0.9,0.11 2.39,0.87 0.32,0.23 0.2,0.33 0.06,0.37 -0.1,0.39 -2.18,4.5 -0.48,0.63 -0.67,0.4 -0.77,0.15 -0.8,-0.12 -2.29,-0.56 -2.36,-0.19 -2.36,0.18 -2.29,0.55 -0.8,0.12 -0.78,-0.15 -0.66,-0.39 -0.48,-0.64 -2.16,-4.51 -0.1,-0.38 0.06,-0.38 0.19,-0.32 0.33,-0.23 2.32,-0.85 2.4,-0.59 Z M 17.05,5.04 l 0.45,-0.04 0.5,0.05 0.47,0.15 0.8,0.53 0.53,0.8 0.15,0.47 0.05,0.5 -0.15,0.84 -0.4,0.72 -0.61,0.55 -0.76,0.32 -0.1,-0.04 0,-0.11 0.39,-0.82 0.13,-0.9 0,-0.08 -0.12,-0.58 -0.31,-0.47 -0.47,-0.31 -0.58,-0.12 -0.51,0.06 -0.48,0.17 -0.17,0.09 -0.24,-0.01 -0.12,-0.21 0,-1.1 -0.12,-0.58 -0.32,-0.48 -0.48,-0.32 -0.58,-0.12 -0.58,0.12 -0.48,0.32 -0.32,0.48 -0.12,0.58 0,0.16 -0.1,0.18 -0.21,0.01 -0.35,-0.18 -0.72,-0.17 -0.63,0.13 -0.52,0.34 -0.34,0.52 -0.13,0.63 0,0.18 0.03,0.4 0.13,0.77 -0.08,0.23 -0.23,0.02 -0.55,-0.39 -0.43,-0.51 -0.27,-0.62 -0.1,-0.7 0.05,-0.5 0.15,-0.47 0.53,-0.8 0.8,-0.53 0.47,-0.15 0.5,-0.05 0.41,0.03 0.19,-0.03 0.12,-0.14 0.45,-0.75 0.64,-0.59 0.79,-0.38 0.9,-0.14 0.6,0.06 0.57,0.18 0.51,0.27 0.44,0.37 0.37,0.44 0.27,0.51 0.18,0.57 0.06,0.6 0.05,0.04 Z M 15.68,8.58 l 0.3,0 0.25,0.15 0.16,0.29 -0.03,0.33 -1.57,3.93 -0.26,0.27 -0.35,0.02 -0.28,-0.21 -0.06,-0.38 0.58,-2.6 -0.07,-0.19 -0.19,-0.02 -0.66,0.16 -0.66,-0.16 -0.06,-0.03 -0.2,0 -0.1,0.17 -0.1,1.87 -0.16,0.35 -0.33,0.12 -0.33,-0.11 -0.18,-0.34 -0.33,-3.62 0.11,-0.49 0.36,-0.35 0.47,-0.09 0.44,0.17 1.19,0.89 0.4,0.18 0.44,-0.01 1.22,-0.3 Z" fill-rule="evenodd" fill="#000000" />
</svg>