<svg xmlns="http://www.w3.org/2000/svg" viewBox="0 0 24 24">
  <path id="tirePressureGaugeOutlined01" d="M 5.28,3 l 0.67,0.14 0.55,0.36 0.36,0.55 0.14,0.67 -0.09,0.54 -0.41,1.24 -0.31,0.8 -0.44,0.78 -0.44,0.76 -0.32,0.79 -0.24,0.85 -0.26,1.82 0.04,1.82 0.11,0.85 0.18,0.77 0.2,0.51 0.28,0.45 0.78,0.71 0.98,0.44 1.1,0.15 7.68,0 1.1,-0.15 0.98,-0.44 0.78,-0.71 0.28,-0.45 0.2,-0.51 0.18,-0.77 0.11,-0.85 0.04,-1.82 -0.25,-1.82 -0.25,-0.85 -0.32,-0.79 -0.44,-0.76 -0.44,-0.78 -0.31,-0.8 -0.41,-1.24 -0.09,-0.54 0.14,-0.67 0.36,-0.55 0.55,-0.36 0.67,-0.14 0.19,0 0.41,0.09 0.33,0.23 0.21,0.35 0.05,0.42 -0.16,1.89 0.31,1 0.41,0.97 0.51,1.24 0.35,1.35 0.19,1.42 0.03,1.46 -0.12,1.45 -0.28,1.41 -0.43,1.32 -0.6,1.19 -0.2,0.44 -0.92,2.77 -2,0 0,-2 -2,0 0,2 -2,0 0,-2 -2,0 0,2 -2,0 0,-2 -2,0 0,2 -2,0 -0.92,-2.77 -0.2,-0.44 -0.6,-1.19 -0.43,-1.32 -0.28,-1.41 -0.12,-1.45 0.03,-1.46 0.19,-1.42 0.35,-1.35 0.51,-1.24 0.41,-0.97 0.31,-1 -0.16,-1.89 0.06,-0.42 0.2,-0.35 0.33,-0.23 0.41,-0.09 0.19,0 Z M 13.86,13.27 l 0.14,0.73 -0.16,0.78 -0.43,0.63 -0.63,0.43 -0.78,0.16 -0.78,-0.16 -0.63,-0.43 -0.43,-0.63 -0.16,-0.78 0.16,-0.78 0.43,-0.63 0.63,-0.43 0.78,-0.16 0.3,0.02 3.7,-3.02 0.5,0.5 -2.64,3.77 Z M 10.96,10.14 l -0.81,0.31 -0.72,0.49 -0.61,0.63 -0.45,0.74 -0.25,0.7 -0.15,0.38 -0.25,0.32 -0.33,0.21 -0.39,0.08 -0.39,-0.08 -0.31,-0.21 -0.19,-0.32 -0.03,-0.39 0.19,-0.78 0.29,-0.75 0.68,-1.12 0.9,-0.94 1.08,-0.73 1.22,-0.47 0.79,-0.16 0.81,-0.05 0.37,0.09 0.28,0.24 0.16,0.35 0.01,0.39 -0.15,0.37 -0.26,0.29 -0.36,0.19 -0.4,0.09 -0.73,0.13 Z M 16.37,12.83 l 0.67,-0.18 0.31,-0.02 0.28,0.1 0.21,0.2 0.11,0.29 -0.03,0.3 -0.15,0.25 -0.25,0.17 -0.31,0.06 -0.69,0 -0.37,-0.15 -0.18,-0.37 0.08,-0.41 0.32,-0.24 Z" fill-rule="evenodd" fill="#000000" />
</svg>