<svg xmlns="http://www.w3.org/2000/svg" viewBox="0 0 24 24">
  <path id="tireDirectionSide2" d="M 18,12 l -0.16,1.61 -0.47,1.5 -0.74,1.36 -0.97,1.19 -1.19,0.97 -1.36,0.74 -1.5,0.47 -1.61,0.16 -1.61,-0.16 -1.5,-0.47 -1.36,-0.74 -1.19,-0.97 -0.97,-1.19 -0.74,-1.36 -0.47,-1.5 -0.16,-1.61 0.16,-1.61 0.47,-1.5 0.74,-1.36 0.97,-1.19 1.19,-0.97 1.36,-0.74 1.5,-0.47 1.61,-0.16 1.61,0.16 1.5,0.47 1.36,0.74 1.19,0.97 0.97,1.19 0.74,1.36 0.47,1.5 0.16,1.61 Z M 15,12 l -0.1,-1.01 -0.29,-0.94 -0.46,-0.85 -0.61,-0.74 -0.74,-0.61 -0.85,-0.46 -0.94,-0.29 -1.01,-0.1 -1.01,0.1 -0.94,0.29 -0.85,0.46 -0.74,0.61 -0.61,0.74 -0.46,0.85 -0.29,0.94 -0.1,1.01 0.1,1.01 0.29,0.94 0.46,0.85 0.61,0.74 0.74,0.61 0.85,0.46 0.94,0.29 1.01,0.1 1.01,-0.1 0.94,-0.29 0.85,-0.46 0.74,-0.61 0.61,-0.74 0.46,-0.85 0.29,-0.94 0.1,-1.01 Z M 11.26,8.06 l -0.04,2.35 0.37,0.37 2.35,-0.04 0.12,0.05 0.07,0.1 -0.09,0.23 -2.06,1.14 -0.13,0.51 1.21,2.01 0.02,0.13 -0.06,0.11 -0.11,0.06 -0.13,-0.02 -2.01,-1.21 -0.51,0.13 -1.14,2.06 -0.23,0.09 -0.1,-0.07 -0.05,-0.12 0.04,-2.35 -0.37,-0.37 -2.35,0.04 -0.12,-0.05 -0.07,-0.1 0.09,-0.23 2.06,-1.14 0.13,-0.5 -1.21,-2.02 -0.02,-0.13 0.06,-0.11 0.11,-0.06 0.13,0.02 2.02,1.21 0.5,-0.13 1.14,-2.06 0.23,-0.09 0.1,0.07 0.05,0.12 Z M 19.59,8.79 l 2.32,3.09 0,0.24 -2.32,3.09 -0.11,0.07 -0.13,-0.01 -0.1,-0.09 -0.01,-0.14 0.75,-2.99 0,-0.1 -0.75,-2.99 0.01,-0.14 0.1,-0.09 0.13,-0.01 0.11,0.07 Z" fill-rule="evenodd" fill="#000000" />
</svg>