<svg xmlns="http://www.w3.org/2000/svg" viewBox="0 0 24 24">
  <path id="tirePressureGaugeSolid03" d="M 6.81,3.84 l 0.11,0.71 0.02,0.45 -0.09,0.44 -0.49,1.47 0,0.25 0.14,0.19 0.22,0.08 0.24,-0.07 1.18,-0.67 1.25,-0.47 1.3,-0.29 1.31,-0.1 1.31,0.1 1.3,0.29 1.25,0.47 1.18,0.67 0.24,0.07 0.22,-0.08 0.14,-0.19 0,-0.25 -0.49,-1.47 -0.09,-0.44 0.02,-0.45 0.11,-0.71 0.12,-0.34 0.22,-0.26 0.3,-0.18 0.35,-0.06 0.73,0 0.41,0.09 0.33,0.23 0.21,0.35 0.05,0.42 -0.16,1.89 0.31,1 0.41,0.97 0.51,1.24 0.35,1.35 0.19,1.42 0.03,1.46 -0.12,1.45 -0.28,1.41 -0.43,1.32 -0.6,1.19 -0.2,0.44 -0.92,2.77 -2,0 0,-2 -2,0 0,2 -2,0 0,-2 -2,0 0,2 -2,0 0,-2 -2,0 0,2 -2,0 -0.92,-2.77 -0.2,-0.44 -0.6,-1.19 -0.43,-1.32 -0.28,-1.41 -0.12,-1.45 0.03,-1.46 0.19,-1.42 0.35,-1.35 0.51,-1.24 0.41,-0.97 0.31,-1 -0.16,-1.89 0.06,-0.42 0.2,-0.35 0.33,-0.23 0.41,-0.09 0.73,0 0.35,0.06 0.3,0.18 0.22,0.26 0.12,0.34 Z M 13.03,9.09 l -0.01,-0.4 -0.16,-0.34 -0.28,-0.25 -0.37,-0.1 -1.02,0.05 -1.01,0.19 -1.42,0.55 -1.26,0.85 -1.06,1.1 -0.79,1.3 -0.36,0.96 -0.22,1 0.04,0.39 0.19,0.32 0.31,0.21 0.39,0.08 0.39,-0.08 0.33,-0.21 0.24,-0.32 0.14,-0.38 0.37,-1.12 0.56,-0.93 0.75,-0.79 0.91,-0.6 1.01,-0.4 1.16,-0.17 0.41,-0.07 0.35,-0.19 0.27,-0.28 0.14,-0.37 Z M 16.5,10.5 l -0.5,-0.5 -3.7,3.02 -0.3,-0.02 -0.78,0.16 -0.63,0.43 -0.43,0.63 -0.16,0.78 0.16,0.78 0.43,0.63 0.63,0.43 0.78,0.16 0.78,-0.16 0.63,-0.43 0.43,-0.63 0.16,-0.78 -0.14,-0.73 2.64,-3.77 Z M 17.46,13.54 l -0.23,0.11 -0.17,0.19 -0.1,0.51 0.23,0.46 0.21,0.14 0.25,0.05 0.43,0 0.36,-0.07 0.29,-0.2 0.18,-0.29 0.03,-0.35 -0.13,-0.34 -0.24,-0.23 -0.33,-0.12 -0.36,0.03 -0.42,0.11 Z" fill-rule="evenodd" fill="#000000" />
</svg>