<svg xmlns="http://www.w3.org/2000/svg" viewBox="0 0 24 24">
  <path id="tirePressureGaugeAlt01" d="M 14,7 l 0.06,-0.6 0.18,-0.57 0.27,-0.51 0.37,-0.44 0.44,-0.37 0.51,-0.27 0.57,-0.18 0.6,-0.06 2,0 0.6,0.06 0.57,0.18 0.51,0.27 0.44,0.37 0.37,0.44 0.27,0.51 0.18,0.57 0.06,0.6 0,10 -0.06,0.6 -0.18,0.57 -0.27,0.51 -0.37,0.44 -0.44,0.37 -0.51,0.27 -0.57,0.18 -0.6,0.06 -2,0 -0.6,-0.06 -0.57,-0.18 -0.51,-0.27 -0.44,-0.37 -0.37,-0.44 -0.27,-0.51 -0.18,-0.57 -0.06,-0.6 0,-10 Z M 2,19.56 l 0,-2.56 0.08,-0.27 0.21,-0.19 0.27,-0.08 0.29,0.06 1.03,0.35 1.12,0.13 1.01,-0.1 0.94,-0.29 0.85,-0.46 0.74,-0.61 0.61,-0.74 0.46,-0.85 0.29,-0.94 0.1,-1.01 -0.1,-1.01 -0.29,-0.94 -0.46,-0.85 -0.61,-0.74 -0.74,-0.61 -0.85,-0.46 -0.94,-0.29 -1.01,-0.1 -1.12,0.13 -1.03,0.35 -0.29,0.06 -0.27,-0.08 -0.21,-0.19 -0.08,-0.27 0,-2.07 0.08,-0.28 0.23,-0.17 1.31,-0.36 1.38,-0.12 1.61,0.17 1.5,0.48 1.36,0.75 1.19,1.01 0.97,1.22 0.74,1.39 0.47,1.55 0.16,1.65 -0.11,1.39 -0.33,1.3 -0.52,1.22 -0.7,1.1 -1.02,1.07 -1.21,0.76 -0.29,0.21 -0.45,0.44 -0.32,0.22 -0.38,0.07 -5.09,0 -0.35,-0.07 -0.17,-0.15 -0.06,-0.22 Z M 17,5.5 l -0.58,0.12 -0.48,0.32 -0.32,0.48 -0.12,0.58 0,10 0.12,0.58 0.32,0.48 0.48,0.32 0.58,0.12 2,0 0.58,-0.12 0.48,-0.32 0.32,-0.48 0.12,-0.58 0,-10 -0.12,-0.58 -0.32,-0.48 -0.48,-0.32 -0.58,-0.12 -2,0 Z M 2,11.59 l 0,-0.38 0.05,-0.22 0.13,-0.17 0.18,-0.1 0.23,-0.01 1.02,0.18 0.38,-0.09 0.2,-0.33 0.3,-2.06 0.15,-0.29 0.29,-0.12 0.07,0 0.07,0 0.29,0.12 0.15,0.29 0.3,2.06 0.2,0.33 0.38,0.09 1.92,-0.33 0.33,0.05 0.2,0.26 0.05,0.19 -0.04,0.3 -0.21,0.21 -1.77,0.91 -0.25,0.29 0.03,0.38 0.78,1.53 0.05,0.32 -0.18,0.27 -0.23,0.15 -0.3,0.06 -0.27,-0.14 -1.14,-1.19 -0.36,-0.16 -0.36,0.16 -1.14,1.19 -0.27,0.14 -0.3,-0.06 -0.23,-0.15 -0.18,-0.27 0.05,-0.32 0.78,-1.53 0.03,-0.38 -0.25,-0.29 -0.86,-0.44 -0.2,-0.19 -0.07,-0.26 Z M 17,11 l 0.08,-0.39 0.21,-0.32 0.32,-0.21 0.39,-0.08 0.39,0.08 0.32,0.21 0.21,0.32 0.08,0.39 0,5 -0.08,0.39 -0.21,0.32 -0.32,0.21 -0.39,0.08 -0.39,-0.08 -0.32,-0.21 -0.21,-0.32 -0.08,-0.39 0,-5 Z" fill-rule="evenodd" fill="#000000" />
</svg>