<svg xmlns="http://www.w3.org/2000/svg" viewBox="0 0 24 24">
  <path id="tirePressureStopOctoSolid" d="M 6.81,3.84 l 10.38,0 0.09,-0.13 0.22,-0.29 0.32,-0.29 0.36,-0.13 0.73,0 0.41,0.09 0.33,0.23 0.21,0.35 0.05,0.42 -0.16,1.89 0.31,1 0.41,0.97 0.51,1.24 0.35,1.35 0.19,1.42 0.03,1.46 -0.12,1.45 -0.28,1.41 -0.43,1.32 -0.6,1.19 -0.2,0.44 -0.92,2.77 -2,0 0,-2 -2,0 0,2 -2,0 0,-2 -2,0 0,2 -2,0 0,-2 -2,0 0,2 -2,0 -0.92,-2.77 -0.2,-0.44 -0.6,-1.19 -0.43,-1.32 -0.28,-1.41 -0.12,-1.45 0.03,-1.46 0.19,-1.42 0.35,-1.35 0.51,-1.24 0.41,-0.97 0.31,-1 -0.16,-1.89 0.06,-0.42 0.2,-0.35 0.33,-0.23 0.41,-0.09 0.73,0 0.36,0.13 0.32,0.29 0.22,0.29 0.09,0.13 Z M 9.75,6 l -3.75,3.75 0,4.5 3.75,3.75 4.5,0 3.75,-3.75 0,-4.5 -3.75,-3.75 -4.5,0 Z M 16,10.5 l 0,3 -8,0 0,-3 8,0 Z" fill-rule="evenodd" fill="#000000" />
</svg>