<svg xmlns="http://www.w3.org/2000/svg" viewBox="0 0 24 24">
  <path id="tireDirectionFront2" d="M 9.15,4.15 l 0.3,-0.13 0.55,-0.02 1.25,0.01 0.94,0.06 0.71,0.18 0.51,0.34 0.34,0.51 0.18,0.71 0.06,0.94 0.01,1.25 0,8 -0.01,1.25 -0.06,0.94 -0.18,0.71 -0.34,0.51 -0.51,0.34 -0.71,0.18 -0.94,0.06 -1.25,0.01 -0.55,-0.02 -0.3,-0.13 -0.13,-0.3 -0.02,-0.55 0,-14 0.02,-0.55 0.13,-0.3 Z M 4,6 l 0.16,-0.78 0.43,-0.63 0.63,-0.43 0.78,-0.16 0.55,0.02 0.3,0.13 0.13,0.3 0.02,0.55 0,14 -0.02,0.55 -0.13,0.3 -0.3,0.13 -0.55,0.02 -0.78,-0.16 -0.63,-0.43 -0.43,-0.63 -0.16,-0.78 0,-12 Z M 19.19,8.58 l 0.7,2.13 0.09,0.11 1.72,1.01 0.1,0.17 -0.1,0.17 -1.72,1.01 -0.09,0.11 -0.7,2.13 -0.19,0.14 -0.19,-0.14 -0.7,-2.13 -0.09,-0.11 -1.72,-1.01 -0.1,-0.17 0.1,-0.17 1.72,-1.01 0.09,-0.11 0.7,-2.13 0.19,-0.14 0.19,0.14 Z" fill-rule="evenodd" fill="#000000" />
</svg>