<svg xmlns="http://www.w3.org/2000/svg" viewBox="0 0 24 24">
  <path id="tireDirectionTop2" d="M 9.15,4.15 l 0.3,-0.13 0.55,-0.02 1.25,0.01 0.94,0.06 0.71,0.18 0.51,0.34 0.34,0.51 0.18,0.71 0.06,0.94 0.01,1.25 0,8 -0.01,1.25 -0.06,0.94 -0.18,0.71 -0.34,0.51 -0.51,0.34 -0.71,0.18 -0.94,0.06 -1.25,0.01 -0.55,-0.02 -0.3,-0.13 -0.13,-0.3 -0.02,-0.55 0,-14 0.02,-0.55 0.13,-0.3 Z M 4,6 l 0.16,-0.78 0.43,-0.63 0.63,-0.43 0.78,-0.16 0.55,0.02 0.3,0.13 0.13,0.3 0.02,0.55 0,14 -0.02,0.55 -0.13,0.3 -0.3,0.13 -0.55,0.02 -0.78,-0.16 -0.63,-0.43 -0.43,-0.63 -0.16,-0.78 0,-12 Z M 21.75,9.5 l -2.57,5.14 -0.18,0.11 -0.18,-0.11 -2.57,-5.14 0.03,-0.23 0.23,-0.04 2.41,1.07 0.16,0 2.41,-1.07 0.23,0.04 0.03,0.23 Z" fill-rule="evenodd" fill="#000000" />
</svg>