<svg xmlns="http://www.w3.org/2000/svg" viewBox="0 0 24 24">
  <path id="tirePressureGaugeSolid02" d="M 5.82,3 l 0.35,0.06 0.3,0.18 0.22,0.26 0.12,0.34 0.11,0.71 0.02,0.45 -0.09,0.44 -0.49,1.47 0,0.25 0.14,0.19 0.22,0.08 0.24,-0.07 1.18,-0.67 1.25,-0.47 1.3,-0.29 1.31,-0.1 1.31,0.1 1.3,0.29 1.25,0.47 1.18,0.67 0.24,0.07 0.22,-0.08 0.14,-0.19 0,-0.25 -0.49,-1.47 -0.09,-0.44 0.02,-0.45 0.11,-0.71 0.12,-0.34 0.22,-0.26 0.3,-0.18 0.35,-0.06 0.73,0 0.41,0.09 0.33,0.23 0.21,0.35 0.05,0.42 -0.16,1.89 0.31,1 0.41,0.97 0.51,1.24 0.35,1.35 0.19,1.42 0.03,1.46 -0.12,1.45 -0.28,1.41 -0.43,1.32 -0.6,1.19 -0.2,0.44 -0.92,2.77 -2,0 0,-2 -2,0 0,2 -2,0 0,-2 -2,0 0,2 -2,0 0,-2 -2,0 0,2 -2,0 -0.92,-2.77 -0.2,-0.44 -0.6,-1.19 -0.43,-1.32 -0.28,-1.41 -0.12,-1.45 0.03,-1.46 0.19,-1.42 0.35,-1.35 0.51,-1.24 0.41,-0.97 0.31,-1 -0.16,-1.89 0.06,-0.42 0.2,-0.35 0.33,-0.23 0.41,-0.09 0.73,0 Z M 9.5,10 l 0,6.5 0.16,0.78 0.43,0.63 0.63,0.43 0.78,0.16 1,0 0.78,-0.16 0.63,-0.43 0.43,-0.63 0.16,-0.78 0,-6.5 -0.16,-0.78 -0.43,-0.63 -0.63,-0.43 -0.78,-0.16 -1,0 -0.78,0.16 -0.63,0.43 -0.43,0.63 -0.16,0.78 Z M 11,12.5 l 2,0 0,3.5 -0.08,0.39 -0.21,0.32 -0.32,0.21 -0.39,0.08 -0.39,-0.08 -0.32,-0.21 -0.21,-0.32 -0.08,-0.39 0,-3.5 Z" fill-rule="evenodd" fill="#000000" />
</svg>