<svg xmlns="http://www.w3.org/2000/svg" viewBox="0 0 24 24">
  <path id="tirePressureStopOctoLine" d="M 5.28,3 l 0.67,0.14 0.55,0.36 0.36,0.55 0.14,0.67 -0.09,0.54 -0.41,1.24 -0.31,0.8 -0.44,0.78 -0.44,0.76 -0.32,0.79 -0.24,0.85 -0.26,1.82 0.04,1.82 0.11,0.85 0.18,0.77 0.2,0.51 0.28,0.45 0.78,0.71 0.98,0.44 1.1,0.15 7.68,0 1.1,-0.15 0.98,-0.44 0.78,-0.71 0.28,-0.45 0.2,-0.51 0.18,-0.77 0.11,-0.85 0.04,-1.82 -0.25,-1.82 -0.25,-0.85 -0.32,-0.79 -0.44,-0.76 -0.44,-0.78 -0.31,-0.8 -0.41,-1.24 -0.09,-0.54 0.14,-0.67 0.36,-0.55 0.55,-0.36 0.67,-0.14 0.19,0 0.41,0.09 0.33,0.23 0.21,0.35 0.05,0.42 -0.16,1.89 0.31,1 0.41,0.97 0.51,1.24 0.35,1.35 0.19,1.42 0.03,1.46 -0.12,1.45 -0.28,1.41 -0.43,1.32 -0.6,1.19 -0.2,0.44 -0.92,2.77 -2,0 0,-2 -2,0 0,2 -2,0 0,-2 -2,0 0,2 -2,0 0,-2 -2,0 0,2 -2,0 -0.92,-2.77 -0.2,-0.44 -0.6,-1.19 -0.43,-1.32 -0.28,-1.41 -0.12,-1.45 0.03,-1.46 0.19,-1.42 0.35,-1.35 0.51,-1.24 0.41,-0.97 0.31,-1 -0.16,-1.89 0.06,-0.42 0.2,-0.35 0.33,-0.23 0.41,-0.09 0.19,0 Z M 13.88,6 l 3.12,3.13 0,3.75 -3.12,3.12 -3.75,0 -3.13,-3.12 0,-3.75 3.13,-3.13 3.75,0 Z M 15.33,9.75 l -6.66,0 0,2.5 6.66,0 0,-2.5 Z" fill-rule="evenodd" fill="#000000" />
</svg>