<svg xmlns="http://www.w3.org/2000/svg" viewBox="0 0 24 24">
  <path id="toCOMWithWheels" d="M 13.38,6.33 l -0.12,0.56 -0.34,0.44 0,0.78 1.49,0 0.28,0.09 0.16,0.24 1.13,4 0.01,0.21 -0.08,0.18 -0.16,0.12 -0.21,0.05 -7.08,0 -0.21,-0.05 -0.16,-0.12 -0.08,-0.18 0.01,-0.21 1.13,-4 0.16,-0.24 0.28,-0.09 1.49,0 0,-0.78 -0.34,-0.44 -0.12,-0.56 0.11,-0.52 0.29,-0.42 0.44,-0.29 0.54,-0.1 0.54,0.1 0.44,0.29 0.29,0.42 0.11,0.52 Z M 21,16 l -0.06,0.6 -0.18,0.57 -0.27,0.51 -0.37,0.44 -0.44,0.37 -0.51,0.27 -0.57,0.18 -0.6,0.06 -0.6,-0.06 -0.57,-0.18 -0.51,-0.27 -0.44,-0.37 -0.37,-0.44 -0.27,-0.51 -0.18,-0.57 -0.06,-0.6 0.06,-0.6 0.18,-0.57 0.27,-0.51 0.37,-0.44 0.44,-0.37 0.51,-0.27 0.57,-0.18 0.6,-0.06 0.6,0.06 0.57,0.18 0.51,0.27 0.44,0.37 0.37,0.44 0.27,0.51 0.18,0.57 0.06,0.6 Z M 6,19 l -0.6,-0.06 -0.57,-0.18 -0.51,-0.27 -0.44,-0.37 -0.37,-0.44 -0.27,-0.51 -0.18,-0.57 -0.06,-0.6 0.06,-0.6 0.18,-0.57 0.27,-0.51 0.37,-0.44 0.44,-0.37 0.51,-0.27 0.57,-0.18 0.6,-0.06 0.6,0.06 0.57,0.18 0.51,0.27 0.44,0.37 0.37,0.44 0.27,0.51 0.18,0.57 0.06,0.6 -0.06,0.6 -0.18,0.57 -0.27,0.51 -0.37,0.44 -0.44,0.37 -0.51,0.27 -0.57,0.18 -0.6,0.06 Z M 2.83,4.24 l 1.41,-1.41 2.12,2.11 0.96,-1.87 0.68,0.69 0,4.24 -4.24,0 -0.69,-0.68 1.87,-0.96 -2.11,-2.12 Z M 6,17.5 l 0.58,-0.12 0.48,-0.32 0.32,-0.48 0.12,-0.58 -0.12,-0.58 -0.32,-0.48 -0.48,-0.32 -0.58,-0.12 -0.58,0.12 -0.48,0.32 -0.32,0.48 -0.12,0.58 0.12,0.58 0.32,0.48 0.48,0.32 0.58,0.12 Z M 19.5,16 l -0.12,-0.58 -0.32,-0.48 -0.48,-0.32 -0.58,-0.12 -0.58,0.12 -0.48,0.32 -0.32,0.48 -0.12,0.58 0.12,0.58 0.32,0.48 0.48,0.32 0.58,0.12 0.58,-0.12 0.48,-0.32 0.32,-0.48 0.12,-0.58 Z M 12.69,6.33 l -0.05,-0.26 -0.15,-0.21 -0.22,-0.14 -0.27,-0.05 -0.27,0.05 -0.22,0.14 -0.15,0.21 -0.05,0.26 0.05,0.26 0.15,0.21 0.22,0.15 0.27,0.05 0.27,-0.05 0.22,-0.15 0.15,-0.21 0.05,-0.26 Z" fill-rule="evenodd" fill="#000000" />
</svg>