<svg xmlns="http://www.w3.org/2000/svg" viewBox="0 0 24 24">
  <path id="toCOM" d="M 16.84,9.24 l -0.05,0.47 -0.15,0.43 -0.53,0.71 0,1.26 2.37,0 0.44,0.15 0.26,0.38 1.79,6.45 0.01,0.34 -0.13,0.29 -0.25,0.2 -0.33,0.08 -11.24,0 -0.33,-0.08 -0.25,-0.2 -0.14,-0.29 0.01,-0.34 1.8,-6.45 0.26,-0.38 0.44,-0.15 2.37,0 0,-1.26 -0.54,-0.71 -0.14,-0.43 -0.05,-0.47 0.17,-0.83 0.47,-0.69 0.7,-0.46 0.85,-0.17 0.85,0.17 0.7,0.46 0.47,0.69 0.17,0.83 Z M 3,4.83 l 1.8,-1.83 2.68,2.73 1.22,-2.41 0.87,0.88 0,5.47 -5.39,0 -0.87,-0.88 2.38,-1.23 -2.69,-2.73 Z M 15.75,9.24 l -0.09,-0.41 -0.24,-0.35 -0.34,-0.23 -0.43,-0.08 -0.43,0.08 -0.35,0.23 -0.23,0.35 -0.09,0.41 0.09,0.42 0.23,0.35 0.35,0.23 0.43,0.08 0.43,-0.08 0.34,-0.23 0.24,-0.35 0.09,-0.42 Z" fill-rule="evenodd" fill="#000000" />
</svg>