<svg xmlns="http://www.w3.org/2000/svg" viewBox="0 0 24 24">
  <path id="toGarage" d="M 11.37,7.72 l 0.63,-0.17 0.63,0.17 7.21,4.1 0.14,0.17 0.01,0.19 -0.11,0.17 -0.2,0.07 -1.34,0 0,7.58 -2.54,0 0,-3.79 -7.6,0 0,3.79 -2.54,0 0,-7.58 -1.34,0 -0.2,-0.07 -0.11,-0.17 0.01,-0.19 0.14,-0.17 7.21,-4.1 Z M 15,3 l -3,3.17 -3,-3.17 0.5,-0.5 2.5,1.5 2.5,-1.5 0.5,0.5 Z M 8.2,13.68 l 0,1.26 3.17,0 0,-1.26 -3.17,0 Z M 10.73,19.37 l 0.05,-0.25 0.14,-0.2 0.2,-0.13 0.25,-0.05 1.26,0 0.25,0.05 0.2,0.13 0.14,0.2 0.05,0.25 -0.05,0.24 -0.14,0.2 -0.2,0.14 -0.25,0.05 -1.26,0 -0.25,-0.05 -0.2,-0.14 -0.14,-0.2 -0.05,-0.24 Z" fill-rule="evenodd" fill="#000000" />
</svg>