<svg xmlns="http://www.w3.org/2000/svg" viewBox="0 0 24 24">
  <path id="toggleOff" d="M 3,12 l 0.12,-1.21 0.35,-1.13 0.55,-1.01 0.74,-0.89 0.89,-0.74 1.01,-0.55 1.13,-0.35 1.21,-0.12 6,0 1.21,0.12 1.13,0.35 1.01,0.55 0.89,0.74 0.74,0.89 0.55,1.01 0.35,1.13 0.12,1.21 -0.12,1.21 -0.35,1.13 -0.55,1.01 -0.74,0.89 -0.89,0.74 -1.01,0.55 -1.13,0.35 -1.21,0.12 -6,0 -1.21,-0.12 -1.13,-0.35 -1.01,-0.55 -0.89,-0.74 -0.74,-0.89 -0.55,-1.01 -0.35,-1.13 -0.12,-1.21 Z M 9,7.5 l -0.91,0.09 -0.84,0.26 -0.77,0.42 -0.66,0.55 -0.55,0.66 -0.42,0.77 -0.26,0.84 -0.09,0.91 0.09,0.91 0.26,0.84 0.42,0.77 0.55,0.66 0.66,0.55 0.77,0.42 0.84,0.26 0.91,0.09 6,0 0.91,-0.09 0.84,-0.26 0.77,-0.42 0.66,-0.55 0.55,-0.66 0.42,-0.77 0.26,-0.84 0.09,-0.91 -0.09,-0.91 -0.26,-0.84 -0.42,-0.77 -0.55,-0.66 -0.66,-0.55 -0.77,-0.42 -0.84,-0.26 -0.91,-0.09 -6,0 Z M 9,15 l -0.6,-0.06 -0.57,-0.18 -0.51,-0.27 -0.44,-0.37 -0.37,-0.44 -0.27,-0.51 -0.18,-0.57 -0.06,-0.6 0.06,-0.6 0.18,-0.57 0.27,-0.51 0.37,-0.44 0.44,-0.37 0.51,-0.27 0.57,-0.18 0.6,-0.06 0.6,0.06 0.57,0.18 0.51,0.27 0.44,0.37 0.37,0.44 0.27,0.51 0.18,0.57 0.06,0.6 -0.06,0.6 -0.18,0.57 -0.27,0.51 -0.37,0.44 -0.44,0.37 -0.51,0.27 -0.57,0.18 -0.6,0.06 Z" fill-rule="evenodd" fill="#000000" />
</svg>