<svg xmlns="http://www.w3.org/2000/svg" viewBox="0 0 24 24">
  <path id="touch" d="M 10.5,6 l 0.58,0.12 0.48,0.32 0.32,0.48 0.12,0.58 0,6.5 0.29,-1.15 0.15,-0.33 0.25,-0.25 0.32,-0.15 0.36,-0.02 2.44,0.27 0.53,0.13 0.46,0.26 0.38,0.38 0.27,0.47 0.19,0.5 0.27,0.91 0.09,0.94 0,1.97 -0.06,0.49 -0.18,0.45 -0.28,0.4 -0.37,0.32 -2.11,1.41 -6,0 -0.69,-0.31 -0.62,-0.42 -0.52,-0.53 -0.42,-0.63 -2.5,-4.65 -0.02,-0.36 0.28,-0.23 0.69,-0.07 0.66,0.12 0.61,0.3 0.51,0.46 1.16,1.39 0.31,0.46 0.23,0.51 0.32,0.96 0,-10.5 0.12,-0.58 0.32,-0.48 0.48,-0.32 0.58,-0.12 Z M 9,4.9 l -0.62,0.48 -0.48,0.62 -0.3,0.72 -0.1,0.78 0.05,0.57 0.03,0.41 -0.07,0.4 -0.18,0.36 -0.29,0.26 -0.38,0.05 -0.28,-0.25 -0.28,-0.88 -0.1,-0.92 0.15,-1.16 0.45,-1.09 0.72,-0.93 0.93,-0.72 1.09,-0.45 1.16,-0.15 1.16,0.15 1.09,0.45 0.93,0.72 0.72,0.93 0.45,1.09 0.15,1.16 -0.1,0.92 -0.28,0.88 -0.28,0.25 -0.38,-0.05 -0.29,-0.26 -0.18,-0.36 -0.07,-0.4 0.03,-0.41 0.05,-0.57 -0.1,-0.78 -0.3,-0.72 -0.48,-0.62 -0.62,-0.48 -0.72,-0.3 -0.78,-0.1 -0.78,0.1 -0.72,0.3 Z" fill-rule="evenodd" fill="#000000" />
</svg>