<svg xmlns="http://www.w3.org/2000/svg" viewBox="0 0 24 24">
  <path id="tow" d="M 5.8,1.24 l 16.2,4.76 0,13 -1.26,0 -0.28,0.63 -0.36,0.58 -0.45,0.51 -0.52,0.44 -0.59,0.35 -0.64,0.27 -0.68,0.16 -0.72,0.06 -0.72,-0.06 -0.68,-0.16 -0.64,-0.27 -0.59,-0.35 -0.52,-0.44 -0.45,-0.51 -0.36,-0.58 -0.28,-0.63 -1.26,0 0,-3 1.26,0 0.5,-1 -2.76,0 0,-4 9,0 -14.14,-7.54 -0.3,-0.25 -0.18,-0.33 -0.05,-0.37 0.11,-0.38 0.19,-0.38 0.21,-0.28 0.28,-0.19 0.33,-0.08 0.35,0.04 Z M 7.39,13.43 l -0.19,-0.33 -2.2,-1.1 -1,-2 1,-1.5 0.5,0 -0.5,-3.5 2,1 -0.5,2.5 0.5,0 1,1.5 -0.5,1 0.5,0.76 0,0 0.45,0.5 0.32,0.59 0.22,0.86 -0.05,0.88 -0.29,0.82 -0.53,0.71 -0.71,0.53 -0.82,0.29 -0.88,0.05 -0.86,-0.22 -0.75,-0.45 -0.59,-0.65 -0.34,-0.67 -0.17,-1 1.5,0 0.06,0.44 0.19,0.39 0.3,0.33 0.38,0.23 0.42,0.1 0.44,-0.02 0.42,-0.15 0.35,-0.26 0.26,-0.35 0.15,-0.42 0.02,-0.44 -0.1,-0.42 Z M 16.5,15 l -0.5,0.05 -0.47,0.15 -0.8,0.53 -0.53,0.8 -0.15,0.47 -0.05,0.5 0.05,0.5 0.15,0.47 0.53,0.8 0.8,0.53 0.47,0.15 0.5,0.05 0.5,-0.05 0.47,-0.15 0.8,-0.53 0.53,-0.8 0.15,-0.47 0.05,-0.5 -0.05,-0.5 -0.15,-0.47 -0.53,-0.8 -0.8,-0.53 -0.47,-0.15 -0.5,-0.05 Z" fill-rule="evenodd" fill="#000000" />
</svg>