<svg xmlns="http://www.w3.org/2000/svg" viewBox="0 0 48 48">
  <path id="trafficOutline" d="M 27,21 l 0.16,-0.78 0.43,-0.63 0.63,-0.43 0.78,-0.16 10,0 0.78,0.16 0.63,0.43 0.43,0.63 0.16,0.78 0,20 -0.16,0.78 -0.43,0.63 -0.63,0.43 -0.78,0.16 -10,0 -0.78,-0.16 -0.63,-0.43 -0.43,-0.63 -0.16,-0.78 0,-20 Z M 39,21 l -10,0 0,20 10,0 0,-20 Z M 19,11 l 0,7 -0.16,0.78 -0.43,0.63 -0.63,0.43 -0.78,0.16 -4,0 -0.78,-0.16 -0.63,-0.43 -0.43,-0.63 -0.16,-0.78 0,-7 0.32,-3.2 0.21,-0.71 0.44,-0.57 0.61,-0.38 0.73,-0.14 3.38,0 0.73,0.14 0.61,0.38 0.44,0.57 0.21,0.71 0.32,3.2 Z M 9.32,27.8 l 0.21,-0.71 0.44,-0.57 0.61,-0.38 0.73,-0.14 3.38,0 0.73,0.14 0.61,0.38 0.44,0.57 0.21,0.71 0.32,3.2 0,7 -0.16,0.78 -0.43,0.63 -0.63,0.43 -0.78,0.16 -4,0 -0.78,-0.16 -0.63,-0.43 -0.43,-0.63 -0.16,-0.78 0,-7 0.32,-3.2 Z M 29.52,11.88 l 0.11,-0.35 0.22,-0.28 0.3,-0.18 0.36,-0.07 6.98,0 0.36,0.07 0.3,0.18 0.22,0.28 0.11,0.35 0.52,4.12 0,1 -0.08,0.39 -0.21,0.32 -0.32,0.21 -0.39,0.08 -8,0 -0.39,-0.08 -0.32,-0.21 -0.21,-0.32 -0.08,-0.39 0,-1 0.52,-4.12 Z M 16.69,8 l -3.38,0 -0.31,3.1 0,6.9 4,0 0,-6.9 -0.31,-3.1 Z M 22,34 l 0,-6.67 2,0 0,6.67 -2,0 Z M 22,20.67 l 0,-6.67 2,0 0,6.67 -2,0 Z M 22,7.33 l 0,-3.33 2,0 0,3.33 -2,0 Z M 22,44 l 0,-3.33 2,0 0,3.33 -2,0 Z" fill-rule="evenodd" fill="#000000" />
</svg>