<svg xmlns="http://www.w3.org/2000/svg" viewBox="0 0 24 24">
  <path id="trafficLight" d="M 8.93,3.38 l 0.09,-0.01 2.98,-0.18 2.98,0.18 0.09,0.01 0.36,0.12 0.29,0.24 0.17,0.32 0.06,0.37 -0.03,0.39 2.08,0.18 0,0.26 -0.08,0.56 -0.22,0.5 -0.35,0.42 -0.46,0.31 -1.13,0.57 -0.13,2.18 2.37,0.2 0,0.26 -0.08,0.56 -0.22,0.5 -0.35,0.42 -0.46,0.31 -1.44,0.72 -0.11,2 2.66,0.23 0,0.26 -0.08,0.56 -0.22,0.5 -0.35,0.42 -0.46,0.31 -1.74,0.88 -0.09,1.63 -0.1,0.37 -0.22,0.3 -0.31,0.2 -0.37,0.07 -1.06,0 0,1.5 -2,0 0,-1.5 -1.06,0 -0.37,-0.07 -0.31,-0.2 -0.22,-0.3 -0.1,-0.37 -0.09,-1.63 -1.74,-0.88 -0.46,-0.31 -0.35,-0.42 -0.22,-0.5 -0.08,-0.56 0,-0.26 2.66,-0.23 -0.11,-2 -1.44,-0.72 -0.46,-0.31 -0.35,-0.42 -0.22,-0.5 -0.08,-0.56 0,-0.26 2.37,-0.2 -0.13,-2.18 -1.13,-0.57 -0.46,-0.31 -0.35,-0.42 -0.22,-0.5 -0.08,-0.56 0,-0.26 2.08,-0.18 -0.03,-0.39 0.06,-0.37 0.17,-0.32 0.29,-0.24 0.36,-0.12 Z M 14,12 l -0.16,-0.78 -0.43,-0.63 -0.63,-0.43 -0.78,-0.16 -0.78,0.16 -0.63,0.43 -0.43,0.63 -0.16,0.78 0.16,0.78 0.43,0.63 0.63,0.43 0.78,0.16 0.78,-0.16 0.63,-0.43 0.43,-0.63 0.16,-0.78 Z M 12,9 l 0.78,-0.16 0.63,-0.43 0.43,-0.63 0.16,-0.78 -0.16,-0.78 -0.43,-0.63 -0.63,-0.43 -0.78,-0.16 -0.78,0.16 -0.63,0.43 -0.43,0.63 -0.16,0.78 0.16,0.78 0.43,0.63 0.63,0.43 0.78,0.16 Z M 12,19 l 0.78,-0.16 0.63,-0.43 0.43,-0.63 0.16,-0.78 -0.16,-0.78 -0.43,-0.63 -0.63,-0.43 -0.78,-0.16 -0.78,0.16 -0.63,0.43 -0.43,0.63 -0.16,0.78 0.16,0.78 0.43,0.63 0.63,0.43 0.78,0.16 Z" fill-rule="evenodd" fill="#000000" />
</svg>