<svg xmlns="http://www.w3.org/2000/svg" viewBox="0 0 24 24">
  <path id="trafficCone" d="M 21.5,20 l 0.35,0.15 0.15,0.35 0,1.5 -20,0 0,-1.5 0.15,-0.35 0.35,-0.15 1.14,0 0.29,-0.09 0.18,-0.25 0.66,-1.98 0.15,-0.28 0.22,-0.21 0.27,-0.14 0.31,-0.05 12.56,0 0.31,0.05 0.27,0.14 0.22,0.21 0.15,0.28 0.66,1.98 0.18,0.25 0.29,0.09 1.14,0 Z M 17.78,13.34 l 0.02,0.24 -0.09,0.21 -0.17,0.15 -0.23,0.06 -10.62,0 -0.23,-0.06 -0.17,-0.15 -0.09,-0.21 0.02,-0.24 0.89,-2.66 0.14,-0.28 0.22,-0.21 0.27,-0.14 0.31,-0.05 7.9,0 0.31,0.05 0.27,0.14 0.22,0.21 0.14,0.28 0.89,2.66 Z M 15.45,6.34 l 0.02,0.24 -0.09,0.21 -0.17,0.15 -0.24,0.06 -5.94,0 -0.24,-0.06 -0.17,-0.15 -0.09,-0.21 0.02,-0.24 1.22,-3.66 0.15,-0.28 0.22,-0.21 0.27,-0.14 0.31,-0.05 2.56,0 0.31,0.05 0.27,0.14 0.22,0.21 0.15,0.28 1.22,3.66 Z" fill-rule="evenodd" fill="#000000" />
</svg>