<svg xmlns="http://www.w3.org/2000/svg" viewBox="0 0 24 24">
  <path id="transmissionA" d="M 3.27,7.33 l 0.02,-0.85 0.2,-0.81 0.34,-0.73 0.49,-0.65 0.6,-0.53 0.7,-0.41 0.79,-0.26 0.85,-0.09 2.74,0 0,2 -2.74,0 -0.82,0.17 -0.65,0.48 -0.42,0.69 -0.1,0.83 0.57,6.91 0.1,0.36 0.22,0.3 0.31,0.19 0.37,0.07 0.56,0 -0.07,-0.7 0,-0.65 0.14,-0.61 0.26,-0.56 0.36,-0.49 0.45,-0.41 0.53,-0.31 0.6,-0.2 0.65,-0.07 4.37,0 0.64,0.07 0.6,0.2 0.53,0.31 0.45,0.41 0.36,0.49 0.26,0.56 0.14,0.61 0,0.65 -0.4,4 -0.11,0.55 -0.2,0.52 -0.3,0.46 -0.36,0.39 -0.43,0.33 -0.49,0.24 -0.53,0.16 -0.56,0.05 -3.57,0 -0.57,-0.05 -0.53,-0.16 -0.49,-0.24 -0.43,-0.33 -0.36,-0.39 -0.3,-0.46 -0.2,-0.52 -0.11,-0.55 -0.13,-1.3 -0.76,0 -0.57,-0.05 -0.54,-0.16 -0.49,-0.25 -0.43,-0.33 -0.37,-0.41 -0.29,-0.47 -0.2,-0.52 -0.1,-0.56 -0.58,-6.92 Z M 10,19 l 2.5,0 0.56,-0.07 0.54,-0.2 0.51,-0.31 0.45,-0.42 0.39,-0.51 0.29,-0.6 0.19,-0.67 0.07,-0.72 -0.07,-0.7 -0.19,-0.61 -0.29,-0.52 -0.39,-0.42 -0.45,-0.33 -0.51,-0.23 -1.1,-0.19 -2.5,0 0,6.5 Z M 13,3 l 2.5,0 0.35,0.15 0.15,0.35 -0.08,0.39 -0.21,0.32 -0.32,0.21 -0.39,0.08 -1,0 0,2.5 1.5,0 0.35,0.15 0.15,0.35 -0.08,0.39 -0.21,0.32 -0.32,0.21 -0.39,0.08 -1,0 0,1 -2,0 0,-5.5 0.08,-0.39 0.21,-0.32 0.32,-0.21 0.39,-0.08 Z M 11.5,17.5 l 0,-3.5 1,0 0.6,0.1 0.47,0.27 0.3,0.42 0.09,0.31 0.04,0.4 -0.04,0.47 -0.12,0.4 -0.39,0.63 -0.49,0.37 -0.46,0.13 -1,0 Z M 18,3 l 0.39,0.08 0.32,0.21 0.21,0.32 0.08,0.39 -0.08,0.39 -0.21,0.32 -0.32,0.21 -0.39,0.08 -0.39,-0.08 -0.32,-0.21 -0.21,-0.32 -0.08,-0.39 0.08,-0.39 0.21,-0.32 0.32,-0.21 0.39,-0.08 Z M 17,8 l 0.08,-0.39 0.21,-0.32 0.32,-0.21 0.39,-0.08 0.39,0.08 0.32,0.21 0.21,0.32 0.08,0.39 -0.08,0.39 -0.21,0.32 -0.32,0.21 -0.39,0.08 -0.39,-0.08 -0.32,-0.21 -0.21,-0.32 -0.08,-0.39 Z" fill-rule="evenodd" fill="#000000" />
</svg>