<svg xmlns="http://www.w3.org/2000/svg" viewBox="0 0 24 24">
  <path id="transform" d="M 5,10 l 2,0 0,6.5 0.5,0.5 6.5,0 0,2 -6.05,0 -0.31,0.79 -0.55,0.64 -0.73,0.42 -0.86,0.15 -0.5,-0.05 -0.47,-0.15 -0.8,-0.53 -0.53,-0.8 -0.15,-0.47 -0.05,-0.5 0.15,-0.86 0.42,-0.73 0.64,-0.55 0.79,-0.31 0,-6.05 Z M 16.5,7 l -6.5,0 0,-2 6.05,0 0.31,-0.79 0.55,-0.64 0.73,-0.42 0.86,-0.15 0.5,0.05 0.47,0.15 0.8,0.53 0.53,0.8 0.15,0.47 0.05,0.5 -0.15,0.86 -0.42,0.73 -0.64,0.55 -0.79,0.31 0,6.05 -2,0 0,-6.5 -0.5,-0.5 Z M 3,5.5 l 0.05,-0.5 0.15,-0.47 0.53,-0.8 0.8,-0.53 0.47,-0.15 0.5,-0.05 0.5,0.05 0.47,0.15 0.8,0.53 0.53,0.8 0.15,0.47 0.05,0.5 -0.05,0.5 -0.15,0.47 -0.53,0.8 -0.8,0.53 -0.47,0.15 -0.5,0.05 -0.5,-0.05 -0.47,-0.15 -0.8,-0.53 -0.53,-0.8 -0.15,-0.47 -0.05,-0.5 Z M 18.5,16 l 0.5,0.05 0.47,0.15 0.8,0.53 0.53,0.8 0.15,0.47 0.05,0.5 -0.05,0.5 -0.15,0.47 -0.53,0.8 -0.8,0.53 -0.47,0.15 -0.5,0.05 -0.5,-0.05 -0.47,-0.15 -0.8,-0.53 -0.53,-0.8 -0.15,-0.47 -0.05,-0.5 0.05,-0.5 0.15,-0.47 0.53,-0.8 0.8,-0.53 0.47,-0.15 0.5,-0.05 Z M 12,10 l 0.78,0.16 0.63,0.43 0.43,0.63 0.16,0.78 -0.16,0.78 -0.43,0.63 -0.63,0.43 -0.78,0.16 -0.78,-0.16 -0.63,-0.43 -0.43,-0.63 -0.16,-0.78 0.16,-0.78 0.43,-0.63 0.63,-0.43 0.78,-0.16 Z" fill-rule="evenodd" fill="#000000" />
</svg>