<svg xmlns="http://www.w3.org/2000/svg" viewBox="0 0 24 24">
  <path id="transmissionM" d="M 5,3 l 2,0 0.78,0.16 0.63,0.43 0.43,0.63 0.16,0.78 0,2 -0.16,0.78 -0.43,0.63 -0.63,0.43 -0.78,0.16 0,2 4,0 0,-3.27 -0.41,-0.31 -0.31,-0.41 -0.21,-0.48 -0.07,-0.53 0.16,-0.78 0.43,-0.63 0.63,-0.43 0.78,-0.16 0.78,0.16 0.63,0.43 0.43,0.63 0.16,0.78 -0.07,0.53 -0.21,0.48 -0.31,0.41 -0.41,0.31 0,3.27 4,0 0,-3.27 -0.41,-0.31 -0.31,-0.41 -0.21,-0.48 -0.07,-0.53 0.16,-0.78 0.43,-0.63 0.63,-0.43 0.78,-0.16 0.78,0.16 0.63,0.43 0.43,0.63 0.16,0.78 -0.07,0.53 -0.21,0.48 -0.31,0.41 -0.41,0.31 0,5.27 -6,0 0,3.27 0.41,0.31 0.31,0.41 0.21,0.48 0.07,0.53 -0.16,0.78 -0.43,0.63 -0.63,0.43 -0.78,0.16 -0.78,-0.16 -0.63,-0.43 -0.43,-0.63 -0.16,-0.78 0.07,-0.53 0.21,-0.48 0.31,-0.41 0.41,-0.31 0,-3.27 -4,0 0,3.27 0.41,0.31 0.31,0.41 0.21,0.48 0.07,0.53 -0.16,0.78 -0.43,0.63 -0.63,0.43 -0.78,0.16 -0.78,-0.16 -0.63,-0.43 -0.43,-0.63 -0.16,-0.78 0.07,-0.53 0.21,-0.48 0.31,-0.41 0.41,-0.31 0,-7.27 -0.78,-0.16 -0.63,-0.43 -0.43,-0.63 -0.16,-0.78 0,-2 0.16,-0.78 0.43,-0.63 0.63,-0.43 0.78,-0.16 Z M 20,18 l -0.16,0.78 -0.43,0.63 -0.63,0.43 -0.78,0.16 -0.78,-0.16 -0.63,-0.43 -0.43,-0.63 -0.16,-0.78 0.07,-0.53 0.21,-0.48 0.31,-0.41 0.41,-0.31 0,-1.77 2,0 0,1.77 0.41,0.31 0.31,0.41 0.21,0.48 0.07,0.53 Z" fill-rule="evenodd" fill="#000000" />
</svg>