<svg xmlns="http://www.w3.org/2000/svg" viewBox="0 0 24 24">
  <path id="transmissionCvt" d="M 18.5,2 l 0.71,0.07 0.65,0.21 0.6,0.32 0.51,0.43 0.43,0.51 0.32,0.6 0.21,0.65 0.07,0.71 -0.05,0.62 -0.16,0.58 -0.25,0.54 -0.34,0.49 -4.31,6.33 -0.21,0.14 -0.25,-0.05 -0.23,-0.16 -0.25,-0.25 -0.13,-0.32 0.01,-0.34 0.13,-0.32 -0.86,-0.63 0.59,-0.81 0.83,0.61 0.65,-0.95 -0.76,-0.56 0.3,-0.4 0.29,-0.41 0.74,0.54 0.51,-0.76 0.02,-0.26 -0.22,-0.16 -1,-0.27 -0.93,-0.58 -0.4,-0.41 -0.32,-0.49 -0.24,-0.59 -0.14,-0.68 -0.15,-0.22 -0.26,0.01 -0.8,0.55 0.48,0.73 -0.84,0.55 -0.47,-0.72 -0.95,0.65 0.44,0.67 -0.42,0.27 -0.42,0.28 -0.43,-0.66 -0.9,0.62 -0.1,0.27 0.21,0.22 0.95,0.31 0.88,0.47 0.78,0.6 0.67,0.71 0.55,0.82 0.41,0.9 0.26,0.98 0.09,1.04 -0.12,1.21 -0.35,1.13 -0.55,1.01 -0.74,0.89 -0.89,0.74 -1.01,0.55 -1.13,0.35 -1.21,0.12 -1.21,-0.12 -1.13,-0.35 -1.01,-0.55 -0.89,-0.74 -0.74,-0.89 -0.55,-1.01 -0.35,-1.13 -0.12,-1.21 0.05,-0.81 0.16,-0.77 0.25,-0.74 0.35,-0.69 0.92,-1.21 1.2,-0.93 10.41,-7.1 0.39,-0.27 0.02,-0.01 0,0 0.83,-0.35 0.92,-0.12 Z M 9,11 l -0.81,0.08 -0.75,0.23 -0.68,0.37 -0.59,0.49 -0.49,0.59 -0.37,0.68 -0.23,0.75 -0.08,0.81 0.08,0.81 0.23,0.75 0.37,0.68 0.49,0.59 0.59,0.49 0.68,0.37 0.75,0.23 0.81,0.08 0.81,-0.08 0.75,-0.23 0.68,-0.37 0.59,-0.49 0.49,-0.59 0.37,-0.68 0.23,-0.75 0.08,-0.81 -0.08,-0.81 -0.23,-0.75 -0.37,-0.68 -0.49,-0.59 -0.59,-0.49 -0.68,-0.37 -0.75,-0.23 -0.81,-0.08 Z M 9,13 l 0.78,0.16 0.63,0.43 0.43,0.63 0.16,0.78 -0.16,0.78 -0.43,0.63 -0.63,0.43 -0.78,0.16 -0.78,-0.16 -0.63,-0.43 -0.43,-0.63 -0.16,-0.78 0.16,-0.78 0.43,-0.63 0.63,-0.43 0.78,-0.16 Z M 18.5,4 l -0.58,0.12 -0.48,0.32 -0.32,0.48 -0.12,0.58 0.12,0.58 0.32,0.48 0.48,0.32 0.58,0.12 0.58,-0.12 0.48,-0.32 0.32,-0.48 0.12,-0.58 -0.12,-0.58 -0.32,-0.48 -0.48,-0.32 -0.58,-0.12 Z" fill-rule="evenodd" fill="#000000" />
</svg>