<svg xmlns="http://www.w3.org/2000/svg" viewBox="0 0 24 24">
  <path id="trashBin1" d="M 19,8 l -1.4,12.11 -0.11,0.36 -0.22,0.28 -0.3,0.18 -0.36,0.07 -9.22,0 -0.36,-0.07 -0.3,-0.18 -0.22,-0.28 -0.11,-0.36 -1.4,-12.11 14,0 Z M 10.28,2 l 3.44,0 0.33,0.06 0.28,0.15 0.23,0.24 0.13,0.31 0.31,1.24 5.5,0 0.35,0.15 0.15,0.35 0,1.5 -18,0 0,-1.5 0.15,-0.35 0.35,-0.15 5.5,0 0.31,-1.24 0.13,-0.31 0.23,-0.24 0.28,-0.15 0.33,-0.06 Z M 11.5,10 l -0.35,0.15 -0.15,0.35 0,8 0.15,0.35 0.35,0.15 1,0 0.35,-0.15 0.15,-0.35 0,-8 -0.15,-0.35 -0.35,-0.15 -1,0 Z M 7.06,10.56 l 0.89,8 0.16,0.31 0.34,0.13 0.52,0 0.36,-0.16 0.14,-0.37 -0.44,-8 -0.16,-0.33 -0.34,-0.14 -0.97,0 -0.37,0.17 -0.13,0.39 Z M 15.47,10 l -0.34,0.14 -0.16,0.33 -0.44,8 0.14,0.37 0.36,0.16 0.52,0 0.34,-0.13 0.16,-0.31 0.89,-8 -0.13,-0.39 -0.37,-0.17 -0.97,0 Z" fill-rule="evenodd" fill="#000000" />
</svg>