<svg xmlns="http://www.w3.org/2000/svg" viewBox="0 0 24 24">
  <path id="triangleBeam" d="M 7.2,14.04 l -0.45,0.4 -0.53,0.3 -0.59,0.19 -0.63,0.07 -0.6,-0.06 -0.57,-0.18 -0.51,-0.27 -0.44,-0.37 -0.37,-0.44 -0.27,-0.51 -0.18,-0.57 -0.06,-0.6 0.06,-0.6 0.18,-0.57 0.27,-0.51 0.37,-0.44 0.44,-0.37 0.51,-0.27 0.57,-0.18 0.6,-0.06 0.63,0.07 0.59,0.19 0.53,0.3 0.45,0.4 0.28,-0.25 11,-6.77 0.52,-0.15 0.49,0.13 0.37,0.35 0.14,0.52 0,16.42 -0.14,0.52 -0.37,0.35 -0.49,0.13 -0.52,-0.15 -11,-6.77 -0.28,-0.25 Z M 6.5,12 l -0.12,-0.58 -0.32,-0.48 -0.48,-0.32 -0.58,-0.12 -0.58,0.12 -0.48,0.32 -0.32,0.48 -0.12,0.58 0.12,0.58 0.32,0.48 0.48,0.32 0.58,0.12 0.58,-0.12 0.48,-0.32 0.32,-0.48 0.12,-0.58 Z" fill-rule="evenodd" fill="#000000" />
</svg>