<svg xmlns="http://www.w3.org/2000/svg" viewBox="0 0 24 24">
  <path id="trim" d="M 11,4.75 l 0.06,-0.29 0.16,-0.24 0.24,-0.16 0.29,-0.06 0.5,0 0.29,0.06 0.24,0.16 0.16,0.24 0.06,0.29 0,14.5 -0.06,0.29 -0.16,0.24 -0.24,0.16 -0.29,0.06 -0.5,0 -0.29,-0.06 -0.24,-0.16 -0.16,-0.24 -0.06,-0.29 0,-1.25 -9,0 0,-2 9,0 0,-8 -9,0 0,-2 9,0 0,-1.25 Z M 20.5,18 l -0.39,-0.08 -0.32,-0.21 -0.21,-0.32 -0.08,-0.39 0.08,-0.39 0.21,-0.32 0.32,-0.21 0.39,-0.08 0.5,0 0.39,0.08 0.32,0.21 0.21,0.32 0.08,0.39 -0.08,0.39 -0.21,0.32 -0.32,0.21 -0.39,0.08 -0.5,0 Z M 16,18 l -0.39,-0.08 -0.32,-0.21 -0.21,-0.32 -0.08,-0.39 0.08,-0.39 0.21,-0.32 0.32,-0.21 0.39,-0.08 0.5,0 0.39,0.08 0.32,0.21 0.21,0.32 0.08,0.39 -0.08,0.39 -0.21,0.32 -0.32,0.21 -0.39,0.08 -0.5,0 Z M 16,8 l -0.39,-0.08 -0.32,-0.21 -0.21,-0.32 -0.08,-0.39 0.08,-0.39 0.21,-0.32 0.32,-0.21 0.39,-0.08 0.5,0 0.39,0.08 0.32,0.21 0.21,0.32 0.08,0.39 -0.08,0.39 -0.21,0.32 -0.32,0.21 -0.39,0.08 -0.5,0 Z M 20,8 l -0.39,-0.08 -0.32,-0.21 -0.21,-0.32 -0.08,-0.39 0.08,-0.39 0.21,-0.32 0.32,-0.21 0.39,-0.08 0.5,0 0.39,0.08 0.32,0.21 0.21,0.32 0.08,0.39 -0.08,0.39 -0.21,0.32 -0.32,0.21 -0.39,0.08 -0.5,0 Z" fill-rule="evenodd" fill="#000000" />
</svg>