<svg xmlns="http://www.w3.org/2000/svg" viewBox="0 0 48 48">
  <path id="tripleCaution" d="M 22,29 l -0.96,-11.84 0,-9.16 5.96,0 0,9.16 -1,11.84 -4,0 Z M 8,18.68 l 0,-9.16 5.96,0 0,9.16 -1.08,10.82 -3.8,0 -1.08,-10.82 Z M 35.12,29.5 l -1.08,-10.82 0,-9.16 5.96,0 0,9.16 -1.08,10.82 -3.8,0 Z M 23.93,40.5 l -0.92,-0.08 -0.84,-0.25 -0.75,-0.41 -0.67,-0.57 -0.55,-0.69 -0.39,-0.76 -0.23,-0.82 -0.08,-0.9 0.08,-0.92 0.23,-0.84 0.39,-0.77 0.55,-0.68 0.67,-0.57 0.75,-0.41 0.84,-0.25 0.92,-0.08 0.94,0.08 0.85,0.25 0.77,0.41 0.69,0.57 0.58,0.68 0.41,0.77 0.25,0.84 0.08,0.92 -0.08,0.9 -0.25,0.82 -0.41,0.76 -0.58,0.69 -0.69,0.57 -0.77,0.41 -0.85,0.25 -0.94,0.08 Z M 8.3,37.42 l -0.46,-0.58 -0.34,-0.63 -0.19,-0.7 -0.07,-0.75 0.07,-0.78 0.19,-0.7 0.34,-0.65 0.46,-0.57 0.57,-0.48 0.63,-0.34 0.72,-0.21 0.78,-0.07 0.8,0.07 0.72,0.21 0.66,0.34 0.58,0.48 0.49,0.57 0.35,0.65 0.21,0.7 0.07,0.78 -0.07,0.75 -0.21,0.7 -0.35,0.63 -0.49,0.58 -0.58,0.48 -0.66,0.35 -0.72,0.2 -0.8,0.07 -0.78,-0.07 -0.72,-0.2 -0.63,-0.35 -0.57,-0.48 Z M 37,38.52 l -0.78,-0.07 -0.71,-0.2 -0.64,-0.35 -0.57,-0.48 -0.46,-0.58 -0.34,-0.63 -0.19,-0.7 -0.07,-0.75 0.07,-0.78 0.19,-0.7 0.34,-0.65 0.46,-0.57 0.57,-0.48 0.64,-0.34 0.71,-0.21 0.78,-0.07 0.8,0.07 0.72,0.21 0.66,0.34 0.58,0.48 0.49,0.57 0.35,0.65 0.21,0.7 0.07,0.78 -0.07,0.75 -0.21,0.7 -0.35,0.63 -0.49,0.58 -0.58,0.48 -0.66,0.35 -0.72,0.2 -0.8,0.07 Z" fill-rule="evenodd" fill="#000000" />
</svg>