<svg xmlns="http://www.w3.org/2000/svg" viewBox="0 0 24 24">
  <path id="tulipBeam" d="M 4.79,9.01 l 0.25,-0.32 0.75,-0.85 0.83,-0.77 0.88,-0.69 0.95,-0.6 0.99,-0.51 1.05,-0.41 1.08,-0.32 1.11,-0.21 0.11,-0.01 1.1,-0.11 1.1,0.01 1.1,0.11 1.08,0.21 0.6,0.15 0.51,0.22 0.42,0.35 0.29,0.46 0.15,0.54 -0.02,1.03 -0.27,0.95 0.34,0.1 0.98,0.44 0.81,0.68 0.59,0.88 0.33,1.03 0.05,0.63 -0.05,0.63 -0.33,1.03 -0.59,0.88 -0.81,0.68 -0.98,0.44 -0.54,0.16 0.26,0.81 0.09,0.87 -0.11,0.63 -0.3,0.55 -0.46,0.43 -0.59,0.25 -0.49,0.13 -1.02,0.2 -1.04,0.1 -1.04,0.01 -1.05,-0.1 -0.22,-0.03 -1.11,-0.21 -1.08,-0.32 -1.05,-0.41 -0.99,-0.51 -0.95,-0.6 -0.88,-0.69 -0.83,-0.77 -0.75,-0.85 -0.25,-0.32 -0.56,-0.09 -0.53,-0.2 -0.48,-0.28 -0.41,-0.37 -0.34,-0.43 -0.25,-0.5 -0.16,-0.54 -0.06,-0.58 0.06,-0.58 0.16,-0.54 0.25,-0.5 0.34,-0.43 0.41,-0.37 0.48,-0.28 0.53,-0.2 0.56,-0.09 Z M 6.5,12 l -0.12,-0.58 -0.32,-0.48 -0.48,-0.32 -0.58,-0.12 -0.58,0.12 -0.48,0.32 -0.32,0.48 -0.12,0.58 0.12,0.58 0.32,0.48 0.48,0.32 0.58,0.12 0.58,-0.12 0.48,-0.32 0.32,-0.48 0.12,-0.58 Z" fill-rule="evenodd" fill="#000000" />
</svg>