<svg xmlns="http://www.w3.org/2000/svg" viewBox="0 0 24 24">
  <path id="tunnel" d="M 4,11 l 0.16,-1.61 0.47,-1.5 0.74,-1.36 0.97,-1.19 1.19,-0.97 1.36,-0.74 1.5,-0.47 1.61,-0.16 1.61,0.16 1.5,0.47 1.36,0.74 1.19,0.97 0.97,1.19 0.74,1.36 0.47,1.5 0.16,1.61 0,9 -3,-4 0,-5 -0.06,-0.6 -0.18,-0.57 -0.27,-0.51 -0.37,-0.44 -0.44,-0.37 -0.51,-0.27 -0.57,-0.18 -0.6,-0.06 -0.6,0.06 -0.57,0.18 -0.51,0.27 -0.44,0.37 -0.37,0.44 -0.27,0.51 -0.18,0.57 -0.06,0.6 0,5 -7,4 0,-9 Z M 17.5,20 l -10.5,0 5,-4 4,0 1.5,4 Z" fill-rule="evenodd" fill="#000000" />
</svg>