<svg xmlns="http://www.w3.org/2000/svg" viewBox="0 0 24 24">
  <path id="turbineCoins" d="M 3,11 l 1.07,0 0.37,-0.08 0.29,-0.22 0.2,-0.32 0.07,-0.38 0.02,-0.5 0.22,-1.32 0.46,-1.23 0.66,-1.1 0.86,-0.96 1.01,-0.79 1.16,-0.6 1.26,-0.37 1.35,-0.13 9.25,0 0.29,0.06 0.24,0.16 0.16,0.24 0.06,0.29 -0.06,0.29 -0.16,0.24 -0.24,0.16 -0.29,0.06 -9.25,0 -1.11,0.11 -1.03,0.33 -0.94,0.51 -0.81,0.68 -0.67,0.81 -0.51,0.94 -0.32,1.02 -0.11,1.1 0.11,1.1 0.33,1.03 0.51,0.93 0.68,0.82 0.81,0.67 0.94,0.51 1.02,0.33 1.1,0.11 1.12,-0.12 0.08,0.05 -0.01,0.2 0,0.38 -0.4,0.17 -0.64,0.32 -0.57,0.42 -0.09,0.08 -8.49,0 -0.39,-0.08 -0.32,-0.21 -0.21,-0.32 -0.08,-0.39 0,-4 0.08,-0.39 0.21,-0.32 0.32,-0.21 0.39,-0.08 Z M 21.17,11.83 l 0,1.23 -0.09,0.37 -0.25,0.34 -0.39,0.31 -0.53,0.27 -0.63,0.23 -0.73,0.16 -1.66,0.15 -1.67,-0.15 -0.72,-0.16 -0.64,-0.23 -0.52,-0.27 -0.39,-0.31 -0.25,-0.34 -0.09,-0.37 0,-1.23 0.09,-0.37 0.25,-0.34 0.39,-0.31 0.52,-0.27 0.64,-0.23 0.72,-0.17 1.67,-0.14 1.66,0.14 0.73,0.17 0.63,0.23 0.53,0.27 0.39,0.31 0.25,0.34 0.09,0.37 Z M 14.46,15.45 l 1.16,0.24 1.27,0.08 1.45,-0.11 1.3,-0.3 1.11,-0.47 0.86,-0.61 0.58,0.28 0.44,0.32 0.27,0.36 0.1,0.39 0,1.22 -0.09,0.37 -0.25,0.35 -0.39,0.31 -0.52,0.27 -0.64,0.22 -0.72,0.17 -1.67,0.15 -1.66,-0.15 -0.73,-0.17 -0.63,-0.22 -0.52,-0.27 -0.4,-0.31 -0.25,-0.35 -0.09,-0.37 0,-1.22 0.02,-0.18 Z M 15.82,8.8 l -1.3,0.22 -1.15,0.37 -0.45,0.22 -0.36,-0.44 -0.56,-0.17 -0.39,0.08 -0.32,0.21 -0.21,0.32 -0.08,0.39 0.16,0.54 0.42,0.37 -0.16,0.43 -0.06,0.49 0,1.23 0.06,0.47 0.15,0.42 -0.02,0.03 -1.01,-0.26 -0.9,-0.49 0.99,-1.48 -2.3,-0.15 -0.24,-0.77 -0.09,-0.83 0.02,-0.42 1.78,0.11 -1.02,-2.07 0.71,-0.74 0.89,-0.54 0.79,1.6 1.28,-1.92 1.01,0.26 0.9,0.49 -0.99,1.48 2.3,0.15 0.15,0.4 Z M 20.56,19.55 l 0,0.15 -0.09,0.37 -0.25,0.35 -0.39,0.31 -0.53,0.27 -0.63,0.23 -0.73,0.16 -1.66,0.15 -1.67,-0.15 -0.72,-0.16 -0.64,-0.23 -0.52,-0.27 -0.39,-0.31 -0.25,-0.35 -0.09,-0.37 0,-1.22 0.14,-0.32 0.27,-0.31 0.38,-0.27 0.48,-0.25 0.23,0.49 0.39,0.45 0.54,0.4 0.66,0.35 0.78,0.29 0.88,0.21 0.95,0.14 1.02,0.04 1.84,-0.15 Z M 17.38,8.76 l -0.18,-1.26 4.05,0 0.29,0.06 0.24,0.16 0.16,0.24 0.06,0.29 -0.06,0.29 -0.16,0.24 -0.24,0.16 -0.29,0.06 -1.32,0 -0.38,0.09 -1.04,-0.22 -1.13,-0.11 Z" fill-rule="evenodd" fill="#000000" />
</svg>