<svg xmlns="http://www.w3.org/2000/svg" viewBox="0 0 24 24">
  <path id="turbine" d="M 2,14 l 0.08,-0.39 0.21,-0.32 0.32,-0.21 0.39,-0.08 1.07,0 0.37,-0.08 0.29,-0.22 0.2,-0.32 0.07,-0.38 0.02,-0.5 0.22,-1.32 0.46,-1.23 0.66,-1.1 0.86,-0.96 1.01,-0.79 1.16,-0.6 1.26,-0.37 1.35,-0.13 9.25,0 0.29,0.06 0.24,0.16 0.16,0.24 0.06,0.29 -0.06,0.29 -0.16,0.24 -0.24,0.16 -0.29,0.06 -9.25,0 -1.11,0.11 -1.03,0.33 -0.94,0.51 -0.81,0.68 -0.67,0.81 -0.51,0.94 -0.32,1.02 -0.11,1.1 0.11,1.1 0.33,1.03 0.51,0.93 0.68,0.82 0.81,0.67 0.94,0.51 1.02,0.33 1.1,0.11 1.1,-0.11 1.03,-0.32 0.93,-0.51 0.82,-0.67 0.67,-0.81 0.51,-0.94 0.33,-1.03 0.11,-1.11 -0.06,-0.79 -0.24,-1.71 4.05,0 0.29,0.06 0.24,0.16 0.16,0.24 0.06,0.29 -0.06,0.29 -0.16,0.24 -0.24,0.16 -0.29,0.06 -1.32,0 -0.37,0.08 -0.29,0.22 -0.2,0.32 -0.07,0.38 -0.02,0.5 -0.22,1.32 -0.46,1.23 -0.66,1.1 -0.86,0.96 -1.01,0.79 -1.16,0.6 -1.26,0.37 -1.35,0.13 -9,0 -0.39,-0.08 -0.32,-0.21 -0.21,-0.32 -0.08,-0.39 0,-4 Z M 12.45,8.02 l 1.01,0.26 0.9,0.49 -0.99,1.48 2.3,0.15 0.24,0.77 0.09,0.83 -0.02,0.42 -1.78,-0.11 1.02,2.07 -0.71,0.74 -0.89,0.54 -0.79,-1.6 -1.28,1.92 -1.01,-0.26 -0.9,-0.49 0.99,-1.48 -2.3,-0.15 -0.24,-0.77 -0.09,-0.83 0.02,-0.42 1.78,0.11 -1.02,-2.07 0.71,-0.74 0.89,-0.54 0.79,1.6 1.28,-1.92 Z M 12,13 l 0.39,-0.08 0.32,-0.21 0.21,-0.32 0.08,-0.39 -0.08,-0.39 -0.21,-0.32 -0.32,-0.21 -0.39,-0.08 -0.39,0.08 -0.32,0.21 -0.21,0.32 -0.08,0.39 0.08,0.39 0.21,0.32 0.32,0.21 0.39,0.08 Z" fill-rule="evenodd" fill="#000000" />
</svg>