<svg xmlns="http://www.w3.org/2000/svg" viewBox="0 0 48 48">
  <path id="turbineL" d="M 40,8 l 0.39,0.08 0.32,0.21 0.21,0.32 0.08,0.39 0,8 -0.08,0.39 -0.21,0.32 -0.32,0.21 -0.39,0.08 -1.5,0 -0.35,-0.15 -0.15,-0.35 -0.15,-0.35 -0.35,-0.15 -3.23,0 0.74,1.62 0.54,1.72 0.34,1.79 0.11,1.87 -0.08,1.53 -0.22,1.49 -0.37,1.44 -0.51,1.38 -0.63,1.31 -0.75,1.24 -0.87,1.15 -0.96,1.07 -1.07,0.96 -1.15,0.87 -1.24,0.75 -1.31,0.63 -1.38,0.51 -1.44,0.37 -1.49,0.22 -1.53,0.08 -1.53,-0.08 -1.49,-0.22 -1.44,-0.37 -1.38,-0.51 -1.31,-0.63 -1.24,-0.75 -1.15,-0.87 -1.07,-0.96 -0.96,-1.07 -0.87,-1.15 -0.75,-1.24 -0.63,-1.31 -0.51,-1.38 -0.37,-1.44 -0.22,-1.49 -0.08,-1.53 0.08,-1.53 0.22,-1.49 0.37,-1.44 0.51,-1.38 0.63,-1.31 0.75,-1.24 0.87,-1.15 0.96,-1.07 1.07,-0.96 1.15,-0.87 1.24,-0.75 1.31,-0.63 1.38,-0.51 1.44,-0.37 1.49,-0.22 1.53,-0.08 0.81,0.02 0.21,-0.02 15.48,0 0.35,-0.15 0.15,-0.35 0.15,-0.35 0.35,-0.15 1.5,0 Z M 29,24 l -0.16,-1.61 -0.47,-1.5 -0.74,-1.36 -0.97,-1.19 -1.19,-0.97 -1.36,-0.74 -1.5,-0.47 -1.61,-0.16 -1.61,0.16 -1.5,0.47 -1.36,0.74 -1.19,0.97 -0.97,1.19 -0.74,1.36 -0.47,1.5 -0.16,1.61 0.16,1.61 0.47,1.5 0.74,1.36 0.97,1.19 1.19,0.97 1.36,0.74 1.5,0.47 1.61,0.16 1.61,-0.16 1.5,-0.47 1.36,-0.74 1.19,-0.97 0.97,-1.19 0.74,-1.36 0.47,-1.5 0.16,-1.61 Z M 15.52,19.65 l 2.58,1.6 0.67,-0.57 1.2,-3.6 1.03,-0.08 1.03,0.08 -0.1,3.03 0.84,0.3 3.71,-0.76 0.58,0.85 0.45,0.93 -2.67,1.43 0.15,0.87 2.52,2.84 -0.45,0.93 -0.58,0.85 -2.58,-1.6 -0.67,0.57 -1.2,3.61 -1.03,0.07 -1.03,-0.07 0.1,-3.04 -0.84,-0.3 -3.71,0.76 -0.58,-0.85 -0.45,-0.93 2.67,-1.43 -0.15,-0.87 -2.52,-2.84 0.45,-0.93 0.58,-0.85 Z M 30.14,37.13 l 0.42,-0.13 7.44,0 0.39,-0.08 0.32,-0.21 0.21,-0.32 0.08,-0.39 0,-2 -0.08,-0.39 -0.21,-0.32 -0.32,-0.21 -0.39,-0.08 -2.03,0 -0.49,-0.14 -0.34,-0.36 -0.13,-0.48 0.12,-0.51 0.35,-0.37 0.49,-0.14 1.53,0 0.35,-0.15 0.15,-0.35 0.15,-0.35 0.35,-0.15 1.5,0 0.39,0.08 0.32,0.21 0.21,0.32 0.08,0.39 0,8 -0.08,0.39 -0.21,0.32 -0.32,0.21 -0.39,0.08 -1.5,0 -0.35,-0.15 -0.15,-0.35 -0.15,-0.35 -0.35,-0.15 -6.89,0 -0.28,-0.06 -0.23,-0.17 -0.28,-0.53 0,-0.62 0.12,-0.27 0.2,-0.22 Z M 21,26 l 0.78,-0.16 0.63,-0.43 0.43,-0.63 0.16,-0.78 -0.16,-0.78 -0.43,-0.63 -0.63,-0.43 -0.78,-0.16 -0.78,0.16 -0.63,0.43 -0.43,0.63 -0.16,0.78 0.16,0.78 0.43,0.63 0.63,0.43 0.78,0.16 Z" fill-rule="evenodd" fill="#000000" />
</svg>