<svg xmlns="http://www.w3.org/2000/svg" viewBox="0 0 48 48">
  <path id="turn2" d="M 37.01,17.98 l -0.01,-0.25 -0.13,-0.23 -7.53,-7.17 -0.23,-0.12 -0.25,0 -0.22,0.13 -0.13,0.24 -0.61,2.5 -1.56,-0.35 -1.22,-0.22 -1.23,-0.1 -1.22,0.02 -1.22,0.14 -1.19,0.25 -1.17,0.36 -1.14,0.48 -1.09,0.59 -1.63,1.13 -1.45,1.32 -1.26,1.48 -1.05,1.62 -0.85,1.74 -0.61,1.84 -0.38,1.92 -0.13,1.98 0,17.72 5,0 0,-17.72 0.09,-1.33 0.25,-1.29 0.42,-1.23 0.56,-1.17 0.71,-1.09 0.85,-0.99 0.97,-0.89 1.09,-0.76 1.36,-0.65 1.45,-0.37 1.49,-0.1 1.49,0.19 1.5,0.34 -0.67,2.74 0.01,0.26 0.14,0.22 0.22,0.12 0.26,-0.01 9.97,-2.93 0.23,-0.14 Z" fill-rule="evenodd" fill="#000000" />
</svg>