<svg xmlns="http://www.w3.org/2000/svg" viewBox="0 0 48 48">
  <path id="turn1" d="M 34,25.4 l -1.71,-10.25 -0.11,-0.24 -0.21,-0.14 -0.25,-0.03 -0.24,0.11 -2.05,1.68 -0.74,-0.81 -0.81,-0.73 -0.86,-0.63 -0.91,-0.53 -0.96,-0.44 -0.98,-0.35 -2.04,-0.4 -2.07,-0.01 -1.04,0.15 -1.02,0.24 -1,0.35 -0.97,0.45 -0.94,0.55 -0.89,0.66 -1.06,0.96 -0.93,1.07 -0.8,1.15 -0.68,1.24 -0.53,1.29 -0.38,1.36 -0.24,1.39 -0.08,1.43 0,17.16 5,0 0,-17.16 0.19,-1.72 0.56,-1.61 0.9,-1.45 1.21,-1.24 0.98,-0.65 1.07,-0.43 1.11,-0.21 1.12,0 1.09,0.22 1.05,0.42 0.95,0.63 0.84,0.83 -2.12,1.74 -0.15,0.22 -0.02,0.25 0.1,0.23 0.22,0.16 9.73,3.64 0.26,0.03 0.23,-0.11 0.15,-0.2 Z" fill-rule="evenodd" fill="#000000" />
</svg>