<svg xmlns="http://www.w3.org/2000/svg" viewBox="0 0 48 48">
  <path id="turn3" d="M 32.57,12.56 l -0.07,-0.24 -0.18,-0.18 -0.25,-0.07 -10.4,-0.02 -0.25,0.07 -0.18,0.18 -0.07,0.24 0.07,0.26 1.28,2.22 -4.73,3.13 -1.84,1.39 -1.64,1.59 -1.42,1.77 -1.18,1.92 -0.95,2.05 -0.69,2.16 -0.43,2.24 -0.14,2.31 0,11.42 5,0 0,-11.42 0.11,-1.68 0.3,-1.64 0.51,-1.58 0.69,-1.49 0.87,-1.41 1.03,-1.28 1.2,-1.17 1.34,-1.01 4.47,-2.95 1.4,2.44 0.19,0.19 0.24,0.06 0.25,-0.06 0.19,-0.19 5.21,-8.99 Z" fill-rule="evenodd" fill="#000000" />
</svg>