<svg xmlns="http://www.w3.org/2000/svg" viewBox="0 0 48 48">
  <path id="turn4" d="M 29.9,10.33 l -0.02,-0.27 -0.14,-0.21 -0.22,-0.11 -0.27,0.01 -9.86,3.27 -0.23,0.15 -0.11,0.22 0.02,0.25 0.14,0.23 2.03,1.8 -3.48,4.77 -1.44,2.14 -1.26,2.24 -1.07,2.32 -0.89,2.39 -0.69,2.46 -0.5,2.5 -0.31,2.55 -0.1,2.57 0,5.39 5,0 0,-5.39 0.09,-2.17 0.25,-2.16 0.43,-2.12 0.59,-2.08 0.75,-2.02 0.91,-1.97 1.06,-1.89 1.22,-1.81 3.19,-4.37 1.98,1.76 0.24,0.12 0.25,-0.02 0.21,-0.14 0.12,-0.23 Z" fill-rule="evenodd" fill="#000000" />
</svg>