<svg xmlns="http://www.w3.org/2000/svg" viewBox="0 0 48 48">
  <path id="turnHp" d="M 35.7,27.99 l -0.07,-0.24 -0.18,-0.18 -0.25,-0.07 -2.7,0 0,-12 -0.05,-0.97 -0.14,-0.94 -0.56,-1.79 -0.87,-1.61 -1.16,-1.41 -1.41,-1.16 -1.61,-0.87 -1.79,-0.56 -0.94,-0.14 -0.97,-0.05 -0.97,0.05 -0.94,0.14 -1.79,0.56 -1.61,0.87 -1.41,1.16 -1.16,1.41 -0.87,1.61 -0.56,1.79 -0.14,0.94 -0.05,0.97 0,29.7 5,0 0,-29.7 0.09,-0.91 0.26,-0.84 0.42,-0.77 0.55,-0.66 0.66,-0.55 0.77,-0.42 0.84,-0.26 0.91,-0.09 0.91,0.09 0.84,0.26 0.77,0.42 0.66,0.55 0.55,0.66 0.42,0.77 0.26,0.84 0.09,0.91 0,12 -2.7,0 -0.25,0.07 -0.18,0.18 -0.07,0.24 0.07,0.26 5.2,9 0.19,0.19 0.24,0.06 0.24,-0.06 0.19,-0.19 5.2,-9 Z" fill-rule="evenodd" fill="#000000" />
</svg>