<svg xmlns="http://www.w3.org/2000/svg" viewBox="0 0 24 24">
  <path id="twoLinesToTerrain" d="M 2,18.5 l 0.11,-0.45 0.29,-0.35 2.7,-2.03 0.45,-0.25 0.49,-0.13 0.51,0 0.49,0.13 2.88,1.15 0.51,0.13 0.52,-0.01 0.51,-0.14 0.45,-0.28 2.81,-2.25 0.61,-0.33 0.66,-0.11 0.67,0.12 0.59,0.35 4.39,3.65 0.27,0.34 0.09,0.43 0,0.12 -0.08,0.38 -0.21,0.32 -1.42,1.42 -0.32,0.21 -0.38,0.08 -15.18,0 -0.38,-0.08 -0.32,-0.21 -1.42,-1.42 -0.21,-0.32 -0.08,-0.38 0,-0.09 Z M 17,2 l 0,3.5 1,-0.5 1,1 -3,3 -3,-3 1,-1 1,0.5 0,-3.5 2,0 Z M 5,4 l 2,0 0,3.5 1,-0.5 1,1 -3,3 -3,-3 1,-1 1,0.5 0,-3.5 Z M 17.91,13.07 l -0.93,-0.54 -1.04,-0.21 -1.05,0.14 -0.97,0.48 -0.41,0.3 -0.23,0.04 -0.31,-0.07 -0.24,-0.16 -0.17,-0.25 -0.06,-0.3 0.06,-0.3 0.16,-0.24 0.32,-0.23 0.69,-0.42 0.73,-0.29 0.76,-0.16 0.77,-0.04 0.77,0.09 0.74,0.21 0.72,0.34 0.65,0.46 1.59,1.43 0.19,0.23 0.08,0.28 -0.03,0.28 -0.14,0.26 -0.24,0.19 -0.27,0.08 -0.29,-0.03 -0.26,-0.14 -1.59,-1.43 Z M 8.88,14.55 l -0.14,-0.01 -0.9,-0.4 -0.83,-0.24 -0.85,-0.02 -0.83,0.21 -0.76,0.42 -0.12,0.09 -0.27,0.13 -0.29,0.01 -0.27,-0.09 -0.22,-0.2 -0.13,-0.27 -0.01,-0.29 0.09,-0.27 0.2,-0.22 0.12,-0.09 1.11,-0.62 1.21,-0.3 1.24,0.02 1.22,0.36 0.92,0.41 0.2,0.26 0.08,0.33 -0.06,0.31 -0.17,0.24 -0.24,0.17 -0.3,0.06 Z" fill-rule="evenodd" fill="#000000" />
</svg>