<svg xmlns="http://www.w3.org/2000/svg" viewBox="0 0 24 24">
  <path id="twoRoadsAdd" d="M 17,12 l -0.1,1.01 -0.29,0.94 -0.46,0.85 -0.61,0.74 -0.74,0.61 -0.85,0.46 -0.94,0.29 -1.01,0.1 -1.01,-0.1 -0.94,-0.29 -0.85,-0.46 -0.74,-0.61 -0.61,-0.74 -0.46,-0.85 -0.29,-0.94 -0.1,-1.01 0.1,-1.01 0.29,-0.94 0.46,-0.85 0.61,-0.74 0.74,-0.61 0.85,-0.46 0.94,-0.29 1.01,-0.1 1.01,0.1 0.94,0.29 0.85,0.46 0.74,0.61 0.61,0.74 0.46,0.85 0.29,0.94 0.1,1.01 Z M 10,21.75 l -1.01,-0.07 -0.99,-0.18 0,-3.5 -2,0 0,3.12 -0.97,0.12 -1.03,0.26 0,-19.23 0.48,-0.1 0.52,-0.09 0.53,0.05 0.47,0.12 0,3.75 2,0 0,-3.3 1,0.07 1,-0.07 0,3.64 -0.97,0.45 -0.87,0.6 -0.75,0.74 -0.61,0.87 -0.8,0 0,6 0.8,0 0.61,0.87 0.75,0.74 0.87,0.6 0.97,0.45 0,4.09 Z M 20,21.95 l -0.71,-0.21 -0.77,0.09 -0.52,0.09 -0.53,-0.05 -1.62,-0.41 -0.92,-0.17 -0.93,-0.06 0,-3.57 1.06,-0.5 0.94,-0.69 0,3.53 2,0 0,-5 -0.8,0 0.34,-0.69 0.25,-0.73 0.16,-0.77 0.05,-0.81 -0.11,-1.12 -0.3,-1.06 -0.48,-0.96 -0.64,-0.86 1.53,0 0,-5.25 1.06,-0.26 0.5,-0.19 0.44,-0.27 0,19.92 Z M 11,8.5 l 0,2.5 -2.5,0 0,2 2.5,0 0,2.5 2,0 0,-2.5 2.5,0 0,-2 -2.5,0 0,-2.5 -2,0 Z M 16,2.75 l 0,4.78 -0.94,-0.69 -1.06,-0.5 0,-4.03 1,0.19 1,0.25 Z" fill-rule="evenodd" fill="#000000" />
</svg>