<svg xmlns="http://www.w3.org/2000/svg" viewBox="0 0 24 24">
  <path id="twoRoadsLink" d="M 20,11.65 l 0,10.3 -0.71,-0.21 -0.77,0.09 -0.52,0.09 -0.53,-0.05 -1.62,-0.41 -0.92,-0.17 -0.93,-0.06 0,-9.58 -0.53,-0.77 -0.34,-0.88 -2.26,0 -0.34,0.88 -0.53,0.77 0,10.1 -1.01,-0.07 -0.99,-0.18 0,-3.5 -2,0 0,3.12 -0.97,0.12 -1.03,0.26 0,-9.85 -0.42,-0.57 -0.31,-0.64 -0.2,-0.7 -0.07,-0.74 0.07,-0.74 0.2,-0.7 0.31,-0.64 0.42,-0.57 0,-4.08 0.48,-0.1 0.52,-0.09 0.53,0.05 0.47,0.12 0,2.88 1,-0.13 1,0.13 0,-2.43 1,0.07 1,-0.07 0,3.65 0.53,0.77 0.34,0.88 2.26,0 0.34,-0.88 0.53,-0.77 0,-4.04 1,0.19 1,0.25 0,2.38 1,-0.13 1,0.13 0,-2.38 1.06,-0.26 0.5,-0.19 0.44,-0.27 0,4.32 0.42,0.57 0.31,0.64 0.2,0.7 0.07,0.74 -0.07,0.74 -0.2,0.7 -0.31,0.64 -0.42,0.57 Z M 19,9 l -0.16,-0.78 -0.43,-0.63 -0.63,-0.43 -0.78,-0.16 -0.78,0.16 -0.63,0.43 -0.43,0.63 -0.16,0.78 0.16,0.78 0.43,0.63 0.63,0.43 0.78,0.16 0.78,-0.16 0.63,-0.43 0.43,-0.63 0.16,-0.78 Z M 7,11 l 0.78,-0.16 0.63,-0.43 0.43,-0.63 0.16,-0.78 -0.16,-0.78 -0.43,-0.63 -0.63,-0.43 -0.78,-0.16 -0.78,0.16 -0.63,0.43 -0.43,0.63 -0.16,0.78 0.16,0.78 0.43,0.63 0.63,0.43 0.78,0.16 Z M 18,14 l -2,0 0,6 2,0 0,-6 Z M 6,15 l 2,0 0,-2.13 -1,0.13 -1,-0.13 0,2.13 Z" fill-rule="evenodd" fill="#000000" />
</svg>