<svg xmlns="http://www.w3.org/2000/svg" viewBox="0 0 24 24">
  <path id="twoUnicyclesOnly" d="M 8,9.25 l 0.07,-0.18 0.18,-0.07 7.5,0 0.18,0.07 0.07,0.18 0,4.5 -0.07,0.18 -0.18,0.07 -0.69,0 -0.11,-0.03 -0.9,-0.44 -0.11,-0.03 -3.88,0 -0.11,0.03 -0.9,0.44 -0.11,0.03 -0.69,0 -0.18,-0.07 -0.07,-0.18 0,-4.5 Z M 3.5,6 l 3.5,0.5 -1,7 -3.5,-0.5 1,-7 Z M 17,6.5 l 3.5,-0.5 1,7 -3.5,0.5 -1,-7 Z M 20.1,14 l 1.17,0.38 0.73,1 0,1.24 -0.73,1 -1.17,0.38 -1.18,-0.38 -0.72,-1 0,-1.24 0.72,-1 1.18,-0.38 Z M 5.08,14.38 l 0.72,1 0,1.24 -0.72,1 -1.18,0.38 -1.17,-0.38 -0.73,-1 0,-1.24 0.73,-1 1.17,-0.38 1.18,0.38 Z M 9.95,7 l -0.45,-0.5 2.5,-2.5 2.5,2.5 -0.5,0.5 -2,-1 -2.05,1 Z" fill-rule="evenodd" fill="#000000" />
</svg>