<svg xmlns="http://www.w3.org/2000/svg" viewBox="0 0 24 24">
  <path id="unlink" d="M 18,20.12 l -14.12,-14.12 2.12,-2.12 14.12,14.12 -2.12,2.12 Z M 10.01,18.06 l 0.7,-0.5 0.38,-0.18 0.41,-0.06 0.4,0.07 0.38,0.19 0.37,0.44 0.15,0.53 -0.07,0.55 -0.31,0.48 -0.07,0.07 -0.85,0.7 -0.95,0.49 -1.01,0.3 -1.04,0.1 -1.04,-0.1 -1.01,-0.3 -0.95,-0.49 -0.85,-0.7 -0.3,-0.3 -0.7,-0.85 -0.5,-0.95 -0.29,-1.01 -0.1,-1.04 0.1,-1.04 0.29,-1.01 0.5,-0.95 0.7,-0.85 0.07,-0.07 0.48,-0.31 0.55,-0.07 0.53,0.15 0.44,0.37 0.19,0.38 0.07,0.4 -0.06,0.41 -0.18,0.38 -0.5,0.7 -0.45,0.93 -0.09,1.01 0.26,0.97 0.59,0.85 0.85,0.59 0.97,0.26 1.01,-0.1 0.93,-0.44 Z M 13.99,5.94 l -0.7,0.5 -0.38,0.18 -0.41,0.06 -0.4,-0.07 -0.38,-0.19 -0.37,-0.44 -0.15,-0.53 0.07,-0.55 0.31,-0.48 0.07,-0.07 0.85,-0.7 0.95,-0.5 1.01,-0.29 1.04,-0.1 1.04,0.1 1.01,0.29 0.95,0.5 0.85,0.7 0.3,0.3 0.7,0.85 0.49,0.95 0.3,1.01 0.1,1.04 -0.1,1.04 -0.3,1.01 -0.49,0.95 -0.7,0.85 -0.07,0.07 -0.48,0.31 -0.55,0.07 -0.53,-0.15 -0.44,-0.37 -0.19,-0.38 -0.07,-0.4 0.06,-0.41 0.18,-0.38 0.5,-0.7 0.45,-0.93 0.09,-1.01 -0.26,-0.97 -0.59,-0.85 -0.85,-0.59 -0.97,-0.26 -1.01,0.09 -0.93,0.45 Z" fill-rule="evenodd" fill="#000000" />
</svg>