<svg xmlns="http://www.w3.org/2000/svg" viewBox="0 0 24 24">
  <path id="urbanRoadSeparate" d="M 21,2 l 0.39,0.08 0.32,0.21 0.21,0.32 0.08,0.39 0,2.94 -0.09,1.04 -0.27,1.01 -1.47,4.06 -0.25,0.37 -0.38,0.23 -0.7,0.24 -0.25,0.18 -0.09,0.29 0,0.37 0.06,0.24 0.16,0.18 1.09,0.72 0.42,0.13 0.3,0.06 0.25,0.16 0.16,0.25 0.06,0.3 0,5.23 -0.08,0.39 -0.21,0.32 -0.32,0.21 -0.39,0.08 -3.5,0 0,-9.03 0.08,-0.96 0.23,-0.93 1.38,-4.16 0.23,-0.93 0.08,-0.96 0,-3.03 2.5,0 Z M 3,2 l 2.5,0 0,3.03 0.08,0.96 0.23,0.93 1.38,4.16 0.23,0.93 0.08,0.96 0,9.03 -3.5,0 -0.39,-0.08 -0.32,-0.21 -0.21,-0.32 -0.08,-0.39 0,-5.23 0.06,-0.3 0.16,-0.25 0.25,-0.16 0.3,-0.06 0.42,-0.13 1.09,-0.72 0.16,-0.18 0.06,-0.24 0,-0.37 -0.09,-0.29 -0.25,-0.18 -0.7,-0.24 -0.38,-0.23 -0.25,-0.37 -1.47,-4.06 -0.27,-1.01 -0.09,-1.04 0,-2.94 0.08,-0.39 0.21,-0.32 0.32,-0.21 0.39,-0.08 Z M 14.96,6.68 l -1.55,3.41 -0.24,0.38 -0.33,0.28 -0.4,0.19 -0.44,0.06 -0.44,-0.06 -0.4,-0.19 -0.33,-0.28 -0.24,-0.38 -1.55,-3.41 -0.4,-1.21 -0.14,-1.27 0,-2.2 2.5,0 0,1.91 0.05,0.52 0.15,0.49 0.24,0.45 0.33,0.4 0.23,0.09 0.23,-0.09 0.33,-0.4 0.24,-0.45 0.15,-0.49 0.05,-0.52 0,-1.91 2.5,0 0,2.2 -0.14,1.27 -0.4,1.21 Z M 11.25,14 l 1.5,0 0.18,0.07 0.07,0.18 0,3 -0.07,0.18 -0.18,0.07 -1.5,0 -0.18,-0.07 -0.07,-0.18 0,-3 0.07,-0.18 0.18,-0.07 Z M 11.25,20 l 1.5,0 0.18,0.07 0.07,0.18 0,1 -0.07,0.18 -0.18,0.07 -1.5,0 -0.18,-0.07 -0.07,-0.18 0,-1 0.07,-0.18 0.18,-0.07 Z" fill-rule="evenodd" fill="#000000" />
</svg>