<svg xmlns="http://www.w3.org/2000/svg" viewBox="0 0 24 24">
  <path id="urbanRoadToHighwayTransition02" d="M 19,2 l 0,9 1,1 1,0 0.39,0.08 0.32,0.21 0.21,0.32 0.08,0.39 0,8 -0.08,0.39 -0.21,0.32 -0.32,0.21 -0.39,0.08 -5,0 0,-8.42 0.13,-1.56 0.37,-1.52 0.37,-1.52 0.13,-1.56 0,-5.42 2,0 Z M 5,2 l 2,0 0,5.42 0.13,1.56 0.37,1.52 0.37,1.52 0.13,1.56 0,8.42 -5,0 -0.39,-0.08 -0.32,-0.21 -0.21,-0.32 -0.08,-0.39 0,-8 0.08,-0.39 0.21,-0.32 0.32,-0.21 0.39,-0.08 1,0 1,-1 0,-9 Z M 13,10.5 l -0.15,0.35 -0.35,0.15 -1,0 -0.35,-0.15 -0.15,-0.35 0,-7 0.15,-0.35 0.35,-0.15 1,0 0.35,0.15 0.15,0.35 0,7 Z M 13,17.5 l -0.15,0.35 -0.35,0.15 -1,0 -0.35,-0.15 -0.15,-0.35 0,-2.5 0.15,-0.35 0.35,-0.15 1,0 0.35,0.15 0.15,0.35 0,2.5 Z M 13,21 l 0,0.5 -0.15,0.35 -0.35,0.15 -1,0 -0.35,-0.15 -0.15,-0.35 0,-0.5 0.15,-0.35 0.35,-0.15 1,0 0.35,0.15 0.15,0.35 Z" fill-rule="evenodd" fill="#000000" />
</svg>