<svg xmlns="http://www.w3.org/2000/svg" viewBox="0 0 24 24">
  <path id="urbanShoulderMerge" d="M 11.5,6.77 l -0.18,1.18 -0.51,1.07 -2.69,3.96 -0.51,1.07 -0.18,1.18 0,6.77 -3.43,0 0,-6.77 0.1,-1.33 0.29,-1.28 0.47,-1.23 0.65,-1.16 2.15,-3.23 0.25,-0.53 0.09,-0.58 0,-3.89 3.5,0 0,4.77 Z M 22,22 l -3.5,0 0,-20 3.5,0 0,20 Z M 16,3.5 l 0,2 -0.15,0.35 -0.35,0.15 -1,0 -0.35,-0.15 -0.15,-0.35 0,-2 0.15,-0.35 0.35,-0.15 1,0 0.35,0.15 0.15,0.35 Z M 16,8.5 l 0,2 -0.15,0.35 -0.35,0.15 -1,0 -0.35,-0.15 -0.15,-0.35 0,-2 0.15,-0.35 0.35,-0.15 1,0 0.35,0.15 0.15,0.35 Z M 16,13.5 l 0,2 -0.15,0.35 -0.35,0.15 -1,0 -0.35,-0.15 -0.15,-0.35 0,-2 0.15,-0.35 0.35,-0.15 1,0 0.35,0.15 0.15,0.35 Z M 16,18.5 l 0,2 -0.15,0.35 -0.35,0.15 -1,0 -0.35,-0.15 -0.15,-0.35 0,-2 0.15,-0.35 0.35,-0.15 1,0 0.35,0.15 0.15,0.35 Z M 11.5,20 l 0,2 -1.5,0 0,-2 0.15,-0.35 0.35,-0.15 0.5,0 0.35,0.15 0.15,0.35 Z M 11.5,16.5 l 0,1 -0.15,0.35 -0.35,0.15 -0.5,0 -0.35,-0.15 -0.15,-0.35 0,-1 0.15,-0.35 0.35,-0.15 0.5,0 0.35,0.15 0.15,0.35 Z M 11.5,12.5 l 0,1 -0.15,0.35 -0.35,0.15 -0.5,0 -0.35,-0.15 -0.15,-0.35 0,-1 0.15,-0.35 0.35,-0.15 0.5,0 0.35,0.15 0.15,0.35 Z" fill-rule="evenodd" fill="#000000" />
</svg>