<svg xmlns="http://www.w3.org/2000/svg" viewBox="0 0 24 24">
  <path id="vehicleTrunk" d="M 3,5.87 l 0.06,-0.29 0.16,-0.24 0.24,-0.16 0.29,-0.06 6.43,0 0.64,0.05 0.61,0.15 6.13,-1.23 1.23,-0.08 1.2,0.23 0.5,0.17 0.26,0.15 0.17,0.22 0.08,0.28 -0.04,0.3 -0.15,0.25 -0.22,0.18 -0.28,0.08 -0.3,-0.04 -0.49,-0.16 -0.83,-0.16 -0.83,0.05 -4.66,0.93 3.06,3.5 0.42,0.58 0.31,0.65 0.19,0.68 0.07,0.72 0,4 -0.15,0.35 -0.35,0.15 -1.63,0 -0.21,0.62 -0.32,0.58 -0.4,0.51 -0.47,0.44 -0.54,0.36 -0.6,0.26 -0.65,0.17 -0.68,0.06 -0.68,-0.06 -0.65,-0.17 -0.6,-0.26 -0.54,-0.36 -0.47,-0.44 -0.4,-0.51 -0.32,-0.58 -0.21,-0.62 -3.38,0 -0.39,-0.08 -0.32,-0.21 -0.21,-0.32 -0.08,-0.39 0,-4.35 0.07,-0.38 0.21,-0.32 0.31,-0.21 0.37,-0.09 1.74,-0.05 0.18,-0.08 0.06,-0.19 -0.36,-3.61 -0.08,-0.16 -0.16,-0.06 -1.59,0 -0.29,-0.06 -0.24,-0.16 -0.16,-0.24 -0.06,-0.29 Z M 8.75,16.12 l 0.05,0.5 0.15,0.47 0.53,0.8 0.8,0.53 0.47,0.15 0.5,0.05 0.5,-0.05 0.47,-0.15 0.8,-0.53 0.53,-0.8 0.15,-0.47 0.05,-0.5 -0.05,-0.5 -0.15,-0.47 -0.53,-0.8 -0.8,-0.53 -0.47,-0.15 -0.5,-0.05 -0.5,0.05 -0.47,0.15 -0.8,0.53 -0.53,0.8 -0.15,0.47 -0.05,0.5 Z M 9.7,6.62 l -2.18,0 -0.2,0.1 -0.04,0.22 1.07,3.55 0.09,0.13 0.15,0.05 3.27,-0.04 0.26,-0.08 0.17,-0.18 0.06,-0.25 -0.07,-0.26 -1.74,-2.77 -0.36,-0.35 -0.48,-0.12 Z" fill-rule="evenodd" fill="#000000" />
</svg>