<svg xmlns="http://www.w3.org/2000/svg" viewBox="0 0 24 24">
  <path id="vehicleArrowIn" d="M 16.61,10.09 l 1.42,0.27 1.37,0.41 1.33,0.55 1.27,0.68 0,6 -0.08,0.81 -0.23,0.75 -0.37,0.68 -0.49,0.59 -0.59,0.49 -0.68,0.37 -0.75,0.23 -0.81,0.08 -0.81,-0.08 -0.75,-0.23 -0.68,-0.37 -0.59,-0.49 -0.49,-0.59 -0.37,-0.68 -0.23,-0.75 -0.08,-0.81 -10,0 0,-4 0.4,0 0.45,0.1 0.35,0.28 0.21,0.4 0.01,0.47 0.01,0.47 0.21,0.4 0.35,0.28 0.46,0.1 7.14,0 0.32,-0.11 0.17,-0.29 0.38,-1.91 0.04,-0.39 0,-2.6 -0.11,-0.66 -0.33,-0.59 -3.41,-4.26 -0.17,-0.14 -0.22,-0.05 -3.81,0 -0.46,0.1 -0.35,0.28 -0.21,0.4 -0.01,0.47 -0.01,0.47 -0.21,0.4 -0.35,0.28 -0.45,0.1 -0.4,0 0,-4 6.06,0 0.85,0.19 0.37,0.22 0.32,0.31 4.4,5.28 0.61,0.09 Z M 12,11 l -4,4 -1,0 0.5,-2.5 -5,0 0,-3 5,0 -0.5,-2.5 1,0 4,4 Z M 18,20 l 0.78,-0.16 0.63,-0.43 0.43,-0.63 0.16,-0.78 -0.16,-0.78 -0.43,-0.63 -0.63,-0.43 -0.78,-0.16 -0.78,0.16 -0.63,0.43 -0.43,0.63 -0.16,0.78 0.16,0.78 0.43,0.63 0.63,0.43 0.78,0.16 Z" fill-rule="evenodd" fill="#000000" />
</svg>