<svg xmlns="http://www.w3.org/2000/svg" viewBox="0 0 24 24">
  <path id="vehicleFeatures03" d="M 7.7,8.25 l 0.09,-0.49 0.27,-0.39 0.4,-0.27 0.49,-0.1 0.48,0.1 0.4,0.27 0.27,0.39 0.1,0.49 0,5 0.09,-0.49 0.27,-0.39 0.4,-0.27 0.49,-0.1 0.48,0.1 0.4,0.27 0.27,0.39 0.1,0.49 0,1 0.09,-0.49 0.27,-0.39 0.4,-0.27 0.49,-0.1 0.48,0.1 0.4,0.27 0.27,0.39 0.1,0.49 0,0.44 0.12,0.01 0.19,-0.28 0.26,-0.22 0.32,-0.15 0.36,-0.05 0.43,0.08 0.36,0.21 0.27,0.31 0.16,0.4 0.03,0 0,4.38 -0.07,0.6 -0.21,0.57 -0.41,0.6 -0.56,0.46 -0.65,0.29 -0.72,0.1 -6.28,0 -0.73,-0.09 -0.68,-0.26 -0.6,-0.43 -0.48,-0.56 -0.9,-1.34 -0.48,-0.59 -1.62,-1.62 -0.21,-0.3 -0.09,-0.34 0.02,-0.36 0.15,-0.33 0.27,-0.28 0.34,-0.16 0.37,-0.03 0.37,0.11 1.7,0.85 0.83,0.6 0.64,0.63 0,-1.34 0.01,-0.23 -0.01,-0.18 0,-7.5 Z M 15.75,4 l 0,2.25 2.25,0 0,1.5 -2.25,0 0,2.25 -1.5,0 0,-2.25 -2.25,0 0,-1.5 2.25,0 0,-2.25 0.14,-0.68 0.37,-0.56 0.56,-0.37 0.68,-0.14 3,0 0.55,0.06 0.52,0.16 0.47,0.25 0.4,0.34 0.34,0.4 0.25,0.47 0.16,0.52 0.06,0.55 0,5 -0.06,0.55 -0.16,0.52 -0.25,0.47 -0.34,0.4 -0.4,0.34 -0.47,0.25 -0.52,0.16 -0.55,0.06 -2,0 0,-1.5 2,0 0.49,-0.1 0.39,-0.27 0.27,-0.39 0.1,-0.49 0,-5 -0.1,-0.49 -0.27,-0.39 -0.39,-0.27 -0.49,-0.1 -3,0 -0.18,0.07 -0.07,0.18 Z M 5,2.25 l 8,0 0,1.5 -8,0 -0.49,0.1 -0.39,0.27 -0.27,0.39 -0.1,0.49 0,5 0.1,0.49 0.27,0.39 0.39,0.27 0.49,0.1 1.5,0 0,1.5 -1.5,0 -0.55,-0.06 -0.52,-0.16 -0.47,-0.25 -0.4,-0.34 -0.34,-0.4 -0.25,-0.47 -0.16,-0.52 -0.06,-0.55 0,-5 0.06,-0.55 0.16,-0.52 0.25,-0.47 0.34,-0.4 0.4,-0.34 0.47,-0.25 0.52,-0.16 0.55,-0.06 Z" fill-rule="evenodd" fill="#000000" />
</svg>