<svg xmlns="http://www.w3.org/2000/svg" viewBox="0 0 24 24">
  <path id="vehicleDoors" d="M 8.76,19.65 l -0.34,-0.18 -0.24,-0.28 -0.13,-0.36 -0.05,-0.4 0,-13.21 0.08,-0.56 0.23,-0.51 0.36,-0.42 0.47,-0.32 0.45,-0.21 0.42,-0.15 0.44,-0.05 3.1,0 0.44,0.05 0.42,0.15 0.45,0.21 0.47,0.32 0.36,0.42 0.23,0.51 0.08,0.56 0,13.21 -0.05,0.4 -0.13,0.36 -0.24,0.28 -0.34,0.18 -0.67,0.15 -0.79,0.11 -1.78,0.09 -1.78,-0.09 -0.79,-0.11 -0.67,-0.15 Z M 14.62,11.13 l 0.77,-2.31 -0.01,-0.27 -0.19,-0.19 -1.53,-0.46 -1.66,-0.15 -1.66,0.15 -1.53,0.46 -0.19,0.19 -0.01,0.27 0.77,2.31 0.19,0.23 0.31,0.03 1.03,-0.2 1.09,-0.07 1.09,0.07 1.03,0.2 0.31,-0.03 0.19,-0.23 Z M 14.91,17.65 l -0.31,-1.27 -0.18,-0.24 -0.3,-0.05 -1.12,0.21 -1,0.07 -1,-0.07 -1.12,-0.21 -0.3,0.05 -0.18,0.24 -0.31,1.27 0.04,0.28 0.22,0.17 1.24,0.21 1.41,0.07 1.41,-0.07 1.24,-0.21 0.22,-0.17 0.04,-0.28 Z M 7.37,8.29 l 0.14,0.37 -0.02,0.38 -0.15,0.35 -0.29,0.28 -2.73,1.7 -0.38,0.06 -0.31,-0.22 -0.14,-0.37 0.02,-0.38 0.15,-0.35 0.29,-0.28 2.73,-1.7 0.38,-0.06 0.31,0.22 Z M 20.37,11.21 l -0.31,0.22 -0.38,-0.06 -2.73,-1.7 -0.29,-0.28 -0.15,-0.35 -0.02,-0.38 0.14,-0.37 0.31,-0.22 0.38,0.06 2.73,1.7 0.29,0.28 0.15,0.35 0.02,0.38 -0.14,0.37 Z M 16.62,13.28 l 0.31,-0.23 0.38,0.05 2.19,1.25 0.3,0.26 0.17,0.35 0.03,0.38 -0.12,0.38 -0.31,0.23 -0.38,-0.05 -2.19,-1.25 -0.3,-0.26 -0.17,-0.35 -0.03,-0.38 0.12,-0.38 Z M 7.38,13.28 l 0.12,0.38 -0.03,0.38 -0.17,0.35 -0.3,0.26 -2.19,1.25 -0.38,0.05 -0.31,-0.23 -0.12,-0.38 0.03,-0.38 0.17,-0.35 0.3,-0.26 2.19,-1.25 0.38,-0.05 0.31,0.23 Z" fill-rule="evenodd" fill="#000000" />
</svg>