<svg xmlns="http://www.w3.org/2000/svg" viewBox="0 0 24 24">
  <path id="vehicleDoorsClose" d="M 18.12,21 l -0.29,-0.05 -0.26,-0.14 -0.19,-0.21 -0.12,-0.28 -0.01,-0.03 -0.22,-0.32 -0.38,-0.06 -1.4,0.28 -1.24,0.09 -1.25,-0.09 -1.4,-0.28 -0.37,0.06 -0.23,0.32 -0.01,0.03 -0.11,0.28 -0.2,0.21 -0.25,0.14 -0.3,0.05 -0.34,-0.07 -0.28,-0.19 -0.19,-0.28 -0.07,-0.35 0,-1.09 0.11,-0.46 0.31,-0.36 0.57,-0.4 0.31,-0.36 0.12,-0.46 0,-1.81 -0.06,-0.33 -1.13,-3.19 -0.18,-0.66 -0.05,-0.68 0,-4.45 0.1,-0.72 0.28,-0.65 0.45,-0.55 0.59,-0.4 0.56,-0.28 0.53,-0.19 0.55,-0.07 3.87,0 0.55,0.07 0.53,0.19 0.57,0.28 0.58,0.4 0.45,0.55 0.29,0.65 0.1,0.72 0,14.25 -0.07,0.35 -0.19,0.28 -0.28,0.19 -0.35,0.07 Z M 17.29,12.98 l 0.96,-2.97 -0.02,-0.36 -0.23,-0.24 -0.93,-0.35 -0.98,-0.24 -1.03,-0.15 -1.05,-0.05 -1.05,0.05 -1.03,0.15 -0.99,0.24 -0.92,0.35 -0.24,0.24 -0.01,0.36 0.96,2.97 0.24,0.29 0.38,0.04 1.29,-0.25 1.37,-0.09 1.36,0.09 1.29,0.25 0.38,-0.04 0.25,-0.29 Z M 8.32,11.56 l 0.23,0.18 0.2,0.32 0.11,0.37 0.01,0.32 -1.26,4.69 -0.11,0.23 -0.19,0.16 -0.24,0.08 -0.26,-0.02 -0.23,-0.17 -0.19,-0.31 -0.11,-0.34 -0.01,-0.26 1.25,-4.79 0.11,-0.23 0.19,-0.16 0.24,-0.08 0.26,0.01 Z" fill-rule="evenodd" fill="#000000" />
</svg>