<svg xmlns="http://www.w3.org/2000/svg" viewBox="0 0 24 24">
  <path id="vehicleFeatures02" d="M 19.7,10.37 l 1.31,1.5 0.42,0.58 0.31,0.65 0.2,0.69 0.06,0.71 0,2 -0.15,0.35 -0.35,0.15 -0.5,0 -0.06,-0.6 -0.18,-0.57 -0.27,-0.51 -0.37,-0.44 -0.44,-0.37 -0.51,-0.27 -0.57,-0.18 -0.6,-0.06 -0.6,0.06 -0.57,0.18 -0.51,0.27 -0.44,0.37 -0.37,0.44 -0.27,0.51 -0.18,0.57 -0.06,0.6 -5,0 -0.06,-0.6 -0.18,-0.57 -0.27,-0.51 -0.37,-0.44 -0.44,-0.37 -0.51,-0.27 -0.57,-0.18 -0.6,-0.06 -0.6,0.06 -0.57,0.18 -0.51,0.27 -0.44,0.37 -0.37,0.44 -0.27,0.51 -0.18,0.57 -0.06,0.6 -1.5,0 -0.35,-0.15 -0.15,-0.35 0.12,-0.98 0.08,-0.31 0.2,-0.56 0.29,-0.52 0.38,-0.45 0.47,-0.37 1,-0.45 2.48,-0.62 -0.89,-0.74 -0.46,-0.32 -0.51,-0.24 -0.54,-0.14 -0.57,-0.05 -0.55,0 -0.29,-0.06 -0.24,-0.16 -0.16,-0.24 -0.06,-0.29 0.06,-0.29 0.16,-0.24 0.24,-0.16 0.29,-0.06 0.55,0 0.83,0.07 0.79,0.21 0.74,0.35 0.68,0.47 1.4,1.16 1.34,-1.34 0.61,-0.5 0.69,-0.37 0.74,-0.22 0.79,-0.08 4.02,0 0.86,0.09 0.8,0.27 0.73,0.43 0.63,0.58 Z M 10,4.25 l 2.25,0 0,-2.25 1.5,0 0,2.25 2.25,0 0,1.5 -2.25,0 0,2.25 -1.5,0 0,-2.25 -2.25,0 0,-1.5 Z M 18,15 l 0.78,0.16 0.63,0.43 0.43,0.63 0.16,0.78 -0.16,0.78 -0.43,0.63 -0.63,0.43 -0.78,0.16 -0.78,-0.16 -0.63,-0.43 -0.43,-0.63 -0.16,-0.78 0.16,-0.78 0.43,-0.63 0.63,-0.43 0.78,-0.16 Z M 5,17 l 0.16,-0.78 0.43,-0.63 0.63,-0.43 0.78,-0.16 0.78,0.16 0.63,0.43 0.43,0.63 0.16,0.78 -0.16,0.78 -0.43,0.63 -0.63,0.43 -0.78,0.16 -0.78,-0.16 -0.63,-0.43 -0.43,-0.63 -0.16,-0.78 Z" fill-rule="evenodd" fill="#000000" />
</svg>