<svg xmlns="http://www.w3.org/2000/svg" viewBox="0 0 24 24">
  <path id="vehicleHood" d="M 20.94,16 l -0.08,0.39 -0.22,0.32 -0.31,0.21 -0.39,0.08 -6.13,0 -0.22,0.62 -0.31,0.58 -0.4,0.51 -0.47,0.44 -0.55,0.36 -0.59,0.26 -0.65,0.17 -0.68,0.06 -0.69,-0.06 -0.64,-0.17 -0.6,-0.26 -0.54,-0.36 -0.48,-0.44 -0.4,-0.51 -0.31,-0.58 -0.22,-0.62 -3.21,0 -0.32,-0.11 -0.17,-0.29 -0.33,-1.24 -0.02,-0.35 0.1,-0.35 0.33,-0.66 0.08,-0.31 0.08,-0.14 0.16,-0.05 0.94,0 0.55,-0.08 0.51,-0.21 0.46,-0.33 0.39,-0.42 0.41,-0.5 0.02,-0.25 -0.22,-0.11 -2.36,0.4 -0.03,0 -0.01,0 -0.08,0 -0.2,-0.12 0.02,-0.22 0.42,-0.4 0.53,-0.34 1.31,-0.57 1.03,-0.3 1.06,-0.17 2.58,-0.28 -2.06,-1.47 -1.53,-0.92 -0.8,-0.34 -0.87,-0.12 -0.39,0 -0.29,-0.06 -0.24,-0.16 -0.16,-0.24 -0.06,-0.29 0.06,-0.29 0.16,-0.24 0.24,-0.16 0.29,-0.06 0.39,0 1.27,0.17 1.17,0.51 1.55,0.93 0.03,0.01 0.02,0.02 2.84,2.03 4.16,-3.12 0.55,-0.34 0.59,-0.25 0.62,-0.16 0.64,-0.05 1.92,0 0.29,0.06 0.24,0.16 0.16,0.24 0.06,0.29 -0.06,0.29 -0.16,0.24 -0.24,0.16 -0.29,0.06 -2.07,0 -0.65,0.11 -0.57,0.31 -3.74,2.91 -0.1,0.18 0.08,0.19 0.47,0.48 0.36,0.23 0.43,0.06 5.51,-0.29 0.4,0.07 0.32,0.21 0.23,0.32 0.08,0.39 0,4.33 Z M 7.44,16 l 0.05,0.5 0.14,0.47 0.54,0.8 0.79,0.53 0.47,0.15 0.51,0.05 0.5,-0.05 0.47,-0.15 0.79,-0.53 0.54,-0.8 0.15,-0.47 0.05,-0.5 -0.05,-0.5 -0.15,-0.47 -0.54,-0.8 -0.79,-0.53 -0.47,-0.15 -0.5,-0.05 -0.51,0.05 -0.47,0.15 -0.79,0.53 -0.54,0.8 -0.14,0.47 -0.05,0.5 Z" fill-rule="evenodd" fill="#000000" />
</svg>