<svg xmlns="http://www.w3.org/2000/svg" viewBox="0 0 24 24">
  <path id="vehicleFeatures01" d="M 21,3.47 l 0,1.05 -0.06,0.14 -0.14,0.06 -3.19,0.21 -0.5,0.21 -0.33,0.43 -1.17,3.14 0.02,0.19 0.18,0.08 1.37,-0.07 1.27,-0.05 2.35,-0.04 0.14,0.06 0.06,0.14 0,8.28 -0.06,0.14 -0.14,0.06 -1.75,0 -0.09,0.02 -0.92,0.46 -0.09,0.02 -1.75,0 -0.14,0.06 -0.06,0.14 0,1.8 -0.08,0.39 -0.21,0.32 -0.32,0.21 -0.39,0.08 -1,0 -0.39,-0.08 -0.32,-0.21 -0.21,-0.32 -0.08,-0.39 0,-2.3 -0.08,-0.16 -0.45,-0.53 -0.25,-0.68 -0.19,-1.17 -0.03,-0.33 0,-2.58 0.06,-0.49 0.25,-1.01 0.31,-0.67 0.52,-0.51 0.34,-0.23 0.45,-0.4 0.3,-0.52 1.43,-3.56 0.2,-0.38 0.28,-0.33 0.35,-0.25 0.4,-0.15 1.84,-0.31 2.06,-0.17 0.15,0.06 0.06,0.14 Z M 4,19 l -0.78,-0.16 -0.63,-0.43 -0.43,-0.63 -0.16,-0.78 0.16,-0.78 0.43,-0.63 0.63,-0.43 0.78,-0.16 0.78,0.16 0.63,0.43 0.43,0.63 0.16,0.78 -0.16,0.78 -0.43,0.63 -0.63,0.43 -0.78,0.16 Z M 6,11 l -0.16,0.78 -0.43,0.63 -0.63,0.43 -0.78,0.16 -0.78,-0.16 -0.63,-0.43 -0.43,-0.63 -0.16,-0.78 0.16,-0.78 0.43,-0.63 0.63,-0.43 0.78,-0.16 0.78,0.16 0.63,0.43 0.43,0.63 0.16,0.78 Z M 4,7 l -0.78,-0.16 -0.63,-0.43 -0.43,-0.63 -0.16,-0.78 0.16,-0.78 0.43,-0.63 0.63,-0.43 0.78,-0.16 0.78,0.16 0.63,0.43 0.43,0.63 0.16,0.78 -0.16,0.78 -0.43,0.63 -0.63,0.43 -0.78,0.16 Z M 15.23,11.31 l -0.52,-0.03 -0.47,0.16 -0.39,0.31 -0.25,0.45 -0.05,0.66 0.24,0.57 0.47,0.41 0.64,0.16 1.98,0 0.43,-0.09 0.36,-0.24 0.24,-0.36 0.09,-0.43 -0.06,-0.37 -0.18,-0.32 -0.27,-0.25 -0.34,-0.15 -1.92,-0.48 Z M 7,5 l 0.08,-0.39 0.21,-0.32 0.32,-0.21 0.39,-0.08 3,0 0.39,0.08 0.32,0.21 0.21,0.32 0.08,0.39 -0.08,0.39 -0.21,0.32 -0.32,0.21 -0.39,0.08 -3,0 -0.39,-0.08 -0.32,-0.21 -0.21,-0.32 -0.08,-0.39 Z M 8,10 l 1,0 0.39,0.08 0.32,0.21 0.21,0.32 0.08,0.39 -0.08,0.39 -0.21,0.32 -0.32,0.21 -0.39,0.08 -1,0 -0.39,-0.08 -0.32,-0.21 -0.21,-0.32 -0.08,-0.39 0.08,-0.39 0.21,-0.32 0.32,-0.21 0.39,-0.08 Z M 7,17 l 0.08,-0.39 0.21,-0.32 0.32,-0.21 0.39,-0.08 1,0 0.39,0.08 0.32,0.21 0.21,0.32 0.08,0.39 -0.08,0.39 -0.21,0.32 -0.32,0.21 -0.39,0.08 -1,0 -0.39,-0.08 -0.32,-0.21 -0.21,-0.32 -0.08,-0.39 Z" fill-rule="evenodd" fill="#000000" />
</svg>