<svg xmlns="http://www.w3.org/2000/svg" viewBox="0 0 24 24">
  <path id="voucherDiagonal2" d="M 3,13 l 10,-10 0.47,-0.31 0.53,-0.1 0.53,0.1 0.47,0.31 1.24,1.24 0.1,0.26 -0.1,0.26 -0.39,0.58 -0.13,0.66 0.13,0.66 0.39,0.58 0.52,0.52 0.58,0.39 0.66,0.13 0.66,-0.13 0.58,-0.39 0.26,-0.11 0.26,0.11 1.24,1.24 0.31,0.47 0.1,0.53 -0.1,0.53 -0.31,0.47 -10,10 -0.47,0.31 -0.53,0.1 -0.53,-0.1 -0.47,-0.31 -1.24,-1.24 -0.1,-0.26 0.1,-0.26 0.39,-0.58 0.13,-0.66 -0.13,-0.66 -0.39,-0.58 -0.52,-0.52 -0.58,-0.39 -0.66,-0.13 -0.66,0.13 -0.58,0.39 -0.26,0.1 -0.26,-0.1 -1.24,-1.24 -0.31,-0.47 -0.1,-0.53 0.1,-0.53 0.31,-0.47 Z M 9.11,10.04 l 0.69,1.66 0.01,0.06 0.24,1.78 0.07,0.14 0.14,0.07 1.78,0.24 0.06,0.01 1.66,0.69 0.16,0.01 0.13,-0.09 1.09,-1.42 0.05,-0.05 1.42,-1.09 0.09,-0.13 -0.01,-0.16 -0.69,-1.66 -0.01,-0.06 -0.24,-1.78 -0.07,-0.14 -0.14,-0.07 -1.78,-0.24 -0.06,-0.01 -1.66,-0.69 -0.16,-0.01 -0.13,0.09 -1.09,1.42 -0.05,0.05 -1.42,1.09 -0.09,0.13 0.01,0.16 Z M 5.81,11.82 l -0.16,0.25 -0.06,0.28 0.06,0.29 0.16,0.24 5.31,5.31 0.24,0.16 0.29,0.06 0.28,-0.06 0.25,-0.16 0.16,-0.25 0.06,-0.28 -0.06,-0.29 -0.16,-0.24 -5.31,-5.31 -0.24,-0.16 -0.29,-0.06 -0.28,0.06 -0.25,0.16 Z M 14.31,12.31 l -0.66,0.44 -0.75,0.15 -0.75,-0.15 -0.67,-0.44 -0.43,-0.66 -0.15,-0.75 0.15,-0.75 0.43,-0.67 0.67,-0.43 0.75,-0.15 0.75,0.15 0.66,0.43 0.44,0.67 0.15,0.75 -0.15,0.75 -0.44,0.66 Z" fill-rule="evenodd" fill="#000000" />
</svg>