<svg xmlns="http://www.w3.org/2000/svg" viewBox="0 0 24 24">
  <path id="voucherHorizontal2" d="M 3.6,6 l 16.8,0 0.62,0.13 0.51,0.34 0.34,0.51 0.13,0.62 0,1.96 -0.13,0.31 -0.31,0.13 -0.06,0 -0.78,0.16 -0.63,0.43 -0.43,0.63 -0.16,0.78 0.16,0.78 0.43,0.63 0.63,0.43 0.78,0.16 0.06,0 0.31,0.13 0.13,0.31 0,1.96 -0.13,0.62 -0.34,0.51 -0.51,0.34 -0.62,0.13 -16.8,0 -0.62,-0.13 -0.51,-0.34 -0.34,-0.51 -0.13,-0.62 0,-1.96 0.13,-0.31 0.31,-0.13 0.06,0 0.78,-0.16 0.63,-0.43 0.43,-0.63 0.16,-0.78 -0.16,-0.78 -0.43,-0.63 -0.63,-0.43 -0.78,-0.16 -0.06,0 -0.31,-0.13 -0.13,-0.31 0,-1.96 0.13,-0.62 0.34,-0.51 0.51,-0.34 0.62,-0.13 Z M 12.19,8.56 l -0.16,0.03 -0.1,0.12 -0.69,1.66 -0.03,0.06 -1.09,1.42 -0.05,0.15 0.05,0.15 1.09,1.42 0.03,0.06 0.69,1.66 0.1,0.12 0.16,0.03 1.78,-0.24 0.06,0 1.78,0.24 0.16,-0.03 0.1,-0.12 0.69,-1.66 0.03,-0.06 1.09,-1.42 0.05,-0.15 -0.05,-0.15 -1.09,-1.42 -0.03,-0.06 -0.69,-1.66 -0.1,-0.12 -0.16,-0.03 -1.78,0.24 -0.06,0 -1.78,-0.24 Z M 14,14 l -0.78,-0.16 -0.63,-0.43 -0.43,-0.63 -0.16,-0.78 0.16,-0.78 0.43,-0.63 0.63,-0.43 0.78,-0.16 0.78,0.16 0.63,0.43 0.43,0.63 0.16,0.78 -0.16,0.78 -0.43,0.63 -0.63,0.43 -0.78,0.16 Z M 6.5,8.75 l 0,6.5 0.06,0.29 0.16,0.24 0.24,0.16 0.29,0.06 0.29,-0.06 0.24,-0.16 0.16,-0.24 0.06,-0.29 0,-6.5 -0.06,-0.29 -0.16,-0.24 -0.24,-0.16 -0.29,-0.06 -0.29,0.06 -0.24,0.16 -0.16,0.24 -0.06,0.29 Z" fill-rule="evenodd" fill="#000000" />
</svg>