<svg xmlns="http://www.w3.org/2000/svg" viewBox="0 0 24 24">
  <path id="voucherHorizontal3" d="M 2,7.6 l 0.13,-0.62 0.34,-0.51 0.51,-0.34 0.62,-0.13 16.8,0 0.62,0.13 0.51,0.34 0.34,0.51 0.13,0.62 0,1.96 -0.13,0.31 -0.31,0.13 -0.06,0 -0.78,0.16 -0.63,0.43 -0.43,0.63 -0.16,0.78 0.16,0.78 0.43,0.63 0.63,0.43 0.78,0.16 0.06,0 0.31,0.13 0.13,0.31 0,1.96 -0.13,0.62 -0.34,0.51 -0.51,0.34 -0.62,0.13 -16.8,0 -0.62,-0.13 -0.51,-0.34 -0.34,-0.51 -0.13,-0.62 0,-1.96 0.13,-0.31 0.31,-0.13 0.06,0 0.78,-0.16 0.63,-0.43 0.43,-0.63 0.16,-0.78 -0.16,-0.78 -0.43,-0.63 -0.63,-0.43 -0.78,-0.16 -0.06,0 -0.31,-0.13 -0.13,-0.31 0,-1.96 Z M 13.78,8.45 l -0.9,1.81 -0.19,0.14 -1.99,0.29 -0.2,0.17 0.06,0.26 1.44,1.41 0.08,0.22 -0.35,1.99 0.1,0.24 0.27,0.02 1.78,-0.94 0.24,0 1.78,0.94 0.27,-0.02 0.1,-0.24 -0.35,-1.99 0.08,-0.22 1.44,-1.41 0.06,-0.26 -0.2,-0.17 -1.99,-0.29 -0.19,-0.14 -0.9,-1.81 -0.22,-0.14 -0.22,0.14 Z M 7.75,7.5 l -0.29,0.06 -0.24,0.16 -0.16,0.24 -0.06,0.29 0,7.5 0.06,0.29 0.16,0.24 0.24,0.16 0.29,0.06 0.29,-0.06 0.24,-0.16 0.16,-0.24 0.06,-0.29 0,-7.5 -0.06,-0.29 -0.16,-0.24 -0.24,-0.16 -0.29,-0.06 Z" fill-rule="evenodd" fill="#000000" />
</svg>