<svg xmlns="http://www.w3.org/2000/svg" viewBox="0 0 24 24">
  <path id="voucherDiagonal3" d="M 3,15 l -0.31,-0.47 -0.1,-0.53 0.1,-0.53 0.31,-0.47 10,-10 0.47,-0.31 0.53,-0.1 0.53,0.1 0.47,0.31 1.24,1.24 0.1,0.26 -0.1,0.26 -0.39,0.58 -0.13,0.66 0.13,0.66 0.39,0.58 0.52,0.52 0.58,0.39 0.66,0.13 0.66,-0.13 0.58,-0.39 0.26,-0.11 0.26,0.11 1.24,1.24 0.31,0.47 0.1,0.53 -0.1,0.53 -0.31,0.47 -10,10 -0.47,0.31 -0.53,0.1 -0.53,-0.1 -0.47,-0.31 -1.24,-1.24 -0.1,-0.26 0.1,-0.26 0.39,-0.58 0.13,-0.66 -0.13,-0.66 -0.39,-0.58 -0.52,-0.52 -0.58,-0.39 -0.66,-0.13 -0.66,0.13 -0.58,0.39 -0.26,0.1 -0.26,-0.1 -1.24,-1.24 Z M 10.73,9.05 l 0.57,1.68 -0.03,0.23 -1.06,1.43 -0.03,0.26 0.23,0.14 1.78,-0.03 0.2,0.11 1.03,1.45 0.24,0.1 0.2,-0.17 0.53,-1.7 0.16,-0.16 1.7,-0.53 0.17,-0.2 -0.1,-0.24 -1.45,-1.03 -0.11,-0.2 0.03,-1.78 -0.14,-0.23 -0.26,0.03 -1.43,1.06 -0.23,0.03 -1.68,-0.57 -0.26,0.06 -0.06,0.26 Z M 5.81,11.82 l -0.16,0.25 -0.06,0.28 0.06,0.29 0.16,0.24 5.31,5.31 0.24,0.16 0.29,0.06 0.28,-0.06 0.25,-0.16 0.16,-0.25 0.06,-0.28 -0.06,-0.29 -0.16,-0.24 -5.31,-5.31 -0.24,-0.16 -0.29,-0.06 -0.28,0.06 -0.25,0.16 Z" fill-rule="evenodd" fill="#000000" />
</svg>