<svg xmlns="http://www.w3.org/2000/svg" viewBox="0 0 24 24">
  <path id="voucherDiagonal1" d="M 21,9 l 0.31,0.47 0.1,0.53 -0.1,0.53 -0.31,0.47 -10,10 -0.47,0.31 -0.53,0.1 -0.53,-0.1 -0.47,-0.31 -1.24,-1.24 -0.1,-0.26 0.1,-0.26 0.39,-0.58 0.13,-0.66 -0.13,-0.66 -0.39,-0.58 -0.52,-0.52 -0.58,-0.39 -0.66,-0.13 -0.66,0.13 -0.58,0.39 -0.26,0.1 -0.26,-0.1 -1.24,-1.24 -0.31,-0.47 -0.1,-0.53 0.1,-0.53 0.31,-0.47 10,-10 0.47,-0.31 0.53,-0.1 0.53,0.1 0.47,0.31 1.24,1.24 0.1,0.26 -0.1,0.26 -0.39,0.58 -0.13,0.66 0.13,0.66 0.39,0.58 0.52,0.52 0.58,0.39 0.66,0.13 0.66,-0.13 0.58,-0.39 0.26,-0.11 0.26,0.11 1.24,1.24 Z M 12.15,10.84 l -2.29,0.02 -0.23,-0.35 -0.32,-0.27 -0.38,-0.18 -0.43,-0.06 -0.58,0.12 -0.48,0.32 -0.32,0.48 -0.12,0.58 0.12,0.58 0.32,0.48 0.48,0.32 0.58,0.12 0.12,0 0.91,1.64 -0.39,0.62 -0.14,0.74 0.16,0.78 0.43,0.63 0.63,0.43 0.78,0.16 0.78,-0.16 0.63,-0.43 0.43,-0.63 0.16,-0.78 -0.14,-0.75 -0.4,-0.61 0.91,-1.65 0.13,0.01 0.58,-0.12 0.48,-0.32 0.32,-0.48 0.12,-0.58 -0.12,-0.58 -0.32,-0.48 -0.48,-0.32 -0.58,-0.12 -0.43,0.06 -0.38,0.17 -0.31,0.27 -0.23,0.34 Z M 18.19,11.12 l -5.31,-5.31 -0.24,-0.16 -0.29,-0.06 -0.28,0.06 -0.25,0.16 -0.16,0.25 -0.06,0.28 0.06,0.29 0.16,0.24 5.31,5.31 0.24,0.16 0.29,0.06 0.28,-0.06 0.25,-0.16 0.16,-0.25 0.06,-0.28 -0.06,-0.29 -0.16,-0.24 Z M 10.62,14.04 l -0.91,-1.65 0.16,-0.28 2.25,-0.02 0.16,0.29 -0.91,1.65 -0.37,-0.03 -0.38,0.04 Z" fill-rule="evenodd" fill="#000000" />
</svg>