<svg xmlns="http://www.w3.org/2000/svg" viewBox="0 0 48 48">
  <path id="voucherOutline" d="M 19.52,8.04 l 0.54,-0.14 0.53,0.19 3.95,2.78 4.44,-1.9 0.55,-0.07 0.51,0.24 0.29,0.48 -0.01,0.56 -1.43,4.61 3.19,3.64 0.23,0.5 -0.07,0.56 -0.36,0.43 -0.54,0.16 -4.83,0.07 -2.47,4.15 -0.41,0.38 -0.55,0.1 -0.52,-0.21 -0.33,-0.46 -1.55,-4.57 -4.71,-1.07 -0.49,-0.27 -0.27,-0.5 0.05,-0.56 0.33,-0.45 3.87,-2.89 -0.44,-4.81 0.11,-0.55 0.39,-0.4 Z M 10.13,25 l 4.5,7.79 0.53,0.6 0.69,0.34 0.76,0.05 0.75,-0.25 22.52,-13 0.6,-0.53 0.33,-0.69 0.06,-0.76 -0.26,-0.76 -3.82,-6.62 -3.9,2.36 -1.04,-1.71 3.84,-2.33 -0.52,-0.33 -0.58,-0.15 -0.62,0.03 -0.59,0.23 -0.86,0.5 -1,-1.73 0.86,-0.5 0.74,-0.34 0.77,-0.17 0.77,-0.02 0.76,0.13 0.72,0.27 0.65,0.4 0.58,0.53 0.48,0.66 4.5,7.79 0.33,0.74 0.17,0.77 0.02,0.77 -0.12,0.76 -0.27,0.72 -0.41,0.66 -0.53,0.58 -0.66,0.47 -22.52,13 -0.73,0.33 -0.77,0.18 -0.77,0.02 -0.76,-0.13 -0.72,-0.27 -0.66,-0.4 -0.58,-0.54 -0.47,-0.66 -4.5,-7.79 -0.33,-0.74 -0.18,-0.76 -0.02,-0.78 0.13,-0.75 0.27,-0.72 0.4,-0.66 0.54,-0.58 0.65,-0.47 3.47,-2 1,1.73 -3.47,2 -0.59,0.52 -0.34,0.69 -0.05,0.77 0.25,0.75 Z M 12.23,38.03 l 0.36,0.49 0.43,0.4 0.49,0.3 0.54,0.2 0.57,0.1 0.58,-0.02 0.58,-0.13 0.55,-0.25 24.25,-14 1,1.74 -24.25,14 -0.92,0.41 -0.96,0.22 -0.97,0.02 -0.94,-0.15 -0.9,-0.34 -0.83,-0.5 -0.72,-0.67 -0.59,-0.82 -5.5,-9.53 1.73,-1 5.5,9.53 Z M 21.21,10.97 l 0.29,3.21 -0.08,0.5 -0.31,0.39 -2.58,1.93 3.14,0.71 0.45,0.23 0.27,0.42 1.04,3.05 1.65,-2.77 0.36,-0.35 0.48,-0.13 3.22,-0.05 -2.12,-2.42 -0.23,-0.45 0.03,-0.5 0.95,-3.08 -2.96,1.27 -0.5,0.08 -0.47,-0.18 -2.63,-1.86 Z M 12.87,25.07 l -1.04,-1.71 4.73,-2.87 1.04,1.71 -4.73,2.87 Z" fill-rule="evenodd" fill="#000000" />
</svg>