<svg xmlns="http://www.w3.org/2000/svg" viewBox="0 0 24 24">
  <path id="voucherHorizontal1" d="M 22,16.4 l -0.13,0.62 -0.34,0.51 -0.51,0.34 -0.62,0.13 -16.8,0 -0.62,-0.13 -0.51,-0.34 -0.34,-0.51 -0.13,-0.62 0,-1.96 0.13,-0.31 0.31,-0.13 0.06,0 0.78,-0.16 0.63,-0.43 0.43,-0.63 0.16,-0.78 -0.16,-0.78 -0.43,-0.63 -0.63,-0.43 -0.78,-0.16 -0.06,0 -0.31,-0.13 -0.13,-0.31 0,-1.96 0.13,-0.62 0.34,-0.51 0.51,-0.34 0.62,-0.13 16.8,0 0.62,0.13 0.51,0.34 0.34,0.51 0.13,0.62 0,1.96 -0.13,0.31 -0.31,0.13 -0.06,0 -0.78,0.16 -0.63,0.43 -0.43,0.63 -0.16,0.78 0.16,0.78 0.43,0.63 0.63,0.43 0.78,0.16 0.06,0 0.31,0.13 0.13,0.31 0,1.96 Z M 7.55,13.05 l -0.62,0.26 -0.49,0.44 -0.32,0.57 -0.12,0.68 0.16,0.78 0.43,0.63 0.63,0.43 0.78,0.16 0.78,-0.16 0.63,-0.43 0.43,-0.63 0.16,-0.78 -0.04,-0.38 1.65,-0.91 0.41,0.21 0.48,0.08 0.58,-0.12 0.48,-0.32 0.32,-0.48 0.12,-0.58 -0.12,-0.58 -0.32,-0.48 -0.48,-0.32 -0.58,-0.12 -0.72,0.18 -1.81,-1.36 0.03,-0.32 -0.12,-0.58 -0.32,-0.48 -0.48,-0.32 -0.58,-0.12 -0.58,0.12 -0.48,0.32 -0.32,0.48 -0.12,0.58 0.05,0.4 0.16,0.36 0.24,0.31 0.3,0.23 -0.2,2.25 Z M 16.75,16 l 0.29,-0.06 0.24,-0.16 0.16,-0.24 0.06,-0.29 0,-6.5 -0.06,-0.29 -0.16,-0.24 -0.24,-0.16 -0.29,-0.06 -0.29,0.06 -0.24,0.16 -0.16,0.24 -0.06,0.29 0,6.5 0.06,0.29 0.16,0.24 0.24,0.16 0.29,0.06 Z M 9.36,13.53 l -0.57,-0.37 0.21,-2.24 0.22,-0.1 1.81,1.36 -0.03,0.32 0,0.12 -1.64,0.91 Z" fill-rule="evenodd" fill="#000000" />
</svg>