<svg xmlns="http://www.w3.org/2000/svg" viewBox="0 0 48 48">
  <path id="water" d="M 32.13,14.09 l 4.05,5.21 0.72,0.76 0.84,0.57 0.92,0.39 0.96,0.2 0.99,0.01 0.98,-0.18 0.94,-0.39 0.87,-0.58 3.2,3.84 -0.84,0.63 -0.89,0.53 -0.92,0.43 -0.95,0.33 -1.94,0.37 -1.97,-0.02 -1.93,-0.4 -1.83,-0.77 -0.85,-0.53 -0.81,-0.62 -0.75,-0.7 -0.69,-0.8 -0.39,-0.5 -0.85,0.72 -0.91,0.63 -0.94,0.53 -0.99,0.43 -2.04,0.58 -2.11,0.19 -2.11,-0.19 -2.04,-0.58 -0.99,-0.43 -0.94,-0.53 -0.91,-0.63 -0.85,-0.72 -0.39,0.5 -0.69,0.8 -0.75,0.7 -0.81,0.62 -0.85,0.53 -1.83,0.77 -1.93,0.4 -1.97,0.02 -1.94,-0.37 -0.95,-0.33 -0.92,-0.43 -0.89,-0.53 -0.84,-0.63 3.2,-3.84 0.87,0.58 0.94,0.39 0.98,0.18 0.99,-0.01 0.96,-0.2 0.92,-0.39 0.84,-0.57 0.72,-0.76 4.05,-5.21 3.27,3.68 1.06,0.96 1.19,0.68 1.28,0.41 1.33,0.13 1.33,-0.13 1.28,-0.41 1.19,-0.68 1.06,-0.96 3.27,-3.68 Z M 23.87,28.09 l 3.27,3.68 1.06,0.96 1.19,0.68 1.28,0.41 1.33,0.13 1.33,-0.13 1.28,-0.41 1.19,-0.68 1.06,-0.96 1.27,-1.43 3.74,3.32 -1.27,1.43 -0.86,0.87 -0.92,0.75 -0.97,0.65 -1.02,0.54 -1.06,0.42 -1.09,0.32 -1.12,0.21 -1.12,0.09 -1.13,-0.01 -1.12,-0.12 -1.11,-0.23 -1.08,-0.34 -1.05,-0.45 -1.02,-0.56 -0.96,-0.67 -0.91,-0.78 -0.86,0.74 -0.91,0.64 -0.97,0.55 -1,0.44 -1.04,0.35 -1.06,0.24 -1.08,0.14 -1.08,0.05 -1.09,-0.06 -1.07,-0.16 -1.07,-0.27 -1.04,-0.37 -1.01,-0.47 -0.97,-0.57 -0.92,-0.69 -0.87,-0.78 -1.79,-1.79 3.54,-3.54 1.79,1.79 1.11,0.9 1.24,0.61 1.31,0.33 1.34,0.05 1.32,-0.22 1.26,-0.49 1.15,-0.76 1,-1.02 2.58,-3.33 Z" fill-rule="evenodd" fill="#000000" />
</svg>