<svg xmlns="http://www.w3.org/2000/svg" viewBox="0 0 24 24">
  <path id="wavesSignalReceived" d="M 9.24,8.17 l -0.93,-1.73 -1.24,-1.51 1.42,-1.42 0.79,0.88 0.7,0.94 0.6,1.01 0.51,1.07 0.39,1.11 0.29,1.14 0.17,1.16 0.06,1.18 -0.06,1.18 -0.17,1.16 -0.29,1.14 -0.39,1.11 -0.51,1.07 -0.6,1.01 -0.7,0.94 -0.79,0.88 -1.42,-1.42 1.24,-1.51 0.93,-1.73 0.57,-1.88 0.19,-1.95 -0.19,-1.95 -0.57,-1.88 Z M 18,15 l -0.6,-0.06 -0.57,-0.18 -0.51,-0.27 -0.44,-0.37 -0.37,-0.44 -0.27,-0.51 -0.18,-0.57 -0.06,-0.6 0.06,-0.6 0.18,-0.57 0.27,-0.51 0.37,-0.44 0.44,-0.37 0.51,-0.27 0.57,-0.18 0.6,-0.06 0.6,0.06 0.57,0.18 0.51,0.27 0.44,0.37 0.37,0.44 0.27,0.51 0.18,0.57 0.06,0.6 -0.06,0.6 -0.18,0.57 -0.27,0.51 -0.37,0.44 -0.44,0.37 -0.51,0.27 -0.57,0.18 -0.6,0.06 Z M 5.54,9.7 l -0.55,-1.03 -0.75,-0.91 1.42,-1.42 0.99,1.22 0.74,1.38 0.46,1.5 0.15,1.56 -0.15,1.56 -0.46,1.5 -0.74,1.38 -0.99,1.22 -1.42,-1.42 0.75,-0.91 0.55,-1.03 0.34,-1.13 0.12,-1.17 -0.12,-1.17 -0.34,-1.13 Z M 10.95,20.72 l 0.84,-1.17 0.71,-1.25 0.58,-1.31 0.44,-1.37 1.93,0.52 -0.5,1.56 -0.66,1.5 -0.81,1.43 -0.96,1.33 -1.57,-1.24 Z M 13.53,8.4 l -0.44,-1.36 -0.57,-1.31 -0.71,-1.24 -0.83,-1.17 1.57,-1.24 0.95,1.33 0.81,1.42 0.65,1.5 0.5,1.56 -1.93,0.51 Z M 15.59,3 l 1.73,-1 1.16,2.35 0.84,2.47 -1.93,0.52 -0.76,-2.23 -1.04,-2.11 Z M 17.39,16.66 l 1.93,0.52 -0.84,2.47 -1.16,2.35 -1.73,-1 1.04,-2.11 0.76,-2.23 Z" fill-rule="evenodd" fill="#000000" />
</svg>