<svg xmlns="http://www.w3.org/2000/svg" viewBox="0 0 24 24">
  <path id="wavesSignalSentRight" d="M 19,12.06 l -0.05,-1.19 -0.14,-1.17 -0.58,-2.27 -0.94,-2.14 -0.61,-1.01 -0.7,-0.96 1.57,-1.24 0.8,1.09 0.69,1.16 0.59,1.2 0.49,1.25 0.39,1.28 0.27,1.32 0.17,1.33 0.05,1.36 -0.06,1.35 -0.18,1.33 -0.28,1.31 -0.4,1.28 -0.5,1.25 -0.6,1.2 -0.71,1.14 -0.8,1.09 -1.56,-1.25 0.7,-0.95 0.62,-1.01 0.97,-2.13 0.59,-2.27 0.15,-1.17 0.06,-1.18 Z M 6,9 l 3,3 -3,3 -3,0 0,-6 3,0 Z M 13.66,7 l 1.73,-1 0.7,1.41 0.5,1.48 0.31,1.54 0.1,1.57 -0.1,1.57 -0.31,1.54 -0.5,1.48 -0.7,1.41 -1.73,-1 0.58,-1.18 0.42,-1.23 0.25,-1.28 0.09,-1.31 -0.09,-1.31 -0.25,-1.28 -0.42,-1.23 -0.58,-1.18 Z M 9.24,7.76 l 1.42,-1.42 0.99,1.22 0.74,1.38 0.46,1.5 0.15,1.56 -0.15,1.56 -0.46,1.5 -0.74,1.38 -0.99,1.22 -1.42,-1.42 0.75,-0.91 0.55,-1.03 0.34,-1.13 0.12,-1.17 -0.12,-1.17 -0.34,-1.13 -0.55,-1.03 -0.75,-0.91 Z" fill-rule="evenodd" fill="#000000" />
</svg>