<svg xmlns="http://www.w3.org/2000/svg" viewBox="0 0 24 24">
  <path id="wavesSignalSentLeft" d="M 5,11.98 l 0.05,1.18 0.14,1.16 0.58,2.27 0.95,2.13 0.61,1.01 0.69,0.95 -1.57,1.24 -0.79,-1.09 -0.7,-1.15 -0.59,-1.2 -0.49,-1.24 -0.38,-1.28 -0.28,-1.3 -0.17,-1.33 -0.05,-1.35 0.06,-1.35 0.17,-1.33 0.28,-1.31 0.39,-1.27 0.49,-1.24 0.6,-1.2 0.69,-1.15 0.8,-1.09 1.56,1.25 -0.69,0.95 -0.61,1 -0.95,2.14 -0.59,2.26 -0.15,1.16 -0.05,1.18 Z M 18,15 l -3,-3 3,-3 3,0 0,6 -3,0 Z M 10.34,17 l -1.73,1 -0.7,-1.41 -0.5,-1.48 -0.31,-1.54 -0.1,-1.57 0.1,-1.57 0.31,-1.54 0.5,-1.48 0.7,-1.41 1.73,1 -0.58,1.18 -0.42,1.23 -0.25,1.28 -0.09,1.31 0.09,1.31 0.25,1.28 0.42,1.23 0.58,1.18 Z M 14.76,16.24 l -1.42,1.42 -0.99,-1.22 -0.74,-1.38 -0.46,-1.5 -0.15,-1.56 0.15,-1.56 0.46,-1.5 0.74,-1.38 0.99,-1.22 1.42,1.42 -0.75,0.91 -0.55,1.03 -0.34,1.13 -0.12,1.17 0.12,1.17 0.34,1.13 0.55,1.03 0.75,0.91 Z" fill-rule="evenodd" fill="#000000" />
</svg>