<svg xmlns="http://www.w3.org/2000/svg" viewBox="0 0 24 24">
  <path id="weather" d="M 8,13 l 0.68,0.06 0.64,0.16 0.32,-0.68 0.42,-0.61 0.5,-0.55 0.57,-0.47 0.64,-0.39 0.7,-0.28 0.75,-0.18 0.78,-0.06 1.01,0.1 0.94,0.29 0.85,0.46 0.74,0.61 0.61,0.74 0.46,0.85 0.29,0.94 0.1,1.01 0.6,0.06 0.57,0.18 0.51,0.27 0.44,0.37 0.37,0.44 0.27,0.51 0.18,0.57 0.06,0.6 -0.06,0.6 -0.18,0.57 -0.27,0.51 -0.37,0.44 -0.44,0.37 -0.51,0.27 -0.57,0.18 -0.6,0.06 -11,0 -0.81,-0.08 -0.75,-0.23 -0.68,-0.37 -0.59,-0.49 -0.49,-0.59 -0.37,-0.68 -0.23,-0.75 -0.08,-0.81 0.08,-0.81 0.23,-0.75 0.37,-0.68 0.49,-0.59 0.59,-0.49 0.68,-0.37 0.75,-0.23 0.81,-0.08 Z M 8.51,11.52 l -0.51,-0.02 -1.01,0.09 -0.95,0.27 -0.4,-0.88 -0.14,-0.98 0.07,-0.71 0.21,-0.65 0.32,-0.6 0.43,-0.51 0.51,-0.43 0.6,-0.32 0.65,-0.21 0.71,-0.07 1.07,0.17 0.93,0.46 0.75,0.7 0.51,0.9 -1.13,0.43 -1.01,0.63 -0.89,0.79 -0.72,0.94 Z M 12.54,6.46 l -0.22,-0.31 -0.09,-0.36 0.04,-0.36 0.2,-0.31 0.77,-0.78 0.33,-0.22 0.38,-0.07 0.38,0.07 0.33,0.22 0.22,0.33 0.07,0.38 -0.07,0.38 -0.22,0.33 -0.78,0.77 -0.31,0.2 -0.36,0.04 -0.36,-0.09 -0.31,-0.22 Z M 5.53,5.12 l 0.2,0.31 0.04,0.36 -0.09,0.36 -0.22,0.31 -0.31,0.22 -0.36,0.09 -0.36,-0.04 -0.31,-0.2 -0.78,-0.77 -0.22,-0.33 -0.07,-0.38 0.07,-0.38 0.22,-0.33 0.33,-0.22 0.38,-0.07 0.38,0.07 0.33,0.22 0.77,0.78 Z M 8,4.09 l 0,-1.09 0.08,-0.39 0.21,-0.32 0.32,-0.21 0.39,-0.08 0.39,0.08 0.32,0.21 0.21,0.32 0.08,0.39 0,1.09 -0.08,0.36 -0.22,0.29 -0.32,0.19 -0.38,0.07 -0.38,-0.07 -0.32,-0.19 -0.22,-0.29 -0.08,-0.36 Z M 3.09,11 l -1.09,0 -0.39,-0.08 -0.32,-0.21 -0.21,-0.32 -0.08,-0.39 0.08,-0.39 0.21,-0.32 0.32,-0.21 0.39,-0.08 1.09,0 0.36,0.08 0.29,0.22 0.19,0.32 0.07,0.38 -0.07,0.38 -0.19,0.32 -0.29,0.22 -0.36,0.08 Z" fill-rule="evenodd" fill="#000000" />
</svg>