<svg xmlns="http://www.w3.org/2000/svg" viewBox="0 0 24 24">
  <path id="weight" d="M 14,7.24 l 0,1.76 3.24,0 0.32,0.05 0.28,0.16 0.22,0.23 0.14,0.3 2.46,9 0.01,0.46 -0.18,0.41 -0.35,0.28 -0.45,0.11 -15.38,0 -0.45,-0.11 -0.35,-0.28 -0.18,-0.41 0.01,-0.46 2.46,-9 0.14,-0.3 0.22,-0.23 0.28,-0.16 0.32,-0.05 3.24,0 0,-1.76 -0.42,-0.46 -0.31,-0.53 -0.2,-0.6 -0.07,-0.65 0.06,-0.6 0.18,-0.57 0.27,-0.51 0.37,-0.44 0.44,-0.37 0.51,-0.27 0.57,-0.18 0.6,-0.06 0.6,0.06 0.57,0.18 0.51,0.27 0.44,0.37 0.37,0.44 0.27,0.51 0.18,0.57 0.06,0.6 -0.07,0.65 -0.2,0.6 -0.31,0.53 -0.42,0.46 Z M 12,6.5 l 0.58,-0.12 0.48,-0.32 0.32,-0.48 0.12,-0.58 -0.12,-0.58 -0.32,-0.48 -0.48,-0.32 -0.58,-0.12 -0.58,0.12 -0.48,0.32 -0.32,0.48 -0.12,0.58 0.12,0.58 0.32,0.48 0.48,0.32 0.58,0.12 Z" fill-rule="evenodd" fill="#000000" />
</svg>