<svg xmlns="http://www.w3.org/2000/svg" viewBox="0 0 24 24">
  <path id="wheelDiscCoins" d="M 11.16,20.96 l -1.66,-0.31 -1.54,-0.61 -1.39,-0.86 -1.2,-1.1 -0.99,-1.29 -0.75,-1.47 -0.47,-1.61 -0.16,-1.71 0.18,-1.81 0.53,-1.69 0.83,-1.53 1.1,-1.33 1.33,-1.1 1.53,-0.83 1.69,-0.53 1.81,-0.18 1.5,0.13 1.43,0.36 1.32,0.58 1.21,0.77 1.06,0.95 0.9,1.11 0.71,1.24 0.52,1.36 -0.24,-0.11 -1.35,-0.42 -1.55,-0.2 0.13,-0.13 0.08,-0.18 -0.07,-0.47 -0.23,-0.41 -0.61,-0.66 -0.69,-0.58 -0.76,-0.48 -0.82,-0.39 -0.47,-0.08 -0.47,0.08 -0.15,0.12 -0.17,0.35 -0.19,0.58 0,0.6 0.32,2.25 -0.04,0.02 -0.87,0.48 0,-0.03 -0.15,-0.36 -0.35,-0.14 -0.35,0.14 -0.15,0.36 0.14,0.34 0.33,0.16 -0.28,0.37 -0.21,0.44 -0.35,0.35 -0.13,0.5 0.1,0.43 0.26,0.34 0,0.29 0.05,0.44 0.13,0.4 0.44,0.66 -1.97,2.03 -0.35,0.49 -0.19,0.57 -0.06,0.39 0.04,0.18 0.34,0.35 0.43,0.2 0.53,0.12 0,0.81 0.12,0.69 0.29,0.57 Z M 21.17,11.83 l 0,1.23 -0.09,0.37 -0.25,0.34 -0.39,0.31 -0.53,0.27 -0.63,0.23 -0.73,0.16 -1.66,0.15 -1.67,-0.15 -0.72,-0.16 -0.64,-0.23 -0.52,-0.27 -0.39,-0.31 -0.25,-0.34 -0.09,-0.37 0,-1.23 0.09,-0.37 0.25,-0.34 0.39,-0.31 0.52,-0.27 0.64,-0.23 0.72,-0.17 1.67,-0.14 1.66,0.14 0.73,0.17 0.63,0.23 0.53,0.27 0.39,0.31 0.25,0.34 0.09,0.37 Z M 14.46,15.45 l 1.16,0.24 1.27,0.08 1.45,-0.11 1.3,-0.3 1.11,-0.47 0.86,-0.61 0.58,0.28 0.44,0.32 0.27,0.36 0.1,0.39 0,1.22 -0.09,0.37 -0.25,0.35 -0.39,0.31 -0.52,0.27 -0.64,0.22 -0.72,0.17 -1.67,0.15 -1.66,-0.15 -0.73,-0.17 -0.63,-0.22 -0.52,-0.27 -0.4,-0.31 -0.25,-0.35 -0.09,-0.37 0,-1.22 0.02,-0.18 Z M 20.56,19.55 l 0,0.15 -0.09,0.37 -0.25,0.35 -0.39,0.31 -0.53,0.27 -0.63,0.23 -0.73,0.16 -1.66,0.15 -1.67,-0.15 -0.72,-0.16 -0.64,-0.23 -0.52,-0.27 -0.39,-0.31 -0.25,-0.35 -0.09,-0.37 0,-1.22 0.14,-0.32 0.27,-0.31 0.38,-0.27 0.48,-0.25 0.23,0.49 0.39,0.45 0.54,0.4 0.66,0.35 0.78,0.29 0.88,0.21 0.95,0.14 1.02,0.04 1.84,-0.15 Z M 6.28,8.46 l 0.08,0.18 0.27,0.27 0.49,0.35 0.57,0.2 2.82,0.49 0.4,-2.83 0,-0.6 -0.19,-0.58 -0.17,-0.35 -0.15,-0.12 -0.47,-0.08 -0.47,0.08 -0.82,0.39 -0.76,0.48 -0.69,0.58 -0.61,0.66 -0.23,0.41 -0.07,0.47 Z M 9.59,12.78 l -2.57,-1.25 -0.57,-0.18 -0.61,-0.01 -0.38,0.06 -0.17,0.1 -0.22,0.42 -0.06,0.47 0.11,0.9 0.22,0.87 0.34,0.84 0.44,0.79 0.32,0.34 0.43,0.22 0.19,-0.02 0.34,-0.18 0.49,-0.36 0.36,-0.48 1.34,-2.53 Z M 10.32,13.46 l -0.08,0.37 0.2,0.32 0.37,0.09 0.32,-0.2 0.09,-0.37 -0.2,-0.33 -0.37,-0.08 -0.33,0.2 Z M 10.42,11.49 l -0.03,-0.39 -0.29,-0.24 -0.38,0.03 -0.25,0.29 0.03,0.38 0.29,0.25 0.38,-0.03 0.25,-0.29 Z" fill-rule="evenodd" fill="#000000" />
</svg>