<svg xmlns="http://www.w3.org/2000/svg" viewBox="0 0 48 48">
  <path id="wheelOutline" d="M 34.63,38.58 l -1.36,1.04 -1.51,0.75 -1.63,0.47 -1.7,0.16 -9,0 -1.21,-0.09 -1.19,-0.26 -1.15,-0.42 -1.1,-0.55 -1.06,-0.66 -0.98,-0.77 -0.92,-0.84 -0.82,-0.91 -1.84,-2.4 -0.84,-1.34 -0.76,-1.46 -0.64,-1.59 -0.49,-1.73 -0.32,-1.9 -0.11,-2.08 0.09,-1.84 0.28,-1.79 0.44,-1.72 0.6,-1.66 0.76,-1.57 0.9,-1.48 1.04,-1.39 1.16,-1.28 1.28,-1.16 1.39,-1.04 1.48,-0.9 1.57,-0.76 1.66,-0.6 1.72,-0.44 1.79,-0.28 1.84,-0.09 1.84,0.09 1.79,0.28 1.72,0.44 1.66,0.6 1.57,0.76 1.48,0.9 1.39,1.04 1.28,1.16 1.16,1.28 1.04,1.39 0.9,1.48 0.76,1.57 0.6,1.66 0.44,1.72 0.28,1.79 0.09,1.84 -0.13,2.14 -0.36,2.07 -0.6,1.98 -0.81,1.87 -1.01,1.76 -1.2,1.63 -1.37,1.48 -1.52,1.32 -0.37,0.33 Z M 33.71,36.72 l 0.07,-0.05 1.35,-1.18 1.22,-1.31 1.06,-1.45 0.9,-1.56 0.72,-1.67 0.53,-1.76 0.33,-1.84 0.11,-1.9 -0.08,-1.64 -0.25,-1.58 -0.39,-1.54 -0.54,-1.47 -0.67,-1.4 -0.8,-1.32 -0.92,-1.23 -1.04,-1.13 -1.13,-1.04 -1.23,-0.92 -1.32,-0.8 -1.4,-0.67 -1.47,-0.54 -1.54,-0.39 -1.58,-0.25 -1.64,-0.08 -1.64,0.08 -1.58,0.25 -1.54,0.39 -1.47,0.54 -1.4,0.67 -1.32,0.8 -1.23,0.92 -1.13,1.04 -1.04,1.13 -0.92,1.23 -0.8,1.32 -0.67,1.4 -0.54,1.47 -0.39,1.54 -0.25,1.58 -0.08,1.64 0.1,1.83 0.27,1.68 0.44,1.54 0.57,1.41 0.68,1.31 0.77,1.21 1.71,2.24 1.51,1.53 0.84,0.64 0.87,0.55 0.9,0.45 0.92,0.33 0.93,0.21 0.92,0.07 9,0 1.33,-0.12 1.27,-0.37 1.19,-0.59 1.06,-0.81 0.43,-0.39 Z M 24,33 l -1.81,-0.18 -1.69,-0.53 -1.53,-0.83 -1.33,-1.1 -1.1,-1.33 -0.83,-1.53 -0.53,-1.69 -0.18,-1.81 0.18,-1.81 0.53,-1.69 0.83,-1.53 1.1,-1.33 1.33,-1.1 1.53,-0.83 1.69,-0.53 1.81,-0.18 1.81,0.18 1.69,0.53 1.53,0.83 1.33,1.1 1.1,1.33 0.83,1.53 0.53,1.69 0.18,1.81 -0.18,1.81 -0.53,1.69 -0.83,1.53 -1.1,1.33 -1.33,1.1 -1.53,0.83 -1.69,0.53 -1.81,0.18 Z M 24,31 l 1.41,-0.14 1.31,-0.41 1.19,-0.65 1.04,-0.85 0.85,-1.04 0.65,-1.19 0.41,-1.31 0.14,-1.41 -0.14,-1.41 -0.41,-1.31 -0.65,-1.19 -0.85,-1.04 -1.04,-0.85 -1.19,-0.65 -1.31,-0.41 -1.41,-0.14 -1.41,0.14 -1.31,0.41 -1.19,0.65 -1.04,0.85 -0.85,1.04 -0.65,1.19 -0.41,1.31 -0.14,1.41 0.14,1.41 0.41,1.31 0.65,1.19 0.85,1.04 1.04,0.85 1.19,0.65 1.31,0.41 1.41,0.14 Z M 8,42 l 32,0 0,2 -32,0 0,-2 Z M 16.03,15.58 l -1.12,1.23 -0.93,1.37 -0.73,1.49 -0.51,1.58 -0.28,1.64 -0.04,1.65 0.2,1.65 0.43,1.61 -1.89,0.65 -0.51,-1.88 -0.23,-1.93 0.05,-1.94 0.33,-1.93 0.6,-1.85 0.85,-1.75 1.09,-1.6 1.32,-1.44 1.51,-1.24 1.66,-1 1.79,-0.75 1.88,-0.5 1.94,-0.22 1.94,0.06 1.91,0.33 1.86,0.61 -0.76,1.85 -1.58,-0.51 -1.63,-0.29 -1.66,-0.05 -1.65,0.19 -1.61,0.42 -1.52,0.64 -1.42,0.86 -1.29,1.05 Z M 27.53,27.54 l -0.75,0.61 -0.87,0.47 -0.95,0.29 -0.97,0.09 0.01,-2 0.57,-0.06 0.57,-0.17 0.53,-0.28 0.45,-0.37 1.41,1.42 Z M 22.09,19.38 l 0.95,-0.29 0.97,-0.09 -0.01,2 -0.57,0.06 -0.57,0.17 -0.53,0.28 -0.45,0.37 -1.41,-1.42 0.75,-0.61 0.87,-0.47 Z M 19.38,25.91 l -0.29,-0.95 -0.09,-0.97 2,0.01 0.06,0.57 0.17,0.57 0.28,0.53 0.37,0.45 -1.42,1.41 -0.61,-0.75 -0.47,-0.87 Z M 27.54,20.47 l 0.61,0.75 0.47,0.87 0.29,0.95 0.09,0.97 -2,-0.01 -0.06,-0.57 -0.17,-0.57 -0.28,-0.53 -0.37,-0.45 1.42,-1.41 Z" fill-rule="evenodd" fill="#000000" />
</svg>