<svg xmlns="http://www.w3.org/2000/svg" viewBox="0 0 48 48">
  <path id="wheelBeamsNodesOutline" d="M 33,24 l -0.18,1.81 -0.53,1.69 -0.83,1.53 -1.1,1.33 -1.33,1.1 -1.53,0.83 -1.69,0.53 -1.81,0.18 -1.81,-0.18 -1.69,-0.53 -1.53,-0.83 -1.33,-1.1 -1.1,-1.33 -0.83,-1.53 -0.53,-1.69 -0.18,-1.81 0.18,-1.81 0.53,-1.69 0.83,-1.53 1.1,-1.33 1.33,-1.1 1.53,-0.83 1.69,-0.53 1.81,-0.18 1.81,0.18 1.69,0.53 1.53,0.83 1.33,1.1 1.1,1.33 0.83,1.53 0.53,1.69 0.18,1.81 Z M 24,31 l 1.41,-0.14 1.31,-0.41 1.19,-0.65 1.04,-0.85 0.85,-1.04 0.65,-1.19 0.41,-1.31 0.14,-1.41 -0.14,-1.41 -0.41,-1.31 -0.65,-1.19 -0.85,-1.04 -1.04,-0.85 -1.19,-0.65 -1.31,-0.41 -1.41,-0.14 -1.41,0.14 -1.31,0.41 -1.19,0.65 -1.04,0.85 -0.85,1.04 -0.65,1.19 -0.41,1.31 -0.14,1.41 0.14,1.41 0.41,1.31 0.65,1.19 0.85,1.04 1.04,0.85 1.19,0.65 1.31,0.41 1.41,0.14 Z M 8,44 l 0,-2 32,0 0,2 -32,0 Z M 28.61,38.2 l -0.05,0.88 -0.37,0.77 -0.63,0.57 -0.83,0.3 -0.88,-0.05 -0.77,-0.37 -0.57,-0.63 -0.3,-0.83 0.05,-0.88 0.37,-0.77 0.63,-0.57 0.83,-0.3 0.88,0.05 0.76,0.37 0.58,0.63 0.3,0.83 Z M 35.28,8.86 l 0.59,0.66 0.28,0.8 -0.04,0.85 -0.38,0.8 -0.65,0.59 -0.81,0.28 -0.85,-0.04 -0.8,-0.38 -0.59,-0.65 -0.28,-0.81 0.04,-0.85 0.38,-0.79 0.66,-0.59 0.8,-0.28 0.85,0.04 0.8,0.37 Z M 9.32,15.83 l -0.59,-0.66 -0.28,-0.8 0.04,-0.85 0.37,-0.8 0.66,-0.59 0.8,-0.28 0.85,0.04 0.8,0.38 0.59,0.65 0.28,0.81 -0.04,0.85 -0.38,0.8 -0.65,0.58 -0.81,0.29 -0.85,-0.04 -0.79,-0.38 Z M 9.72,26.09 l -0.05,0.88 -0.37,0.76 -0.63,0.58 -0.83,0.3 -0.88,-0.05 -0.77,-0.37 -0.57,-0.63 -0.3,-0.83 0.05,-0.88 0.37,-0.77 0.63,-0.57 0.83,-0.3 0.88,0.05 0.77,0.37 0.57,0.63 0.3,0.83 Z M 36.03,35.73 l -0.59,-0.65 -0.28,-0.81 0.04,-0.85 0.38,-0.8 0.65,-0.58 0.81,-0.29 0.85,0.04 0.79,0.38 0.59,0.66 0.28,0.8 -0.04,0.85 -0.37,0.8 -0.66,0.59 -0.8,0.28 -0.85,-0.04 -0.8,-0.38 Z M 15.38,35.58 l 0.58,0.65 0.29,0.81 -0.04,0.85 -0.38,0.79 -0.66,0.59 -0.8,0.28 -0.85,-0.04 -0.8,-0.37 -0.59,-0.66 -0.28,-0.8 0.04,-0.85 0.38,-0.8 0.65,-0.59 0.81,-0.28 0.85,0.04 0.8,0.38 Z M 23.79,7.2 l -0.05,0.88 -0.37,0.77 -0.63,0.57 -0.83,0.3 -0.88,-0.05 -0.77,-0.37 -0.57,-0.63 -0.3,-0.83 0.05,-0.88 0.37,-0.77 0.63,-0.57 0.83,-0.3 0.88,0.05 0.77,0.37 0.57,0.63 0.3,0.83 Z M 42.68,21.27 l -0.05,0.88 -0.37,0.77 -0.63,0.57 -0.83,0.3 -0.88,-0.05 -0.77,-0.37 -0.57,-0.63 -0.3,-0.83 0.05,-0.88 0.37,-0.76 0.63,-0.58 0.83,-0.3 0.88,0.05 0.77,0.37 0.57,0.63 0.3,0.83 Z M 38.79,24.33 l 0.92,0.39 1.03,0.08 -1.56,6.5 -0.93,-0.44 -0.99,-0.13 1.53,-6.4 Z M 18.43,8.15 l 0.36,0.96 0.63,0.78 -5.66,3.35 -0.4,-0.92 -0.68,-0.77 5.75,-3.4 Z M 11.55,35.32 l -3.4,-5.75 0.96,-0.36 0.78,-0.63 3.35,5.66 -0.92,0.4 -0.77,0.68 Z M 9.21,23.67 l -0.92,-0.39 -1.03,-0.08 1.56,-6.49 0.93,0.44 0.99,0.12 -1.53,6.4 Z M 34.76,13.76 l 0.92,-0.4 0.77,-0.68 3.4,5.75 -0.96,0.36 -0.78,0.63 -3.35,-5.66 Z M 24.33,9.21 l 0.39,-0.92 0.08,-1.03 6.49,1.56 -0.44,0.93 -0.12,0.99 -6.4,-1.53 Z M 23.22,38.98 l 0.05,0.26 -6.31,-0.5 0.28,-0.98 -0.03,-1.01 6.24,0.5 -0.24,0.84 0.01,0.89 Z M 34.97,36.12 l -5.35,2.18 -0.03,-0.25 -0.25,-0.86 -0.47,-0.74 5.28,-2.16 0.26,0.97 0.56,0.86 Z M 27.54,20.47 l 0.61,0.75 0.47,0.87 0.29,0.95 0.09,0.97 -2,-0.01 -0.06,-0.57 -0.17,-0.57 -0.28,-0.53 -0.37,-0.45 1.42,-1.41 Z M 22.09,19.38 l 0.95,-0.29 0.97,-0.09 -0.01,2 -0.57,0.06 -0.57,0.17 -0.53,0.28 -0.45,0.37 -1.41,-1.42 0.75,-0.61 0.87,-0.47 Z M 27.53,27.54 l -0.75,0.61 -0.87,0.47 -0.95,0.29 -0.97,0.09 0.01,-2 0.57,-0.06 0.57,-0.17 0.53,-0.28 0.45,-0.37 1.41,1.42 Z M 19.38,25.91 l -0.29,-0.95 -0.09,-0.97 2,0.01 0.06,0.57 0.17,0.57 0.28,0.53 0.37,0.45 -1.42,1.41 -0.61,-0.75 -0.47,-0.87 Z M 10.7,25.94 l -0.26,-0.9 1.59,-0.24 0.29,1.98 -1.64,0.25 0.02,-1.09 Z M 15.11,34.32 l 0.97,-1.31 1.6,1.2 -0.98,1.32 -0.73,-0.76 -0.86,-0.45 Z M 12.47,16.7 l 0.76,-0.73 0.45,-0.86 1.31,0.97 -1.2,1.6 -1.32,-0.98 Z M 21.26,12.31 l -0.26,-1.62 1.06,0.02 0.92,-0.29 0.26,1.6 -1.98,0.29 Z M 37.56,22.96 l -1.59,0.24 -0.29,-1.98 1.64,-0.25 -0.03,1.09 0.27,0.9 Z M 34.77,32.03 l -0.45,0.86 -1.31,-0.97 1.2,-1.6 1.32,0.98 -0.76,0.73 Z M 30.32,13.79 l 0.98,-1.32 0.73,0.76 0.86,0.45 -0.97,1.31 -1.6,-1.2 Z" fill-rule="evenodd" fill="#000000" />
</svg>