<svg xmlns="http://www.w3.org/2000/svg" viewBox="0 0 24 24">
  <path id="wheelHubLocked01" d="M 9.41,3.66 l 1.2,1.17 0.32,0.25 1.07,-0.08 1.07,0.08 0.32,-0.25 1.2,-1.17 0.58,-0.4 0.62,-0.16 0.62,0.04 0.57,0.23 0.49,0.38 0.34,0.51 0.17,0.63 -0.06,0.7 -0.4,1.62 -0.06,0.41 0.6,0.88 0.47,0.97 0.38,0.15 1.61,0.46 0.63,0.3 0.46,0.45 0.27,0.56 0.09,0.61 -0.09,0.61 -0.27,0.56 -0.46,0.45 -0.63,0.3 -1.61,0.46 -0.38,0.15 -0.47,0.97 -0.6,0.88 0.06,0.41 0.4,1.62 0.06,0.7 -0.17,0.63 -0.34,0.51 -0.49,0.38 -0.57,0.23 -0.62,0.04 -0.62,-0.16 -0.58,-0.4 -1.2,-1.17 -0.32,-0.25 -1.07,0.08 -1.07,-0.08 -0.32,0.25 -1.2,1.17 -0.58,0.4 -0.62,0.16 -0.62,-0.04 -0.57,-0.23 -0.49,-0.38 -0.34,-0.51 -0.17,-0.63 0.06,-0.7 0.4,-1.62 0.06,-0.41 -0.6,-0.88 -0.47,-0.97 -0.38,-0.15 -1.61,-0.46 -0.63,-0.3 -0.46,-0.45 -0.27,-0.56 -0.09,-0.61 0.09,-0.61 0.27,-0.56 0.46,-0.45 0.63,-0.3 1.61,-0.46 0.38,-0.15 0.47,-0.97 0.6,-0.88 -0.06,-0.41 -0.4,-1.62 -0.06,-0.7 0.17,-0.63 0.34,-0.51 0.49,-0.38 0.57,-0.23 0.62,-0.04 0.62,0.16 0.58,0.4 Z M 12,7.25 l -0.65,0.07 -0.62,0.19 -0.55,0.3 -0.48,0.39 -0.39,0.48 -0.3,0.55 -0.19,0.62 -0.07,0.65 0,0.53 -0.3,0.13 -0.24,0.22 -0.15,0.29 -0.06,0.33 0,2 0.16,0.78 0.43,0.63 0.63,0.43 0.78,0.16 4,0 0.78,-0.16 0.63,-0.43 0.43,-0.63 0.16,-0.78 0,-2 -0.06,-0.33 -0.15,-0.29 -0.24,-0.22 -0.3,-0.13 0,-0.53 -0.07,-0.65 -0.19,-0.62 -0.3,-0.55 -0.39,-0.48 -0.48,-0.39 -0.55,-0.3 -0.62,-0.19 -0.65,-0.07 Z M 13.75,11 l -3.5,0 0,-0.5 0.14,-0.68 0.37,-0.56 0.56,-0.37 0.68,-0.14 0.68,0.14 0.56,0.37 0.37,0.56 0.14,0.68 0,0.5 Z M 4.52,5.36 l 0.1,0.59 0.41,1.62 -0.05,0.37 -0.3,0.24 -1.61,0.45 -0.56,0.21 0.37,-0.93 0.45,-0.9 0.55,-0.85 0.64,-0.8 Z M 21.49,15.16 l -0.37,0.93 -0.45,0.9 -0.55,0.85 -0.64,0.8 -0.1,-0.59 -0.41,-1.62 0.05,-0.37 0.3,-0.24 1.61,-0.45 0.56,-0.21 Z M 9.99,2.2 l 1.01,-0.15 1.01,-0.05 1.01,0.05 0.99,0.15 -0.46,0.38 -1.2,1.17 -0.35,0.14 -0.35,-0.14 -1.2,-1.17 -0.46,-0.38 Z M 14.01,21.8 l -1.01,0.15 -1.01,0.05 -1.01,-0.05 -0.99,-0.15 0.46,-0.38 1.2,-1.17 0.35,-0.14 0.35,0.14 1.2,1.17 0.46,0.38 Z M 19.48,5.36 l 0.63,0.78 0.55,0.86 0.47,0.91 0.36,0.93 -0.56,-0.21 -1.61,-0.45 -0.3,-0.24 -0.05,-0.37 0.41,-1.62 0.1,-0.59 Z M 4.52,18.64 l -0.63,-0.78 -0.55,-0.86 -0.47,-0.91 -0.36,-0.93 0.56,0.21 1.61,0.45 0.3,0.24 0.05,0.37 -0.41,1.62 -0.1,0.59 Z" fill-rule="evenodd" fill="#000000" />
</svg>