<svg xmlns="http://www.w3.org/2000/svg" viewBox="0 0 24 24">
  <path id="wheelDisc" d="M 12,21 l -1.81,-0.18 -1.69,-0.53 -1.53,-0.83 -1.33,-1.1 -1.1,-1.33 -0.83,-1.53 -0.53,-1.69 -0.18,-1.81 0.18,-1.81 0.53,-1.69 0.83,-1.53 1.1,-1.33 1.33,-1.1 1.53,-0.83 1.69,-0.53 1.81,-0.18 1.81,0.18 1.69,0.53 1.53,0.83 1.33,1.1 1.1,1.33 0.83,1.53 0.53,1.69 0.18,1.81 -0.18,1.81 -0.53,1.69 -0.83,1.53 -1.1,1.33 -1.33,1.1 -1.53,0.83 -1.69,0.53 -1.81,0.18 Z M 17.42,7.58 l -0.61,-0.66 -0.69,-0.58 -0.76,-0.48 -0.82,-0.39 -0.47,-0.08 -0.47,0.08 -0.15,0.12 -0.17,0.35 -0.19,0.58 0,0.6 0.4,2.83 2.82,-0.49 0.57,-0.2 0.49,-0.35 0.27,-0.27 0.08,-0.18 -0.07,-0.47 -0.23,-0.41 Z M 6.58,7.58 l -0.23,0.41 -0.07,0.47 0.08,0.18 0.27,0.27 0.49,0.35 0.57,0.2 2.82,0.49 0.4,-2.83 0,-0.6 -0.19,-0.58 -0.17,-0.35 -0.15,-0.12 -0.47,-0.08 -0.47,0.08 -0.82,0.39 -0.76,0.48 -0.69,0.58 -0.61,0.66 Z M 13.78,18.77 l 0.43,-0.2 0.34,-0.35 0.04,-0.18 -0.06,-0.39 -0.19,-0.57 -0.35,-0.49 -1.99,-2.05 -1.99,2.05 -0.35,0.49 -0.19,0.57 -0.06,0.39 0.04,0.18 0.34,0.35 0.43,0.2 0.88,0.17 0.9,0.06 0.9,-0.06 0.88,-0.17 Z M 7.02,11.53 l -0.57,-0.18 -0.61,-0.01 -0.38,0.06 -0.17,0.1 -0.22,0.42 -0.06,0.47 0.11,0.9 0.22,0.87 0.34,0.84 0.44,0.79 0.32,0.34 0.43,0.22 0.19,-0.02 0.34,-0.18 0.49,-0.36 0.36,-0.48 1.34,-2.53 -2.57,-1.25 Z M 17.13,16.35 l 0.43,-0.22 0.32,-0.34 0.44,-0.79 0.34,-0.84 0.22,-0.87 0.11,-0.9 -0.06,-0.47 -0.22,-0.42 -0.17,-0.1 -0.38,-0.06 -0.61,0.01 -0.57,0.18 -2.57,1.25 1.34,2.53 0.36,0.48 0.49,0.36 0.34,0.18 0.19,0.02 Z M 13,12 l -0.08,-0.39 -0.21,-0.32 -0.32,-0.21 -0.39,-0.08 -0.39,0.08 -0.32,0.21 -0.21,0.32 -0.08,0.39 0.08,0.39 0.21,0.32 0.32,0.21 0.39,0.08 0.39,-0.08 0.32,-0.21 0.21,-0.32 0.08,-0.39 Z M 12.87,14.04 l 0.32,0.2 0.37,-0.09 0.2,-0.32 -0.08,-0.37 -0.33,-0.2 -0.37,0.08 -0.2,0.33 0.09,0.37 Z M 11.02,13.34 l -0.37,-0.08 -0.33,0.2 -0.08,0.37 0.2,0.32 0.37,0.09 0.32,-0.2 0.09,-0.37 -0.2,-0.33 Z M 10.1,10.86 l -0.38,0.03 -0.25,0.29 0.03,0.38 0.29,0.25 0.38,-0.03 0.25,-0.29 -0.03,-0.39 -0.29,-0.24 Z M 12.5,9.84 l -0.15,-0.36 -0.35,-0.14 -0.35,0.14 -0.15,0.36 0.15,0.35 0.35,0.15 0.35,-0.15 0.15,-0.35 Z M 13.58,11.49 l 0.25,0.29 0.38,0.03 0.29,-0.25 0.03,-0.38 -0.25,-0.29 -0.38,-0.03 -0.29,0.24 -0.03,0.39 Z" fill-rule="evenodd" fill="#000000" />
</svg>