<svg xmlns="http://www.w3.org/2000/svg" viewBox="0 0 24 24">
  <path id="wheelHubUnlocked01" d="M 9.41,3.66 l 1.2,1.17 0.32,0.25 1.07,-0.08 1.07,0.08 0.32,-0.25 1.2,-1.17 0.58,-0.4 0.62,-0.16 0.62,0.04 0.57,0.23 0.49,0.38 0.34,0.51 0.17,0.63 -0.06,0.7 -0.4,1.62 -0.06,0.41 0.6,0.88 0.47,0.97 0.38,0.15 1.61,0.46 0.63,0.3 0.46,0.45 0.27,0.56 0.09,0.61 -0.09,0.61 -0.27,0.56 -0.46,0.45 -0.63,0.3 -1.61,0.46 -0.38,0.15 -0.47,0.97 -0.6,0.88 0.06,0.41 0.4,1.62 0.06,0.7 -0.17,0.63 -0.34,0.51 -0.49,0.38 -0.57,0.23 -0.62,0.04 -0.62,-0.16 -0.58,-0.4 -1.2,-1.17 -0.32,-0.25 -1.07,0.08 -1.07,-0.08 -0.32,0.25 -1.2,1.17 -0.58,0.4 -0.62,0.16 -0.62,-0.04 -0.57,-0.23 -0.49,-0.38 -0.34,-0.51 -0.17,-0.63 0.06,-0.7 0.4,-1.62 0.06,-0.41 -0.6,-0.88 -0.47,-0.97 -0.38,-0.15 -1.61,-0.46 -0.63,-0.3 -0.46,-0.45 -0.27,-0.56 -0.09,-0.61 0.09,-0.61 0.27,-0.56 0.46,-0.45 0.63,-0.3 1.61,-0.46 0.38,-0.15 0.47,-0.97 0.6,-0.88 -0.06,-0.41 -0.4,-1.62 -0.06,-0.7 0.17,-0.63 0.34,-0.51 0.49,-0.38 0.57,-0.23 0.62,-0.04 0.62,0.16 0.58,0.4 Z M 12,17 l 1.01,-0.1 0.94,-0.29 0.85,-0.46 0.74,-0.61 0.61,-0.74 0.46,-0.85 0.29,-0.94 0.1,-1.01 -0.1,-1.01 -0.29,-0.94 -0.46,-0.85 -0.61,-0.74 -0.74,-0.61 -0.85,-0.46 -0.94,-0.29 -1.01,-0.1 -1.01,0.1 -0.94,0.29 -0.85,0.46 -0.74,0.61 -0.61,0.74 -0.46,0.85 -0.29,0.94 -0.1,1.01 0.1,1.01 0.29,0.94 0.46,0.85 0.61,0.74 0.74,0.61 0.85,0.46 0.94,0.29 1.01,0.1 Z M 12,15 l -0.6,-0.06 -0.57,-0.18 -0.51,-0.27 -0.44,-0.37 -0.37,-0.44 -0.27,-0.51 -0.18,-0.57 -0.06,-0.6 0.06,-0.6 0.18,-0.57 0.27,-0.51 0.37,-0.44 0.44,-0.37 0.51,-0.27 0.57,-0.18 0.6,-0.06 0.6,0.06 0.57,0.18 0.51,0.27 0.44,0.37 0.37,0.44 0.27,0.51 0.18,0.57 0.06,0.6 -0.06,0.6 -0.18,0.57 -0.27,0.51 -0.37,0.44 -0.44,0.37 -0.51,0.27 -0.57,0.18 -0.6,0.06 Z M 4.52,5.36 l 0.1,0.59 0.41,1.62 -0.05,0.37 -0.3,0.24 -1.61,0.45 -0.56,0.21 0.37,-0.93 0.45,-0.9 0.55,-0.85 0.64,-0.8 Z M 21.49,15.16 l -0.37,0.93 -0.45,0.9 -0.55,0.85 -0.64,0.8 -0.1,-0.59 -0.41,-1.62 0.05,-0.37 0.3,-0.24 1.61,-0.45 0.56,-0.21 Z M 9.99,2.2 l 1.01,-0.15 1.01,-0.05 1.01,0.05 0.99,0.15 -0.46,0.38 -1.2,1.17 -0.35,0.14 -0.35,-0.14 -1.2,-1.17 -0.46,-0.38 Z M 14.01,21.8 l -1.01,0.15 -1.01,0.05 -1.01,-0.05 -0.99,-0.15 0.46,-0.38 1.2,-1.17 0.35,-0.14 0.35,0.14 1.2,1.17 0.46,0.38 Z M 19.48,5.36 l 0.63,0.78 0.55,0.86 0.47,0.91 0.36,0.93 -0.56,-0.21 -1.61,-0.45 -0.3,-0.24 -0.05,-0.37 0.41,-1.62 0.1,-0.59 Z M 4.52,18.64 l -0.63,-0.78 -0.55,-0.86 -0.47,-0.91 -0.36,-0.93 0.56,0.21 1.61,0.45 0.3,0.24 0.05,0.37 -0.41,1.62 -0.1,0.59 Z" fill-rule="evenodd" fill="#000000" />
</svg>