<svg xmlns="http://www.w3.org/2000/svg" viewBox="0 0 24 24">
  <path id="wigwags" d="M 4.17,14.45 l 0.36,-0.33 0.47,-0.12 14,0 0.47,0.12 0.36,0.33 2,3 0.15,0.36 0,0.39 -0.15,0.35 -0.28,0.28 -0.36,0.15 -0.39,0 -0.35,-0.15 -0.28,-0.28 -1.71,-2.55 -12.92,0 -1.71,2.55 -0.28,0.28 -0.35,0.15 -0.39,0 -0.36,-0.15 -0.28,-0.28 -0.15,-0.35 0,-0.39 0.15,-0.36 2,-3 Z M 19.21,9.11 l 1.24,0.61 0.4,0.37 0.15,0.53 0,0.97 -0.08,0.38 -0.21,0.32 -0.42,0.42 -0.32,0.21 -0.38,0.08 -4.59,0 0,-4 3.76,0 0.45,0.11 Z M 9,9 l 0,4 -4.59,0 -0.38,-0.08 -0.32,-0.21 -0.42,-0.42 -0.21,-0.32 -0.08,-0.38 0,-0.97 0.15,-0.53 0.4,-0.37 1.24,-0.61 0.45,-0.11 3.76,0 Z M 10,9 l 4,0 0,4 -4,0 0,-4 Z M 15.98,3.7 l -0.5,2.5 -0.15,0.36 -0.28,0.27 -0.35,0.15 -0.4,0 -0.36,-0.15 -0.27,-0.28 -0.15,-0.35 0,-0.4 0.5,-2.5 0.15,-0.36 0.28,-0.27 0.35,-0.15 0.4,0 0.36,0.15 0.27,0.28 0.15,0.35 0,0.4 Z M 9.98,3.3 l 0.5,2.5 0,0.4 -0.15,0.35 -0.27,0.28 -0.36,0.15 -0.4,0 -0.35,-0.15 -0.28,-0.27 -0.15,-0.36 -0.5,-2.5 0,-0.4 0.15,-0.35 0.27,-0.28 0.36,-0.15 0.4,0 0.35,0.15 0.28,0.27 0.15,0.36 Z M 16,10 l 0,2 3.59,0 0.41,-0.41 0,-0.97 -1.24,-0.62 -2.76,0 Z M 4.71,5.29 l 1,1 0.22,0.33 0.07,0.38 -0.07,0.38 -0.22,0.33 -0.33,0.22 -0.38,0.07 -0.38,-0.07 -0.33,-0.22 -1,-1 -0.22,-0.33 -0.07,-0.38 0.07,-0.38 0.22,-0.33 0.33,-0.22 0.38,-0.07 0.38,0.07 0.33,0.22 Z M 20.71,6.71 l -1,1 -0.33,0.22 -0.38,0.07 -0.38,-0.07 -0.33,-0.22 -0.22,-0.33 -0.07,-0.38 0.07,-0.38 0.22,-0.33 1,-1 0.33,-0.22 0.38,-0.07 0.38,0.07 0.33,0.22 0.22,0.33 0.07,0.38 -0.07,0.38 -0.22,0.33 Z" fill-rule="evenodd" fill="#000000" />
</svg>