<svg xmlns="http://www.w3.org/2000/svg" viewBox="0 0 24 24">
  <path id="xboxDDefaultSolid" d="M 9.13,2.82 l 1.42,-0.3 1.45,-0.1 1.44,0.1 1.43,0.3 0.09,0.03 0.04,0.02 0.36,0.32 0.14,0.47 0,4.34 0.15,0.35 0.35,0.15 4.34,0 0.53,0.18 0.31,0.45 0.3,1.43 0.1,1.44 -0.1,1.44 -0.3,1.43 -0.31,0.45 -0.53,0.18 -4.34,0 -0.35,0.15 -0.15,0.35 0,4.34 -0.14,0.48 -0.13,0.15 -0.36,0.21 -1.43,0.3 -1.44,0.1 -1.44,-0.1 -1.43,-0.3 -0.45,-0.31 -0.18,-0.53 0,-4.35 -0.15,-0.35 -0.35,-0.14 -4.34,0 -0.08,0 -0.15,-0.03 -0.38,-0.22 -0.23,-0.38 -0.3,-1.43 -0.1,-1.44 0.1,-1.44 0.3,-1.43 0.23,-0.39 0.4,-0.21 0.21,-0.03 4.34,0 0.35,-0.14 0.15,-0.35 0,-4.35 0.18,-0.53 0.45,-0.31 Z M 13.93,14.07 l 0.01,-0.01 1.71,-1.71 0.14,-0.35 -0.14,-0.35 -3.3,-3.3 -0.35,-0.14 -0.35,0.14 -1.58,1.58 -0.01,0.01 -1.71,1.71 -0.14,0.35 0.14,0.35 3.3,3.3 0.35,0.14 0.35,-0.14 1.58,-1.58 Z" fill-rule="evenodd" fill="#000000" />
</svg>