<svg xmlns="http://www.w3.org/2000/svg" viewBox="0 0 24 24">
  <path id="xboxLB" d="M 2.24,9.6 l 0.02,-0.69 0.23,-0.62 0.43,-0.51 0.6,-0.35 4.95,-1.86 1.56,-0.43 1.6,-0.14 7.37,0 0.78,0.16 0.63,0.43 0.43,0.63 0.16,0.78 0,9.5 -0.12,0.58 -0.32,0.48 -0.48,0.32 -0.58,0.12 -14.71,0 -0.53,-0.1 -0.45,-0.26 -0.33,-0.41 -0.17,-0.51 -1.07,-7.12 Z M 13,8.01 l 0,0.08 0.01,3.36 0,3.55 3.48,0 0.8,-0.18 0.64,-0.42 0.44,-0.63 0.16,-0.79 -0.07,-0.56 -0.2,-0.46 -0.35,-0.36 -0.5,-0.24 0.4,-0.25 0.26,-0.38 0.14,-0.41 0.04,-0.38 -0.16,-0.78 -0.45,-0.61 -0.65,-0.4 -0.8,-0.14 -3.19,0 Z M 7.5,8.01 l 0,6.99 4.52,0 0,-1.5 -3.02,0 0,-5.49 -1.5,0 Z M 14.51,12.07 l 1.66,0 0.35,0.04 0.27,0.15 0.17,0.23 0.06,0.33 -0.05,0.34 -0.15,0.24 -0.26,0.15 -0.37,0.05 -1.68,0 0,-1.53 Z M 14.51,10.79 l 0,-1.36 1.49,0 0.35,0.05 0.23,0.15 0.17,0.43 -0.07,0.31 -0.17,0.23 -0.26,0.14 -0.33,0.05 -1.41,0 Z" fill-rule="evenodd" fill="#000000" />
</svg>