<svg xmlns="http://www.w3.org/2000/svg" viewBox="0 0 24 24">
  <path id="xboxRSButton" d="M 2,9.31 l 0.07,-0.64 0.2,-0.6 0.31,-0.53 0.41,-0.45 0.49,-0.36 0.56,-0.26 0.61,-0.14 0.65,0 3.62,0.36 3.08,0.15 3.08,-0.15 3.62,-0.36 0.65,0 0.61,0.14 0.56,0.26 0.49,0.36 0.41,0.45 0.31,0.53 0.2,0.6 0.07,0.64 0,1.69 -0.08,0.39 -0.21,0.32 -0.32,0.21 -0.39,0.08 -4,0 0,6 -10,0 0,-6 -4,0 -0.39,-0.08 -0.32,-0.21 -0.21,-0.32 -0.08,-0.39 0,-1.69 Z M 9.5,12.76 l 0,3.24 1.5,0 0,-2.49 0.63,0 1.88,2.49 1.88,0 -1.96,-2.6 0.63,-0.32 0.5,-0.49 0.33,-0.63 0.11,-0.72 -0.16,-0.82 -0.42,-0.69 -0.63,-0.49 -0.78,-0.24 -3.52,0 0.01,3.76 Z M 11,12.01 l 0,-1.53 1.74,0 0.3,0.06 0.24,0.17 0.16,0.24 0.06,0.29 -0.06,0.3 -0.16,0.24 -0.24,0.17 -0.3,0.06 -1.74,0 Z" fill-rule="evenodd" fill="#000000" />
</svg>