<svg xmlns="http://www.w3.org/2000/svg" viewBox="0 0 24 24">
  <path id="xboxY" d="M 12,22 l -1.02,-0.05 -1,-0.15 -0.95,-0.25 -0.92,-0.34 -1.7,-0.92 -1.48,-1.22 -1.22,-1.48 -0.92,-1.7 -0.34,-0.92 -0.25,-0.95 -0.15,-1 -0.05,-1.02 0.05,-1.02 0.15,-1 0.25,-0.95 0.34,-0.92 0.92,-1.7 1.22,-1.48 1.48,-1.22 1.7,-0.92 0.92,-0.34 0.95,-0.25 1,-0.15 1.02,-0.05 1.02,0.05 1,0.15 0.95,0.25 0.92,0.34 1.7,0.92 1.48,1.22 1.22,1.48 0.92,1.7 0.34,0.92 0.25,0.95 0.15,1 0.05,1.02 -0.05,1.02 -0.15,1 -0.25,0.95 -0.34,0.92 -0.92,1.7 -1.22,1.48 -1.48,1.22 -1.7,0.92 -0.92,0.34 -0.95,0.25 -1,0.15 -1.02,0.05 Z M 10.74,13.23 l 0,4.27 2.49,0 0,-4.27 4.27,-6.73 -2.81,0 -2.69,4.37 -2.7,-4.37 -2.8,0 4.24,6.73 Z" fill-rule="evenodd" fill="#000000" />
</svg>