<svg xmlns="http://www.w3.org/2000/svg" viewBox="0 0 24 24">
  <path id="xboxBOutline" d="M 22,12 l -0.05,1.02 -0.15,1 -0.25,0.95 -0.34,0.92 -0.92,1.7 -1.22,1.48 -1.48,1.22 -1.7,0.92 -0.92,0.34 -0.95,0.25 -1,0.15 -1.02,0.05 -1.02,-0.05 -1,-0.15 -0.95,-0.25 -0.92,-0.34 -1.7,-0.92 -1.48,-1.22 -1.22,-1.48 -0.92,-1.7 -0.34,-0.92 -0.25,-0.95 -0.15,-1 -0.05,-1.02 0.05,-1.02 0.15,-1 0.25,-0.95 0.34,-0.92 0.92,-1.7 1.22,-1.48 1.48,-1.22 1.7,-0.92 0.92,-0.34 0.95,-0.25 1,-0.15 1.02,-0.05 1.02,0.05 1,0.15 0.95,0.25 0.92,0.34 1.7,0.92 1.48,1.22 1.22,1.48 0.92,1.7 0.34,0.92 0.25,0.95 0.15,1 0.05,1.02 Z M 20.5,12 l -0.17,-1.71 -0.5,-1.6 -0.78,-1.44 -1.04,-1.26 -1.26,-1.04 -1.44,-0.78 -1.6,-0.5 -1.71,-0.17 -1.71,0.17 -1.6,0.5 -1.44,0.78 -1.26,1.04 -1.04,1.26 -0.78,1.44 -0.5,1.6 -0.17,1.71 0.17,1.71 0.5,1.6 0.78,1.44 1.04,1.26 1.26,1.04 1.44,0.78 1.6,0.5 1.71,0.17 1.71,-0.17 1.6,-0.5 1.44,-0.78 1.26,-1.04 1.04,-1.26 0.78,-1.44 0.5,-1.6 0.17,-1.71 Z M 13.12,6.5 l 1.22,0.11 0.94,0.33 0.68,0.5 0.46,0.62 0.26,0.7 0.08,0.73 -0.06,0.7 -0.2,0.64 -0.36,0.54 -0.59,0.39 0.52,0.27 0.4,0.36 0.3,0.43 0.2,0.47 0.15,0.91 -0.05,0.6 -0.15,0.59 -0.27,0.56 -0.38,0.5 -0.52,0.43 -0.65,0.34 -0.81,0.21 -0.97,0.07 -5.51,0 0,-11 5.31,0 Z M 13.43,15.16 l 0.4,-0.04 0.31,-0.13 0.36,-0.4 0.11,-0.45 -0.13,-0.54 -0.17,-0.24 -0.29,-0.2 -0.43,-0.13 -0.58,-0.04 -2.72,0 0,2.17 3.14,0 Z M 12.88,10.76 l 0.61,-0.07 0.42,-0.19 0.24,-0.31 0.08,-0.41 -0.08,-0.44 -0.31,-0.36 -0.3,-0.12 -0.41,-0.03 -2.84,0 0,1.93 2.59,0 Z" fill-rule="evenodd" fill="#000000" />
</svg>