<svg xmlns="http://www.w3.org/2000/svg" viewBox="0 0 24 24">
  <path id="xboxDLeft" d="M 3.45,8.53 l 0.21,-0.03 4.34,0 0.35,-0.15 0.15,-0.35 0,-4.34 0.18,-0.53 0.45,-0.31 1.43,-0.3 1.44,-0.1 1.45,0.1 1.42,0.3 0.45,0.31 0.18,0.53 0,4.34 0.15,0.35 0.35,0.15 4.34,0 0.53,0.18 0.31,0.45 0.3,1.43 0.1,1.44 -0.1,1.44 -0.3,1.43 -0.31,0.45 -0.53,0.18 -4.34,0 -0.35,0.15 -0.15,0.35 0,4.34 -0.18,0.53 -0.45,0.31 -1.42,0.3 -1.45,0.1 -1.44,-0.1 -1.43,-0.3 -0.45,-0.31 -0.18,-0.53 0,-4.34 -0.15,-0.35 -0.35,-0.15 -4.34,0 -0.08,0 -0.15,-0.03 -0.38,-0.22 -0.23,-0.38 -0.3,-1.43 -0.1,-1.44 0.1,-1.44 0.3,-1.43 0.23,-0.39 0.4,-0.21 Z M 10,8 l 0,0.02 0,1.13 -0.06,0.33 -0.16,0.29 -1.53,1.92 -0.11,0.31 0.11,0.31 1.53,1.92 0.16,0.29 0.06,0.33 0,1.13 0,0.02 0,3.86 1,0.17 1,0.05 1,-0.05 1,-0.17 0,-3.86 0.16,-0.78 0.43,-0.63 0.63,-0.43 0.78,-0.16 3.86,0 0.17,-1 0.05,-1 -0.05,-1 -0.17,-1 -3.86,0 -0.78,-0.16 -0.63,-0.43 -0.43,-0.63 -0.16,-0.78 0,-3.86 -1,-0.17 -1,-0.05 -1,0.05 -1,0.17 0,3.86 Z" fill-rule="evenodd" fill="#000000" />
</svg>