<svg xmlns="http://www.w3.org/2000/svg" viewBox="0 0 24 24">
  <path id="xboxRB" d="M 21.76,9.6 l -1.07,7.12 -0.17,0.51 -0.33,0.41 -0.45,0.26 -0.53,0.1 -14.71,0 -0.58,-0.12 -0.48,-0.32 -0.32,-0.48 -0.12,-0.58 0,-9.5 0.16,-0.78 0.43,-0.63 0.63,-0.43 0.78,-0.16 7.37,0 1.6,0.14 1.56,0.43 4.95,1.86 0.6,0.35 0.43,0.51 0.23,0.62 0.02,0.69 Z M 12.5,8.01 l 0,0.08 0.01,3.36 0,3.55 3.48,0 0.79,-0.18 0.65,-0.42 0.44,-0.63 0.16,-0.79 -0.07,-0.56 -0.2,-0.46 -0.35,-0.36 -0.5,-0.24 0.4,-0.25 0.26,-0.38 0.14,-0.41 0.04,-0.38 -0.17,-0.78 -0.44,-0.61 -0.65,-0.4 -0.8,-0.14 -3.19,0 Z M 6.01,15 l 1.5,0 0,-2.49 0.63,0 1.88,2.49 1.88,0 -1.96,-2.6 0.63,-0.32 0.5,-0.49 0.33,-0.63 0.11,-0.72 -0.16,-0.82 -0.42,-0.69 -0.63,-0.49 -0.78,-0.24 -3.52,0 0,0.01 0.01,3.75 0,3.24 Z M 14.01,12.07 l 1.65,0 0.36,0.04 0.27,0.15 0.17,0.23 0.06,0.33 -0.05,0.34 -0.15,0.24 -0.26,0.15 -0.37,0.05 -1.68,0 0,-1.53 Z M 7.51,11.01 l 0,-1.53 1.74,0 0.3,0.06 0.24,0.17 0.16,0.24 0.06,0.29 -0.06,0.3 -0.16,0.24 -0.24,0.17 -0.3,0.06 -1.74,0 Z M 14.01,10.79 l 0,-1.36 1.49,0 0.35,0.05 0.23,0.15 0.16,0.43 -0.06,0.31 -0.17,0.23 -0.26,0.14 -0.33,0.05 -1.41,0 Z" fill-rule="evenodd" fill="#000000" />
</svg>