<svg xmlns="http://www.w3.org/2000/svg" viewBox="0 0 24 24">
  <path id="xboxLSButton" d="M 2,9.31 l 0.07,-0.64 0.2,-0.6 0.31,-0.53 0.41,-0.45 0.49,-0.36 0.56,-0.26 0.61,-0.14 0.65,0 3.62,0.36 3.08,0.15 3.08,-0.15 3.62,-0.36 0.65,0 0.61,0.14 0.56,0.26 0.49,0.36 0.41,0.45 0.31,0.53 0.2,0.6 0.07,0.64 0,1.69 -0.08,0.39 -0.21,0.32 -0.32,0.21 -0.39,0.08 -4,0 0,6 -10,0 0,-6 -4,0 -0.39,-0.08 -0.32,-0.21 -0.21,-0.32 -0.08,-0.39 0,-1.69 Z M 10,9 l 0,6.99 4.52,0 0,-1.5 -3.02,0 0,-5.49 -1.5,0 Z" fill-rule="evenodd" fill="#000000" />
</svg>