<svg xmlns="http://www.w3.org/2000/svg" viewBox="0 0 24 24">
  <path id="xboxLSButtonArrowDown" d="M 5.3,8.33 l 3.62,0.36 3.08,0.16 3.08,-0.16 3.62,-0.36 0.65,0 0.61,0.14 0.56,0.26 0.49,0.36 0.41,0.45 0.31,0.54 0.2,0.59 0.07,0.65 0,1.68 -0.08,0.39 -0.21,0.32 -0.32,0.21 -0.39,0.08 -4,0 0,6 -10,0 0,-6 -4,0 -0.39,-0.08 -0.32,-0.21 -0.21,-0.32 -0.08,-0.39 0,-1.69 0.07,-0.64 0.2,-0.6 0.31,-0.53 0.41,-0.45 0.49,-0.36 0.56,-0.26 0.61,-0.14 0.65,0 Z M 11.84,7.36 l -3.34,-2.92 -0.07,-0.28 0.09,-0.11 0.15,-0.05 1.33,0 0,-2 4,0 0,2 1.33,0 0.15,0.05 0.09,0.11 -0.07,0.28 -3.34,2.92 -0.16,0.06 -0.16,-0.06 Z M 10,11 l 0,6.99 4.52,0 0,-1.5 -3.02,0 0,-5.49 -1.5,0 Z" fill-rule="evenodd" fill="#000000" />
</svg>