<svg xmlns="http://www.w3.org/2000/svg" viewBox="0 0 24 24">
  <path id="xboxView" d="M 12,21 l -1.81,-0.18 -1.69,-0.53 -1.53,-0.83 -1.33,-1.1 -1.1,-1.33 -0.83,-1.53 -0.53,-1.69 -0.18,-1.81 0.18,-1.81 0.53,-1.69 0.83,-1.53 1.1,-1.33 1.33,-1.1 1.53,-0.83 1.69,-0.53 1.81,-0.18 1.81,0.18 1.69,0.53 1.53,0.83 1.33,1.1 1.1,1.33 0.83,1.53 0.53,1.69 0.18,1.81 -0.18,1.81 -0.53,1.69 -0.83,1.53 -1.1,1.33 -1.33,1.1 -1.53,0.83 -1.69,0.53 -1.81,0.18 Z M 16,10 l -1,0 0,-1 -0.16,-0.78 -0.43,-0.63 -0.63,-0.43 -0.78,-0.16 -5,0 -0.78,0.16 -0.63,0.43 -0.43,0.63 -0.16,0.78 0,3 0.16,0.78 0.43,0.63 0.63,0.43 0.78,0.16 1,0 0,1 0.16,0.78 0.43,0.63 0.63,0.43 0.78,0.16 5,0 0.78,-0.16 0.63,-0.43 0.43,-0.63 0.16,-0.78 0,-3 -0.16,-0.78 -0.43,-0.63 -0.63,-0.43 -0.78,-0.16 Z M 11,11.5 l 5,0 0.35,0.15 0.15,0.35 0,3 -0.15,0.35 -0.35,0.15 -5,0 -0.35,-0.15 -0.15,-0.35 0,-3 0.15,-0.35 0.35,-0.15 Z M 8,8.5 l 5,0 0.35,0.15 0.15,0.35 0,1 -2.5,0 -0.78,0.16 -0.63,0.43 -0.43,0.63 -0.16,0.78 0,0.5 -1,0 -0.35,-0.15 -0.15,-0.35 0,-3 0.15,-0.35 0.35,-0.15 Z" fill-rule="evenodd" fill="#000000" />
</svg>