<svg xmlns="http://www.w3.org/2000/svg" viewBox="0 0 24 24">
  <path id="xboxDLeftRight" d="M 9.13,2.82 l 1.42,-0.3 1.45,-0.1 1.44,0.1 1.43,0.3 0.45,0.31 0.18,0.53 0,4.34 0.11,0.32 0.29,0.17 0.1,0.01 4.34,0 0.15,0.01 0.43,0.21 0.26,0.41 0.3,1.42 0.1,1.45 -0.1,1.44 -0.3,1.43 -0.05,0.13 -0.06,0.11 -0.03,0.03 -0.06,0.08 -0.02,0.02 -0.19,0.15 -0.05,0.02 -0.07,0.03 -0.04,0.02 -0.12,0.03 -0.15,0.01 -4.34,0 -0.1,0.01 -0.29,0.17 -0.11,0.32 0,4.34 -0.01,0.15 -0.21,0.43 -0.41,0.26 -0.35,0.09 -1.26,0.23 -1.26,0.08 -1.27,-0.08 -1.25,-0.23 -0.35,-0.09 -0.41,-0.26 -0.21,-0.43 -0.01,-0.15 0,-4.34 -0.11,-0.32 -0.29,-0.17 -0.1,-0.01 -4.34,0 -0.15,-0.01 -0.12,-0.03 -0.04,-0.02 -0.07,-0.03 -0.05,-0.02 -0.2,-0.15 -0.01,-0.02 -0.07,-0.08 -0.02,-0.03 -0.06,-0.11 -0.05,-0.13 -0.3,-1.43 -0.1,-1.44 0.1,-1.45 0.3,-1.42 0.04,-0.12 0.01,-0.01 0.03,-0.05 0.03,-0.06 0.04,-0.05 0.05,-0.06 0.02,-0.03 0.08,-0.06 0.03,-0.02 0.07,-0.05 0.04,-0.03 0.07,-0.03 0.06,-0.02 0.12,-0.03 0.15,-0.01 4.34,0 0.1,-0.01 0.25,-0.14 0.14,-0.25 0.01,-0.1 0,-4.34 0.18,-0.53 0.45,-0.31 Z M 14,4.15 l -1,-0.17 -1,-0.06 -1.01,0.06 -0.99,0.17 0,5 -0.06,0.33 -0.16,0.29 -1.53,1.92 -0.11,0.31 0.11,0.31 1.53,1.92 0.16,0.29 0.06,0.33 0,5 1,0.17 1,0.06 1,-0.06 1,-0.17 0,-5 0.06,-0.33 0.16,-0.29 1.53,-1.92 0.11,-0.31 -0.11,-0.31 -1.53,-1.92 -0.16,-0.29 -0.06,-0.33 0,-5 Z" fill-rule="evenodd" fill="#000000" />
</svg>