<svg xmlns="http://www.w3.org/2000/svg" viewBox="0 0 24 24">
  <path id="xboxDDefaultOutline" d="M 8.5,3.62 l 0.05,-0.31 0.15,-0.28 0.23,-0.21 0.29,-0.13 1.38,-0.25 1.4,-0.09 1.4,0.09 1.38,0.25 0.29,0.13 0.23,0.21 0.15,0.28 0.05,0.31 0,4.38 0.15,0.35 0.35,0.15 4.34,0 0.53,0.18 0.31,0.45 0.3,1.43 0.1,1.44 -0.1,1.44 -0.3,1.43 -0.31,0.45 -0.53,0.18 -4.34,0 -0.35,0.15 -0.15,0.35 0,4.38 -0.05,0.31 -0.15,0.28 -0.23,0.21 -0.29,0.13 -1.38,0.25 -1.4,0.09 -1.4,-0.09 -1.38,-0.25 -0.29,-0.13 -0.23,-0.21 -0.15,-0.28 -0.05,-0.31 0,-4.38 -0.15,-0.35 -0.35,-0.15 -4.34,0 -0.53,-0.18 -0.31,-0.45 -0.3,-1.43 -0.1,-1.44 0.1,-1.44 0.3,-1.43 0.31,-0.45 0.53,-0.18 4.34,0 0.35,-0.15 0.15,-0.35 0,-4.38 Z M 10,4.06 l 0,3.94 -0.16,0.78 -0.43,0.63 -0.63,0.43 -0.78,0.16 -3.86,0 -0.17,1 -0.05,1 0.05,1 0.17,1 3.86,0 0.78,0.16 0.63,0.43 0.43,0.63 0.16,0.78 0,3.94 1,0.16 1,0.05 1,-0.05 1,-0.16 0,-3.94 0.16,-0.78 0.43,-0.63 0.63,-0.43 0.78,-0.16 3.86,0 0.17,-1 0.05,-1 -0.05,-1 -0.17,-1 -3.86,0 -0.78,-0.16 -0.63,-0.43 -0.43,-0.63 -0.16,-0.78 0,-3.94 -1,-0.16 -1,-0.05 -1,0.05 -1,0.16 Z" fill-rule="evenodd" fill="#000000" />
</svg>