<svg xmlns="http://www.w3.org/2000/svg" viewBox="0 0 24 24">
  <path id="xboxB" d="M 12,22 l -1.02,-0.05 -1,-0.15 -0.95,-0.25 -0.92,-0.34 -1.7,-0.92 -1.48,-1.22 -1.22,-1.48 -0.92,-1.7 -0.34,-0.92 -0.25,-0.95 -0.15,-1 -0.05,-1.02 0.05,-1.02 0.15,-1 0.25,-0.95 0.34,-0.92 0.92,-1.7 1.22,-1.48 1.48,-1.22 1.7,-0.92 0.92,-0.34 0.95,-0.25 1,-0.15 1.02,-0.05 1.02,0.05 1,0.15 0.95,0.25 0.92,0.34 1.7,0.92 1.48,1.22 1.22,1.48 0.92,1.7 0.34,0.92 0.25,0.95 0.15,1 0.05,1.02 -0.05,1.02 -0.15,1 -0.25,0.95 -0.34,0.92 -0.92,1.7 -1.22,1.48 -1.48,1.22 -1.7,0.92 -0.92,0.34 -0.95,0.25 -1,0.15 -1.02,0.05 Z M 13.12,6.5 l -5.31,0 0,11 5.51,0 0.97,-0.07 0.81,-0.21 0.65,-0.34 0.52,-0.43 0.38,-0.5 0.27,-0.56 0.15,-0.59 0.05,-0.6 -0.15,-0.91 -0.2,-0.47 -0.3,-0.43 -0.4,-0.36 -0.52,-0.27 0.59,-0.39 0.36,-0.54 0.2,-0.64 0.06,-0.7 -0.08,-0.73 -0.26,-0.7 -0.46,-0.62 -0.68,-0.5 -0.94,-0.33 -1.22,-0.11 Z M 13.43,15.16 l -3.14,0 0,-2.17 2.72,0 0.58,0.04 0.43,0.13 0.29,0.2 0.17,0.24 0.13,0.54 -0.11,0.45 -0.36,0.4 -0.31,0.13 -0.4,0.04 Z M 12.88,10.76 l -2.59,0 0,-1.93 2.84,0 0.41,0.03 0.3,0.12 0.31,0.36 0.08,0.44 -0.08,0.41 -0.24,0.31 -0.42,0.19 -0.61,0.07 Z" fill-rule="evenodd" fill="#000000" />
</svg>