<svg xmlns="http://www.w3.org/2000/svg" viewBox="0 0 24 24">
  <path id="xboxRT" d="M 4.74,18.18 l -0.55,-5.19 -0.19,-5.22 0,-1.77 0.16,-0.78 0.43,-0.63 0.63,-0.43 0.78,-0.16 12.56,0 0.46,0.05 0.41,0.15 0.68,0.53 0.39,0.77 0.06,0.43 -0.04,0.46 -2.23,11.15 -0.22,0.64 -0.37,0.56 -0.5,0.43 -0.61,0.3 -2.3,0.62 -2.34,0.35 -2.37,0.07 -2.37,-0.19 -0.39,-0.06 -0.76,-0.24 -0.63,-0.45 -0.45,-0.63 -0.24,-0.76 Z M 6.51,15 l 1.5,0 0,-2.49 0.62,0 1.88,2.49 1.88,0 -1.96,-2.6 0.63,-0.32 0.5,-0.49 0.33,-0.63 0.11,-0.72 -0.15,-0.82 -0.43,-0.69 -0.63,-0.49 -0.78,-0.24 -3.52,0 0.02,3.76 0,3.24 Z M 18.03,8 l -5.5,0 0,1.5 1.99,0 0,5.5 1.5,0 0,-5.5 2.01,0 0,-1.5 Z M 8,11.01 l 0,-1.53 1.74,0 0.3,0.06 0.24,0.17 0.16,0.24 0.06,0.29 -0.06,0.3 -0.16,0.24 -0.24,0.17 -0.3,0.06 -1.74,0 Z" fill-rule="evenodd" fill="#000000" />
</svg>