<svg xmlns="http://www.w3.org/2000/svg" viewBox="0 0 24 24">
  <path id="xboxDUp" d="M 9.13,2.82 l 1.42,-0.3 1.45,-0.1 1.44,0.1 1.43,0.3 0.09,0.03 0.04,0.02 0.36,0.32 0.14,0.47 0,4.34 0.15,0.35 0.35,0.15 4.34,0 0.53,0.18 0.31,0.45 0.3,1.43 0.1,1.44 -0.1,1.44 -0.3,1.43 -0.31,0.45 -0.53,0.18 -4.34,0 -0.35,0.15 -0.15,0.35 0,4.34 -0.18,0.53 -0.45,0.31 -1.43,0.3 -1.44,0.1 -1.44,-0.1 -1.43,-0.3 -0.45,-0.31 -0.18,-0.53 0,-4.34 -0.15,-0.35 -0.35,-0.15 -4.34,0 -0.53,-0.18 -0.31,-0.45 -0.3,-1.43 -0.1,-1.44 0.1,-1.44 0.3,-1.43 0.31,-0.45 0.53,-0.18 4.34,0 0.35,-0.14 0.15,-0.35 0,-4.35 0.18,-0.53 0.45,-0.31 Z M 8.02,10 l -0.02,0 -3.86,0 -0.17,1 -0.05,1 0.05,1 0.17,1 3.86,0 0.78,0.16 0.63,0.43 0.43,0.63 0.16,0.78 0,3.86 1,0.17 1,0.05 1,-0.05 1,-0.17 0,-3.86 0.16,-0.78 0.43,-0.63 0.63,-0.43 0.78,-0.16 3.86,0 0.17,-1 0.05,-1 -0.05,-1 -0.17,-1 -3.86,0 -0.02,0 -1.13,0 -0.33,-0.06 -0.29,-0.16 -1.92,-1.53 -0.31,-0.11 -0.31,0.11 -1.92,1.53 -0.29,0.16 -0.33,0.06 -1.13,0 Z" fill-rule="evenodd" fill="#000000" />
</svg>