<svg xmlns="http://www.w3.org/2000/svg" viewBox="0 0 24 24">
  <path id="xboxMenu" d="M 12,21 l -1.81,-0.18 -1.69,-0.53 -1.53,-0.83 -1.33,-1.1 -1.1,-1.33 -0.83,-1.53 -0.53,-1.69 -0.18,-1.81 0.18,-1.81 0.53,-1.69 0.83,-1.53 1.1,-1.33 1.33,-1.1 1.53,-0.83 1.69,-0.53 1.81,-0.18 1.81,0.18 1.69,0.53 1.53,0.83 1.33,1.1 1.1,1.33 0.83,1.53 0.53,1.69 0.18,1.81 -0.18,1.81 -0.53,1.69 -0.83,1.53 -1.1,1.33 -1.33,1.1 -1.53,0.83 -1.69,0.53 -1.81,0.18 Z M 8,14.5 l -0.39,0.08 -0.32,0.21 -0.21,0.32 -0.08,0.39 0.08,0.39 0.21,0.32 0.32,0.21 0.39,0.08 8,0 0.39,-0.08 0.32,-0.21 0.21,-0.32 0.08,-0.39 -0.08,-0.39 -0.21,-0.32 -0.32,-0.21 -0.39,-0.08 -8,0 Z M 7,12 l 0.08,0.39 0.21,0.32 0.32,0.21 0.39,0.08 8,0 0.39,-0.08 0.32,-0.21 0.21,-0.32 0.08,-0.39 -0.08,-0.39 -0.21,-0.32 -0.32,-0.21 -0.39,-0.08 -8,0 -0.39,0.08 -0.32,0.21 -0.21,0.32 -0.08,0.39 Z M 8,7.5 l -0.39,0.08 -0.32,0.21 -0.21,0.32 -0.08,0.39 0.08,0.39 0.21,0.32 0.32,0.21 0.39,0.08 8,0 0.39,-0.08 0.32,-0.21 0.21,-0.32 0.08,-0.39 -0.08,-0.39 -0.21,-0.32 -0.32,-0.21 -0.39,-0.08 -8,0 Z" fill-rule="evenodd" fill="#000000" />
</svg>