<svg xmlns="http://www.w3.org/2000/svg" viewBox="0 0 24 24">
  <path id="xboxLT" d="M 19.82,18.18 l -0.24,0.76 -0.45,0.63 -0.63,0.45 -0.76,0.24 -0.39,0.06 -2.37,0.19 -2.37,-0.07 -2.34,-0.35 -2.3,-0.62 -0.61,-0.3 -0.5,-0.43 -0.37,-0.56 -0.22,-0.64 -2.23,-11.15 -0.04,-0.46 0.06,-0.43 0.39,-0.77 0.68,-0.53 0.41,-0.15 0.46,-0.05 12.56,0 0.78,0.16 0.63,0.43 0.43,0.63 0.16,0.78 0,1.77 -0.18,5.22 -0.56,5.19 Z M 18.52,8 l -5.5,0 0,1.5 2,0 0,5.5 1.5,0 0,-5.5 2,0 0,-1.5 Z M 8,8 l 0,7 4.52,0 0,-1.5 -3.02,0 0,-5.5 -1.5,0 Z" fill-rule="evenodd" fill="#000000" />
</svg>