<svg width="64" height="64" viewBox="0 0 64 64" fill="none" xmlns="http://www.w3.org/2000/svg">
<path fill-rule="evenodd" clip-rule="evenodd" d="M12.8316 41.9985C11.363 41.6456 10.6668 40.2269 10.6668 38.7165L10.6668 19.852L9.10503 20.3726C8.34299 20.6266 7.55603 20.0594 7.55603 19.2562C7.55603 18.8627 7.75268 18.4952 8.08008 18.277L10.6668 16.5525L10.6668 10.8829C10.6668 8.78533 11.8963 6.88252 13.8087 6.02062L14.2884 5.80442C14.9772 5.49393 15.7242 5.33337 16.4798 5.33337L23.5205 5.33337C24.2761 5.33337 25.023 5.49393 25.7119 5.80441L26.1916 6.02061C28.1039 6.88251 29.3335 8.78532 29.3335 10.8829V16.5525L31.9202 18.277C32.2476 18.4952 32.4443 18.8627 32.4443 19.2562C32.4443 20.0594 31.6573 20.6266 30.8953 20.3726L29.3335 19.852L29.3335 38.7165C29.3335 40.2269 28.6373 41.6456 27.1686 41.9986C23.4616 42.8894 16.5386 42.8894 12.8316 41.9985ZM26.4051 23.2292C26.2328 23.6813 25.7703 23.9559 25.2904 23.8952C20.6602 23.3094 19.554 23.2587 14.7151 23.8903C14.233 23.9532 13.7667 23.6786 13.5935 23.2243L11.8202 18.5737C11.6132 18.0308 11.8866 17.4209 12.4421 17.2507C16.9477 15.8703 23.0528 15.8702 27.5584 17.2507C28.1139 17.4209 28.3873 18.0308 28.1804 18.5736L26.4051 23.2292ZM27.054 38.0178C27.2091 38.5693 26.8927 39.1341 26.326 39.2184C23.3045 39.6679 16.6964 39.668 13.6749 39.2184C13.1082 39.134 12.7918 38.5693 12.9469 38.0178L13.6567 35.4941C13.7919 35.0131 14.2514 34.695 14.7497 34.7328C19.6491 35.1046 20.7703 35.0898 25.25 34.7355C25.7492 34.696 26.2093 35.0144 26.3449 35.4964L27.054 38.0178Z" fill="white"/>
<path fill-rule="evenodd" clip-rule="evenodd" d="M36.8431 57.9985C35.3745 57.6456 34.6783 56.2269 34.6783 54.7165L34.6783 35.852L33.1165 36.3726C32.3545 36.6266 31.5675 36.0594 31.5675 35.2562C31.5675 34.8627 31.7642 34.4952 32.0916 34.277L34.6783 32.5525V26.8829C34.6783 24.7853 35.9078 22.8825 37.8201 22.0206L38.2998 21.8044C38.9887 21.4939 39.7357 21.3334 40.4913 21.3334H47.5319C48.2875 21.3334 49.0345 21.4939 49.7234 21.8044L50.2031 22.0206C52.1154 22.8825 53.345 24.7853 53.345 26.8829V32.5525L55.9317 34.277C56.2591 34.4952 56.4558 34.8627 56.4558 35.2562C56.4558 36.0594 55.6688 36.6266 54.9067 36.3726L53.345 35.852V54.7165C53.345 56.2269 52.6488 57.6456 51.1801 57.9986C47.4731 58.8894 40.5501 58.8894 36.8431 57.9985ZM50.4166 39.2292C50.2442 39.6813 49.7818 39.9559 49.3019 39.8952C44.6717 39.3094 43.5655 39.2587 38.7266 39.8903C38.2445 39.9532 37.7782 39.6786 37.605 39.2243L35.8316 34.5737C35.6246 34.0308 35.8981 33.4209 36.4536 33.2507C40.9592 31.8703 47.0643 31.8702 51.5699 33.2507C52.1254 33.4209 52.3988 34.0308 52.1918 34.5736L50.4166 39.2292ZM51.0655 54.0178C51.2206 54.5693 50.9042 55.1341 50.3375 55.2184C47.316 55.6679 40.7078 55.668 37.6863 55.2184C37.1197 55.134 36.8032 54.5693 36.9583 54.0178L37.6681 51.4941C37.8034 51.0131 38.2629 50.695 38.7611 50.7328C43.6606 51.1046 44.7818 51.0898 49.2615 50.7355C49.7607 50.696 50.2208 51.0144 50.3564 51.4964L51.0655 54.0178Z" fill="white"/>
</svg>
