<svg width="64" height="64" viewBox="0 0 64 64" fill="none" xmlns="http://www.w3.org/2000/svg">
<path d="M22.5338 8.97491C23.7063 9.4116 23.3548 11.0007 22.1464 11.325C19.5878 12.0117 17.2396 13.2109 15.2224 14.8057H15.0845C13.2993 14.8057 12.0473 16.3095 12.1139 17.9021C9.53895 21.1345 7.99996 25.2186 7.99996 29.6671C7.99996 30.2299 8.01606 30.7901 8.04754 31.3458C8.1007 32.2839 7.2084 33.0772 6.4026 32.594C5.50883 32.058 5.13274 31.3552 4.60368 30.3366C3.42537 28.0681 2.66663 24.9316 2.66663 21.6115C2.66663 14.0941 8.99718 8 16.8063 8C19.0012 8 20.8957 8.36478 22.5338 8.97491Z" fill="white"/>
<path d="M38.8574 17.5479C39.3068 17.9431 38.9962 18.6622 38.3981 18.684C34.9784 18.8087 31.6247 19.7439 28.6606 21.5002H25.2508C22.4695 21.5002 20.757 24.5404 22.1984 26.9189C22.2666 27.0315 22.3405 27.1396 22.4198 27.2428C20.0575 30.5648 18.6666 34.6286 18.6666 39.0243C18.6666 40.4292 18.7595 41.8191 18.9356 43.1678C18.995 43.6221 18.5977 44.0117 18.1492 43.9187C14.4884 43.1592 13.9554 42.1747 12.9265 40.1373C11.5518 37.415 10.6666 33.6513 10.6666 29.6671C10.6666 20.6462 18.0523 13.3333 27.1629 13.3333C32.3626 13.3333 36.1169 15.1381 38.8574 17.5479Z" fill="white"/>
<path d="M54.4951 29.1623C54.8116 29.5903 54.497 30.1808 53.9647 30.1808H37.0008C33.994 30.1808 32.1361 33.4603 33.6818 36.0395C34.2582 37.0012 35.2235 37.6657 36.3276 37.8608L56.4996 41.4246C58.4273 41.7652 60.0459 43.1272 60.5424 45.0208C61.2122 47.5752 61.3457 49.1835 61.3324 50.371C61.3007 53.2059 59.0596 55.4269 56.2369 55.6551C50.8377 56.0916 43.4266 56.2643 34.5892 55.2486C25.7519 54.2328 25.2275 53.3201 23.7546 50.371C22.2817 47.4218 21.3333 43.3445 21.3333 39.0282C21.3333 29.2556 29.2465 21.3333 39.0079 21.3333C46.7434 21.3333 51.4933 25.1029 54.4951 29.1623Z" fill="white"/>
</svg>
