<svg width="64" height="64" viewBox="0 0 64 64" fill="none" xmlns="http://www.w3.org/2000/svg">
<path fill-rule="evenodd" clip-rule="evenodd" d="M5.33337 32C5.33337 17.2724 17.2724 5.33337 32 5.33337C46.7276 5.33337 58.6667 17.2724 58.6667 32C58.6667 46.7276 46.7276 58.6667 32 58.6667C17.2724 58.6667 5.33337 46.7276 5.33337 32ZM39.3433 47.0355C40.441 44.9344 41.339 42.3953 41.9235 39.5374C39.6492 39.7599 37.21 39.9073 34.6667 39.9683V47.8793C36.3439 47.7254 37.902 47.4309 39.3433 47.0355ZM29.3334 47.8793V39.9683C26.79 39.9073 24.3508 39.7599 22.0766 39.5374C22.6611 42.3953 23.5591 44.9344 24.6568 47.0355C26.0981 47.4309 27.6561 47.7254 29.3334 47.8793ZM46.3039 43.962C49.1593 42.1559 51.1139 40.1388 52.2236 38.8093C52.3621 38.3978 52.4884 37.9806 52.6021 37.5582C51.66 37.8625 50.6332 38.1335 49.5491 38.3744C48.8908 38.5207 48.1991 38.6585 47.4772 38.7873C47.1927 40.5942 46.7973 42.3262 46.3039 43.962ZM17.6962 43.962C17.2028 42.3262 16.8074 40.5942 16.5229 38.7873C15.801 38.6585 15.1093 38.5207 14.451 38.3744C13.3669 38.1335 12.3401 37.8625 11.398 37.5582C11.5117 37.9806 11.638 38.3978 11.7765 38.8093C12.8862 40.1388 14.8407 42.1559 17.6962 43.962ZM34.6667 34.6333C37.5181 34.5615 40.1975 34.3762 42.6112 34.1019C42.6478 33.4124 42.6667 32.7114 42.6667 32C42.6667 30.0271 42.5215 28.1336 42.2553 26.3451C39.9327 26.501 37.3715 26.6049 34.6667 26.6464V34.6333ZM34.6667 21.3124C36.932 21.2765 39.0769 21.1956 41.042 21.078C40.4129 19.1162 39.6289 17.3686 38.7405 15.8878C37.3805 13.6212 35.9664 12.2411 34.6667 11.4739V21.3124ZM48 32C48 29.8817 47.8518 27.8211 47.5718 25.8454C49.3615 25.6172 50.9384 25.3384 52.1588 25.0012C52.8625 27.0283 53.2691 29.1944 53.3264 31.4473C53.2208 31.5196 53.0735 31.6104 52.8737 31.7153C51.961 32.1949 50.465 32.7075 48.3921 33.1681C48.2574 33.198 48.1209 33.2276 47.9826 33.2569C47.9942 32.8403 48 32.4213 48 32ZM46.7542 20.5729C47.9336 20.4255 48.9223 20.2658 49.711 20.1035C48.1903 17.844 46.2486 15.8914 43.9984 14.358C44.9883 16.2268 45.8235 18.3286 46.4706 20.6077L46.7542 20.5729ZM29.3334 11.4739V21.3124C27.0681 21.2765 24.9232 21.1956 22.9581 21.078C23.5872 19.1162 24.3712 17.3686 25.2596 15.8878C26.6196 13.6212 28.0337 12.2411 29.3334 11.4739ZM20.0017 14.358C19.0118 16.2268 18.1766 18.3286 17.5295 20.6077L17.2459 20.5729C16.0665 20.4255 15.0778 20.2658 14.2891 20.1035C15.8098 17.844 17.7515 15.8914 20.0017 14.358ZM16.4283 25.8454C14.6386 25.6172 13.0617 25.3384 11.8413 25.0012C11.1376 27.0283 10.731 29.1944 10.6737 31.4473C10.7793 31.5196 10.9266 31.6104 11.1264 31.7153C12.0391 32.1949 13.535 32.7075 15.608 33.1681C15.7427 33.198 15.8792 33.2276 16.0175 33.2569C16.0059 32.8403 16 32.4213 16 32C16 29.8817 16.1482 27.8211 16.4283 25.8454ZM29.3334 26.6464C26.6286 26.6049 24.0674 26.501 21.7448 26.3451C21.4786 28.1336 21.3334 30.0271 21.3334 32C21.3334 32.7114 21.3523 33.4124 21.3889 34.1019C23.8026 34.3762 26.4819 34.5615 29.3334 34.6333V26.6464Z" fill="white"/>
</svg>
