<svg width="24" height="24" viewBox="0 0 24 24" fill="none" xmlns="http://www.w3.org/2000/svg">
<path d="M8.67041 11.7331V12.6224H7.06903C6.91122 12.6224 6.78274 12.4938 6.78274 12.3362V7.74875C6.78274 7.59094 6.91128 7.46243 7.06903 7.46243H13.7184C13.8761 7.46243 14.0046 7.59086 14.0046 7.74875V10.0532H10.3503C9.42287 10.0532 8.67041 10.8057 8.67041 11.7331Z" fill="#444444"/>
<path d="M10.3503 11.4468C10.1925 11.4468 10.064 11.5753 10.064 11.7331V16.3206C10.064 16.4782 10.1925 16.6068 10.3503 16.6068H16.9997C17.1574 16.6068 17.2859 16.4783 17.2859 16.3206V11.7331C17.2859 11.5752 17.1573 11.4468 16.9997 11.4468H10.3503Z" fill="#444444"/>
<path fill-rule="evenodd" clip-rule="evenodd" d="M23.074 12.037C23.074 18.1326 18.1326 23.074 12.037 23.074C5.94143 23.074 1 18.1326 1 12.037C1 5.94143 5.94143 1 12.037 1C18.1326 1 23.074 5.94143 23.074 12.037ZM7.06903 6.06885C6.14162 6.06885 5.38916 6.82129 5.38916 7.74875V12.3362C5.38916 13.2636 6.14168 14.016 7.06903 14.016H8.67041V16.3206C8.67041 17.248 9.42293 18.0004 10.3503 18.0004H16.9997C17.9271 18.0004 18.6795 17.2479 18.6795 16.3206V11.7331C18.6795 10.8057 17.9272 10.0532 16.9997 10.0532H15.3982V7.74875C15.3982 6.82137 14.6459 6.06885 13.7184 6.06885H7.06903Z" fill="#444444"/>
</svg>
