<svg width="24" height="24" viewBox="0 0 24 24" fill="none" xmlns="http://www.w3.org/2000/svg">
<path fill-rule="evenodd" clip-rule="evenodd" d="M12.037 5.10083C8.21918 5.10083 5.12426 8.19574 5.12426 12.0135C5.12426 15.8313 8.21918 18.9262 12.037 18.9262C15.8547 18.9262 18.9496 15.8313 18.9496 12.0135C18.9496 8.19574 15.8547 5.10083 12.037 5.10083ZM9.80078 15.1578H14.2954V13.9483H11.4048V8.92188H9.80078V15.1578Z" fill="#444444"/>
<path fill-rule="evenodd" clip-rule="evenodd" d="M12.0401 23.0594C18.1374 23.0594 23.0802 18.1212 23.0802 12.0297C23.0802 5.93816 18.1374 1 12.0401 1C5.94282 1 1 5.93816 1 12.0297C1 18.1212 5.94282 23.0594 12.0401 23.0594ZM3.20386 12.0135C3.20386 7.13513 7.15857 3.18042 12.037 3.18042C16.9153 3.18042 20.87 7.13513 20.87 12.0135C20.87 16.8919 16.9153 20.8466 12.037 20.8466C7.15857 20.8466 3.20386 16.8919 3.20386 12.0135Z" fill="#444444"/>
</svg>
