<svg width="24" height="24" viewBox="0 0 24 24" fill="none" xmlns="http://www.w3.org/2000/svg">
<path d="M6.29626 8.98387V10.9494H8.39583C9.15036 10.9494 9.40187 10.4768 9.40187 9.96128C9.40187 9.48868 9.18316 8.98387 8.39583 8.98387H6.29626Z" fill="#444444"/>
<path fill-rule="evenodd" clip-rule="evenodd" d="M4.42838 2C3.0863 2 1.99721 3.06891 2.00001 4.38711C2.01253 10.3021 2.5 15.1276 3.01579 19.2496C3.13249 19.6798 3.39174 20.0599 3.76909 20.3066C7.22269 22.5645 13.7843 22.5645 17.2379 20.3066C17.6153 20.0599 17.8717 19.6794 18.002 19.2529C18.9899 16.0186 19.9779 10.5524 20.9658 4.77919C21.2147 3.32468 20.0718 2 18.5702 2H4.42838ZM6.29626 15.1276H4.82V7.60905H8.37396C10.2986 7.60905 10.9328 8.72609 10.9328 9.96128C10.9328 10.8098 10.4407 11.7872 9.44561 12.1309L10.9328 15.1276H9.27065L7.83813 12.3242H6.29626V15.1276ZM17.6642 9.00535H15.4772V15.1276H14.0009V9.00535H11.8139V7.60905H17.6642V9.00535Z" fill="#444444"/>
</svg>
