<svg width="24" height="24" viewBox="0 0 24 24" fill="none" xmlns="http://www.w3.org/2000/svg">
<path fill-rule="evenodd" clip-rule="evenodd" d="M9.48765 23.0098C9.60008 23.0436 9.71629 23.0667 9.8354 23.0781H14.2621C14.4406 23.061 14.6126 23.0176 14.7751 22.9514C15.5578 22.6661 16.1173 21.9149 16.1173 21.034V21.0107C16.125 20.929 16.1289 20.8461 16.1289 20.7621V16.1174H21.0343C22.1603 16.1174 23.0744 15.2033 23.0744 14.0772V9.99683C23.0744 8.87075 22.1603 7.95664 21.0343 7.95664H16.1173V3.0401C16.1173 1.91411 15.2032 1 14.0774 1H9.99718C8.8712 1 7.95709 1.91411 7.95709 3.0401V7.95664H3.04018C1.9142 7.95664 1 8.87075 1 9.99683V14.0772C1 15.2033 1.9142 16.1174 3.04018 16.1174H7.95709V21.034C7.95709 21.984 8.6079 22.7833 9.48765 23.0098ZM14.2046 22.0781C14.2703 22.0686 14.3348 22.051 14.3978 22.0253L14.4151 22.0183L14.4327 22.0119C14.8336 21.8657 15.1173 21.4809 15.1173 21.034V20.9641L15.1217 20.9176C15.1264 20.8669 15.1289 20.815 15.1289 20.7621V15.1174H21.0343C21.608 15.1174 22.0744 14.651 22.0744 14.0772V9.99683C22.0744 9.42303 21.608 8.95664 21.0343 8.95664H15.1173V3.0401C15.1173 2.46636 14.6509 2 14.0774 2H9.99718C9.42349 2 8.95709 2.46639 8.95709 3.0401V8.95664H3.04018C2.46646 8.95664 2 9.42306 2 9.99683V14.0772C2 14.651 2.46646 15.1174 3.04018 15.1174H8.95709V21.034C8.95709 21.5164 9.28794 21.9257 9.73701 22.0414L9.75633 22.0464L9.77544 22.0521C9.81396 22.0637 9.85312 22.0724 9.89287 22.0781H14.2046Z" fill="black"/>
</svg>
