<svg width="24" height="24" viewBox="0 0 24 24" fill="none" xmlns="http://www.w3.org/2000/svg">
<path d="M13.3183 8.85087C13.4173 9.04886 13.4668 9.24685 13.4668 9.46134C13.4668 9.70883 13.4173 9.93982 13.3348 10.1378C13.2523 10.3358 13.0708 10.4843 12.7903 10.6163C12.5923 10.6988 12.3118 10.7648 11.9653 10.7813C11.6189 10.7978 11.2064 10.7978 10.7279 10.7978H10.2329V8.2569H10.5299C11.1404 8.2569 11.6024 8.2569 11.9488 8.2734C12.2788 8.2734 12.5593 8.32289 12.7903 8.42189C13.0378 8.50438 13.2193 8.65288 13.3183 8.85087Z" fill="#444444"/>
<path d="M13.9947 13.4542C14.1432 13.6521 14.2092 13.9491 14.2092 14.3286C14.2092 14.6256 14.1432 14.8896 14.0277 15.1041C13.9122 15.3351 13.6813 15.5001 13.3678 15.6485C13.0543 15.7805 12.7078 15.8465 12.3283 15.8465C11.9489 15.863 11.3384 15.863 10.4641 15.863H10.2329V12.8767H12.2458C12.6583 12.8767 12.9883 12.9262 13.2358 12.9922C13.5823 13.0912 13.8462 13.2397 13.9947 13.4542Z" fill="#444444"/>
<path fill-rule="evenodd" clip-rule="evenodd" d="M23.074 12.037C23.074 18.1326 18.1326 23.074 12.037 23.074C5.94143 23.074 1 18.1326 1 12.037C1 5.94143 5.94143 1 12.037 1C18.1326 1 23.074 5.94143 23.074 12.037ZM17.0801 15.9455C17.3111 15.4836 17.4266 14.9556 17.4266 14.3781C17.4266 13.5861 17.1956 12.9427 16.7336 12.4477C16.2716 11.9692 15.6612 11.6392 14.8692 11.4907V11.4247C15.4302 11.1773 15.8592 10.8308 16.1726 10.3853C16.4696 9.93982 16.6346 9.42834 16.6346 8.85087C16.6346 8.35589 16.5191 7.91041 16.2881 7.51443C16.0736 7.11845 15.7272 6.82146 15.2652 6.59048C14.8362 6.35949 14.3907 6.22749 13.9452 6.1615C13.4833 6.0955 12.7903 6.0625 11.8168 6.0625H7.16406V18.0574H12.3943C13.2688 18.0574 13.9782 17.9749 14.5557 17.8264C15.1167 17.678 15.6447 17.4305 16.1066 17.0675C16.5191 16.7705 16.8326 16.391 17.0801 15.9455Z" fill="#444444"/>
</svg>
