<svg width="24" height="24" viewBox="0 0 24 24" fill="none" xmlns="http://www.w3.org/2000/svg">
<path fill-rule="evenodd" clip-rule="evenodd" d="M3.04018 7.95664H7.95709V3.0401C7.95709 1.91411 8.8712 1 9.99718 1H14.0774C15.2032 1 16.1173 1.91411 16.1173 3.0401V7.95664H21.0343C22.1603 7.95664 23.0744 8.87075 23.0744 9.99683V14.0772C23.0744 15.2033 22.1603 16.1174 21.0343 16.1174H16.1173V21.034C16.1173 22.1599 15.2032 23.074 14.0774 23.074H9.99718C8.8712 23.074 7.95709 22.1599 7.95709 21.034V16.1406H3.32999C3.20728 16.1406 3.08677 16.1323 2.96916 16.1162C1.87601 16.0787 1 15.1795 1 14.0772V9.99683C1 8.87075 1.9142 7.95664 3.04018 7.95664ZM8.91709 7.98043H8.93698V16.1406H8.91709V21.034C8.91709 21.63 9.40102 22.114 9.99718 22.114H14.0774C14.6734 22.114 15.1574 21.63 15.1574 21.034V15.1574H21.0343C21.6304 15.1574 22.1144 14.6734 22.1144 14.0772V9.99683C22.1144 9.40067 21.6304 8.91664 21.0343 8.91664H15.1574V3.0401C15.1574 2.44403 14.6734 1.96 14.0774 1.96H9.99718C9.40102 1.96 8.91709 2.44403 8.91709 3.0401V7.98043Z" fill="#444444"/>
</svg>
