<svg width="24" height="24" viewBox="0 0 24 24" fill="none" xmlns="http://www.w3.org/2000/svg">
<path fill-rule="evenodd" clip-rule="evenodd" d="M23.0781 9.80432V14.2309C23.0685 14.3308 23.0507 14.4287 23.0253 14.524C22.8213 15.4355 22.0069 16.1174 21.0343 16.1174H16.1173V21.034C16.1173 22.1599 15.2032 23.074 14.0774 23.074H9.99718C8.8712 23.074 7.95709 22.1599 7.95709 21.034V16.1174H3.04018C1.9142 16.1174 1 15.2033 1 14.0772V9.99683C1 8.87075 1.9142 7.95664 3.04018 7.95664H7.95709V3.0401C7.95709 1.91411 8.8712 1 9.99718 1H14.0774C15.2032 1 16.1173 1.91411 16.1173 3.0401V7.9375H20.7623C20.8725 7.9375 20.981 7.94425 21.0872 7.95731C21.9198 7.97856 22.629 8.49955 22.9257 9.23124C23.0065 9.41121 23.0589 9.60365 23.0781 9.80432ZM15.1611 8.91664H15.1574V3.0401C15.1574 2.44403 14.6734 1.96 14.0774 1.96H9.99718C9.40102 1.96 8.91709 2.44403 8.91709 3.0401V8.91664H3.04018C2.44403 8.91664 1.96 9.40067 1.96 9.99683V14.0772C1.96 14.6734 2.44403 15.1574 3.04018 15.1574H8.91709V21.034C8.91709 21.63 9.40102 22.114 9.99718 22.114H14.0774C14.6734 22.114 15.1574 21.63 15.1574 21.034V15.1574H15.1611V8.91664Z" fill="#444444"/>
</svg>
