<svg width="24" height="24" viewBox="0 0 24 24" fill="none" xmlns="http://www.w3.org/2000/svg">
<path fill-rule="evenodd" clip-rule="evenodd" d="M3.04018 7.95664H7.95709V3.0401C7.95709 2.07281 8.63169 1.26188 9.53568 1.05251C9.63068 1.02725 9.72822 1.00955 9.82779 1H14.2544C14.3737 1.01143 14.49 1.03456 14.6026 1.06838C15.4743 1.30035 16.1173 2.0957 16.1173 3.0401V3.168C16.12 3.21611 16.1213 3.26461 16.1213 3.31347V7.95664H21.0343C22.1603 7.95664 23.0744 8.87075 23.0744 9.99683V14.0772C23.0744 15.2033 22.1603 16.1174 21.0343 16.1174H16.1173V21.034C16.1173 22.1599 15.2032 23.074 14.0774 23.074H9.99718C8.8712 23.074 7.95709 22.1599 7.95709 21.034V16.1174H3.04018C1.9142 16.1174 1 15.2033 1 14.0772V9.99683C1 8.87075 1.9142 7.95664 3.04018 7.95664ZM8.91709 8.90884H15.1574V8.91664H21.0343C21.6304 8.91664 22.1144 9.40067 22.1144 9.99683V14.0772C22.1144 14.6734 21.6304 15.1574 21.0343 15.1574H15.1574V21.034C15.1574 21.63 14.6734 22.114 14.0774 22.114H9.99718C9.40102 22.114 8.91709 21.63 8.91709 21.034V15.1574H3.04018C2.44403 15.1574 1.96 14.6734 1.96 14.0772V9.99683C1.96 9.40067 2.44403 8.91664 3.04018 8.91664H8.91709V8.90884Z" fill="#444444"/>
</svg>
