<svg width="24" height="24" viewBox="0 0 24 24" fill="none" xmlns="http://www.w3.org/2000/svg">
<path fill-rule="evenodd" clip-rule="evenodd" d="M5.42983 2C3.9282 2 2.78526 3.32468 3.03416 4.77919C4.02211 10.5524 5.01005 16.0186 5.998 19.2529C6.12826 19.6794 6.38472 20.0599 6.76206 20.3066C10.2157 22.5645 16.7773 22.5645 20.2309 20.3066C20.6083 20.0599 20.8675 19.6798 20.9842 19.2496C21.5 15.1276 21.9875 10.3021 22 4.38711C22.0028 3.06891 20.9137 2 19.5716 2H5.42983ZM13.2535 15.1276H8.08115V7.60905H9.55741V13.7313H13.2535V15.1276ZM19.435 9.00535H17.248V15.1276H15.7717V9.00535H13.5847V7.60905H19.435V9.00535Z" fill="#444444"/>
</svg>
