<svg width="24" height="24" viewBox="0 0 24 24" fill="none" xmlns="http://www.w3.org/2000/svg">
<path fill-rule="evenodd" clip-rule="evenodd" d="M14.2621 23.0781H9.8354C9.71629 23.0667 9.60008 23.0436 9.48765 23.0098C8.6079 22.7833 7.95709 21.984 7.95709 21.034V16.1174H3.04018C1.9142 16.1174 1 15.2033 1 14.0772V9.99683C1 8.87075 1.9142 7.95664 3.04018 7.95664H7.95709V3.0401C7.95709 1.91411 8.8712 1 9.99718 1H14.0774C15.2032 1 16.1173 1.91411 16.1173 3.0401V7.95664H21.0343C22.1603 7.95664 23.0744 8.87075 23.0744 9.99683V14.0772C23.0744 15.2033 22.1603 16.1174 21.0343 16.1174H16.1289V20.7621C16.1289 20.8461 16.125 20.929 16.1173 21.0107V21.034C16.1173 21.9149 15.5578 22.6661 14.7751 22.9514C14.6126 23.0176 14.4406 23.061 14.2621 23.0781ZM15.1574 15.1605V15.1574H21.0343C21.6304 15.1574 22.1144 14.6734 22.1144 14.0772V9.99683C22.1144 9.40067 21.6304 8.91664 21.0343 8.91664H15.1574V3.0401C15.1574 2.44403 14.6734 1.96 14.0774 1.96H9.99718C9.40102 1.96 8.91709 2.44403 8.91709 3.0401V8.91664H3.04018C2.44403 8.91664 1.96 9.40067 1.96 9.99683V14.0772C1.96 14.6734 2.44403 15.1574 3.04018 15.1574H8.91709V15.1605H15.1574Z" fill="#444444"/>
</svg>
