<svg width="24" height="24" viewBox="0 0 24 24" fill="none" xmlns="http://www.w3.org/2000/svg">
<path fill-rule="evenodd" clip-rule="evenodd" d="M23.074 12.037C23.074 18.1326 18.1326 23.074 12.037 23.074C5.94143 23.074 1 18.1326 1 12.037C1 5.94143 5.94143 1 12.037 1C18.1326 1 23.074 5.94143 23.074 12.037ZM17.5536 7.07887C17.8187 7.07887 18.0339 7.29397 18.0339 7.55915V8.51972C18.0339 8.78475 17.8187 9 17.5536 9H6.57798C6.31288 9 6.09766 8.78475 6.09766 8.51972V7.55915C6.09766 7.29397 6.31288 7.07887 6.57798 7.07887H17.5536ZM17.9988 11.5584C17.9988 11.2932 17.7835 11.0781 17.5184 11.0781H6.54282C6.27772 11.0781 6.0625 11.2932 6.0625 11.5584V12.519C6.0625 12.784 6.27772 12.9993 6.54282 12.9993H17.5184C17.7835 12.9993 17.9988 12.784 17.9988 12.519V11.5584ZM17.4833 15.0789C17.7484 15.0789 17.9636 15.294 17.9636 15.5592V16.5197C17.9636 16.7848 17.7484 17 17.4833 17H6.50766C6.24257 17 6.02734 16.7848 6.02734 16.5197V15.5592C6.02734 15.294 6.24257 15.0789 6.50766 15.0789H17.4833Z" fill="#444444"/>
</svg>
