<svg width="24" height="24" viewBox="0 0 24 24" fill="none" xmlns="http://www.w3.org/2000/svg">
<path d="M5.40075 9.494V11.4155H7.33328C8.02778 11.4155 8.25929 10.9535 8.25929 10.4495C8.25929 9.9875 8.05798 9.494 7.33328 9.494H5.40075Z" fill="#444444"/>
<path d="M12.5907 11.0375H14.1609C14.8856 11.0375 15.2278 10.7225 15.2278 10.25C15.2278 9.872 15.0869 9.473 14.3421 9.473H12.5907V11.0375Z" fill="#444444"/>
<path d="M12.5907 14.177H14.5333C15.258 14.177 15.4694 13.7045 15.4694 13.316C15.4694 12.8435 15.248 12.3605 14.2515 12.3605H12.5907V14.177Z" fill="#444444"/>
<path fill-rule="evenodd" clip-rule="evenodd" d="M21.6809 6.40837C22.6595 6.86778 23.1875 7.98755 22.9389 9.07663L21.5397 19.2071C21.2998 20.2582 20.3996 21 19.3638 21H3.23672C2.00141 21 1 19.9553 1 18.6667V5.33333C1 4.04467 2.00142 3 3.23672 3H11.0598C13.2749 3 15.4649 3.49034 17.4849 4.43861L21.6809 6.40837ZM5.40075 15.5H4.04194V8.15H7.31315C9.08464 8.15 9.66842 9.242 9.66842 10.4495C9.66842 11.279 9.21548 12.2345 8.29955 12.5705L9.66842 15.5H8.1385L6.81995 12.7595H5.40075V15.5ZM11.2319 15.5V8.15H14.3219C16.0431 8.15 16.6068 9.1265 16.6068 10.124C16.6068 10.7435 16.3652 11.321 15.7512 11.6255C16.5464 11.93 16.8483 12.6755 16.8483 13.316C16.8483 14.3555 16.2243 15.5 14.4629 15.5H11.2319Z" fill="#444444"/>
</svg>
