<svg width="24" height="24" viewBox="0 0 24 24" fill="none" xmlns="http://www.w3.org/2000/svg">
<path d="M15.429 11.0375H16.9991C17.7238 11.0375 18.066 10.7225 18.066 10.25C18.066 9.872 17.9251 9.473 17.1803 9.473H15.429V11.0375Z" fill="#444444"/>
<path d="M15.429 14.177H17.3715C18.0962 14.177 18.3076 13.7045 18.3076 13.316C18.3076 12.8435 18.0862 12.3605 17.0897 12.3605H15.429V14.177Z" fill="#444444"/>
<path fill-rule="evenodd" clip-rule="evenodd" d="M2.31911 6.40837C1.34046 6.86778 0.812516 7.98755 1.06109 9.07663L2.46029 19.2071C2.70019 20.2582 3.60045 21 4.63619 21H20.7633C21.9986 21 23 19.9553 23 18.6667V5.33333C23 4.04467 21.9986 3 20.7633 3H12.9402C10.7251 3 8.53514 3.49034 6.5151 4.43861L2.31911 6.40837ZM12.909 15.5H8.14815V8.15H9.50696V14.135H12.909V15.5ZM14.0701 15.5V8.15H17.1602C18.8813 8.15 19.445 9.1265 19.445 10.124C19.445 10.7435 19.2034 11.321 18.5894 11.6255C19.3846 11.93 19.6866 12.6755 19.6866 13.316C19.6866 14.3555 19.0625 15.5 17.3011 15.5H14.0701Z" fill="#444444"/>
</svg>
