<svg width="24" height="24" viewBox="0 0 24 24" fill="none" xmlns="http://www.w3.org/2000/svg">
<path fill-rule="evenodd" clip-rule="evenodd" d="M9.8354 23.0781H14.2621C14.4406 23.061 14.6126 23.0176 14.7751 22.9514C15.5578 22.6661 16.1173 21.9149 16.1173 21.034V21.0107C16.125 20.929 16.1289 20.8461 16.1289 20.7621V16.1174H21.0343C22.1603 16.1174 23.0744 15.2033 23.0744 14.0772V9.99683C23.0744 8.87075 22.1603 7.95664 21.0343 7.95664H16.1173V3.0401C16.1173 1.91411 15.2032 1 14.0774 1H9.99718C8.8712 1 7.95709 1.91411 7.95709 3.0401V7.95664H3.04018C1.9142 7.95664 1 8.87075 1 9.99683V14.0772C1 15.2033 1.9142 16.1174 3.04018 16.1174H7.95709V21.034C7.95709 21.984 8.6079 22.7833 9.48765 23.0098C9.60008 23.0436 9.71629 23.0667 9.8354 23.0781ZM11 9C9.89543 9 9 9.89543 9 11V13C9 14.1046 9.89543 15 11 15H13C14.1046 15 15 14.1046 15 13V11C15 9.89543 14.1046 9 13 9H11Z" fill="black"/>
</svg>