<svg width="24" height="24" viewBox="0 0 24 24" fill="none" xmlns="http://www.w3.org/2000/svg">
<path d="M12.9748 10.4315C13.0435 10.543 13.0692 10.6717 13.0692 10.8347C13.0692 11.0062 13.0435 11.1435 12.992 11.255C12.9405 11.3579 12.8633 11.4523 12.7518 11.538C12.6317 11.6324 12.4859 11.6839 12.3144 11.7096C12.1428 11.7353 11.9284 11.7525 11.6711 11.7525H11.1736V10.0713H11.7568C11.9541 10.0713 12.1171 10.0713 12.2629 10.0798C12.4087 10.097 12.5374 10.1227 12.6489 10.1656C12.8033 10.2257 12.9148 10.32 12.9748 10.4315Z" fill="#444444"/>
<path fill-rule="evenodd" clip-rule="evenodd" d="M23.0802 12.0297C23.0802 18.1212 18.1374 23.0594 12.0401 23.0594C5.94282 23.0594 1 18.1212 1 12.0297C1 5.93816 5.94282 1 12.0401 1C18.1374 1 23.0802 5.93816 23.0802 12.0297ZM18.043 15.1612L22.375 12.0417L18.043 8.92224V15.1612ZM1.71484 12.0413L6.04682 15.1609V8.92188L1.71484 12.0413ZM13.6182 15.1578H15.5824L13.4981 12.4816C13.9012 12.2929 14.2014 12.0527 14.4159 11.7611C14.6303 11.4694 14.7333 11.092 14.7333 10.6374C14.7333 10.3029 14.6646 10.0198 14.5274 9.79679C14.3902 9.57377 14.2014 9.39364 13.9698 9.2564C13.7383 9.11916 13.4895 9.02481 13.2236 8.98192C12.9577 8.93903 12.6403 8.92188 12.2715 8.92188H9.57812V15.1578H11.1736V12.8676H11.9198L13.6182 15.1578Z" fill="#444444"/>
</svg>
