<svg width="56" height="56" viewBox="0 0 56 56" fill="none" xmlns="http://www.w3.org/2000/svg">
<path d="M46.4942 7.82196C34.8307 7.05935 21.1693 7.05935 9.50582 7.82196C8.22296 7.90583 7.36554 9.17134 7.7719 10.391C12.4958 24.5696 19.4903 37.7126 26.622 45.5533C27.3653 46.3704 28.6348 46.3704 29.378 45.5533C36.5098 37.7126 43.5043 24.5696 48.2281 10.391C48.6345 9.17134 47.7771 7.90584 46.4942 7.82196Z" fill="#345FFF"/>
<path fill-rule="evenodd" clip-rule="evenodd" d="M9.31008 4.82835C21.1039 4.05722 34.8961 4.05722 46.6899 4.82835C49.9191 5.03949 52.1069 8.24014 51.0743 11.3393C46.2727 25.7512 39.1067 39.316 31.5973 47.5719C29.6638 49.6975 26.3362 49.6975 24.4027 47.5719C16.8933 39.316 9.72733 25.7512 4.92571 11.3393C3.89316 8.24014 6.08091 5.03948 9.31008 4.82835ZM9.50582 7.82196C21.1693 7.05935 34.8307 7.05935 46.4942 7.82196C47.7771 7.90584 48.6345 9.17134 48.2281 10.391C43.5042 24.5696 36.5098 37.7126 29.378 45.5533C28.6348 46.3704 27.3653 46.3704 26.622 45.5533C19.4903 37.7126 12.4958 24.5696 7.7719 10.391C7.36553 9.17134 8.22295 7.90584 9.50582 7.82196Z" fill="white"/>
<path d="M24.0829 16.1695L19.4475 10.3753C19.2698 10.1532 19.006 10.0173 18.722 10.0015C18.438 9.9858 18.1607 10.0918 17.9596 10.2929L15.2929 12.9596C15.0918 13.1607 14.9858 13.438 15.0015 13.722C15.0173 14.006 15.1532 14.2698 15.3753 14.4475L21.1695 19.0829L20.6262 19.6262C20.3715 19.881 20.2735 20.2531 20.3696 20.6003C20.4658 20.9475 20.7413 21.2161 21.0908 21.3035L25.6676 22.4477C25.5868 22.5143 25.5115 22.588 25.4429 22.6684C25.0442 23.1354 24.8854 23.8365 25.2503 24.5031C25.7809 25.4724 26.8125 26.1334 28 26.1334C29.7305 26.1334 31.1333 24.7305 31.1333 23C31.1333 21.8126 30.4724 20.7809 29.5031 20.2503C28.8365 19.8854 28.1353 20.0442 27.6683 20.4429C27.588 20.5115 27.5143 20.5868 27.4477 20.6676L26.3035 16.0908C26.2161 15.7413 25.9475 15.4658 25.6003 15.3696C25.2531 15.2734 24.881 15.3715 24.6262 15.6262L24.0829 16.1695ZM18.3333 22C17.2559 22 16.2725 22.8939 16.3838 24.0916C16.9348 30.0236 21.9246 34.6667 28 34.6667C34.4433 34.6667 39.6667 29.4434 39.6667 23C39.6667 16.9246 35.0236 11.9348 29.0916 11.3838C27.8938 11.2726 27 12.2559 27 13.3334C27 14.4636 27.9033 15.2712 28.8844 15.3837C32.7015 15.8215 35.6667 19.0652 35.6667 23C35.6667 27.2342 32.2342 30.6667 28 30.6667C24.0652 30.6667 20.8215 27.7016 20.3837 23.8844C20.2712 22.9033 19.4635 22 18.3333 22ZM22.6 22C21.546 22 20.4925 22.8927 20.6891 24.1507C21.2425 27.6914 24.304 30.4 28 30.4C32.0869 30.4 35.4 27.087 35.4 23C35.4 19.304 32.6913 16.2425 29.1506 15.6891C27.8926 15.4925 27 16.5461 27 17.6C27 18.7458 27.9126 19.4899 28.7673 19.6868C30.2759 20.0343 31.4 21.3871 31.4 23C31.4 24.8778 29.8778 26.4 28 26.4C26.3871 26.4 25.0343 25.2759 24.6867 23.7674C24.4898 22.9127 23.7457 22 22.6 22Z" fill="white" stroke="#345FFF" stroke-width="2" stroke-linejoin="round"/>
</svg>
