<svg width="24" height="24" viewBox="0 0 24 24" fill="none" xmlns="http://www.w3.org/2000/svg">
<path fill-rule="evenodd" clip-rule="evenodd" d="M13.5004 10.8632C13.7787 11.0105 14.1155 11.0842 14.5108 11.0842C14.9084 11.0842 15.2452 11.0105 15.5212 10.8632C15.7972 10.7135 16.0206 10.5159 16.1913 10.2703C16.3644 10.0223 16.4896 9.74869 16.5667 9.4493C16.6463 9.14991 16.686 8.84819 16.686 8.54413C16.686 8.24006 16.6463 7.93834 16.5667 7.63895C16.4896 7.33957 16.3644 7.06708 16.1913 6.82149C16.0206 6.57356 15.7972 6.37592 15.5212 6.22857C15.2452 6.07887 14.9084 6.00403 14.5108 6.00403C14.1155 6.00403 13.7787 6.07887 13.5004 6.22857C13.222 6.37592 12.9963 6.57356 12.8233 6.82149C12.6525 7.06708 12.5274 7.33957 12.4479 7.63895C12.3683 7.93834 12.3286 8.24006 12.3286 8.54413C12.3286 8.84819 12.3683 9.14991 12.4479 9.4493C12.5274 9.74869 12.6525 10.0223 12.8233 10.2703C12.9963 10.5159 13.222 10.7135 13.5004 10.8632ZM14.9879 9.87382C14.857 9.96504 14.6979 10.0106 14.5108 10.0106C14.319 10.0106 14.1565 9.96621 14.0231 9.87733C13.8922 9.78845 13.7857 9.6715 13.7039 9.52649C13.6243 9.37913 13.567 9.22008 13.532 9.04934C13.4969 8.87626 13.4793 8.70785 13.4793 8.54413C13.4793 8.38508 13.4957 8.22018 13.5284 8.04944C13.5635 7.87636 13.6208 7.71614 13.7004 7.56879C13.7799 7.42143 13.8851 7.30215 14.0161 7.21093C14.1494 7.11737 14.3143 7.07059 14.5108 7.07059C14.7049 7.07059 14.8675 7.11503 14.9985 7.20391C15.1318 7.29279 15.237 7.40974 15.3142 7.55475C15.3938 7.69977 15.4499 7.85881 15.4826 8.0319C15.5177 8.20498 15.5353 8.37572 15.5353 8.54413C15.5353 8.70318 15.5166 8.86807 15.4791 9.03881C15.444 9.20956 15.3856 9.36861 15.3037 9.51596C15.2242 9.66331 15.1189 9.7826 14.9879 9.87382Z" fill="black"/>
<path d="M7.3699 6.08823V11H8.46453V8.48799C8.46453 8.44121 8.46336 8.38274 8.46102 8.31257C8.46102 8.24006 8.45517 8.17223 8.44348 8.10908C8.46921 8.16522 8.50429 8.23422 8.54873 8.31608C8.59551 8.39794 8.63059 8.45525 8.65398 8.48799L10.4713 11H11.4327V6.08823H10.331V8.57219C10.331 8.60728 10.3322 8.66692 10.3345 8.75112C10.3392 8.83299 10.345 8.89731 10.3521 8.94409C10.331 8.89029 10.2971 8.82363 10.2503 8.74411C10.2035 8.66458 10.1696 8.60962 10.1486 8.57921L8.37331 6.08823H7.3699Z" fill="black"/>
<path d="M7.19615 16.8492C7.46279 16.9965 7.79025 17.0702 8.17851 17.0702C8.48024 17.0702 8.74571 17.0141 8.97492 16.9018C9.20414 16.7895 9.40295 16.634 9.57135 16.4352C9.73976 16.2364 9.8836 16.0083 10.0029 15.751L8.99246 15.3721C8.8802 15.5569 8.75857 15.7089 8.62759 15.8282C8.49661 15.9452 8.34692 16.0036 8.17851 16.0036C8.01478 16.0036 7.87445 15.9604 7.7575 15.8738C7.64055 15.7849 7.54466 15.6692 7.46981 15.5265C7.39496 15.3838 7.34 15.2271 7.30491 15.0564C7.26983 14.8833 7.25229 14.7125 7.25229 14.5441C7.25229 14.3804 7.26749 14.2132 7.2979 14.0424C7.33064 13.8693 7.3821 13.7091 7.45227 13.5618C7.52244 13.4144 7.61716 13.2963 7.73645 13.2074C7.85574 13.1162 8.00309 13.0706 8.17851 13.0706C8.30247 13.0706 8.41124 13.094 8.50479 13.1408C8.59835 13.1852 8.68489 13.2507 8.76442 13.3372C8.84394 13.4238 8.92464 13.529 9.0065 13.653L9.99587 13.2109C9.91401 13.0074 9.79005 12.8133 9.62398 12.6285C9.46025 12.4438 9.25677 12.2941 9.01352 12.1794C8.7726 12.0625 8.49427 12.004 8.17851 12.004C7.79492 12.004 7.46981 12.0824 7.20317 12.2391C6.93887 12.3958 6.72485 12.6016 6.56113 12.8566C6.39974 13.1092 6.28279 13.384 6.21028 13.6811C6.13778 13.9781 6.10152 14.2658 6.10152 14.5441C6.10152 14.8482 6.13661 15.1499 6.20678 15.4493C6.27928 15.7463 6.39623 16.0177 6.55762 16.2633C6.71901 16.5065 6.93185 16.7018 7.19615 16.8492Z" fill="black"/>
<path fill-rule="evenodd" clip-rule="evenodd" d="M12.6709 17.0842C12.2757 17.0842 11.9388 17.0105 11.6605 16.8632C11.3822 16.7135 11.1565 16.5159 10.9834 16.2703C10.8126 16.0223 10.6875 15.7487 10.608 15.4493C10.5285 15.1499 10.4887 14.8482 10.4887 14.5441C10.4887 14.2401 10.5285 13.9383 10.608 13.639C10.6875 13.3396 10.8126 13.0671 10.9834 12.8215C11.1565 12.5736 11.3822 12.3759 11.6605 12.2286C11.9388 12.0789 12.2757 12.004 12.6709 12.004C13.0686 12.004 13.4054 12.0789 13.6814 12.2286C13.9574 12.3759 14.1807 12.5736 14.3515 12.8215C14.5246 13.0671 14.6497 13.3396 14.7269 13.639C14.8064 13.9383 14.8462 14.2401 14.8462 14.5441C14.8462 14.8482 14.8064 15.1499 14.7269 15.4493C14.6497 15.7487 14.5246 16.0223 14.3515 16.2703C14.1807 16.5159 13.9574 16.7135 13.6814 16.8632C13.4054 17.0105 13.0686 17.0842 12.6709 17.0842ZM12.6709 16.0106C12.8581 16.0106 13.0171 15.965 13.1481 15.8738C13.2791 15.7826 13.3843 15.6633 13.4638 15.516C13.5457 15.3686 13.6042 15.2096 13.6393 15.0388C13.6767 14.8681 13.6954 14.7032 13.6954 14.5441C13.6954 14.3757 13.6779 14.205 13.6428 14.0319C13.61 13.8588 13.5539 13.6998 13.4744 13.5548C13.3972 13.4097 13.2919 13.2928 13.1586 13.2039C13.0276 13.115 12.8651 13.0706 12.6709 13.0706C12.4745 13.0706 12.3096 13.1174 12.1762 13.2109C12.0453 13.3021 11.94 13.4214 11.8605 13.5688C11.781 13.7161 11.7237 13.8764 11.6886 14.0494C11.6558 14.2202 11.6395 14.3851 11.6395 14.5441C11.6395 14.7079 11.657 14.8763 11.6921 15.0493C11.7272 15.2201 11.7845 15.3791 11.864 15.5265C11.9459 15.6715 12.0523 15.7884 12.1833 15.8773C12.3166 15.9662 12.4791 16.0106 12.6709 16.0106Z" fill="black"/>
<path fill-rule="evenodd" clip-rule="evenodd" d="M3 12C3 8.25027 3 6.3754 3.95491 5.06107C4.26331 4.6366 4.6366 4.26331 5.06107 3.95491C6.3754 3 8.25027 3 12 3C15.7497 3 17.6246 3 18.9389 3.95491C19.3634 4.26331 19.7367 4.6366 20.0451 5.06107C21 6.3754 21 8.25027 21 12C21 15.7497 21 17.6246 20.0451 18.9389C19.7367 19.3634 19.3634 19.7367 18.9389 20.0451C17.6246 21 15.7497 21 12 21C8.25027 21 6.3754 21 5.06107 20.0451C4.6366 19.7367 4.26331 19.3634 3.95491 18.9389C3 17.6246 3 15.7497 3 12ZM12 19.5C10.0917 19.5 8.781 19.4979 7.77883 19.3894C6.80473 19.2838 6.3016 19.0923 5.94275 18.8316C5.64562 18.6157 5.38432 18.3544 5.16844 18.0572C4.98842 17.8095 4.84138 17.4929 4.73286 17H5.56955V12.0882H4.5C4.5 12.059 4.5 12.0296 4.5 12C4.5 10.0917 4.50206 8.781 4.61064 7.77883C4.71617 6.80473 4.90772 6.3016 5.16844 5.94275C5.38432 5.64562 5.64562 5.38432 5.94275 5.16844C6.3016 4.90772 6.80473 4.71617 7.77883 4.61064C8.781 4.50206 10.0917 4.5 12 4.5C13.9083 4.5 15.219 4.50206 16.2212 4.61064C17.1953 4.71617 17.6984 4.90772 18.0572 5.16844C18.3544 5.38432 18.6157 5.64562 18.8316 5.94275C19.0923 6.3016 19.2838 6.80473 19.3894 7.77883C19.4979 8.781 19.5 10.0917 19.5 12C19.5 12.0296 19.5 12.059 19.5 12.0882H18.7045V14.5722C18.7045 14.6073 18.7057 14.6669 18.708 14.7511C18.7127 14.833 18.7185 14.8973 18.7255 14.9441C18.7045 14.8903 18.6706 14.8236 18.6238 14.7441C18.577 14.6646 18.5431 14.6096 18.5221 14.5792L16.7468 12.0882H15.7434V17H16.838V14.488C16.838 14.4412 16.8368 14.3827 16.8345 14.3126C16.8345 14.2401 16.8287 14.1722 16.817 14.1091C16.8427 14.1652 16.8778 14.2342 16.9222 14.3161C16.969 14.3979 17.0041 14.4552 17.0275 14.488L18.8448 17H19.2671C19.1586 17.4929 19.0116 17.8095 18.8316 18.0572C18.6157 18.3544 18.3544 18.6157 18.0572 18.8316C17.6984 19.0923 17.1953 19.2838 16.2212 19.3894C15.219 19.4979 13.9083 19.5 12 19.5Z" fill="black"/>
</svg>
