<svg width="49" height="51" viewBox="0 0 49 51" fill="none" xmlns="http://www.w3.org/2000/svg">
<path fill-rule="evenodd" clip-rule="evenodd" d="M34.9172 27.4135C42.281 27.4135 48.2505 21.444 48.2505 14.0802C48.2505 6.71636 42.281 0.746826 34.9172 0.746826C28.8124 0.746826 23.6658 4.8496 22.0845 10.4483C21.9274 11.0043 21.4353 11.4135 20.8575 11.4135C20.4239 11.4135 20.0276 11.1792 19.7863 10.8189C17.8726 7.96138 14.6146 6.08016 10.9172 6.08016C5.02612 6.08016 0.250488 10.8558 0.250488 16.7468C0.250488 22.6379 5.02612 27.4135 10.9172 27.4135H34.9172ZM10.9172 19.4135C12.3899 19.4135 13.5838 18.2196 13.5838 16.7468C13.5838 15.2741 12.3899 14.0802 10.9172 14.0802C9.4444 14.0802 8.25049 15.2741 8.25049 16.7468C8.25049 18.2196 9.4444 19.4135 10.9172 19.4135ZM40.2505 14.0802C40.2505 17.0257 37.8627 19.4135 34.9172 19.4135C31.9716 19.4135 29.5838 17.0257 29.5838 14.0802C29.5838 11.1346 31.9716 8.74683 34.9172 8.74683C37.8627 8.74683 40.2505 11.1346 40.2505 14.0802Z" fill="white"/>
<path d="M12.2505 31.4135C10.7777 31.4135 9.58382 32.6074 9.58382 34.0802H6.91716C6.18077 34.0802 5.58382 34.6771 5.58382 35.4135V40.7468C5.58382 41.4832 6.18077 42.0802 6.91716 42.0802H9.75185C10.3439 44.3805 12.432 46.0802 14.9172 46.0802H24.2505C27.196 46.0802 29.5838 43.6923 29.5838 40.7468V34.0802C29.5838 32.6074 28.3899 31.4135 26.9172 31.4135H12.2505Z" fill="white"/>
<path d="M34.9171 31.4098C34.1808 31.4159 33.5838 32.0104 33.5838 32.7468V42.6999C33.5838 43.1457 33.8066 43.562 34.1776 43.8093L43.5109 50.0315C44.397 50.6222 45.5838 49.9871 45.5838 48.9221V31.2382C45.5838 30.1733 44.3781 29.517 43.4057 29.9513C40.5762 31.215 37.7467 31.3865 34.9171 31.4098Z" fill="white"/>
</svg>
