<svg width="65" height="65" viewBox="0 0 65 65" fill="none" xmlns="http://www.w3.org/2000/svg">
<g id="24/decal [decals]">
<path id="Union" fill-rule="evenodd" clip-rule="evenodd" d="M32.9173 53.8292C32.4393 53.8292 31.9648 53.8135 31.4946 53.7826C30.3444 53.7068 29.2191 53.5399 28.1258 53.289C18.6509 51.1146 11.584 42.6305 11.584 32.4959C11.584 20.7139 21.1352 11.1626 32.9173 11.1626C43.0519 11.1626 51.536 18.2295 53.7104 27.7044C53.9613 28.7977 54.1282 29.923 54.204 31.0733C54.2349 31.5434 54.2506 32.0178 54.2506 32.4958L32.9173 53.8292ZM16.9173 32.4959C16.9173 39.4695 21.3786 45.401 27.6028 47.5921C28.0639 36.529 36.9504 27.6425 48.0135 27.1814C45.8224 20.9572 39.8908 16.4959 32.9173 16.4959C24.0808 16.4959 16.9173 23.6594 16.9173 32.4959Z" fill="white"/>
</g>
</svg>
