<svg width="47" height="49" viewBox="0 0 47 49" fill="none" xmlns="http://www.w3.org/2000/svg">
<path d="M8.75539 38.0799L35.5837 11.2516V16.9085L14.4122 38.0799H8.75539Z" fill="white"/>
<path d="M19.4221 38.0799L35.5837 21.9183V27.5752L25.0789 38.0799H19.4221Z" fill="white"/>
<path d="M30.0887 38.0799L35.5837 32.585V38.0799H30.0887Z" fill="white"/>
<path fill-rule="evenodd" clip-rule="evenodd" d="M0.916992 0.746582H35.5837L46.2503 8.74658V48.7466H8.91699L0.916992 38.0799V0.746582ZM34.9143 6.91121L40.917 11.4132V43.4132H11.5837L6.25033 36.3021V35.5752L34.9143 6.91121ZM30.0887 6.07992H25.0786L6.25033 24.9082V29.9183L30.0887 6.07992ZM19.4217 6.07992H14.4122L6.25033 14.2418V19.2513L19.4217 6.07992ZM6.25033 8.58498L8.75539 6.07992H6.25033V8.58498Z" fill="white"/>
</svg>
